M48
INCH
T1C0.0118
T2C0.0130
T3C0.0197
T4C0.0256
T5C0.0276
T6C0.0350
T7C0.0791
T8C0.1063
%
G90
G05
T1
X0.9828Y-4.2042
X1.2106Y-3.6122
X1.2106Y-3.6811
X1.2121Y-3.0133
X1.2205Y-4.2421
X1.3568Y-4.2042
X1.4982Y-3.014
X1.4982Y-3.364
X1.4982Y-3.8856
X1.499Y-3.064
X1.6339Y-2.5098
X1.6535Y-2.7953
X1.6535Y-2.8346
X1.6929Y-2.7953
X1.6929Y-2.8346
X1.7421Y-2.4705
X1.7717Y-2.5098
X1.777Y-2.7218
X1.7792Y-2.6158
X1.8057Y-3.214
X1.8057Y-3.7356
X1.8073Y-3.114
X1.8081Y-3.314
X1.8081Y-3.5856
X1.8089Y-3.364
X1.8089Y-3.8856
X1.8209Y-3.9272
X1.8307Y-3.622
X1.8307Y-3.6909
X1.8307Y-4.0354
X1.8406Y-2.9035
X1.8406Y-3.0413
X1.8406Y-3.0906
X1.8406Y-3.4252
X1.8406Y-3.563
X1.8436Y-2.497
X1.8602Y-2.7953
X1.8602Y-2.8346
X1.8602Y-3.3465
X1.8799Y-3.7598
X1.8799Y-3.8484
X1.8898Y-4.0354
X1.8996Y-2.7953
X1.8996Y-2.8346
X1.9094Y-2.9035
X1.9094Y-3.0413
X1.9094Y-3.4252
X1.9094Y-3.563
X1.9193Y-3.8878
X1.9291Y-3.1398
X1.9488Y-3.1988
X1.9768Y-2.6166
X1.9783Y-2.7362
X1.9783Y-2.8445
X1.9783Y-2.9134
X1.9783Y-3.8681
X1.9882Y-3.2972
X1.9882Y-3.5728
X1.9897Y-3.0527
X1.9902Y-3.0098
X1.9902Y-3.1476
X2.0276Y-3.5335
X2.0276Y-3.6713
X2.0374Y-4.0217
X2.0571Y-3.4646
X2.1161Y-2.8445
X2.1161Y-2.9134
X2.1358Y-2.9429
X2.1358Y-3.6319
X2.1555Y-2.5492
X2.1555Y-2.5886
X2.1555Y-2.628
X2.1555Y-2.6673
X2.1634Y-3.6535
X2.1654Y-3.5827
X2.185Y-3.4843
X2.1949Y-2.628
X2.1949Y-2.6673
X2.2244Y-3.563
X2.2244Y-3.6024
X2.2244Y-4.0394
X2.2274Y-2.8514
X2.2343Y-2.628
X2.2343Y-2.6673
X2.2441Y-3.4646
X2.2441Y-3.5039
X2.2539Y-2.8937
X2.2736Y-2.6476
X2.2736Y-3.3366
X2.2835Y-2.9134
X2.2884Y-3.3022
X2.312Y-2.6289
X2.313Y-3.3268
X2.3179Y-2.938
X2.3228Y-4.0945
X2.3228Y-4.1339
X2.3524Y-4.0354
X2.3622Y-2.8937
X2.3622Y-4.0945
X2.3898Y-2.8346
X2.3917Y-3.6614
X2.4016Y-3.0217
X2.4016Y-3.937
X2.4016Y-3.9665
X2.4213Y-3.6024
X2.4409Y-2.9724
X2.4409Y-3.0315
X2.4508Y-3.3268
X2.4606Y-3.6024
X2.4705Y-2.6969
X2.4852Y-3.1545
X2.4902Y-4.0354
X2.5Y-3.8484
X2.5Y-3.8976
X2.5098Y-3.1083
X2.5098Y-3.6614
X2.5394Y-3.9665
X2.6378Y-2.7264
T2
X1.122Y-4.2421
X1.9966Y-4.1216
X2.2687Y-3.3711
T3
X2.1161Y-3.0413
X2.1161Y-3.1201
X2.1161Y-3.1988
X2.1161Y-3.7598
X2.1161Y-3.9173
X2.1949Y-3.0413
X2.1949Y-3.1201
X2.1949Y-3.1988
X2.1949Y-3.7598
X2.1949Y-3.9173
X2.2736Y-3.0413
X2.2736Y-3.1201
X2.2736Y-3.1988
X2.2736Y-3.7598
X2.2736Y-3.9173
T6
X1.1303Y-2.874
X1.2303Y-2.874
T7
X1.0303Y-2.674
X1.4303Y-2.674
T8
X0.7972Y-2.5098
X0.7972Y-4.2028
X2.687Y-2.5098
X2.687Y-4.2028
T4
G00X2.2679Y-2.5563
M15
G01X2.2679Y-2.5721
M16
G05
G00X2.4585Y-2.5563
M15
G01X2.4585Y-2.5721
M16
G05
T5
G00X2.2557Y-2.4363
M15
G01X2.2557Y-2.4559
M16
G05
G00X2.4707Y-2.4363
M15
G01X2.4707Y-2.4559
M16
G05
T0
M30
