G04 #@! TF.GenerationSoftware,KiCad,Pcbnew,5.1.5*
G04 #@! TF.CreationDate,2020-02-28T10:53:43-06:00*
G04 #@! TF.ProjectId,pcb,7063622e-6b69-4636-9164-5f7063625858,rev?*
G04 #@! TF.SameCoordinates,Original*
G04 #@! TF.FileFunction,Legend,Top*
G04 #@! TF.FilePolarity,Positive*
%FSLAX46Y46*%
G04 Gerber Fmt 4.6, Leading zero omitted, Abs format (unit mm)*
G04 Created by KiCad (PCBNEW 5.1.5) date 2020-02-28 10:53:43*
%MOMM*%
%LPD*%
G04 APERTURE LIST*
%ADD10C,0.150000*%
%ADD11C,0.120000*%
G04 APERTURE END LIST*
D10*
X15294428Y-95558428D02*
X13770428Y-95558428D01*
X13915571Y-94905285D02*
X13843000Y-94832714D01*
X13770428Y-94687571D01*
X13770428Y-94324714D01*
X13843000Y-94179571D01*
X13915571Y-94107000D01*
X14060714Y-94034428D01*
X14205857Y-94034428D01*
X14423571Y-94107000D01*
X15294428Y-94977857D01*
X15294428Y-94034428D01*
X15294428Y-92220142D02*
X13770428Y-92220142D01*
X13770428Y-91639571D01*
X13843000Y-91494428D01*
X13915571Y-91421857D01*
X14060714Y-91349285D01*
X14278428Y-91349285D01*
X14423571Y-91421857D01*
X14496142Y-91494428D01*
X14568714Y-91639571D01*
X14568714Y-92220142D01*
X15294428Y-89825285D02*
X14568714Y-90333285D01*
X15294428Y-90696142D02*
X13770428Y-90696142D01*
X13770428Y-90115571D01*
X13843000Y-89970428D01*
X13915571Y-89897857D01*
X14060714Y-89825285D01*
X14278428Y-89825285D01*
X14423571Y-89897857D01*
X14496142Y-89970428D01*
X14568714Y-90115571D01*
X14568714Y-90696142D01*
X13770428Y-88881857D02*
X13770428Y-88591571D01*
X13843000Y-88446428D01*
X13988142Y-88301285D01*
X14278428Y-88228714D01*
X14786428Y-88228714D01*
X15076714Y-88301285D01*
X15221857Y-88446428D01*
X15294428Y-88591571D01*
X15294428Y-88881857D01*
X15221857Y-89027000D01*
X15076714Y-89172142D01*
X14786428Y-89244714D01*
X14278428Y-89244714D01*
X13988142Y-89172142D01*
X13843000Y-89027000D01*
X13770428Y-88881857D01*
X13770428Y-87793285D02*
X13770428Y-86922428D01*
X15294428Y-87357857D02*
X13770428Y-87357857D01*
X13770428Y-86124142D02*
X13770428Y-85833857D01*
X13843000Y-85688714D01*
X13988142Y-85543571D01*
X14278428Y-85471000D01*
X14786428Y-85471000D01*
X15076714Y-85543571D01*
X15221857Y-85688714D01*
X15294428Y-85833857D01*
X15294428Y-86124142D01*
X15221857Y-86269285D01*
X15076714Y-86414428D01*
X14786428Y-86487000D01*
X14278428Y-86487000D01*
X13988142Y-86414428D01*
X13843000Y-86269285D01*
X13770428Y-86124142D01*
X13770428Y-85035571D02*
X13770428Y-84164714D01*
X15294428Y-84600142D02*
X13770428Y-84600142D01*
X14568714Y-83366428D02*
X15294428Y-83366428D01*
X13770428Y-83874428D02*
X14568714Y-83366428D01*
X13770428Y-82858428D01*
X15294428Y-82350428D02*
X13770428Y-82350428D01*
X13770428Y-81769857D01*
X13843000Y-81624714D01*
X13915571Y-81552142D01*
X14060714Y-81479571D01*
X14278428Y-81479571D01*
X14423571Y-81552142D01*
X14496142Y-81624714D01*
X14568714Y-81769857D01*
X14568714Y-82350428D01*
X14496142Y-80826428D02*
X14496142Y-80318428D01*
X15294428Y-80100714D02*
X15294428Y-80826428D01*
X13770428Y-80826428D01*
X13770428Y-80100714D01*
X15294428Y-77415571D02*
X14568714Y-77923571D01*
X15294428Y-78286428D02*
X13770428Y-78286428D01*
X13770428Y-77705857D01*
X13843000Y-77560714D01*
X13915571Y-77488142D01*
X14060714Y-77415571D01*
X14278428Y-77415571D01*
X14423571Y-77488142D01*
X14496142Y-77560714D01*
X14568714Y-77705857D01*
X14568714Y-78286428D01*
X14496142Y-76762428D02*
X14496142Y-76254428D01*
X15294428Y-76036714D02*
X15294428Y-76762428D01*
X13770428Y-76762428D01*
X13770428Y-76036714D01*
X13770428Y-75601285D02*
X15294428Y-75093285D01*
X13770428Y-74585285D01*
X13770428Y-73787000D02*
X13770428Y-73641857D01*
X13843000Y-73496714D01*
X13915571Y-73424142D01*
X14060714Y-73351571D01*
X14351000Y-73279000D01*
X14713857Y-73279000D01*
X15004142Y-73351571D01*
X15149285Y-73424142D01*
X15221857Y-73496714D01*
X15294428Y-73641857D01*
X15294428Y-73787000D01*
X15221857Y-73932142D01*
X15149285Y-74004714D01*
X15004142Y-74077285D01*
X14713857Y-74149857D01*
X14351000Y-74149857D01*
X14060714Y-74077285D01*
X13915571Y-74004714D01*
X13843000Y-73932142D01*
X13770428Y-73787000D01*
X56072738Y-101052380D02*
X56644166Y-101052380D01*
X56358452Y-102052380D02*
X56358452Y-101052380D01*
X56882261Y-101052380D02*
X57548928Y-102052380D01*
X57548928Y-101052380D02*
X56882261Y-102052380D01*
X57882261Y-101766666D02*
X58358452Y-101766666D01*
X57787023Y-102052380D02*
X58120357Y-101052380D01*
X58453690Y-102052380D01*
X55973214Y-98145000D02*
X56735119Y-98145000D01*
X56068452Y-98512380D02*
X56639880Y-98512380D01*
X56354166Y-99512380D02*
X56354166Y-98512380D01*
X56735119Y-98145000D02*
X57687500Y-98145000D01*
X56877976Y-98512380D02*
X57544642Y-99512380D01*
X57544642Y-98512380D02*
X56877976Y-99512380D01*
X56072738Y-95972380D02*
X56644166Y-95972380D01*
X56358452Y-96972380D02*
X56358452Y-95972380D01*
X56882261Y-95972380D02*
X57548928Y-96972380D01*
X57548928Y-95972380D02*
X56882261Y-96972380D01*
X57929880Y-96972380D02*
X57929880Y-95972380D01*
X58167976Y-95972380D01*
X58310833Y-96020000D01*
X58406071Y-96115238D01*
X58453690Y-96210476D01*
X58501309Y-96400952D01*
X58501309Y-96543809D01*
X58453690Y-96734285D01*
X58406071Y-96829523D01*
X58310833Y-96924761D01*
X58167976Y-96972380D01*
X57929880Y-96972380D01*
X48289642Y-94432380D02*
X47956309Y-93956190D01*
X47718214Y-94432380D02*
X47718214Y-93432380D01*
X48099166Y-93432380D01*
X48194404Y-93480000D01*
X48242023Y-93527619D01*
X48289642Y-93622857D01*
X48289642Y-93765714D01*
X48242023Y-93860952D01*
X48194404Y-93908571D01*
X48099166Y-93956190D01*
X47718214Y-93956190D01*
X48622976Y-93432380D02*
X49289642Y-94432380D01*
X49289642Y-93432380D02*
X48622976Y-94432380D01*
X18000357Y-101052380D02*
X18571785Y-101052380D01*
X18286071Y-102052380D02*
X18286071Y-101052380D01*
X18809880Y-101052380D02*
X19476547Y-102052380D01*
X19476547Y-101052380D02*
X18809880Y-102052380D01*
X19857500Y-101671428D02*
X20619404Y-101671428D01*
X18000357Y-98512380D02*
X18571785Y-98512380D01*
X18286071Y-99512380D02*
X18286071Y-98512380D01*
X18809880Y-98512380D02*
X19476547Y-99512380D01*
X19476547Y-98512380D02*
X18809880Y-99512380D01*
X19857500Y-99131428D02*
X20619404Y-99131428D01*
X20238452Y-99512380D02*
X20238452Y-98750476D01*
X18476547Y-96972380D02*
X18143214Y-96496190D01*
X17905119Y-96972380D02*
X17905119Y-95972380D01*
X18286071Y-95972380D01*
X18381309Y-96020000D01*
X18428928Y-96067619D01*
X18476547Y-96162857D01*
X18476547Y-96305714D01*
X18428928Y-96400952D01*
X18381309Y-96448571D01*
X18286071Y-96496190D01*
X17905119Y-96496190D01*
X18809880Y-95972380D02*
X19476547Y-96972380D01*
X19476547Y-95972380D02*
X18809880Y-96972380D01*
X19857500Y-96591428D02*
X20619404Y-96591428D01*
X18476547Y-94432380D02*
X18143214Y-93956190D01*
X17905119Y-94432380D02*
X17905119Y-93432380D01*
X18286071Y-93432380D01*
X18381309Y-93480000D01*
X18428928Y-93527619D01*
X18476547Y-93622857D01*
X18476547Y-93765714D01*
X18428928Y-93860952D01*
X18381309Y-93908571D01*
X18286071Y-93956190D01*
X17905119Y-93956190D01*
X18809880Y-93432380D02*
X19476547Y-94432380D01*
X19476547Y-93432380D02*
X18809880Y-94432380D01*
X19857500Y-94051428D02*
X20619404Y-94051428D01*
X20238452Y-94432380D02*
X20238452Y-93670476D01*
X56036785Y-91575000D02*
X55941547Y-91527380D01*
X55798690Y-91527380D01*
X55655833Y-91575000D01*
X55560595Y-91670238D01*
X55512976Y-91765476D01*
X55465357Y-91955952D01*
X55465357Y-92098809D01*
X55512976Y-92289285D01*
X55560595Y-92384523D01*
X55655833Y-92479761D01*
X55798690Y-92527380D01*
X55893928Y-92527380D01*
X56036785Y-92479761D01*
X56084404Y-92432142D01*
X56084404Y-92098809D01*
X55893928Y-92098809D01*
X56512976Y-92527380D02*
X56512976Y-91527380D01*
X57084404Y-92527380D01*
X57084404Y-91527380D01*
X57560595Y-92527380D02*
X57560595Y-91527380D01*
X57798690Y-91527380D01*
X57941547Y-91575000D01*
X58036785Y-91670238D01*
X58084404Y-91765476D01*
X58132023Y-91955952D01*
X58132023Y-92098809D01*
X58084404Y-92289285D01*
X58036785Y-92384523D01*
X57941547Y-92479761D01*
X57798690Y-92527380D01*
X57560595Y-92527380D01*
X56036785Y-89035000D02*
X55941547Y-88987380D01*
X55798690Y-88987380D01*
X55655833Y-89035000D01*
X55560595Y-89130238D01*
X55512976Y-89225476D01*
X55465357Y-89415952D01*
X55465357Y-89558809D01*
X55512976Y-89749285D01*
X55560595Y-89844523D01*
X55655833Y-89939761D01*
X55798690Y-89987380D01*
X55893928Y-89987380D01*
X56036785Y-89939761D01*
X56084404Y-89892142D01*
X56084404Y-89558809D01*
X55893928Y-89558809D01*
X56512976Y-89987380D02*
X56512976Y-88987380D01*
X57084404Y-89987380D01*
X57084404Y-88987380D01*
X57560595Y-89987380D02*
X57560595Y-88987380D01*
X57798690Y-88987380D01*
X57941547Y-89035000D01*
X58036785Y-89130238D01*
X58084404Y-89225476D01*
X58132023Y-89415952D01*
X58132023Y-89558809D01*
X58084404Y-89749285D01*
X58036785Y-89844523D01*
X57941547Y-89939761D01*
X57798690Y-89987380D01*
X57560595Y-89987380D01*
X55703452Y-94067380D02*
X56322500Y-94067380D01*
X55989166Y-94448333D01*
X56132023Y-94448333D01*
X56227261Y-94495952D01*
X56274880Y-94543571D01*
X56322500Y-94638809D01*
X56322500Y-94876904D01*
X56274880Y-94972142D01*
X56227261Y-95019761D01*
X56132023Y-95067380D01*
X55846309Y-95067380D01*
X55751071Y-95019761D01*
X55703452Y-94972142D01*
X56608214Y-94067380D02*
X56941547Y-95067380D01*
X57274880Y-94067380D01*
X57512976Y-94067380D02*
X58132023Y-94067380D01*
X57798690Y-94448333D01*
X57941547Y-94448333D01*
X58036785Y-94495952D01*
X58084404Y-94543571D01*
X58132023Y-94638809D01*
X58132023Y-94876904D01*
X58084404Y-94972142D01*
X58036785Y-95019761D01*
X57941547Y-95067380D01*
X57655833Y-95067380D01*
X57560595Y-95019761D01*
X57512976Y-94972142D01*
X57227261Y-86447380D02*
X56751071Y-86447380D01*
X56703452Y-86923571D01*
X56751071Y-86875952D01*
X56846309Y-86828333D01*
X57084404Y-86828333D01*
X57179642Y-86875952D01*
X57227261Y-86923571D01*
X57274880Y-87018809D01*
X57274880Y-87256904D01*
X57227261Y-87352142D01*
X57179642Y-87399761D01*
X57084404Y-87447380D01*
X56846309Y-87447380D01*
X56751071Y-87399761D01*
X56703452Y-87352142D01*
X57560595Y-86447380D02*
X57893928Y-87447380D01*
X58227261Y-86447380D01*
X57179642Y-81097380D02*
X56846309Y-80621190D01*
X56608214Y-81097380D02*
X56608214Y-80097380D01*
X56989166Y-80097380D01*
X57084404Y-80145000D01*
X57132023Y-80192619D01*
X57179642Y-80287857D01*
X57179642Y-80430714D01*
X57132023Y-80525952D01*
X57084404Y-80573571D01*
X56989166Y-80621190D01*
X56608214Y-80621190D01*
X57512976Y-80097380D02*
X58179642Y-81097380D01*
X58179642Y-80097380D02*
X57512976Y-81097380D01*
X55703452Y-77557380D02*
X56274880Y-77557380D01*
X55989166Y-78557380D02*
X55989166Y-77557380D01*
X56512976Y-77557380D02*
X57179642Y-78557380D01*
X57179642Y-77557380D02*
X56512976Y-78557380D01*
X57560595Y-78557380D02*
X57560595Y-77557380D01*
X57798690Y-77557380D01*
X57941547Y-77605000D01*
X58036785Y-77700238D01*
X58084404Y-77795476D01*
X58132023Y-77985952D01*
X58132023Y-78128809D01*
X58084404Y-78319285D01*
X58036785Y-78414523D01*
X57941547Y-78509761D01*
X57798690Y-78557380D01*
X57560595Y-78557380D01*
X56608214Y-74650000D02*
X57370119Y-74650000D01*
X56703452Y-75017380D02*
X57274880Y-75017380D01*
X56989166Y-76017380D02*
X56989166Y-75017380D01*
X57370119Y-74650000D02*
X58322500Y-74650000D01*
X57512976Y-75017380D02*
X58179642Y-76017380D01*
X58179642Y-75017380D02*
X57512976Y-76017380D01*
X55846309Y-72477380D02*
X56417738Y-72477380D01*
X56132023Y-73477380D02*
X56132023Y-72477380D01*
X56655833Y-72477380D02*
X57322500Y-73477380D01*
X57322500Y-72477380D02*
X56655833Y-73477380D01*
X57655833Y-73191666D02*
X58132023Y-73191666D01*
X57560595Y-73477380D02*
X57893928Y-72477380D01*
X58227261Y-73477380D01*
D11*
X43300000Y-101580000D02*
X46750000Y-101580000D01*
X43300000Y-101580000D02*
X41350000Y-101580000D01*
X43300000Y-91460000D02*
X45250000Y-91460000D01*
X43300000Y-91460000D02*
X41350000Y-91460000D01*
X21270000Y-78740000D02*
G75*
G03X21270000Y-78740000I-950000J0D01*
G01*
X24445000Y-78740000D02*
G75*
G03X24445000Y-78740000I-950000J0D01*
G01*
X39370000Y-82530000D02*
X42820000Y-82530000D01*
X39370000Y-82530000D02*
X37420000Y-82530000D01*
X39370000Y-72410000D02*
X41320000Y-72410000D01*
X39370000Y-72410000D02*
X37420000Y-72410000D01*
X26730000Y-102930000D02*
X25400000Y-102930000D01*
X26730000Y-101600000D02*
X26730000Y-102930000D01*
X24130000Y-102930000D02*
X21530000Y-102930000D01*
X24130000Y-100330000D02*
X24130000Y-102930000D01*
X26730000Y-100330000D02*
X24130000Y-100330000D01*
X21530000Y-102930000D02*
X21530000Y-92650000D01*
X26730000Y-100330000D02*
X26730000Y-92650000D01*
X26730000Y-92650000D02*
X21530000Y-92650000D01*
X25480000Y-60820000D02*
X26480000Y-61820000D01*
X25480000Y-60820000D02*
X24480000Y-61820000D01*
X17980000Y-75620000D02*
X17980000Y-60620000D01*
X32980000Y-75620000D02*
X17980000Y-75620000D01*
X32980000Y-60620000D02*
X32980000Y-75620000D01*
X17980000Y-60620000D02*
X32980000Y-60620000D01*
X29877936Y-79650000D02*
X31082064Y-79650000D01*
X29877936Y-77830000D02*
X31082064Y-77830000D01*
X30120000Y-100932064D02*
X30120000Y-99727936D01*
X28300000Y-100932064D02*
X28300000Y-99727936D01*
X33687936Y-94890000D02*
X34892064Y-94890000D01*
X33687936Y-93070000D02*
X34892064Y-93070000D01*
X33687936Y-97430000D02*
X34892064Y-97430000D01*
X33687936Y-95610000D02*
X34892064Y-95610000D01*
X34892064Y-100690000D02*
X33687936Y-100690000D01*
X34892064Y-102510000D02*
X33687936Y-102510000D01*
X33687936Y-99970000D02*
X34892064Y-99970000D01*
X33687936Y-98150000D02*
X34892064Y-98150000D01*
X37497936Y-87270000D02*
X38702064Y-87270000D01*
X37497936Y-85450000D02*
X38702064Y-85450000D01*
X37497936Y-84730000D02*
X38702064Y-84730000D01*
X37497936Y-82910000D02*
X38702064Y-82910000D01*
X41307936Y-106320000D02*
X42512064Y-106320000D01*
X41307936Y-104500000D02*
X42512064Y-104500000D01*
X41307936Y-103780000D02*
X42512064Y-103780000D01*
X41307936Y-101960000D02*
X42512064Y-101960000D01*
X47985000Y-83217936D02*
X47985000Y-84422064D01*
X49805000Y-83217936D02*
X49805000Y-84422064D01*
X53065000Y-83217936D02*
X53065000Y-84422064D01*
X54885000Y-83217936D02*
X54885000Y-84422064D01*
X28790000Y-88755000D02*
X28790000Y-81425000D01*
X22170000Y-81425000D02*
X28790000Y-81425000D01*
X22170000Y-88755000D02*
X28790000Y-88755000D01*
X22170000Y-81425000D02*
X22170000Y-88755000D01*
X55305000Y-102930000D02*
X53975000Y-102930000D01*
X55305000Y-101600000D02*
X55305000Y-102930000D01*
X52705000Y-102930000D02*
X50105000Y-102930000D01*
X52705000Y-100330000D02*
X52705000Y-102930000D01*
X55305000Y-100330000D02*
X52705000Y-100330000D01*
X50105000Y-102930000D02*
X50105000Y-92650000D01*
X55305000Y-100330000D02*
X55305000Y-92650000D01*
X55305000Y-92650000D02*
X50105000Y-92650000D01*
X61655000Y-81975000D02*
X60325000Y-81975000D01*
X61655000Y-80645000D02*
X61655000Y-81975000D01*
X61655000Y-79375000D02*
X58995000Y-79375000D01*
X58995000Y-79375000D02*
X58995000Y-71695000D01*
X61655000Y-79375000D02*
X61655000Y-71695000D01*
X61655000Y-71695000D02*
X58995000Y-71695000D01*
X61655000Y-95945000D02*
X60325000Y-95945000D01*
X61655000Y-94615000D02*
X61655000Y-95945000D01*
X61655000Y-93345000D02*
X58995000Y-93345000D01*
X58995000Y-93345000D02*
X58995000Y-85665000D01*
X61655000Y-93345000D02*
X61655000Y-85665000D01*
X61655000Y-85665000D02*
X58995000Y-85665000D01*
X51435000Y-71765000D02*
X49485000Y-71765000D01*
X51435000Y-71765000D02*
X53385000Y-71765000D01*
X51435000Y-80635000D02*
X49485000Y-80635000D01*
X51435000Y-80635000D02*
X54885000Y-80635000D01*
D10*
X17867380Y-80001904D02*
X17867380Y-79430476D01*
X18867380Y-79716190D02*
X17867380Y-79716190D01*
X18867380Y-79097142D02*
X17867380Y-79097142D01*
X17867380Y-78716190D01*
X17915000Y-78620952D01*
X17962619Y-78573333D01*
X18057857Y-78525714D01*
X18200714Y-78525714D01*
X18295952Y-78573333D01*
X18343571Y-78620952D01*
X18391190Y-78716190D01*
X18391190Y-79097142D01*
X17962619Y-78144761D02*
X17915000Y-78097142D01*
X17867380Y-78001904D01*
X17867380Y-77763809D01*
X17915000Y-77668571D01*
X17962619Y-77620952D01*
X18057857Y-77573333D01*
X18153095Y-77573333D01*
X18295952Y-77620952D01*
X18867380Y-78192380D01*
X18867380Y-77573333D01*
X24852380Y-80001904D02*
X24852380Y-79430476D01*
X25852380Y-79716190D02*
X24852380Y-79716190D01*
X25852380Y-79097142D02*
X24852380Y-79097142D01*
X24852380Y-78716190D01*
X24900000Y-78620952D01*
X24947619Y-78573333D01*
X25042857Y-78525714D01*
X25185714Y-78525714D01*
X25280952Y-78573333D01*
X25328571Y-78620952D01*
X25376190Y-78716190D01*
X25376190Y-79097142D01*
X25852380Y-77573333D02*
X25852380Y-78144761D01*
X25852380Y-77859047D02*
X24852380Y-77859047D01*
X24995238Y-77954285D01*
X25090476Y-78049523D01*
X25138095Y-78144761D01*
X38608095Y-75017380D02*
X38608095Y-75826904D01*
X38655714Y-75922142D01*
X38703333Y-75969761D01*
X38798571Y-76017380D01*
X38989047Y-76017380D01*
X39084285Y-75969761D01*
X39131904Y-75922142D01*
X39179523Y-75826904D01*
X39179523Y-75017380D01*
X40179523Y-76017380D02*
X39608095Y-76017380D01*
X39893809Y-76017380D02*
X39893809Y-75017380D01*
X39798571Y-75160238D01*
X39703333Y-75255476D01*
X39608095Y-75303095D01*
X23796666Y-103382380D02*
X23796666Y-104096666D01*
X23749047Y-104239523D01*
X23653809Y-104334761D01*
X23510952Y-104382380D01*
X23415714Y-104382380D01*
X24749047Y-103382380D02*
X24272857Y-103382380D01*
X24225238Y-103858571D01*
X24272857Y-103810952D01*
X24368095Y-103763333D01*
X24606190Y-103763333D01*
X24701428Y-103810952D01*
X24749047Y-103858571D01*
X24796666Y-103953809D01*
X24796666Y-104191904D01*
X24749047Y-104287142D01*
X24701428Y-104334761D01*
X24606190Y-104382380D01*
X24368095Y-104382380D01*
X24272857Y-104334761D01*
X24225238Y-104287142D01*
X25066666Y-67397380D02*
X25066666Y-68111666D01*
X25019047Y-68254523D01*
X24923809Y-68349761D01*
X24780952Y-68397380D01*
X24685714Y-68397380D01*
X26066666Y-68397380D02*
X25495238Y-68397380D01*
X25780952Y-68397380D02*
X25780952Y-67397380D01*
X25685714Y-67540238D01*
X25590476Y-67635476D01*
X25495238Y-67683095D01*
X30313333Y-77372380D02*
X29980000Y-76896190D01*
X29741904Y-77372380D02*
X29741904Y-76372380D01*
X30122857Y-76372380D01*
X30218095Y-76420000D01*
X30265714Y-76467619D01*
X30313333Y-76562857D01*
X30313333Y-76705714D01*
X30265714Y-76800952D01*
X30218095Y-76848571D01*
X30122857Y-76896190D01*
X29741904Y-76896190D01*
X31170476Y-76372380D02*
X30980000Y-76372380D01*
X30884761Y-76420000D01*
X30837142Y-76467619D01*
X30741904Y-76610476D01*
X30694285Y-76800952D01*
X30694285Y-77181904D01*
X30741904Y-77277142D01*
X30789523Y-77324761D01*
X30884761Y-77372380D01*
X31075238Y-77372380D01*
X31170476Y-77324761D01*
X31218095Y-77277142D01*
X31265714Y-77181904D01*
X31265714Y-76943809D01*
X31218095Y-76848571D01*
X31170476Y-76800952D01*
X31075238Y-76753333D01*
X30884761Y-76753333D01*
X30789523Y-76800952D01*
X30741904Y-76848571D01*
X30694285Y-76943809D01*
X29662380Y-97321666D02*
X29186190Y-97655000D01*
X29662380Y-97893095D02*
X28662380Y-97893095D01*
X28662380Y-97512142D01*
X28710000Y-97416904D01*
X28757619Y-97369285D01*
X28852857Y-97321666D01*
X28995714Y-97321666D01*
X29090952Y-97369285D01*
X29138571Y-97416904D01*
X29186190Y-97512142D01*
X29186190Y-97893095D01*
X28662380Y-96416904D02*
X28662380Y-96893095D01*
X29138571Y-96940714D01*
X29090952Y-96893095D01*
X29043333Y-96797857D01*
X29043333Y-96559761D01*
X29090952Y-96464523D01*
X29138571Y-96416904D01*
X29233809Y-96369285D01*
X29471904Y-96369285D01*
X29567142Y-96416904D01*
X29614761Y-96464523D01*
X29662380Y-96559761D01*
X29662380Y-96797857D01*
X29614761Y-96893095D01*
X29567142Y-96940714D01*
X37298333Y-94432380D02*
X36965000Y-93956190D01*
X36726904Y-94432380D02*
X36726904Y-93432380D01*
X37107857Y-93432380D01*
X37203095Y-93480000D01*
X37250714Y-93527619D01*
X37298333Y-93622857D01*
X37298333Y-93765714D01*
X37250714Y-93860952D01*
X37203095Y-93908571D01*
X37107857Y-93956190D01*
X36726904Y-93956190D01*
X38155476Y-93765714D02*
X38155476Y-94432380D01*
X37917380Y-93384761D02*
X37679285Y-94099047D01*
X38298333Y-94099047D01*
X37298333Y-96972380D02*
X36965000Y-96496190D01*
X36726904Y-96972380D02*
X36726904Y-95972380D01*
X37107857Y-95972380D01*
X37203095Y-96020000D01*
X37250714Y-96067619D01*
X37298333Y-96162857D01*
X37298333Y-96305714D01*
X37250714Y-96400952D01*
X37203095Y-96448571D01*
X37107857Y-96496190D01*
X36726904Y-96496190D01*
X37631666Y-95972380D02*
X38250714Y-95972380D01*
X37917380Y-96353333D01*
X38060238Y-96353333D01*
X38155476Y-96400952D01*
X38203095Y-96448571D01*
X38250714Y-96543809D01*
X38250714Y-96781904D01*
X38203095Y-96877142D01*
X38155476Y-96924761D01*
X38060238Y-96972380D01*
X37774523Y-96972380D01*
X37679285Y-96924761D01*
X37631666Y-96877142D01*
X37298333Y-102052380D02*
X36965000Y-101576190D01*
X36726904Y-102052380D02*
X36726904Y-101052380D01*
X37107857Y-101052380D01*
X37203095Y-101100000D01*
X37250714Y-101147619D01*
X37298333Y-101242857D01*
X37298333Y-101385714D01*
X37250714Y-101480952D01*
X37203095Y-101528571D01*
X37107857Y-101576190D01*
X36726904Y-101576190D01*
X37679285Y-101147619D02*
X37726904Y-101100000D01*
X37822142Y-101052380D01*
X38060238Y-101052380D01*
X38155476Y-101100000D01*
X38203095Y-101147619D01*
X38250714Y-101242857D01*
X38250714Y-101338095D01*
X38203095Y-101480952D01*
X37631666Y-102052380D01*
X38250714Y-102052380D01*
X37298333Y-99512380D02*
X36965000Y-99036190D01*
X36726904Y-99512380D02*
X36726904Y-98512380D01*
X37107857Y-98512380D01*
X37203095Y-98560000D01*
X37250714Y-98607619D01*
X37298333Y-98702857D01*
X37298333Y-98845714D01*
X37250714Y-98940952D01*
X37203095Y-98988571D01*
X37107857Y-99036190D01*
X36726904Y-99036190D01*
X38250714Y-99512380D02*
X37679285Y-99512380D01*
X37965000Y-99512380D02*
X37965000Y-98512380D01*
X37869761Y-98655238D01*
X37774523Y-98750476D01*
X37679285Y-98798095D01*
X34758333Y-86717142D02*
X34710714Y-86764761D01*
X34567857Y-86812380D01*
X34472619Y-86812380D01*
X34329761Y-86764761D01*
X34234523Y-86669523D01*
X34186904Y-86574285D01*
X34139285Y-86383809D01*
X34139285Y-86240952D01*
X34186904Y-86050476D01*
X34234523Y-85955238D01*
X34329761Y-85860000D01*
X34472619Y-85812380D01*
X34567857Y-85812380D01*
X34710714Y-85860000D01*
X34758333Y-85907619D01*
X35615476Y-85812380D02*
X35425000Y-85812380D01*
X35329761Y-85860000D01*
X35282142Y-85907619D01*
X35186904Y-86050476D01*
X35139285Y-86240952D01*
X35139285Y-86621904D01*
X35186904Y-86717142D01*
X35234523Y-86764761D01*
X35329761Y-86812380D01*
X35520238Y-86812380D01*
X35615476Y-86764761D01*
X35663095Y-86717142D01*
X35710714Y-86621904D01*
X35710714Y-86383809D01*
X35663095Y-86288571D01*
X35615476Y-86240952D01*
X35520238Y-86193333D01*
X35329761Y-86193333D01*
X35234523Y-86240952D01*
X35186904Y-86288571D01*
X35139285Y-86383809D01*
X34758333Y-84177142D02*
X34710714Y-84224761D01*
X34567857Y-84272380D01*
X34472619Y-84272380D01*
X34329761Y-84224761D01*
X34234523Y-84129523D01*
X34186904Y-84034285D01*
X34139285Y-83843809D01*
X34139285Y-83700952D01*
X34186904Y-83510476D01*
X34234523Y-83415238D01*
X34329761Y-83320000D01*
X34472619Y-83272380D01*
X34567857Y-83272380D01*
X34710714Y-83320000D01*
X34758333Y-83367619D01*
X35663095Y-83272380D02*
X35186904Y-83272380D01*
X35139285Y-83748571D01*
X35186904Y-83700952D01*
X35282142Y-83653333D01*
X35520238Y-83653333D01*
X35615476Y-83700952D01*
X35663095Y-83748571D01*
X35710714Y-83843809D01*
X35710714Y-84081904D01*
X35663095Y-84177142D01*
X35615476Y-84224761D01*
X35520238Y-84272380D01*
X35282142Y-84272380D01*
X35186904Y-84224761D01*
X35139285Y-84177142D01*
X38568333Y-105767142D02*
X38520714Y-105814761D01*
X38377857Y-105862380D01*
X38282619Y-105862380D01*
X38139761Y-105814761D01*
X38044523Y-105719523D01*
X37996904Y-105624285D01*
X37949285Y-105433809D01*
X37949285Y-105290952D01*
X37996904Y-105100476D01*
X38044523Y-105005238D01*
X38139761Y-104910000D01*
X38282619Y-104862380D01*
X38377857Y-104862380D01*
X38520714Y-104910000D01*
X38568333Y-104957619D01*
X39425476Y-105195714D02*
X39425476Y-105862380D01*
X39187380Y-104814761D02*
X38949285Y-105529047D01*
X39568333Y-105529047D01*
X38568333Y-103227142D02*
X38520714Y-103274761D01*
X38377857Y-103322380D01*
X38282619Y-103322380D01*
X38139761Y-103274761D01*
X38044523Y-103179523D01*
X37996904Y-103084285D01*
X37949285Y-102893809D01*
X37949285Y-102750952D01*
X37996904Y-102560476D01*
X38044523Y-102465238D01*
X38139761Y-102370000D01*
X38282619Y-102322380D01*
X38377857Y-102322380D01*
X38520714Y-102370000D01*
X38568333Y-102417619D01*
X38901666Y-102322380D02*
X39520714Y-102322380D01*
X39187380Y-102703333D01*
X39330238Y-102703333D01*
X39425476Y-102750952D01*
X39473095Y-102798571D01*
X39520714Y-102893809D01*
X39520714Y-103131904D01*
X39473095Y-103227142D01*
X39425476Y-103274761D01*
X39330238Y-103322380D01*
X39044523Y-103322380D01*
X38949285Y-103274761D01*
X38901666Y-103227142D01*
X47347142Y-83986666D02*
X47394761Y-84034285D01*
X47442380Y-84177142D01*
X47442380Y-84272380D01*
X47394761Y-84415238D01*
X47299523Y-84510476D01*
X47204285Y-84558095D01*
X47013809Y-84605714D01*
X46870952Y-84605714D01*
X46680476Y-84558095D01*
X46585238Y-84510476D01*
X46490000Y-84415238D01*
X46442380Y-84272380D01*
X46442380Y-84177142D01*
X46490000Y-84034285D01*
X46537619Y-83986666D01*
X46537619Y-83605714D02*
X46490000Y-83558095D01*
X46442380Y-83462857D01*
X46442380Y-83224761D01*
X46490000Y-83129523D01*
X46537619Y-83081904D01*
X46632857Y-83034285D01*
X46728095Y-83034285D01*
X46870952Y-83081904D01*
X47442380Y-83653333D01*
X47442380Y-83034285D01*
X52427142Y-83986666D02*
X52474761Y-84034285D01*
X52522380Y-84177142D01*
X52522380Y-84272380D01*
X52474761Y-84415238D01*
X52379523Y-84510476D01*
X52284285Y-84558095D01*
X52093809Y-84605714D01*
X51950952Y-84605714D01*
X51760476Y-84558095D01*
X51665238Y-84510476D01*
X51570000Y-84415238D01*
X51522380Y-84272380D01*
X51522380Y-84177142D01*
X51570000Y-84034285D01*
X51617619Y-83986666D01*
X52522380Y-83034285D02*
X52522380Y-83605714D01*
X52522380Y-83320000D02*
X51522380Y-83320000D01*
X51665238Y-83415238D01*
X51760476Y-83510476D01*
X51808095Y-83605714D01*
X24718095Y-84542380D02*
X25289523Y-84542380D01*
X25003809Y-85542380D02*
X25003809Y-84542380D01*
X26146666Y-85542380D02*
X25575238Y-85542380D01*
X25860952Y-85542380D02*
X25860952Y-84542380D01*
X25765714Y-84685238D01*
X25670476Y-84780476D01*
X25575238Y-84828095D01*
X52371666Y-103382380D02*
X52371666Y-104096666D01*
X52324047Y-104239523D01*
X52228809Y-104334761D01*
X52085952Y-104382380D01*
X51990714Y-104382380D01*
X53276428Y-103715714D02*
X53276428Y-104382380D01*
X53038333Y-103334761D02*
X52800238Y-104049047D01*
X53419285Y-104049047D01*
X59991666Y-82427380D02*
X59991666Y-83141666D01*
X59944047Y-83284523D01*
X59848809Y-83379761D01*
X59705952Y-83427380D01*
X59610714Y-83427380D01*
X60372619Y-82427380D02*
X60991666Y-82427380D01*
X60658333Y-82808333D01*
X60801190Y-82808333D01*
X60896428Y-82855952D01*
X60944047Y-82903571D01*
X60991666Y-82998809D01*
X60991666Y-83236904D01*
X60944047Y-83332142D01*
X60896428Y-83379761D01*
X60801190Y-83427380D01*
X60515476Y-83427380D01*
X60420238Y-83379761D01*
X60372619Y-83332142D01*
X59991666Y-96397380D02*
X59991666Y-97111666D01*
X59944047Y-97254523D01*
X59848809Y-97349761D01*
X59705952Y-97397380D01*
X59610714Y-97397380D01*
X60420238Y-96492619D02*
X60467857Y-96445000D01*
X60563095Y-96397380D01*
X60801190Y-96397380D01*
X60896428Y-96445000D01*
X60944047Y-96492619D01*
X60991666Y-96587857D01*
X60991666Y-96683095D01*
X60944047Y-96825952D01*
X60372619Y-97397380D01*
X60991666Y-97397380D01*
X50673095Y-74382380D02*
X50673095Y-75191904D01*
X50720714Y-75287142D01*
X50768333Y-75334761D01*
X50863571Y-75382380D01*
X51054047Y-75382380D01*
X51149285Y-75334761D01*
X51196904Y-75287142D01*
X51244523Y-75191904D01*
X51244523Y-74382380D01*
X51625476Y-74382380D02*
X52244523Y-74382380D01*
X51911190Y-74763333D01*
X52054047Y-74763333D01*
X52149285Y-74810952D01*
X52196904Y-74858571D01*
X52244523Y-74953809D01*
X52244523Y-75191904D01*
X52196904Y-75287142D01*
X52149285Y-75334761D01*
X52054047Y-75382380D01*
X51768333Y-75382380D01*
X51673095Y-75334761D01*
X51625476Y-75287142D01*
M02*
