G04 #@! TF.GenerationSoftware,KiCad,Pcbnew,5.1.6*
G04 #@! TF.CreationDate,2020-08-01T17:21:50-05:00*
G04 #@! TF.ProjectId,pcb,7063622e-6b69-4636-9164-5f7063625858,rev?*
G04 #@! TF.SameCoordinates,Original*
G04 #@! TF.FileFunction,Soldermask,Bot*
G04 #@! TF.FilePolarity,Negative*
%FSLAX46Y46*%
G04 Gerber Fmt 4.6, Leading zero omitted, Abs format (unit mm)*
G04 Created by KiCad (PCBNEW 5.1.6) date 2020-08-01 17:21:50*
%MOMM*%
%LPD*%
G01*
G04 APERTURE LIST*
%ADD10C,0.100000*%
G04 APERTURE END LIST*
D10*
G36*
X78367754Y-126133817D02*
G01*
X78531689Y-126201721D01*
X78679227Y-126300303D01*
X78804697Y-126425773D01*
X78903279Y-126573311D01*
X78971183Y-126737246D01*
X79005800Y-126911279D01*
X79005800Y-127088721D01*
X78971183Y-127262754D01*
X78903279Y-127426689D01*
X78804697Y-127574227D01*
X78679227Y-127699697D01*
X78531689Y-127798279D01*
X78367754Y-127866183D01*
X78193721Y-127900800D01*
X78016279Y-127900800D01*
X77842246Y-127866183D01*
X77678311Y-127798279D01*
X77530773Y-127699697D01*
X77405303Y-127574227D01*
X77306721Y-127426689D01*
X77238817Y-127262754D01*
X77204200Y-127088721D01*
X77204200Y-126911279D01*
X77238817Y-126737246D01*
X77306721Y-126573311D01*
X77405303Y-126425773D01*
X77530773Y-126300303D01*
X77678311Y-126201721D01*
X77842246Y-126133817D01*
X78016279Y-126099200D01*
X78193721Y-126099200D01*
X78367754Y-126133817D01*
G37*
G36*
X78367754Y-123593817D02*
G01*
X78531689Y-123661721D01*
X78679227Y-123760303D01*
X78804697Y-123885773D01*
X78903279Y-124033311D01*
X78971183Y-124197246D01*
X79005800Y-124371279D01*
X79005800Y-124548721D01*
X78971183Y-124722754D01*
X78903279Y-124886689D01*
X78804697Y-125034227D01*
X78679227Y-125159697D01*
X78531689Y-125258279D01*
X78367754Y-125326183D01*
X78193721Y-125360800D01*
X78016279Y-125360800D01*
X77842246Y-125326183D01*
X77678311Y-125258279D01*
X77530773Y-125159697D01*
X77405303Y-125034227D01*
X77306721Y-124886689D01*
X77238817Y-124722754D01*
X77204200Y-124548721D01*
X77204200Y-124371279D01*
X77238817Y-124197246D01*
X77306721Y-124033311D01*
X77405303Y-123885773D01*
X77530773Y-123760303D01*
X77678311Y-123661721D01*
X77842246Y-123593817D01*
X78016279Y-123559200D01*
X78193721Y-123559200D01*
X78367754Y-123593817D01*
G37*
G36*
X78367754Y-121053817D02*
G01*
X78531689Y-121121721D01*
X78679227Y-121220303D01*
X78804697Y-121345773D01*
X78903279Y-121493311D01*
X78971183Y-121657246D01*
X79005800Y-121831279D01*
X79005800Y-122008721D01*
X78971183Y-122182754D01*
X78903279Y-122346689D01*
X78804697Y-122494227D01*
X78679227Y-122619697D01*
X78531689Y-122718279D01*
X78367754Y-122786183D01*
X78193721Y-122820800D01*
X78016279Y-122820800D01*
X77842246Y-122786183D01*
X77678311Y-122718279D01*
X77530773Y-122619697D01*
X77405303Y-122494227D01*
X77306721Y-122346689D01*
X77238817Y-122182754D01*
X77204200Y-122008721D01*
X77204200Y-121831279D01*
X77238817Y-121657246D01*
X77306721Y-121493311D01*
X77405303Y-121345773D01*
X77530773Y-121220303D01*
X77678311Y-121121721D01*
X77842246Y-121053817D01*
X78016279Y-121019200D01*
X78193721Y-121019200D01*
X78367754Y-121053817D01*
G37*
G36*
X78367754Y-118513817D02*
G01*
X78531689Y-118581721D01*
X78679227Y-118680303D01*
X78804697Y-118805773D01*
X78903279Y-118953311D01*
X78971183Y-119117246D01*
X79005800Y-119291279D01*
X79005800Y-119468721D01*
X78971183Y-119642754D01*
X78903279Y-119806689D01*
X78804697Y-119954227D01*
X78679227Y-120079697D01*
X78531689Y-120178279D01*
X78367754Y-120246183D01*
X78193721Y-120280800D01*
X78016279Y-120280800D01*
X77842246Y-120246183D01*
X77678311Y-120178279D01*
X77530773Y-120079697D01*
X77405303Y-119954227D01*
X77306721Y-119806689D01*
X77238817Y-119642754D01*
X77204200Y-119468721D01*
X77204200Y-119291279D01*
X77238817Y-119117246D01*
X77306721Y-118953311D01*
X77405303Y-118805773D01*
X77530773Y-118680303D01*
X77678311Y-118581721D01*
X77842246Y-118513817D01*
X78016279Y-118479200D01*
X78193721Y-118479200D01*
X78367754Y-118513817D01*
G37*
G36*
X78367754Y-115973817D02*
G01*
X78531689Y-116041721D01*
X78679227Y-116140303D01*
X78804697Y-116265773D01*
X78903279Y-116413311D01*
X78971183Y-116577246D01*
X79005800Y-116751279D01*
X79005800Y-116928721D01*
X78971183Y-117102754D01*
X78903279Y-117266689D01*
X78804697Y-117414227D01*
X78679227Y-117539697D01*
X78531689Y-117638279D01*
X78367754Y-117706183D01*
X78193721Y-117740800D01*
X78016279Y-117740800D01*
X77842246Y-117706183D01*
X77678311Y-117638279D01*
X77530773Y-117539697D01*
X77405303Y-117414227D01*
X77306721Y-117266689D01*
X77238817Y-117102754D01*
X77204200Y-116928721D01*
X77204200Y-116751279D01*
X77238817Y-116577246D01*
X77306721Y-116413311D01*
X77405303Y-116265773D01*
X77530773Y-116140303D01*
X77678311Y-116041721D01*
X77842246Y-115973817D01*
X78016279Y-115939200D01*
X78193721Y-115939200D01*
X78367754Y-115973817D01*
G37*
G36*
X78367754Y-113433817D02*
G01*
X78531689Y-113501721D01*
X78679227Y-113600303D01*
X78804697Y-113725773D01*
X78903279Y-113873311D01*
X78971183Y-114037246D01*
X79005800Y-114211279D01*
X79005800Y-114388721D01*
X78971183Y-114562754D01*
X78903279Y-114726689D01*
X78804697Y-114874227D01*
X78679227Y-114999697D01*
X78531689Y-115098279D01*
X78367754Y-115166183D01*
X78193721Y-115200800D01*
X78016279Y-115200800D01*
X77842246Y-115166183D01*
X77678311Y-115098279D01*
X77530773Y-114999697D01*
X77405303Y-114874227D01*
X77306721Y-114726689D01*
X77238817Y-114562754D01*
X77204200Y-114388721D01*
X77204200Y-114211279D01*
X77238817Y-114037246D01*
X77306721Y-113873311D01*
X77405303Y-113725773D01*
X77530773Y-113600303D01*
X77678311Y-113501721D01*
X77842246Y-113433817D01*
X78016279Y-113399200D01*
X78193721Y-113399200D01*
X78367754Y-113433817D01*
G37*
G36*
X78367754Y-110893817D02*
G01*
X78531689Y-110961721D01*
X78679227Y-111060303D01*
X78804697Y-111185773D01*
X78903279Y-111333311D01*
X78971183Y-111497246D01*
X79005800Y-111671279D01*
X79005800Y-111848721D01*
X78971183Y-112022754D01*
X78903279Y-112186689D01*
X78804697Y-112334227D01*
X78679227Y-112459697D01*
X78531689Y-112558279D01*
X78367754Y-112626183D01*
X78193721Y-112660800D01*
X78016279Y-112660800D01*
X77842246Y-112626183D01*
X77678311Y-112558279D01*
X77530773Y-112459697D01*
X77405303Y-112334227D01*
X77306721Y-112186689D01*
X77238817Y-112022754D01*
X77204200Y-111848721D01*
X77204200Y-111671279D01*
X77238817Y-111497246D01*
X77306721Y-111333311D01*
X77405303Y-111185773D01*
X77530773Y-111060303D01*
X77678311Y-110961721D01*
X77842246Y-110893817D01*
X78016279Y-110859200D01*
X78193721Y-110859200D01*
X78367754Y-110893817D01*
G37*
G36*
X78367754Y-108353817D02*
G01*
X78531689Y-108421721D01*
X78679227Y-108520303D01*
X78804697Y-108645773D01*
X78903279Y-108793311D01*
X78971183Y-108957246D01*
X79005800Y-109131279D01*
X79005800Y-109308721D01*
X78971183Y-109482754D01*
X78903279Y-109646689D01*
X78804697Y-109794227D01*
X78679227Y-109919697D01*
X78531689Y-110018279D01*
X78367754Y-110086183D01*
X78193721Y-110120800D01*
X78016279Y-110120800D01*
X77842246Y-110086183D01*
X77678311Y-110018279D01*
X77530773Y-109919697D01*
X77405303Y-109794227D01*
X77306721Y-109646689D01*
X77238817Y-109482754D01*
X77204200Y-109308721D01*
X77204200Y-109131279D01*
X77238817Y-108957246D01*
X77306721Y-108793311D01*
X77405303Y-108645773D01*
X77530773Y-108520303D01*
X77678311Y-108421721D01*
X77842246Y-108353817D01*
X78016279Y-108319200D01*
X78193721Y-108319200D01*
X78367754Y-108353817D01*
G37*
G36*
X78367754Y-105813817D02*
G01*
X78531689Y-105881721D01*
X78679227Y-105980303D01*
X78804697Y-106105773D01*
X78903279Y-106253311D01*
X78971183Y-106417246D01*
X79005800Y-106591279D01*
X79005800Y-106768721D01*
X78971183Y-106942754D01*
X78903279Y-107106689D01*
X78804697Y-107254227D01*
X78679227Y-107379697D01*
X78531689Y-107478279D01*
X78367754Y-107546183D01*
X78193721Y-107580800D01*
X78016279Y-107580800D01*
X77842246Y-107546183D01*
X77678311Y-107478279D01*
X77530773Y-107379697D01*
X77405303Y-107254227D01*
X77306721Y-107106689D01*
X77238817Y-106942754D01*
X77204200Y-106768721D01*
X77204200Y-106591279D01*
X77238817Y-106417246D01*
X77306721Y-106253311D01*
X77405303Y-106105773D01*
X77530773Y-105980303D01*
X77678311Y-105881721D01*
X77842246Y-105813817D01*
X78016279Y-105779200D01*
X78193721Y-105779200D01*
X78367754Y-105813817D01*
G37*
G36*
X14984430Y-102889189D02*
G01*
X15221160Y-102987245D01*
X15434213Y-103129603D01*
X15615397Y-103310787D01*
X15757755Y-103523840D01*
X15855811Y-103760570D01*
X15905800Y-104011882D01*
X15905800Y-104268118D01*
X15855811Y-104519430D01*
X15757755Y-104756160D01*
X15615397Y-104969213D01*
X15434213Y-105150397D01*
X15221160Y-105292755D01*
X14984430Y-105390811D01*
X14733118Y-105440800D01*
X14476882Y-105440800D01*
X14225570Y-105390811D01*
X13988840Y-105292755D01*
X13775787Y-105150397D01*
X13594603Y-104969213D01*
X13452245Y-104756160D01*
X13354189Y-104519430D01*
X13304200Y-104268118D01*
X13304200Y-104011882D01*
X13354189Y-103760570D01*
X13452245Y-103523840D01*
X13594603Y-103310787D01*
X13775787Y-103129603D01*
X13988840Y-102987245D01*
X14225570Y-102889189D01*
X14476882Y-102839200D01*
X14733118Y-102839200D01*
X14984430Y-102889189D01*
G37*
G36*
X78367754Y-103273817D02*
G01*
X78531689Y-103341721D01*
X78679227Y-103440303D01*
X78804697Y-103565773D01*
X78903279Y-103713311D01*
X78971183Y-103877246D01*
X79005800Y-104051279D01*
X79005800Y-104228721D01*
X78971183Y-104402754D01*
X78903279Y-104566689D01*
X78804697Y-104714227D01*
X78679227Y-104839697D01*
X78531689Y-104938279D01*
X78367754Y-105006183D01*
X78193721Y-105040800D01*
X78016279Y-105040800D01*
X77842246Y-105006183D01*
X77678311Y-104938279D01*
X77530773Y-104839697D01*
X77405303Y-104714227D01*
X77306721Y-104566689D01*
X77238817Y-104402754D01*
X77204200Y-104228721D01*
X77204200Y-104051279D01*
X77238817Y-103877246D01*
X77306721Y-103713311D01*
X77405303Y-103565773D01*
X77530773Y-103440303D01*
X77678311Y-103341721D01*
X77842246Y-103273817D01*
X78016279Y-103239200D01*
X78193721Y-103239200D01*
X78367754Y-103273817D01*
G37*
G36*
X78367754Y-100733817D02*
G01*
X78531689Y-100801721D01*
X78679227Y-100900303D01*
X78804697Y-101025773D01*
X78903279Y-101173311D01*
X78971183Y-101337246D01*
X79005800Y-101511279D01*
X79005800Y-101688721D01*
X78971183Y-101862754D01*
X78903279Y-102026689D01*
X78804697Y-102174227D01*
X78679227Y-102299697D01*
X78531689Y-102398279D01*
X78367754Y-102466183D01*
X78193721Y-102500800D01*
X78016279Y-102500800D01*
X77842246Y-102466183D01*
X77678311Y-102398279D01*
X77530773Y-102299697D01*
X77405303Y-102174227D01*
X77306721Y-102026689D01*
X77238817Y-101862754D01*
X77204200Y-101688721D01*
X77204200Y-101511279D01*
X77238817Y-101337246D01*
X77306721Y-101173311D01*
X77405303Y-101025773D01*
X77530773Y-100900303D01*
X77678311Y-100801721D01*
X77842246Y-100733817D01*
X78016279Y-100699200D01*
X78193721Y-100699200D01*
X78367754Y-100733817D01*
G37*
G36*
X78367754Y-98193817D02*
G01*
X78531689Y-98261721D01*
X78679227Y-98360303D01*
X78804697Y-98485773D01*
X78903279Y-98633311D01*
X78971183Y-98797246D01*
X79005800Y-98971279D01*
X79005800Y-99148721D01*
X78971183Y-99322754D01*
X78903279Y-99486689D01*
X78804697Y-99634227D01*
X78679227Y-99759697D01*
X78531689Y-99858279D01*
X78367754Y-99926183D01*
X78193721Y-99960800D01*
X78016279Y-99960800D01*
X77842246Y-99926183D01*
X77678311Y-99858279D01*
X77530773Y-99759697D01*
X77405303Y-99634227D01*
X77306721Y-99486689D01*
X77238817Y-99322754D01*
X77204200Y-99148721D01*
X77204200Y-98971279D01*
X77238817Y-98797246D01*
X77306721Y-98633311D01*
X77405303Y-98485773D01*
X77530773Y-98360303D01*
X77678311Y-98261721D01*
X77842246Y-98193817D01*
X78016279Y-98159200D01*
X78193721Y-98159200D01*
X78367754Y-98193817D01*
G37*
G36*
X78367754Y-95653817D02*
G01*
X78531689Y-95721721D01*
X78679227Y-95820303D01*
X78804697Y-95945773D01*
X78903279Y-96093311D01*
X78971183Y-96257246D01*
X79005800Y-96431279D01*
X79005800Y-96608721D01*
X78971183Y-96782754D01*
X78903279Y-96946689D01*
X78804697Y-97094227D01*
X78679227Y-97219697D01*
X78531689Y-97318279D01*
X78367754Y-97386183D01*
X78193721Y-97420800D01*
X78016279Y-97420800D01*
X77842246Y-97386183D01*
X77678311Y-97318279D01*
X77530773Y-97219697D01*
X77405303Y-97094227D01*
X77306721Y-96946689D01*
X77238817Y-96782754D01*
X77204200Y-96608721D01*
X77204200Y-96431279D01*
X77238817Y-96257246D01*
X77306721Y-96093311D01*
X77405303Y-95945773D01*
X77530773Y-95820303D01*
X77678311Y-95721721D01*
X77842246Y-95653817D01*
X78016279Y-95619200D01*
X78193721Y-95619200D01*
X78367754Y-95653817D01*
G37*
G36*
X68207754Y-95653817D02*
G01*
X68371689Y-95721721D01*
X68519227Y-95820303D01*
X68644697Y-95945773D01*
X68743279Y-96093311D01*
X68811183Y-96257246D01*
X68845800Y-96431279D01*
X68845800Y-96608721D01*
X68811183Y-96782754D01*
X68743279Y-96946689D01*
X68644697Y-97094227D01*
X68519227Y-97219697D01*
X68371689Y-97318279D01*
X68207754Y-97386183D01*
X68033721Y-97420800D01*
X67856279Y-97420800D01*
X67682246Y-97386183D01*
X67518311Y-97318279D01*
X67370773Y-97219697D01*
X67245303Y-97094227D01*
X67146721Y-96946689D01*
X67078817Y-96782754D01*
X67044200Y-96608721D01*
X67044200Y-96431279D01*
X67078817Y-96257246D01*
X67146721Y-96093311D01*
X67245303Y-95945773D01*
X67370773Y-95820303D01*
X67518311Y-95721721D01*
X67682246Y-95653817D01*
X67856279Y-95619200D01*
X68033721Y-95619200D01*
X68207754Y-95653817D01*
G37*
G36*
X52967754Y-95653817D02*
G01*
X53131689Y-95721721D01*
X53279227Y-95820303D01*
X53404697Y-95945773D01*
X53503279Y-96093311D01*
X53571183Y-96257246D01*
X53605800Y-96431279D01*
X53605800Y-96608721D01*
X53571183Y-96782754D01*
X53503279Y-96946689D01*
X53404697Y-97094227D01*
X53279227Y-97219697D01*
X53131689Y-97318279D01*
X52967754Y-97386183D01*
X52793721Y-97420800D01*
X52616279Y-97420800D01*
X52442246Y-97386183D01*
X52278311Y-97318279D01*
X52130773Y-97219697D01*
X52005303Y-97094227D01*
X51906721Y-96946689D01*
X51838817Y-96782754D01*
X51804200Y-96608721D01*
X51804200Y-96431279D01*
X51838817Y-96257246D01*
X51906721Y-96093311D01*
X52005303Y-95945773D01*
X52130773Y-95820303D01*
X52278311Y-95721721D01*
X52442246Y-95653817D01*
X52616279Y-95619200D01*
X52793721Y-95619200D01*
X52967754Y-95653817D01*
G37*
G36*
X78367754Y-93113817D02*
G01*
X78531689Y-93181721D01*
X78679227Y-93280303D01*
X78804697Y-93405773D01*
X78903279Y-93553311D01*
X78971183Y-93717246D01*
X79005800Y-93891279D01*
X79005800Y-94068721D01*
X78971183Y-94242754D01*
X78903279Y-94406689D01*
X78804697Y-94554227D01*
X78679227Y-94679697D01*
X78531689Y-94778279D01*
X78367754Y-94846183D01*
X78193721Y-94880800D01*
X78016279Y-94880800D01*
X77842246Y-94846183D01*
X77678311Y-94778279D01*
X77530773Y-94679697D01*
X77405303Y-94554227D01*
X77306721Y-94406689D01*
X77238817Y-94242754D01*
X77204200Y-94068721D01*
X77204200Y-93891279D01*
X77238817Y-93717246D01*
X77306721Y-93553311D01*
X77405303Y-93405773D01*
X77530773Y-93280303D01*
X77678311Y-93181721D01*
X77842246Y-93113817D01*
X78016279Y-93079200D01*
X78193721Y-93079200D01*
X78367754Y-93113817D01*
G37*
G36*
X68207754Y-93113817D02*
G01*
X68371689Y-93181721D01*
X68519227Y-93280303D01*
X68644697Y-93405773D01*
X68743279Y-93553311D01*
X68811183Y-93717246D01*
X68845800Y-93891279D01*
X68845800Y-94068721D01*
X68811183Y-94242754D01*
X68743279Y-94406689D01*
X68644697Y-94554227D01*
X68519227Y-94679697D01*
X68371689Y-94778279D01*
X68207754Y-94846183D01*
X68033721Y-94880800D01*
X67856279Y-94880800D01*
X67682246Y-94846183D01*
X67518311Y-94778279D01*
X67370773Y-94679697D01*
X67245303Y-94554227D01*
X67146721Y-94406689D01*
X67078817Y-94242754D01*
X67044200Y-94068721D01*
X67044200Y-93891279D01*
X67078817Y-93717246D01*
X67146721Y-93553311D01*
X67245303Y-93405773D01*
X67370773Y-93280303D01*
X67518311Y-93181721D01*
X67682246Y-93113817D01*
X67856279Y-93079200D01*
X68033721Y-93079200D01*
X68207754Y-93113817D01*
G37*
G36*
X52967754Y-93113817D02*
G01*
X53131689Y-93181721D01*
X53279227Y-93280303D01*
X53404697Y-93405773D01*
X53503279Y-93553311D01*
X53571183Y-93717246D01*
X53605800Y-93891279D01*
X53605800Y-94068721D01*
X53571183Y-94242754D01*
X53503279Y-94406689D01*
X53404697Y-94554227D01*
X53279227Y-94679697D01*
X53131689Y-94778279D01*
X52967754Y-94846183D01*
X52793721Y-94880800D01*
X52616279Y-94880800D01*
X52442246Y-94846183D01*
X52278311Y-94778279D01*
X52130773Y-94679697D01*
X52005303Y-94554227D01*
X51906721Y-94406689D01*
X51838817Y-94242754D01*
X51804200Y-94068721D01*
X51804200Y-93891279D01*
X51838817Y-93717246D01*
X51906721Y-93553311D01*
X52005303Y-93405773D01*
X52130773Y-93280303D01*
X52278311Y-93181721D01*
X52442246Y-93113817D01*
X52616279Y-93079200D01*
X52793721Y-93079200D01*
X52967754Y-93113817D01*
G37*
G36*
X52967754Y-90573817D02*
G01*
X53131689Y-90641721D01*
X53279227Y-90740303D01*
X53404697Y-90865773D01*
X53503279Y-91013311D01*
X53571183Y-91177246D01*
X53605800Y-91351279D01*
X53605800Y-91528721D01*
X53571183Y-91702754D01*
X53503279Y-91866689D01*
X53404697Y-92014227D01*
X53279227Y-92139697D01*
X53131689Y-92238279D01*
X52967754Y-92306183D01*
X52793721Y-92340800D01*
X52616279Y-92340800D01*
X52442246Y-92306183D01*
X52278311Y-92238279D01*
X52130773Y-92139697D01*
X52005303Y-92014227D01*
X51906721Y-91866689D01*
X51838817Y-91702754D01*
X51804200Y-91528721D01*
X51804200Y-91351279D01*
X51838817Y-91177246D01*
X51906721Y-91013311D01*
X52005303Y-90865773D01*
X52130773Y-90740303D01*
X52278311Y-90641721D01*
X52442246Y-90573817D01*
X52616279Y-90539200D01*
X52793721Y-90539200D01*
X52967754Y-90573817D01*
G37*
G36*
X78367754Y-90573817D02*
G01*
X78531689Y-90641721D01*
X78679227Y-90740303D01*
X78804697Y-90865773D01*
X78903279Y-91013311D01*
X78971183Y-91177246D01*
X79005800Y-91351279D01*
X79005800Y-91528721D01*
X78971183Y-91702754D01*
X78903279Y-91866689D01*
X78804697Y-92014227D01*
X78679227Y-92139697D01*
X78531689Y-92238279D01*
X78367754Y-92306183D01*
X78193721Y-92340800D01*
X78016279Y-92340800D01*
X77842246Y-92306183D01*
X77678311Y-92238279D01*
X77530773Y-92139697D01*
X77405303Y-92014227D01*
X77306721Y-91866689D01*
X77238817Y-91702754D01*
X77204200Y-91528721D01*
X77204200Y-91351279D01*
X77238817Y-91177246D01*
X77306721Y-91013311D01*
X77405303Y-90865773D01*
X77530773Y-90740303D01*
X77678311Y-90641721D01*
X77842246Y-90573817D01*
X78016279Y-90539200D01*
X78193721Y-90539200D01*
X78367754Y-90573817D01*
G37*
G36*
X68207754Y-90573817D02*
G01*
X68371689Y-90641721D01*
X68519227Y-90740303D01*
X68644697Y-90865773D01*
X68743279Y-91013311D01*
X68811183Y-91177246D01*
X68845800Y-91351279D01*
X68845800Y-91528721D01*
X68811183Y-91702754D01*
X68743279Y-91866689D01*
X68644697Y-92014227D01*
X68519227Y-92139697D01*
X68371689Y-92238279D01*
X68207754Y-92306183D01*
X68033721Y-92340800D01*
X67856279Y-92340800D01*
X67682246Y-92306183D01*
X67518311Y-92238279D01*
X67370773Y-92139697D01*
X67245303Y-92014227D01*
X67146721Y-91866689D01*
X67078817Y-91702754D01*
X67044200Y-91528721D01*
X67044200Y-91351279D01*
X67078817Y-91177246D01*
X67146721Y-91013311D01*
X67245303Y-90865773D01*
X67370773Y-90740303D01*
X67518311Y-90641721D01*
X67682246Y-90573817D01*
X67856279Y-90539200D01*
X68033721Y-90539200D01*
X68207754Y-90573817D01*
G37*
G36*
X78367754Y-88033817D02*
G01*
X78531689Y-88101721D01*
X78679227Y-88200303D01*
X78804697Y-88325773D01*
X78903279Y-88473311D01*
X78971183Y-88637246D01*
X79005800Y-88811279D01*
X79005800Y-88988721D01*
X78971183Y-89162754D01*
X78903279Y-89326689D01*
X78804697Y-89474227D01*
X78679227Y-89599697D01*
X78531689Y-89698279D01*
X78367754Y-89766183D01*
X78193721Y-89800800D01*
X78016279Y-89800800D01*
X77842246Y-89766183D01*
X77678311Y-89698279D01*
X77530773Y-89599697D01*
X77405303Y-89474227D01*
X77306721Y-89326689D01*
X77238817Y-89162754D01*
X77204200Y-88988721D01*
X77204200Y-88811279D01*
X77238817Y-88637246D01*
X77306721Y-88473311D01*
X77405303Y-88325773D01*
X77530773Y-88200303D01*
X77678311Y-88101721D01*
X77842246Y-88033817D01*
X78016279Y-87999200D01*
X78193721Y-87999200D01*
X78367754Y-88033817D01*
G37*
G36*
X68207754Y-88033817D02*
G01*
X68371689Y-88101721D01*
X68519227Y-88200303D01*
X68644697Y-88325773D01*
X68743279Y-88473311D01*
X68811183Y-88637246D01*
X68845800Y-88811279D01*
X68845800Y-88988721D01*
X68811183Y-89162754D01*
X68743279Y-89326689D01*
X68644697Y-89474227D01*
X68519227Y-89599697D01*
X68371689Y-89698279D01*
X68207754Y-89766183D01*
X68033721Y-89800800D01*
X67856279Y-89800800D01*
X67682246Y-89766183D01*
X67518311Y-89698279D01*
X67370773Y-89599697D01*
X67245303Y-89474227D01*
X67146721Y-89326689D01*
X67078817Y-89162754D01*
X67044200Y-88988721D01*
X67044200Y-88811279D01*
X67078817Y-88637246D01*
X67146721Y-88473311D01*
X67245303Y-88325773D01*
X67370773Y-88200303D01*
X67518311Y-88101721D01*
X67682246Y-88033817D01*
X67856279Y-87999200D01*
X68033721Y-87999200D01*
X68207754Y-88033817D01*
G37*
G36*
X52967754Y-88033817D02*
G01*
X53131689Y-88101721D01*
X53279227Y-88200303D01*
X53404697Y-88325773D01*
X53503279Y-88473311D01*
X53571183Y-88637246D01*
X53605800Y-88811279D01*
X53605800Y-88988721D01*
X53571183Y-89162754D01*
X53503279Y-89326689D01*
X53404697Y-89474227D01*
X53279227Y-89599697D01*
X53131689Y-89698279D01*
X52967754Y-89766183D01*
X52793721Y-89800800D01*
X52616279Y-89800800D01*
X52442246Y-89766183D01*
X52278311Y-89698279D01*
X52130773Y-89599697D01*
X52005303Y-89474227D01*
X51906721Y-89326689D01*
X51838817Y-89162754D01*
X51804200Y-88988721D01*
X51804200Y-88811279D01*
X51838817Y-88637246D01*
X51906721Y-88473311D01*
X52005303Y-88325773D01*
X52130773Y-88200303D01*
X52278311Y-88101721D01*
X52442246Y-88033817D01*
X52616279Y-87999200D01*
X52793721Y-87999200D01*
X52967754Y-88033817D01*
G37*
G36*
X78367754Y-85493817D02*
G01*
X78531689Y-85561721D01*
X78679227Y-85660303D01*
X78804697Y-85785773D01*
X78903279Y-85933311D01*
X78971183Y-86097246D01*
X79005800Y-86271279D01*
X79005800Y-86448721D01*
X78971183Y-86622754D01*
X78903279Y-86786689D01*
X78804697Y-86934227D01*
X78679227Y-87059697D01*
X78531689Y-87158279D01*
X78367754Y-87226183D01*
X78193721Y-87260800D01*
X78016279Y-87260800D01*
X77842246Y-87226183D01*
X77678311Y-87158279D01*
X77530773Y-87059697D01*
X77405303Y-86934227D01*
X77306721Y-86786689D01*
X77238817Y-86622754D01*
X77204200Y-86448721D01*
X77204200Y-86271279D01*
X77238817Y-86097246D01*
X77306721Y-85933311D01*
X77405303Y-85785773D01*
X77530773Y-85660303D01*
X77678311Y-85561721D01*
X77842246Y-85493817D01*
X78016279Y-85459200D01*
X78193721Y-85459200D01*
X78367754Y-85493817D01*
G37*
G36*
X68207754Y-85493817D02*
G01*
X68371689Y-85561721D01*
X68519227Y-85660303D01*
X68644697Y-85785773D01*
X68743279Y-85933311D01*
X68811183Y-86097246D01*
X68845800Y-86271279D01*
X68845800Y-86448721D01*
X68811183Y-86622754D01*
X68743279Y-86786689D01*
X68644697Y-86934227D01*
X68519227Y-87059697D01*
X68371689Y-87158279D01*
X68207754Y-87226183D01*
X68033721Y-87260800D01*
X67856279Y-87260800D01*
X67682246Y-87226183D01*
X67518311Y-87158279D01*
X67370773Y-87059697D01*
X67245303Y-86934227D01*
X67146721Y-86786689D01*
X67078817Y-86622754D01*
X67044200Y-86448721D01*
X67044200Y-86271279D01*
X67078817Y-86097246D01*
X67146721Y-85933311D01*
X67245303Y-85785773D01*
X67370773Y-85660303D01*
X67518311Y-85561721D01*
X67682246Y-85493817D01*
X67856279Y-85459200D01*
X68033721Y-85459200D01*
X68207754Y-85493817D01*
G37*
G36*
X52967754Y-85493817D02*
G01*
X53131689Y-85561721D01*
X53279227Y-85660303D01*
X53404697Y-85785773D01*
X53503279Y-85933311D01*
X53571183Y-86097246D01*
X53605800Y-86271279D01*
X53605800Y-86448721D01*
X53571183Y-86622754D01*
X53503279Y-86786689D01*
X53404697Y-86934227D01*
X53279227Y-87059697D01*
X53131689Y-87158279D01*
X52967754Y-87226183D01*
X52793721Y-87260800D01*
X52616279Y-87260800D01*
X52442246Y-87226183D01*
X52278311Y-87158279D01*
X52130773Y-87059697D01*
X52005303Y-86934227D01*
X51906721Y-86786689D01*
X51838817Y-86622754D01*
X51804200Y-86448721D01*
X51804200Y-86271279D01*
X51838817Y-86097246D01*
X51906721Y-85933311D01*
X52005303Y-85785773D01*
X52130773Y-85660303D01*
X52278311Y-85561721D01*
X52442246Y-85493817D01*
X52616279Y-85459200D01*
X52793721Y-85459200D01*
X52967754Y-85493817D01*
G37*
G36*
X78367754Y-82953817D02*
G01*
X78531689Y-83021721D01*
X78679227Y-83120303D01*
X78804697Y-83245773D01*
X78903279Y-83393311D01*
X78971183Y-83557246D01*
X79005800Y-83731279D01*
X79005800Y-83908721D01*
X78971183Y-84082754D01*
X78903279Y-84246689D01*
X78804697Y-84394227D01*
X78679227Y-84519697D01*
X78531689Y-84618279D01*
X78367754Y-84686183D01*
X78193721Y-84720800D01*
X78016279Y-84720800D01*
X77842246Y-84686183D01*
X77678311Y-84618279D01*
X77530773Y-84519697D01*
X77405303Y-84394227D01*
X77306721Y-84246689D01*
X77238817Y-84082754D01*
X77204200Y-83908721D01*
X77204200Y-83731279D01*
X77238817Y-83557246D01*
X77306721Y-83393311D01*
X77405303Y-83245773D01*
X77530773Y-83120303D01*
X77678311Y-83021721D01*
X77842246Y-82953817D01*
X78016279Y-82919200D01*
X78193721Y-82919200D01*
X78367754Y-82953817D01*
G37*
G36*
X68207754Y-82953817D02*
G01*
X68371689Y-83021721D01*
X68519227Y-83120303D01*
X68644697Y-83245773D01*
X68743279Y-83393311D01*
X68811183Y-83557246D01*
X68845800Y-83731279D01*
X68845800Y-83908721D01*
X68811183Y-84082754D01*
X68743279Y-84246689D01*
X68644697Y-84394227D01*
X68519227Y-84519697D01*
X68371689Y-84618279D01*
X68207754Y-84686183D01*
X68033721Y-84720800D01*
X67856279Y-84720800D01*
X67682246Y-84686183D01*
X67518311Y-84618279D01*
X67370773Y-84519697D01*
X67245303Y-84394227D01*
X67146721Y-84246689D01*
X67078817Y-84082754D01*
X67044200Y-83908721D01*
X67044200Y-83731279D01*
X67078817Y-83557246D01*
X67146721Y-83393311D01*
X67245303Y-83245773D01*
X67370773Y-83120303D01*
X67518311Y-83021721D01*
X67682246Y-82953817D01*
X67856279Y-82919200D01*
X68033721Y-82919200D01*
X68207754Y-82953817D01*
G37*
G36*
X52967754Y-82953817D02*
G01*
X53131689Y-83021721D01*
X53279227Y-83120303D01*
X53404697Y-83245773D01*
X53503279Y-83393311D01*
X53571183Y-83557246D01*
X53605800Y-83731279D01*
X53605800Y-83908721D01*
X53571183Y-84082754D01*
X53503279Y-84246689D01*
X53404697Y-84394227D01*
X53279227Y-84519697D01*
X53131689Y-84618279D01*
X52967754Y-84686183D01*
X52793721Y-84720800D01*
X52616279Y-84720800D01*
X52442246Y-84686183D01*
X52278311Y-84618279D01*
X52130773Y-84519697D01*
X52005303Y-84394227D01*
X51906721Y-84246689D01*
X51838817Y-84082754D01*
X51804200Y-83908721D01*
X51804200Y-83731279D01*
X51838817Y-83557246D01*
X51906721Y-83393311D01*
X52005303Y-83245773D01*
X52130773Y-83120303D01*
X52278311Y-83021721D01*
X52442246Y-82953817D01*
X52616279Y-82919200D01*
X52793721Y-82919200D01*
X52967754Y-82953817D01*
G37*
G36*
X52967754Y-80413817D02*
G01*
X53131689Y-80481721D01*
X53279227Y-80580303D01*
X53404697Y-80705773D01*
X53503279Y-80853311D01*
X53571183Y-81017246D01*
X53605800Y-81191279D01*
X53605800Y-81368721D01*
X53571183Y-81542754D01*
X53503279Y-81706689D01*
X53404697Y-81854227D01*
X53279227Y-81979697D01*
X53131689Y-82078279D01*
X52967754Y-82146183D01*
X52793721Y-82180800D01*
X52616279Y-82180800D01*
X52442246Y-82146183D01*
X52278311Y-82078279D01*
X52130773Y-81979697D01*
X52005303Y-81854227D01*
X51906721Y-81706689D01*
X51838817Y-81542754D01*
X51804200Y-81368721D01*
X51804200Y-81191279D01*
X51838817Y-81017246D01*
X51906721Y-80853311D01*
X52005303Y-80705773D01*
X52130773Y-80580303D01*
X52278311Y-80481721D01*
X52442246Y-80413817D01*
X52616279Y-80379200D01*
X52793721Y-80379200D01*
X52967754Y-80413817D01*
G37*
G36*
X68207754Y-80413817D02*
G01*
X68371689Y-80481721D01*
X68519227Y-80580303D01*
X68644697Y-80705773D01*
X68743279Y-80853311D01*
X68811183Y-81017246D01*
X68845800Y-81191279D01*
X68845800Y-81368721D01*
X68811183Y-81542754D01*
X68743279Y-81706689D01*
X68644697Y-81854227D01*
X68519227Y-81979697D01*
X68371689Y-82078279D01*
X68207754Y-82146183D01*
X68033721Y-82180800D01*
X67856279Y-82180800D01*
X67682246Y-82146183D01*
X67518311Y-82078279D01*
X67370773Y-81979697D01*
X67245303Y-81854227D01*
X67146721Y-81706689D01*
X67078817Y-81542754D01*
X67044200Y-81368721D01*
X67044200Y-81191279D01*
X67078817Y-81017246D01*
X67146721Y-80853311D01*
X67245303Y-80705773D01*
X67370773Y-80580303D01*
X67518311Y-80481721D01*
X67682246Y-80413817D01*
X67856279Y-80379200D01*
X68033721Y-80379200D01*
X68207754Y-80413817D01*
G37*
G36*
X78367754Y-80413817D02*
G01*
X78531689Y-80481721D01*
X78679227Y-80580303D01*
X78804697Y-80705773D01*
X78903279Y-80853311D01*
X78971183Y-81017246D01*
X79005800Y-81191279D01*
X79005800Y-81368721D01*
X78971183Y-81542754D01*
X78903279Y-81706689D01*
X78804697Y-81854227D01*
X78679227Y-81979697D01*
X78531689Y-82078279D01*
X78367754Y-82146183D01*
X78193721Y-82180800D01*
X78016279Y-82180800D01*
X77842246Y-82146183D01*
X77678311Y-82078279D01*
X77530773Y-81979697D01*
X77405303Y-81854227D01*
X77306721Y-81706689D01*
X77238817Y-81542754D01*
X77204200Y-81368721D01*
X77204200Y-81191279D01*
X77238817Y-81017246D01*
X77306721Y-80853311D01*
X77405303Y-80705773D01*
X77530773Y-80580303D01*
X77678311Y-80481721D01*
X77842246Y-80413817D01*
X78016279Y-80379200D01*
X78193721Y-80379200D01*
X78367754Y-80413817D01*
G37*
G36*
X68207754Y-77873817D02*
G01*
X68371689Y-77941721D01*
X68519227Y-78040303D01*
X68644697Y-78165773D01*
X68743279Y-78313311D01*
X68811183Y-78477246D01*
X68845800Y-78651279D01*
X68845800Y-78828721D01*
X68811183Y-79002754D01*
X68743279Y-79166689D01*
X68644697Y-79314227D01*
X68519227Y-79439697D01*
X68371689Y-79538279D01*
X68207754Y-79606183D01*
X68033721Y-79640800D01*
X67856279Y-79640800D01*
X67682246Y-79606183D01*
X67518311Y-79538279D01*
X67370773Y-79439697D01*
X67245303Y-79314227D01*
X67146721Y-79166689D01*
X67078817Y-79002754D01*
X67044200Y-78828721D01*
X67044200Y-78651279D01*
X67078817Y-78477246D01*
X67146721Y-78313311D01*
X67245303Y-78165773D01*
X67370773Y-78040303D01*
X67518311Y-77941721D01*
X67682246Y-77873817D01*
X67856279Y-77839200D01*
X68033721Y-77839200D01*
X68207754Y-77873817D01*
G37*
G36*
X52967754Y-77873817D02*
G01*
X53131689Y-77941721D01*
X53279227Y-78040303D01*
X53404697Y-78165773D01*
X53503279Y-78313311D01*
X53571183Y-78477246D01*
X53605800Y-78651279D01*
X53605800Y-78828721D01*
X53571183Y-79002754D01*
X53503279Y-79166689D01*
X53404697Y-79314227D01*
X53279227Y-79439697D01*
X53131689Y-79538279D01*
X52967754Y-79606183D01*
X52793721Y-79640800D01*
X52616279Y-79640800D01*
X52442246Y-79606183D01*
X52278311Y-79538279D01*
X52130773Y-79439697D01*
X52005303Y-79314227D01*
X51906721Y-79166689D01*
X51838817Y-79002754D01*
X51804200Y-78828721D01*
X51804200Y-78651279D01*
X51838817Y-78477246D01*
X51906721Y-78313311D01*
X52005303Y-78165773D01*
X52130773Y-78040303D01*
X52278311Y-77941721D01*
X52442246Y-77873817D01*
X52616279Y-77839200D01*
X52793721Y-77839200D01*
X52967754Y-77873817D01*
G37*
G36*
X78367754Y-77873817D02*
G01*
X78531689Y-77941721D01*
X78679227Y-78040303D01*
X78804697Y-78165773D01*
X78903279Y-78313311D01*
X78971183Y-78477246D01*
X79005800Y-78651279D01*
X79005800Y-78828721D01*
X78971183Y-79002754D01*
X78903279Y-79166689D01*
X78804697Y-79314227D01*
X78679227Y-79439697D01*
X78531689Y-79538279D01*
X78367754Y-79606183D01*
X78193721Y-79640800D01*
X78016279Y-79640800D01*
X77842246Y-79606183D01*
X77678311Y-79538279D01*
X77530773Y-79439697D01*
X77405303Y-79314227D01*
X77306721Y-79166689D01*
X77238817Y-79002754D01*
X77204200Y-78828721D01*
X77204200Y-78651279D01*
X77238817Y-78477246D01*
X77306721Y-78313311D01*
X77405303Y-78165773D01*
X77530773Y-78040303D01*
X77678311Y-77941721D01*
X77842246Y-77873817D01*
X78016279Y-77839200D01*
X78193721Y-77839200D01*
X78367754Y-77873817D01*
G37*
G36*
X68207754Y-75333817D02*
G01*
X68371689Y-75401721D01*
X68519227Y-75500303D01*
X68644697Y-75625773D01*
X68743279Y-75773311D01*
X68811183Y-75937246D01*
X68845800Y-76111279D01*
X68845800Y-76288721D01*
X68811183Y-76462754D01*
X68743279Y-76626689D01*
X68644697Y-76774227D01*
X68519227Y-76899697D01*
X68371689Y-76998279D01*
X68207754Y-77066183D01*
X68033721Y-77100800D01*
X67856279Y-77100800D01*
X67682246Y-77066183D01*
X67518311Y-76998279D01*
X67370773Y-76899697D01*
X67245303Y-76774227D01*
X67146721Y-76626689D01*
X67078817Y-76462754D01*
X67044200Y-76288721D01*
X67044200Y-76111279D01*
X67078817Y-75937246D01*
X67146721Y-75773311D01*
X67245303Y-75625773D01*
X67370773Y-75500303D01*
X67518311Y-75401721D01*
X67682246Y-75333817D01*
X67856279Y-75299200D01*
X68033721Y-75299200D01*
X68207754Y-75333817D01*
G37*
G36*
X52967754Y-75333817D02*
G01*
X53131689Y-75401721D01*
X53279227Y-75500303D01*
X53404697Y-75625773D01*
X53503279Y-75773311D01*
X53571183Y-75937246D01*
X53605800Y-76111279D01*
X53605800Y-76288721D01*
X53571183Y-76462754D01*
X53503279Y-76626689D01*
X53404697Y-76774227D01*
X53279227Y-76899697D01*
X53131689Y-76998279D01*
X52967754Y-77066183D01*
X52793721Y-77100800D01*
X52616279Y-77100800D01*
X52442246Y-77066183D01*
X52278311Y-76998279D01*
X52130773Y-76899697D01*
X52005303Y-76774227D01*
X51906721Y-76626689D01*
X51838817Y-76462754D01*
X51804200Y-76288721D01*
X51804200Y-76111279D01*
X51838817Y-75937246D01*
X51906721Y-75773311D01*
X52005303Y-75625773D01*
X52130773Y-75500303D01*
X52278311Y-75401721D01*
X52442246Y-75333817D01*
X52616279Y-75299200D01*
X52793721Y-75299200D01*
X52967754Y-75333817D01*
G37*
G36*
X78367754Y-75333817D02*
G01*
X78531689Y-75401721D01*
X78679227Y-75500303D01*
X78804697Y-75625773D01*
X78903279Y-75773311D01*
X78971183Y-75937246D01*
X79005800Y-76111279D01*
X79005800Y-76288721D01*
X78971183Y-76462754D01*
X78903279Y-76626689D01*
X78804697Y-76774227D01*
X78679227Y-76899697D01*
X78531689Y-76998279D01*
X78367754Y-77066183D01*
X78193721Y-77100800D01*
X78016279Y-77100800D01*
X77842246Y-77066183D01*
X77678311Y-76998279D01*
X77530773Y-76899697D01*
X77405303Y-76774227D01*
X77306721Y-76626689D01*
X77238817Y-76462754D01*
X77204200Y-76288721D01*
X77204200Y-76111279D01*
X77238817Y-75937246D01*
X77306721Y-75773311D01*
X77405303Y-75625773D01*
X77530773Y-75500303D01*
X77678311Y-75401721D01*
X77842246Y-75333817D01*
X78016279Y-75299200D01*
X78193721Y-75299200D01*
X78367754Y-75333817D01*
G37*
G36*
X25646781Y-72031510D02*
G01*
X25646784Y-72031511D01*
X25646785Y-72031511D01*
X25713013Y-72051601D01*
X25807162Y-72080161D01*
X25954967Y-72159164D01*
X26071712Y-72254974D01*
X26084517Y-72265483D01*
X26190837Y-72395034D01*
X26195083Y-72402978D01*
X26269839Y-72542837D01*
X26318490Y-72703218D01*
X26330800Y-72828204D01*
X26330800Y-73811796D01*
X26318490Y-73936782D01*
X26269839Y-74097163D01*
X26230338Y-74171064D01*
X26190837Y-74244966D01*
X26084517Y-74374517D01*
X25954966Y-74480837D01*
X25881064Y-74520338D01*
X25807163Y-74559839D01*
X25713014Y-74588399D01*
X25646786Y-74608489D01*
X25646785Y-74608489D01*
X25646782Y-74608490D01*
X25480000Y-74624917D01*
X25313219Y-74608490D01*
X25313216Y-74608489D01*
X25313215Y-74608489D01*
X25246987Y-74588399D01*
X25152838Y-74559839D01*
X25078937Y-74520338D01*
X25005035Y-74480837D01*
X24875484Y-74374517D01*
X24769164Y-74244966D01*
X24729663Y-74171064D01*
X24690162Y-74097163D01*
X24641511Y-73936782D01*
X24629200Y-73811795D01*
X24629200Y-72828205D01*
X24641510Y-72703219D01*
X24641512Y-72703214D01*
X24690161Y-72542839D01*
X24690161Y-72542838D01*
X24769164Y-72395033D01*
X24875481Y-72265485D01*
X24875483Y-72265483D01*
X25005034Y-72159163D01*
X25078936Y-72119662D01*
X25152837Y-72080161D01*
X25246986Y-72051601D01*
X25313214Y-72031511D01*
X25313215Y-72031511D01*
X25313218Y-72031510D01*
X25480000Y-72015083D01*
X25646781Y-72031510D01*
G37*
G36*
X23106781Y-72031510D02*
G01*
X23106784Y-72031511D01*
X23106785Y-72031511D01*
X23173013Y-72051601D01*
X23267162Y-72080161D01*
X23414967Y-72159164D01*
X23531712Y-72254974D01*
X23544517Y-72265483D01*
X23650837Y-72395034D01*
X23655083Y-72402978D01*
X23729839Y-72542837D01*
X23778490Y-72703218D01*
X23790800Y-72828204D01*
X23790800Y-73811796D01*
X23778490Y-73936782D01*
X23729839Y-74097163D01*
X23690338Y-74171064D01*
X23650837Y-74244966D01*
X23544517Y-74374517D01*
X23414966Y-74480837D01*
X23341064Y-74520338D01*
X23267163Y-74559839D01*
X23173014Y-74588399D01*
X23106786Y-74608489D01*
X23106785Y-74608489D01*
X23106782Y-74608490D01*
X22940000Y-74624917D01*
X22773219Y-74608490D01*
X22773216Y-74608489D01*
X22773215Y-74608489D01*
X22706987Y-74588399D01*
X22612838Y-74559839D01*
X22538937Y-74520338D01*
X22465035Y-74480837D01*
X22335484Y-74374517D01*
X22229164Y-74244966D01*
X22189663Y-74171064D01*
X22150162Y-74097163D01*
X22101511Y-73936782D01*
X22089200Y-73811795D01*
X22089200Y-72828205D01*
X22101510Y-72703219D01*
X22101512Y-72703214D01*
X22150161Y-72542839D01*
X22150161Y-72542838D01*
X22229164Y-72395033D01*
X22335481Y-72265485D01*
X22335483Y-72265483D01*
X22465034Y-72159163D01*
X22538936Y-72119662D01*
X22612837Y-72080161D01*
X22706986Y-72051601D01*
X22773214Y-72031511D01*
X22773215Y-72031511D01*
X22773218Y-72031510D01*
X22940000Y-72015083D01*
X23106781Y-72031510D01*
G37*
G36*
X78367754Y-72793817D02*
G01*
X78531689Y-72861721D01*
X78679227Y-72960303D01*
X78804697Y-73085773D01*
X78903279Y-73233311D01*
X78971183Y-73397246D01*
X79005800Y-73571279D01*
X79005800Y-73748721D01*
X78971183Y-73922754D01*
X78903279Y-74086689D01*
X78804697Y-74234227D01*
X78679227Y-74359697D01*
X78531689Y-74458279D01*
X78367754Y-74526183D01*
X78193721Y-74560800D01*
X78016279Y-74560800D01*
X77842246Y-74526183D01*
X77678311Y-74458279D01*
X77530773Y-74359697D01*
X77405303Y-74234227D01*
X77306721Y-74086689D01*
X77238817Y-73922754D01*
X77204200Y-73748721D01*
X77204200Y-73571279D01*
X77238817Y-73397246D01*
X77306721Y-73233311D01*
X77405303Y-73085773D01*
X77530773Y-72960303D01*
X77678311Y-72861721D01*
X77842246Y-72793817D01*
X78016279Y-72759200D01*
X78193721Y-72759200D01*
X78367754Y-72793817D01*
G37*
G36*
X52967754Y-72793817D02*
G01*
X53131689Y-72861721D01*
X53279227Y-72960303D01*
X53404697Y-73085773D01*
X53503279Y-73233311D01*
X53571183Y-73397246D01*
X53605800Y-73571279D01*
X53605800Y-73748721D01*
X53571183Y-73922754D01*
X53503279Y-74086689D01*
X53404697Y-74234227D01*
X53279227Y-74359697D01*
X53131689Y-74458279D01*
X52967754Y-74526183D01*
X52793721Y-74560800D01*
X52616279Y-74560800D01*
X52442246Y-74526183D01*
X52278311Y-74458279D01*
X52130773Y-74359697D01*
X52005303Y-74234227D01*
X51906721Y-74086689D01*
X51838817Y-73922754D01*
X51804200Y-73748721D01*
X51804200Y-73571279D01*
X51838817Y-73397246D01*
X51906721Y-73233311D01*
X52005303Y-73085773D01*
X52130773Y-72960303D01*
X52278311Y-72861721D01*
X52442246Y-72793817D01*
X52616279Y-72759200D01*
X52793721Y-72759200D01*
X52967754Y-72793817D01*
G37*
G36*
X68207754Y-72793817D02*
G01*
X68371689Y-72861721D01*
X68519227Y-72960303D01*
X68644697Y-73085773D01*
X68743279Y-73233311D01*
X68811183Y-73397246D01*
X68845800Y-73571279D01*
X68845800Y-73748721D01*
X68811183Y-73922754D01*
X68743279Y-74086689D01*
X68644697Y-74234227D01*
X68519227Y-74359697D01*
X68371689Y-74458279D01*
X68207754Y-74526183D01*
X68033721Y-74560800D01*
X67856279Y-74560800D01*
X67682246Y-74526183D01*
X67518311Y-74458279D01*
X67370773Y-74359697D01*
X67245303Y-74234227D01*
X67146721Y-74086689D01*
X67078817Y-73922754D01*
X67044200Y-73748721D01*
X67044200Y-73571279D01*
X67078817Y-73397246D01*
X67146721Y-73233311D01*
X67245303Y-73085773D01*
X67370773Y-72960303D01*
X67518311Y-72861721D01*
X67682246Y-72793817D01*
X67856279Y-72759200D01*
X68033721Y-72759200D01*
X68207754Y-72793817D01*
G37*
G36*
X14838585Y-72254974D02*
G01*
X14984322Y-72315339D01*
X15115482Y-72402978D01*
X15227022Y-72514518D01*
X15314661Y-72645678D01*
X15375026Y-72791415D01*
X15405800Y-72946128D01*
X15405800Y-73103872D01*
X15375026Y-73258585D01*
X15314661Y-73404322D01*
X15227022Y-73535482D01*
X15115482Y-73647022D01*
X14984322Y-73734661D01*
X14838585Y-73795026D01*
X14683872Y-73825800D01*
X14526128Y-73825800D01*
X14371415Y-73795026D01*
X14225678Y-73734661D01*
X14094518Y-73647022D01*
X13982978Y-73535482D01*
X13895339Y-73404322D01*
X13834974Y-73258585D01*
X13804200Y-73103872D01*
X13804200Y-72946128D01*
X13834974Y-72791415D01*
X13895339Y-72645678D01*
X13982978Y-72514518D01*
X14094518Y-72402978D01*
X14225678Y-72315339D01*
X14371415Y-72254974D01*
X14526128Y-72224200D01*
X14683872Y-72224200D01*
X14838585Y-72254974D01*
G37*
G36*
X52967754Y-70253817D02*
G01*
X53131689Y-70321721D01*
X53279227Y-70420303D01*
X53404697Y-70545773D01*
X53503279Y-70693311D01*
X53571183Y-70857246D01*
X53605800Y-71031279D01*
X53605800Y-71208721D01*
X53571183Y-71382754D01*
X53503279Y-71546689D01*
X53404697Y-71694227D01*
X53279227Y-71819697D01*
X53131689Y-71918279D01*
X52967754Y-71986183D01*
X52793721Y-72020800D01*
X52616279Y-72020800D01*
X52442246Y-71986183D01*
X52278311Y-71918279D01*
X52130773Y-71819697D01*
X52005303Y-71694227D01*
X51906721Y-71546689D01*
X51838817Y-71382754D01*
X51804200Y-71208721D01*
X51804200Y-71031279D01*
X51838817Y-70857246D01*
X51906721Y-70693311D01*
X52005303Y-70545773D01*
X52130773Y-70420303D01*
X52278311Y-70321721D01*
X52442246Y-70253817D01*
X52616279Y-70219200D01*
X52793721Y-70219200D01*
X52967754Y-70253817D01*
G37*
G36*
X78367754Y-70253817D02*
G01*
X78531689Y-70321721D01*
X78679227Y-70420303D01*
X78804697Y-70545773D01*
X78903279Y-70693311D01*
X78971183Y-70857246D01*
X79005800Y-71031279D01*
X79005800Y-71208721D01*
X78971183Y-71382754D01*
X78903279Y-71546689D01*
X78804697Y-71694227D01*
X78679227Y-71819697D01*
X78531689Y-71918279D01*
X78367754Y-71986183D01*
X78193721Y-72020800D01*
X78016279Y-72020800D01*
X77842246Y-71986183D01*
X77678311Y-71918279D01*
X77530773Y-71819697D01*
X77405303Y-71694227D01*
X77306721Y-71546689D01*
X77238817Y-71382754D01*
X77204200Y-71208721D01*
X77204200Y-71031279D01*
X77238817Y-70857246D01*
X77306721Y-70693311D01*
X77405303Y-70545773D01*
X77530773Y-70420303D01*
X77678311Y-70321721D01*
X77842246Y-70253817D01*
X78016279Y-70219200D01*
X78193721Y-70219200D01*
X78367754Y-70253817D01*
G37*
G36*
X68207754Y-70253817D02*
G01*
X68371689Y-70321721D01*
X68519227Y-70420303D01*
X68644697Y-70545773D01*
X68743279Y-70693311D01*
X68811183Y-70857246D01*
X68845800Y-71031279D01*
X68845800Y-71208721D01*
X68811183Y-71382754D01*
X68743279Y-71546689D01*
X68644697Y-71694227D01*
X68519227Y-71819697D01*
X68371689Y-71918279D01*
X68207754Y-71986183D01*
X68033721Y-72020800D01*
X67856279Y-72020800D01*
X67682246Y-71986183D01*
X67518311Y-71918279D01*
X67370773Y-71819697D01*
X67245303Y-71694227D01*
X67146721Y-71546689D01*
X67078817Y-71382754D01*
X67044200Y-71208721D01*
X67044200Y-71031279D01*
X67078817Y-70857246D01*
X67146721Y-70693311D01*
X67245303Y-70545773D01*
X67370773Y-70420303D01*
X67518311Y-70321721D01*
X67682246Y-70253817D01*
X67856279Y-70219200D01*
X68033721Y-70219200D01*
X68207754Y-70253817D01*
G37*
G36*
X30913014Y-64715255D02*
G01*
X30913017Y-64715256D01*
X31252470Y-64818228D01*
X31524915Y-64963853D01*
X31565313Y-64985446D01*
X31752663Y-65139200D01*
X31839519Y-65210481D01*
X32064555Y-65484688D01*
X32231772Y-65797529D01*
X32278412Y-65951280D01*
X32334745Y-66136985D01*
X32360800Y-66401528D01*
X32360800Y-70078472D01*
X32334745Y-70343015D01*
X32334744Y-70343018D01*
X32231772Y-70682471D01*
X32064555Y-70995312D01*
X31839519Y-71269519D01*
X31565312Y-71494555D01*
X31252471Y-71661772D01*
X30951836Y-71752969D01*
X30913015Y-71764745D01*
X30560000Y-71799514D01*
X30206986Y-71764745D01*
X30168165Y-71752969D01*
X29867530Y-71661772D01*
X29554689Y-71494555D01*
X29280482Y-71269519D01*
X29055446Y-70995312D01*
X28888229Y-70682471D01*
X28785257Y-70343018D01*
X28785256Y-70343015D01*
X28759201Y-70078472D01*
X28759200Y-66401529D01*
X28785255Y-66136986D01*
X28797031Y-66098165D01*
X28888228Y-65797530D01*
X29055445Y-65484689D01*
X29055446Y-65484687D01*
X29280479Y-65210483D01*
X29280481Y-65210481D01*
X29554688Y-64985445D01*
X29867529Y-64818228D01*
X30206982Y-64715256D01*
X30206985Y-64715255D01*
X30560000Y-64680486D01*
X30913014Y-64715255D01*
G37*
G36*
X20753014Y-64715255D02*
G01*
X20753017Y-64715256D01*
X21092470Y-64818228D01*
X21364915Y-64963853D01*
X21405313Y-64985446D01*
X21592663Y-65139200D01*
X21679519Y-65210481D01*
X21904555Y-65484688D01*
X22071772Y-65797529D01*
X22118412Y-65951280D01*
X22174745Y-66136985D01*
X22200800Y-66401528D01*
X22200800Y-70078472D01*
X22174745Y-70343015D01*
X22174744Y-70343018D01*
X22071772Y-70682471D01*
X21904555Y-70995312D01*
X21679519Y-71269519D01*
X21405312Y-71494555D01*
X21092471Y-71661772D01*
X20791836Y-71752969D01*
X20753015Y-71764745D01*
X20400000Y-71799514D01*
X20046986Y-71764745D01*
X20008165Y-71752969D01*
X19707530Y-71661772D01*
X19394689Y-71494555D01*
X19120482Y-71269519D01*
X18895446Y-70995312D01*
X18728229Y-70682471D01*
X18625257Y-70343018D01*
X18625256Y-70343015D01*
X18599201Y-70078472D01*
X18599200Y-66401529D01*
X18625255Y-66136986D01*
X18637031Y-66098165D01*
X18728228Y-65797530D01*
X18895445Y-65484689D01*
X18895446Y-65484687D01*
X19120479Y-65210483D01*
X19120481Y-65210481D01*
X19394688Y-64985445D01*
X19707529Y-64818228D01*
X20046982Y-64715256D01*
X20046985Y-64715255D01*
X20400000Y-64680486D01*
X20753014Y-64715255D01*
G37*
G36*
X14838585Y-68444974D02*
G01*
X14984322Y-68505339D01*
X15115482Y-68592978D01*
X15227022Y-68704518D01*
X15314661Y-68835678D01*
X15375026Y-68981415D01*
X15405800Y-69136128D01*
X15405800Y-69293872D01*
X15375026Y-69448585D01*
X15314661Y-69594322D01*
X15227022Y-69725482D01*
X15115482Y-69837022D01*
X14984322Y-69924661D01*
X14838585Y-69985026D01*
X14683872Y-70015800D01*
X14526128Y-70015800D01*
X14371415Y-69985026D01*
X14225678Y-69924661D01*
X14094518Y-69837022D01*
X13982978Y-69725482D01*
X13895339Y-69594322D01*
X13834974Y-69448585D01*
X13804200Y-69293872D01*
X13804200Y-69136128D01*
X13834974Y-68981415D01*
X13895339Y-68835678D01*
X13982978Y-68704518D01*
X14094518Y-68592978D01*
X14225678Y-68505339D01*
X14371415Y-68444974D01*
X14526128Y-68414200D01*
X14683872Y-68414200D01*
X14838585Y-68444974D01*
G37*
G36*
X52967754Y-67713817D02*
G01*
X53131689Y-67781721D01*
X53279227Y-67880303D01*
X53404697Y-68005773D01*
X53503279Y-68153311D01*
X53571183Y-68317246D01*
X53605800Y-68491279D01*
X53605800Y-68668721D01*
X53571183Y-68842754D01*
X53503279Y-69006689D01*
X53404697Y-69154227D01*
X53279227Y-69279697D01*
X53131689Y-69378279D01*
X52967754Y-69446183D01*
X52793721Y-69480800D01*
X52616279Y-69480800D01*
X52442246Y-69446183D01*
X52278311Y-69378279D01*
X52130773Y-69279697D01*
X52005303Y-69154227D01*
X51906721Y-69006689D01*
X51838817Y-68842754D01*
X51804200Y-68668721D01*
X51804200Y-68491279D01*
X51838817Y-68317246D01*
X51906721Y-68153311D01*
X52005303Y-68005773D01*
X52130773Y-67880303D01*
X52278311Y-67781721D01*
X52442246Y-67713817D01*
X52616279Y-67679200D01*
X52793721Y-67679200D01*
X52967754Y-67713817D01*
G37*
G36*
X68207754Y-67713817D02*
G01*
X68371689Y-67781721D01*
X68519227Y-67880303D01*
X68644697Y-68005773D01*
X68743279Y-68153311D01*
X68811183Y-68317246D01*
X68845800Y-68491279D01*
X68845800Y-68668721D01*
X68811183Y-68842754D01*
X68743279Y-69006689D01*
X68644697Y-69154227D01*
X68519227Y-69279697D01*
X68371689Y-69378279D01*
X68207754Y-69446183D01*
X68033721Y-69480800D01*
X67856279Y-69480800D01*
X67682246Y-69446183D01*
X67518311Y-69378279D01*
X67370773Y-69279697D01*
X67245303Y-69154227D01*
X67146721Y-69006689D01*
X67078817Y-68842754D01*
X67044200Y-68668721D01*
X67044200Y-68491279D01*
X67078817Y-68317246D01*
X67146721Y-68153311D01*
X67245303Y-68005773D01*
X67370773Y-67880303D01*
X67518311Y-67781721D01*
X67682246Y-67713817D01*
X67856279Y-67679200D01*
X68033721Y-67679200D01*
X68207754Y-67713817D01*
G37*
G36*
X78367754Y-67713817D02*
G01*
X78531689Y-67781721D01*
X78679227Y-67880303D01*
X78804697Y-68005773D01*
X78903279Y-68153311D01*
X78971183Y-68317246D01*
X79005800Y-68491279D01*
X79005800Y-68668721D01*
X78971183Y-68842754D01*
X78903279Y-69006689D01*
X78804697Y-69154227D01*
X78679227Y-69279697D01*
X78531689Y-69378279D01*
X78367754Y-69446183D01*
X78193721Y-69480800D01*
X78016279Y-69480800D01*
X77842246Y-69446183D01*
X77678311Y-69378279D01*
X77530773Y-69279697D01*
X77405303Y-69154227D01*
X77306721Y-69006689D01*
X77238817Y-68842754D01*
X77204200Y-68668721D01*
X77204200Y-68491279D01*
X77238817Y-68317246D01*
X77306721Y-68153311D01*
X77405303Y-68005773D01*
X77530773Y-67880303D01*
X77678311Y-67781721D01*
X77842246Y-67713817D01*
X78016279Y-67679200D01*
X78193721Y-67679200D01*
X78367754Y-67713817D01*
G37*
G36*
X78367754Y-65173817D02*
G01*
X78531689Y-65241721D01*
X78679227Y-65340303D01*
X78804697Y-65465773D01*
X78903279Y-65613311D01*
X78971183Y-65777246D01*
X79005800Y-65951279D01*
X79005800Y-66128721D01*
X78971183Y-66302754D01*
X78903279Y-66466689D01*
X78804697Y-66614227D01*
X78679227Y-66739697D01*
X78531689Y-66838279D01*
X78367754Y-66906183D01*
X78193721Y-66940800D01*
X78016279Y-66940800D01*
X77842246Y-66906183D01*
X77678311Y-66838279D01*
X77530773Y-66739697D01*
X77405303Y-66614227D01*
X77306721Y-66466689D01*
X77238817Y-66302754D01*
X77204200Y-66128721D01*
X77204200Y-65951279D01*
X77238817Y-65777246D01*
X77306721Y-65613311D01*
X77405303Y-65465773D01*
X77530773Y-65340303D01*
X77678311Y-65241721D01*
X77842246Y-65173817D01*
X78016279Y-65139200D01*
X78193721Y-65139200D01*
X78367754Y-65173817D01*
G37*
G36*
X68207754Y-65173817D02*
G01*
X68371689Y-65241721D01*
X68519227Y-65340303D01*
X68644697Y-65465773D01*
X68743279Y-65613311D01*
X68811183Y-65777246D01*
X68845800Y-65951279D01*
X68845800Y-66128721D01*
X68811183Y-66302754D01*
X68743279Y-66466689D01*
X68644697Y-66614227D01*
X68519227Y-66739697D01*
X68371689Y-66838279D01*
X68207754Y-66906183D01*
X68033721Y-66940800D01*
X67856279Y-66940800D01*
X67682246Y-66906183D01*
X67518311Y-66838279D01*
X67370773Y-66739697D01*
X67245303Y-66614227D01*
X67146721Y-66466689D01*
X67078817Y-66302754D01*
X67044200Y-66128721D01*
X67044200Y-65951279D01*
X67078817Y-65777246D01*
X67146721Y-65613311D01*
X67245303Y-65465773D01*
X67370773Y-65340303D01*
X67518311Y-65241721D01*
X67682246Y-65173817D01*
X67856279Y-65139200D01*
X68033721Y-65139200D01*
X68207754Y-65173817D01*
G37*
G36*
X52967754Y-65173817D02*
G01*
X53131689Y-65241721D01*
X53279227Y-65340303D01*
X53404697Y-65465773D01*
X53503279Y-65613311D01*
X53571183Y-65777246D01*
X53605800Y-65951279D01*
X53605800Y-66128721D01*
X53571183Y-66302754D01*
X53503279Y-66466689D01*
X53404697Y-66614227D01*
X53279227Y-66739697D01*
X53131689Y-66838279D01*
X52967754Y-66906183D01*
X52793721Y-66940800D01*
X52616279Y-66940800D01*
X52442246Y-66906183D01*
X52278311Y-66838279D01*
X52130773Y-66739697D01*
X52005303Y-66614227D01*
X51906721Y-66466689D01*
X51838817Y-66302754D01*
X51804200Y-66128721D01*
X51804200Y-65951279D01*
X51838817Y-65777246D01*
X51906721Y-65613311D01*
X52005303Y-65465773D01*
X52130773Y-65340303D01*
X52278311Y-65241721D01*
X52442246Y-65173817D01*
X52616279Y-65139200D01*
X52793721Y-65139200D01*
X52967754Y-65173817D01*
G37*
G36*
X37209430Y-62249189D02*
G01*
X37446160Y-62347245D01*
X37659213Y-62489603D01*
X37840397Y-62670787D01*
X37982755Y-62883840D01*
X38080811Y-63120570D01*
X38130800Y-63371882D01*
X38130800Y-63628118D01*
X38080811Y-63879430D01*
X37982755Y-64116160D01*
X37840397Y-64329213D01*
X37659213Y-64510397D01*
X37446160Y-64652755D01*
X37209430Y-64750811D01*
X36958118Y-64800800D01*
X36701882Y-64800800D01*
X36450570Y-64750811D01*
X36213840Y-64652755D01*
X36000787Y-64510397D01*
X35819603Y-64329213D01*
X35677245Y-64116160D01*
X35579189Y-63879430D01*
X35529200Y-63628118D01*
X35529200Y-63371882D01*
X35579189Y-63120570D01*
X35677245Y-62883840D01*
X35819603Y-62670787D01*
X36000787Y-62489603D01*
X36213840Y-62347245D01*
X36450570Y-62249189D01*
X36701882Y-62199200D01*
X36958118Y-62199200D01*
X37209430Y-62249189D01*
G37*
G36*
X14984430Y-62249189D02*
G01*
X15221160Y-62347245D01*
X15434213Y-62489603D01*
X15615397Y-62670787D01*
X15757755Y-62883840D01*
X15855811Y-63120570D01*
X15905800Y-63371882D01*
X15905800Y-63628118D01*
X15855811Y-63879430D01*
X15757755Y-64116160D01*
X15615397Y-64329213D01*
X15434213Y-64510397D01*
X15221160Y-64652755D01*
X14984430Y-64750811D01*
X14733118Y-64800800D01*
X14476882Y-64800800D01*
X14225570Y-64750811D01*
X13988840Y-64652755D01*
X13775787Y-64510397D01*
X13594603Y-64329213D01*
X13452245Y-64116160D01*
X13354189Y-63879430D01*
X13304200Y-63628118D01*
X13304200Y-63371882D01*
X13354189Y-63120570D01*
X13452245Y-62883840D01*
X13594603Y-62670787D01*
X13775787Y-62489603D01*
X13988840Y-62347245D01*
X14225570Y-62249189D01*
X14476882Y-62199200D01*
X14733118Y-62199200D01*
X14984430Y-62249189D01*
G37*
G36*
X53605800Y-64400800D02*
G01*
X51804200Y-64400800D01*
X51804200Y-62599200D01*
X53605800Y-62599200D01*
X53605800Y-64400800D01*
G37*
G36*
X46620800Y-64400800D02*
G01*
X44819200Y-64400800D01*
X44819200Y-62599200D01*
X46620800Y-62599200D01*
X46620800Y-64400800D01*
G37*
G36*
X43442754Y-62633817D02*
G01*
X43606689Y-62701721D01*
X43754227Y-62800303D01*
X43879697Y-62925773D01*
X43978279Y-63073311D01*
X44046183Y-63237246D01*
X44080800Y-63411279D01*
X44080800Y-63588721D01*
X44046183Y-63762754D01*
X43978279Y-63926689D01*
X43879697Y-64074227D01*
X43754227Y-64199697D01*
X43606689Y-64298279D01*
X43442754Y-64366183D01*
X43268721Y-64400800D01*
X43091279Y-64400800D01*
X42917246Y-64366183D01*
X42753311Y-64298279D01*
X42605773Y-64199697D01*
X42480303Y-64074227D01*
X42381721Y-63926689D01*
X42313817Y-63762754D01*
X42279200Y-63588721D01*
X42279200Y-63411279D01*
X42313817Y-63237246D01*
X42381721Y-63073311D01*
X42480303Y-62925773D01*
X42605773Y-62800303D01*
X42753311Y-62701721D01*
X42917246Y-62633817D01*
X43091279Y-62599200D01*
X43268721Y-62599200D01*
X43442754Y-62633817D01*
G37*
G36*
X68845800Y-64400800D02*
G01*
X67044200Y-64400800D01*
X67044200Y-62599200D01*
X68845800Y-62599200D01*
X68845800Y-64400800D01*
G37*
G36*
X79005800Y-64400800D02*
G01*
X77204200Y-64400800D01*
X77204200Y-62599200D01*
X79005800Y-62599200D01*
X79005800Y-64400800D01*
G37*
M02*
