G04 #@! TF.GenerationSoftware,KiCad,Pcbnew,5.1.5*
G04 #@! TF.CreationDate,2020-02-28T10:53:43-06:00*
G04 #@! TF.ProjectId,pcb,7063622e-6b69-4636-9164-5f7063625858,rev?*
G04 #@! TF.SameCoordinates,Original*
G04 #@! TF.FileFunction,Soldermask,Bot*
G04 #@! TF.FilePolarity,Negative*
%FSLAX46Y46*%
G04 Gerber Fmt 4.6, Leading zero omitted, Abs format (unit mm)*
G04 Created by KiCad (PCBNEW 5.1.5) date 2020-02-28 10:53:43*
%MOMM*%
%LPD*%
G04 APERTURE LIST*
%ADD10C,0.100000*%
G04 APERTURE END LIST*
D10*
G36*
X14984430Y-104159189D02*
G01*
X15221160Y-104257245D01*
X15434213Y-104399603D01*
X15615397Y-104580787D01*
X15757755Y-104793840D01*
X15855811Y-105030570D01*
X15905800Y-105281882D01*
X15905800Y-105538118D01*
X15855811Y-105789430D01*
X15757755Y-106026160D01*
X15615397Y-106239213D01*
X15434213Y-106420397D01*
X15221160Y-106562755D01*
X14984430Y-106660811D01*
X14733118Y-106710800D01*
X14476882Y-106710800D01*
X14225570Y-106660811D01*
X13988840Y-106562755D01*
X13775787Y-106420397D01*
X13594603Y-106239213D01*
X13452245Y-106026160D01*
X13354189Y-105789430D01*
X13304200Y-105538118D01*
X13304200Y-105281882D01*
X13354189Y-105030570D01*
X13452245Y-104793840D01*
X13594603Y-104580787D01*
X13775787Y-104399603D01*
X13988840Y-104257245D01*
X14225570Y-104159189D01*
X14476882Y-104109200D01*
X14733118Y-104109200D01*
X14984430Y-104159189D01*
G37*
G36*
X54875800Y-102500800D02*
G01*
X53074200Y-102500800D01*
X53074200Y-100699200D01*
X54875800Y-100699200D01*
X54875800Y-102500800D01*
G37*
G36*
X23122754Y-100733817D02*
G01*
X23286689Y-100801721D01*
X23434227Y-100900303D01*
X23559697Y-101025773D01*
X23658279Y-101173311D01*
X23726183Y-101337246D01*
X23760800Y-101511279D01*
X23760800Y-101688721D01*
X23726183Y-101862754D01*
X23658279Y-102026689D01*
X23559697Y-102174227D01*
X23434227Y-102299697D01*
X23286689Y-102398279D01*
X23122754Y-102466183D01*
X22948721Y-102500800D01*
X22771279Y-102500800D01*
X22597246Y-102466183D01*
X22433311Y-102398279D01*
X22285773Y-102299697D01*
X22160303Y-102174227D01*
X22061721Y-102026689D01*
X21993817Y-101862754D01*
X21959200Y-101688721D01*
X21959200Y-101511279D01*
X21993817Y-101337246D01*
X22061721Y-101173311D01*
X22160303Y-101025773D01*
X22285773Y-100900303D01*
X22433311Y-100801721D01*
X22597246Y-100733817D01*
X22771279Y-100699200D01*
X22948721Y-100699200D01*
X23122754Y-100733817D01*
G37*
G36*
X26300800Y-102500800D02*
G01*
X24499200Y-102500800D01*
X24499200Y-100699200D01*
X26300800Y-100699200D01*
X26300800Y-102500800D01*
G37*
G36*
X51697754Y-100733817D02*
G01*
X51861689Y-100801721D01*
X52009227Y-100900303D01*
X52134697Y-101025773D01*
X52233279Y-101173311D01*
X52301183Y-101337246D01*
X52335800Y-101511279D01*
X52335800Y-101688721D01*
X52301183Y-101862754D01*
X52233279Y-102026689D01*
X52134697Y-102174227D01*
X52009227Y-102299697D01*
X51861689Y-102398279D01*
X51697754Y-102466183D01*
X51523721Y-102500800D01*
X51346279Y-102500800D01*
X51172246Y-102466183D01*
X51008311Y-102398279D01*
X50860773Y-102299697D01*
X50735303Y-102174227D01*
X50636721Y-102026689D01*
X50568817Y-101862754D01*
X50534200Y-101688721D01*
X50534200Y-101511279D01*
X50568817Y-101337246D01*
X50636721Y-101173311D01*
X50735303Y-101025773D01*
X50860773Y-100900303D01*
X51008311Y-100801721D01*
X51172246Y-100733817D01*
X51346279Y-100699200D01*
X51523721Y-100699200D01*
X51697754Y-100733817D01*
G37*
G36*
X51697754Y-98193817D02*
G01*
X51861689Y-98261721D01*
X52009227Y-98360303D01*
X52134697Y-98485773D01*
X52233279Y-98633311D01*
X52301183Y-98797246D01*
X52335800Y-98971279D01*
X52335800Y-99148721D01*
X52301183Y-99322754D01*
X52233279Y-99486689D01*
X52134697Y-99634227D01*
X52009227Y-99759697D01*
X51861689Y-99858279D01*
X51697754Y-99926183D01*
X51523721Y-99960800D01*
X51346279Y-99960800D01*
X51172246Y-99926183D01*
X51008311Y-99858279D01*
X50860773Y-99759697D01*
X50735303Y-99634227D01*
X50636721Y-99486689D01*
X50568817Y-99322754D01*
X50534200Y-99148721D01*
X50534200Y-98971279D01*
X50568817Y-98797246D01*
X50636721Y-98633311D01*
X50735303Y-98485773D01*
X50860773Y-98360303D01*
X51008311Y-98261721D01*
X51172246Y-98193817D01*
X51346279Y-98159200D01*
X51523721Y-98159200D01*
X51697754Y-98193817D01*
G37*
G36*
X23122754Y-98193817D02*
G01*
X23286689Y-98261721D01*
X23434227Y-98360303D01*
X23559697Y-98485773D01*
X23658279Y-98633311D01*
X23726183Y-98797246D01*
X23760800Y-98971279D01*
X23760800Y-99148721D01*
X23726183Y-99322754D01*
X23658279Y-99486689D01*
X23559697Y-99634227D01*
X23434227Y-99759697D01*
X23286689Y-99858279D01*
X23122754Y-99926183D01*
X22948721Y-99960800D01*
X22771279Y-99960800D01*
X22597246Y-99926183D01*
X22433311Y-99858279D01*
X22285773Y-99759697D01*
X22160303Y-99634227D01*
X22061721Y-99486689D01*
X21993817Y-99322754D01*
X21959200Y-99148721D01*
X21959200Y-98971279D01*
X21993817Y-98797246D01*
X22061721Y-98633311D01*
X22160303Y-98485773D01*
X22285773Y-98360303D01*
X22433311Y-98261721D01*
X22597246Y-98193817D01*
X22771279Y-98159200D01*
X22948721Y-98159200D01*
X23122754Y-98193817D01*
G37*
G36*
X25662754Y-98193817D02*
G01*
X25826689Y-98261721D01*
X25974227Y-98360303D01*
X26099697Y-98485773D01*
X26198279Y-98633311D01*
X26266183Y-98797246D01*
X26300800Y-98971279D01*
X26300800Y-99148721D01*
X26266183Y-99322754D01*
X26198279Y-99486689D01*
X26099697Y-99634227D01*
X25974227Y-99759697D01*
X25826689Y-99858279D01*
X25662754Y-99926183D01*
X25488721Y-99960800D01*
X25311279Y-99960800D01*
X25137246Y-99926183D01*
X24973311Y-99858279D01*
X24825773Y-99759697D01*
X24700303Y-99634227D01*
X24601721Y-99486689D01*
X24533817Y-99322754D01*
X24499200Y-99148721D01*
X24499200Y-98971279D01*
X24533817Y-98797246D01*
X24601721Y-98633311D01*
X24700303Y-98485773D01*
X24825773Y-98360303D01*
X24973311Y-98261721D01*
X25137246Y-98193817D01*
X25311279Y-98159200D01*
X25488721Y-98159200D01*
X25662754Y-98193817D01*
G37*
G36*
X54237754Y-98193817D02*
G01*
X54401689Y-98261721D01*
X54549227Y-98360303D01*
X54674697Y-98485773D01*
X54773279Y-98633311D01*
X54841183Y-98797246D01*
X54875800Y-98971279D01*
X54875800Y-99148721D01*
X54841183Y-99322754D01*
X54773279Y-99486689D01*
X54674697Y-99634227D01*
X54549227Y-99759697D01*
X54401689Y-99858279D01*
X54237754Y-99926183D01*
X54063721Y-99960800D01*
X53886279Y-99960800D01*
X53712246Y-99926183D01*
X53548311Y-99858279D01*
X53400773Y-99759697D01*
X53275303Y-99634227D01*
X53176721Y-99486689D01*
X53108817Y-99322754D01*
X53074200Y-99148721D01*
X53074200Y-98971279D01*
X53108817Y-98797246D01*
X53176721Y-98633311D01*
X53275303Y-98485773D01*
X53400773Y-98360303D01*
X53548311Y-98261721D01*
X53712246Y-98193817D01*
X53886279Y-98159200D01*
X54063721Y-98159200D01*
X54237754Y-98193817D01*
G37*
G36*
X54237754Y-95653817D02*
G01*
X54401689Y-95721721D01*
X54549227Y-95820303D01*
X54674697Y-95945773D01*
X54773279Y-96093311D01*
X54841183Y-96257246D01*
X54875800Y-96431279D01*
X54875800Y-96608721D01*
X54841183Y-96782754D01*
X54773279Y-96946689D01*
X54674697Y-97094227D01*
X54549227Y-97219697D01*
X54401689Y-97318279D01*
X54237754Y-97386183D01*
X54063721Y-97420800D01*
X53886279Y-97420800D01*
X53712246Y-97386183D01*
X53548311Y-97318279D01*
X53400773Y-97219697D01*
X53275303Y-97094227D01*
X53176721Y-96946689D01*
X53108817Y-96782754D01*
X53074200Y-96608721D01*
X53074200Y-96431279D01*
X53108817Y-96257246D01*
X53176721Y-96093311D01*
X53275303Y-95945773D01*
X53400773Y-95820303D01*
X53548311Y-95721721D01*
X53712246Y-95653817D01*
X53886279Y-95619200D01*
X54063721Y-95619200D01*
X54237754Y-95653817D01*
G37*
G36*
X51697754Y-95653817D02*
G01*
X51861689Y-95721721D01*
X52009227Y-95820303D01*
X52134697Y-95945773D01*
X52233279Y-96093311D01*
X52301183Y-96257246D01*
X52335800Y-96431279D01*
X52335800Y-96608721D01*
X52301183Y-96782754D01*
X52233279Y-96946689D01*
X52134697Y-97094227D01*
X52009227Y-97219697D01*
X51861689Y-97318279D01*
X51697754Y-97386183D01*
X51523721Y-97420800D01*
X51346279Y-97420800D01*
X51172246Y-97386183D01*
X51008311Y-97318279D01*
X50860773Y-97219697D01*
X50735303Y-97094227D01*
X50636721Y-96946689D01*
X50568817Y-96782754D01*
X50534200Y-96608721D01*
X50534200Y-96431279D01*
X50568817Y-96257246D01*
X50636721Y-96093311D01*
X50735303Y-95945773D01*
X50860773Y-95820303D01*
X51008311Y-95721721D01*
X51172246Y-95653817D01*
X51346279Y-95619200D01*
X51523721Y-95619200D01*
X51697754Y-95653817D01*
G37*
G36*
X23122754Y-95653817D02*
G01*
X23286689Y-95721721D01*
X23434227Y-95820303D01*
X23559697Y-95945773D01*
X23658279Y-96093311D01*
X23726183Y-96257246D01*
X23760800Y-96431279D01*
X23760800Y-96608721D01*
X23726183Y-96782754D01*
X23658279Y-96946689D01*
X23559697Y-97094227D01*
X23434227Y-97219697D01*
X23286689Y-97318279D01*
X23122754Y-97386183D01*
X22948721Y-97420800D01*
X22771279Y-97420800D01*
X22597246Y-97386183D01*
X22433311Y-97318279D01*
X22285773Y-97219697D01*
X22160303Y-97094227D01*
X22061721Y-96946689D01*
X21993817Y-96782754D01*
X21959200Y-96608721D01*
X21959200Y-96431279D01*
X21993817Y-96257246D01*
X22061721Y-96093311D01*
X22160303Y-95945773D01*
X22285773Y-95820303D01*
X22433311Y-95721721D01*
X22597246Y-95653817D01*
X22771279Y-95619200D01*
X22948721Y-95619200D01*
X23122754Y-95653817D01*
G37*
G36*
X25662754Y-95653817D02*
G01*
X25826689Y-95721721D01*
X25974227Y-95820303D01*
X26099697Y-95945773D01*
X26198279Y-96093311D01*
X26266183Y-96257246D01*
X26300800Y-96431279D01*
X26300800Y-96608721D01*
X26266183Y-96782754D01*
X26198279Y-96946689D01*
X26099697Y-97094227D01*
X25974227Y-97219697D01*
X25826689Y-97318279D01*
X25662754Y-97386183D01*
X25488721Y-97420800D01*
X25311279Y-97420800D01*
X25137246Y-97386183D01*
X24973311Y-97318279D01*
X24825773Y-97219697D01*
X24700303Y-97094227D01*
X24601721Y-96946689D01*
X24533817Y-96782754D01*
X24499200Y-96608721D01*
X24499200Y-96431279D01*
X24533817Y-96257246D01*
X24601721Y-96093311D01*
X24700303Y-95945773D01*
X24825773Y-95820303D01*
X24973311Y-95721721D01*
X25137246Y-95653817D01*
X25311279Y-95619200D01*
X25488721Y-95619200D01*
X25662754Y-95653817D01*
G37*
G36*
X61225800Y-95515800D02*
G01*
X59424200Y-95515800D01*
X59424200Y-93714200D01*
X61225800Y-93714200D01*
X61225800Y-95515800D01*
G37*
G36*
X51697754Y-93113817D02*
G01*
X51861689Y-93181721D01*
X52009227Y-93280303D01*
X52134697Y-93405773D01*
X52233279Y-93553311D01*
X52301183Y-93717246D01*
X52335800Y-93891279D01*
X52335800Y-94068721D01*
X52301183Y-94242754D01*
X52233279Y-94406689D01*
X52134697Y-94554227D01*
X52009227Y-94679697D01*
X51861689Y-94778279D01*
X51697754Y-94846183D01*
X51523721Y-94880800D01*
X51346279Y-94880800D01*
X51172246Y-94846183D01*
X51008311Y-94778279D01*
X50860773Y-94679697D01*
X50735303Y-94554227D01*
X50636721Y-94406689D01*
X50568817Y-94242754D01*
X50534200Y-94068721D01*
X50534200Y-93891279D01*
X50568817Y-93717246D01*
X50636721Y-93553311D01*
X50735303Y-93405773D01*
X50860773Y-93280303D01*
X51008311Y-93181721D01*
X51172246Y-93113817D01*
X51346279Y-93079200D01*
X51523721Y-93079200D01*
X51697754Y-93113817D01*
G37*
G36*
X25662754Y-93113817D02*
G01*
X25826689Y-93181721D01*
X25974227Y-93280303D01*
X26099697Y-93405773D01*
X26198279Y-93553311D01*
X26266183Y-93717246D01*
X26300800Y-93891279D01*
X26300800Y-94068721D01*
X26266183Y-94242754D01*
X26198279Y-94406689D01*
X26099697Y-94554227D01*
X25974227Y-94679697D01*
X25826689Y-94778279D01*
X25662754Y-94846183D01*
X25488721Y-94880800D01*
X25311279Y-94880800D01*
X25137246Y-94846183D01*
X24973311Y-94778279D01*
X24825773Y-94679697D01*
X24700303Y-94554227D01*
X24601721Y-94406689D01*
X24533817Y-94242754D01*
X24499200Y-94068721D01*
X24499200Y-93891279D01*
X24533817Y-93717246D01*
X24601721Y-93553311D01*
X24700303Y-93405773D01*
X24825773Y-93280303D01*
X24973311Y-93181721D01*
X25137246Y-93113817D01*
X25311279Y-93079200D01*
X25488721Y-93079200D01*
X25662754Y-93113817D01*
G37*
G36*
X23122754Y-93113817D02*
G01*
X23286689Y-93181721D01*
X23434227Y-93280303D01*
X23559697Y-93405773D01*
X23658279Y-93553311D01*
X23726183Y-93717246D01*
X23760800Y-93891279D01*
X23760800Y-94068721D01*
X23726183Y-94242754D01*
X23658279Y-94406689D01*
X23559697Y-94554227D01*
X23434227Y-94679697D01*
X23286689Y-94778279D01*
X23122754Y-94846183D01*
X22948721Y-94880800D01*
X22771279Y-94880800D01*
X22597246Y-94846183D01*
X22433311Y-94778279D01*
X22285773Y-94679697D01*
X22160303Y-94554227D01*
X22061721Y-94406689D01*
X21993817Y-94242754D01*
X21959200Y-94068721D01*
X21959200Y-93891279D01*
X21993817Y-93717246D01*
X22061721Y-93553311D01*
X22160303Y-93405773D01*
X22285773Y-93280303D01*
X22433311Y-93181721D01*
X22597246Y-93113817D01*
X22771279Y-93079200D01*
X22948721Y-93079200D01*
X23122754Y-93113817D01*
G37*
G36*
X54237754Y-93113817D02*
G01*
X54401689Y-93181721D01*
X54549227Y-93280303D01*
X54674697Y-93405773D01*
X54773279Y-93553311D01*
X54841183Y-93717246D01*
X54875800Y-93891279D01*
X54875800Y-94068721D01*
X54841183Y-94242754D01*
X54773279Y-94406689D01*
X54674697Y-94554227D01*
X54549227Y-94679697D01*
X54401689Y-94778279D01*
X54237754Y-94846183D01*
X54063721Y-94880800D01*
X53886279Y-94880800D01*
X53712246Y-94846183D01*
X53548311Y-94778279D01*
X53400773Y-94679697D01*
X53275303Y-94554227D01*
X53176721Y-94406689D01*
X53108817Y-94242754D01*
X53074200Y-94068721D01*
X53074200Y-93891279D01*
X53108817Y-93717246D01*
X53176721Y-93553311D01*
X53275303Y-93405773D01*
X53400773Y-93280303D01*
X53548311Y-93181721D01*
X53712246Y-93113817D01*
X53886279Y-93079200D01*
X54063721Y-93079200D01*
X54237754Y-93113817D01*
G37*
G36*
X60587754Y-91208817D02*
G01*
X60751689Y-91276721D01*
X60899227Y-91375303D01*
X61024697Y-91500773D01*
X61123279Y-91648311D01*
X61191183Y-91812246D01*
X61225800Y-91986279D01*
X61225800Y-92163721D01*
X61191183Y-92337754D01*
X61123279Y-92501689D01*
X61024697Y-92649227D01*
X60899227Y-92774697D01*
X60751689Y-92873279D01*
X60587754Y-92941183D01*
X60413721Y-92975800D01*
X60236279Y-92975800D01*
X60062246Y-92941183D01*
X59898311Y-92873279D01*
X59750773Y-92774697D01*
X59625303Y-92649227D01*
X59526721Y-92501689D01*
X59458817Y-92337754D01*
X59424200Y-92163721D01*
X59424200Y-91986279D01*
X59458817Y-91812246D01*
X59526721Y-91648311D01*
X59625303Y-91500773D01*
X59750773Y-91375303D01*
X59898311Y-91276721D01*
X60062246Y-91208817D01*
X60236279Y-91174200D01*
X60413721Y-91174200D01*
X60587754Y-91208817D01*
G37*
G36*
X60587754Y-88668817D02*
G01*
X60751689Y-88736721D01*
X60899227Y-88835303D01*
X61024697Y-88960773D01*
X61123279Y-89108311D01*
X61191183Y-89272246D01*
X61225800Y-89446279D01*
X61225800Y-89623721D01*
X61191183Y-89797754D01*
X61123279Y-89961689D01*
X61024697Y-90109227D01*
X60899227Y-90234697D01*
X60751689Y-90333279D01*
X60587754Y-90401183D01*
X60413721Y-90435800D01*
X60236279Y-90435800D01*
X60062246Y-90401183D01*
X59898311Y-90333279D01*
X59750773Y-90234697D01*
X59625303Y-90109227D01*
X59526721Y-89961689D01*
X59458817Y-89797754D01*
X59424200Y-89623721D01*
X59424200Y-89446279D01*
X59458817Y-89272246D01*
X59526721Y-89108311D01*
X59625303Y-88960773D01*
X59750773Y-88835303D01*
X59898311Y-88736721D01*
X60062246Y-88668817D01*
X60236279Y-88634200D01*
X60413721Y-88634200D01*
X60587754Y-88668817D01*
G37*
G36*
X60587754Y-86128817D02*
G01*
X60751689Y-86196721D01*
X60899227Y-86295303D01*
X61024697Y-86420773D01*
X61123279Y-86568311D01*
X61191183Y-86732246D01*
X61225800Y-86906279D01*
X61225800Y-87083721D01*
X61191183Y-87257754D01*
X61123279Y-87421689D01*
X61024697Y-87569227D01*
X60899227Y-87694697D01*
X60751689Y-87793279D01*
X60587754Y-87861183D01*
X60413721Y-87895800D01*
X60236279Y-87895800D01*
X60062246Y-87861183D01*
X59898311Y-87793279D01*
X59750773Y-87694697D01*
X59625303Y-87569227D01*
X59526721Y-87421689D01*
X59458817Y-87257754D01*
X59424200Y-87083721D01*
X59424200Y-86906279D01*
X59458817Y-86732246D01*
X59526721Y-86568311D01*
X59625303Y-86420773D01*
X59750773Y-86295303D01*
X59898311Y-86196721D01*
X60062246Y-86128817D01*
X60236279Y-86094200D01*
X60413721Y-86094200D01*
X60587754Y-86128817D01*
G37*
G36*
X61225800Y-81545800D02*
G01*
X59424200Y-81545800D01*
X59424200Y-79744200D01*
X61225800Y-79744200D01*
X61225800Y-81545800D01*
G37*
G36*
X23728585Y-77969974D02*
G01*
X23874322Y-78030339D01*
X24005482Y-78117978D01*
X24117022Y-78229518D01*
X24204661Y-78360678D01*
X24265026Y-78506415D01*
X24295800Y-78661128D01*
X24295800Y-78818872D01*
X24265026Y-78973585D01*
X24204661Y-79119322D01*
X24117022Y-79250482D01*
X24005482Y-79362022D01*
X23874322Y-79449661D01*
X23728585Y-79510026D01*
X23573872Y-79540800D01*
X23416128Y-79540800D01*
X23261415Y-79510026D01*
X23115678Y-79449661D01*
X22984518Y-79362022D01*
X22872978Y-79250482D01*
X22785339Y-79119322D01*
X22724974Y-78973585D01*
X22694200Y-78818872D01*
X22694200Y-78661128D01*
X22724974Y-78506415D01*
X22785339Y-78360678D01*
X22872978Y-78229518D01*
X22984518Y-78117978D01*
X23115678Y-78030339D01*
X23261415Y-77969974D01*
X23416128Y-77939200D01*
X23573872Y-77939200D01*
X23728585Y-77969974D01*
G37*
G36*
X20553585Y-77969974D02*
G01*
X20699322Y-78030339D01*
X20830482Y-78117978D01*
X20942022Y-78229518D01*
X21029661Y-78360678D01*
X21090026Y-78506415D01*
X21120800Y-78661128D01*
X21120800Y-78818872D01*
X21090026Y-78973585D01*
X21029661Y-79119322D01*
X20942022Y-79250482D01*
X20830482Y-79362022D01*
X20699322Y-79449661D01*
X20553585Y-79510026D01*
X20398872Y-79540800D01*
X20241128Y-79540800D01*
X20086415Y-79510026D01*
X19940678Y-79449661D01*
X19809518Y-79362022D01*
X19697978Y-79250482D01*
X19610339Y-79119322D01*
X19549974Y-78973585D01*
X19519200Y-78818872D01*
X19519200Y-78661128D01*
X19549974Y-78506415D01*
X19610339Y-78360678D01*
X19697978Y-78229518D01*
X19809518Y-78117978D01*
X19940678Y-78030339D01*
X20086415Y-77969974D01*
X20241128Y-77939200D01*
X20398872Y-77939200D01*
X20553585Y-77969974D01*
G37*
G36*
X60587754Y-77238817D02*
G01*
X60751689Y-77306721D01*
X60899227Y-77405303D01*
X61024697Y-77530773D01*
X61123279Y-77678311D01*
X61191183Y-77842246D01*
X61225800Y-78016279D01*
X61225800Y-78193721D01*
X61191183Y-78367754D01*
X61123279Y-78531689D01*
X61024697Y-78679227D01*
X60899227Y-78804697D01*
X60751689Y-78903279D01*
X60587754Y-78971183D01*
X60413721Y-79005800D01*
X60236279Y-79005800D01*
X60062246Y-78971183D01*
X59898311Y-78903279D01*
X59750773Y-78804697D01*
X59625303Y-78679227D01*
X59526721Y-78531689D01*
X59458817Y-78367754D01*
X59424200Y-78193721D01*
X59424200Y-78016279D01*
X59458817Y-77842246D01*
X59526721Y-77678311D01*
X59625303Y-77530773D01*
X59750773Y-77405303D01*
X59898311Y-77306721D01*
X60062246Y-77238817D01*
X60236279Y-77204200D01*
X60413721Y-77204200D01*
X60587754Y-77238817D01*
G37*
G36*
X60587754Y-74698817D02*
G01*
X60751689Y-74766721D01*
X60899227Y-74865303D01*
X61024697Y-74990773D01*
X61123279Y-75138311D01*
X61191183Y-75302246D01*
X61225800Y-75476279D01*
X61225800Y-75653721D01*
X61191183Y-75827754D01*
X61123279Y-75991689D01*
X61024697Y-76139227D01*
X60899227Y-76264697D01*
X60751689Y-76363279D01*
X60587754Y-76431183D01*
X60413721Y-76465800D01*
X60236279Y-76465800D01*
X60062246Y-76431183D01*
X59898311Y-76363279D01*
X59750773Y-76264697D01*
X59625303Y-76139227D01*
X59526721Y-75991689D01*
X59458817Y-75827754D01*
X59424200Y-75653721D01*
X59424200Y-75476279D01*
X59458817Y-75302246D01*
X59526721Y-75138311D01*
X59625303Y-74990773D01*
X59750773Y-74865303D01*
X59898311Y-74766721D01*
X60062246Y-74698817D01*
X60236279Y-74664200D01*
X60413721Y-74664200D01*
X60587754Y-74698817D01*
G37*
G36*
X25646781Y-72031510D02*
G01*
X25646784Y-72031511D01*
X25646785Y-72031511D01*
X25713013Y-72051601D01*
X25807162Y-72080161D01*
X25954967Y-72159164D01*
X26084515Y-72265481D01*
X26084517Y-72265483D01*
X26190837Y-72395034D01*
X26220629Y-72450772D01*
X26269839Y-72542837D01*
X26318490Y-72703218D01*
X26330800Y-72828204D01*
X26330800Y-73811796D01*
X26318490Y-73936782D01*
X26269839Y-74097163D01*
X26230338Y-74171064D01*
X26190837Y-74244966D01*
X26084517Y-74374517D01*
X25954966Y-74480837D01*
X25881064Y-74520338D01*
X25807163Y-74559839D01*
X25713014Y-74588399D01*
X25646786Y-74608489D01*
X25646785Y-74608489D01*
X25646782Y-74608490D01*
X25480000Y-74624917D01*
X25313219Y-74608490D01*
X25313216Y-74608489D01*
X25313215Y-74608489D01*
X25246987Y-74588399D01*
X25152838Y-74559839D01*
X25078937Y-74520338D01*
X25005035Y-74480837D01*
X24875484Y-74374517D01*
X24769164Y-74244966D01*
X24729663Y-74171064D01*
X24690162Y-74097163D01*
X24641511Y-73936782D01*
X24629200Y-73811795D01*
X24629200Y-72828205D01*
X24641510Y-72703219D01*
X24641512Y-72703214D01*
X24661601Y-72636987D01*
X24690161Y-72542838D01*
X24769164Y-72395033D01*
X24875481Y-72265485D01*
X24875483Y-72265483D01*
X25005034Y-72159163D01*
X25078936Y-72119662D01*
X25152837Y-72080161D01*
X25246986Y-72051601D01*
X25313214Y-72031511D01*
X25313215Y-72031511D01*
X25313218Y-72031510D01*
X25480000Y-72015083D01*
X25646781Y-72031510D01*
G37*
G36*
X23106781Y-72031510D02*
G01*
X23106784Y-72031511D01*
X23106785Y-72031511D01*
X23173013Y-72051601D01*
X23267162Y-72080161D01*
X23414967Y-72159164D01*
X23544515Y-72265481D01*
X23544517Y-72265483D01*
X23650837Y-72395034D01*
X23680629Y-72450772D01*
X23729839Y-72542837D01*
X23778490Y-72703218D01*
X23790800Y-72828204D01*
X23790800Y-73811796D01*
X23778490Y-73936782D01*
X23729839Y-74097163D01*
X23690338Y-74171064D01*
X23650837Y-74244966D01*
X23544517Y-74374517D01*
X23414966Y-74480837D01*
X23341064Y-74520338D01*
X23267163Y-74559839D01*
X23173014Y-74588399D01*
X23106786Y-74608489D01*
X23106785Y-74608489D01*
X23106782Y-74608490D01*
X22940000Y-74624917D01*
X22773219Y-74608490D01*
X22773216Y-74608489D01*
X22773215Y-74608489D01*
X22706987Y-74588399D01*
X22612838Y-74559839D01*
X22538937Y-74520338D01*
X22465035Y-74480837D01*
X22335484Y-74374517D01*
X22229164Y-74244966D01*
X22189663Y-74171064D01*
X22150162Y-74097163D01*
X22101511Y-73936782D01*
X22089200Y-73811795D01*
X22089200Y-72828205D01*
X22101510Y-72703219D01*
X22101512Y-72703214D01*
X22121601Y-72636987D01*
X22150161Y-72542838D01*
X22229164Y-72395033D01*
X22335481Y-72265485D01*
X22335483Y-72265483D01*
X22465034Y-72159163D01*
X22538936Y-72119662D01*
X22612837Y-72080161D01*
X22706986Y-72051601D01*
X22773214Y-72031511D01*
X22773215Y-72031511D01*
X22773218Y-72031510D01*
X22940000Y-72015083D01*
X23106781Y-72031510D01*
G37*
G36*
X60587754Y-72158817D02*
G01*
X60751689Y-72226721D01*
X60899227Y-72325303D01*
X61024697Y-72450773D01*
X61123279Y-72598311D01*
X61191183Y-72762246D01*
X61225800Y-72936279D01*
X61225800Y-73113721D01*
X61191183Y-73287754D01*
X61123279Y-73451689D01*
X61024697Y-73599227D01*
X60899227Y-73724697D01*
X60751689Y-73823279D01*
X60587754Y-73891183D01*
X60413721Y-73925800D01*
X60236279Y-73925800D01*
X60062246Y-73891183D01*
X59898311Y-73823279D01*
X59750773Y-73724697D01*
X59625303Y-73599227D01*
X59526721Y-73451689D01*
X59458817Y-73287754D01*
X59424200Y-73113721D01*
X59424200Y-72936279D01*
X59458817Y-72762246D01*
X59526721Y-72598311D01*
X59625303Y-72450773D01*
X59750773Y-72325303D01*
X59898311Y-72226721D01*
X60062246Y-72158817D01*
X60236279Y-72124200D01*
X60413721Y-72124200D01*
X60587754Y-72158817D01*
G37*
G36*
X30913014Y-64715255D02*
G01*
X30913017Y-64715256D01*
X31252470Y-64818228D01*
X31524915Y-64963853D01*
X31565313Y-64985446D01*
X31839517Y-65210479D01*
X31839519Y-65210481D01*
X32064555Y-65484688D01*
X32231772Y-65797529D01*
X32231772Y-65797530D01*
X32334745Y-66136985D01*
X32360800Y-66401528D01*
X32360800Y-70078472D01*
X32334745Y-70343015D01*
X32334744Y-70343018D01*
X32231772Y-70682471D01*
X32064555Y-70995312D01*
X31839519Y-71269519D01*
X31565312Y-71494555D01*
X31252471Y-71661772D01*
X30951836Y-71752969D01*
X30913015Y-71764745D01*
X30560000Y-71799514D01*
X30206986Y-71764745D01*
X30168165Y-71752969D01*
X29867530Y-71661772D01*
X29554689Y-71494555D01*
X29280482Y-71269519D01*
X29055446Y-70995312D01*
X28888229Y-70682471D01*
X28785257Y-70343018D01*
X28785256Y-70343015D01*
X28759201Y-70078472D01*
X28759200Y-66401529D01*
X28785255Y-66136986D01*
X28797031Y-66098165D01*
X28888228Y-65797530D01*
X29055445Y-65484689D01*
X29055446Y-65484687D01*
X29280479Y-65210483D01*
X29280481Y-65210481D01*
X29554688Y-64985445D01*
X29867529Y-64818228D01*
X30206982Y-64715256D01*
X30206985Y-64715255D01*
X30560000Y-64680486D01*
X30913014Y-64715255D01*
G37*
G36*
X20753014Y-64715255D02*
G01*
X20753017Y-64715256D01*
X21092470Y-64818228D01*
X21364915Y-64963853D01*
X21405313Y-64985446D01*
X21679517Y-65210479D01*
X21679519Y-65210481D01*
X21904555Y-65484688D01*
X22071772Y-65797529D01*
X22071772Y-65797530D01*
X22174745Y-66136985D01*
X22200800Y-66401528D01*
X22200800Y-70078472D01*
X22174745Y-70343015D01*
X22174744Y-70343018D01*
X22071772Y-70682471D01*
X21904555Y-70995312D01*
X21679519Y-71269519D01*
X21405312Y-71494555D01*
X21092471Y-71661772D01*
X20791836Y-71752969D01*
X20753015Y-71764745D01*
X20400000Y-71799514D01*
X20046986Y-71764745D01*
X20008165Y-71752969D01*
X19707530Y-71661772D01*
X19394689Y-71494555D01*
X19120482Y-71269519D01*
X18895446Y-70995312D01*
X18728229Y-70682471D01*
X18625257Y-70343018D01*
X18625256Y-70343015D01*
X18599201Y-70078472D01*
X18599200Y-66401529D01*
X18625255Y-66136986D01*
X18637031Y-66098165D01*
X18728228Y-65797530D01*
X18895445Y-65484689D01*
X18895446Y-65484687D01*
X19120479Y-65210483D01*
X19120481Y-65210481D01*
X19394688Y-64985445D01*
X19707529Y-64818228D01*
X20046982Y-64715256D01*
X20046985Y-64715255D01*
X20400000Y-64680486D01*
X20753014Y-64715255D01*
G37*
G36*
X14984430Y-62249189D02*
G01*
X15221160Y-62347245D01*
X15434213Y-62489603D01*
X15615397Y-62670787D01*
X15757755Y-62883840D01*
X15855811Y-63120570D01*
X15905800Y-63371882D01*
X15905800Y-63628118D01*
X15855811Y-63879430D01*
X15757755Y-64116160D01*
X15615397Y-64329213D01*
X15434213Y-64510397D01*
X15221160Y-64652755D01*
X14984430Y-64750811D01*
X14733118Y-64800800D01*
X14476882Y-64800800D01*
X14225570Y-64750811D01*
X13988840Y-64652755D01*
X13775787Y-64510397D01*
X13594603Y-64329213D01*
X13452245Y-64116160D01*
X13354189Y-63879430D01*
X13304200Y-63628118D01*
X13304200Y-63371882D01*
X13354189Y-63120570D01*
X13452245Y-62883840D01*
X13594603Y-62670787D01*
X13775787Y-62489603D01*
X13988840Y-62347245D01*
X14225570Y-62249189D01*
X14476882Y-62199200D01*
X14733118Y-62199200D01*
X14984430Y-62249189D01*
G37*
G36*
X37209430Y-62249189D02*
G01*
X37446160Y-62347245D01*
X37659213Y-62489603D01*
X37840397Y-62670787D01*
X37982755Y-62883840D01*
X38080811Y-63120570D01*
X38130800Y-63371882D01*
X38130800Y-63628118D01*
X38080811Y-63879430D01*
X37982755Y-64116160D01*
X37840397Y-64329213D01*
X37659213Y-64510397D01*
X37446160Y-64652755D01*
X37209430Y-64750811D01*
X36958118Y-64800800D01*
X36701882Y-64800800D01*
X36450570Y-64750811D01*
X36213840Y-64652755D01*
X36000787Y-64510397D01*
X35819603Y-64329213D01*
X35677245Y-64116160D01*
X35579189Y-63879430D01*
X35529200Y-63628118D01*
X35529200Y-63371882D01*
X35579189Y-63120570D01*
X35677245Y-62883840D01*
X35819603Y-62670787D01*
X36000787Y-62489603D01*
X36213840Y-62347245D01*
X36450570Y-62249189D01*
X36701882Y-62199200D01*
X36958118Y-62199200D01*
X37209430Y-62249189D01*
G37*
M02*
