G04 #@! TF.GenerationSoftware,KiCad,Pcbnew,5.1.6*
G04 #@! TF.CreationDate,2020-08-01T17:21:50-05:00*
G04 #@! TF.ProjectId,pcb,7063622e-6b69-4636-9164-5f7063625858,rev?*
G04 #@! TF.SameCoordinates,Original*
G04 #@! TF.FileFunction,Soldermask,Top*
G04 #@! TF.FilePolarity,Negative*
%FSLAX46Y46*%
G04 Gerber Fmt 4.6, Leading zero omitted, Abs format (unit mm)*
G04 Created by KiCad (PCBNEW 5.1.6) date 2020-08-01 17:21:50*
%MOMM*%
%LPD*%
G01*
G04 APERTURE LIST*
%ADD10C,0.100000*%
G04 APERTURE END LIST*
D10*
G36*
X78367754Y-126133817D02*
G01*
X78531689Y-126201721D01*
X78679227Y-126300303D01*
X78804697Y-126425773D01*
X78903279Y-126573311D01*
X78971183Y-126737246D01*
X79005800Y-126911279D01*
X79005800Y-127088721D01*
X78971183Y-127262754D01*
X78903279Y-127426689D01*
X78804697Y-127574227D01*
X78679227Y-127699697D01*
X78531689Y-127798279D01*
X78367754Y-127866183D01*
X78193721Y-127900800D01*
X78016279Y-127900800D01*
X77842246Y-127866183D01*
X77678311Y-127798279D01*
X77530773Y-127699697D01*
X77405303Y-127574227D01*
X77306721Y-127426689D01*
X77238817Y-127262754D01*
X77204200Y-127088721D01*
X77204200Y-126911279D01*
X77238817Y-126737246D01*
X77306721Y-126573311D01*
X77405303Y-126425773D01*
X77530773Y-126300303D01*
X77678311Y-126201721D01*
X77842246Y-126133817D01*
X78016279Y-126099200D01*
X78193721Y-126099200D01*
X78367754Y-126133817D01*
G37*
G36*
X78367754Y-123593817D02*
G01*
X78531689Y-123661721D01*
X78679227Y-123760303D01*
X78804697Y-123885773D01*
X78903279Y-124033311D01*
X78971183Y-124197246D01*
X79005800Y-124371279D01*
X79005800Y-124548721D01*
X78971183Y-124722754D01*
X78903279Y-124886689D01*
X78804697Y-125034227D01*
X78679227Y-125159697D01*
X78531689Y-125258279D01*
X78367754Y-125326183D01*
X78193721Y-125360800D01*
X78016279Y-125360800D01*
X77842246Y-125326183D01*
X77678311Y-125258279D01*
X77530773Y-125159697D01*
X77405303Y-125034227D01*
X77306721Y-124886689D01*
X77238817Y-124722754D01*
X77204200Y-124548721D01*
X77204200Y-124371279D01*
X77238817Y-124197246D01*
X77306721Y-124033311D01*
X77405303Y-123885773D01*
X77530773Y-123760303D01*
X77678311Y-123661721D01*
X77842246Y-123593817D01*
X78016279Y-123559200D01*
X78193721Y-123559200D01*
X78367754Y-123593817D01*
G37*
G36*
X78367754Y-121053817D02*
G01*
X78531689Y-121121721D01*
X78679227Y-121220303D01*
X78804697Y-121345773D01*
X78903279Y-121493311D01*
X78971183Y-121657246D01*
X79005800Y-121831279D01*
X79005800Y-122008721D01*
X78971183Y-122182754D01*
X78903279Y-122346689D01*
X78804697Y-122494227D01*
X78679227Y-122619697D01*
X78531689Y-122718279D01*
X78367754Y-122786183D01*
X78193721Y-122820800D01*
X78016279Y-122820800D01*
X77842246Y-122786183D01*
X77678311Y-122718279D01*
X77530773Y-122619697D01*
X77405303Y-122494227D01*
X77306721Y-122346689D01*
X77238817Y-122182754D01*
X77204200Y-122008721D01*
X77204200Y-121831279D01*
X77238817Y-121657246D01*
X77306721Y-121493311D01*
X77405303Y-121345773D01*
X77530773Y-121220303D01*
X77678311Y-121121721D01*
X77842246Y-121053817D01*
X78016279Y-121019200D01*
X78193721Y-121019200D01*
X78367754Y-121053817D01*
G37*
G36*
X78367754Y-118513817D02*
G01*
X78531689Y-118581721D01*
X78679227Y-118680303D01*
X78804697Y-118805773D01*
X78903279Y-118953311D01*
X78971183Y-119117246D01*
X79005800Y-119291279D01*
X79005800Y-119468721D01*
X78971183Y-119642754D01*
X78903279Y-119806689D01*
X78804697Y-119954227D01*
X78679227Y-120079697D01*
X78531689Y-120178279D01*
X78367754Y-120246183D01*
X78193721Y-120280800D01*
X78016279Y-120280800D01*
X77842246Y-120246183D01*
X77678311Y-120178279D01*
X77530773Y-120079697D01*
X77405303Y-119954227D01*
X77306721Y-119806689D01*
X77238817Y-119642754D01*
X77204200Y-119468721D01*
X77204200Y-119291279D01*
X77238817Y-119117246D01*
X77306721Y-118953311D01*
X77405303Y-118805773D01*
X77530773Y-118680303D01*
X77678311Y-118581721D01*
X77842246Y-118513817D01*
X78016279Y-118479200D01*
X78193721Y-118479200D01*
X78367754Y-118513817D01*
G37*
G36*
X78367754Y-115973817D02*
G01*
X78531689Y-116041721D01*
X78679227Y-116140303D01*
X78804697Y-116265773D01*
X78903279Y-116413311D01*
X78971183Y-116577246D01*
X79005800Y-116751279D01*
X79005800Y-116928721D01*
X78971183Y-117102754D01*
X78903279Y-117266689D01*
X78804697Y-117414227D01*
X78679227Y-117539697D01*
X78531689Y-117638279D01*
X78367754Y-117706183D01*
X78193721Y-117740800D01*
X78016279Y-117740800D01*
X77842246Y-117706183D01*
X77678311Y-117638279D01*
X77530773Y-117539697D01*
X77405303Y-117414227D01*
X77306721Y-117266689D01*
X77238817Y-117102754D01*
X77204200Y-116928721D01*
X77204200Y-116751279D01*
X77238817Y-116577246D01*
X77306721Y-116413311D01*
X77405303Y-116265773D01*
X77530773Y-116140303D01*
X77678311Y-116041721D01*
X77842246Y-115973817D01*
X78016279Y-115939200D01*
X78193721Y-115939200D01*
X78367754Y-115973817D01*
G37*
G36*
X78367754Y-113433817D02*
G01*
X78531689Y-113501721D01*
X78679227Y-113600303D01*
X78804697Y-113725773D01*
X78903279Y-113873311D01*
X78971183Y-114037246D01*
X79005800Y-114211279D01*
X79005800Y-114388721D01*
X78971183Y-114562754D01*
X78903279Y-114726689D01*
X78804697Y-114874227D01*
X78679227Y-114999697D01*
X78531689Y-115098279D01*
X78367754Y-115166183D01*
X78193721Y-115200800D01*
X78016279Y-115200800D01*
X77842246Y-115166183D01*
X77678311Y-115098279D01*
X77530773Y-114999697D01*
X77405303Y-114874227D01*
X77306721Y-114726689D01*
X77238817Y-114562754D01*
X77204200Y-114388721D01*
X77204200Y-114211279D01*
X77238817Y-114037246D01*
X77306721Y-113873311D01*
X77405303Y-113725773D01*
X77530773Y-113600303D01*
X77678311Y-113501721D01*
X77842246Y-113433817D01*
X78016279Y-113399200D01*
X78193721Y-113399200D01*
X78367754Y-113433817D01*
G37*
G36*
X78367754Y-110893817D02*
G01*
X78531689Y-110961721D01*
X78679227Y-111060303D01*
X78804697Y-111185773D01*
X78903279Y-111333311D01*
X78971183Y-111497246D01*
X79005800Y-111671279D01*
X79005800Y-111848721D01*
X78971183Y-112022754D01*
X78903279Y-112186689D01*
X78804697Y-112334227D01*
X78679227Y-112459697D01*
X78531689Y-112558279D01*
X78367754Y-112626183D01*
X78193721Y-112660800D01*
X78016279Y-112660800D01*
X77842246Y-112626183D01*
X77678311Y-112558279D01*
X77530773Y-112459697D01*
X77405303Y-112334227D01*
X77306721Y-112186689D01*
X77238817Y-112022754D01*
X77204200Y-111848721D01*
X77204200Y-111671279D01*
X77238817Y-111497246D01*
X77306721Y-111333311D01*
X77405303Y-111185773D01*
X77530773Y-111060303D01*
X77678311Y-110961721D01*
X77842246Y-110893817D01*
X78016279Y-110859200D01*
X78193721Y-110859200D01*
X78367754Y-110893817D01*
G37*
G36*
X78367754Y-108353817D02*
G01*
X78531689Y-108421721D01*
X78679227Y-108520303D01*
X78804697Y-108645773D01*
X78903279Y-108793311D01*
X78971183Y-108957246D01*
X79005800Y-109131279D01*
X79005800Y-109308721D01*
X78971183Y-109482754D01*
X78903279Y-109646689D01*
X78804697Y-109794227D01*
X78679227Y-109919697D01*
X78531689Y-110018279D01*
X78367754Y-110086183D01*
X78193721Y-110120800D01*
X78016279Y-110120800D01*
X77842246Y-110086183D01*
X77678311Y-110018279D01*
X77530773Y-109919697D01*
X77405303Y-109794227D01*
X77306721Y-109646689D01*
X77238817Y-109482754D01*
X77204200Y-109308721D01*
X77204200Y-109131279D01*
X77238817Y-108957246D01*
X77306721Y-108793311D01*
X77405303Y-108645773D01*
X77530773Y-108520303D01*
X77678311Y-108421721D01*
X77842246Y-108353817D01*
X78016279Y-108319200D01*
X78193721Y-108319200D01*
X78367754Y-108353817D01*
G37*
G36*
X78367754Y-105813817D02*
G01*
X78531689Y-105881721D01*
X78679227Y-105980303D01*
X78804697Y-106105773D01*
X78903279Y-106253311D01*
X78971183Y-106417246D01*
X79005800Y-106591279D01*
X79005800Y-106768721D01*
X78971183Y-106942754D01*
X78903279Y-107106689D01*
X78804697Y-107254227D01*
X78679227Y-107379697D01*
X78531689Y-107478279D01*
X78367754Y-107546183D01*
X78193721Y-107580800D01*
X78016279Y-107580800D01*
X77842246Y-107546183D01*
X77678311Y-107478279D01*
X77530773Y-107379697D01*
X77405303Y-107254227D01*
X77306721Y-107106689D01*
X77238817Y-106942754D01*
X77204200Y-106768721D01*
X77204200Y-106591279D01*
X77238817Y-106417246D01*
X77306721Y-106253311D01*
X77405303Y-106105773D01*
X77530773Y-105980303D01*
X77678311Y-105881721D01*
X77842246Y-105813817D01*
X78016279Y-105779200D01*
X78193721Y-105779200D01*
X78367754Y-105813817D01*
G37*
G36*
X14984430Y-102889189D02*
G01*
X15221160Y-102987245D01*
X15434213Y-103129603D01*
X15615397Y-103310787D01*
X15757755Y-103523840D01*
X15855811Y-103760570D01*
X15905800Y-104011882D01*
X15905800Y-104268118D01*
X15855811Y-104519430D01*
X15757755Y-104756160D01*
X15615397Y-104969213D01*
X15434213Y-105150397D01*
X15221160Y-105292755D01*
X14984430Y-105390811D01*
X14733118Y-105440800D01*
X14476882Y-105440800D01*
X14225570Y-105390811D01*
X13988840Y-105292755D01*
X13775787Y-105150397D01*
X13594603Y-104969213D01*
X13452245Y-104756160D01*
X13354189Y-104519430D01*
X13304200Y-104268118D01*
X13304200Y-104011882D01*
X13354189Y-103760570D01*
X13452245Y-103523840D01*
X13594603Y-103310787D01*
X13775787Y-103129603D01*
X13988840Y-102987245D01*
X14225570Y-102889189D01*
X14476882Y-102839200D01*
X14733118Y-102839200D01*
X14984430Y-102889189D01*
G37*
G36*
X33990015Y-104427323D02*
G01*
X34018106Y-104435844D01*
X34043998Y-104449684D01*
X34066692Y-104468308D01*
X34085316Y-104491002D01*
X34099156Y-104516894D01*
X34107677Y-104544985D01*
X34110800Y-104576691D01*
X34110800Y-104973309D01*
X34107677Y-105005015D01*
X34099156Y-105033106D01*
X34085316Y-105058998D01*
X34066692Y-105081692D01*
X34043998Y-105100316D01*
X34018106Y-105114156D01*
X33990015Y-105122677D01*
X33958309Y-105125800D01*
X32211691Y-105125800D01*
X32179985Y-105122677D01*
X32151894Y-105114156D01*
X32126002Y-105100316D01*
X32103308Y-105081692D01*
X32084684Y-105058998D01*
X32070844Y-105033106D01*
X32062323Y-105005015D01*
X32059200Y-104973309D01*
X32059200Y-104576691D01*
X32062323Y-104544985D01*
X32070844Y-104516894D01*
X32084684Y-104491002D01*
X32103308Y-104468308D01*
X32126002Y-104449684D01*
X32151894Y-104435844D01*
X32179985Y-104427323D01*
X32211691Y-104424200D01*
X33958309Y-104424200D01*
X33990015Y-104427323D01*
G37*
G36*
X38940015Y-104427323D02*
G01*
X38968106Y-104435844D01*
X38993998Y-104449684D01*
X39016692Y-104468308D01*
X39035316Y-104491002D01*
X39049156Y-104516894D01*
X39057677Y-104544985D01*
X39060800Y-104576691D01*
X39060800Y-104973309D01*
X39057677Y-105005015D01*
X39049156Y-105033106D01*
X39035316Y-105058998D01*
X39016692Y-105081692D01*
X38993998Y-105100316D01*
X38968106Y-105114156D01*
X38940015Y-105122677D01*
X38908309Y-105125800D01*
X37161691Y-105125800D01*
X37129985Y-105122677D01*
X37101894Y-105114156D01*
X37076002Y-105100316D01*
X37053308Y-105081692D01*
X37034684Y-105058998D01*
X37020844Y-105033106D01*
X37012323Y-105005015D01*
X37009200Y-104973309D01*
X37009200Y-104576691D01*
X37012323Y-104544985D01*
X37020844Y-104516894D01*
X37034684Y-104491002D01*
X37053308Y-104468308D01*
X37076002Y-104449684D01*
X37101894Y-104435844D01*
X37129985Y-104427323D01*
X37161691Y-104424200D01*
X38908309Y-104424200D01*
X38940015Y-104427323D01*
G37*
G36*
X78367754Y-103273817D02*
G01*
X78531689Y-103341721D01*
X78679227Y-103440303D01*
X78804697Y-103565773D01*
X78903279Y-103713311D01*
X78971183Y-103877246D01*
X79005800Y-104051279D01*
X79005800Y-104228721D01*
X78971183Y-104402754D01*
X78903279Y-104566689D01*
X78804697Y-104714227D01*
X78679227Y-104839697D01*
X78531689Y-104938279D01*
X78367754Y-105006183D01*
X78193721Y-105040800D01*
X78016279Y-105040800D01*
X77842246Y-105006183D01*
X77678311Y-104938279D01*
X77530773Y-104839697D01*
X77405303Y-104714227D01*
X77306721Y-104566689D01*
X77238817Y-104402754D01*
X77204200Y-104228721D01*
X77204200Y-104051279D01*
X77238817Y-103877246D01*
X77306721Y-103713311D01*
X77405303Y-103565773D01*
X77530773Y-103440303D01*
X77678311Y-103341721D01*
X77842246Y-103273817D01*
X78016279Y-103239200D01*
X78193721Y-103239200D01*
X78367754Y-103273817D01*
G37*
G36*
X27282699Y-102584049D02*
G01*
X27327648Y-102597684D01*
X27369072Y-102619826D01*
X27405379Y-102649621D01*
X27435174Y-102685928D01*
X27457316Y-102727352D01*
X27470951Y-102772301D01*
X27475800Y-102821533D01*
X27475800Y-104188467D01*
X27470951Y-104237699D01*
X27457316Y-104282648D01*
X27435174Y-104324072D01*
X27405379Y-104360379D01*
X27369072Y-104390174D01*
X27327648Y-104412316D01*
X27282699Y-104425951D01*
X27233467Y-104430800D01*
X26366533Y-104430800D01*
X26317301Y-104425951D01*
X26272352Y-104412316D01*
X26230928Y-104390174D01*
X26194621Y-104360379D01*
X26164826Y-104324072D01*
X26142684Y-104282648D01*
X26129049Y-104237699D01*
X26124200Y-104188467D01*
X26124200Y-102821533D01*
X26129049Y-102772301D01*
X26142684Y-102727352D01*
X26164826Y-102685928D01*
X26194621Y-102649621D01*
X26230928Y-102619826D01*
X26272352Y-102597684D01*
X26317301Y-102584049D01*
X26366533Y-102579200D01*
X27233467Y-102579200D01*
X27282699Y-102584049D01*
G37*
G36*
X24482699Y-102584049D02*
G01*
X24527648Y-102597684D01*
X24569072Y-102619826D01*
X24605379Y-102649621D01*
X24635174Y-102685928D01*
X24657316Y-102727352D01*
X24670951Y-102772301D01*
X24675800Y-102821533D01*
X24675800Y-104188467D01*
X24670951Y-104237699D01*
X24657316Y-104282648D01*
X24635174Y-104324072D01*
X24605379Y-104360379D01*
X24569072Y-104390174D01*
X24527648Y-104412316D01*
X24482699Y-104425951D01*
X24433467Y-104430800D01*
X23566533Y-104430800D01*
X23517301Y-104425951D01*
X23472352Y-104412316D01*
X23430928Y-104390174D01*
X23394621Y-104360379D01*
X23364826Y-104324072D01*
X23342684Y-104282648D01*
X23329049Y-104237699D01*
X23324200Y-104188467D01*
X23324200Y-102821533D01*
X23329049Y-102772301D01*
X23342684Y-102727352D01*
X23364826Y-102685928D01*
X23394621Y-102649621D01*
X23430928Y-102619826D01*
X23472352Y-102597684D01*
X23517301Y-102584049D01*
X23566533Y-102579200D01*
X24433467Y-102579200D01*
X24482699Y-102584049D01*
G37*
G36*
X33990015Y-103157323D02*
G01*
X34018106Y-103165844D01*
X34043998Y-103179684D01*
X34066692Y-103198308D01*
X34085316Y-103221002D01*
X34099156Y-103246894D01*
X34107677Y-103274985D01*
X34110800Y-103306691D01*
X34110800Y-103703309D01*
X34107677Y-103735015D01*
X34099156Y-103763106D01*
X34085316Y-103788998D01*
X34066692Y-103811692D01*
X34043998Y-103830316D01*
X34018106Y-103844156D01*
X33990015Y-103852677D01*
X33958309Y-103855800D01*
X32211691Y-103855800D01*
X32179985Y-103852677D01*
X32151894Y-103844156D01*
X32126002Y-103830316D01*
X32103308Y-103811692D01*
X32084684Y-103788998D01*
X32070844Y-103763106D01*
X32062323Y-103735015D01*
X32059200Y-103703309D01*
X32059200Y-103306691D01*
X32062323Y-103274985D01*
X32070844Y-103246894D01*
X32084684Y-103221002D01*
X32103308Y-103198308D01*
X32126002Y-103179684D01*
X32151894Y-103165844D01*
X32179985Y-103157323D01*
X32211691Y-103154200D01*
X33958309Y-103154200D01*
X33990015Y-103157323D01*
G37*
G36*
X38940015Y-103157323D02*
G01*
X38968106Y-103165844D01*
X38993998Y-103179684D01*
X39016692Y-103198308D01*
X39035316Y-103221002D01*
X39049156Y-103246894D01*
X39057677Y-103274985D01*
X39060800Y-103306691D01*
X39060800Y-103703309D01*
X39057677Y-103735015D01*
X39049156Y-103763106D01*
X39035316Y-103788998D01*
X39016692Y-103811692D01*
X38993998Y-103830316D01*
X38968106Y-103844156D01*
X38940015Y-103852677D01*
X38908309Y-103855800D01*
X37161691Y-103855800D01*
X37129985Y-103852677D01*
X37101894Y-103844156D01*
X37076002Y-103830316D01*
X37053308Y-103811692D01*
X37034684Y-103788998D01*
X37020844Y-103763106D01*
X37012323Y-103735015D01*
X37009200Y-103703309D01*
X37009200Y-103306691D01*
X37012323Y-103274985D01*
X37020844Y-103246894D01*
X37034684Y-103221002D01*
X37053308Y-103198308D01*
X37076002Y-103179684D01*
X37101894Y-103165844D01*
X37129985Y-103157323D01*
X37161691Y-103154200D01*
X38908309Y-103154200D01*
X38940015Y-103157323D01*
G37*
G36*
X33990015Y-101887323D02*
G01*
X34018106Y-101895844D01*
X34043998Y-101909684D01*
X34066692Y-101928308D01*
X34085316Y-101951002D01*
X34099156Y-101976894D01*
X34107677Y-102004985D01*
X34110800Y-102036691D01*
X34110800Y-102433309D01*
X34107677Y-102465015D01*
X34099156Y-102493106D01*
X34085316Y-102518998D01*
X34066692Y-102541692D01*
X34043998Y-102560316D01*
X34018106Y-102574156D01*
X33990015Y-102582677D01*
X33958309Y-102585800D01*
X32211691Y-102585800D01*
X32179985Y-102582677D01*
X32151894Y-102574156D01*
X32126002Y-102560316D01*
X32103308Y-102541692D01*
X32084684Y-102518998D01*
X32070844Y-102493106D01*
X32062323Y-102465015D01*
X32059200Y-102433309D01*
X32059200Y-102036691D01*
X32062323Y-102004985D01*
X32070844Y-101976894D01*
X32084684Y-101951002D01*
X32103308Y-101928308D01*
X32126002Y-101909684D01*
X32151894Y-101895844D01*
X32179985Y-101887323D01*
X32211691Y-101884200D01*
X33958309Y-101884200D01*
X33990015Y-101887323D01*
G37*
G36*
X38940015Y-101887323D02*
G01*
X38968106Y-101895844D01*
X38993998Y-101909684D01*
X39016692Y-101928308D01*
X39035316Y-101951002D01*
X39049156Y-101976894D01*
X39057677Y-102004985D01*
X39060800Y-102036691D01*
X39060800Y-102433309D01*
X39057677Y-102465015D01*
X39049156Y-102493106D01*
X39035316Y-102518998D01*
X39016692Y-102541692D01*
X38993998Y-102560316D01*
X38968106Y-102574156D01*
X38940015Y-102582677D01*
X38908309Y-102585800D01*
X37161691Y-102585800D01*
X37129985Y-102582677D01*
X37101894Y-102574156D01*
X37076002Y-102560316D01*
X37053308Y-102541692D01*
X37034684Y-102518998D01*
X37020844Y-102493106D01*
X37012323Y-102465015D01*
X37009200Y-102433309D01*
X37009200Y-102036691D01*
X37012323Y-102004985D01*
X37020844Y-101976894D01*
X37034684Y-101951002D01*
X37053308Y-101928308D01*
X37076002Y-101909684D01*
X37101894Y-101895844D01*
X37129985Y-101887323D01*
X37161691Y-101884200D01*
X38908309Y-101884200D01*
X38940015Y-101887323D01*
G37*
G36*
X78367754Y-100733817D02*
G01*
X78531689Y-100801721D01*
X78679227Y-100900303D01*
X78804697Y-101025773D01*
X78903279Y-101173311D01*
X78971183Y-101337246D01*
X79005800Y-101511279D01*
X79005800Y-101688721D01*
X78971183Y-101862754D01*
X78903279Y-102026689D01*
X78804697Y-102174227D01*
X78679227Y-102299697D01*
X78531689Y-102398279D01*
X78367754Y-102466183D01*
X78193721Y-102500800D01*
X78016279Y-102500800D01*
X77842246Y-102466183D01*
X77678311Y-102398279D01*
X77530773Y-102299697D01*
X77405303Y-102174227D01*
X77306721Y-102026689D01*
X77238817Y-101862754D01*
X77204200Y-101688721D01*
X77204200Y-101511279D01*
X77238817Y-101337246D01*
X77306721Y-101173311D01*
X77405303Y-101025773D01*
X77530773Y-100900303D01*
X77678311Y-100801721D01*
X77842246Y-100733817D01*
X78016279Y-100699200D01*
X78193721Y-100699200D01*
X78367754Y-100733817D01*
G37*
G36*
X24482699Y-100044049D02*
G01*
X24527648Y-100057684D01*
X24569072Y-100079826D01*
X24605379Y-100109621D01*
X24635174Y-100145928D01*
X24657316Y-100187352D01*
X24670951Y-100232301D01*
X24675800Y-100281533D01*
X24675800Y-101648467D01*
X24670951Y-101697699D01*
X24657316Y-101742648D01*
X24635174Y-101784072D01*
X24605379Y-101820379D01*
X24569072Y-101850174D01*
X24527648Y-101872316D01*
X24482699Y-101885951D01*
X24433467Y-101890800D01*
X23566533Y-101890800D01*
X23517301Y-101885951D01*
X23472352Y-101872316D01*
X23430928Y-101850174D01*
X23394621Y-101820379D01*
X23364826Y-101784072D01*
X23342684Y-101742648D01*
X23329049Y-101697699D01*
X23324200Y-101648467D01*
X23324200Y-100281533D01*
X23329049Y-100232301D01*
X23342684Y-100187352D01*
X23364826Y-100145928D01*
X23394621Y-100109621D01*
X23430928Y-100079826D01*
X23472352Y-100057684D01*
X23517301Y-100044049D01*
X23566533Y-100039200D01*
X24433467Y-100039200D01*
X24482699Y-100044049D01*
G37*
G36*
X27282699Y-100044049D02*
G01*
X27327648Y-100057684D01*
X27369072Y-100079826D01*
X27405379Y-100109621D01*
X27435174Y-100145928D01*
X27457316Y-100187352D01*
X27470951Y-100232301D01*
X27475800Y-100281533D01*
X27475800Y-101648467D01*
X27470951Y-101697699D01*
X27457316Y-101742648D01*
X27435174Y-101784072D01*
X27405379Y-101820379D01*
X27369072Y-101850174D01*
X27327648Y-101872316D01*
X27282699Y-101885951D01*
X27233467Y-101890800D01*
X26366533Y-101890800D01*
X26317301Y-101885951D01*
X26272352Y-101872316D01*
X26230928Y-101850174D01*
X26194621Y-101820379D01*
X26164826Y-101784072D01*
X26142684Y-101742648D01*
X26129049Y-101697699D01*
X26124200Y-101648467D01*
X26124200Y-100281533D01*
X26129049Y-100232301D01*
X26142684Y-100187352D01*
X26164826Y-100145928D01*
X26194621Y-100109621D01*
X26230928Y-100079826D01*
X26272352Y-100057684D01*
X26317301Y-100044049D01*
X26366533Y-100039200D01*
X27233467Y-100039200D01*
X27282699Y-100044049D01*
G37*
G36*
X33990015Y-100617323D02*
G01*
X34018106Y-100625844D01*
X34043998Y-100639684D01*
X34066692Y-100658308D01*
X34085316Y-100681002D01*
X34099156Y-100706894D01*
X34107677Y-100734985D01*
X34110800Y-100766691D01*
X34110800Y-101163309D01*
X34107677Y-101195015D01*
X34099156Y-101223106D01*
X34085316Y-101248998D01*
X34066692Y-101271692D01*
X34043998Y-101290316D01*
X34018106Y-101304156D01*
X33990015Y-101312677D01*
X33958309Y-101315800D01*
X32211691Y-101315800D01*
X32179985Y-101312677D01*
X32151894Y-101304156D01*
X32126002Y-101290316D01*
X32103308Y-101271692D01*
X32084684Y-101248998D01*
X32070844Y-101223106D01*
X32062323Y-101195015D01*
X32059200Y-101163309D01*
X32059200Y-100766691D01*
X32062323Y-100734985D01*
X32070844Y-100706894D01*
X32084684Y-100681002D01*
X32103308Y-100658308D01*
X32126002Y-100639684D01*
X32151894Y-100625844D01*
X32179985Y-100617323D01*
X32211691Y-100614200D01*
X33958309Y-100614200D01*
X33990015Y-100617323D01*
G37*
G36*
X38940015Y-100617323D02*
G01*
X38968106Y-100625844D01*
X38993998Y-100639684D01*
X39016692Y-100658308D01*
X39035316Y-100681002D01*
X39049156Y-100706894D01*
X39057677Y-100734985D01*
X39060800Y-100766691D01*
X39060800Y-101163309D01*
X39057677Y-101195015D01*
X39049156Y-101223106D01*
X39035316Y-101248998D01*
X39016692Y-101271692D01*
X38993998Y-101290316D01*
X38968106Y-101304156D01*
X38940015Y-101312677D01*
X38908309Y-101315800D01*
X37161691Y-101315800D01*
X37129985Y-101312677D01*
X37101894Y-101304156D01*
X37076002Y-101290316D01*
X37053308Y-101271692D01*
X37034684Y-101248998D01*
X37020844Y-101223106D01*
X37012323Y-101195015D01*
X37009200Y-101163309D01*
X37009200Y-100766691D01*
X37012323Y-100734985D01*
X37020844Y-100706894D01*
X37034684Y-100681002D01*
X37053308Y-100658308D01*
X37076002Y-100639684D01*
X37101894Y-100625844D01*
X37129985Y-100617323D01*
X37161691Y-100614200D01*
X38908309Y-100614200D01*
X38940015Y-100617323D01*
G37*
G36*
X38940015Y-99347323D02*
G01*
X38968106Y-99355844D01*
X38993998Y-99369684D01*
X39016692Y-99388308D01*
X39035316Y-99411002D01*
X39049156Y-99436894D01*
X39057677Y-99464985D01*
X39060800Y-99496691D01*
X39060800Y-99893309D01*
X39057677Y-99925015D01*
X39049156Y-99953106D01*
X39035316Y-99978998D01*
X39016692Y-100001692D01*
X38993998Y-100020316D01*
X38968106Y-100034156D01*
X38940015Y-100042677D01*
X38908309Y-100045800D01*
X37161691Y-100045800D01*
X37129985Y-100042677D01*
X37101894Y-100034156D01*
X37076002Y-100020316D01*
X37053308Y-100001692D01*
X37034684Y-99978998D01*
X37020844Y-99953106D01*
X37012323Y-99925015D01*
X37009200Y-99893309D01*
X37009200Y-99496691D01*
X37012323Y-99464985D01*
X37020844Y-99436894D01*
X37034684Y-99411002D01*
X37053308Y-99388308D01*
X37076002Y-99369684D01*
X37101894Y-99355844D01*
X37129985Y-99347323D01*
X37161691Y-99344200D01*
X38908309Y-99344200D01*
X38940015Y-99347323D01*
G37*
G36*
X33990015Y-99347323D02*
G01*
X34018106Y-99355844D01*
X34043998Y-99369684D01*
X34066692Y-99388308D01*
X34085316Y-99411002D01*
X34099156Y-99436894D01*
X34107677Y-99464985D01*
X34110800Y-99496691D01*
X34110800Y-99893309D01*
X34107677Y-99925015D01*
X34099156Y-99953106D01*
X34085316Y-99978998D01*
X34066692Y-100001692D01*
X34043998Y-100020316D01*
X34018106Y-100034156D01*
X33990015Y-100042677D01*
X33958309Y-100045800D01*
X32211691Y-100045800D01*
X32179985Y-100042677D01*
X32151894Y-100034156D01*
X32126002Y-100020316D01*
X32103308Y-100001692D01*
X32084684Y-99978998D01*
X32070844Y-99953106D01*
X32062323Y-99925015D01*
X32059200Y-99893309D01*
X32059200Y-99496691D01*
X32062323Y-99464985D01*
X32070844Y-99436894D01*
X32084684Y-99411002D01*
X32103308Y-99388308D01*
X32126002Y-99369684D01*
X32151894Y-99355844D01*
X32179985Y-99347323D01*
X32211691Y-99344200D01*
X33958309Y-99344200D01*
X33990015Y-99347323D01*
G37*
G36*
X78367754Y-98193817D02*
G01*
X78531689Y-98261721D01*
X78679227Y-98360303D01*
X78804697Y-98485773D01*
X78903279Y-98633311D01*
X78971183Y-98797246D01*
X79005800Y-98971279D01*
X79005800Y-99148721D01*
X78971183Y-99322754D01*
X78903279Y-99486689D01*
X78804697Y-99634227D01*
X78679227Y-99759697D01*
X78531689Y-99858279D01*
X78367754Y-99926183D01*
X78193721Y-99960800D01*
X78016279Y-99960800D01*
X77842246Y-99926183D01*
X77678311Y-99858279D01*
X77530773Y-99759697D01*
X77405303Y-99634227D01*
X77306721Y-99486689D01*
X77238817Y-99322754D01*
X77204200Y-99148721D01*
X77204200Y-98971279D01*
X77238817Y-98797246D01*
X77306721Y-98633311D01*
X77405303Y-98485773D01*
X77530773Y-98360303D01*
X77678311Y-98261721D01*
X77842246Y-98193817D01*
X78016279Y-98159200D01*
X78193721Y-98159200D01*
X78367754Y-98193817D01*
G37*
G36*
X24482699Y-97504049D02*
G01*
X24527648Y-97517684D01*
X24569072Y-97539826D01*
X24605379Y-97569621D01*
X24635174Y-97605928D01*
X24657316Y-97647352D01*
X24670951Y-97692301D01*
X24675800Y-97741533D01*
X24675800Y-99108467D01*
X24670951Y-99157699D01*
X24657316Y-99202648D01*
X24635174Y-99244072D01*
X24605379Y-99280379D01*
X24569072Y-99310174D01*
X24527648Y-99332316D01*
X24482699Y-99345951D01*
X24433467Y-99350800D01*
X23566533Y-99350800D01*
X23517301Y-99345951D01*
X23472352Y-99332316D01*
X23430928Y-99310174D01*
X23394621Y-99280379D01*
X23364826Y-99244072D01*
X23342684Y-99202648D01*
X23329049Y-99157699D01*
X23324200Y-99108467D01*
X23324200Y-97741533D01*
X23329049Y-97692301D01*
X23342684Y-97647352D01*
X23364826Y-97605928D01*
X23394621Y-97569621D01*
X23430928Y-97539826D01*
X23472352Y-97517684D01*
X23517301Y-97504049D01*
X23566533Y-97499200D01*
X24433467Y-97499200D01*
X24482699Y-97504049D01*
G37*
G36*
X27282699Y-97504049D02*
G01*
X27327648Y-97517684D01*
X27369072Y-97539826D01*
X27405379Y-97569621D01*
X27435174Y-97605928D01*
X27457316Y-97647352D01*
X27470951Y-97692301D01*
X27475800Y-97741533D01*
X27475800Y-99108467D01*
X27470951Y-99157699D01*
X27457316Y-99202648D01*
X27435174Y-99244072D01*
X27405379Y-99280379D01*
X27369072Y-99310174D01*
X27327648Y-99332316D01*
X27282699Y-99345951D01*
X27233467Y-99350800D01*
X26366533Y-99350800D01*
X26317301Y-99345951D01*
X26272352Y-99332316D01*
X26230928Y-99310174D01*
X26194621Y-99280379D01*
X26164826Y-99244072D01*
X26142684Y-99202648D01*
X26129049Y-99157699D01*
X26124200Y-99108467D01*
X26124200Y-97741533D01*
X26129049Y-97692301D01*
X26142684Y-97647352D01*
X26164826Y-97605928D01*
X26194621Y-97569621D01*
X26230928Y-97539826D01*
X26272352Y-97517684D01*
X26317301Y-97504049D01*
X26366533Y-97499200D01*
X27233467Y-97499200D01*
X27282699Y-97504049D01*
G37*
G36*
X33990015Y-98077323D02*
G01*
X34018106Y-98085844D01*
X34043998Y-98099684D01*
X34066692Y-98118308D01*
X34085316Y-98141002D01*
X34099156Y-98166894D01*
X34107677Y-98194985D01*
X34110800Y-98226691D01*
X34110800Y-98623309D01*
X34107677Y-98655015D01*
X34099156Y-98683106D01*
X34085316Y-98708998D01*
X34066692Y-98731692D01*
X34043998Y-98750316D01*
X34018106Y-98764156D01*
X33990015Y-98772677D01*
X33958309Y-98775800D01*
X32211691Y-98775800D01*
X32179985Y-98772677D01*
X32151894Y-98764156D01*
X32126002Y-98750316D01*
X32103308Y-98731692D01*
X32084684Y-98708998D01*
X32070844Y-98683106D01*
X32062323Y-98655015D01*
X32059200Y-98623309D01*
X32059200Y-98226691D01*
X32062323Y-98194985D01*
X32070844Y-98166894D01*
X32084684Y-98141002D01*
X32103308Y-98118308D01*
X32126002Y-98099684D01*
X32151894Y-98085844D01*
X32179985Y-98077323D01*
X32211691Y-98074200D01*
X33958309Y-98074200D01*
X33990015Y-98077323D01*
G37*
G36*
X38940015Y-98077323D02*
G01*
X38968106Y-98085844D01*
X38993998Y-98099684D01*
X39016692Y-98118308D01*
X39035316Y-98141002D01*
X39049156Y-98166894D01*
X39057677Y-98194985D01*
X39060800Y-98226691D01*
X39060800Y-98623309D01*
X39057677Y-98655015D01*
X39049156Y-98683106D01*
X39035316Y-98708998D01*
X39016692Y-98731692D01*
X38993998Y-98750316D01*
X38968106Y-98764156D01*
X38940015Y-98772677D01*
X38908309Y-98775800D01*
X37161691Y-98775800D01*
X37129985Y-98772677D01*
X37101894Y-98764156D01*
X37076002Y-98750316D01*
X37053308Y-98731692D01*
X37034684Y-98708998D01*
X37020844Y-98683106D01*
X37012323Y-98655015D01*
X37009200Y-98623309D01*
X37009200Y-98226691D01*
X37012323Y-98194985D01*
X37020844Y-98166894D01*
X37034684Y-98141002D01*
X37053308Y-98118308D01*
X37076002Y-98099684D01*
X37101894Y-98085844D01*
X37129985Y-98077323D01*
X37161691Y-98074200D01*
X38908309Y-98074200D01*
X38940015Y-98077323D01*
G37*
G36*
X38940015Y-96807323D02*
G01*
X38968106Y-96815844D01*
X38993998Y-96829684D01*
X39016692Y-96848308D01*
X39035316Y-96871002D01*
X39049156Y-96896894D01*
X39057677Y-96924985D01*
X39060800Y-96956691D01*
X39060800Y-97353309D01*
X39057677Y-97385015D01*
X39049156Y-97413106D01*
X39035316Y-97438998D01*
X39016692Y-97461692D01*
X38993998Y-97480316D01*
X38968106Y-97494156D01*
X38940015Y-97502677D01*
X38908309Y-97505800D01*
X37161691Y-97505800D01*
X37129985Y-97502677D01*
X37101894Y-97494156D01*
X37076002Y-97480316D01*
X37053308Y-97461692D01*
X37034684Y-97438998D01*
X37020844Y-97413106D01*
X37012323Y-97385015D01*
X37009200Y-97353309D01*
X37009200Y-96956691D01*
X37012323Y-96924985D01*
X37020844Y-96896894D01*
X37034684Y-96871002D01*
X37053308Y-96848308D01*
X37076002Y-96829684D01*
X37101894Y-96815844D01*
X37129985Y-96807323D01*
X37161691Y-96804200D01*
X38908309Y-96804200D01*
X38940015Y-96807323D01*
G37*
G36*
X33990015Y-96807323D02*
G01*
X34018106Y-96815844D01*
X34043998Y-96829684D01*
X34066692Y-96848308D01*
X34085316Y-96871002D01*
X34099156Y-96896894D01*
X34107677Y-96924985D01*
X34110800Y-96956691D01*
X34110800Y-97353309D01*
X34107677Y-97385015D01*
X34099156Y-97413106D01*
X34085316Y-97438998D01*
X34066692Y-97461692D01*
X34043998Y-97480316D01*
X34018106Y-97494156D01*
X33990015Y-97502677D01*
X33958309Y-97505800D01*
X32211691Y-97505800D01*
X32179985Y-97502677D01*
X32151894Y-97494156D01*
X32126002Y-97480316D01*
X32103308Y-97461692D01*
X32084684Y-97438998D01*
X32070844Y-97413106D01*
X32062323Y-97385015D01*
X32059200Y-97353309D01*
X32059200Y-96956691D01*
X32062323Y-96924985D01*
X32070844Y-96896894D01*
X32084684Y-96871002D01*
X32103308Y-96848308D01*
X32126002Y-96829684D01*
X32151894Y-96815844D01*
X32179985Y-96807323D01*
X32211691Y-96804200D01*
X33958309Y-96804200D01*
X33990015Y-96807323D01*
G37*
G36*
X52967754Y-95653817D02*
G01*
X53131689Y-95721721D01*
X53279227Y-95820303D01*
X53404697Y-95945773D01*
X53503279Y-96093311D01*
X53571183Y-96257246D01*
X53605800Y-96431279D01*
X53605800Y-96608721D01*
X53571183Y-96782754D01*
X53503279Y-96946689D01*
X53404697Y-97094227D01*
X53279227Y-97219697D01*
X53131689Y-97318279D01*
X52967754Y-97386183D01*
X52793721Y-97420800D01*
X52616279Y-97420800D01*
X52442246Y-97386183D01*
X52278311Y-97318279D01*
X52130773Y-97219697D01*
X52005303Y-97094227D01*
X51906721Y-96946689D01*
X51838817Y-96782754D01*
X51804200Y-96608721D01*
X51804200Y-96431279D01*
X51838817Y-96257246D01*
X51906721Y-96093311D01*
X52005303Y-95945773D01*
X52130773Y-95820303D01*
X52278311Y-95721721D01*
X52442246Y-95653817D01*
X52616279Y-95619200D01*
X52793721Y-95619200D01*
X52967754Y-95653817D01*
G37*
G36*
X68207754Y-95653817D02*
G01*
X68371689Y-95721721D01*
X68519227Y-95820303D01*
X68644697Y-95945773D01*
X68743279Y-96093311D01*
X68811183Y-96257246D01*
X68845800Y-96431279D01*
X68845800Y-96608721D01*
X68811183Y-96782754D01*
X68743279Y-96946689D01*
X68644697Y-97094227D01*
X68519227Y-97219697D01*
X68371689Y-97318279D01*
X68207754Y-97386183D01*
X68033721Y-97420800D01*
X67856279Y-97420800D01*
X67682246Y-97386183D01*
X67518311Y-97318279D01*
X67370773Y-97219697D01*
X67245303Y-97094227D01*
X67146721Y-96946689D01*
X67078817Y-96782754D01*
X67044200Y-96608721D01*
X67044200Y-96431279D01*
X67078817Y-96257246D01*
X67146721Y-96093311D01*
X67245303Y-95945773D01*
X67370773Y-95820303D01*
X67518311Y-95721721D01*
X67682246Y-95653817D01*
X67856279Y-95619200D01*
X68033721Y-95619200D01*
X68207754Y-95653817D01*
G37*
G36*
X78367754Y-95653817D02*
G01*
X78531689Y-95721721D01*
X78679227Y-95820303D01*
X78804697Y-95945773D01*
X78903279Y-96093311D01*
X78971183Y-96257246D01*
X79005800Y-96431279D01*
X79005800Y-96608721D01*
X78971183Y-96782754D01*
X78903279Y-96946689D01*
X78804697Y-97094227D01*
X78679227Y-97219697D01*
X78531689Y-97318279D01*
X78367754Y-97386183D01*
X78193721Y-97420800D01*
X78016279Y-97420800D01*
X77842246Y-97386183D01*
X77678311Y-97318279D01*
X77530773Y-97219697D01*
X77405303Y-97094227D01*
X77306721Y-96946689D01*
X77238817Y-96782754D01*
X77204200Y-96608721D01*
X77204200Y-96431279D01*
X77238817Y-96257246D01*
X77306721Y-96093311D01*
X77405303Y-95945773D01*
X77530773Y-95820303D01*
X77678311Y-95721721D01*
X77842246Y-95653817D01*
X78016279Y-95619200D01*
X78193721Y-95619200D01*
X78367754Y-95653817D01*
G37*
G36*
X27282699Y-94964049D02*
G01*
X27327648Y-94977684D01*
X27369072Y-94999826D01*
X27405379Y-95029621D01*
X27435174Y-95065928D01*
X27457316Y-95107352D01*
X27470951Y-95152301D01*
X27475800Y-95201533D01*
X27475800Y-96568467D01*
X27470951Y-96617699D01*
X27457316Y-96662648D01*
X27435174Y-96704072D01*
X27405379Y-96740379D01*
X27369072Y-96770174D01*
X27327648Y-96792316D01*
X27282699Y-96805951D01*
X27233467Y-96810800D01*
X26366533Y-96810800D01*
X26317301Y-96805951D01*
X26272352Y-96792316D01*
X26230928Y-96770174D01*
X26194621Y-96740379D01*
X26164826Y-96704072D01*
X26142684Y-96662648D01*
X26129049Y-96617699D01*
X26124200Y-96568467D01*
X26124200Y-95201533D01*
X26129049Y-95152301D01*
X26142684Y-95107352D01*
X26164826Y-95065928D01*
X26194621Y-95029621D01*
X26230928Y-94999826D01*
X26272352Y-94977684D01*
X26317301Y-94964049D01*
X26366533Y-94959200D01*
X27233467Y-94959200D01*
X27282699Y-94964049D01*
G37*
G36*
X24482699Y-94964049D02*
G01*
X24527648Y-94977684D01*
X24569072Y-94999826D01*
X24605379Y-95029621D01*
X24635174Y-95065928D01*
X24657316Y-95107352D01*
X24670951Y-95152301D01*
X24675800Y-95201533D01*
X24675800Y-96568467D01*
X24670951Y-96617699D01*
X24657316Y-96662648D01*
X24635174Y-96704072D01*
X24605379Y-96740379D01*
X24569072Y-96770174D01*
X24527648Y-96792316D01*
X24482699Y-96805951D01*
X24433467Y-96810800D01*
X23566533Y-96810800D01*
X23517301Y-96805951D01*
X23472352Y-96792316D01*
X23430928Y-96770174D01*
X23394621Y-96740379D01*
X23364826Y-96704072D01*
X23342684Y-96662648D01*
X23329049Y-96617699D01*
X23324200Y-96568467D01*
X23324200Y-95201533D01*
X23329049Y-95152301D01*
X23342684Y-95107352D01*
X23364826Y-95065928D01*
X23394621Y-95029621D01*
X23430928Y-94999826D01*
X23472352Y-94977684D01*
X23517301Y-94964049D01*
X23566533Y-94959200D01*
X24433467Y-94959200D01*
X24482699Y-94964049D01*
G37*
G36*
X33990015Y-95537323D02*
G01*
X34018106Y-95545844D01*
X34043998Y-95559684D01*
X34066692Y-95578308D01*
X34085316Y-95601002D01*
X34099156Y-95626894D01*
X34107677Y-95654985D01*
X34110800Y-95686691D01*
X34110800Y-96083309D01*
X34107677Y-96115015D01*
X34099156Y-96143106D01*
X34085316Y-96168998D01*
X34066692Y-96191692D01*
X34043998Y-96210316D01*
X34018106Y-96224156D01*
X33990015Y-96232677D01*
X33958309Y-96235800D01*
X32211691Y-96235800D01*
X32179985Y-96232677D01*
X32151894Y-96224156D01*
X32126002Y-96210316D01*
X32103308Y-96191692D01*
X32084684Y-96168998D01*
X32070844Y-96143106D01*
X32062323Y-96115015D01*
X32059200Y-96083309D01*
X32059200Y-95686691D01*
X32062323Y-95654985D01*
X32070844Y-95626894D01*
X32084684Y-95601002D01*
X32103308Y-95578308D01*
X32126002Y-95559684D01*
X32151894Y-95545844D01*
X32179985Y-95537323D01*
X32211691Y-95534200D01*
X33958309Y-95534200D01*
X33990015Y-95537323D01*
G37*
G36*
X38940015Y-95537323D02*
G01*
X38968106Y-95545844D01*
X38993998Y-95559684D01*
X39016692Y-95578308D01*
X39035316Y-95601002D01*
X39049156Y-95626894D01*
X39057677Y-95654985D01*
X39060800Y-95686691D01*
X39060800Y-96083309D01*
X39057677Y-96115015D01*
X39049156Y-96143106D01*
X39035316Y-96168998D01*
X39016692Y-96191692D01*
X38993998Y-96210316D01*
X38968106Y-96224156D01*
X38940015Y-96232677D01*
X38908309Y-96235800D01*
X37161691Y-96235800D01*
X37129985Y-96232677D01*
X37101894Y-96224156D01*
X37076002Y-96210316D01*
X37053308Y-96191692D01*
X37034684Y-96168998D01*
X37020844Y-96143106D01*
X37012323Y-96115015D01*
X37009200Y-96083309D01*
X37009200Y-95686691D01*
X37012323Y-95654985D01*
X37020844Y-95626894D01*
X37034684Y-95601002D01*
X37053308Y-95578308D01*
X37076002Y-95559684D01*
X37101894Y-95545844D01*
X37129985Y-95537323D01*
X37161691Y-95534200D01*
X38908309Y-95534200D01*
X38940015Y-95537323D01*
G37*
G36*
X35912699Y-93059049D02*
G01*
X35957648Y-93072684D01*
X35999072Y-93094826D01*
X36035379Y-93124621D01*
X36065174Y-93160928D01*
X36087316Y-93202352D01*
X36100951Y-93247301D01*
X36105800Y-93296533D01*
X36105800Y-94663467D01*
X36100951Y-94712699D01*
X36087316Y-94757648D01*
X36065174Y-94799072D01*
X36035379Y-94835379D01*
X35999072Y-94865174D01*
X35957648Y-94887316D01*
X35912699Y-94900951D01*
X35863467Y-94905800D01*
X34996533Y-94905800D01*
X34947301Y-94900951D01*
X34902352Y-94887316D01*
X34860928Y-94865174D01*
X34824621Y-94835379D01*
X34794826Y-94799072D01*
X34772684Y-94757648D01*
X34759049Y-94712699D01*
X34754200Y-94663467D01*
X34754200Y-93296533D01*
X34759049Y-93247301D01*
X34772684Y-93202352D01*
X34794826Y-93160928D01*
X34824621Y-93124621D01*
X34860928Y-93094826D01*
X34902352Y-93072684D01*
X34947301Y-93059049D01*
X34996533Y-93054200D01*
X35863467Y-93054200D01*
X35912699Y-93059049D01*
G37*
G36*
X38712699Y-93059049D02*
G01*
X38757648Y-93072684D01*
X38799072Y-93094826D01*
X38835379Y-93124621D01*
X38865174Y-93160928D01*
X38887316Y-93202352D01*
X38900951Y-93247301D01*
X38905800Y-93296533D01*
X38905800Y-94663467D01*
X38900951Y-94712699D01*
X38887316Y-94757648D01*
X38865174Y-94799072D01*
X38835379Y-94835379D01*
X38799072Y-94865174D01*
X38757648Y-94887316D01*
X38712699Y-94900951D01*
X38663467Y-94905800D01*
X37796533Y-94905800D01*
X37747301Y-94900951D01*
X37702352Y-94887316D01*
X37660928Y-94865174D01*
X37624621Y-94835379D01*
X37594826Y-94799072D01*
X37572684Y-94757648D01*
X37559049Y-94712699D01*
X37554200Y-94663467D01*
X37554200Y-93296533D01*
X37559049Y-93247301D01*
X37572684Y-93202352D01*
X37594826Y-93160928D01*
X37624621Y-93124621D01*
X37660928Y-93094826D01*
X37702352Y-93072684D01*
X37747301Y-93059049D01*
X37796533Y-93054200D01*
X38663467Y-93054200D01*
X38712699Y-93059049D01*
G37*
G36*
X52967754Y-93113817D02*
G01*
X53131689Y-93181721D01*
X53279227Y-93280303D01*
X53404697Y-93405773D01*
X53503279Y-93553311D01*
X53571183Y-93717246D01*
X53605800Y-93891279D01*
X53605800Y-94068721D01*
X53571183Y-94242754D01*
X53503279Y-94406689D01*
X53404697Y-94554227D01*
X53279227Y-94679697D01*
X53131689Y-94778279D01*
X52967754Y-94846183D01*
X52793721Y-94880800D01*
X52616279Y-94880800D01*
X52442246Y-94846183D01*
X52278311Y-94778279D01*
X52130773Y-94679697D01*
X52005303Y-94554227D01*
X51906721Y-94406689D01*
X51838817Y-94242754D01*
X51804200Y-94068721D01*
X51804200Y-93891279D01*
X51838817Y-93717246D01*
X51906721Y-93553311D01*
X52005303Y-93405773D01*
X52130773Y-93280303D01*
X52278311Y-93181721D01*
X52442246Y-93113817D01*
X52616279Y-93079200D01*
X52793721Y-93079200D01*
X52967754Y-93113817D01*
G37*
G36*
X68207754Y-93113817D02*
G01*
X68371689Y-93181721D01*
X68519227Y-93280303D01*
X68644697Y-93405773D01*
X68743279Y-93553311D01*
X68811183Y-93717246D01*
X68845800Y-93891279D01*
X68845800Y-94068721D01*
X68811183Y-94242754D01*
X68743279Y-94406689D01*
X68644697Y-94554227D01*
X68519227Y-94679697D01*
X68371689Y-94778279D01*
X68207754Y-94846183D01*
X68033721Y-94880800D01*
X67856279Y-94880800D01*
X67682246Y-94846183D01*
X67518311Y-94778279D01*
X67370773Y-94679697D01*
X67245303Y-94554227D01*
X67146721Y-94406689D01*
X67078817Y-94242754D01*
X67044200Y-94068721D01*
X67044200Y-93891279D01*
X67078817Y-93717246D01*
X67146721Y-93553311D01*
X67245303Y-93405773D01*
X67370773Y-93280303D01*
X67518311Y-93181721D01*
X67682246Y-93113817D01*
X67856279Y-93079200D01*
X68033721Y-93079200D01*
X68207754Y-93113817D01*
G37*
G36*
X78367754Y-93113817D02*
G01*
X78531689Y-93181721D01*
X78679227Y-93280303D01*
X78804697Y-93405773D01*
X78903279Y-93553311D01*
X78971183Y-93717246D01*
X79005800Y-93891279D01*
X79005800Y-94068721D01*
X78971183Y-94242754D01*
X78903279Y-94406689D01*
X78804697Y-94554227D01*
X78679227Y-94679697D01*
X78531689Y-94778279D01*
X78367754Y-94846183D01*
X78193721Y-94880800D01*
X78016279Y-94880800D01*
X77842246Y-94846183D01*
X77678311Y-94778279D01*
X77530773Y-94679697D01*
X77405303Y-94554227D01*
X77306721Y-94406689D01*
X77238817Y-94242754D01*
X77204200Y-94068721D01*
X77204200Y-93891279D01*
X77238817Y-93717246D01*
X77306721Y-93553311D01*
X77405303Y-93405773D01*
X77530773Y-93280303D01*
X77678311Y-93181721D01*
X77842246Y-93113817D01*
X78016279Y-93079200D01*
X78193721Y-93079200D01*
X78367754Y-93113817D01*
G37*
G36*
X38712699Y-90519049D02*
G01*
X38757648Y-90532684D01*
X38799072Y-90554826D01*
X38835379Y-90584621D01*
X38865174Y-90620928D01*
X38887316Y-90662352D01*
X38900951Y-90707301D01*
X38905800Y-90756533D01*
X38905800Y-92123467D01*
X38900951Y-92172699D01*
X38887316Y-92217648D01*
X38865174Y-92259072D01*
X38835379Y-92295379D01*
X38799072Y-92325174D01*
X38757648Y-92347316D01*
X38712699Y-92360951D01*
X38663467Y-92365800D01*
X37796533Y-92365800D01*
X37747301Y-92360951D01*
X37702352Y-92347316D01*
X37660928Y-92325174D01*
X37624621Y-92295379D01*
X37594826Y-92259072D01*
X37572684Y-92217648D01*
X37559049Y-92172699D01*
X37554200Y-92123467D01*
X37554200Y-90756533D01*
X37559049Y-90707301D01*
X37572684Y-90662352D01*
X37594826Y-90620928D01*
X37624621Y-90584621D01*
X37660928Y-90554826D01*
X37702352Y-90532684D01*
X37747301Y-90519049D01*
X37796533Y-90514200D01*
X38663467Y-90514200D01*
X38712699Y-90519049D01*
G37*
G36*
X24482699Y-90519049D02*
G01*
X24527648Y-90532684D01*
X24569072Y-90554826D01*
X24605379Y-90584621D01*
X24635174Y-90620928D01*
X24657316Y-90662352D01*
X24670951Y-90707301D01*
X24675800Y-90756533D01*
X24675800Y-92123467D01*
X24670951Y-92172699D01*
X24657316Y-92217648D01*
X24635174Y-92259072D01*
X24605379Y-92295379D01*
X24569072Y-92325174D01*
X24527648Y-92347316D01*
X24482699Y-92360951D01*
X24433467Y-92365800D01*
X23566533Y-92365800D01*
X23517301Y-92360951D01*
X23472352Y-92347316D01*
X23430928Y-92325174D01*
X23394621Y-92295379D01*
X23364826Y-92259072D01*
X23342684Y-92217648D01*
X23329049Y-92172699D01*
X23324200Y-92123467D01*
X23324200Y-90756533D01*
X23329049Y-90707301D01*
X23342684Y-90662352D01*
X23364826Y-90620928D01*
X23394621Y-90584621D01*
X23430928Y-90554826D01*
X23472352Y-90532684D01*
X23517301Y-90519049D01*
X23566533Y-90514200D01*
X24433467Y-90514200D01*
X24482699Y-90519049D01*
G37*
G36*
X35912699Y-90519049D02*
G01*
X35957648Y-90532684D01*
X35999072Y-90554826D01*
X36035379Y-90584621D01*
X36065174Y-90620928D01*
X36087316Y-90662352D01*
X36100951Y-90707301D01*
X36105800Y-90756533D01*
X36105800Y-92123467D01*
X36100951Y-92172699D01*
X36087316Y-92217648D01*
X36065174Y-92259072D01*
X36035379Y-92295379D01*
X35999072Y-92325174D01*
X35957648Y-92347316D01*
X35912699Y-92360951D01*
X35863467Y-92365800D01*
X34996533Y-92365800D01*
X34947301Y-92360951D01*
X34902352Y-92347316D01*
X34860928Y-92325174D01*
X34824621Y-92295379D01*
X34794826Y-92259072D01*
X34772684Y-92217648D01*
X34759049Y-92172699D01*
X34754200Y-92123467D01*
X34754200Y-90756533D01*
X34759049Y-90707301D01*
X34772684Y-90662352D01*
X34794826Y-90620928D01*
X34824621Y-90584621D01*
X34860928Y-90554826D01*
X34902352Y-90532684D01*
X34947301Y-90519049D01*
X34996533Y-90514200D01*
X35863467Y-90514200D01*
X35912699Y-90519049D01*
G37*
G36*
X27282699Y-90519049D02*
G01*
X27327648Y-90532684D01*
X27369072Y-90554826D01*
X27405379Y-90584621D01*
X27435174Y-90620928D01*
X27457316Y-90662352D01*
X27470951Y-90707301D01*
X27475800Y-90756533D01*
X27475800Y-92123467D01*
X27470951Y-92172699D01*
X27457316Y-92217648D01*
X27435174Y-92259072D01*
X27405379Y-92295379D01*
X27369072Y-92325174D01*
X27327648Y-92347316D01*
X27282699Y-92360951D01*
X27233467Y-92365800D01*
X26366533Y-92365800D01*
X26317301Y-92360951D01*
X26272352Y-92347316D01*
X26230928Y-92325174D01*
X26194621Y-92295379D01*
X26164826Y-92259072D01*
X26142684Y-92217648D01*
X26129049Y-92172699D01*
X26124200Y-92123467D01*
X26124200Y-90756533D01*
X26129049Y-90707301D01*
X26142684Y-90662352D01*
X26164826Y-90620928D01*
X26194621Y-90584621D01*
X26230928Y-90554826D01*
X26272352Y-90532684D01*
X26317301Y-90519049D01*
X26366533Y-90514200D01*
X27233467Y-90514200D01*
X27282699Y-90519049D01*
G37*
G36*
X68207754Y-90573817D02*
G01*
X68371689Y-90641721D01*
X68519227Y-90740303D01*
X68644697Y-90865773D01*
X68743279Y-91013311D01*
X68811183Y-91177246D01*
X68845800Y-91351279D01*
X68845800Y-91528721D01*
X68811183Y-91702754D01*
X68743279Y-91866689D01*
X68644697Y-92014227D01*
X68519227Y-92139697D01*
X68371689Y-92238279D01*
X68207754Y-92306183D01*
X68033721Y-92340800D01*
X67856279Y-92340800D01*
X67682246Y-92306183D01*
X67518311Y-92238279D01*
X67370773Y-92139697D01*
X67245303Y-92014227D01*
X67146721Y-91866689D01*
X67078817Y-91702754D01*
X67044200Y-91528721D01*
X67044200Y-91351279D01*
X67078817Y-91177246D01*
X67146721Y-91013311D01*
X67245303Y-90865773D01*
X67370773Y-90740303D01*
X67518311Y-90641721D01*
X67682246Y-90573817D01*
X67856279Y-90539200D01*
X68033721Y-90539200D01*
X68207754Y-90573817D01*
G37*
G36*
X52967754Y-90573817D02*
G01*
X53131689Y-90641721D01*
X53279227Y-90740303D01*
X53404697Y-90865773D01*
X53503279Y-91013311D01*
X53571183Y-91177246D01*
X53605800Y-91351279D01*
X53605800Y-91528721D01*
X53571183Y-91702754D01*
X53503279Y-91866689D01*
X53404697Y-92014227D01*
X53279227Y-92139697D01*
X53131689Y-92238279D01*
X52967754Y-92306183D01*
X52793721Y-92340800D01*
X52616279Y-92340800D01*
X52442246Y-92306183D01*
X52278311Y-92238279D01*
X52130773Y-92139697D01*
X52005303Y-92014227D01*
X51906721Y-91866689D01*
X51838817Y-91702754D01*
X51804200Y-91528721D01*
X51804200Y-91351279D01*
X51838817Y-91177246D01*
X51906721Y-91013311D01*
X52005303Y-90865773D01*
X52130773Y-90740303D01*
X52278311Y-90641721D01*
X52442246Y-90573817D01*
X52616279Y-90539200D01*
X52793721Y-90539200D01*
X52967754Y-90573817D01*
G37*
G36*
X78367754Y-90573817D02*
G01*
X78531689Y-90641721D01*
X78679227Y-90740303D01*
X78804697Y-90865773D01*
X78903279Y-91013311D01*
X78971183Y-91177246D01*
X79005800Y-91351279D01*
X79005800Y-91528721D01*
X78971183Y-91702754D01*
X78903279Y-91866689D01*
X78804697Y-92014227D01*
X78679227Y-92139697D01*
X78531689Y-92238279D01*
X78367754Y-92306183D01*
X78193721Y-92340800D01*
X78016279Y-92340800D01*
X77842246Y-92306183D01*
X77678311Y-92238279D01*
X77530773Y-92139697D01*
X77405303Y-92014227D01*
X77306721Y-91866689D01*
X77238817Y-91702754D01*
X77204200Y-91528721D01*
X77204200Y-91351279D01*
X77238817Y-91177246D01*
X77306721Y-91013311D01*
X77405303Y-90865773D01*
X77530773Y-90740303D01*
X77678311Y-90641721D01*
X77842246Y-90573817D01*
X78016279Y-90539200D01*
X78193721Y-90539200D01*
X78367754Y-90573817D01*
G37*
G36*
X68207754Y-88033817D02*
G01*
X68371689Y-88101721D01*
X68519227Y-88200303D01*
X68644697Y-88325773D01*
X68743279Y-88473311D01*
X68811183Y-88637246D01*
X68845800Y-88811279D01*
X68845800Y-88988721D01*
X68811183Y-89162754D01*
X68743279Y-89326689D01*
X68644697Y-89474227D01*
X68519227Y-89599697D01*
X68371689Y-89698279D01*
X68207754Y-89766183D01*
X68033721Y-89800800D01*
X67856279Y-89800800D01*
X67682246Y-89766183D01*
X67518311Y-89698279D01*
X67370773Y-89599697D01*
X67245303Y-89474227D01*
X67146721Y-89326689D01*
X67078817Y-89162754D01*
X67044200Y-88988721D01*
X67044200Y-88811279D01*
X67078817Y-88637246D01*
X67146721Y-88473311D01*
X67245303Y-88325773D01*
X67370773Y-88200303D01*
X67518311Y-88101721D01*
X67682246Y-88033817D01*
X67856279Y-87999200D01*
X68033721Y-87999200D01*
X68207754Y-88033817D01*
G37*
G36*
X78367754Y-88033817D02*
G01*
X78531689Y-88101721D01*
X78679227Y-88200303D01*
X78804697Y-88325773D01*
X78903279Y-88473311D01*
X78971183Y-88637246D01*
X79005800Y-88811279D01*
X79005800Y-88988721D01*
X78971183Y-89162754D01*
X78903279Y-89326689D01*
X78804697Y-89474227D01*
X78679227Y-89599697D01*
X78531689Y-89698279D01*
X78367754Y-89766183D01*
X78193721Y-89800800D01*
X78016279Y-89800800D01*
X77842246Y-89766183D01*
X77678311Y-89698279D01*
X77530773Y-89599697D01*
X77405303Y-89474227D01*
X77306721Y-89326689D01*
X77238817Y-89162754D01*
X77204200Y-88988721D01*
X77204200Y-88811279D01*
X77238817Y-88637246D01*
X77306721Y-88473311D01*
X77405303Y-88325773D01*
X77530773Y-88200303D01*
X77678311Y-88101721D01*
X77842246Y-88033817D01*
X78016279Y-87999200D01*
X78193721Y-87999200D01*
X78367754Y-88033817D01*
G37*
G36*
X52967754Y-88033817D02*
G01*
X53131689Y-88101721D01*
X53279227Y-88200303D01*
X53404697Y-88325773D01*
X53503279Y-88473311D01*
X53571183Y-88637246D01*
X53605800Y-88811279D01*
X53605800Y-88988721D01*
X53571183Y-89162754D01*
X53503279Y-89326689D01*
X53404697Y-89474227D01*
X53279227Y-89599697D01*
X53131689Y-89698279D01*
X52967754Y-89766183D01*
X52793721Y-89800800D01*
X52616279Y-89800800D01*
X52442246Y-89766183D01*
X52278311Y-89698279D01*
X52130773Y-89599697D01*
X52005303Y-89474227D01*
X51906721Y-89326689D01*
X51838817Y-89162754D01*
X51804200Y-88988721D01*
X51804200Y-88811279D01*
X51838817Y-88637246D01*
X51906721Y-88473311D01*
X52005303Y-88325773D01*
X52130773Y-88200303D01*
X52278311Y-88101721D01*
X52442246Y-88033817D01*
X52616279Y-87999200D01*
X52793721Y-87999200D01*
X52967754Y-88033817D01*
G37*
G36*
X32007800Y-88188800D02*
G01*
X30382200Y-88188800D01*
X30382200Y-87071200D01*
X32007800Y-87071200D01*
X32007800Y-88188800D01*
G37*
G36*
X20577800Y-88188800D02*
G01*
X18952200Y-88188800D01*
X18952200Y-87071200D01*
X20577800Y-87071200D01*
X20577800Y-88188800D01*
G37*
G36*
X78367754Y-85493817D02*
G01*
X78531689Y-85561721D01*
X78679227Y-85660303D01*
X78804697Y-85785773D01*
X78903279Y-85933311D01*
X78971183Y-86097246D01*
X79005800Y-86271279D01*
X79005800Y-86448721D01*
X78971183Y-86622754D01*
X78903279Y-86786689D01*
X78804697Y-86934227D01*
X78679227Y-87059697D01*
X78531689Y-87158279D01*
X78367754Y-87226183D01*
X78193721Y-87260800D01*
X78016279Y-87260800D01*
X77842246Y-87226183D01*
X77678311Y-87158279D01*
X77530773Y-87059697D01*
X77405303Y-86934227D01*
X77306721Y-86786689D01*
X77238817Y-86622754D01*
X77204200Y-86448721D01*
X77204200Y-86271279D01*
X77238817Y-86097246D01*
X77306721Y-85933311D01*
X77405303Y-85785773D01*
X77530773Y-85660303D01*
X77678311Y-85561721D01*
X77842246Y-85493817D01*
X78016279Y-85459200D01*
X78193721Y-85459200D01*
X78367754Y-85493817D01*
G37*
G36*
X68207754Y-85493817D02*
G01*
X68371689Y-85561721D01*
X68519227Y-85660303D01*
X68644697Y-85785773D01*
X68743279Y-85933311D01*
X68811183Y-86097246D01*
X68845800Y-86271279D01*
X68845800Y-86448721D01*
X68811183Y-86622754D01*
X68743279Y-86786689D01*
X68644697Y-86934227D01*
X68519227Y-87059697D01*
X68371689Y-87158279D01*
X68207754Y-87226183D01*
X68033721Y-87260800D01*
X67856279Y-87260800D01*
X67682246Y-87226183D01*
X67518311Y-87158279D01*
X67370773Y-87059697D01*
X67245303Y-86934227D01*
X67146721Y-86786689D01*
X67078817Y-86622754D01*
X67044200Y-86448721D01*
X67044200Y-86271279D01*
X67078817Y-86097246D01*
X67146721Y-85933311D01*
X67245303Y-85785773D01*
X67370773Y-85660303D01*
X67518311Y-85561721D01*
X67682246Y-85493817D01*
X67856279Y-85459200D01*
X68033721Y-85459200D01*
X68207754Y-85493817D01*
G37*
G36*
X52967754Y-85493817D02*
G01*
X53131689Y-85561721D01*
X53279227Y-85660303D01*
X53404697Y-85785773D01*
X53503279Y-85933311D01*
X53571183Y-86097246D01*
X53605800Y-86271279D01*
X53605800Y-86448721D01*
X53571183Y-86622754D01*
X53503279Y-86786689D01*
X53404697Y-86934227D01*
X53279227Y-87059697D01*
X53131689Y-87158279D01*
X52967754Y-87226183D01*
X52793721Y-87260800D01*
X52616279Y-87260800D01*
X52442246Y-87226183D01*
X52278311Y-87158279D01*
X52130773Y-87059697D01*
X52005303Y-86934227D01*
X51906721Y-86786689D01*
X51838817Y-86622754D01*
X51804200Y-86448721D01*
X51804200Y-86271279D01*
X51838817Y-86097246D01*
X51906721Y-85933311D01*
X52005303Y-85785773D01*
X52130773Y-85660303D01*
X52278311Y-85561721D01*
X52442246Y-85493817D01*
X52616279Y-85459200D01*
X52793721Y-85459200D01*
X52967754Y-85493817D01*
G37*
G36*
X37800015Y-86012323D02*
G01*
X37828106Y-86020844D01*
X37853998Y-86034684D01*
X37876692Y-86053308D01*
X37895316Y-86076002D01*
X37909156Y-86101894D01*
X37917677Y-86129985D01*
X37920800Y-86161691D01*
X37920800Y-86558309D01*
X37917677Y-86590015D01*
X37909156Y-86618106D01*
X37895316Y-86643998D01*
X37876692Y-86666692D01*
X37853998Y-86685316D01*
X37828106Y-86699156D01*
X37800015Y-86707677D01*
X37768309Y-86710800D01*
X36021691Y-86710800D01*
X35989985Y-86707677D01*
X35961894Y-86699156D01*
X35936002Y-86685316D01*
X35913308Y-86666692D01*
X35894684Y-86643998D01*
X35880844Y-86618106D01*
X35872323Y-86590015D01*
X35869200Y-86558309D01*
X35869200Y-86161691D01*
X35872323Y-86129985D01*
X35880844Y-86101894D01*
X35894684Y-86076002D01*
X35913308Y-86053308D01*
X35936002Y-86034684D01*
X35961894Y-86020844D01*
X35989985Y-86012323D01*
X36021691Y-86009200D01*
X37768309Y-86009200D01*
X37800015Y-86012323D01*
G37*
G36*
X42750015Y-86012323D02*
G01*
X42778106Y-86020844D01*
X42803998Y-86034684D01*
X42826692Y-86053308D01*
X42845316Y-86076002D01*
X42859156Y-86101894D01*
X42867677Y-86129985D01*
X42870800Y-86161691D01*
X42870800Y-86558309D01*
X42867677Y-86590015D01*
X42859156Y-86618106D01*
X42845316Y-86643998D01*
X42826692Y-86666692D01*
X42803998Y-86685316D01*
X42778106Y-86699156D01*
X42750015Y-86707677D01*
X42718309Y-86710800D01*
X40971691Y-86710800D01*
X40939985Y-86707677D01*
X40911894Y-86699156D01*
X40886002Y-86685316D01*
X40863308Y-86666692D01*
X40844684Y-86643998D01*
X40830844Y-86618106D01*
X40822323Y-86590015D01*
X40819200Y-86558309D01*
X40819200Y-86161691D01*
X40822323Y-86129985D01*
X40830844Y-86101894D01*
X40844684Y-86076002D01*
X40863308Y-86053308D01*
X40886002Y-86034684D01*
X40911894Y-86020844D01*
X40939985Y-86012323D01*
X40971691Y-86009200D01*
X42718309Y-86009200D01*
X42750015Y-86012323D01*
G37*
G36*
X20577800Y-85648800D02*
G01*
X18952200Y-85648800D01*
X18952200Y-84531200D01*
X20577800Y-84531200D01*
X20577800Y-85648800D01*
G37*
G36*
X32007800Y-85648800D02*
G01*
X30382200Y-85648800D01*
X30382200Y-84531200D01*
X32007800Y-84531200D01*
X32007800Y-85648800D01*
G37*
G36*
X42750015Y-84742323D02*
G01*
X42778106Y-84750844D01*
X42803998Y-84764684D01*
X42826692Y-84783308D01*
X42845316Y-84806002D01*
X42859156Y-84831894D01*
X42867677Y-84859985D01*
X42870800Y-84891691D01*
X42870800Y-85288309D01*
X42867677Y-85320015D01*
X42859156Y-85348106D01*
X42845316Y-85373998D01*
X42826692Y-85396692D01*
X42803998Y-85415316D01*
X42778106Y-85429156D01*
X42750015Y-85437677D01*
X42718309Y-85440800D01*
X40971691Y-85440800D01*
X40939985Y-85437677D01*
X40911894Y-85429156D01*
X40886002Y-85415316D01*
X40863308Y-85396692D01*
X40844684Y-85373998D01*
X40830844Y-85348106D01*
X40822323Y-85320015D01*
X40819200Y-85288309D01*
X40819200Y-84891691D01*
X40822323Y-84859985D01*
X40830844Y-84831894D01*
X40844684Y-84806002D01*
X40863308Y-84783308D01*
X40886002Y-84764684D01*
X40911894Y-84750844D01*
X40939985Y-84742323D01*
X40971691Y-84739200D01*
X42718309Y-84739200D01*
X42750015Y-84742323D01*
G37*
G36*
X37800015Y-84742323D02*
G01*
X37828106Y-84750844D01*
X37853998Y-84764684D01*
X37876692Y-84783308D01*
X37895316Y-84806002D01*
X37909156Y-84831894D01*
X37917677Y-84859985D01*
X37920800Y-84891691D01*
X37920800Y-85288309D01*
X37917677Y-85320015D01*
X37909156Y-85348106D01*
X37895316Y-85373998D01*
X37876692Y-85396692D01*
X37853998Y-85415316D01*
X37828106Y-85429156D01*
X37800015Y-85437677D01*
X37768309Y-85440800D01*
X36021691Y-85440800D01*
X35989985Y-85437677D01*
X35961894Y-85429156D01*
X35936002Y-85415316D01*
X35913308Y-85396692D01*
X35894684Y-85373998D01*
X35880844Y-85348106D01*
X35872323Y-85320015D01*
X35869200Y-85288309D01*
X35869200Y-84891691D01*
X35872323Y-84859985D01*
X35880844Y-84831894D01*
X35894684Y-84806002D01*
X35913308Y-84783308D01*
X35936002Y-84764684D01*
X35961894Y-84750844D01*
X35989985Y-84742323D01*
X36021691Y-84739200D01*
X37768309Y-84739200D01*
X37800015Y-84742323D01*
G37*
G36*
X52967754Y-82953817D02*
G01*
X53131689Y-83021721D01*
X53279227Y-83120303D01*
X53404697Y-83245773D01*
X53503279Y-83393311D01*
X53571183Y-83557246D01*
X53605800Y-83731279D01*
X53605800Y-83908721D01*
X53571183Y-84082754D01*
X53503279Y-84246689D01*
X53404697Y-84394227D01*
X53279227Y-84519697D01*
X53131689Y-84618279D01*
X52967754Y-84686183D01*
X52793721Y-84720800D01*
X52616279Y-84720800D01*
X52442246Y-84686183D01*
X52278311Y-84618279D01*
X52130773Y-84519697D01*
X52005303Y-84394227D01*
X51906721Y-84246689D01*
X51838817Y-84082754D01*
X51804200Y-83908721D01*
X51804200Y-83731279D01*
X51838817Y-83557246D01*
X51906721Y-83393311D01*
X52005303Y-83245773D01*
X52130773Y-83120303D01*
X52278311Y-83021721D01*
X52442246Y-82953817D01*
X52616279Y-82919200D01*
X52793721Y-82919200D01*
X52967754Y-82953817D01*
G37*
G36*
X78367754Y-82953817D02*
G01*
X78531689Y-83021721D01*
X78679227Y-83120303D01*
X78804697Y-83245773D01*
X78903279Y-83393311D01*
X78971183Y-83557246D01*
X79005800Y-83731279D01*
X79005800Y-83908721D01*
X78971183Y-84082754D01*
X78903279Y-84246689D01*
X78804697Y-84394227D01*
X78679227Y-84519697D01*
X78531689Y-84618279D01*
X78367754Y-84686183D01*
X78193721Y-84720800D01*
X78016279Y-84720800D01*
X77842246Y-84686183D01*
X77678311Y-84618279D01*
X77530773Y-84519697D01*
X77405303Y-84394227D01*
X77306721Y-84246689D01*
X77238817Y-84082754D01*
X77204200Y-83908721D01*
X77204200Y-83731279D01*
X77238817Y-83557246D01*
X77306721Y-83393311D01*
X77405303Y-83245773D01*
X77530773Y-83120303D01*
X77678311Y-83021721D01*
X77842246Y-82953817D01*
X78016279Y-82919200D01*
X78193721Y-82919200D01*
X78367754Y-82953817D01*
G37*
G36*
X68207754Y-82953817D02*
G01*
X68371689Y-83021721D01*
X68519227Y-83120303D01*
X68644697Y-83245773D01*
X68743279Y-83393311D01*
X68811183Y-83557246D01*
X68845800Y-83731279D01*
X68845800Y-83908721D01*
X68811183Y-84082754D01*
X68743279Y-84246689D01*
X68644697Y-84394227D01*
X68519227Y-84519697D01*
X68371689Y-84618279D01*
X68207754Y-84686183D01*
X68033721Y-84720800D01*
X67856279Y-84720800D01*
X67682246Y-84686183D01*
X67518311Y-84618279D01*
X67370773Y-84519697D01*
X67245303Y-84394227D01*
X67146721Y-84246689D01*
X67078817Y-84082754D01*
X67044200Y-83908721D01*
X67044200Y-83731279D01*
X67078817Y-83557246D01*
X67146721Y-83393311D01*
X67245303Y-83245773D01*
X67370773Y-83120303D01*
X67518311Y-83021721D01*
X67682246Y-82953817D01*
X67856279Y-82919200D01*
X68033721Y-82919200D01*
X68207754Y-82953817D01*
G37*
G36*
X37800015Y-83472323D02*
G01*
X37828106Y-83480844D01*
X37853998Y-83494684D01*
X37876692Y-83513308D01*
X37895316Y-83536002D01*
X37909156Y-83561894D01*
X37917677Y-83589985D01*
X37920800Y-83621691D01*
X37920800Y-84018309D01*
X37917677Y-84050015D01*
X37909156Y-84078106D01*
X37895316Y-84103998D01*
X37876692Y-84126692D01*
X37853998Y-84145316D01*
X37828106Y-84159156D01*
X37800015Y-84167677D01*
X37768309Y-84170800D01*
X36021691Y-84170800D01*
X35989985Y-84167677D01*
X35961894Y-84159156D01*
X35936002Y-84145316D01*
X35913308Y-84126692D01*
X35894684Y-84103998D01*
X35880844Y-84078106D01*
X35872323Y-84050015D01*
X35869200Y-84018309D01*
X35869200Y-83621691D01*
X35872323Y-83589985D01*
X35880844Y-83561894D01*
X35894684Y-83536002D01*
X35913308Y-83513308D01*
X35936002Y-83494684D01*
X35961894Y-83480844D01*
X35989985Y-83472323D01*
X36021691Y-83469200D01*
X37768309Y-83469200D01*
X37800015Y-83472323D01*
G37*
G36*
X42750015Y-83472323D02*
G01*
X42778106Y-83480844D01*
X42803998Y-83494684D01*
X42826692Y-83513308D01*
X42845316Y-83536002D01*
X42859156Y-83561894D01*
X42867677Y-83589985D01*
X42870800Y-83621691D01*
X42870800Y-84018309D01*
X42867677Y-84050015D01*
X42859156Y-84078106D01*
X42845316Y-84103998D01*
X42826692Y-84126692D01*
X42803998Y-84145316D01*
X42778106Y-84159156D01*
X42750015Y-84167677D01*
X42718309Y-84170800D01*
X40971691Y-84170800D01*
X40939985Y-84167677D01*
X40911894Y-84159156D01*
X40886002Y-84145316D01*
X40863308Y-84126692D01*
X40844684Y-84103998D01*
X40830844Y-84078106D01*
X40822323Y-84050015D01*
X40819200Y-84018309D01*
X40819200Y-83621691D01*
X40822323Y-83589985D01*
X40830844Y-83561894D01*
X40844684Y-83536002D01*
X40863308Y-83513308D01*
X40886002Y-83494684D01*
X40911894Y-83480844D01*
X40939985Y-83472323D01*
X40971691Y-83469200D01*
X42718309Y-83469200D01*
X42750015Y-83472323D01*
G37*
G36*
X20577800Y-83108800D02*
G01*
X18952200Y-83108800D01*
X18952200Y-81991200D01*
X20577800Y-81991200D01*
X20577800Y-83108800D01*
G37*
G36*
X32007800Y-83108800D02*
G01*
X30382200Y-83108800D01*
X30382200Y-81991200D01*
X32007800Y-81991200D01*
X32007800Y-83108800D01*
G37*
G36*
X42750015Y-82202323D02*
G01*
X42778106Y-82210844D01*
X42803998Y-82224684D01*
X42826692Y-82243308D01*
X42845316Y-82266002D01*
X42859156Y-82291894D01*
X42867677Y-82319985D01*
X42870800Y-82351691D01*
X42870800Y-82748309D01*
X42867677Y-82780015D01*
X42859156Y-82808106D01*
X42845316Y-82833998D01*
X42826692Y-82856692D01*
X42803998Y-82875316D01*
X42778106Y-82889156D01*
X42750015Y-82897677D01*
X42718309Y-82900800D01*
X40971691Y-82900800D01*
X40939985Y-82897677D01*
X40911894Y-82889156D01*
X40886002Y-82875316D01*
X40863308Y-82856692D01*
X40844684Y-82833998D01*
X40830844Y-82808106D01*
X40822323Y-82780015D01*
X40819200Y-82748309D01*
X40819200Y-82351691D01*
X40822323Y-82319985D01*
X40830844Y-82291894D01*
X40844684Y-82266002D01*
X40863308Y-82243308D01*
X40886002Y-82224684D01*
X40911894Y-82210844D01*
X40939985Y-82202323D01*
X40971691Y-82199200D01*
X42718309Y-82199200D01*
X42750015Y-82202323D01*
G37*
G36*
X37800015Y-82202323D02*
G01*
X37828106Y-82210844D01*
X37853998Y-82224684D01*
X37876692Y-82243308D01*
X37895316Y-82266002D01*
X37909156Y-82291894D01*
X37917677Y-82319985D01*
X37920800Y-82351691D01*
X37920800Y-82748309D01*
X37917677Y-82780015D01*
X37909156Y-82808106D01*
X37895316Y-82833998D01*
X37876692Y-82856692D01*
X37853998Y-82875316D01*
X37828106Y-82889156D01*
X37800015Y-82897677D01*
X37768309Y-82900800D01*
X36021691Y-82900800D01*
X35989985Y-82897677D01*
X35961894Y-82889156D01*
X35936002Y-82875316D01*
X35913308Y-82856692D01*
X35894684Y-82833998D01*
X35880844Y-82808106D01*
X35872323Y-82780015D01*
X35869200Y-82748309D01*
X35869200Y-82351691D01*
X35872323Y-82319985D01*
X35880844Y-82291894D01*
X35894684Y-82266002D01*
X35913308Y-82243308D01*
X35936002Y-82224684D01*
X35961894Y-82210844D01*
X35989985Y-82202323D01*
X36021691Y-82199200D01*
X37768309Y-82199200D01*
X37800015Y-82202323D01*
G37*
G36*
X68207754Y-80413817D02*
G01*
X68371689Y-80481721D01*
X68519227Y-80580303D01*
X68644697Y-80705773D01*
X68743279Y-80853311D01*
X68811183Y-81017246D01*
X68845800Y-81191279D01*
X68845800Y-81368721D01*
X68811183Y-81542754D01*
X68743279Y-81706689D01*
X68644697Y-81854227D01*
X68519227Y-81979697D01*
X68371689Y-82078279D01*
X68207754Y-82146183D01*
X68033721Y-82180800D01*
X67856279Y-82180800D01*
X67682246Y-82146183D01*
X67518311Y-82078279D01*
X67370773Y-81979697D01*
X67245303Y-81854227D01*
X67146721Y-81706689D01*
X67078817Y-81542754D01*
X67044200Y-81368721D01*
X67044200Y-81191279D01*
X67078817Y-81017246D01*
X67146721Y-80853311D01*
X67245303Y-80705773D01*
X67370773Y-80580303D01*
X67518311Y-80481721D01*
X67682246Y-80413817D01*
X67856279Y-80379200D01*
X68033721Y-80379200D01*
X68207754Y-80413817D01*
G37*
G36*
X52967754Y-80413817D02*
G01*
X53131689Y-80481721D01*
X53279227Y-80580303D01*
X53404697Y-80705773D01*
X53503279Y-80853311D01*
X53571183Y-81017246D01*
X53605800Y-81191279D01*
X53605800Y-81368721D01*
X53571183Y-81542754D01*
X53503279Y-81706689D01*
X53404697Y-81854227D01*
X53279227Y-81979697D01*
X53131689Y-82078279D01*
X52967754Y-82146183D01*
X52793721Y-82180800D01*
X52616279Y-82180800D01*
X52442246Y-82146183D01*
X52278311Y-82078279D01*
X52130773Y-81979697D01*
X52005303Y-81854227D01*
X51906721Y-81706689D01*
X51838817Y-81542754D01*
X51804200Y-81368721D01*
X51804200Y-81191279D01*
X51838817Y-81017246D01*
X51906721Y-80853311D01*
X52005303Y-80705773D01*
X52130773Y-80580303D01*
X52278311Y-80481721D01*
X52442246Y-80413817D01*
X52616279Y-80379200D01*
X52793721Y-80379200D01*
X52967754Y-80413817D01*
G37*
G36*
X78367754Y-80413817D02*
G01*
X78531689Y-80481721D01*
X78679227Y-80580303D01*
X78804697Y-80705773D01*
X78903279Y-80853311D01*
X78971183Y-81017246D01*
X79005800Y-81191279D01*
X79005800Y-81368721D01*
X78971183Y-81542754D01*
X78903279Y-81706689D01*
X78804697Y-81854227D01*
X78679227Y-81979697D01*
X78531689Y-82078279D01*
X78367754Y-82146183D01*
X78193721Y-82180800D01*
X78016279Y-82180800D01*
X77842246Y-82146183D01*
X77678311Y-82078279D01*
X77530773Y-81979697D01*
X77405303Y-81854227D01*
X77306721Y-81706689D01*
X77238817Y-81542754D01*
X77204200Y-81368721D01*
X77204200Y-81191279D01*
X77238817Y-81017246D01*
X77306721Y-80853311D01*
X77405303Y-80705773D01*
X77530773Y-80580303D01*
X77678311Y-80481721D01*
X77842246Y-80413817D01*
X78016279Y-80379200D01*
X78193721Y-80379200D01*
X78367754Y-80413817D01*
G37*
G36*
X37800015Y-80932323D02*
G01*
X37828106Y-80940844D01*
X37853998Y-80954684D01*
X37876692Y-80973308D01*
X37895316Y-80996002D01*
X37909156Y-81021894D01*
X37917677Y-81049985D01*
X37920800Y-81081691D01*
X37920800Y-81478309D01*
X37917677Y-81510015D01*
X37909156Y-81538106D01*
X37895316Y-81563998D01*
X37876692Y-81586692D01*
X37853998Y-81605316D01*
X37828106Y-81619156D01*
X37800015Y-81627677D01*
X37768309Y-81630800D01*
X36021691Y-81630800D01*
X35989985Y-81627677D01*
X35961894Y-81619156D01*
X35936002Y-81605316D01*
X35913308Y-81586692D01*
X35894684Y-81563998D01*
X35880844Y-81538106D01*
X35872323Y-81510015D01*
X35869200Y-81478309D01*
X35869200Y-81081691D01*
X35872323Y-81049985D01*
X35880844Y-81021894D01*
X35894684Y-80996002D01*
X35913308Y-80973308D01*
X35936002Y-80954684D01*
X35961894Y-80940844D01*
X35989985Y-80932323D01*
X36021691Y-80929200D01*
X37768309Y-80929200D01*
X37800015Y-80932323D01*
G37*
G36*
X42750015Y-80932323D02*
G01*
X42778106Y-80940844D01*
X42803998Y-80954684D01*
X42826692Y-80973308D01*
X42845316Y-80996002D01*
X42859156Y-81021894D01*
X42867677Y-81049985D01*
X42870800Y-81081691D01*
X42870800Y-81478309D01*
X42867677Y-81510015D01*
X42859156Y-81538106D01*
X42845316Y-81563998D01*
X42826692Y-81586692D01*
X42803998Y-81605316D01*
X42778106Y-81619156D01*
X42750015Y-81627677D01*
X42718309Y-81630800D01*
X40971691Y-81630800D01*
X40939985Y-81627677D01*
X40911894Y-81619156D01*
X40886002Y-81605316D01*
X40863308Y-81586692D01*
X40844684Y-81563998D01*
X40830844Y-81538106D01*
X40822323Y-81510015D01*
X40819200Y-81478309D01*
X40819200Y-81081691D01*
X40822323Y-81049985D01*
X40830844Y-81021894D01*
X40844684Y-80996002D01*
X40863308Y-80973308D01*
X40886002Y-80954684D01*
X40911894Y-80940844D01*
X40939985Y-80932323D01*
X40971691Y-80929200D01*
X42718309Y-80929200D01*
X42750015Y-80932323D01*
G37*
G36*
X37800015Y-79662323D02*
G01*
X37828106Y-79670844D01*
X37853998Y-79684684D01*
X37876692Y-79703308D01*
X37895316Y-79726002D01*
X37909156Y-79751894D01*
X37917677Y-79779985D01*
X37920800Y-79811691D01*
X37920800Y-80208309D01*
X37917677Y-80240015D01*
X37909156Y-80268106D01*
X37895316Y-80293998D01*
X37876692Y-80316692D01*
X37853998Y-80335316D01*
X37828106Y-80349156D01*
X37800015Y-80357677D01*
X37768309Y-80360800D01*
X36021691Y-80360800D01*
X35989985Y-80357677D01*
X35961894Y-80349156D01*
X35936002Y-80335316D01*
X35913308Y-80316692D01*
X35894684Y-80293998D01*
X35880844Y-80268106D01*
X35872323Y-80240015D01*
X35869200Y-80208309D01*
X35869200Y-79811691D01*
X35872323Y-79779985D01*
X35880844Y-79751894D01*
X35894684Y-79726002D01*
X35913308Y-79703308D01*
X35936002Y-79684684D01*
X35961894Y-79670844D01*
X35989985Y-79662323D01*
X36021691Y-79659200D01*
X37768309Y-79659200D01*
X37800015Y-79662323D01*
G37*
G36*
X42750015Y-79662323D02*
G01*
X42778106Y-79670844D01*
X42803998Y-79684684D01*
X42826692Y-79703308D01*
X42845316Y-79726002D01*
X42859156Y-79751894D01*
X42867677Y-79779985D01*
X42870800Y-79811691D01*
X42870800Y-80208309D01*
X42867677Y-80240015D01*
X42859156Y-80268106D01*
X42845316Y-80293998D01*
X42826692Y-80316692D01*
X42803998Y-80335316D01*
X42778106Y-80349156D01*
X42750015Y-80357677D01*
X42718309Y-80360800D01*
X40971691Y-80360800D01*
X40939985Y-80357677D01*
X40911894Y-80349156D01*
X40886002Y-80335316D01*
X40863308Y-80316692D01*
X40844684Y-80293998D01*
X40830844Y-80268106D01*
X40822323Y-80240015D01*
X40819200Y-80208309D01*
X40819200Y-79811691D01*
X40822323Y-79779985D01*
X40830844Y-79751894D01*
X40844684Y-79726002D01*
X40863308Y-79703308D01*
X40886002Y-79684684D01*
X40911894Y-79670844D01*
X40939985Y-79662323D01*
X40971691Y-79659200D01*
X42718309Y-79659200D01*
X42750015Y-79662323D01*
G37*
G36*
X27282699Y-77819049D02*
G01*
X27327648Y-77832684D01*
X27369072Y-77854826D01*
X27405379Y-77884621D01*
X27435174Y-77920928D01*
X27457316Y-77962352D01*
X27470951Y-78007301D01*
X27475800Y-78056533D01*
X27475800Y-79423467D01*
X27470951Y-79472699D01*
X27457316Y-79517648D01*
X27435174Y-79559072D01*
X27405379Y-79595379D01*
X27369072Y-79625174D01*
X27327648Y-79647316D01*
X27282699Y-79660951D01*
X27233467Y-79665800D01*
X26366533Y-79665800D01*
X26317301Y-79660951D01*
X26272352Y-79647316D01*
X26230928Y-79625174D01*
X26194621Y-79595379D01*
X26164826Y-79559072D01*
X26142684Y-79517648D01*
X26129049Y-79472699D01*
X26124200Y-79423467D01*
X26124200Y-78056533D01*
X26129049Y-78007301D01*
X26142684Y-77962352D01*
X26164826Y-77920928D01*
X26194621Y-77884621D01*
X26230928Y-77854826D01*
X26272352Y-77832684D01*
X26317301Y-77819049D01*
X26366533Y-77814200D01*
X27233467Y-77814200D01*
X27282699Y-77819049D01*
G37*
G36*
X24482699Y-77819049D02*
G01*
X24527648Y-77832684D01*
X24569072Y-77854826D01*
X24605379Y-77884621D01*
X24635174Y-77920928D01*
X24657316Y-77962352D01*
X24670951Y-78007301D01*
X24675800Y-78056533D01*
X24675800Y-79423467D01*
X24670951Y-79472699D01*
X24657316Y-79517648D01*
X24635174Y-79559072D01*
X24605379Y-79595379D01*
X24569072Y-79625174D01*
X24527648Y-79647316D01*
X24482699Y-79660951D01*
X24433467Y-79665800D01*
X23566533Y-79665800D01*
X23517301Y-79660951D01*
X23472352Y-79647316D01*
X23430928Y-79625174D01*
X23394621Y-79595379D01*
X23364826Y-79559072D01*
X23342684Y-79517648D01*
X23329049Y-79472699D01*
X23324200Y-79423467D01*
X23324200Y-78056533D01*
X23329049Y-78007301D01*
X23342684Y-77962352D01*
X23364826Y-77920928D01*
X23394621Y-77884621D01*
X23430928Y-77854826D01*
X23472352Y-77832684D01*
X23517301Y-77819049D01*
X23566533Y-77814200D01*
X24433467Y-77814200D01*
X24482699Y-77819049D01*
G37*
G36*
X52967754Y-77873817D02*
G01*
X53131689Y-77941721D01*
X53279227Y-78040303D01*
X53404697Y-78165773D01*
X53503279Y-78313311D01*
X53571183Y-78477246D01*
X53605800Y-78651279D01*
X53605800Y-78828721D01*
X53571183Y-79002754D01*
X53503279Y-79166689D01*
X53404697Y-79314227D01*
X53279227Y-79439697D01*
X53131689Y-79538279D01*
X52967754Y-79606183D01*
X52793721Y-79640800D01*
X52616279Y-79640800D01*
X52442246Y-79606183D01*
X52278311Y-79538279D01*
X52130773Y-79439697D01*
X52005303Y-79314227D01*
X51906721Y-79166689D01*
X51838817Y-79002754D01*
X51804200Y-78828721D01*
X51804200Y-78651279D01*
X51838817Y-78477246D01*
X51906721Y-78313311D01*
X52005303Y-78165773D01*
X52130773Y-78040303D01*
X52278311Y-77941721D01*
X52442246Y-77873817D01*
X52616279Y-77839200D01*
X52793721Y-77839200D01*
X52967754Y-77873817D01*
G37*
G36*
X78367754Y-77873817D02*
G01*
X78531689Y-77941721D01*
X78679227Y-78040303D01*
X78804697Y-78165773D01*
X78903279Y-78313311D01*
X78971183Y-78477246D01*
X79005800Y-78651279D01*
X79005800Y-78828721D01*
X78971183Y-79002754D01*
X78903279Y-79166689D01*
X78804697Y-79314227D01*
X78679227Y-79439697D01*
X78531689Y-79538279D01*
X78367754Y-79606183D01*
X78193721Y-79640800D01*
X78016279Y-79640800D01*
X77842246Y-79606183D01*
X77678311Y-79538279D01*
X77530773Y-79439697D01*
X77405303Y-79314227D01*
X77306721Y-79166689D01*
X77238817Y-79002754D01*
X77204200Y-78828721D01*
X77204200Y-78651279D01*
X77238817Y-78477246D01*
X77306721Y-78313311D01*
X77405303Y-78165773D01*
X77530773Y-78040303D01*
X77678311Y-77941721D01*
X77842246Y-77873817D01*
X78016279Y-77839200D01*
X78193721Y-77839200D01*
X78367754Y-77873817D01*
G37*
G36*
X68207754Y-77873817D02*
G01*
X68371689Y-77941721D01*
X68519227Y-78040303D01*
X68644697Y-78165773D01*
X68743279Y-78313311D01*
X68811183Y-78477246D01*
X68845800Y-78651279D01*
X68845800Y-78828721D01*
X68811183Y-79002754D01*
X68743279Y-79166689D01*
X68644697Y-79314227D01*
X68519227Y-79439697D01*
X68371689Y-79538279D01*
X68207754Y-79606183D01*
X68033721Y-79640800D01*
X67856279Y-79640800D01*
X67682246Y-79606183D01*
X67518311Y-79538279D01*
X67370773Y-79439697D01*
X67245303Y-79314227D01*
X67146721Y-79166689D01*
X67078817Y-79002754D01*
X67044200Y-78828721D01*
X67044200Y-78651279D01*
X67078817Y-78477246D01*
X67146721Y-78313311D01*
X67245303Y-78165773D01*
X67370773Y-78040303D01*
X67518311Y-77941721D01*
X67682246Y-77873817D01*
X67856279Y-77839200D01*
X68033721Y-77839200D01*
X68207754Y-77873817D01*
G37*
G36*
X42750015Y-78392323D02*
G01*
X42778106Y-78400844D01*
X42803998Y-78414684D01*
X42826692Y-78433308D01*
X42845316Y-78456002D01*
X42859156Y-78481894D01*
X42867677Y-78509985D01*
X42870800Y-78541691D01*
X42870800Y-78938309D01*
X42867677Y-78970015D01*
X42859156Y-78998106D01*
X42845316Y-79023998D01*
X42826692Y-79046692D01*
X42803998Y-79065316D01*
X42778106Y-79079156D01*
X42750015Y-79087677D01*
X42718309Y-79090800D01*
X40971691Y-79090800D01*
X40939985Y-79087677D01*
X40911894Y-79079156D01*
X40886002Y-79065316D01*
X40863308Y-79046692D01*
X40844684Y-79023998D01*
X40830844Y-78998106D01*
X40822323Y-78970015D01*
X40819200Y-78938309D01*
X40819200Y-78541691D01*
X40822323Y-78509985D01*
X40830844Y-78481894D01*
X40844684Y-78456002D01*
X40863308Y-78433308D01*
X40886002Y-78414684D01*
X40911894Y-78400844D01*
X40939985Y-78392323D01*
X40971691Y-78389200D01*
X42718309Y-78389200D01*
X42750015Y-78392323D01*
G37*
G36*
X37800015Y-78392323D02*
G01*
X37828106Y-78400844D01*
X37853998Y-78414684D01*
X37876692Y-78433308D01*
X37895316Y-78456002D01*
X37909156Y-78481894D01*
X37917677Y-78509985D01*
X37920800Y-78541691D01*
X37920800Y-78938309D01*
X37917677Y-78970015D01*
X37909156Y-78998106D01*
X37895316Y-79023998D01*
X37876692Y-79046692D01*
X37853998Y-79065316D01*
X37828106Y-79079156D01*
X37800015Y-79087677D01*
X37768309Y-79090800D01*
X36021691Y-79090800D01*
X35989985Y-79087677D01*
X35961894Y-79079156D01*
X35936002Y-79065316D01*
X35913308Y-79046692D01*
X35894684Y-79023998D01*
X35880844Y-78998106D01*
X35872323Y-78970015D01*
X35869200Y-78938309D01*
X35869200Y-78541691D01*
X35872323Y-78509985D01*
X35880844Y-78481894D01*
X35894684Y-78456002D01*
X35913308Y-78433308D01*
X35936002Y-78414684D01*
X35961894Y-78400844D01*
X35989985Y-78392323D01*
X36021691Y-78389200D01*
X37768309Y-78389200D01*
X37800015Y-78392323D01*
G37*
G36*
X37800015Y-77122323D02*
G01*
X37828106Y-77130844D01*
X37853998Y-77144684D01*
X37876692Y-77163308D01*
X37895316Y-77186002D01*
X37909156Y-77211894D01*
X37917677Y-77239985D01*
X37920800Y-77271691D01*
X37920800Y-77668309D01*
X37917677Y-77700015D01*
X37909156Y-77728106D01*
X37895316Y-77753998D01*
X37876692Y-77776692D01*
X37853998Y-77795316D01*
X37828106Y-77809156D01*
X37800015Y-77817677D01*
X37768309Y-77820800D01*
X36021691Y-77820800D01*
X35989985Y-77817677D01*
X35961894Y-77809156D01*
X35936002Y-77795316D01*
X35913308Y-77776692D01*
X35894684Y-77753998D01*
X35880844Y-77728106D01*
X35872323Y-77700015D01*
X35869200Y-77668309D01*
X35869200Y-77271691D01*
X35872323Y-77239985D01*
X35880844Y-77211894D01*
X35894684Y-77186002D01*
X35913308Y-77163308D01*
X35936002Y-77144684D01*
X35961894Y-77130844D01*
X35989985Y-77122323D01*
X36021691Y-77119200D01*
X37768309Y-77119200D01*
X37800015Y-77122323D01*
G37*
G36*
X42750015Y-77122323D02*
G01*
X42778106Y-77130844D01*
X42803998Y-77144684D01*
X42826692Y-77163308D01*
X42845316Y-77186002D01*
X42859156Y-77211894D01*
X42867677Y-77239985D01*
X42870800Y-77271691D01*
X42870800Y-77668309D01*
X42867677Y-77700015D01*
X42859156Y-77728106D01*
X42845316Y-77753998D01*
X42826692Y-77776692D01*
X42803998Y-77795316D01*
X42778106Y-77809156D01*
X42750015Y-77817677D01*
X42718309Y-77820800D01*
X40971691Y-77820800D01*
X40939985Y-77817677D01*
X40911894Y-77809156D01*
X40886002Y-77795316D01*
X40863308Y-77776692D01*
X40844684Y-77753998D01*
X40830844Y-77728106D01*
X40822323Y-77700015D01*
X40819200Y-77668309D01*
X40819200Y-77271691D01*
X40822323Y-77239985D01*
X40830844Y-77211894D01*
X40844684Y-77186002D01*
X40863308Y-77163308D01*
X40886002Y-77144684D01*
X40911894Y-77130844D01*
X40939985Y-77122323D01*
X40971691Y-77119200D01*
X42718309Y-77119200D01*
X42750015Y-77122323D01*
G37*
G36*
X68207754Y-75333817D02*
G01*
X68371689Y-75401721D01*
X68519227Y-75500303D01*
X68644697Y-75625773D01*
X68743279Y-75773311D01*
X68811183Y-75937246D01*
X68845800Y-76111279D01*
X68845800Y-76288721D01*
X68811183Y-76462754D01*
X68743279Y-76626689D01*
X68644697Y-76774227D01*
X68519227Y-76899697D01*
X68371689Y-76998279D01*
X68207754Y-77066183D01*
X68033721Y-77100800D01*
X67856279Y-77100800D01*
X67682246Y-77066183D01*
X67518311Y-76998279D01*
X67370773Y-76899697D01*
X67245303Y-76774227D01*
X67146721Y-76626689D01*
X67078817Y-76462754D01*
X67044200Y-76288721D01*
X67044200Y-76111279D01*
X67078817Y-75937246D01*
X67146721Y-75773311D01*
X67245303Y-75625773D01*
X67370773Y-75500303D01*
X67518311Y-75401721D01*
X67682246Y-75333817D01*
X67856279Y-75299200D01*
X68033721Y-75299200D01*
X68207754Y-75333817D01*
G37*
G36*
X78367754Y-75333817D02*
G01*
X78531689Y-75401721D01*
X78679227Y-75500303D01*
X78804697Y-75625773D01*
X78903279Y-75773311D01*
X78971183Y-75937246D01*
X79005800Y-76111279D01*
X79005800Y-76288721D01*
X78971183Y-76462754D01*
X78903279Y-76626689D01*
X78804697Y-76774227D01*
X78679227Y-76899697D01*
X78531689Y-76998279D01*
X78367754Y-77066183D01*
X78193721Y-77100800D01*
X78016279Y-77100800D01*
X77842246Y-77066183D01*
X77678311Y-76998279D01*
X77530773Y-76899697D01*
X77405303Y-76774227D01*
X77306721Y-76626689D01*
X77238817Y-76462754D01*
X77204200Y-76288721D01*
X77204200Y-76111279D01*
X77238817Y-75937246D01*
X77306721Y-75773311D01*
X77405303Y-75625773D01*
X77530773Y-75500303D01*
X77678311Y-75401721D01*
X77842246Y-75333817D01*
X78016279Y-75299200D01*
X78193721Y-75299200D01*
X78367754Y-75333817D01*
G37*
G36*
X52967754Y-75333817D02*
G01*
X53131689Y-75401721D01*
X53279227Y-75500303D01*
X53404697Y-75625773D01*
X53503279Y-75773311D01*
X53571183Y-75937246D01*
X53605800Y-76111279D01*
X53605800Y-76288721D01*
X53571183Y-76462754D01*
X53503279Y-76626689D01*
X53404697Y-76774227D01*
X53279227Y-76899697D01*
X53131689Y-76998279D01*
X52967754Y-77066183D01*
X52793721Y-77100800D01*
X52616279Y-77100800D01*
X52442246Y-77066183D01*
X52278311Y-76998279D01*
X52130773Y-76899697D01*
X52005303Y-76774227D01*
X51906721Y-76626689D01*
X51838817Y-76462754D01*
X51804200Y-76288721D01*
X51804200Y-76111279D01*
X51838817Y-75937246D01*
X51906721Y-75773311D01*
X52005303Y-75625773D01*
X52130773Y-75500303D01*
X52278311Y-75401721D01*
X52442246Y-75333817D01*
X52616279Y-75299200D01*
X52793721Y-75299200D01*
X52967754Y-75333817D01*
G37*
G36*
X42522699Y-74644049D02*
G01*
X42567648Y-74657684D01*
X42609072Y-74679826D01*
X42645379Y-74709621D01*
X42675174Y-74745928D01*
X42697316Y-74787352D01*
X42710951Y-74832301D01*
X42715800Y-74881533D01*
X42715800Y-76248467D01*
X42710951Y-76297699D01*
X42697316Y-76342648D01*
X42675174Y-76384072D01*
X42645379Y-76420379D01*
X42609072Y-76450174D01*
X42567648Y-76472316D01*
X42522699Y-76485951D01*
X42473467Y-76490800D01*
X41606533Y-76490800D01*
X41557301Y-76485951D01*
X41512352Y-76472316D01*
X41470928Y-76450174D01*
X41434621Y-76420379D01*
X41404826Y-76384072D01*
X41382684Y-76342648D01*
X41369049Y-76297699D01*
X41364200Y-76248467D01*
X41364200Y-74881533D01*
X41369049Y-74832301D01*
X41382684Y-74787352D01*
X41404826Y-74745928D01*
X41434621Y-74709621D01*
X41470928Y-74679826D01*
X41512352Y-74657684D01*
X41557301Y-74644049D01*
X41606533Y-74639200D01*
X42473467Y-74639200D01*
X42522699Y-74644049D01*
G37*
G36*
X39722699Y-74644049D02*
G01*
X39767648Y-74657684D01*
X39809072Y-74679826D01*
X39845379Y-74709621D01*
X39875174Y-74745928D01*
X39897316Y-74787352D01*
X39910951Y-74832301D01*
X39915800Y-74881533D01*
X39915800Y-76248467D01*
X39910951Y-76297699D01*
X39897316Y-76342648D01*
X39875174Y-76384072D01*
X39845379Y-76420379D01*
X39809072Y-76450174D01*
X39767648Y-76472316D01*
X39722699Y-76485951D01*
X39673467Y-76490800D01*
X38806533Y-76490800D01*
X38757301Y-76485951D01*
X38712352Y-76472316D01*
X38670928Y-76450174D01*
X38634621Y-76420379D01*
X38604826Y-76384072D01*
X38582684Y-76342648D01*
X38569049Y-76297699D01*
X38564200Y-76248467D01*
X38564200Y-74881533D01*
X38569049Y-74832301D01*
X38582684Y-74787352D01*
X38604826Y-74745928D01*
X38634621Y-74709621D01*
X38670928Y-74679826D01*
X38712352Y-74657684D01*
X38757301Y-74644049D01*
X38806533Y-74639200D01*
X39673467Y-74639200D01*
X39722699Y-74644049D01*
G37*
G36*
X25646781Y-72031510D02*
G01*
X25646784Y-72031511D01*
X25646785Y-72031511D01*
X25713013Y-72051601D01*
X25807162Y-72080161D01*
X25954967Y-72159164D01*
X26071712Y-72254974D01*
X26084517Y-72265483D01*
X26190837Y-72395034D01*
X26195083Y-72402978D01*
X26269839Y-72542837D01*
X26318490Y-72703218D01*
X26330800Y-72828204D01*
X26330800Y-73811796D01*
X26318490Y-73936782D01*
X26269839Y-74097163D01*
X26230338Y-74171064D01*
X26190837Y-74244966D01*
X26084517Y-74374517D01*
X25954966Y-74480837D01*
X25881064Y-74520338D01*
X25807163Y-74559839D01*
X25713014Y-74588399D01*
X25646786Y-74608489D01*
X25646785Y-74608489D01*
X25646782Y-74608490D01*
X25480000Y-74624917D01*
X25313219Y-74608490D01*
X25313216Y-74608489D01*
X25313215Y-74608489D01*
X25246987Y-74588399D01*
X25152838Y-74559839D01*
X25078937Y-74520338D01*
X25005035Y-74480837D01*
X24875484Y-74374517D01*
X24769164Y-74244966D01*
X24729663Y-74171064D01*
X24690162Y-74097163D01*
X24641511Y-73936782D01*
X24629200Y-73811795D01*
X24629200Y-72828205D01*
X24641510Y-72703219D01*
X24641512Y-72703214D01*
X24690161Y-72542839D01*
X24690161Y-72542838D01*
X24769164Y-72395033D01*
X24875481Y-72265485D01*
X24875483Y-72265483D01*
X25005034Y-72159163D01*
X25082637Y-72117684D01*
X25152837Y-72080161D01*
X25246986Y-72051601D01*
X25313214Y-72031511D01*
X25313215Y-72031511D01*
X25313218Y-72031510D01*
X25480000Y-72015083D01*
X25646781Y-72031510D01*
G37*
G36*
X23106781Y-72031510D02*
G01*
X23106784Y-72031511D01*
X23106785Y-72031511D01*
X23173013Y-72051601D01*
X23267162Y-72080161D01*
X23414967Y-72159164D01*
X23531712Y-72254974D01*
X23544517Y-72265483D01*
X23650837Y-72395034D01*
X23655083Y-72402978D01*
X23729839Y-72542837D01*
X23778490Y-72703218D01*
X23790800Y-72828204D01*
X23790800Y-73811796D01*
X23778490Y-73936782D01*
X23729839Y-74097163D01*
X23690338Y-74171064D01*
X23650837Y-74244966D01*
X23544517Y-74374517D01*
X23414966Y-74480837D01*
X23341064Y-74520338D01*
X23267163Y-74559839D01*
X23173014Y-74588399D01*
X23106786Y-74608489D01*
X23106785Y-74608489D01*
X23106782Y-74608490D01*
X22940000Y-74624917D01*
X22773219Y-74608490D01*
X22773216Y-74608489D01*
X22773215Y-74608489D01*
X22706987Y-74588399D01*
X22612838Y-74559839D01*
X22538937Y-74520338D01*
X22465035Y-74480837D01*
X22335484Y-74374517D01*
X22229164Y-74244966D01*
X22189663Y-74171064D01*
X22150162Y-74097163D01*
X22101511Y-73936782D01*
X22089200Y-73811795D01*
X22089200Y-72828205D01*
X22101510Y-72703219D01*
X22101512Y-72703214D01*
X22150161Y-72542839D01*
X22150161Y-72542838D01*
X22229164Y-72395033D01*
X22335481Y-72265485D01*
X22335483Y-72265483D01*
X22465034Y-72159163D01*
X22542637Y-72117684D01*
X22612837Y-72080161D01*
X22706986Y-72051601D01*
X22773214Y-72031511D01*
X22773215Y-72031511D01*
X22773218Y-72031510D01*
X22940000Y-72015083D01*
X23106781Y-72031510D01*
G37*
G36*
X68207754Y-72793817D02*
G01*
X68371689Y-72861721D01*
X68519227Y-72960303D01*
X68644697Y-73085773D01*
X68743279Y-73233311D01*
X68811183Y-73397246D01*
X68845800Y-73571279D01*
X68845800Y-73748721D01*
X68811183Y-73922754D01*
X68743279Y-74086689D01*
X68644697Y-74234227D01*
X68519227Y-74359697D01*
X68371689Y-74458279D01*
X68207754Y-74526183D01*
X68033721Y-74560800D01*
X67856279Y-74560800D01*
X67682246Y-74526183D01*
X67518311Y-74458279D01*
X67370773Y-74359697D01*
X67245303Y-74234227D01*
X67146721Y-74086689D01*
X67078817Y-73922754D01*
X67044200Y-73748721D01*
X67044200Y-73571279D01*
X67078817Y-73397246D01*
X67146721Y-73233311D01*
X67245303Y-73085773D01*
X67370773Y-72960303D01*
X67518311Y-72861721D01*
X67682246Y-72793817D01*
X67856279Y-72759200D01*
X68033721Y-72759200D01*
X68207754Y-72793817D01*
G37*
G36*
X78367754Y-72793817D02*
G01*
X78531689Y-72861721D01*
X78679227Y-72960303D01*
X78804697Y-73085773D01*
X78903279Y-73233311D01*
X78971183Y-73397246D01*
X79005800Y-73571279D01*
X79005800Y-73748721D01*
X78971183Y-73922754D01*
X78903279Y-74086689D01*
X78804697Y-74234227D01*
X78679227Y-74359697D01*
X78531689Y-74458279D01*
X78367754Y-74526183D01*
X78193721Y-74560800D01*
X78016279Y-74560800D01*
X77842246Y-74526183D01*
X77678311Y-74458279D01*
X77530773Y-74359697D01*
X77405303Y-74234227D01*
X77306721Y-74086689D01*
X77238817Y-73922754D01*
X77204200Y-73748721D01*
X77204200Y-73571279D01*
X77238817Y-73397246D01*
X77306721Y-73233311D01*
X77405303Y-73085773D01*
X77530773Y-72960303D01*
X77678311Y-72861721D01*
X77842246Y-72793817D01*
X78016279Y-72759200D01*
X78193721Y-72759200D01*
X78367754Y-72793817D01*
G37*
G36*
X52967754Y-72793817D02*
G01*
X53131689Y-72861721D01*
X53279227Y-72960303D01*
X53404697Y-73085773D01*
X53503279Y-73233311D01*
X53571183Y-73397246D01*
X53605800Y-73571279D01*
X53605800Y-73748721D01*
X53571183Y-73922754D01*
X53503279Y-74086689D01*
X53404697Y-74234227D01*
X53279227Y-74359697D01*
X53131689Y-74458279D01*
X52967754Y-74526183D01*
X52793721Y-74560800D01*
X52616279Y-74560800D01*
X52442246Y-74526183D01*
X52278311Y-74458279D01*
X52130773Y-74359697D01*
X52005303Y-74234227D01*
X51906721Y-74086689D01*
X51838817Y-73922754D01*
X51804200Y-73748721D01*
X51804200Y-73571279D01*
X51838817Y-73397246D01*
X51906721Y-73233311D01*
X52005303Y-73085773D01*
X52130773Y-72960303D01*
X52278311Y-72861721D01*
X52442246Y-72793817D01*
X52616279Y-72759200D01*
X52793721Y-72759200D01*
X52967754Y-72793817D01*
G37*
G36*
X39722699Y-72104049D02*
G01*
X39767648Y-72117684D01*
X39809072Y-72139826D01*
X39845379Y-72169621D01*
X39875174Y-72205928D01*
X39897316Y-72247352D01*
X39910951Y-72292301D01*
X39915800Y-72341533D01*
X39915800Y-73708467D01*
X39910951Y-73757699D01*
X39897316Y-73802648D01*
X39875174Y-73844072D01*
X39845379Y-73880379D01*
X39809072Y-73910174D01*
X39767648Y-73932316D01*
X39722699Y-73945951D01*
X39673467Y-73950800D01*
X38806533Y-73950800D01*
X38757301Y-73945951D01*
X38712352Y-73932316D01*
X38670928Y-73910174D01*
X38634621Y-73880379D01*
X38604826Y-73844072D01*
X38582684Y-73802648D01*
X38569049Y-73757699D01*
X38564200Y-73708467D01*
X38564200Y-72341533D01*
X38569049Y-72292301D01*
X38582684Y-72247352D01*
X38604826Y-72205928D01*
X38634621Y-72169621D01*
X38670928Y-72139826D01*
X38712352Y-72117684D01*
X38757301Y-72104049D01*
X38806533Y-72099200D01*
X39673467Y-72099200D01*
X39722699Y-72104049D01*
G37*
G36*
X42522699Y-72104049D02*
G01*
X42567648Y-72117684D01*
X42609072Y-72139826D01*
X42645379Y-72169621D01*
X42675174Y-72205928D01*
X42697316Y-72247352D01*
X42710951Y-72292301D01*
X42715800Y-72341533D01*
X42715800Y-73708467D01*
X42710951Y-73757699D01*
X42697316Y-73802648D01*
X42675174Y-73844072D01*
X42645379Y-73880379D01*
X42609072Y-73910174D01*
X42567648Y-73932316D01*
X42522699Y-73945951D01*
X42473467Y-73950800D01*
X41606533Y-73950800D01*
X41557301Y-73945951D01*
X41512352Y-73932316D01*
X41470928Y-73910174D01*
X41434621Y-73880379D01*
X41404826Y-73844072D01*
X41382684Y-73802648D01*
X41369049Y-73757699D01*
X41364200Y-73708467D01*
X41364200Y-72341533D01*
X41369049Y-72292301D01*
X41382684Y-72247352D01*
X41404826Y-72205928D01*
X41434621Y-72169621D01*
X41470928Y-72139826D01*
X41512352Y-72117684D01*
X41557301Y-72104049D01*
X41606533Y-72099200D01*
X42473467Y-72099200D01*
X42522699Y-72104049D01*
G37*
G36*
X14838585Y-72254974D02*
G01*
X14984322Y-72315339D01*
X15115482Y-72402978D01*
X15227022Y-72514518D01*
X15314661Y-72645678D01*
X15375026Y-72791415D01*
X15405800Y-72946128D01*
X15405800Y-73103872D01*
X15375026Y-73258585D01*
X15314661Y-73404322D01*
X15227022Y-73535482D01*
X15115482Y-73647022D01*
X14984322Y-73734661D01*
X14838585Y-73795026D01*
X14683872Y-73825800D01*
X14526128Y-73825800D01*
X14371415Y-73795026D01*
X14225678Y-73734661D01*
X14094518Y-73647022D01*
X13982978Y-73535482D01*
X13895339Y-73404322D01*
X13834974Y-73258585D01*
X13804200Y-73103872D01*
X13804200Y-72946128D01*
X13834974Y-72791415D01*
X13895339Y-72645678D01*
X13982978Y-72514518D01*
X14094518Y-72402978D01*
X14225678Y-72315339D01*
X14371415Y-72254974D01*
X14526128Y-72224200D01*
X14683872Y-72224200D01*
X14838585Y-72254974D01*
G37*
G36*
X52967754Y-70253817D02*
G01*
X53131689Y-70321721D01*
X53279227Y-70420303D01*
X53404697Y-70545773D01*
X53503279Y-70693311D01*
X53571183Y-70857246D01*
X53605800Y-71031279D01*
X53605800Y-71208721D01*
X53571183Y-71382754D01*
X53503279Y-71546689D01*
X53404697Y-71694227D01*
X53279227Y-71819697D01*
X53131689Y-71918279D01*
X52967754Y-71986183D01*
X52793721Y-72020800D01*
X52616279Y-72020800D01*
X52442246Y-71986183D01*
X52278311Y-71918279D01*
X52130773Y-71819697D01*
X52005303Y-71694227D01*
X51906721Y-71546689D01*
X51838817Y-71382754D01*
X51804200Y-71208721D01*
X51804200Y-71031279D01*
X51838817Y-70857246D01*
X51906721Y-70693311D01*
X52005303Y-70545773D01*
X52130773Y-70420303D01*
X52278311Y-70321721D01*
X52442246Y-70253817D01*
X52616279Y-70219200D01*
X52793721Y-70219200D01*
X52967754Y-70253817D01*
G37*
G36*
X78367754Y-70253817D02*
G01*
X78531689Y-70321721D01*
X78679227Y-70420303D01*
X78804697Y-70545773D01*
X78903279Y-70693311D01*
X78971183Y-70857246D01*
X79005800Y-71031279D01*
X79005800Y-71208721D01*
X78971183Y-71382754D01*
X78903279Y-71546689D01*
X78804697Y-71694227D01*
X78679227Y-71819697D01*
X78531689Y-71918279D01*
X78367754Y-71986183D01*
X78193721Y-72020800D01*
X78016279Y-72020800D01*
X77842246Y-71986183D01*
X77678311Y-71918279D01*
X77530773Y-71819697D01*
X77405303Y-71694227D01*
X77306721Y-71546689D01*
X77238817Y-71382754D01*
X77204200Y-71208721D01*
X77204200Y-71031279D01*
X77238817Y-70857246D01*
X77306721Y-70693311D01*
X77405303Y-70545773D01*
X77530773Y-70420303D01*
X77678311Y-70321721D01*
X77842246Y-70253817D01*
X78016279Y-70219200D01*
X78193721Y-70219200D01*
X78367754Y-70253817D01*
G37*
G36*
X68207754Y-70253817D02*
G01*
X68371689Y-70321721D01*
X68519227Y-70420303D01*
X68644697Y-70545773D01*
X68743279Y-70693311D01*
X68811183Y-70857246D01*
X68845800Y-71031279D01*
X68845800Y-71208721D01*
X68811183Y-71382754D01*
X68743279Y-71546689D01*
X68644697Y-71694227D01*
X68519227Y-71819697D01*
X68371689Y-71918279D01*
X68207754Y-71986183D01*
X68033721Y-72020800D01*
X67856279Y-72020800D01*
X67682246Y-71986183D01*
X67518311Y-71918279D01*
X67370773Y-71819697D01*
X67245303Y-71694227D01*
X67146721Y-71546689D01*
X67078817Y-71382754D01*
X67044200Y-71208721D01*
X67044200Y-71031279D01*
X67078817Y-70857246D01*
X67146721Y-70693311D01*
X67245303Y-70545773D01*
X67370773Y-70420303D01*
X67518311Y-70321721D01*
X67682246Y-70253817D01*
X67856279Y-70219200D01*
X68033721Y-70219200D01*
X68207754Y-70253817D01*
G37*
G36*
X20753014Y-64715255D02*
G01*
X20753017Y-64715256D01*
X21092470Y-64818228D01*
X21364915Y-64963853D01*
X21405313Y-64985446D01*
X21592663Y-65139200D01*
X21679519Y-65210481D01*
X21904555Y-65484688D01*
X22071772Y-65797529D01*
X22118412Y-65951280D01*
X22174745Y-66136985D01*
X22200800Y-66401528D01*
X22200800Y-70078472D01*
X22174745Y-70343015D01*
X22174744Y-70343018D01*
X22071772Y-70682471D01*
X21904555Y-70995312D01*
X21679519Y-71269519D01*
X21405312Y-71494555D01*
X21092471Y-71661772D01*
X20791836Y-71752969D01*
X20753015Y-71764745D01*
X20400000Y-71799514D01*
X20046986Y-71764745D01*
X20008165Y-71752969D01*
X19707530Y-71661772D01*
X19394689Y-71494555D01*
X19120482Y-71269519D01*
X18895446Y-70995312D01*
X18728229Y-70682471D01*
X18625257Y-70343018D01*
X18625256Y-70343015D01*
X18599201Y-70078472D01*
X18599200Y-66401529D01*
X18625255Y-66136986D01*
X18637031Y-66098165D01*
X18728228Y-65797530D01*
X18895445Y-65484689D01*
X18895446Y-65484687D01*
X19120479Y-65210483D01*
X19120481Y-65210481D01*
X19394688Y-64985445D01*
X19707529Y-64818228D01*
X20046982Y-64715256D01*
X20046985Y-64715255D01*
X20400000Y-64680486D01*
X20753014Y-64715255D01*
G37*
G36*
X30913014Y-64715255D02*
G01*
X30913017Y-64715256D01*
X31252470Y-64818228D01*
X31524915Y-64963853D01*
X31565313Y-64985446D01*
X31752663Y-65139200D01*
X31839519Y-65210481D01*
X32064555Y-65484688D01*
X32231772Y-65797529D01*
X32278412Y-65951280D01*
X32334745Y-66136985D01*
X32360800Y-66401528D01*
X32360800Y-70078472D01*
X32334745Y-70343015D01*
X32334744Y-70343018D01*
X32231772Y-70682471D01*
X32064555Y-70995312D01*
X31839519Y-71269519D01*
X31565312Y-71494555D01*
X31252471Y-71661772D01*
X30951836Y-71752969D01*
X30913015Y-71764745D01*
X30560000Y-71799514D01*
X30206986Y-71764745D01*
X30168165Y-71752969D01*
X29867530Y-71661772D01*
X29554689Y-71494555D01*
X29280482Y-71269519D01*
X29055446Y-70995312D01*
X28888229Y-70682471D01*
X28785257Y-70343018D01*
X28785256Y-70343015D01*
X28759201Y-70078472D01*
X28759200Y-66401529D01*
X28785255Y-66136986D01*
X28797031Y-66098165D01*
X28888228Y-65797530D01*
X29055445Y-65484689D01*
X29055446Y-65484687D01*
X29280479Y-65210483D01*
X29280481Y-65210481D01*
X29554688Y-64985445D01*
X29867529Y-64818228D01*
X30206982Y-64715256D01*
X30206985Y-64715255D01*
X30560000Y-64680486D01*
X30913014Y-64715255D01*
G37*
G36*
X14838585Y-68444974D02*
G01*
X14984322Y-68505339D01*
X15115482Y-68592978D01*
X15227022Y-68704518D01*
X15314661Y-68835678D01*
X15375026Y-68981415D01*
X15405800Y-69136128D01*
X15405800Y-69293872D01*
X15375026Y-69448585D01*
X15314661Y-69594322D01*
X15227022Y-69725482D01*
X15115482Y-69837022D01*
X14984322Y-69924661D01*
X14838585Y-69985026D01*
X14683872Y-70015800D01*
X14526128Y-70015800D01*
X14371415Y-69985026D01*
X14225678Y-69924661D01*
X14094518Y-69837022D01*
X13982978Y-69725482D01*
X13895339Y-69594322D01*
X13834974Y-69448585D01*
X13804200Y-69293872D01*
X13804200Y-69136128D01*
X13834974Y-68981415D01*
X13895339Y-68835678D01*
X13982978Y-68704518D01*
X14094518Y-68592978D01*
X14225678Y-68505339D01*
X14371415Y-68444974D01*
X14526128Y-68414200D01*
X14683872Y-68414200D01*
X14838585Y-68444974D01*
G37*
G36*
X52967754Y-67713817D02*
G01*
X53131689Y-67781721D01*
X53279227Y-67880303D01*
X53404697Y-68005773D01*
X53503279Y-68153311D01*
X53571183Y-68317246D01*
X53605800Y-68491279D01*
X53605800Y-68668721D01*
X53571183Y-68842754D01*
X53503279Y-69006689D01*
X53404697Y-69154227D01*
X53279227Y-69279697D01*
X53131689Y-69378279D01*
X52967754Y-69446183D01*
X52793721Y-69480800D01*
X52616279Y-69480800D01*
X52442246Y-69446183D01*
X52278311Y-69378279D01*
X52130773Y-69279697D01*
X52005303Y-69154227D01*
X51906721Y-69006689D01*
X51838817Y-68842754D01*
X51804200Y-68668721D01*
X51804200Y-68491279D01*
X51838817Y-68317246D01*
X51906721Y-68153311D01*
X52005303Y-68005773D01*
X52130773Y-67880303D01*
X52278311Y-67781721D01*
X52442246Y-67713817D01*
X52616279Y-67679200D01*
X52793721Y-67679200D01*
X52967754Y-67713817D01*
G37*
G36*
X78367754Y-67713817D02*
G01*
X78531689Y-67781721D01*
X78679227Y-67880303D01*
X78804697Y-68005773D01*
X78903279Y-68153311D01*
X78971183Y-68317246D01*
X79005800Y-68491279D01*
X79005800Y-68668721D01*
X78971183Y-68842754D01*
X78903279Y-69006689D01*
X78804697Y-69154227D01*
X78679227Y-69279697D01*
X78531689Y-69378279D01*
X78367754Y-69446183D01*
X78193721Y-69480800D01*
X78016279Y-69480800D01*
X77842246Y-69446183D01*
X77678311Y-69378279D01*
X77530773Y-69279697D01*
X77405303Y-69154227D01*
X77306721Y-69006689D01*
X77238817Y-68842754D01*
X77204200Y-68668721D01*
X77204200Y-68491279D01*
X77238817Y-68317246D01*
X77306721Y-68153311D01*
X77405303Y-68005773D01*
X77530773Y-67880303D01*
X77678311Y-67781721D01*
X77842246Y-67713817D01*
X78016279Y-67679200D01*
X78193721Y-67679200D01*
X78367754Y-67713817D01*
G37*
G36*
X68207754Y-67713817D02*
G01*
X68371689Y-67781721D01*
X68519227Y-67880303D01*
X68644697Y-68005773D01*
X68743279Y-68153311D01*
X68811183Y-68317246D01*
X68845800Y-68491279D01*
X68845800Y-68668721D01*
X68811183Y-68842754D01*
X68743279Y-69006689D01*
X68644697Y-69154227D01*
X68519227Y-69279697D01*
X68371689Y-69378279D01*
X68207754Y-69446183D01*
X68033721Y-69480800D01*
X67856279Y-69480800D01*
X67682246Y-69446183D01*
X67518311Y-69378279D01*
X67370773Y-69279697D01*
X67245303Y-69154227D01*
X67146721Y-69006689D01*
X67078817Y-68842754D01*
X67044200Y-68668721D01*
X67044200Y-68491279D01*
X67078817Y-68317246D01*
X67146721Y-68153311D01*
X67245303Y-68005773D01*
X67370773Y-67880303D01*
X67518311Y-67781721D01*
X67682246Y-67713817D01*
X67856279Y-67679200D01*
X68033721Y-67679200D01*
X68207754Y-67713817D01*
G37*
G36*
X68207754Y-65173817D02*
G01*
X68371689Y-65241721D01*
X68519227Y-65340303D01*
X68644697Y-65465773D01*
X68743279Y-65613311D01*
X68811183Y-65777246D01*
X68845800Y-65951279D01*
X68845800Y-66128721D01*
X68811183Y-66302754D01*
X68743279Y-66466689D01*
X68644697Y-66614227D01*
X68519227Y-66739697D01*
X68371689Y-66838279D01*
X68207754Y-66906183D01*
X68033721Y-66940800D01*
X67856279Y-66940800D01*
X67682246Y-66906183D01*
X67518311Y-66838279D01*
X67370773Y-66739697D01*
X67245303Y-66614227D01*
X67146721Y-66466689D01*
X67078817Y-66302754D01*
X67044200Y-66128721D01*
X67044200Y-65951279D01*
X67078817Y-65777246D01*
X67146721Y-65613311D01*
X67245303Y-65465773D01*
X67370773Y-65340303D01*
X67518311Y-65241721D01*
X67682246Y-65173817D01*
X67856279Y-65139200D01*
X68033721Y-65139200D01*
X68207754Y-65173817D01*
G37*
G36*
X52967754Y-65173817D02*
G01*
X53131689Y-65241721D01*
X53279227Y-65340303D01*
X53404697Y-65465773D01*
X53503279Y-65613311D01*
X53571183Y-65777246D01*
X53605800Y-65951279D01*
X53605800Y-66128721D01*
X53571183Y-66302754D01*
X53503279Y-66466689D01*
X53404697Y-66614227D01*
X53279227Y-66739697D01*
X53131689Y-66838279D01*
X52967754Y-66906183D01*
X52793721Y-66940800D01*
X52616279Y-66940800D01*
X52442246Y-66906183D01*
X52278311Y-66838279D01*
X52130773Y-66739697D01*
X52005303Y-66614227D01*
X51906721Y-66466689D01*
X51838817Y-66302754D01*
X51804200Y-66128721D01*
X51804200Y-65951279D01*
X51838817Y-65777246D01*
X51906721Y-65613311D01*
X52005303Y-65465773D01*
X52130773Y-65340303D01*
X52278311Y-65241721D01*
X52442246Y-65173817D01*
X52616279Y-65139200D01*
X52793721Y-65139200D01*
X52967754Y-65173817D01*
G37*
G36*
X78367754Y-65173817D02*
G01*
X78531689Y-65241721D01*
X78679227Y-65340303D01*
X78804697Y-65465773D01*
X78903279Y-65613311D01*
X78971183Y-65777246D01*
X79005800Y-65951279D01*
X79005800Y-66128721D01*
X78971183Y-66302754D01*
X78903279Y-66466689D01*
X78804697Y-66614227D01*
X78679227Y-66739697D01*
X78531689Y-66838279D01*
X78367754Y-66906183D01*
X78193721Y-66940800D01*
X78016279Y-66940800D01*
X77842246Y-66906183D01*
X77678311Y-66838279D01*
X77530773Y-66739697D01*
X77405303Y-66614227D01*
X77306721Y-66466689D01*
X77238817Y-66302754D01*
X77204200Y-66128721D01*
X77204200Y-65951279D01*
X77238817Y-65777246D01*
X77306721Y-65613311D01*
X77405303Y-65465773D01*
X77530773Y-65340303D01*
X77678311Y-65241721D01*
X77842246Y-65173817D01*
X78016279Y-65139200D01*
X78193721Y-65139200D01*
X78367754Y-65173817D01*
G37*
G36*
X14984430Y-62249189D02*
G01*
X15221160Y-62347245D01*
X15434213Y-62489603D01*
X15615397Y-62670787D01*
X15757755Y-62883840D01*
X15855811Y-63120570D01*
X15905800Y-63371882D01*
X15905800Y-63628118D01*
X15855811Y-63879430D01*
X15757755Y-64116160D01*
X15615397Y-64329213D01*
X15434213Y-64510397D01*
X15221160Y-64652755D01*
X14984430Y-64750811D01*
X14733118Y-64800800D01*
X14476882Y-64800800D01*
X14225570Y-64750811D01*
X13988840Y-64652755D01*
X13775787Y-64510397D01*
X13594603Y-64329213D01*
X13452245Y-64116160D01*
X13354189Y-63879430D01*
X13304200Y-63628118D01*
X13304200Y-63371882D01*
X13354189Y-63120570D01*
X13452245Y-62883840D01*
X13594603Y-62670787D01*
X13775787Y-62489603D01*
X13988840Y-62347245D01*
X14225570Y-62249189D01*
X14476882Y-62199200D01*
X14733118Y-62199200D01*
X14984430Y-62249189D01*
G37*
G36*
X37209430Y-62249189D02*
G01*
X37446160Y-62347245D01*
X37659213Y-62489603D01*
X37840397Y-62670787D01*
X37982755Y-62883840D01*
X38080811Y-63120570D01*
X38130800Y-63371882D01*
X38130800Y-63628118D01*
X38080811Y-63879430D01*
X37982755Y-64116160D01*
X37840397Y-64329213D01*
X37659213Y-64510397D01*
X37446160Y-64652755D01*
X37209430Y-64750811D01*
X36958118Y-64800800D01*
X36701882Y-64800800D01*
X36450570Y-64750811D01*
X36213840Y-64652755D01*
X36000787Y-64510397D01*
X35819603Y-64329213D01*
X35677245Y-64116160D01*
X35579189Y-63879430D01*
X35529200Y-63628118D01*
X35529200Y-63371882D01*
X35579189Y-63120570D01*
X35677245Y-62883840D01*
X35819603Y-62670787D01*
X36000787Y-62489603D01*
X36213840Y-62347245D01*
X36450570Y-62249189D01*
X36701882Y-62199200D01*
X36958118Y-62199200D01*
X37209430Y-62249189D01*
G37*
G36*
X53605800Y-64400800D02*
G01*
X51804200Y-64400800D01*
X51804200Y-62599200D01*
X53605800Y-62599200D01*
X53605800Y-64400800D01*
G37*
G36*
X79005800Y-64400800D02*
G01*
X77204200Y-64400800D01*
X77204200Y-62599200D01*
X79005800Y-62599200D01*
X79005800Y-64400800D01*
G37*
G36*
X68845800Y-64400800D02*
G01*
X67044200Y-64400800D01*
X67044200Y-62599200D01*
X68845800Y-62599200D01*
X68845800Y-64400800D01*
G37*
G36*
X46620800Y-64400800D02*
G01*
X44819200Y-64400800D01*
X44819200Y-62599200D01*
X46620800Y-62599200D01*
X46620800Y-64400800D01*
G37*
G36*
X43442754Y-62633817D02*
G01*
X43606689Y-62701721D01*
X43754227Y-62800303D01*
X43879697Y-62925773D01*
X43978279Y-63073311D01*
X44046183Y-63237246D01*
X44080800Y-63411279D01*
X44080800Y-63588721D01*
X44046183Y-63762754D01*
X43978279Y-63926689D01*
X43879697Y-64074227D01*
X43754227Y-64199697D01*
X43606689Y-64298279D01*
X43442754Y-64366183D01*
X43268721Y-64400800D01*
X43091279Y-64400800D01*
X42917246Y-64366183D01*
X42753311Y-64298279D01*
X42605773Y-64199697D01*
X42480303Y-64074227D01*
X42381721Y-63926689D01*
X42313817Y-63762754D01*
X42279200Y-63588721D01*
X42279200Y-63411279D01*
X42313817Y-63237246D01*
X42381721Y-63073311D01*
X42480303Y-62925773D01*
X42605773Y-62800303D01*
X42753311Y-62701721D01*
X42917246Y-62633817D01*
X43091279Y-62599200D01*
X43268721Y-62599200D01*
X43442754Y-62633817D01*
G37*
M02*
