M48
INCH
T1C0.0130
T2C0.0276
T3C0.0350
T4C0.0394
T5C0.0791
%
G90
G05
T1
X0.875Y-3.775
X0.875Y-4.075
X1.2Y-4.125
X1.3Y-3.6
X1.3Y-3.7
X1.35Y-3.05
X1.35Y-3.1
X1.35Y-3.4
X1.45Y-2.875
X1.45Y-2.975
X1.575Y-3.1
X1.575Y-3.15
X1.575Y-3.275
X1.575Y-3.35
X1.575Y-3.4
X1.6Y-3.85
X1.6Y-3.975
X1.6Y-4.125
X1.75Y-3.175
X1.75Y-3.275
X2.2Y-3.85
X2.2Y-3.925
X2.25Y-3.75
X2.25Y-3.925
X2.3Y-3.65
X2.3Y-3.925
X2.475Y-3.5
X2.475Y-3.925
X2.525Y-3.4
X2.525Y-3.925
X2.575Y-3.3
X2.575Y-3.925
X2.775Y-3.925
X2.825Y-3.925
X2.875Y-3.925
X2.925Y-3.925
T2
X0.575Y-2.725
X0.575Y-2.875
T3
X0.9031Y-2.8866
X1.0031Y-2.8866
T4
X3.075Y-2.5
X3.075Y-2.6
X3.075Y-2.7
X3.075Y-2.8
X3.075Y-2.9
X3.075Y-3.0
X3.075Y-3.1
X3.075Y-3.2
X3.075Y-3.3
X3.075Y-3.4
X3.075Y-3.5
X3.075Y-3.6
X3.075Y-3.7
X3.075Y-3.8
X3.075Y-3.9
X3.075Y-4.0
X3.075Y-4.1
X3.075Y-4.2
X3.075Y-4.3
X3.075Y-4.4
X3.075Y-4.5
X3.075Y-4.6
X3.075Y-4.7
X3.075Y-4.8
X3.075Y-4.9
X3.075Y-5.0
X1.7Y-2.5
X1.8Y-2.5
X2.675Y-2.5
X2.675Y-2.6
X2.675Y-2.7
X2.675Y-2.8
X2.675Y-2.9
X2.675Y-3.0
X2.675Y-3.1
X2.675Y-3.2
X2.675Y-3.3
X2.675Y-3.4
X2.675Y-3.5
X2.675Y-3.6
X2.675Y-3.7
X2.675Y-3.8
X2.075Y-2.5
X2.075Y-2.6
X2.075Y-2.7
X2.075Y-2.8
X2.075Y-2.9
X2.075Y-3.0
X2.075Y-3.1
X2.075Y-3.2
X2.075Y-3.3
X2.075Y-3.4
X2.075Y-3.5
X2.075Y-3.6
X2.075Y-3.7
X2.075Y-3.8
T5
X0.8031Y-2.6866
X1.2031Y-2.6866
T0
M30
