G04 #@! TF.GenerationSoftware,KiCad,Pcbnew,5.1.9*
G04 #@! TF.CreationDate,2021-01-05T21:26:03-06:00*
G04 #@! TF.ProjectId,pcb,7063622e-6b69-4636-9164-5f7063625858,rev?*
G04 #@! TF.SameCoordinates,Original*
G04 #@! TF.FileFunction,Legend,Top*
G04 #@! TF.FilePolarity,Positive*
%FSLAX46Y46*%
G04 Gerber Fmt 4.6, Leading zero omitted, Abs format (unit mm)*
G04 Created by KiCad (PCBNEW 5.1.9) date 2021-01-05 21:26:03*
%MOMM*%
%LPD*%
G01*
G04 APERTURE LIST*
%ADD10C,0.150000*%
%ADD11C,0.500000*%
%ADD12C,0.120000*%
G04 APERTURE END LIST*
D10*
X33428571Y-103914404D02*
X33428571Y-103581071D01*
X33952380Y-103438214D02*
X33952380Y-103914404D01*
X32952380Y-103914404D01*
X32952380Y-103438214D01*
X33952380Y-102438214D02*
X33476190Y-102771547D01*
X33952380Y-103009642D02*
X32952380Y-103009642D01*
X32952380Y-102628690D01*
X33000000Y-102533452D01*
X33047619Y-102485833D01*
X33142857Y-102438214D01*
X33285714Y-102438214D01*
X33380952Y-102485833D01*
X33428571Y-102533452D01*
X33476190Y-102628690D01*
X33476190Y-103009642D01*
X33952380Y-101438214D02*
X33476190Y-101771547D01*
X33952380Y-102009642D02*
X32952380Y-102009642D01*
X32952380Y-101628690D01*
X33000000Y-101533452D01*
X33047619Y-101485833D01*
X33142857Y-101438214D01*
X33285714Y-101438214D01*
X33380952Y-101485833D01*
X33428571Y-101533452D01*
X33476190Y-101628690D01*
X33476190Y-102009642D01*
X31452380Y-103342976D02*
X30976190Y-103676309D01*
X31452380Y-103914404D02*
X30452380Y-103914404D01*
X30452380Y-103533452D01*
X30500000Y-103438214D01*
X30547619Y-103390595D01*
X30642857Y-103342976D01*
X30785714Y-103342976D01*
X30880952Y-103390595D01*
X30928571Y-103438214D01*
X30976190Y-103533452D01*
X30976190Y-103914404D01*
X30452380Y-103009642D02*
X31452380Y-102342976D01*
X30452380Y-102342976D02*
X31452380Y-103009642D01*
X27952380Y-104057261D02*
X27952380Y-103485833D01*
X28952380Y-103771547D02*
X27952380Y-103771547D01*
X27952380Y-103247738D02*
X28952380Y-102581071D01*
X27952380Y-102581071D02*
X28952380Y-103247738D01*
X26452380Y-103914404D02*
X25452380Y-103914404D01*
X25452380Y-103533452D01*
X25500000Y-103438214D01*
X25547619Y-103390595D01*
X25642857Y-103342976D01*
X25785714Y-103342976D01*
X25880952Y-103390595D01*
X25928571Y-103438214D01*
X25976190Y-103533452D01*
X25976190Y-103914404D01*
X25452380Y-103009642D02*
X26452380Y-102771547D01*
X25738095Y-102581071D01*
X26452380Y-102390595D01*
X25452380Y-102152500D01*
X26452380Y-101200119D02*
X25976190Y-101533452D01*
X26452380Y-101771547D02*
X25452380Y-101771547D01*
X25452380Y-101390595D01*
X25500000Y-101295357D01*
X25547619Y-101247738D01*
X25642857Y-101200119D01*
X25785714Y-101200119D01*
X25880952Y-101247738D01*
X25928571Y-101295357D01*
X25976190Y-101390595D01*
X25976190Y-101771547D01*
D11*
X69142857Y-82547619D02*
X69261904Y-82666666D01*
X69380952Y-83023809D01*
X69380952Y-83261904D01*
X69261904Y-83619047D01*
X69023809Y-83857142D01*
X68785714Y-83976190D01*
X68309523Y-84095238D01*
X67952380Y-84095238D01*
X67476190Y-83976190D01*
X67238095Y-83857142D01*
X67000000Y-83619047D01*
X66880952Y-83261904D01*
X66880952Y-83023809D01*
X67000000Y-82666666D01*
X67119047Y-82547619D01*
X66880952Y-81000000D02*
X66880952Y-80523809D01*
X67000000Y-80285714D01*
X67238095Y-80047619D01*
X67714285Y-79928571D01*
X68547619Y-79928571D01*
X69023809Y-80047619D01*
X69261904Y-80285714D01*
X69380952Y-80523809D01*
X69380952Y-81000000D01*
X69261904Y-81238095D01*
X69023809Y-81476190D01*
X68547619Y-81595238D01*
X67714285Y-81595238D01*
X67238095Y-81476190D01*
X67000000Y-81238095D01*
X66880952Y-81000000D01*
X68666666Y-78976190D02*
X68666666Y-77785714D01*
X69380952Y-79214285D02*
X66880952Y-78380952D01*
X69380952Y-77547619D01*
X66880952Y-76952380D02*
X69380952Y-75285714D01*
X66880952Y-75285714D02*
X69380952Y-76952380D01*
D12*
X34235000Y-107485000D02*
X34235000Y-105200000D01*
X32765000Y-107485000D02*
X34235000Y-107485000D01*
X32765000Y-105200000D02*
X32765000Y-107485000D01*
X31735000Y-107485000D02*
X31735000Y-105200000D01*
X30265000Y-107485000D02*
X31735000Y-107485000D01*
X30265000Y-105200000D02*
X30265000Y-107485000D01*
X29235000Y-107485000D02*
X29235000Y-105200000D01*
X27765000Y-107485000D02*
X29235000Y-107485000D01*
X27765000Y-105200000D02*
X27765000Y-107485000D01*
X26735000Y-107485000D02*
X26735000Y-105200000D01*
X25265000Y-107485000D02*
X26735000Y-107485000D01*
X25265000Y-105200000D02*
X25265000Y-107485000D01*
X39737258Y-108272500D02*
X39262742Y-108272500D01*
X39737258Y-107227500D02*
X39262742Y-107227500D01*
X39737258Y-106272500D02*
X39262742Y-106272500D01*
X39737258Y-105227500D02*
X39262742Y-105227500D01*
X39737258Y-104272500D02*
X39262742Y-104272500D01*
X39737258Y-103227500D02*
X39262742Y-103227500D01*
X39737258Y-102272500D02*
X39262742Y-102272500D01*
X39737258Y-101227500D02*
X39262742Y-101227500D01*
X62010000Y-70650000D02*
X62010000Y-68850000D01*
X58790000Y-68850000D02*
X58790000Y-71300000D01*
X56210500Y-105405000D02*
X56210500Y-104198500D01*
X55004000Y-105405000D02*
X56210500Y-105405000D01*
X52565000Y-101110000D02*
X52090000Y-101110000D01*
X52090000Y-101110000D02*
X52090000Y-100635000D01*
X58835000Y-93890000D02*
X59310000Y-93890000D01*
X59310000Y-93890000D02*
X59310000Y-94365000D01*
X52565000Y-93890000D02*
X52090000Y-93890000D01*
X52090000Y-93890000D02*
X52090000Y-94365000D01*
X58835000Y-101110000D02*
X59310000Y-101110000D01*
X54977500Y-73487258D02*
X54977500Y-73012742D01*
X56022500Y-73487258D02*
X56022500Y-73012742D01*
X68950000Y-68000000D02*
G75*
G03*
X68950000Y-68000000I-700000J0D01*
G01*
X46200000Y-71250000D02*
G75*
G03*
X46200000Y-71250000I-700000J0D01*
G01*
X47260000Y-88912779D02*
X47260000Y-88587221D01*
X46240000Y-88912779D02*
X46240000Y-88587221D01*
X49010000Y-88912779D02*
X49010000Y-88587221D01*
X47990000Y-88912779D02*
X47990000Y-88587221D01*
X48762742Y-85522500D02*
X49237258Y-85522500D01*
X48762742Y-84477500D02*
X49237258Y-84477500D01*
X52260000Y-104062779D02*
X52260000Y-103737221D01*
X51240000Y-104062779D02*
X51240000Y-103737221D01*
X61325000Y-66111000D02*
X61725000Y-66561000D01*
X61725000Y-66561000D02*
X60925000Y-66561000D01*
X60925000Y-66561000D02*
X61325000Y-66111000D01*
X56175000Y-60511000D02*
X56175000Y-63311000D01*
X56175000Y-63311000D02*
X55875000Y-63311000D01*
X55875000Y-63311000D02*
X55875000Y-64861000D01*
X63875000Y-60511000D02*
X63875000Y-63311000D01*
X64175000Y-63311000D02*
X63875000Y-63311000D01*
X64175000Y-63311000D02*
X64175000Y-64861000D01*
X47412779Y-102010000D02*
X47087221Y-102010000D01*
X47412779Y-100990000D02*
X47087221Y-100990000D01*
X49662779Y-96740000D02*
X49337221Y-96740000D01*
X49662779Y-97760000D02*
X49337221Y-97760000D01*
X49337221Y-96010000D02*
X49662779Y-96010000D01*
X49337221Y-94990000D02*
X49662779Y-94990000D01*
X63240000Y-94587221D02*
X63240000Y-94912779D01*
X64260000Y-94587221D02*
X64260000Y-94912779D01*
X51740000Y-86087221D02*
X51740000Y-86412779D01*
X52760000Y-86087221D02*
X52760000Y-86412779D01*
X60240000Y-94587221D02*
X60240000Y-94912779D01*
X61260000Y-94587221D02*
X61260000Y-94912779D01*
X29837221Y-78760000D02*
X30162779Y-78760000D01*
X29837221Y-77740000D02*
X30162779Y-77740000D01*
X30162779Y-89740000D02*
X29837221Y-89740000D01*
X30162779Y-90760000D02*
X29837221Y-90760000D01*
X34037221Y-97110000D02*
X34362779Y-97110000D01*
X34037221Y-96090000D02*
X34362779Y-96090000D01*
X34037221Y-95110000D02*
X34362779Y-95110000D01*
X34037221Y-94090000D02*
X34362779Y-94090000D01*
X34362779Y-90090000D02*
X34037221Y-90090000D01*
X34362779Y-91110000D02*
X34037221Y-91110000D01*
X34037221Y-93110000D02*
X34362779Y-93110000D01*
X34037221Y-92090000D02*
X34362779Y-92090000D01*
X53760000Y-91662779D02*
X53760000Y-91337221D01*
X52740000Y-91662779D02*
X52740000Y-91337221D01*
X48162779Y-99240000D02*
X47837221Y-99240000D01*
X48162779Y-100260000D02*
X47837221Y-100260000D01*
X52010000Y-91662779D02*
X52010000Y-91337221D01*
X50990000Y-91662779D02*
X50990000Y-91337221D01*
X61337221Y-103010000D02*
X61662779Y-103010000D01*
X61337221Y-101990000D02*
X61662779Y-101990000D01*
X61587221Y-99510000D02*
X61912779Y-99510000D01*
X61587221Y-98490000D02*
X61912779Y-98490000D01*
X62587221Y-101260000D02*
X62912779Y-101260000D01*
X62587221Y-100240000D02*
X62912779Y-100240000D01*
X49912779Y-78240000D02*
X49587221Y-78240000D01*
X49912779Y-79260000D02*
X49587221Y-79260000D01*
X48412779Y-91490000D02*
X48087221Y-91490000D01*
X48412779Y-92510000D02*
X48087221Y-92510000D01*
X48412779Y-93240000D02*
X48087221Y-93240000D01*
X48412779Y-94260000D02*
X48087221Y-94260000D01*
X52162779Y-73490000D02*
X51837221Y-73490000D01*
X52162779Y-74510000D02*
X51837221Y-74510000D01*
X61510000Y-74912779D02*
X61510000Y-74587221D01*
X60490000Y-74912779D02*
X60490000Y-74587221D01*
X60337221Y-85010000D02*
X60662779Y-85010000D01*
X60337221Y-83990000D02*
X60662779Y-83990000D01*
X49990000Y-81837221D02*
X49990000Y-82162779D01*
X51010000Y-81837221D02*
X51010000Y-82162779D01*
X52162779Y-71740000D02*
X51837221Y-71740000D01*
X52162779Y-72760000D02*
X51837221Y-72760000D01*
X43133621Y-69644800D02*
X43459179Y-69644800D01*
X43133621Y-68624800D02*
X43459179Y-68624800D01*
X43459179Y-63240000D02*
X43133621Y-63240000D01*
X43459179Y-64260000D02*
X43133621Y-64260000D01*
X48337221Y-70010000D02*
X48662779Y-70010000D01*
X48337221Y-68990000D02*
X48662779Y-68990000D01*
X48662779Y-62913800D02*
X48337221Y-62913800D01*
X48662779Y-63933800D02*
X48337221Y-63933800D01*
X49010000Y-75662779D02*
X49010000Y-75337221D01*
X47990000Y-75662779D02*
X47990000Y-75337221D01*
X47260000Y-75662779D02*
X47260000Y-75337221D01*
X46240000Y-75662779D02*
X46240000Y-75337221D01*
X52565000Y-75590000D02*
X52090000Y-75590000D01*
X59310000Y-82810000D02*
X59310000Y-82335000D01*
X58835000Y-82810000D02*
X59310000Y-82810000D01*
X52090000Y-82810000D02*
X52090000Y-82335000D01*
X52565000Y-82810000D02*
X52090000Y-82810000D01*
X59310000Y-75590000D02*
X59310000Y-76065000D01*
X58835000Y-75590000D02*
X59310000Y-75590000D01*
X42476400Y-67602400D02*
X44376400Y-67602400D01*
X43876400Y-65282400D02*
X42476400Y-65282400D01*
X48980000Y-64851900D02*
X47180000Y-64851900D01*
X47180000Y-68071900D02*
X49630000Y-68071900D01*
X53410000Y-64397936D02*
X53410000Y-65602064D01*
X51590000Y-64397936D02*
X51590000Y-65602064D01*
X54647936Y-68840000D02*
X55852064Y-68840000D01*
X54647936Y-70660000D02*
X55852064Y-70660000D01*
X42000000Y-89190000D02*
X38550000Y-89190000D01*
X42000000Y-89190000D02*
X43950000Y-89190000D01*
X42000000Y-99310000D02*
X40050000Y-99310000D01*
X42000000Y-99310000D02*
X43950000Y-99310000D01*
X42000000Y-75940000D02*
X38550000Y-75940000D01*
X42000000Y-75940000D02*
X43950000Y-75940000D01*
X42000000Y-86060000D02*
X40050000Y-86060000D01*
X42000000Y-86060000D02*
X43950000Y-86060000D01*
X31250000Y-60500000D02*
X32250000Y-61500000D01*
X31250000Y-60500000D02*
X30250000Y-61500000D01*
X23750000Y-75300000D02*
X23750000Y-60300000D01*
X38750000Y-75300000D02*
X23750000Y-75300000D01*
X38750000Y-60300000D02*
X38750000Y-75300000D01*
X23750000Y-60300000D02*
X38750000Y-60300000D01*
X33310000Y-87915000D02*
X33310000Y-80585000D01*
X26690000Y-80585000D02*
X33310000Y-80585000D01*
X26690000Y-87915000D02*
X33310000Y-87915000D01*
X26690000Y-80585000D02*
X26690000Y-87915000D01*
M02*
