G04 #@! TF.GenerationSoftware,KiCad,Pcbnew,5.1.6*
G04 #@! TF.CreationDate,2020-08-01T17:21:50-05:00*
G04 #@! TF.ProjectId,pcb,7063622e-6b69-4636-9164-5f7063625858,rev?*
G04 #@! TF.SameCoordinates,Original*
G04 #@! TF.FileFunction,Copper,L2,Bot*
G04 #@! TF.FilePolarity,Positive*
%FSLAX46Y46*%
G04 Gerber Fmt 4.6, Leading zero omitted, Abs format (unit mm)*
G04 Created by KiCad (PCBNEW 5.1.6) date 2020-08-01 17:21:50*
%MOMM*%
%LPD*%
G01*
G04 APERTURE LIST*
G04 #@! TA.AperFunction,ComponentPad*
%ADD10O,1.700000X1.700000*%
G04 #@! TD*
G04 #@! TA.AperFunction,ComponentPad*
%ADD11R,1.700000X1.700000*%
G04 #@! TD*
G04 #@! TA.AperFunction,ComponentPad*
%ADD12C,1.500000*%
G04 #@! TD*
G04 #@! TA.AperFunction,ComponentPad*
%ADD13O,1.600000X2.500000*%
G04 #@! TD*
G04 #@! TA.AperFunction,ComponentPad*
%ADD14O,3.500000X7.000000*%
G04 #@! TD*
G04 #@! TA.AperFunction,ViaPad*
%ADD15C,0.685800*%
G04 #@! TD*
G04 #@! TA.AperFunction,Conductor*
%ADD16C,0.254000*%
G04 #@! TD*
G04 APERTURE END LIST*
D10*
X78105000Y-127000000D03*
X78105000Y-124460000D03*
X78105000Y-121920000D03*
X78105000Y-119380000D03*
X78105000Y-116840000D03*
X78105000Y-114300000D03*
X78105000Y-111760000D03*
X78105000Y-109220000D03*
X78105000Y-106680000D03*
X78105000Y-104140000D03*
X78105000Y-101600000D03*
X78105000Y-99060000D03*
X78105000Y-96520000D03*
X78105000Y-93980000D03*
X78105000Y-91440000D03*
X78105000Y-88900000D03*
X78105000Y-86360000D03*
X78105000Y-83820000D03*
X78105000Y-81280000D03*
X78105000Y-78740000D03*
X78105000Y-76200000D03*
X78105000Y-73660000D03*
X78105000Y-71120000D03*
X78105000Y-68580000D03*
X78105000Y-66040000D03*
D11*
X78105000Y-63500000D03*
D10*
X43180000Y-63500000D03*
D11*
X45720000Y-63500000D03*
D10*
X67945000Y-96520000D03*
X67945000Y-93980000D03*
X67945000Y-91440000D03*
X67945000Y-88900000D03*
X67945000Y-86360000D03*
X67945000Y-83820000D03*
X67945000Y-81280000D03*
X67945000Y-78740000D03*
X67945000Y-76200000D03*
X67945000Y-73660000D03*
X67945000Y-71120000D03*
X67945000Y-68580000D03*
X67945000Y-66040000D03*
D11*
X67945000Y-63500000D03*
D10*
X52705000Y-96520000D03*
X52705000Y-93980000D03*
X52705000Y-91440000D03*
X52705000Y-88900000D03*
X52705000Y-86360000D03*
X52705000Y-83820000D03*
X52705000Y-81280000D03*
X52705000Y-78740000D03*
X52705000Y-76200000D03*
X52705000Y-73660000D03*
X52705000Y-71120000D03*
X52705000Y-68580000D03*
X52705000Y-66040000D03*
D11*
X52705000Y-63500000D03*
D12*
X14605000Y-69215000D03*
X14605000Y-73025000D03*
D13*
X22940000Y-73320000D03*
X25480000Y-73320000D03*
D14*
X30560000Y-68240000D03*
X20400000Y-68240000D03*
D15*
X36830000Y-75565000D03*
X33020000Y-93980000D03*
X40640000Y-104775000D03*
X40640000Y-97790000D03*
X40640000Y-100965000D03*
X30480000Y-104775000D03*
X34290000Y-86360000D03*
X40005000Y-80010000D03*
X40005000Y-83185000D03*
X36830000Y-73025000D03*
X33020000Y-91440000D03*
X40005000Y-85090000D03*
X40005000Y-86360000D03*
X40005000Y-78740000D03*
X34290000Y-77470000D03*
X34290000Y-78740000D03*
X44450000Y-80645000D03*
X44450000Y-83185000D03*
X22225000Y-95885000D03*
X22225000Y-103505000D03*
X55880000Y-97790000D03*
X55880000Y-99695000D03*
X57150000Y-95250000D03*
X57150000Y-99695000D03*
X58420000Y-92710000D03*
X58420000Y-99695000D03*
X62865000Y-88900000D03*
X62865000Y-99695000D03*
X64135000Y-86360000D03*
X64135000Y-99695000D03*
X65405000Y-83820000D03*
X65405000Y-99695000D03*
X70485000Y-99695000D03*
X71755000Y-99695000D03*
X73025000Y-99695000D03*
X74295000Y-99695000D03*
D16*
X40640000Y-97790000D02*
X40640000Y-100965000D01*
X40640000Y-100965000D02*
X40640000Y-104775000D01*
X30480000Y-104775000D02*
X30480000Y-106045000D01*
X30480000Y-106045000D02*
X31115000Y-106680000D01*
X31115000Y-106680000D02*
X40005000Y-106680000D01*
X40005000Y-106680000D02*
X40640000Y-106045000D01*
X40640000Y-106045000D02*
X40640000Y-104775000D01*
X33020000Y-86995000D02*
X33655000Y-86360000D01*
X33655000Y-86360000D02*
X34290000Y-86360000D01*
X33020000Y-93980000D02*
X33020000Y-91440000D01*
X33020000Y-88265000D02*
X33020000Y-86995000D01*
X34290000Y-86360000D02*
X34290000Y-78740000D01*
X34925000Y-75565000D02*
X36830000Y-75565000D01*
X34290000Y-76200000D02*
X34925000Y-75565000D01*
X78105000Y-63500000D02*
X80010000Y-63500000D01*
X80010000Y-63500000D02*
X80645000Y-64135000D01*
X80645000Y-64135000D02*
X80645000Y-126365000D01*
X80645000Y-126365000D02*
X80010000Y-127000000D01*
X80010000Y-127000000D02*
X78105000Y-127000000D01*
X30480000Y-104775000D02*
X30480000Y-94615000D01*
X30480000Y-94615000D02*
X31115000Y-93980000D01*
X31115000Y-93980000D02*
X33020000Y-93980000D01*
X40005000Y-80010000D02*
X40005000Y-83185000D01*
X46355000Y-106680000D02*
X66675000Y-127000000D01*
X41275000Y-106680000D02*
X46355000Y-106680000D01*
X66675000Y-127000000D02*
X78105000Y-127000000D01*
X40640000Y-106045000D02*
X41275000Y-106680000D01*
X33020000Y-91440000D02*
X33020000Y-88265000D01*
X36830000Y-73025000D02*
X36830000Y-75565000D01*
X40005000Y-83185000D02*
X40005000Y-85090000D01*
X40005000Y-85090000D02*
X40005000Y-86360000D01*
X39370000Y-88265000D02*
X40005000Y-87630000D01*
X40005000Y-86360000D02*
X40005000Y-87630000D01*
X33020000Y-88265000D02*
X39370000Y-88265000D01*
X40005000Y-80010000D02*
X40005000Y-78740000D01*
X40005000Y-78740000D02*
X40005000Y-78740000D01*
X34290000Y-77470000D02*
X34290000Y-76200000D01*
X34290000Y-78740000D02*
X34290000Y-77470000D01*
X52705000Y-63500000D02*
X59055000Y-63500000D01*
X61595000Y-66040000D02*
X67945000Y-66040000D01*
X59055000Y-63500000D02*
X61595000Y-66040000D01*
X70485000Y-66040000D02*
X67945000Y-66040000D01*
X71755000Y-66040000D02*
X70485000Y-66040000D01*
X74295000Y-63500000D02*
X71755000Y-66040000D01*
X78105000Y-63500000D02*
X74295000Y-63500000D01*
X78105000Y-68580000D02*
X80645000Y-68580000D01*
X44450000Y-80645000D02*
X44450000Y-83185000D01*
X44450000Y-83185000D02*
X44450000Y-83185000D01*
X22225000Y-95885000D02*
X22225000Y-103505000D01*
X55880000Y-97790000D02*
X55880000Y-99695000D01*
X55880000Y-99695000D02*
X55880000Y-99695000D01*
X57150000Y-95250000D02*
X57150000Y-99695000D01*
X57150000Y-99695000D02*
X57150000Y-99695000D01*
X58420000Y-92710000D02*
X58420000Y-99695000D01*
X62865000Y-88900000D02*
X62865000Y-99695000D01*
X64135000Y-86360000D02*
X64135000Y-99695000D01*
X65405000Y-83820000D02*
X65405000Y-99695000D01*
X70485000Y-81915000D02*
X70485000Y-99695000D01*
X69850000Y-81280000D02*
X70485000Y-81915000D01*
X67945000Y-81280000D02*
X69850000Y-81280000D01*
X71755000Y-79375000D02*
X71755000Y-99695000D01*
X71120000Y-78740000D02*
X71755000Y-79375000D01*
X67945000Y-78740000D02*
X71120000Y-78740000D01*
X67945000Y-76200000D02*
X72390000Y-76200000D01*
X72390000Y-76200000D02*
X73025000Y-76835000D01*
X73025000Y-76835000D02*
X73025000Y-99695000D01*
X73660000Y-73660000D02*
X74295000Y-74295000D01*
X67945000Y-73660000D02*
X73660000Y-73660000D01*
X74295000Y-74295000D02*
X74295000Y-99695000D01*
X67945000Y-71120000D02*
X74930000Y-71120000D01*
X74930000Y-71120000D02*
X75565000Y-71755000D01*
X75565000Y-71755000D02*
X75565000Y-98425000D01*
X75565000Y-98425000D02*
X76200000Y-99060000D01*
X76200000Y-99060000D02*
X78105000Y-99060000D01*
G36*
X80620001Y-129515000D02*
G01*
X68853381Y-129515000D01*
X66695271Y-127356890D01*
X76663524Y-127356890D01*
X76708175Y-127504099D01*
X76833359Y-127766920D01*
X77007412Y-128000269D01*
X77223645Y-128195178D01*
X77473748Y-128344157D01*
X77748109Y-128441481D01*
X77978000Y-128320814D01*
X77978000Y-127127000D01*
X78232000Y-127127000D01*
X78232000Y-128320814D01*
X78461891Y-128441481D01*
X78736252Y-128344157D01*
X78986355Y-128195178D01*
X79202588Y-128000269D01*
X79376641Y-127766920D01*
X79501825Y-127504099D01*
X79546476Y-127356890D01*
X79425155Y-127127000D01*
X78232000Y-127127000D01*
X77978000Y-127127000D01*
X76784845Y-127127000D01*
X76663524Y-127356890D01*
X66695271Y-127356890D01*
X46209616Y-106871236D01*
X46188948Y-106846052D01*
X46088450Y-106763575D01*
X45973793Y-106702290D01*
X45849383Y-106664550D01*
X45752419Y-106655000D01*
X45752409Y-106655000D01*
X45720000Y-106651808D01*
X45687591Y-106655000D01*
X12090000Y-106655000D01*
X12090000Y-103954344D01*
X12720000Y-103954344D01*
X12720000Y-104325656D01*
X12792439Y-104689834D01*
X12934534Y-105032882D01*
X13140825Y-105341618D01*
X13403382Y-105604175D01*
X13712118Y-105810466D01*
X14055166Y-105952561D01*
X14419344Y-106025000D01*
X14790656Y-106025000D01*
X15154834Y-105952561D01*
X15497882Y-105810466D01*
X15806618Y-105604175D01*
X16069175Y-105341618D01*
X16275466Y-105032882D01*
X16417561Y-104689834D01*
X16490000Y-104325656D01*
X16490000Y-103954344D01*
X16417561Y-103590166D01*
X16275466Y-103247118D01*
X16069175Y-102938382D01*
X15806618Y-102675825D01*
X15497882Y-102469534D01*
X15154834Y-102327439D01*
X14790656Y-102255000D01*
X14419344Y-102255000D01*
X14055166Y-102327439D01*
X13712118Y-102469534D01*
X13403382Y-102675825D01*
X13140825Y-102938382D01*
X12934534Y-103247118D01*
X12792439Y-103590166D01*
X12720000Y-103954344D01*
X12090000Y-103954344D01*
X12090000Y-95788685D01*
X21247100Y-95788685D01*
X21247100Y-95981315D01*
X21284680Y-96170243D01*
X21358396Y-96348210D01*
X21463000Y-96504761D01*
X21463001Y-102885238D01*
X21358396Y-103041790D01*
X21284680Y-103219757D01*
X21247100Y-103408685D01*
X21247100Y-103601315D01*
X21284680Y-103790243D01*
X21358396Y-103968210D01*
X21465415Y-104128375D01*
X21601625Y-104264585D01*
X21761790Y-104371604D01*
X21939757Y-104445320D01*
X22128685Y-104482900D01*
X22321315Y-104482900D01*
X22510243Y-104445320D01*
X22688210Y-104371604D01*
X22848375Y-104264585D01*
X22984585Y-104128375D01*
X23091604Y-103968210D01*
X23165320Y-103790243D01*
X23202900Y-103601315D01*
X23202900Y-103408685D01*
X23165320Y-103219757D01*
X23091604Y-103041790D01*
X22987000Y-102885239D01*
X22987000Y-96504761D01*
X23091604Y-96348210D01*
X23165320Y-96170243D01*
X23202900Y-95981315D01*
X23202900Y-95788685D01*
X23165320Y-95599757D01*
X23091604Y-95421790D01*
X22984585Y-95261625D01*
X22848375Y-95125415D01*
X22688210Y-95018396D01*
X22510243Y-94944680D01*
X22321315Y-94907100D01*
X22128685Y-94907100D01*
X21939757Y-94944680D01*
X21761790Y-95018396D01*
X21601625Y-95125415D01*
X21465415Y-95261625D01*
X21358396Y-95421790D01*
X21284680Y-95599757D01*
X21247100Y-95788685D01*
X12090000Y-95788685D01*
X12090000Y-80548685D01*
X43472100Y-80548685D01*
X43472100Y-80741315D01*
X43509680Y-80930243D01*
X43583396Y-81108210D01*
X43688000Y-81264761D01*
X43688001Y-82565238D01*
X43583396Y-82721790D01*
X43509680Y-82899757D01*
X43472100Y-83088685D01*
X43472100Y-83281315D01*
X43509680Y-83470243D01*
X43583396Y-83648210D01*
X43690415Y-83808375D01*
X43826625Y-83944585D01*
X43986790Y-84051604D01*
X44164757Y-84125320D01*
X44353685Y-84162900D01*
X44546315Y-84162900D01*
X44735243Y-84125320D01*
X44913210Y-84051604D01*
X45073375Y-83944585D01*
X45209585Y-83808375D01*
X45316604Y-83648210D01*
X45390320Y-83470243D01*
X45427900Y-83281315D01*
X45427900Y-83088685D01*
X45390320Y-82899757D01*
X45316604Y-82721790D01*
X45212000Y-82565239D01*
X45212000Y-81264761D01*
X45316604Y-81108210D01*
X45390320Y-80930243D01*
X45427900Y-80741315D01*
X45427900Y-80548685D01*
X45390320Y-80359757D01*
X45316604Y-80181790D01*
X45209585Y-80021625D01*
X45073375Y-79885415D01*
X44913210Y-79778396D01*
X44735243Y-79704680D01*
X44546315Y-79667100D01*
X44353685Y-79667100D01*
X44164757Y-79704680D01*
X43986790Y-79778396D01*
X43826625Y-79885415D01*
X43690415Y-80021625D01*
X43583396Y-80181790D01*
X43509680Y-80359757D01*
X43472100Y-80548685D01*
X12090000Y-80548685D01*
X12090000Y-72888589D01*
X13220000Y-72888589D01*
X13220000Y-73161411D01*
X13273225Y-73428989D01*
X13377629Y-73681043D01*
X13529201Y-73907886D01*
X13722114Y-74100799D01*
X13948957Y-74252371D01*
X14201011Y-74356775D01*
X14468589Y-74410000D01*
X14741411Y-74410000D01*
X15008989Y-74356775D01*
X15261043Y-74252371D01*
X15487886Y-74100799D01*
X15680799Y-73907886D01*
X15832371Y-73681043D01*
X15936775Y-73428989D01*
X15990000Y-73161411D01*
X15990000Y-72888589D01*
X15972281Y-72799509D01*
X21505000Y-72799509D01*
X21505000Y-73840492D01*
X21525764Y-74051309D01*
X21607818Y-74321808D01*
X21741068Y-74571101D01*
X21920393Y-74789608D01*
X22138900Y-74968932D01*
X22388193Y-75102182D01*
X22658692Y-75184236D01*
X22940000Y-75211943D01*
X23221309Y-75184236D01*
X23491808Y-75102182D01*
X23741101Y-74968932D01*
X23959608Y-74789608D01*
X24138932Y-74571101D01*
X24210000Y-74438142D01*
X24281068Y-74571101D01*
X24460393Y-74789608D01*
X24678900Y-74968932D01*
X24928193Y-75102182D01*
X25198692Y-75184236D01*
X25480000Y-75211943D01*
X25761309Y-75184236D01*
X26031808Y-75102182D01*
X26281101Y-74968932D01*
X26499608Y-74789608D01*
X26678932Y-74571101D01*
X26812182Y-74321808D01*
X26894236Y-74051309D01*
X26915000Y-73840491D01*
X26915000Y-72799508D01*
X26894236Y-72588691D01*
X26812182Y-72318192D01*
X26678932Y-72068899D01*
X26499607Y-71850392D01*
X26281100Y-71671068D01*
X26031807Y-71537818D01*
X25761308Y-71455764D01*
X25480000Y-71428057D01*
X25198691Y-71455764D01*
X24928192Y-71537818D01*
X24678899Y-71671068D01*
X24460392Y-71850393D01*
X24281068Y-72068900D01*
X24210000Y-72201858D01*
X24138932Y-72068899D01*
X23959607Y-71850392D01*
X23741100Y-71671068D01*
X23491807Y-71537818D01*
X23221308Y-71455764D01*
X22940000Y-71428057D01*
X22658691Y-71455764D01*
X22388192Y-71537818D01*
X22138899Y-71671068D01*
X21920392Y-71850393D01*
X21741068Y-72068900D01*
X21607818Y-72318193D01*
X21525764Y-72588692D01*
X21505000Y-72799509D01*
X15972281Y-72799509D01*
X15936775Y-72621011D01*
X15832371Y-72368957D01*
X15680799Y-72142114D01*
X15487886Y-71949201D01*
X15261043Y-71797629D01*
X15008989Y-71693225D01*
X14741411Y-71640000D01*
X14468589Y-71640000D01*
X14201011Y-71693225D01*
X13948957Y-71797629D01*
X13722114Y-71949201D01*
X13529201Y-72142114D01*
X13377629Y-72368957D01*
X13273225Y-72621011D01*
X13220000Y-72888589D01*
X12090000Y-72888589D01*
X12090000Y-69078589D01*
X13220000Y-69078589D01*
X13220000Y-69351411D01*
X13273225Y-69618989D01*
X13377629Y-69871043D01*
X13529201Y-70097886D01*
X13722114Y-70290799D01*
X13948957Y-70442371D01*
X14201011Y-70546775D01*
X14468589Y-70600000D01*
X14741411Y-70600000D01*
X15008989Y-70546775D01*
X15261043Y-70442371D01*
X15487886Y-70290799D01*
X15680799Y-70097886D01*
X15832371Y-69871043D01*
X15936775Y-69618989D01*
X15990000Y-69351411D01*
X15990000Y-69078589D01*
X15936775Y-68811011D01*
X15832371Y-68558957D01*
X15680799Y-68332114D01*
X15487886Y-68139201D01*
X15261043Y-67987629D01*
X15008989Y-67883225D01*
X14741411Y-67830000D01*
X14468589Y-67830000D01*
X14201011Y-67883225D01*
X13948957Y-67987629D01*
X13722114Y-68139201D01*
X13529201Y-68332114D01*
X13377629Y-68558957D01*
X13273225Y-68811011D01*
X13220000Y-69078589D01*
X12090000Y-69078589D01*
X12090000Y-66372844D01*
X18015000Y-66372844D01*
X18015000Y-70107157D01*
X18049511Y-70457542D01*
X18185888Y-70907116D01*
X18407352Y-71321446D01*
X18705392Y-71684609D01*
X19068555Y-71982649D01*
X19482885Y-72204113D01*
X19932459Y-72340490D01*
X20400000Y-72386539D01*
X20867542Y-72340490D01*
X21317116Y-72204113D01*
X21731446Y-71982649D01*
X22094609Y-71684609D01*
X22392649Y-71321446D01*
X22614113Y-70907116D01*
X22750490Y-70457542D01*
X22785000Y-70107157D01*
X22785000Y-66372844D01*
X28175000Y-66372844D01*
X28175000Y-70107157D01*
X28209511Y-70457542D01*
X28345888Y-70907116D01*
X28567352Y-71321446D01*
X28865392Y-71684609D01*
X29228555Y-71982649D01*
X29642885Y-72204113D01*
X30092459Y-72340490D01*
X30560000Y-72386539D01*
X31027542Y-72340490D01*
X31477116Y-72204113D01*
X31891446Y-71982649D01*
X32254609Y-71684609D01*
X32552649Y-71321446D01*
X32774113Y-70907116D01*
X32910490Y-70457542D01*
X32945000Y-70107157D01*
X32945000Y-66372843D01*
X32910490Y-66022458D01*
X32774113Y-65572884D01*
X32552649Y-65158554D01*
X32254609Y-64795391D01*
X31891445Y-64497351D01*
X31477115Y-64275887D01*
X31027541Y-64139510D01*
X30560000Y-64093461D01*
X30092458Y-64139510D01*
X29642884Y-64275887D01*
X29228554Y-64497351D01*
X28865391Y-64795391D01*
X28567351Y-65158555D01*
X28345887Y-65572885D01*
X28209510Y-66022459D01*
X28175000Y-66372844D01*
X22785000Y-66372844D01*
X22785000Y-66372843D01*
X22750490Y-66022458D01*
X22614113Y-65572884D01*
X22392649Y-65158554D01*
X22094609Y-64795391D01*
X21731445Y-64497351D01*
X21317115Y-64275887D01*
X20867541Y-64139510D01*
X20400000Y-64093461D01*
X19932458Y-64139510D01*
X19482884Y-64275887D01*
X19068554Y-64497351D01*
X18705391Y-64795391D01*
X18407351Y-65158555D01*
X18185887Y-65572885D01*
X18049510Y-66022459D01*
X18015000Y-66372844D01*
X12090000Y-66372844D01*
X12090000Y-63314344D01*
X12720000Y-63314344D01*
X12720000Y-63685656D01*
X12792439Y-64049834D01*
X12934534Y-64392882D01*
X13140825Y-64701618D01*
X13403382Y-64964175D01*
X13712118Y-65170466D01*
X14055166Y-65312561D01*
X14419344Y-65385000D01*
X14790656Y-65385000D01*
X15154834Y-65312561D01*
X15497882Y-65170466D01*
X15806618Y-64964175D01*
X16069175Y-64701618D01*
X16275466Y-64392882D01*
X16417561Y-64049834D01*
X16490000Y-63685656D01*
X16490000Y-63314344D01*
X34945000Y-63314344D01*
X34945000Y-63685656D01*
X35017439Y-64049834D01*
X35159534Y-64392882D01*
X35365825Y-64701618D01*
X35628382Y-64964175D01*
X35937118Y-65170466D01*
X36280166Y-65312561D01*
X36644344Y-65385000D01*
X37015656Y-65385000D01*
X37379834Y-65312561D01*
X37722882Y-65170466D01*
X38031618Y-64964175D01*
X38294175Y-64701618D01*
X38500466Y-64392882D01*
X38642561Y-64049834D01*
X38715000Y-63685656D01*
X38715000Y-63353740D01*
X41695000Y-63353740D01*
X41695000Y-63646260D01*
X41752068Y-63933158D01*
X41864010Y-64203411D01*
X42026525Y-64446632D01*
X42233368Y-64653475D01*
X42476589Y-64815990D01*
X42746842Y-64927932D01*
X43033740Y-64985000D01*
X43326260Y-64985000D01*
X43613158Y-64927932D01*
X43883411Y-64815990D01*
X44126632Y-64653475D01*
X44258487Y-64521620D01*
X44280498Y-64594180D01*
X44339463Y-64704494D01*
X44418815Y-64801185D01*
X44515506Y-64880537D01*
X44625820Y-64939502D01*
X44745518Y-64975812D01*
X44870000Y-64988072D01*
X46570000Y-64988072D01*
X46694482Y-64975812D01*
X46814180Y-64939502D01*
X46924494Y-64880537D01*
X47021185Y-64801185D01*
X47100537Y-64704494D01*
X47159502Y-64594180D01*
X47195812Y-64474482D01*
X47208072Y-64350000D01*
X51216928Y-64350000D01*
X51229188Y-64474482D01*
X51265498Y-64594180D01*
X51324463Y-64704494D01*
X51403815Y-64801185D01*
X51500506Y-64880537D01*
X51610820Y-64939502D01*
X51683380Y-64961513D01*
X51551525Y-65093368D01*
X51389010Y-65336589D01*
X51277068Y-65606842D01*
X51220000Y-65893740D01*
X51220000Y-66186260D01*
X51277068Y-66473158D01*
X51389010Y-66743411D01*
X51551525Y-66986632D01*
X51758368Y-67193475D01*
X51932760Y-67310000D01*
X51758368Y-67426525D01*
X51551525Y-67633368D01*
X51389010Y-67876589D01*
X51277068Y-68146842D01*
X51220000Y-68433740D01*
X51220000Y-68726260D01*
X51277068Y-69013158D01*
X51389010Y-69283411D01*
X51551525Y-69526632D01*
X51758368Y-69733475D01*
X51932760Y-69850000D01*
X51758368Y-69966525D01*
X51551525Y-70173368D01*
X51389010Y-70416589D01*
X51277068Y-70686842D01*
X51220000Y-70973740D01*
X51220000Y-71266260D01*
X51277068Y-71553158D01*
X51389010Y-71823411D01*
X51551525Y-72066632D01*
X51758368Y-72273475D01*
X51932760Y-72390000D01*
X51758368Y-72506525D01*
X51551525Y-72713368D01*
X51389010Y-72956589D01*
X51277068Y-73226842D01*
X51220000Y-73513740D01*
X51220000Y-73806260D01*
X51277068Y-74093158D01*
X51389010Y-74363411D01*
X51551525Y-74606632D01*
X51758368Y-74813475D01*
X51932760Y-74930000D01*
X51758368Y-75046525D01*
X51551525Y-75253368D01*
X51389010Y-75496589D01*
X51277068Y-75766842D01*
X51220000Y-76053740D01*
X51220000Y-76346260D01*
X51277068Y-76633158D01*
X51389010Y-76903411D01*
X51551525Y-77146632D01*
X51758368Y-77353475D01*
X51932760Y-77470000D01*
X51758368Y-77586525D01*
X51551525Y-77793368D01*
X51389010Y-78036589D01*
X51277068Y-78306842D01*
X51220000Y-78593740D01*
X51220000Y-78886260D01*
X51277068Y-79173158D01*
X51389010Y-79443411D01*
X51551525Y-79686632D01*
X51758368Y-79893475D01*
X51932760Y-80010000D01*
X51758368Y-80126525D01*
X51551525Y-80333368D01*
X51389010Y-80576589D01*
X51277068Y-80846842D01*
X51220000Y-81133740D01*
X51220000Y-81426260D01*
X51277068Y-81713158D01*
X51389010Y-81983411D01*
X51551525Y-82226632D01*
X51758368Y-82433475D01*
X51932760Y-82550000D01*
X51758368Y-82666525D01*
X51551525Y-82873368D01*
X51389010Y-83116589D01*
X51277068Y-83386842D01*
X51220000Y-83673740D01*
X51220000Y-83966260D01*
X51277068Y-84253158D01*
X51389010Y-84523411D01*
X51551525Y-84766632D01*
X51758368Y-84973475D01*
X51932760Y-85090000D01*
X51758368Y-85206525D01*
X51551525Y-85413368D01*
X51389010Y-85656589D01*
X51277068Y-85926842D01*
X51220000Y-86213740D01*
X51220000Y-86506260D01*
X51277068Y-86793158D01*
X51389010Y-87063411D01*
X51551525Y-87306632D01*
X51758368Y-87513475D01*
X51932760Y-87630000D01*
X51758368Y-87746525D01*
X51551525Y-87953368D01*
X51389010Y-88196589D01*
X51277068Y-88466842D01*
X51220000Y-88753740D01*
X51220000Y-89046260D01*
X51277068Y-89333158D01*
X51389010Y-89603411D01*
X51551525Y-89846632D01*
X51758368Y-90053475D01*
X51932760Y-90170000D01*
X51758368Y-90286525D01*
X51551525Y-90493368D01*
X51389010Y-90736589D01*
X51277068Y-91006842D01*
X51220000Y-91293740D01*
X51220000Y-91586260D01*
X51277068Y-91873158D01*
X51389010Y-92143411D01*
X51551525Y-92386632D01*
X51758368Y-92593475D01*
X51932760Y-92710000D01*
X51758368Y-92826525D01*
X51551525Y-93033368D01*
X51389010Y-93276589D01*
X51277068Y-93546842D01*
X51220000Y-93833740D01*
X51220000Y-94126260D01*
X51277068Y-94413158D01*
X51389010Y-94683411D01*
X51551525Y-94926632D01*
X51758368Y-95133475D01*
X51932760Y-95250000D01*
X51758368Y-95366525D01*
X51551525Y-95573368D01*
X51389010Y-95816589D01*
X51277068Y-96086842D01*
X51220000Y-96373740D01*
X51220000Y-96666260D01*
X51277068Y-96953158D01*
X51389010Y-97223411D01*
X51551525Y-97466632D01*
X51758368Y-97673475D01*
X52001589Y-97835990D01*
X52271842Y-97947932D01*
X52558740Y-98005000D01*
X52851260Y-98005000D01*
X53138158Y-97947932D01*
X53408411Y-97835990D01*
X53621385Y-97693685D01*
X54902100Y-97693685D01*
X54902100Y-97886315D01*
X54939680Y-98075243D01*
X55013396Y-98253210D01*
X55118000Y-98409761D01*
X55118001Y-99075238D01*
X55013396Y-99231790D01*
X54939680Y-99409757D01*
X54902100Y-99598685D01*
X54902100Y-99791315D01*
X54939680Y-99980243D01*
X55013396Y-100158210D01*
X55120415Y-100318375D01*
X55256625Y-100454585D01*
X55416790Y-100561604D01*
X55594757Y-100635320D01*
X55783685Y-100672900D01*
X55976315Y-100672900D01*
X56165243Y-100635320D01*
X56343210Y-100561604D01*
X56503375Y-100454585D01*
X56515000Y-100442960D01*
X56526625Y-100454585D01*
X56686790Y-100561604D01*
X56864757Y-100635320D01*
X57053685Y-100672900D01*
X57246315Y-100672900D01*
X57435243Y-100635320D01*
X57613210Y-100561604D01*
X57773375Y-100454585D01*
X57785000Y-100442960D01*
X57796625Y-100454585D01*
X57956790Y-100561604D01*
X58134757Y-100635320D01*
X58323685Y-100672900D01*
X58516315Y-100672900D01*
X58705243Y-100635320D01*
X58883210Y-100561604D01*
X59043375Y-100454585D01*
X59179585Y-100318375D01*
X59286604Y-100158210D01*
X59360320Y-99980243D01*
X59397900Y-99791315D01*
X59397900Y-99598685D01*
X59360320Y-99409757D01*
X59286604Y-99231790D01*
X59182000Y-99075239D01*
X59182000Y-93329761D01*
X59286604Y-93173210D01*
X59360320Y-92995243D01*
X59397900Y-92806315D01*
X59397900Y-92613685D01*
X59360320Y-92424757D01*
X59286604Y-92246790D01*
X59179585Y-92086625D01*
X59043375Y-91950415D01*
X58883210Y-91843396D01*
X58705243Y-91769680D01*
X58516315Y-91732100D01*
X58323685Y-91732100D01*
X58134757Y-91769680D01*
X57956790Y-91843396D01*
X57796625Y-91950415D01*
X57660415Y-92086625D01*
X57553396Y-92246790D01*
X57479680Y-92424757D01*
X57442100Y-92613685D01*
X57442100Y-92806315D01*
X57479680Y-92995243D01*
X57553396Y-93173210D01*
X57658000Y-93329761D01*
X57658000Y-94413324D01*
X57613210Y-94383396D01*
X57435243Y-94309680D01*
X57246315Y-94272100D01*
X57053685Y-94272100D01*
X56864757Y-94309680D01*
X56686790Y-94383396D01*
X56526625Y-94490415D01*
X56390415Y-94626625D01*
X56283396Y-94786790D01*
X56209680Y-94964757D01*
X56172100Y-95153685D01*
X56172100Y-95346315D01*
X56209680Y-95535243D01*
X56283396Y-95713210D01*
X56388000Y-95869761D01*
X56388000Y-96953324D01*
X56343210Y-96923396D01*
X56165243Y-96849680D01*
X55976315Y-96812100D01*
X55783685Y-96812100D01*
X55594757Y-96849680D01*
X55416790Y-96923396D01*
X55256625Y-97030415D01*
X55120415Y-97166625D01*
X55013396Y-97326790D01*
X54939680Y-97504757D01*
X54902100Y-97693685D01*
X53621385Y-97693685D01*
X53651632Y-97673475D01*
X53858475Y-97466632D01*
X54020990Y-97223411D01*
X54132932Y-96953158D01*
X54190000Y-96666260D01*
X54190000Y-96373740D01*
X54132932Y-96086842D01*
X54020990Y-95816589D01*
X53858475Y-95573368D01*
X53651632Y-95366525D01*
X53477240Y-95250000D01*
X53651632Y-95133475D01*
X53858475Y-94926632D01*
X54020990Y-94683411D01*
X54132932Y-94413158D01*
X54190000Y-94126260D01*
X54190000Y-93833740D01*
X54132932Y-93546842D01*
X54020990Y-93276589D01*
X53858475Y-93033368D01*
X53651632Y-92826525D01*
X53477240Y-92710000D01*
X53651632Y-92593475D01*
X53858475Y-92386632D01*
X54020990Y-92143411D01*
X54132932Y-91873158D01*
X54190000Y-91586260D01*
X54190000Y-91293740D01*
X54132932Y-91006842D01*
X54020990Y-90736589D01*
X53858475Y-90493368D01*
X53651632Y-90286525D01*
X53477240Y-90170000D01*
X53651632Y-90053475D01*
X53858475Y-89846632D01*
X54020990Y-89603411D01*
X54132932Y-89333158D01*
X54190000Y-89046260D01*
X54190000Y-88803685D01*
X61887100Y-88803685D01*
X61887100Y-88996315D01*
X61924680Y-89185243D01*
X61998396Y-89363210D01*
X62103000Y-89519761D01*
X62103001Y-99075238D01*
X61998396Y-99231790D01*
X61924680Y-99409757D01*
X61887100Y-99598685D01*
X61887100Y-99791315D01*
X61924680Y-99980243D01*
X61998396Y-100158210D01*
X62105415Y-100318375D01*
X62241625Y-100454585D01*
X62401790Y-100561604D01*
X62579757Y-100635320D01*
X62768685Y-100672900D01*
X62961315Y-100672900D01*
X63150243Y-100635320D01*
X63328210Y-100561604D01*
X63488375Y-100454585D01*
X63500000Y-100442960D01*
X63511625Y-100454585D01*
X63671790Y-100561604D01*
X63849757Y-100635320D01*
X64038685Y-100672900D01*
X64231315Y-100672900D01*
X64420243Y-100635320D01*
X64598210Y-100561604D01*
X64758375Y-100454585D01*
X64770000Y-100442960D01*
X64781625Y-100454585D01*
X64941790Y-100561604D01*
X65119757Y-100635320D01*
X65308685Y-100672900D01*
X65501315Y-100672900D01*
X65690243Y-100635320D01*
X65868210Y-100561604D01*
X66028375Y-100454585D01*
X66164585Y-100318375D01*
X66271604Y-100158210D01*
X66345320Y-99980243D01*
X66382900Y-99791315D01*
X66382900Y-99598685D01*
X66345320Y-99409757D01*
X66271604Y-99231790D01*
X66167000Y-99075239D01*
X66167000Y-84439761D01*
X66271604Y-84283210D01*
X66345320Y-84105243D01*
X66382900Y-83916315D01*
X66382900Y-83723685D01*
X66345320Y-83534757D01*
X66271604Y-83356790D01*
X66164585Y-83196625D01*
X66028375Y-83060415D01*
X65868210Y-82953396D01*
X65690243Y-82879680D01*
X65501315Y-82842100D01*
X65308685Y-82842100D01*
X65119757Y-82879680D01*
X64941790Y-82953396D01*
X64781625Y-83060415D01*
X64645415Y-83196625D01*
X64538396Y-83356790D01*
X64464680Y-83534757D01*
X64427100Y-83723685D01*
X64427100Y-83916315D01*
X64464680Y-84105243D01*
X64538396Y-84283210D01*
X64643000Y-84439761D01*
X64643000Y-85523324D01*
X64598210Y-85493396D01*
X64420243Y-85419680D01*
X64231315Y-85382100D01*
X64038685Y-85382100D01*
X63849757Y-85419680D01*
X63671790Y-85493396D01*
X63511625Y-85600415D01*
X63375415Y-85736625D01*
X63268396Y-85896790D01*
X63194680Y-86074757D01*
X63157100Y-86263685D01*
X63157100Y-86456315D01*
X63194680Y-86645243D01*
X63268396Y-86823210D01*
X63373000Y-86979761D01*
X63373000Y-88063324D01*
X63328210Y-88033396D01*
X63150243Y-87959680D01*
X62961315Y-87922100D01*
X62768685Y-87922100D01*
X62579757Y-87959680D01*
X62401790Y-88033396D01*
X62241625Y-88140415D01*
X62105415Y-88276625D01*
X61998396Y-88436790D01*
X61924680Y-88614757D01*
X61887100Y-88803685D01*
X54190000Y-88803685D01*
X54190000Y-88753740D01*
X54132932Y-88466842D01*
X54020990Y-88196589D01*
X53858475Y-87953368D01*
X53651632Y-87746525D01*
X53477240Y-87630000D01*
X53651632Y-87513475D01*
X53858475Y-87306632D01*
X54020990Y-87063411D01*
X54132932Y-86793158D01*
X54190000Y-86506260D01*
X54190000Y-86213740D01*
X54132932Y-85926842D01*
X54020990Y-85656589D01*
X53858475Y-85413368D01*
X53651632Y-85206525D01*
X53477240Y-85090000D01*
X53651632Y-84973475D01*
X53858475Y-84766632D01*
X54020990Y-84523411D01*
X54132932Y-84253158D01*
X54190000Y-83966260D01*
X54190000Y-83673740D01*
X54132932Y-83386842D01*
X54020990Y-83116589D01*
X53858475Y-82873368D01*
X53651632Y-82666525D01*
X53477240Y-82550000D01*
X53651632Y-82433475D01*
X53858475Y-82226632D01*
X54020990Y-81983411D01*
X54132932Y-81713158D01*
X54190000Y-81426260D01*
X54190000Y-81133740D01*
X54132932Y-80846842D01*
X54020990Y-80576589D01*
X53858475Y-80333368D01*
X53651632Y-80126525D01*
X53477240Y-80010000D01*
X53651632Y-79893475D01*
X53858475Y-79686632D01*
X54020990Y-79443411D01*
X54132932Y-79173158D01*
X54190000Y-78886260D01*
X54190000Y-78593740D01*
X54132932Y-78306842D01*
X54020990Y-78036589D01*
X53858475Y-77793368D01*
X53651632Y-77586525D01*
X53477240Y-77470000D01*
X53651632Y-77353475D01*
X53858475Y-77146632D01*
X54020990Y-76903411D01*
X54132932Y-76633158D01*
X54190000Y-76346260D01*
X54190000Y-76053740D01*
X54132932Y-75766842D01*
X54020990Y-75496589D01*
X53858475Y-75253368D01*
X53651632Y-75046525D01*
X53477240Y-74930000D01*
X53651632Y-74813475D01*
X53858475Y-74606632D01*
X54020990Y-74363411D01*
X54132932Y-74093158D01*
X54190000Y-73806260D01*
X54190000Y-73513740D01*
X54132932Y-73226842D01*
X54020990Y-72956589D01*
X53858475Y-72713368D01*
X53651632Y-72506525D01*
X53477240Y-72390000D01*
X53651632Y-72273475D01*
X53858475Y-72066632D01*
X54020990Y-71823411D01*
X54132932Y-71553158D01*
X54190000Y-71266260D01*
X54190000Y-70973740D01*
X54132932Y-70686842D01*
X54020990Y-70416589D01*
X53858475Y-70173368D01*
X53651632Y-69966525D01*
X53477240Y-69850000D01*
X53651632Y-69733475D01*
X53858475Y-69526632D01*
X54020990Y-69283411D01*
X54132932Y-69013158D01*
X54190000Y-68726260D01*
X54190000Y-68433740D01*
X66460000Y-68433740D01*
X66460000Y-68726260D01*
X66517068Y-69013158D01*
X66629010Y-69283411D01*
X66791525Y-69526632D01*
X66998368Y-69733475D01*
X67172760Y-69850000D01*
X66998368Y-69966525D01*
X66791525Y-70173368D01*
X66629010Y-70416589D01*
X66517068Y-70686842D01*
X66460000Y-70973740D01*
X66460000Y-71266260D01*
X66517068Y-71553158D01*
X66629010Y-71823411D01*
X66791525Y-72066632D01*
X66998368Y-72273475D01*
X67172760Y-72390000D01*
X66998368Y-72506525D01*
X66791525Y-72713368D01*
X66629010Y-72956589D01*
X66517068Y-73226842D01*
X66460000Y-73513740D01*
X66460000Y-73806260D01*
X66517068Y-74093158D01*
X66629010Y-74363411D01*
X66791525Y-74606632D01*
X66998368Y-74813475D01*
X67172760Y-74930000D01*
X66998368Y-75046525D01*
X66791525Y-75253368D01*
X66629010Y-75496589D01*
X66517068Y-75766842D01*
X66460000Y-76053740D01*
X66460000Y-76346260D01*
X66517068Y-76633158D01*
X66629010Y-76903411D01*
X66791525Y-77146632D01*
X66998368Y-77353475D01*
X67172760Y-77470000D01*
X66998368Y-77586525D01*
X66791525Y-77793368D01*
X66629010Y-78036589D01*
X66517068Y-78306842D01*
X66460000Y-78593740D01*
X66460000Y-78886260D01*
X66517068Y-79173158D01*
X66629010Y-79443411D01*
X66791525Y-79686632D01*
X66998368Y-79893475D01*
X67172760Y-80010000D01*
X66998368Y-80126525D01*
X66791525Y-80333368D01*
X66629010Y-80576589D01*
X66517068Y-80846842D01*
X66460000Y-81133740D01*
X66460000Y-81426260D01*
X66517068Y-81713158D01*
X66629010Y-81983411D01*
X66791525Y-82226632D01*
X66998368Y-82433475D01*
X67172760Y-82550000D01*
X66998368Y-82666525D01*
X66791525Y-82873368D01*
X66629010Y-83116589D01*
X66517068Y-83386842D01*
X66460000Y-83673740D01*
X66460000Y-83966260D01*
X66517068Y-84253158D01*
X66629010Y-84523411D01*
X66791525Y-84766632D01*
X66998368Y-84973475D01*
X67172760Y-85090000D01*
X66998368Y-85206525D01*
X66791525Y-85413368D01*
X66629010Y-85656589D01*
X66517068Y-85926842D01*
X66460000Y-86213740D01*
X66460000Y-86506260D01*
X66517068Y-86793158D01*
X66629010Y-87063411D01*
X66791525Y-87306632D01*
X66998368Y-87513475D01*
X67172760Y-87630000D01*
X66998368Y-87746525D01*
X66791525Y-87953368D01*
X66629010Y-88196589D01*
X66517068Y-88466842D01*
X66460000Y-88753740D01*
X66460000Y-89046260D01*
X66517068Y-89333158D01*
X66629010Y-89603411D01*
X66791525Y-89846632D01*
X66998368Y-90053475D01*
X67172760Y-90170000D01*
X66998368Y-90286525D01*
X66791525Y-90493368D01*
X66629010Y-90736589D01*
X66517068Y-91006842D01*
X66460000Y-91293740D01*
X66460000Y-91586260D01*
X66517068Y-91873158D01*
X66629010Y-92143411D01*
X66791525Y-92386632D01*
X66998368Y-92593475D01*
X67172760Y-92710000D01*
X66998368Y-92826525D01*
X66791525Y-93033368D01*
X66629010Y-93276589D01*
X66517068Y-93546842D01*
X66460000Y-93833740D01*
X66460000Y-94126260D01*
X66517068Y-94413158D01*
X66629010Y-94683411D01*
X66791525Y-94926632D01*
X66998368Y-95133475D01*
X67172760Y-95250000D01*
X66998368Y-95366525D01*
X66791525Y-95573368D01*
X66629010Y-95816589D01*
X66517068Y-96086842D01*
X66460000Y-96373740D01*
X66460000Y-96666260D01*
X66517068Y-96953158D01*
X66629010Y-97223411D01*
X66791525Y-97466632D01*
X66998368Y-97673475D01*
X67241589Y-97835990D01*
X67511842Y-97947932D01*
X67798740Y-98005000D01*
X68091260Y-98005000D01*
X68378158Y-97947932D01*
X68648411Y-97835990D01*
X68891632Y-97673475D01*
X69098475Y-97466632D01*
X69260990Y-97223411D01*
X69372932Y-96953158D01*
X69430000Y-96666260D01*
X69430000Y-96373740D01*
X69372932Y-96086842D01*
X69260990Y-95816589D01*
X69098475Y-95573368D01*
X68891632Y-95366525D01*
X68717240Y-95250000D01*
X68891632Y-95133475D01*
X69098475Y-94926632D01*
X69260990Y-94683411D01*
X69372932Y-94413158D01*
X69430000Y-94126260D01*
X69430000Y-93833740D01*
X69372932Y-93546842D01*
X69260990Y-93276589D01*
X69098475Y-93033368D01*
X68891632Y-92826525D01*
X68717240Y-92710000D01*
X68891632Y-92593475D01*
X69098475Y-92386632D01*
X69260990Y-92143411D01*
X69372932Y-91873158D01*
X69430000Y-91586260D01*
X69430000Y-91293740D01*
X69372932Y-91006842D01*
X69260990Y-90736589D01*
X69098475Y-90493368D01*
X68891632Y-90286525D01*
X68717240Y-90170000D01*
X68891632Y-90053475D01*
X69098475Y-89846632D01*
X69260990Y-89603411D01*
X69372932Y-89333158D01*
X69430000Y-89046260D01*
X69430000Y-88753740D01*
X69372932Y-88466842D01*
X69260990Y-88196589D01*
X69098475Y-87953368D01*
X68891632Y-87746525D01*
X68717240Y-87630000D01*
X68891632Y-87513475D01*
X69098475Y-87306632D01*
X69260990Y-87063411D01*
X69372932Y-86793158D01*
X69430000Y-86506260D01*
X69430000Y-86213740D01*
X69372932Y-85926842D01*
X69260990Y-85656589D01*
X69098475Y-85413368D01*
X68891632Y-85206525D01*
X68717240Y-85090000D01*
X68891632Y-84973475D01*
X69098475Y-84766632D01*
X69260990Y-84523411D01*
X69372932Y-84253158D01*
X69430000Y-83966260D01*
X69430000Y-83673740D01*
X69372932Y-83386842D01*
X69260990Y-83116589D01*
X69098475Y-82873368D01*
X68891632Y-82666525D01*
X68717240Y-82550000D01*
X68891632Y-82433475D01*
X69098475Y-82226632D01*
X69221842Y-82042000D01*
X69534370Y-82042000D01*
X69723000Y-82230630D01*
X69723001Y-99075238D01*
X69618396Y-99231790D01*
X69544680Y-99409757D01*
X69507100Y-99598685D01*
X69507100Y-99791315D01*
X69544680Y-99980243D01*
X69618396Y-100158210D01*
X69725415Y-100318375D01*
X69861625Y-100454585D01*
X70021790Y-100561604D01*
X70199757Y-100635320D01*
X70388685Y-100672900D01*
X70581315Y-100672900D01*
X70770243Y-100635320D01*
X70948210Y-100561604D01*
X71108375Y-100454585D01*
X71120000Y-100442960D01*
X71131625Y-100454585D01*
X71291790Y-100561604D01*
X71469757Y-100635320D01*
X71658685Y-100672900D01*
X71851315Y-100672900D01*
X72040243Y-100635320D01*
X72218210Y-100561604D01*
X72378375Y-100454585D01*
X72390000Y-100442960D01*
X72401625Y-100454585D01*
X72561790Y-100561604D01*
X72739757Y-100635320D01*
X72928685Y-100672900D01*
X73121315Y-100672900D01*
X73310243Y-100635320D01*
X73488210Y-100561604D01*
X73648375Y-100454585D01*
X73660000Y-100442960D01*
X73671625Y-100454585D01*
X73831790Y-100561604D01*
X74009757Y-100635320D01*
X74198685Y-100672900D01*
X74391315Y-100672900D01*
X74580243Y-100635320D01*
X74758210Y-100561604D01*
X74918375Y-100454585D01*
X75054585Y-100318375D01*
X75161604Y-100158210D01*
X75235320Y-99980243D01*
X75272900Y-99791315D01*
X75272900Y-99598685D01*
X75235320Y-99409757D01*
X75161604Y-99231790D01*
X75057000Y-99075239D01*
X75057000Y-98994630D01*
X75634716Y-99572346D01*
X75658578Y-99601422D01*
X75732219Y-99661857D01*
X75774607Y-99696645D01*
X75845364Y-99734465D01*
X75906985Y-99767402D01*
X76050622Y-99810974D01*
X76162574Y-99822000D01*
X76162577Y-99822000D01*
X76200000Y-99825686D01*
X76237423Y-99822000D01*
X76828158Y-99822000D01*
X76951525Y-100006632D01*
X77158368Y-100213475D01*
X77332760Y-100330000D01*
X77158368Y-100446525D01*
X76951525Y-100653368D01*
X76789010Y-100896589D01*
X76677068Y-101166842D01*
X76620000Y-101453740D01*
X76620000Y-101746260D01*
X76677068Y-102033158D01*
X76789010Y-102303411D01*
X76951525Y-102546632D01*
X77158368Y-102753475D01*
X77332760Y-102870000D01*
X77158368Y-102986525D01*
X76951525Y-103193368D01*
X76789010Y-103436589D01*
X76677068Y-103706842D01*
X76620000Y-103993740D01*
X76620000Y-104286260D01*
X76677068Y-104573158D01*
X76789010Y-104843411D01*
X76951525Y-105086632D01*
X77158368Y-105293475D01*
X77332760Y-105410000D01*
X77158368Y-105526525D01*
X76951525Y-105733368D01*
X76789010Y-105976589D01*
X76677068Y-106246842D01*
X76620000Y-106533740D01*
X76620000Y-106826260D01*
X76677068Y-107113158D01*
X76789010Y-107383411D01*
X76951525Y-107626632D01*
X77158368Y-107833475D01*
X77332760Y-107950000D01*
X77158368Y-108066525D01*
X76951525Y-108273368D01*
X76789010Y-108516589D01*
X76677068Y-108786842D01*
X76620000Y-109073740D01*
X76620000Y-109366260D01*
X76677068Y-109653158D01*
X76789010Y-109923411D01*
X76951525Y-110166632D01*
X77158368Y-110373475D01*
X77332760Y-110490000D01*
X77158368Y-110606525D01*
X76951525Y-110813368D01*
X76789010Y-111056589D01*
X76677068Y-111326842D01*
X76620000Y-111613740D01*
X76620000Y-111906260D01*
X76677068Y-112193158D01*
X76789010Y-112463411D01*
X76951525Y-112706632D01*
X77158368Y-112913475D01*
X77332760Y-113030000D01*
X77158368Y-113146525D01*
X76951525Y-113353368D01*
X76789010Y-113596589D01*
X76677068Y-113866842D01*
X76620000Y-114153740D01*
X76620000Y-114446260D01*
X76677068Y-114733158D01*
X76789010Y-115003411D01*
X76951525Y-115246632D01*
X77158368Y-115453475D01*
X77332760Y-115570000D01*
X77158368Y-115686525D01*
X76951525Y-115893368D01*
X76789010Y-116136589D01*
X76677068Y-116406842D01*
X76620000Y-116693740D01*
X76620000Y-116986260D01*
X76677068Y-117273158D01*
X76789010Y-117543411D01*
X76951525Y-117786632D01*
X77158368Y-117993475D01*
X77332760Y-118110000D01*
X77158368Y-118226525D01*
X76951525Y-118433368D01*
X76789010Y-118676589D01*
X76677068Y-118946842D01*
X76620000Y-119233740D01*
X76620000Y-119526260D01*
X76677068Y-119813158D01*
X76789010Y-120083411D01*
X76951525Y-120326632D01*
X77158368Y-120533475D01*
X77332760Y-120650000D01*
X77158368Y-120766525D01*
X76951525Y-120973368D01*
X76789010Y-121216589D01*
X76677068Y-121486842D01*
X76620000Y-121773740D01*
X76620000Y-122066260D01*
X76677068Y-122353158D01*
X76789010Y-122623411D01*
X76951525Y-122866632D01*
X77158368Y-123073475D01*
X77332760Y-123190000D01*
X77158368Y-123306525D01*
X76951525Y-123513368D01*
X76789010Y-123756589D01*
X76677068Y-124026842D01*
X76620000Y-124313740D01*
X76620000Y-124606260D01*
X76677068Y-124893158D01*
X76789010Y-125163411D01*
X76951525Y-125406632D01*
X77158368Y-125613475D01*
X77340534Y-125735195D01*
X77223645Y-125804822D01*
X77007412Y-125999731D01*
X76833359Y-126233080D01*
X76708175Y-126495901D01*
X76663524Y-126643110D01*
X76784845Y-126873000D01*
X77978000Y-126873000D01*
X77978000Y-126853000D01*
X78232000Y-126853000D01*
X78232000Y-126873000D01*
X79425155Y-126873000D01*
X79546476Y-126643110D01*
X79501825Y-126495901D01*
X79376641Y-126233080D01*
X79202588Y-125999731D01*
X78986355Y-125804822D01*
X78869466Y-125735195D01*
X79051632Y-125613475D01*
X79258475Y-125406632D01*
X79420990Y-125163411D01*
X79532932Y-124893158D01*
X79590000Y-124606260D01*
X79590000Y-124313740D01*
X79532932Y-124026842D01*
X79420990Y-123756589D01*
X79258475Y-123513368D01*
X79051632Y-123306525D01*
X78877240Y-123190000D01*
X79051632Y-123073475D01*
X79258475Y-122866632D01*
X79420990Y-122623411D01*
X79532932Y-122353158D01*
X79590000Y-122066260D01*
X79590000Y-121773740D01*
X79532932Y-121486842D01*
X79420990Y-121216589D01*
X79258475Y-120973368D01*
X79051632Y-120766525D01*
X78877240Y-120650000D01*
X79051632Y-120533475D01*
X79258475Y-120326632D01*
X79420990Y-120083411D01*
X79532932Y-119813158D01*
X79590000Y-119526260D01*
X79590000Y-119233740D01*
X79532932Y-118946842D01*
X79420990Y-118676589D01*
X79258475Y-118433368D01*
X79051632Y-118226525D01*
X78877240Y-118110000D01*
X79051632Y-117993475D01*
X79258475Y-117786632D01*
X79420990Y-117543411D01*
X79532932Y-117273158D01*
X79590000Y-116986260D01*
X79590000Y-116693740D01*
X79532932Y-116406842D01*
X79420990Y-116136589D01*
X79258475Y-115893368D01*
X79051632Y-115686525D01*
X78877240Y-115570000D01*
X79051632Y-115453475D01*
X79258475Y-115246632D01*
X79420990Y-115003411D01*
X79532932Y-114733158D01*
X79590000Y-114446260D01*
X79590000Y-114153740D01*
X79532932Y-113866842D01*
X79420990Y-113596589D01*
X79258475Y-113353368D01*
X79051632Y-113146525D01*
X78877240Y-113030000D01*
X79051632Y-112913475D01*
X79258475Y-112706632D01*
X79420990Y-112463411D01*
X79532932Y-112193158D01*
X79590000Y-111906260D01*
X79590000Y-111613740D01*
X79532932Y-111326842D01*
X79420990Y-111056589D01*
X79258475Y-110813368D01*
X79051632Y-110606525D01*
X78877240Y-110490000D01*
X79051632Y-110373475D01*
X79258475Y-110166632D01*
X79420990Y-109923411D01*
X79532932Y-109653158D01*
X79590000Y-109366260D01*
X79590000Y-109073740D01*
X79532932Y-108786842D01*
X79420990Y-108516589D01*
X79258475Y-108273368D01*
X79051632Y-108066525D01*
X78877240Y-107950000D01*
X79051632Y-107833475D01*
X79258475Y-107626632D01*
X79420990Y-107383411D01*
X79532932Y-107113158D01*
X79590000Y-106826260D01*
X79590000Y-106533740D01*
X79532932Y-106246842D01*
X79420990Y-105976589D01*
X79258475Y-105733368D01*
X79051632Y-105526525D01*
X78877240Y-105410000D01*
X79051632Y-105293475D01*
X79258475Y-105086632D01*
X79420990Y-104843411D01*
X79532932Y-104573158D01*
X79590000Y-104286260D01*
X79590000Y-103993740D01*
X79532932Y-103706842D01*
X79420990Y-103436589D01*
X79258475Y-103193368D01*
X79051632Y-102986525D01*
X78877240Y-102870000D01*
X79051632Y-102753475D01*
X79258475Y-102546632D01*
X79420990Y-102303411D01*
X79532932Y-102033158D01*
X79590000Y-101746260D01*
X79590000Y-101453740D01*
X79532932Y-101166842D01*
X79420990Y-100896589D01*
X79258475Y-100653368D01*
X79051632Y-100446525D01*
X78877240Y-100330000D01*
X79051632Y-100213475D01*
X79258475Y-100006632D01*
X79420990Y-99763411D01*
X79532932Y-99493158D01*
X79590000Y-99206260D01*
X79590000Y-98913740D01*
X79532932Y-98626842D01*
X79420990Y-98356589D01*
X79258475Y-98113368D01*
X79051632Y-97906525D01*
X78877240Y-97790000D01*
X79051632Y-97673475D01*
X79258475Y-97466632D01*
X79420990Y-97223411D01*
X79532932Y-96953158D01*
X79590000Y-96666260D01*
X79590000Y-96373740D01*
X79532932Y-96086842D01*
X79420990Y-95816589D01*
X79258475Y-95573368D01*
X79051632Y-95366525D01*
X78877240Y-95250000D01*
X79051632Y-95133475D01*
X79258475Y-94926632D01*
X79420990Y-94683411D01*
X79532932Y-94413158D01*
X79590000Y-94126260D01*
X79590000Y-93833740D01*
X79532932Y-93546842D01*
X79420990Y-93276589D01*
X79258475Y-93033368D01*
X79051632Y-92826525D01*
X78877240Y-92710000D01*
X79051632Y-92593475D01*
X79258475Y-92386632D01*
X79420990Y-92143411D01*
X79532932Y-91873158D01*
X79590000Y-91586260D01*
X79590000Y-91293740D01*
X79532932Y-91006842D01*
X79420990Y-90736589D01*
X79258475Y-90493368D01*
X79051632Y-90286525D01*
X78877240Y-90170000D01*
X79051632Y-90053475D01*
X79258475Y-89846632D01*
X79420990Y-89603411D01*
X79532932Y-89333158D01*
X79590000Y-89046260D01*
X79590000Y-88753740D01*
X79532932Y-88466842D01*
X79420990Y-88196589D01*
X79258475Y-87953368D01*
X79051632Y-87746525D01*
X78877240Y-87630000D01*
X79051632Y-87513475D01*
X79258475Y-87306632D01*
X79420990Y-87063411D01*
X79532932Y-86793158D01*
X79590000Y-86506260D01*
X79590000Y-86213740D01*
X79532932Y-85926842D01*
X79420990Y-85656589D01*
X79258475Y-85413368D01*
X79051632Y-85206525D01*
X78877240Y-85090000D01*
X79051632Y-84973475D01*
X79258475Y-84766632D01*
X79420990Y-84523411D01*
X79532932Y-84253158D01*
X79590000Y-83966260D01*
X79590000Y-83673740D01*
X79532932Y-83386842D01*
X79420990Y-83116589D01*
X79258475Y-82873368D01*
X79051632Y-82666525D01*
X78877240Y-82550000D01*
X79051632Y-82433475D01*
X79258475Y-82226632D01*
X79420990Y-81983411D01*
X79532932Y-81713158D01*
X79590000Y-81426260D01*
X79590000Y-81133740D01*
X79532932Y-80846842D01*
X79420990Y-80576589D01*
X79258475Y-80333368D01*
X79051632Y-80126525D01*
X78877240Y-80010000D01*
X79051632Y-79893475D01*
X79258475Y-79686632D01*
X79420990Y-79443411D01*
X79532932Y-79173158D01*
X79590000Y-78886260D01*
X79590000Y-78593740D01*
X79532932Y-78306842D01*
X79420990Y-78036589D01*
X79258475Y-77793368D01*
X79051632Y-77586525D01*
X78877240Y-77470000D01*
X79051632Y-77353475D01*
X79258475Y-77146632D01*
X79420990Y-76903411D01*
X79532932Y-76633158D01*
X79590000Y-76346260D01*
X79590000Y-76053740D01*
X79532932Y-75766842D01*
X79420990Y-75496589D01*
X79258475Y-75253368D01*
X79051632Y-75046525D01*
X78877240Y-74930000D01*
X79051632Y-74813475D01*
X79258475Y-74606632D01*
X79420990Y-74363411D01*
X79532932Y-74093158D01*
X79590000Y-73806260D01*
X79590000Y-73513740D01*
X79532932Y-73226842D01*
X79420990Y-72956589D01*
X79258475Y-72713368D01*
X79051632Y-72506525D01*
X78877240Y-72390000D01*
X79051632Y-72273475D01*
X79258475Y-72066632D01*
X79420990Y-71823411D01*
X79532932Y-71553158D01*
X79590000Y-71266260D01*
X79590000Y-70973740D01*
X79532932Y-70686842D01*
X79420990Y-70416589D01*
X79258475Y-70173368D01*
X79051632Y-69966525D01*
X78869466Y-69844805D01*
X78986355Y-69775178D01*
X79202588Y-69580269D01*
X79376641Y-69346920D01*
X79501825Y-69084099D01*
X79546476Y-68936890D01*
X79425155Y-68707000D01*
X78232000Y-68707000D01*
X78232000Y-68727000D01*
X77978000Y-68727000D01*
X77978000Y-68707000D01*
X76784845Y-68707000D01*
X76663524Y-68936890D01*
X76708175Y-69084099D01*
X76833359Y-69346920D01*
X77007412Y-69580269D01*
X77223645Y-69775178D01*
X77340534Y-69844805D01*
X77158368Y-69966525D01*
X76951525Y-70173368D01*
X76789010Y-70416589D01*
X76677068Y-70686842D01*
X76620000Y-70973740D01*
X76620000Y-71266260D01*
X76677068Y-71553158D01*
X76789010Y-71823411D01*
X76951525Y-72066632D01*
X77158368Y-72273475D01*
X77332760Y-72390000D01*
X77158368Y-72506525D01*
X76951525Y-72713368D01*
X76789010Y-72956589D01*
X76677068Y-73226842D01*
X76620000Y-73513740D01*
X76620000Y-73806260D01*
X76677068Y-74093158D01*
X76789010Y-74363411D01*
X76951525Y-74606632D01*
X77158368Y-74813475D01*
X77332760Y-74930000D01*
X77158368Y-75046525D01*
X76951525Y-75253368D01*
X76789010Y-75496589D01*
X76677068Y-75766842D01*
X76620000Y-76053740D01*
X76620000Y-76346260D01*
X76677068Y-76633158D01*
X76789010Y-76903411D01*
X76951525Y-77146632D01*
X77158368Y-77353475D01*
X77332760Y-77470000D01*
X77158368Y-77586525D01*
X76951525Y-77793368D01*
X76789010Y-78036589D01*
X76677068Y-78306842D01*
X76620000Y-78593740D01*
X76620000Y-78886260D01*
X76677068Y-79173158D01*
X76789010Y-79443411D01*
X76951525Y-79686632D01*
X77158368Y-79893475D01*
X77332760Y-80010000D01*
X77158368Y-80126525D01*
X76951525Y-80333368D01*
X76789010Y-80576589D01*
X76677068Y-80846842D01*
X76620000Y-81133740D01*
X76620000Y-81426260D01*
X76677068Y-81713158D01*
X76789010Y-81983411D01*
X76951525Y-82226632D01*
X77158368Y-82433475D01*
X77332760Y-82550000D01*
X77158368Y-82666525D01*
X76951525Y-82873368D01*
X76789010Y-83116589D01*
X76677068Y-83386842D01*
X76620000Y-83673740D01*
X76620000Y-83966260D01*
X76677068Y-84253158D01*
X76789010Y-84523411D01*
X76951525Y-84766632D01*
X77158368Y-84973475D01*
X77332760Y-85090000D01*
X77158368Y-85206525D01*
X76951525Y-85413368D01*
X76789010Y-85656589D01*
X76677068Y-85926842D01*
X76620000Y-86213740D01*
X76620000Y-86506260D01*
X76677068Y-86793158D01*
X76789010Y-87063411D01*
X76951525Y-87306632D01*
X77158368Y-87513475D01*
X77332760Y-87630000D01*
X77158368Y-87746525D01*
X76951525Y-87953368D01*
X76789010Y-88196589D01*
X76677068Y-88466842D01*
X76620000Y-88753740D01*
X76620000Y-89046260D01*
X76677068Y-89333158D01*
X76789010Y-89603411D01*
X76951525Y-89846632D01*
X77158368Y-90053475D01*
X77332760Y-90170000D01*
X77158368Y-90286525D01*
X76951525Y-90493368D01*
X76789010Y-90736589D01*
X76677068Y-91006842D01*
X76620000Y-91293740D01*
X76620000Y-91586260D01*
X76677068Y-91873158D01*
X76789010Y-92143411D01*
X76951525Y-92386632D01*
X77158368Y-92593475D01*
X77332760Y-92710000D01*
X77158368Y-92826525D01*
X76951525Y-93033368D01*
X76789010Y-93276589D01*
X76677068Y-93546842D01*
X76620000Y-93833740D01*
X76620000Y-94126260D01*
X76677068Y-94413158D01*
X76789010Y-94683411D01*
X76951525Y-94926632D01*
X77158368Y-95133475D01*
X77332760Y-95250000D01*
X77158368Y-95366525D01*
X76951525Y-95573368D01*
X76789010Y-95816589D01*
X76677068Y-96086842D01*
X76620000Y-96373740D01*
X76620000Y-96666260D01*
X76677068Y-96953158D01*
X76789010Y-97223411D01*
X76951525Y-97466632D01*
X77158368Y-97673475D01*
X77332760Y-97790000D01*
X77158368Y-97906525D01*
X76951525Y-98113368D01*
X76828158Y-98298000D01*
X76515630Y-98298000D01*
X76327000Y-98109370D01*
X76327000Y-71792423D01*
X76330686Y-71755000D01*
X76323753Y-71684609D01*
X76315974Y-71605622D01*
X76272402Y-71461985D01*
X76201646Y-71329609D01*
X76201645Y-71329607D01*
X76166857Y-71287219D01*
X76106422Y-71213578D01*
X76077347Y-71189717D01*
X75495284Y-70607654D01*
X75471422Y-70578578D01*
X75355392Y-70483355D01*
X75223015Y-70412598D01*
X75079378Y-70369026D01*
X74967426Y-70358000D01*
X74967423Y-70358000D01*
X74930000Y-70354314D01*
X74892577Y-70358000D01*
X69221842Y-70358000D01*
X69098475Y-70173368D01*
X68891632Y-69966525D01*
X68717240Y-69850000D01*
X68891632Y-69733475D01*
X69098475Y-69526632D01*
X69260990Y-69283411D01*
X69372932Y-69013158D01*
X69430000Y-68726260D01*
X69430000Y-68433740D01*
X69372932Y-68146842D01*
X69260990Y-67876589D01*
X69098475Y-67633368D01*
X68891632Y-67426525D01*
X68709466Y-67304805D01*
X68826355Y-67235178D01*
X69042588Y-67040269D01*
X69216641Y-66806920D01*
X69341825Y-66544099D01*
X69386476Y-66396890D01*
X69265155Y-66167000D01*
X68072000Y-66167000D01*
X68072000Y-66187000D01*
X67818000Y-66187000D01*
X67818000Y-66167000D01*
X66624845Y-66167000D01*
X66503524Y-66396890D01*
X66548175Y-66544099D01*
X66673359Y-66806920D01*
X66847412Y-67040269D01*
X67063645Y-67235178D01*
X67180534Y-67304805D01*
X66998368Y-67426525D01*
X66791525Y-67633368D01*
X66629010Y-67876589D01*
X66517068Y-68146842D01*
X66460000Y-68433740D01*
X54190000Y-68433740D01*
X54132932Y-68146842D01*
X54020990Y-67876589D01*
X53858475Y-67633368D01*
X53651632Y-67426525D01*
X53477240Y-67310000D01*
X53651632Y-67193475D01*
X53858475Y-66986632D01*
X54020990Y-66743411D01*
X54132932Y-66473158D01*
X54190000Y-66186260D01*
X54190000Y-65893740D01*
X54132932Y-65606842D01*
X54020990Y-65336589D01*
X53858475Y-65093368D01*
X53726620Y-64961513D01*
X53799180Y-64939502D01*
X53909494Y-64880537D01*
X54006185Y-64801185D01*
X54085537Y-64704494D01*
X54144502Y-64594180D01*
X54180812Y-64474482D01*
X54193072Y-64350000D01*
X54190000Y-63785750D01*
X54031250Y-63627000D01*
X52832000Y-63627000D01*
X52832000Y-63647000D01*
X52578000Y-63647000D01*
X52578000Y-63627000D01*
X51378750Y-63627000D01*
X51220000Y-63785750D01*
X51216928Y-64350000D01*
X47208072Y-64350000D01*
X47208072Y-62650000D01*
X51216928Y-62650000D01*
X51220000Y-63214250D01*
X51378750Y-63373000D01*
X52578000Y-63373000D01*
X52578000Y-62173750D01*
X52832000Y-62173750D01*
X52832000Y-63373000D01*
X54031250Y-63373000D01*
X54190000Y-63214250D01*
X54193072Y-62650000D01*
X66456928Y-62650000D01*
X66456928Y-64350000D01*
X66469188Y-64474482D01*
X66505498Y-64594180D01*
X66564463Y-64704494D01*
X66643815Y-64801185D01*
X66740506Y-64880537D01*
X66850820Y-64939502D01*
X66931466Y-64963966D01*
X66847412Y-65039731D01*
X66673359Y-65273080D01*
X66548175Y-65535901D01*
X66503524Y-65683110D01*
X66624845Y-65913000D01*
X67818000Y-65913000D01*
X67818000Y-65893000D01*
X68072000Y-65893000D01*
X68072000Y-65913000D01*
X69265155Y-65913000D01*
X69386476Y-65683110D01*
X69341825Y-65535901D01*
X69216641Y-65273080D01*
X69042588Y-65039731D01*
X68958534Y-64963966D01*
X69039180Y-64939502D01*
X69149494Y-64880537D01*
X69246185Y-64801185D01*
X69325537Y-64704494D01*
X69384502Y-64594180D01*
X69420812Y-64474482D01*
X69433072Y-64350000D01*
X76616928Y-64350000D01*
X76629188Y-64474482D01*
X76665498Y-64594180D01*
X76724463Y-64704494D01*
X76803815Y-64801185D01*
X76900506Y-64880537D01*
X77010820Y-64939502D01*
X77083380Y-64961513D01*
X76951525Y-65093368D01*
X76789010Y-65336589D01*
X76677068Y-65606842D01*
X76620000Y-65893740D01*
X76620000Y-66186260D01*
X76677068Y-66473158D01*
X76789010Y-66743411D01*
X76951525Y-66986632D01*
X77158368Y-67193475D01*
X77340534Y-67315195D01*
X77223645Y-67384822D01*
X77007412Y-67579731D01*
X76833359Y-67813080D01*
X76708175Y-68075901D01*
X76663524Y-68223110D01*
X76784845Y-68453000D01*
X77978000Y-68453000D01*
X77978000Y-68433000D01*
X78232000Y-68433000D01*
X78232000Y-68453000D01*
X79425155Y-68453000D01*
X79546476Y-68223110D01*
X79501825Y-68075901D01*
X79376641Y-67813080D01*
X79202588Y-67579731D01*
X78986355Y-67384822D01*
X78869466Y-67315195D01*
X79051632Y-67193475D01*
X79258475Y-66986632D01*
X79420990Y-66743411D01*
X79532932Y-66473158D01*
X79590000Y-66186260D01*
X79590000Y-65893740D01*
X79532932Y-65606842D01*
X79420990Y-65336589D01*
X79258475Y-65093368D01*
X79126620Y-64961513D01*
X79199180Y-64939502D01*
X79309494Y-64880537D01*
X79406185Y-64801185D01*
X79485537Y-64704494D01*
X79544502Y-64594180D01*
X79580812Y-64474482D01*
X79593072Y-64350000D01*
X79590000Y-63785750D01*
X79431250Y-63627000D01*
X78232000Y-63627000D01*
X78232000Y-63647000D01*
X77978000Y-63647000D01*
X77978000Y-63627000D01*
X76778750Y-63627000D01*
X76620000Y-63785750D01*
X76616928Y-64350000D01*
X69433072Y-64350000D01*
X69433072Y-62650000D01*
X76616928Y-62650000D01*
X76620000Y-63214250D01*
X76778750Y-63373000D01*
X77978000Y-63373000D01*
X77978000Y-62173750D01*
X78232000Y-62173750D01*
X78232000Y-63373000D01*
X79431250Y-63373000D01*
X79590000Y-63214250D01*
X79593072Y-62650000D01*
X79580812Y-62525518D01*
X79544502Y-62405820D01*
X79485537Y-62295506D01*
X79406185Y-62198815D01*
X79309494Y-62119463D01*
X79199180Y-62060498D01*
X79079482Y-62024188D01*
X78955000Y-62011928D01*
X78390750Y-62015000D01*
X78232000Y-62173750D01*
X77978000Y-62173750D01*
X77819250Y-62015000D01*
X77255000Y-62011928D01*
X77130518Y-62024188D01*
X77010820Y-62060498D01*
X76900506Y-62119463D01*
X76803815Y-62198815D01*
X76724463Y-62295506D01*
X76665498Y-62405820D01*
X76629188Y-62525518D01*
X76616928Y-62650000D01*
X69433072Y-62650000D01*
X69420812Y-62525518D01*
X69384502Y-62405820D01*
X69325537Y-62295506D01*
X69246185Y-62198815D01*
X69149494Y-62119463D01*
X69039180Y-62060498D01*
X68919482Y-62024188D01*
X68795000Y-62011928D01*
X67095000Y-62011928D01*
X66970518Y-62024188D01*
X66850820Y-62060498D01*
X66740506Y-62119463D01*
X66643815Y-62198815D01*
X66564463Y-62295506D01*
X66505498Y-62405820D01*
X66469188Y-62525518D01*
X66456928Y-62650000D01*
X54193072Y-62650000D01*
X54180812Y-62525518D01*
X54144502Y-62405820D01*
X54085537Y-62295506D01*
X54006185Y-62198815D01*
X53909494Y-62119463D01*
X53799180Y-62060498D01*
X53679482Y-62024188D01*
X53555000Y-62011928D01*
X52990750Y-62015000D01*
X52832000Y-62173750D01*
X52578000Y-62173750D01*
X52419250Y-62015000D01*
X51855000Y-62011928D01*
X51730518Y-62024188D01*
X51610820Y-62060498D01*
X51500506Y-62119463D01*
X51403815Y-62198815D01*
X51324463Y-62295506D01*
X51265498Y-62405820D01*
X51229188Y-62525518D01*
X51216928Y-62650000D01*
X47208072Y-62650000D01*
X47195812Y-62525518D01*
X47159502Y-62405820D01*
X47100537Y-62295506D01*
X47021185Y-62198815D01*
X46924494Y-62119463D01*
X46814180Y-62060498D01*
X46694482Y-62024188D01*
X46570000Y-62011928D01*
X44870000Y-62011928D01*
X44745518Y-62024188D01*
X44625820Y-62060498D01*
X44515506Y-62119463D01*
X44418815Y-62198815D01*
X44339463Y-62295506D01*
X44280498Y-62405820D01*
X44258487Y-62478380D01*
X44126632Y-62346525D01*
X43883411Y-62184010D01*
X43613158Y-62072068D01*
X43326260Y-62015000D01*
X43033740Y-62015000D01*
X42746842Y-62072068D01*
X42476589Y-62184010D01*
X42233368Y-62346525D01*
X42026525Y-62553368D01*
X41864010Y-62796589D01*
X41752068Y-63066842D01*
X41695000Y-63353740D01*
X38715000Y-63353740D01*
X38715000Y-63314344D01*
X38642561Y-62950166D01*
X38500466Y-62607118D01*
X38294175Y-62298382D01*
X38031618Y-62035825D01*
X37722882Y-61829534D01*
X37379834Y-61687439D01*
X37015656Y-61615000D01*
X36644344Y-61615000D01*
X36280166Y-61687439D01*
X35937118Y-61829534D01*
X35628382Y-62035825D01*
X35365825Y-62298382D01*
X35159534Y-62607118D01*
X35017439Y-62950166D01*
X34945000Y-63314344D01*
X16490000Y-63314344D01*
X16417561Y-62950166D01*
X16275466Y-62607118D01*
X16069175Y-62298382D01*
X15806618Y-62035825D01*
X15497882Y-61829534D01*
X15154834Y-61687439D01*
X14790656Y-61615000D01*
X14419344Y-61615000D01*
X14055166Y-61687439D01*
X13712118Y-61829534D01*
X13403382Y-62035825D01*
X13140825Y-62298382D01*
X12934534Y-62607118D01*
X12792439Y-62950166D01*
X12720000Y-63314344D01*
X12090000Y-63314344D01*
X12090000Y-60985000D01*
X80620000Y-60985000D01*
X80620001Y-129515000D01*
G37*
X80620001Y-129515000D02*
X68853381Y-129515000D01*
X66695271Y-127356890D01*
X76663524Y-127356890D01*
X76708175Y-127504099D01*
X76833359Y-127766920D01*
X77007412Y-128000269D01*
X77223645Y-128195178D01*
X77473748Y-128344157D01*
X77748109Y-128441481D01*
X77978000Y-128320814D01*
X77978000Y-127127000D01*
X78232000Y-127127000D01*
X78232000Y-128320814D01*
X78461891Y-128441481D01*
X78736252Y-128344157D01*
X78986355Y-128195178D01*
X79202588Y-128000269D01*
X79376641Y-127766920D01*
X79501825Y-127504099D01*
X79546476Y-127356890D01*
X79425155Y-127127000D01*
X78232000Y-127127000D01*
X77978000Y-127127000D01*
X76784845Y-127127000D01*
X76663524Y-127356890D01*
X66695271Y-127356890D01*
X46209616Y-106871236D01*
X46188948Y-106846052D01*
X46088450Y-106763575D01*
X45973793Y-106702290D01*
X45849383Y-106664550D01*
X45752419Y-106655000D01*
X45752409Y-106655000D01*
X45720000Y-106651808D01*
X45687591Y-106655000D01*
X12090000Y-106655000D01*
X12090000Y-103954344D01*
X12720000Y-103954344D01*
X12720000Y-104325656D01*
X12792439Y-104689834D01*
X12934534Y-105032882D01*
X13140825Y-105341618D01*
X13403382Y-105604175D01*
X13712118Y-105810466D01*
X14055166Y-105952561D01*
X14419344Y-106025000D01*
X14790656Y-106025000D01*
X15154834Y-105952561D01*
X15497882Y-105810466D01*
X15806618Y-105604175D01*
X16069175Y-105341618D01*
X16275466Y-105032882D01*
X16417561Y-104689834D01*
X16490000Y-104325656D01*
X16490000Y-103954344D01*
X16417561Y-103590166D01*
X16275466Y-103247118D01*
X16069175Y-102938382D01*
X15806618Y-102675825D01*
X15497882Y-102469534D01*
X15154834Y-102327439D01*
X14790656Y-102255000D01*
X14419344Y-102255000D01*
X14055166Y-102327439D01*
X13712118Y-102469534D01*
X13403382Y-102675825D01*
X13140825Y-102938382D01*
X12934534Y-103247118D01*
X12792439Y-103590166D01*
X12720000Y-103954344D01*
X12090000Y-103954344D01*
X12090000Y-95788685D01*
X21247100Y-95788685D01*
X21247100Y-95981315D01*
X21284680Y-96170243D01*
X21358396Y-96348210D01*
X21463000Y-96504761D01*
X21463001Y-102885238D01*
X21358396Y-103041790D01*
X21284680Y-103219757D01*
X21247100Y-103408685D01*
X21247100Y-103601315D01*
X21284680Y-103790243D01*
X21358396Y-103968210D01*
X21465415Y-104128375D01*
X21601625Y-104264585D01*
X21761790Y-104371604D01*
X21939757Y-104445320D01*
X22128685Y-104482900D01*
X22321315Y-104482900D01*
X22510243Y-104445320D01*
X22688210Y-104371604D01*
X22848375Y-104264585D01*
X22984585Y-104128375D01*
X23091604Y-103968210D01*
X23165320Y-103790243D01*
X23202900Y-103601315D01*
X23202900Y-103408685D01*
X23165320Y-103219757D01*
X23091604Y-103041790D01*
X22987000Y-102885239D01*
X22987000Y-96504761D01*
X23091604Y-96348210D01*
X23165320Y-96170243D01*
X23202900Y-95981315D01*
X23202900Y-95788685D01*
X23165320Y-95599757D01*
X23091604Y-95421790D01*
X22984585Y-95261625D01*
X22848375Y-95125415D01*
X22688210Y-95018396D01*
X22510243Y-94944680D01*
X22321315Y-94907100D01*
X22128685Y-94907100D01*
X21939757Y-94944680D01*
X21761790Y-95018396D01*
X21601625Y-95125415D01*
X21465415Y-95261625D01*
X21358396Y-95421790D01*
X21284680Y-95599757D01*
X21247100Y-95788685D01*
X12090000Y-95788685D01*
X12090000Y-80548685D01*
X43472100Y-80548685D01*
X43472100Y-80741315D01*
X43509680Y-80930243D01*
X43583396Y-81108210D01*
X43688000Y-81264761D01*
X43688001Y-82565238D01*
X43583396Y-82721790D01*
X43509680Y-82899757D01*
X43472100Y-83088685D01*
X43472100Y-83281315D01*
X43509680Y-83470243D01*
X43583396Y-83648210D01*
X43690415Y-83808375D01*
X43826625Y-83944585D01*
X43986790Y-84051604D01*
X44164757Y-84125320D01*
X44353685Y-84162900D01*
X44546315Y-84162900D01*
X44735243Y-84125320D01*
X44913210Y-84051604D01*
X45073375Y-83944585D01*
X45209585Y-83808375D01*
X45316604Y-83648210D01*
X45390320Y-83470243D01*
X45427900Y-83281315D01*
X45427900Y-83088685D01*
X45390320Y-82899757D01*
X45316604Y-82721790D01*
X45212000Y-82565239D01*
X45212000Y-81264761D01*
X45316604Y-81108210D01*
X45390320Y-80930243D01*
X45427900Y-80741315D01*
X45427900Y-80548685D01*
X45390320Y-80359757D01*
X45316604Y-80181790D01*
X45209585Y-80021625D01*
X45073375Y-79885415D01*
X44913210Y-79778396D01*
X44735243Y-79704680D01*
X44546315Y-79667100D01*
X44353685Y-79667100D01*
X44164757Y-79704680D01*
X43986790Y-79778396D01*
X43826625Y-79885415D01*
X43690415Y-80021625D01*
X43583396Y-80181790D01*
X43509680Y-80359757D01*
X43472100Y-80548685D01*
X12090000Y-80548685D01*
X12090000Y-72888589D01*
X13220000Y-72888589D01*
X13220000Y-73161411D01*
X13273225Y-73428989D01*
X13377629Y-73681043D01*
X13529201Y-73907886D01*
X13722114Y-74100799D01*
X13948957Y-74252371D01*
X14201011Y-74356775D01*
X14468589Y-74410000D01*
X14741411Y-74410000D01*
X15008989Y-74356775D01*
X15261043Y-74252371D01*
X15487886Y-74100799D01*
X15680799Y-73907886D01*
X15832371Y-73681043D01*
X15936775Y-73428989D01*
X15990000Y-73161411D01*
X15990000Y-72888589D01*
X15972281Y-72799509D01*
X21505000Y-72799509D01*
X21505000Y-73840492D01*
X21525764Y-74051309D01*
X21607818Y-74321808D01*
X21741068Y-74571101D01*
X21920393Y-74789608D01*
X22138900Y-74968932D01*
X22388193Y-75102182D01*
X22658692Y-75184236D01*
X22940000Y-75211943D01*
X23221309Y-75184236D01*
X23491808Y-75102182D01*
X23741101Y-74968932D01*
X23959608Y-74789608D01*
X24138932Y-74571101D01*
X24210000Y-74438142D01*
X24281068Y-74571101D01*
X24460393Y-74789608D01*
X24678900Y-74968932D01*
X24928193Y-75102182D01*
X25198692Y-75184236D01*
X25480000Y-75211943D01*
X25761309Y-75184236D01*
X26031808Y-75102182D01*
X26281101Y-74968932D01*
X26499608Y-74789608D01*
X26678932Y-74571101D01*
X26812182Y-74321808D01*
X26894236Y-74051309D01*
X26915000Y-73840491D01*
X26915000Y-72799508D01*
X26894236Y-72588691D01*
X26812182Y-72318192D01*
X26678932Y-72068899D01*
X26499607Y-71850392D01*
X26281100Y-71671068D01*
X26031807Y-71537818D01*
X25761308Y-71455764D01*
X25480000Y-71428057D01*
X25198691Y-71455764D01*
X24928192Y-71537818D01*
X24678899Y-71671068D01*
X24460392Y-71850393D01*
X24281068Y-72068900D01*
X24210000Y-72201858D01*
X24138932Y-72068899D01*
X23959607Y-71850392D01*
X23741100Y-71671068D01*
X23491807Y-71537818D01*
X23221308Y-71455764D01*
X22940000Y-71428057D01*
X22658691Y-71455764D01*
X22388192Y-71537818D01*
X22138899Y-71671068D01*
X21920392Y-71850393D01*
X21741068Y-72068900D01*
X21607818Y-72318193D01*
X21525764Y-72588692D01*
X21505000Y-72799509D01*
X15972281Y-72799509D01*
X15936775Y-72621011D01*
X15832371Y-72368957D01*
X15680799Y-72142114D01*
X15487886Y-71949201D01*
X15261043Y-71797629D01*
X15008989Y-71693225D01*
X14741411Y-71640000D01*
X14468589Y-71640000D01*
X14201011Y-71693225D01*
X13948957Y-71797629D01*
X13722114Y-71949201D01*
X13529201Y-72142114D01*
X13377629Y-72368957D01*
X13273225Y-72621011D01*
X13220000Y-72888589D01*
X12090000Y-72888589D01*
X12090000Y-69078589D01*
X13220000Y-69078589D01*
X13220000Y-69351411D01*
X13273225Y-69618989D01*
X13377629Y-69871043D01*
X13529201Y-70097886D01*
X13722114Y-70290799D01*
X13948957Y-70442371D01*
X14201011Y-70546775D01*
X14468589Y-70600000D01*
X14741411Y-70600000D01*
X15008989Y-70546775D01*
X15261043Y-70442371D01*
X15487886Y-70290799D01*
X15680799Y-70097886D01*
X15832371Y-69871043D01*
X15936775Y-69618989D01*
X15990000Y-69351411D01*
X15990000Y-69078589D01*
X15936775Y-68811011D01*
X15832371Y-68558957D01*
X15680799Y-68332114D01*
X15487886Y-68139201D01*
X15261043Y-67987629D01*
X15008989Y-67883225D01*
X14741411Y-67830000D01*
X14468589Y-67830000D01*
X14201011Y-67883225D01*
X13948957Y-67987629D01*
X13722114Y-68139201D01*
X13529201Y-68332114D01*
X13377629Y-68558957D01*
X13273225Y-68811011D01*
X13220000Y-69078589D01*
X12090000Y-69078589D01*
X12090000Y-66372844D01*
X18015000Y-66372844D01*
X18015000Y-70107157D01*
X18049511Y-70457542D01*
X18185888Y-70907116D01*
X18407352Y-71321446D01*
X18705392Y-71684609D01*
X19068555Y-71982649D01*
X19482885Y-72204113D01*
X19932459Y-72340490D01*
X20400000Y-72386539D01*
X20867542Y-72340490D01*
X21317116Y-72204113D01*
X21731446Y-71982649D01*
X22094609Y-71684609D01*
X22392649Y-71321446D01*
X22614113Y-70907116D01*
X22750490Y-70457542D01*
X22785000Y-70107157D01*
X22785000Y-66372844D01*
X28175000Y-66372844D01*
X28175000Y-70107157D01*
X28209511Y-70457542D01*
X28345888Y-70907116D01*
X28567352Y-71321446D01*
X28865392Y-71684609D01*
X29228555Y-71982649D01*
X29642885Y-72204113D01*
X30092459Y-72340490D01*
X30560000Y-72386539D01*
X31027542Y-72340490D01*
X31477116Y-72204113D01*
X31891446Y-71982649D01*
X32254609Y-71684609D01*
X32552649Y-71321446D01*
X32774113Y-70907116D01*
X32910490Y-70457542D01*
X32945000Y-70107157D01*
X32945000Y-66372843D01*
X32910490Y-66022458D01*
X32774113Y-65572884D01*
X32552649Y-65158554D01*
X32254609Y-64795391D01*
X31891445Y-64497351D01*
X31477115Y-64275887D01*
X31027541Y-64139510D01*
X30560000Y-64093461D01*
X30092458Y-64139510D01*
X29642884Y-64275887D01*
X29228554Y-64497351D01*
X28865391Y-64795391D01*
X28567351Y-65158555D01*
X28345887Y-65572885D01*
X28209510Y-66022459D01*
X28175000Y-66372844D01*
X22785000Y-66372844D01*
X22785000Y-66372843D01*
X22750490Y-66022458D01*
X22614113Y-65572884D01*
X22392649Y-65158554D01*
X22094609Y-64795391D01*
X21731445Y-64497351D01*
X21317115Y-64275887D01*
X20867541Y-64139510D01*
X20400000Y-64093461D01*
X19932458Y-64139510D01*
X19482884Y-64275887D01*
X19068554Y-64497351D01*
X18705391Y-64795391D01*
X18407351Y-65158555D01*
X18185887Y-65572885D01*
X18049510Y-66022459D01*
X18015000Y-66372844D01*
X12090000Y-66372844D01*
X12090000Y-63314344D01*
X12720000Y-63314344D01*
X12720000Y-63685656D01*
X12792439Y-64049834D01*
X12934534Y-64392882D01*
X13140825Y-64701618D01*
X13403382Y-64964175D01*
X13712118Y-65170466D01*
X14055166Y-65312561D01*
X14419344Y-65385000D01*
X14790656Y-65385000D01*
X15154834Y-65312561D01*
X15497882Y-65170466D01*
X15806618Y-64964175D01*
X16069175Y-64701618D01*
X16275466Y-64392882D01*
X16417561Y-64049834D01*
X16490000Y-63685656D01*
X16490000Y-63314344D01*
X34945000Y-63314344D01*
X34945000Y-63685656D01*
X35017439Y-64049834D01*
X35159534Y-64392882D01*
X35365825Y-64701618D01*
X35628382Y-64964175D01*
X35937118Y-65170466D01*
X36280166Y-65312561D01*
X36644344Y-65385000D01*
X37015656Y-65385000D01*
X37379834Y-65312561D01*
X37722882Y-65170466D01*
X38031618Y-64964175D01*
X38294175Y-64701618D01*
X38500466Y-64392882D01*
X38642561Y-64049834D01*
X38715000Y-63685656D01*
X38715000Y-63353740D01*
X41695000Y-63353740D01*
X41695000Y-63646260D01*
X41752068Y-63933158D01*
X41864010Y-64203411D01*
X42026525Y-64446632D01*
X42233368Y-64653475D01*
X42476589Y-64815990D01*
X42746842Y-64927932D01*
X43033740Y-64985000D01*
X43326260Y-64985000D01*
X43613158Y-64927932D01*
X43883411Y-64815990D01*
X44126632Y-64653475D01*
X44258487Y-64521620D01*
X44280498Y-64594180D01*
X44339463Y-64704494D01*
X44418815Y-64801185D01*
X44515506Y-64880537D01*
X44625820Y-64939502D01*
X44745518Y-64975812D01*
X44870000Y-64988072D01*
X46570000Y-64988072D01*
X46694482Y-64975812D01*
X46814180Y-64939502D01*
X46924494Y-64880537D01*
X47021185Y-64801185D01*
X47100537Y-64704494D01*
X47159502Y-64594180D01*
X47195812Y-64474482D01*
X47208072Y-64350000D01*
X51216928Y-64350000D01*
X51229188Y-64474482D01*
X51265498Y-64594180D01*
X51324463Y-64704494D01*
X51403815Y-64801185D01*
X51500506Y-64880537D01*
X51610820Y-64939502D01*
X51683380Y-64961513D01*
X51551525Y-65093368D01*
X51389010Y-65336589D01*
X51277068Y-65606842D01*
X51220000Y-65893740D01*
X51220000Y-66186260D01*
X51277068Y-66473158D01*
X51389010Y-66743411D01*
X51551525Y-66986632D01*
X51758368Y-67193475D01*
X51932760Y-67310000D01*
X51758368Y-67426525D01*
X51551525Y-67633368D01*
X51389010Y-67876589D01*
X51277068Y-68146842D01*
X51220000Y-68433740D01*
X51220000Y-68726260D01*
X51277068Y-69013158D01*
X51389010Y-69283411D01*
X51551525Y-69526632D01*
X51758368Y-69733475D01*
X51932760Y-69850000D01*
X51758368Y-69966525D01*
X51551525Y-70173368D01*
X51389010Y-70416589D01*
X51277068Y-70686842D01*
X51220000Y-70973740D01*
X51220000Y-71266260D01*
X51277068Y-71553158D01*
X51389010Y-71823411D01*
X51551525Y-72066632D01*
X51758368Y-72273475D01*
X51932760Y-72390000D01*
X51758368Y-72506525D01*
X51551525Y-72713368D01*
X51389010Y-72956589D01*
X51277068Y-73226842D01*
X51220000Y-73513740D01*
X51220000Y-73806260D01*
X51277068Y-74093158D01*
X51389010Y-74363411D01*
X51551525Y-74606632D01*
X51758368Y-74813475D01*
X51932760Y-74930000D01*
X51758368Y-75046525D01*
X51551525Y-75253368D01*
X51389010Y-75496589D01*
X51277068Y-75766842D01*
X51220000Y-76053740D01*
X51220000Y-76346260D01*
X51277068Y-76633158D01*
X51389010Y-76903411D01*
X51551525Y-77146632D01*
X51758368Y-77353475D01*
X51932760Y-77470000D01*
X51758368Y-77586525D01*
X51551525Y-77793368D01*
X51389010Y-78036589D01*
X51277068Y-78306842D01*
X51220000Y-78593740D01*
X51220000Y-78886260D01*
X51277068Y-79173158D01*
X51389010Y-79443411D01*
X51551525Y-79686632D01*
X51758368Y-79893475D01*
X51932760Y-80010000D01*
X51758368Y-80126525D01*
X51551525Y-80333368D01*
X51389010Y-80576589D01*
X51277068Y-80846842D01*
X51220000Y-81133740D01*
X51220000Y-81426260D01*
X51277068Y-81713158D01*
X51389010Y-81983411D01*
X51551525Y-82226632D01*
X51758368Y-82433475D01*
X51932760Y-82550000D01*
X51758368Y-82666525D01*
X51551525Y-82873368D01*
X51389010Y-83116589D01*
X51277068Y-83386842D01*
X51220000Y-83673740D01*
X51220000Y-83966260D01*
X51277068Y-84253158D01*
X51389010Y-84523411D01*
X51551525Y-84766632D01*
X51758368Y-84973475D01*
X51932760Y-85090000D01*
X51758368Y-85206525D01*
X51551525Y-85413368D01*
X51389010Y-85656589D01*
X51277068Y-85926842D01*
X51220000Y-86213740D01*
X51220000Y-86506260D01*
X51277068Y-86793158D01*
X51389010Y-87063411D01*
X51551525Y-87306632D01*
X51758368Y-87513475D01*
X51932760Y-87630000D01*
X51758368Y-87746525D01*
X51551525Y-87953368D01*
X51389010Y-88196589D01*
X51277068Y-88466842D01*
X51220000Y-88753740D01*
X51220000Y-89046260D01*
X51277068Y-89333158D01*
X51389010Y-89603411D01*
X51551525Y-89846632D01*
X51758368Y-90053475D01*
X51932760Y-90170000D01*
X51758368Y-90286525D01*
X51551525Y-90493368D01*
X51389010Y-90736589D01*
X51277068Y-91006842D01*
X51220000Y-91293740D01*
X51220000Y-91586260D01*
X51277068Y-91873158D01*
X51389010Y-92143411D01*
X51551525Y-92386632D01*
X51758368Y-92593475D01*
X51932760Y-92710000D01*
X51758368Y-92826525D01*
X51551525Y-93033368D01*
X51389010Y-93276589D01*
X51277068Y-93546842D01*
X51220000Y-93833740D01*
X51220000Y-94126260D01*
X51277068Y-94413158D01*
X51389010Y-94683411D01*
X51551525Y-94926632D01*
X51758368Y-95133475D01*
X51932760Y-95250000D01*
X51758368Y-95366525D01*
X51551525Y-95573368D01*
X51389010Y-95816589D01*
X51277068Y-96086842D01*
X51220000Y-96373740D01*
X51220000Y-96666260D01*
X51277068Y-96953158D01*
X51389010Y-97223411D01*
X51551525Y-97466632D01*
X51758368Y-97673475D01*
X52001589Y-97835990D01*
X52271842Y-97947932D01*
X52558740Y-98005000D01*
X52851260Y-98005000D01*
X53138158Y-97947932D01*
X53408411Y-97835990D01*
X53621385Y-97693685D01*
X54902100Y-97693685D01*
X54902100Y-97886315D01*
X54939680Y-98075243D01*
X55013396Y-98253210D01*
X55118000Y-98409761D01*
X55118001Y-99075238D01*
X55013396Y-99231790D01*
X54939680Y-99409757D01*
X54902100Y-99598685D01*
X54902100Y-99791315D01*
X54939680Y-99980243D01*
X55013396Y-100158210D01*
X55120415Y-100318375D01*
X55256625Y-100454585D01*
X55416790Y-100561604D01*
X55594757Y-100635320D01*
X55783685Y-100672900D01*
X55976315Y-100672900D01*
X56165243Y-100635320D01*
X56343210Y-100561604D01*
X56503375Y-100454585D01*
X56515000Y-100442960D01*
X56526625Y-100454585D01*
X56686790Y-100561604D01*
X56864757Y-100635320D01*
X57053685Y-100672900D01*
X57246315Y-100672900D01*
X57435243Y-100635320D01*
X57613210Y-100561604D01*
X57773375Y-100454585D01*
X57785000Y-100442960D01*
X57796625Y-100454585D01*
X57956790Y-100561604D01*
X58134757Y-100635320D01*
X58323685Y-100672900D01*
X58516315Y-100672900D01*
X58705243Y-100635320D01*
X58883210Y-100561604D01*
X59043375Y-100454585D01*
X59179585Y-100318375D01*
X59286604Y-100158210D01*
X59360320Y-99980243D01*
X59397900Y-99791315D01*
X59397900Y-99598685D01*
X59360320Y-99409757D01*
X59286604Y-99231790D01*
X59182000Y-99075239D01*
X59182000Y-93329761D01*
X59286604Y-93173210D01*
X59360320Y-92995243D01*
X59397900Y-92806315D01*
X59397900Y-92613685D01*
X59360320Y-92424757D01*
X59286604Y-92246790D01*
X59179585Y-92086625D01*
X59043375Y-91950415D01*
X58883210Y-91843396D01*
X58705243Y-91769680D01*
X58516315Y-91732100D01*
X58323685Y-91732100D01*
X58134757Y-91769680D01*
X57956790Y-91843396D01*
X57796625Y-91950415D01*
X57660415Y-92086625D01*
X57553396Y-92246790D01*
X57479680Y-92424757D01*
X57442100Y-92613685D01*
X57442100Y-92806315D01*
X57479680Y-92995243D01*
X57553396Y-93173210D01*
X57658000Y-93329761D01*
X57658000Y-94413324D01*
X57613210Y-94383396D01*
X57435243Y-94309680D01*
X57246315Y-94272100D01*
X57053685Y-94272100D01*
X56864757Y-94309680D01*
X56686790Y-94383396D01*
X56526625Y-94490415D01*
X56390415Y-94626625D01*
X56283396Y-94786790D01*
X56209680Y-94964757D01*
X56172100Y-95153685D01*
X56172100Y-95346315D01*
X56209680Y-95535243D01*
X56283396Y-95713210D01*
X56388000Y-95869761D01*
X56388000Y-96953324D01*
X56343210Y-96923396D01*
X56165243Y-96849680D01*
X55976315Y-96812100D01*
X55783685Y-96812100D01*
X55594757Y-96849680D01*
X55416790Y-96923396D01*
X55256625Y-97030415D01*
X55120415Y-97166625D01*
X55013396Y-97326790D01*
X54939680Y-97504757D01*
X54902100Y-97693685D01*
X53621385Y-97693685D01*
X53651632Y-97673475D01*
X53858475Y-97466632D01*
X54020990Y-97223411D01*
X54132932Y-96953158D01*
X54190000Y-96666260D01*
X54190000Y-96373740D01*
X54132932Y-96086842D01*
X54020990Y-95816589D01*
X53858475Y-95573368D01*
X53651632Y-95366525D01*
X53477240Y-95250000D01*
X53651632Y-95133475D01*
X53858475Y-94926632D01*
X54020990Y-94683411D01*
X54132932Y-94413158D01*
X54190000Y-94126260D01*
X54190000Y-93833740D01*
X54132932Y-93546842D01*
X54020990Y-93276589D01*
X53858475Y-93033368D01*
X53651632Y-92826525D01*
X53477240Y-92710000D01*
X53651632Y-92593475D01*
X53858475Y-92386632D01*
X54020990Y-92143411D01*
X54132932Y-91873158D01*
X54190000Y-91586260D01*
X54190000Y-91293740D01*
X54132932Y-91006842D01*
X54020990Y-90736589D01*
X53858475Y-90493368D01*
X53651632Y-90286525D01*
X53477240Y-90170000D01*
X53651632Y-90053475D01*
X53858475Y-89846632D01*
X54020990Y-89603411D01*
X54132932Y-89333158D01*
X54190000Y-89046260D01*
X54190000Y-88803685D01*
X61887100Y-88803685D01*
X61887100Y-88996315D01*
X61924680Y-89185243D01*
X61998396Y-89363210D01*
X62103000Y-89519761D01*
X62103001Y-99075238D01*
X61998396Y-99231790D01*
X61924680Y-99409757D01*
X61887100Y-99598685D01*
X61887100Y-99791315D01*
X61924680Y-99980243D01*
X61998396Y-100158210D01*
X62105415Y-100318375D01*
X62241625Y-100454585D01*
X62401790Y-100561604D01*
X62579757Y-100635320D01*
X62768685Y-100672900D01*
X62961315Y-100672900D01*
X63150243Y-100635320D01*
X63328210Y-100561604D01*
X63488375Y-100454585D01*
X63500000Y-100442960D01*
X63511625Y-100454585D01*
X63671790Y-100561604D01*
X63849757Y-100635320D01*
X64038685Y-100672900D01*
X64231315Y-100672900D01*
X64420243Y-100635320D01*
X64598210Y-100561604D01*
X64758375Y-100454585D01*
X64770000Y-100442960D01*
X64781625Y-100454585D01*
X64941790Y-100561604D01*
X65119757Y-100635320D01*
X65308685Y-100672900D01*
X65501315Y-100672900D01*
X65690243Y-100635320D01*
X65868210Y-100561604D01*
X66028375Y-100454585D01*
X66164585Y-100318375D01*
X66271604Y-100158210D01*
X66345320Y-99980243D01*
X66382900Y-99791315D01*
X66382900Y-99598685D01*
X66345320Y-99409757D01*
X66271604Y-99231790D01*
X66167000Y-99075239D01*
X66167000Y-84439761D01*
X66271604Y-84283210D01*
X66345320Y-84105243D01*
X66382900Y-83916315D01*
X66382900Y-83723685D01*
X66345320Y-83534757D01*
X66271604Y-83356790D01*
X66164585Y-83196625D01*
X66028375Y-83060415D01*
X65868210Y-82953396D01*
X65690243Y-82879680D01*
X65501315Y-82842100D01*
X65308685Y-82842100D01*
X65119757Y-82879680D01*
X64941790Y-82953396D01*
X64781625Y-83060415D01*
X64645415Y-83196625D01*
X64538396Y-83356790D01*
X64464680Y-83534757D01*
X64427100Y-83723685D01*
X64427100Y-83916315D01*
X64464680Y-84105243D01*
X64538396Y-84283210D01*
X64643000Y-84439761D01*
X64643000Y-85523324D01*
X64598210Y-85493396D01*
X64420243Y-85419680D01*
X64231315Y-85382100D01*
X64038685Y-85382100D01*
X63849757Y-85419680D01*
X63671790Y-85493396D01*
X63511625Y-85600415D01*
X63375415Y-85736625D01*
X63268396Y-85896790D01*
X63194680Y-86074757D01*
X63157100Y-86263685D01*
X63157100Y-86456315D01*
X63194680Y-86645243D01*
X63268396Y-86823210D01*
X63373000Y-86979761D01*
X63373000Y-88063324D01*
X63328210Y-88033396D01*
X63150243Y-87959680D01*
X62961315Y-87922100D01*
X62768685Y-87922100D01*
X62579757Y-87959680D01*
X62401790Y-88033396D01*
X62241625Y-88140415D01*
X62105415Y-88276625D01*
X61998396Y-88436790D01*
X61924680Y-88614757D01*
X61887100Y-88803685D01*
X54190000Y-88803685D01*
X54190000Y-88753740D01*
X54132932Y-88466842D01*
X54020990Y-88196589D01*
X53858475Y-87953368D01*
X53651632Y-87746525D01*
X53477240Y-87630000D01*
X53651632Y-87513475D01*
X53858475Y-87306632D01*
X54020990Y-87063411D01*
X54132932Y-86793158D01*
X54190000Y-86506260D01*
X54190000Y-86213740D01*
X54132932Y-85926842D01*
X54020990Y-85656589D01*
X53858475Y-85413368D01*
X53651632Y-85206525D01*
X53477240Y-85090000D01*
X53651632Y-84973475D01*
X53858475Y-84766632D01*
X54020990Y-84523411D01*
X54132932Y-84253158D01*
X54190000Y-83966260D01*
X54190000Y-83673740D01*
X54132932Y-83386842D01*
X54020990Y-83116589D01*
X53858475Y-82873368D01*
X53651632Y-82666525D01*
X53477240Y-82550000D01*
X53651632Y-82433475D01*
X53858475Y-82226632D01*
X54020990Y-81983411D01*
X54132932Y-81713158D01*
X54190000Y-81426260D01*
X54190000Y-81133740D01*
X54132932Y-80846842D01*
X54020990Y-80576589D01*
X53858475Y-80333368D01*
X53651632Y-80126525D01*
X53477240Y-80010000D01*
X53651632Y-79893475D01*
X53858475Y-79686632D01*
X54020990Y-79443411D01*
X54132932Y-79173158D01*
X54190000Y-78886260D01*
X54190000Y-78593740D01*
X54132932Y-78306842D01*
X54020990Y-78036589D01*
X53858475Y-77793368D01*
X53651632Y-77586525D01*
X53477240Y-77470000D01*
X53651632Y-77353475D01*
X53858475Y-77146632D01*
X54020990Y-76903411D01*
X54132932Y-76633158D01*
X54190000Y-76346260D01*
X54190000Y-76053740D01*
X54132932Y-75766842D01*
X54020990Y-75496589D01*
X53858475Y-75253368D01*
X53651632Y-75046525D01*
X53477240Y-74930000D01*
X53651632Y-74813475D01*
X53858475Y-74606632D01*
X54020990Y-74363411D01*
X54132932Y-74093158D01*
X54190000Y-73806260D01*
X54190000Y-73513740D01*
X54132932Y-73226842D01*
X54020990Y-72956589D01*
X53858475Y-72713368D01*
X53651632Y-72506525D01*
X53477240Y-72390000D01*
X53651632Y-72273475D01*
X53858475Y-72066632D01*
X54020990Y-71823411D01*
X54132932Y-71553158D01*
X54190000Y-71266260D01*
X54190000Y-70973740D01*
X54132932Y-70686842D01*
X54020990Y-70416589D01*
X53858475Y-70173368D01*
X53651632Y-69966525D01*
X53477240Y-69850000D01*
X53651632Y-69733475D01*
X53858475Y-69526632D01*
X54020990Y-69283411D01*
X54132932Y-69013158D01*
X54190000Y-68726260D01*
X54190000Y-68433740D01*
X66460000Y-68433740D01*
X66460000Y-68726260D01*
X66517068Y-69013158D01*
X66629010Y-69283411D01*
X66791525Y-69526632D01*
X66998368Y-69733475D01*
X67172760Y-69850000D01*
X66998368Y-69966525D01*
X66791525Y-70173368D01*
X66629010Y-70416589D01*
X66517068Y-70686842D01*
X66460000Y-70973740D01*
X66460000Y-71266260D01*
X66517068Y-71553158D01*
X66629010Y-71823411D01*
X66791525Y-72066632D01*
X66998368Y-72273475D01*
X67172760Y-72390000D01*
X66998368Y-72506525D01*
X66791525Y-72713368D01*
X66629010Y-72956589D01*
X66517068Y-73226842D01*
X66460000Y-73513740D01*
X66460000Y-73806260D01*
X66517068Y-74093158D01*
X66629010Y-74363411D01*
X66791525Y-74606632D01*
X66998368Y-74813475D01*
X67172760Y-74930000D01*
X66998368Y-75046525D01*
X66791525Y-75253368D01*
X66629010Y-75496589D01*
X66517068Y-75766842D01*
X66460000Y-76053740D01*
X66460000Y-76346260D01*
X66517068Y-76633158D01*
X66629010Y-76903411D01*
X66791525Y-77146632D01*
X66998368Y-77353475D01*
X67172760Y-77470000D01*
X66998368Y-77586525D01*
X66791525Y-77793368D01*
X66629010Y-78036589D01*
X66517068Y-78306842D01*
X66460000Y-78593740D01*
X66460000Y-78886260D01*
X66517068Y-79173158D01*
X66629010Y-79443411D01*
X66791525Y-79686632D01*
X66998368Y-79893475D01*
X67172760Y-80010000D01*
X66998368Y-80126525D01*
X66791525Y-80333368D01*
X66629010Y-80576589D01*
X66517068Y-80846842D01*
X66460000Y-81133740D01*
X66460000Y-81426260D01*
X66517068Y-81713158D01*
X66629010Y-81983411D01*
X66791525Y-82226632D01*
X66998368Y-82433475D01*
X67172760Y-82550000D01*
X66998368Y-82666525D01*
X66791525Y-82873368D01*
X66629010Y-83116589D01*
X66517068Y-83386842D01*
X66460000Y-83673740D01*
X66460000Y-83966260D01*
X66517068Y-84253158D01*
X66629010Y-84523411D01*
X66791525Y-84766632D01*
X66998368Y-84973475D01*
X67172760Y-85090000D01*
X66998368Y-85206525D01*
X66791525Y-85413368D01*
X66629010Y-85656589D01*
X66517068Y-85926842D01*
X66460000Y-86213740D01*
X66460000Y-86506260D01*
X66517068Y-86793158D01*
X66629010Y-87063411D01*
X66791525Y-87306632D01*
X66998368Y-87513475D01*
X67172760Y-87630000D01*
X66998368Y-87746525D01*
X66791525Y-87953368D01*
X66629010Y-88196589D01*
X66517068Y-88466842D01*
X66460000Y-88753740D01*
X66460000Y-89046260D01*
X66517068Y-89333158D01*
X66629010Y-89603411D01*
X66791525Y-89846632D01*
X66998368Y-90053475D01*
X67172760Y-90170000D01*
X66998368Y-90286525D01*
X66791525Y-90493368D01*
X66629010Y-90736589D01*
X66517068Y-91006842D01*
X66460000Y-91293740D01*
X66460000Y-91586260D01*
X66517068Y-91873158D01*
X66629010Y-92143411D01*
X66791525Y-92386632D01*
X66998368Y-92593475D01*
X67172760Y-92710000D01*
X66998368Y-92826525D01*
X66791525Y-93033368D01*
X66629010Y-93276589D01*
X66517068Y-93546842D01*
X66460000Y-93833740D01*
X66460000Y-94126260D01*
X66517068Y-94413158D01*
X66629010Y-94683411D01*
X66791525Y-94926632D01*
X66998368Y-95133475D01*
X67172760Y-95250000D01*
X66998368Y-95366525D01*
X66791525Y-95573368D01*
X66629010Y-95816589D01*
X66517068Y-96086842D01*
X66460000Y-96373740D01*
X66460000Y-96666260D01*
X66517068Y-96953158D01*
X66629010Y-97223411D01*
X66791525Y-97466632D01*
X66998368Y-97673475D01*
X67241589Y-97835990D01*
X67511842Y-97947932D01*
X67798740Y-98005000D01*
X68091260Y-98005000D01*
X68378158Y-97947932D01*
X68648411Y-97835990D01*
X68891632Y-97673475D01*
X69098475Y-97466632D01*
X69260990Y-97223411D01*
X69372932Y-96953158D01*
X69430000Y-96666260D01*
X69430000Y-96373740D01*
X69372932Y-96086842D01*
X69260990Y-95816589D01*
X69098475Y-95573368D01*
X68891632Y-95366525D01*
X68717240Y-95250000D01*
X68891632Y-95133475D01*
X69098475Y-94926632D01*
X69260990Y-94683411D01*
X69372932Y-94413158D01*
X69430000Y-94126260D01*
X69430000Y-93833740D01*
X69372932Y-93546842D01*
X69260990Y-93276589D01*
X69098475Y-93033368D01*
X68891632Y-92826525D01*
X68717240Y-92710000D01*
X68891632Y-92593475D01*
X69098475Y-92386632D01*
X69260990Y-92143411D01*
X69372932Y-91873158D01*
X69430000Y-91586260D01*
X69430000Y-91293740D01*
X69372932Y-91006842D01*
X69260990Y-90736589D01*
X69098475Y-90493368D01*
X68891632Y-90286525D01*
X68717240Y-90170000D01*
X68891632Y-90053475D01*
X69098475Y-89846632D01*
X69260990Y-89603411D01*
X69372932Y-89333158D01*
X69430000Y-89046260D01*
X69430000Y-88753740D01*
X69372932Y-88466842D01*
X69260990Y-88196589D01*
X69098475Y-87953368D01*
X68891632Y-87746525D01*
X68717240Y-87630000D01*
X68891632Y-87513475D01*
X69098475Y-87306632D01*
X69260990Y-87063411D01*
X69372932Y-86793158D01*
X69430000Y-86506260D01*
X69430000Y-86213740D01*
X69372932Y-85926842D01*
X69260990Y-85656589D01*
X69098475Y-85413368D01*
X68891632Y-85206525D01*
X68717240Y-85090000D01*
X68891632Y-84973475D01*
X69098475Y-84766632D01*
X69260990Y-84523411D01*
X69372932Y-84253158D01*
X69430000Y-83966260D01*
X69430000Y-83673740D01*
X69372932Y-83386842D01*
X69260990Y-83116589D01*
X69098475Y-82873368D01*
X68891632Y-82666525D01*
X68717240Y-82550000D01*
X68891632Y-82433475D01*
X69098475Y-82226632D01*
X69221842Y-82042000D01*
X69534370Y-82042000D01*
X69723000Y-82230630D01*
X69723001Y-99075238D01*
X69618396Y-99231790D01*
X69544680Y-99409757D01*
X69507100Y-99598685D01*
X69507100Y-99791315D01*
X69544680Y-99980243D01*
X69618396Y-100158210D01*
X69725415Y-100318375D01*
X69861625Y-100454585D01*
X70021790Y-100561604D01*
X70199757Y-100635320D01*
X70388685Y-100672900D01*
X70581315Y-100672900D01*
X70770243Y-100635320D01*
X70948210Y-100561604D01*
X71108375Y-100454585D01*
X71120000Y-100442960D01*
X71131625Y-100454585D01*
X71291790Y-100561604D01*
X71469757Y-100635320D01*
X71658685Y-100672900D01*
X71851315Y-100672900D01*
X72040243Y-100635320D01*
X72218210Y-100561604D01*
X72378375Y-100454585D01*
X72390000Y-100442960D01*
X72401625Y-100454585D01*
X72561790Y-100561604D01*
X72739757Y-100635320D01*
X72928685Y-100672900D01*
X73121315Y-100672900D01*
X73310243Y-100635320D01*
X73488210Y-100561604D01*
X73648375Y-100454585D01*
X73660000Y-100442960D01*
X73671625Y-100454585D01*
X73831790Y-100561604D01*
X74009757Y-100635320D01*
X74198685Y-100672900D01*
X74391315Y-100672900D01*
X74580243Y-100635320D01*
X74758210Y-100561604D01*
X74918375Y-100454585D01*
X75054585Y-100318375D01*
X75161604Y-100158210D01*
X75235320Y-99980243D01*
X75272900Y-99791315D01*
X75272900Y-99598685D01*
X75235320Y-99409757D01*
X75161604Y-99231790D01*
X75057000Y-99075239D01*
X75057000Y-98994630D01*
X75634716Y-99572346D01*
X75658578Y-99601422D01*
X75732219Y-99661857D01*
X75774607Y-99696645D01*
X75845364Y-99734465D01*
X75906985Y-99767402D01*
X76050622Y-99810974D01*
X76162574Y-99822000D01*
X76162577Y-99822000D01*
X76200000Y-99825686D01*
X76237423Y-99822000D01*
X76828158Y-99822000D01*
X76951525Y-100006632D01*
X77158368Y-100213475D01*
X77332760Y-100330000D01*
X77158368Y-100446525D01*
X76951525Y-100653368D01*
X76789010Y-100896589D01*
X76677068Y-101166842D01*
X76620000Y-101453740D01*
X76620000Y-101746260D01*
X76677068Y-102033158D01*
X76789010Y-102303411D01*
X76951525Y-102546632D01*
X77158368Y-102753475D01*
X77332760Y-102870000D01*
X77158368Y-102986525D01*
X76951525Y-103193368D01*
X76789010Y-103436589D01*
X76677068Y-103706842D01*
X76620000Y-103993740D01*
X76620000Y-104286260D01*
X76677068Y-104573158D01*
X76789010Y-104843411D01*
X76951525Y-105086632D01*
X77158368Y-105293475D01*
X77332760Y-105410000D01*
X77158368Y-105526525D01*
X76951525Y-105733368D01*
X76789010Y-105976589D01*
X76677068Y-106246842D01*
X76620000Y-106533740D01*
X76620000Y-106826260D01*
X76677068Y-107113158D01*
X76789010Y-107383411D01*
X76951525Y-107626632D01*
X77158368Y-107833475D01*
X77332760Y-107950000D01*
X77158368Y-108066525D01*
X76951525Y-108273368D01*
X76789010Y-108516589D01*
X76677068Y-108786842D01*
X76620000Y-109073740D01*
X76620000Y-109366260D01*
X76677068Y-109653158D01*
X76789010Y-109923411D01*
X76951525Y-110166632D01*
X77158368Y-110373475D01*
X77332760Y-110490000D01*
X77158368Y-110606525D01*
X76951525Y-110813368D01*
X76789010Y-111056589D01*
X76677068Y-111326842D01*
X76620000Y-111613740D01*
X76620000Y-111906260D01*
X76677068Y-112193158D01*
X76789010Y-112463411D01*
X76951525Y-112706632D01*
X77158368Y-112913475D01*
X77332760Y-113030000D01*
X77158368Y-113146525D01*
X76951525Y-113353368D01*
X76789010Y-113596589D01*
X76677068Y-113866842D01*
X76620000Y-114153740D01*
X76620000Y-114446260D01*
X76677068Y-114733158D01*
X76789010Y-115003411D01*
X76951525Y-115246632D01*
X77158368Y-115453475D01*
X77332760Y-115570000D01*
X77158368Y-115686525D01*
X76951525Y-115893368D01*
X76789010Y-116136589D01*
X76677068Y-116406842D01*
X76620000Y-116693740D01*
X76620000Y-116986260D01*
X76677068Y-117273158D01*
X76789010Y-117543411D01*
X76951525Y-117786632D01*
X77158368Y-117993475D01*
X77332760Y-118110000D01*
X77158368Y-118226525D01*
X76951525Y-118433368D01*
X76789010Y-118676589D01*
X76677068Y-118946842D01*
X76620000Y-119233740D01*
X76620000Y-119526260D01*
X76677068Y-119813158D01*
X76789010Y-120083411D01*
X76951525Y-120326632D01*
X77158368Y-120533475D01*
X77332760Y-120650000D01*
X77158368Y-120766525D01*
X76951525Y-120973368D01*
X76789010Y-121216589D01*
X76677068Y-121486842D01*
X76620000Y-121773740D01*
X76620000Y-122066260D01*
X76677068Y-122353158D01*
X76789010Y-122623411D01*
X76951525Y-122866632D01*
X77158368Y-123073475D01*
X77332760Y-123190000D01*
X77158368Y-123306525D01*
X76951525Y-123513368D01*
X76789010Y-123756589D01*
X76677068Y-124026842D01*
X76620000Y-124313740D01*
X76620000Y-124606260D01*
X76677068Y-124893158D01*
X76789010Y-125163411D01*
X76951525Y-125406632D01*
X77158368Y-125613475D01*
X77340534Y-125735195D01*
X77223645Y-125804822D01*
X77007412Y-125999731D01*
X76833359Y-126233080D01*
X76708175Y-126495901D01*
X76663524Y-126643110D01*
X76784845Y-126873000D01*
X77978000Y-126873000D01*
X77978000Y-126853000D01*
X78232000Y-126853000D01*
X78232000Y-126873000D01*
X79425155Y-126873000D01*
X79546476Y-126643110D01*
X79501825Y-126495901D01*
X79376641Y-126233080D01*
X79202588Y-125999731D01*
X78986355Y-125804822D01*
X78869466Y-125735195D01*
X79051632Y-125613475D01*
X79258475Y-125406632D01*
X79420990Y-125163411D01*
X79532932Y-124893158D01*
X79590000Y-124606260D01*
X79590000Y-124313740D01*
X79532932Y-124026842D01*
X79420990Y-123756589D01*
X79258475Y-123513368D01*
X79051632Y-123306525D01*
X78877240Y-123190000D01*
X79051632Y-123073475D01*
X79258475Y-122866632D01*
X79420990Y-122623411D01*
X79532932Y-122353158D01*
X79590000Y-122066260D01*
X79590000Y-121773740D01*
X79532932Y-121486842D01*
X79420990Y-121216589D01*
X79258475Y-120973368D01*
X79051632Y-120766525D01*
X78877240Y-120650000D01*
X79051632Y-120533475D01*
X79258475Y-120326632D01*
X79420990Y-120083411D01*
X79532932Y-119813158D01*
X79590000Y-119526260D01*
X79590000Y-119233740D01*
X79532932Y-118946842D01*
X79420990Y-118676589D01*
X79258475Y-118433368D01*
X79051632Y-118226525D01*
X78877240Y-118110000D01*
X79051632Y-117993475D01*
X79258475Y-117786632D01*
X79420990Y-117543411D01*
X79532932Y-117273158D01*
X79590000Y-116986260D01*
X79590000Y-116693740D01*
X79532932Y-116406842D01*
X79420990Y-116136589D01*
X79258475Y-115893368D01*
X79051632Y-115686525D01*
X78877240Y-115570000D01*
X79051632Y-115453475D01*
X79258475Y-115246632D01*
X79420990Y-115003411D01*
X79532932Y-114733158D01*
X79590000Y-114446260D01*
X79590000Y-114153740D01*
X79532932Y-113866842D01*
X79420990Y-113596589D01*
X79258475Y-113353368D01*
X79051632Y-113146525D01*
X78877240Y-113030000D01*
X79051632Y-112913475D01*
X79258475Y-112706632D01*
X79420990Y-112463411D01*
X79532932Y-112193158D01*
X79590000Y-111906260D01*
X79590000Y-111613740D01*
X79532932Y-111326842D01*
X79420990Y-111056589D01*
X79258475Y-110813368D01*
X79051632Y-110606525D01*
X78877240Y-110490000D01*
X79051632Y-110373475D01*
X79258475Y-110166632D01*
X79420990Y-109923411D01*
X79532932Y-109653158D01*
X79590000Y-109366260D01*
X79590000Y-109073740D01*
X79532932Y-108786842D01*
X79420990Y-108516589D01*
X79258475Y-108273368D01*
X79051632Y-108066525D01*
X78877240Y-107950000D01*
X79051632Y-107833475D01*
X79258475Y-107626632D01*
X79420990Y-107383411D01*
X79532932Y-107113158D01*
X79590000Y-106826260D01*
X79590000Y-106533740D01*
X79532932Y-106246842D01*
X79420990Y-105976589D01*
X79258475Y-105733368D01*
X79051632Y-105526525D01*
X78877240Y-105410000D01*
X79051632Y-105293475D01*
X79258475Y-105086632D01*
X79420990Y-104843411D01*
X79532932Y-104573158D01*
X79590000Y-104286260D01*
X79590000Y-103993740D01*
X79532932Y-103706842D01*
X79420990Y-103436589D01*
X79258475Y-103193368D01*
X79051632Y-102986525D01*
X78877240Y-102870000D01*
X79051632Y-102753475D01*
X79258475Y-102546632D01*
X79420990Y-102303411D01*
X79532932Y-102033158D01*
X79590000Y-101746260D01*
X79590000Y-101453740D01*
X79532932Y-101166842D01*
X79420990Y-100896589D01*
X79258475Y-100653368D01*
X79051632Y-100446525D01*
X78877240Y-100330000D01*
X79051632Y-100213475D01*
X79258475Y-100006632D01*
X79420990Y-99763411D01*
X79532932Y-99493158D01*
X79590000Y-99206260D01*
X79590000Y-98913740D01*
X79532932Y-98626842D01*
X79420990Y-98356589D01*
X79258475Y-98113368D01*
X79051632Y-97906525D01*
X78877240Y-97790000D01*
X79051632Y-97673475D01*
X79258475Y-97466632D01*
X79420990Y-97223411D01*
X79532932Y-96953158D01*
X79590000Y-96666260D01*
X79590000Y-96373740D01*
X79532932Y-96086842D01*
X79420990Y-95816589D01*
X79258475Y-95573368D01*
X79051632Y-95366525D01*
X78877240Y-95250000D01*
X79051632Y-95133475D01*
X79258475Y-94926632D01*
X79420990Y-94683411D01*
X79532932Y-94413158D01*
X79590000Y-94126260D01*
X79590000Y-93833740D01*
X79532932Y-93546842D01*
X79420990Y-93276589D01*
X79258475Y-93033368D01*
X79051632Y-92826525D01*
X78877240Y-92710000D01*
X79051632Y-92593475D01*
X79258475Y-92386632D01*
X79420990Y-92143411D01*
X79532932Y-91873158D01*
X79590000Y-91586260D01*
X79590000Y-91293740D01*
X79532932Y-91006842D01*
X79420990Y-90736589D01*
X79258475Y-90493368D01*
X79051632Y-90286525D01*
X78877240Y-90170000D01*
X79051632Y-90053475D01*
X79258475Y-89846632D01*
X79420990Y-89603411D01*
X79532932Y-89333158D01*
X79590000Y-89046260D01*
X79590000Y-88753740D01*
X79532932Y-88466842D01*
X79420990Y-88196589D01*
X79258475Y-87953368D01*
X79051632Y-87746525D01*
X78877240Y-87630000D01*
X79051632Y-87513475D01*
X79258475Y-87306632D01*
X79420990Y-87063411D01*
X79532932Y-86793158D01*
X79590000Y-86506260D01*
X79590000Y-86213740D01*
X79532932Y-85926842D01*
X79420990Y-85656589D01*
X79258475Y-85413368D01*
X79051632Y-85206525D01*
X78877240Y-85090000D01*
X79051632Y-84973475D01*
X79258475Y-84766632D01*
X79420990Y-84523411D01*
X79532932Y-84253158D01*
X79590000Y-83966260D01*
X79590000Y-83673740D01*
X79532932Y-83386842D01*
X79420990Y-83116589D01*
X79258475Y-82873368D01*
X79051632Y-82666525D01*
X78877240Y-82550000D01*
X79051632Y-82433475D01*
X79258475Y-82226632D01*
X79420990Y-81983411D01*
X79532932Y-81713158D01*
X79590000Y-81426260D01*
X79590000Y-81133740D01*
X79532932Y-80846842D01*
X79420990Y-80576589D01*
X79258475Y-80333368D01*
X79051632Y-80126525D01*
X78877240Y-80010000D01*
X79051632Y-79893475D01*
X79258475Y-79686632D01*
X79420990Y-79443411D01*
X79532932Y-79173158D01*
X79590000Y-78886260D01*
X79590000Y-78593740D01*
X79532932Y-78306842D01*
X79420990Y-78036589D01*
X79258475Y-77793368D01*
X79051632Y-77586525D01*
X78877240Y-77470000D01*
X79051632Y-77353475D01*
X79258475Y-77146632D01*
X79420990Y-76903411D01*
X79532932Y-76633158D01*
X79590000Y-76346260D01*
X79590000Y-76053740D01*
X79532932Y-75766842D01*
X79420990Y-75496589D01*
X79258475Y-75253368D01*
X79051632Y-75046525D01*
X78877240Y-74930000D01*
X79051632Y-74813475D01*
X79258475Y-74606632D01*
X79420990Y-74363411D01*
X79532932Y-74093158D01*
X79590000Y-73806260D01*
X79590000Y-73513740D01*
X79532932Y-73226842D01*
X79420990Y-72956589D01*
X79258475Y-72713368D01*
X79051632Y-72506525D01*
X78877240Y-72390000D01*
X79051632Y-72273475D01*
X79258475Y-72066632D01*
X79420990Y-71823411D01*
X79532932Y-71553158D01*
X79590000Y-71266260D01*
X79590000Y-70973740D01*
X79532932Y-70686842D01*
X79420990Y-70416589D01*
X79258475Y-70173368D01*
X79051632Y-69966525D01*
X78869466Y-69844805D01*
X78986355Y-69775178D01*
X79202588Y-69580269D01*
X79376641Y-69346920D01*
X79501825Y-69084099D01*
X79546476Y-68936890D01*
X79425155Y-68707000D01*
X78232000Y-68707000D01*
X78232000Y-68727000D01*
X77978000Y-68727000D01*
X77978000Y-68707000D01*
X76784845Y-68707000D01*
X76663524Y-68936890D01*
X76708175Y-69084099D01*
X76833359Y-69346920D01*
X77007412Y-69580269D01*
X77223645Y-69775178D01*
X77340534Y-69844805D01*
X77158368Y-69966525D01*
X76951525Y-70173368D01*
X76789010Y-70416589D01*
X76677068Y-70686842D01*
X76620000Y-70973740D01*
X76620000Y-71266260D01*
X76677068Y-71553158D01*
X76789010Y-71823411D01*
X76951525Y-72066632D01*
X77158368Y-72273475D01*
X77332760Y-72390000D01*
X77158368Y-72506525D01*
X76951525Y-72713368D01*
X76789010Y-72956589D01*
X76677068Y-73226842D01*
X76620000Y-73513740D01*
X76620000Y-73806260D01*
X76677068Y-74093158D01*
X76789010Y-74363411D01*
X76951525Y-74606632D01*
X77158368Y-74813475D01*
X77332760Y-74930000D01*
X77158368Y-75046525D01*
X76951525Y-75253368D01*
X76789010Y-75496589D01*
X76677068Y-75766842D01*
X76620000Y-76053740D01*
X76620000Y-76346260D01*
X76677068Y-76633158D01*
X76789010Y-76903411D01*
X76951525Y-77146632D01*
X77158368Y-77353475D01*
X77332760Y-77470000D01*
X77158368Y-77586525D01*
X76951525Y-77793368D01*
X76789010Y-78036589D01*
X76677068Y-78306842D01*
X76620000Y-78593740D01*
X76620000Y-78886260D01*
X76677068Y-79173158D01*
X76789010Y-79443411D01*
X76951525Y-79686632D01*
X77158368Y-79893475D01*
X77332760Y-80010000D01*
X77158368Y-80126525D01*
X76951525Y-80333368D01*
X76789010Y-80576589D01*
X76677068Y-80846842D01*
X76620000Y-81133740D01*
X76620000Y-81426260D01*
X76677068Y-81713158D01*
X76789010Y-81983411D01*
X76951525Y-82226632D01*
X77158368Y-82433475D01*
X77332760Y-82550000D01*
X77158368Y-82666525D01*
X76951525Y-82873368D01*
X76789010Y-83116589D01*
X76677068Y-83386842D01*
X76620000Y-83673740D01*
X76620000Y-83966260D01*
X76677068Y-84253158D01*
X76789010Y-84523411D01*
X76951525Y-84766632D01*
X77158368Y-84973475D01*
X77332760Y-85090000D01*
X77158368Y-85206525D01*
X76951525Y-85413368D01*
X76789010Y-85656589D01*
X76677068Y-85926842D01*
X76620000Y-86213740D01*
X76620000Y-86506260D01*
X76677068Y-86793158D01*
X76789010Y-87063411D01*
X76951525Y-87306632D01*
X77158368Y-87513475D01*
X77332760Y-87630000D01*
X77158368Y-87746525D01*
X76951525Y-87953368D01*
X76789010Y-88196589D01*
X76677068Y-88466842D01*
X76620000Y-88753740D01*
X76620000Y-89046260D01*
X76677068Y-89333158D01*
X76789010Y-89603411D01*
X76951525Y-89846632D01*
X77158368Y-90053475D01*
X77332760Y-90170000D01*
X77158368Y-90286525D01*
X76951525Y-90493368D01*
X76789010Y-90736589D01*
X76677068Y-91006842D01*
X76620000Y-91293740D01*
X76620000Y-91586260D01*
X76677068Y-91873158D01*
X76789010Y-92143411D01*
X76951525Y-92386632D01*
X77158368Y-92593475D01*
X77332760Y-92710000D01*
X77158368Y-92826525D01*
X76951525Y-93033368D01*
X76789010Y-93276589D01*
X76677068Y-93546842D01*
X76620000Y-93833740D01*
X76620000Y-94126260D01*
X76677068Y-94413158D01*
X76789010Y-94683411D01*
X76951525Y-94926632D01*
X77158368Y-95133475D01*
X77332760Y-95250000D01*
X77158368Y-95366525D01*
X76951525Y-95573368D01*
X76789010Y-95816589D01*
X76677068Y-96086842D01*
X76620000Y-96373740D01*
X76620000Y-96666260D01*
X76677068Y-96953158D01*
X76789010Y-97223411D01*
X76951525Y-97466632D01*
X77158368Y-97673475D01*
X77332760Y-97790000D01*
X77158368Y-97906525D01*
X76951525Y-98113368D01*
X76828158Y-98298000D01*
X76515630Y-98298000D01*
X76327000Y-98109370D01*
X76327000Y-71792423D01*
X76330686Y-71755000D01*
X76323753Y-71684609D01*
X76315974Y-71605622D01*
X76272402Y-71461985D01*
X76201646Y-71329609D01*
X76201645Y-71329607D01*
X76166857Y-71287219D01*
X76106422Y-71213578D01*
X76077347Y-71189717D01*
X75495284Y-70607654D01*
X75471422Y-70578578D01*
X75355392Y-70483355D01*
X75223015Y-70412598D01*
X75079378Y-70369026D01*
X74967426Y-70358000D01*
X74967423Y-70358000D01*
X74930000Y-70354314D01*
X74892577Y-70358000D01*
X69221842Y-70358000D01*
X69098475Y-70173368D01*
X68891632Y-69966525D01*
X68717240Y-69850000D01*
X68891632Y-69733475D01*
X69098475Y-69526632D01*
X69260990Y-69283411D01*
X69372932Y-69013158D01*
X69430000Y-68726260D01*
X69430000Y-68433740D01*
X69372932Y-68146842D01*
X69260990Y-67876589D01*
X69098475Y-67633368D01*
X68891632Y-67426525D01*
X68709466Y-67304805D01*
X68826355Y-67235178D01*
X69042588Y-67040269D01*
X69216641Y-66806920D01*
X69341825Y-66544099D01*
X69386476Y-66396890D01*
X69265155Y-66167000D01*
X68072000Y-66167000D01*
X68072000Y-66187000D01*
X67818000Y-66187000D01*
X67818000Y-66167000D01*
X66624845Y-66167000D01*
X66503524Y-66396890D01*
X66548175Y-66544099D01*
X66673359Y-66806920D01*
X66847412Y-67040269D01*
X67063645Y-67235178D01*
X67180534Y-67304805D01*
X66998368Y-67426525D01*
X66791525Y-67633368D01*
X66629010Y-67876589D01*
X66517068Y-68146842D01*
X66460000Y-68433740D01*
X54190000Y-68433740D01*
X54132932Y-68146842D01*
X54020990Y-67876589D01*
X53858475Y-67633368D01*
X53651632Y-67426525D01*
X53477240Y-67310000D01*
X53651632Y-67193475D01*
X53858475Y-66986632D01*
X54020990Y-66743411D01*
X54132932Y-66473158D01*
X54190000Y-66186260D01*
X54190000Y-65893740D01*
X54132932Y-65606842D01*
X54020990Y-65336589D01*
X53858475Y-65093368D01*
X53726620Y-64961513D01*
X53799180Y-64939502D01*
X53909494Y-64880537D01*
X54006185Y-64801185D01*
X54085537Y-64704494D01*
X54144502Y-64594180D01*
X54180812Y-64474482D01*
X54193072Y-64350000D01*
X54190000Y-63785750D01*
X54031250Y-63627000D01*
X52832000Y-63627000D01*
X52832000Y-63647000D01*
X52578000Y-63647000D01*
X52578000Y-63627000D01*
X51378750Y-63627000D01*
X51220000Y-63785750D01*
X51216928Y-64350000D01*
X47208072Y-64350000D01*
X47208072Y-62650000D01*
X51216928Y-62650000D01*
X51220000Y-63214250D01*
X51378750Y-63373000D01*
X52578000Y-63373000D01*
X52578000Y-62173750D01*
X52832000Y-62173750D01*
X52832000Y-63373000D01*
X54031250Y-63373000D01*
X54190000Y-63214250D01*
X54193072Y-62650000D01*
X66456928Y-62650000D01*
X66456928Y-64350000D01*
X66469188Y-64474482D01*
X66505498Y-64594180D01*
X66564463Y-64704494D01*
X66643815Y-64801185D01*
X66740506Y-64880537D01*
X66850820Y-64939502D01*
X66931466Y-64963966D01*
X66847412Y-65039731D01*
X66673359Y-65273080D01*
X66548175Y-65535901D01*
X66503524Y-65683110D01*
X66624845Y-65913000D01*
X67818000Y-65913000D01*
X67818000Y-65893000D01*
X68072000Y-65893000D01*
X68072000Y-65913000D01*
X69265155Y-65913000D01*
X69386476Y-65683110D01*
X69341825Y-65535901D01*
X69216641Y-65273080D01*
X69042588Y-65039731D01*
X68958534Y-64963966D01*
X69039180Y-64939502D01*
X69149494Y-64880537D01*
X69246185Y-64801185D01*
X69325537Y-64704494D01*
X69384502Y-64594180D01*
X69420812Y-64474482D01*
X69433072Y-64350000D01*
X76616928Y-64350000D01*
X76629188Y-64474482D01*
X76665498Y-64594180D01*
X76724463Y-64704494D01*
X76803815Y-64801185D01*
X76900506Y-64880537D01*
X77010820Y-64939502D01*
X77083380Y-64961513D01*
X76951525Y-65093368D01*
X76789010Y-65336589D01*
X76677068Y-65606842D01*
X76620000Y-65893740D01*
X76620000Y-66186260D01*
X76677068Y-66473158D01*
X76789010Y-66743411D01*
X76951525Y-66986632D01*
X77158368Y-67193475D01*
X77340534Y-67315195D01*
X77223645Y-67384822D01*
X77007412Y-67579731D01*
X76833359Y-67813080D01*
X76708175Y-68075901D01*
X76663524Y-68223110D01*
X76784845Y-68453000D01*
X77978000Y-68453000D01*
X77978000Y-68433000D01*
X78232000Y-68433000D01*
X78232000Y-68453000D01*
X79425155Y-68453000D01*
X79546476Y-68223110D01*
X79501825Y-68075901D01*
X79376641Y-67813080D01*
X79202588Y-67579731D01*
X78986355Y-67384822D01*
X78869466Y-67315195D01*
X79051632Y-67193475D01*
X79258475Y-66986632D01*
X79420990Y-66743411D01*
X79532932Y-66473158D01*
X79590000Y-66186260D01*
X79590000Y-65893740D01*
X79532932Y-65606842D01*
X79420990Y-65336589D01*
X79258475Y-65093368D01*
X79126620Y-64961513D01*
X79199180Y-64939502D01*
X79309494Y-64880537D01*
X79406185Y-64801185D01*
X79485537Y-64704494D01*
X79544502Y-64594180D01*
X79580812Y-64474482D01*
X79593072Y-64350000D01*
X79590000Y-63785750D01*
X79431250Y-63627000D01*
X78232000Y-63627000D01*
X78232000Y-63647000D01*
X77978000Y-63647000D01*
X77978000Y-63627000D01*
X76778750Y-63627000D01*
X76620000Y-63785750D01*
X76616928Y-64350000D01*
X69433072Y-64350000D01*
X69433072Y-62650000D01*
X76616928Y-62650000D01*
X76620000Y-63214250D01*
X76778750Y-63373000D01*
X77978000Y-63373000D01*
X77978000Y-62173750D01*
X78232000Y-62173750D01*
X78232000Y-63373000D01*
X79431250Y-63373000D01*
X79590000Y-63214250D01*
X79593072Y-62650000D01*
X79580812Y-62525518D01*
X79544502Y-62405820D01*
X79485537Y-62295506D01*
X79406185Y-62198815D01*
X79309494Y-62119463D01*
X79199180Y-62060498D01*
X79079482Y-62024188D01*
X78955000Y-62011928D01*
X78390750Y-62015000D01*
X78232000Y-62173750D01*
X77978000Y-62173750D01*
X77819250Y-62015000D01*
X77255000Y-62011928D01*
X77130518Y-62024188D01*
X77010820Y-62060498D01*
X76900506Y-62119463D01*
X76803815Y-62198815D01*
X76724463Y-62295506D01*
X76665498Y-62405820D01*
X76629188Y-62525518D01*
X76616928Y-62650000D01*
X69433072Y-62650000D01*
X69420812Y-62525518D01*
X69384502Y-62405820D01*
X69325537Y-62295506D01*
X69246185Y-62198815D01*
X69149494Y-62119463D01*
X69039180Y-62060498D01*
X68919482Y-62024188D01*
X68795000Y-62011928D01*
X67095000Y-62011928D01*
X66970518Y-62024188D01*
X66850820Y-62060498D01*
X66740506Y-62119463D01*
X66643815Y-62198815D01*
X66564463Y-62295506D01*
X66505498Y-62405820D01*
X66469188Y-62525518D01*
X66456928Y-62650000D01*
X54193072Y-62650000D01*
X54180812Y-62525518D01*
X54144502Y-62405820D01*
X54085537Y-62295506D01*
X54006185Y-62198815D01*
X53909494Y-62119463D01*
X53799180Y-62060498D01*
X53679482Y-62024188D01*
X53555000Y-62011928D01*
X52990750Y-62015000D01*
X52832000Y-62173750D01*
X52578000Y-62173750D01*
X52419250Y-62015000D01*
X51855000Y-62011928D01*
X51730518Y-62024188D01*
X51610820Y-62060498D01*
X51500506Y-62119463D01*
X51403815Y-62198815D01*
X51324463Y-62295506D01*
X51265498Y-62405820D01*
X51229188Y-62525518D01*
X51216928Y-62650000D01*
X47208072Y-62650000D01*
X47195812Y-62525518D01*
X47159502Y-62405820D01*
X47100537Y-62295506D01*
X47021185Y-62198815D01*
X46924494Y-62119463D01*
X46814180Y-62060498D01*
X46694482Y-62024188D01*
X46570000Y-62011928D01*
X44870000Y-62011928D01*
X44745518Y-62024188D01*
X44625820Y-62060498D01*
X44515506Y-62119463D01*
X44418815Y-62198815D01*
X44339463Y-62295506D01*
X44280498Y-62405820D01*
X44258487Y-62478380D01*
X44126632Y-62346525D01*
X43883411Y-62184010D01*
X43613158Y-62072068D01*
X43326260Y-62015000D01*
X43033740Y-62015000D01*
X42746842Y-62072068D01*
X42476589Y-62184010D01*
X42233368Y-62346525D01*
X42026525Y-62553368D01*
X41864010Y-62796589D01*
X41752068Y-63066842D01*
X41695000Y-63353740D01*
X38715000Y-63353740D01*
X38715000Y-63314344D01*
X38642561Y-62950166D01*
X38500466Y-62607118D01*
X38294175Y-62298382D01*
X38031618Y-62035825D01*
X37722882Y-61829534D01*
X37379834Y-61687439D01*
X37015656Y-61615000D01*
X36644344Y-61615000D01*
X36280166Y-61687439D01*
X35937118Y-61829534D01*
X35628382Y-62035825D01*
X35365825Y-62298382D01*
X35159534Y-62607118D01*
X35017439Y-62950166D01*
X34945000Y-63314344D01*
X16490000Y-63314344D01*
X16417561Y-62950166D01*
X16275466Y-62607118D01*
X16069175Y-62298382D01*
X15806618Y-62035825D01*
X15497882Y-61829534D01*
X15154834Y-61687439D01*
X14790656Y-61615000D01*
X14419344Y-61615000D01*
X14055166Y-61687439D01*
X13712118Y-61829534D01*
X13403382Y-62035825D01*
X13140825Y-62298382D01*
X12934534Y-62607118D01*
X12792439Y-62950166D01*
X12720000Y-63314344D01*
X12090000Y-63314344D01*
X12090000Y-60985000D01*
X80620000Y-60985000D01*
X80620001Y-129515000D01*
M02*
