G04 #@! TF.GenerationSoftware,KiCad,Pcbnew,5.1.9*
G04 #@! TF.CreationDate,2021-01-05T21:26:03-06:00*
G04 #@! TF.ProjectId,pcb,7063622e-6b69-4636-9164-5f7063625858,rev?*
G04 #@! TF.SameCoordinates,Original*
G04 #@! TF.FileFunction,Legend,Bot*
G04 #@! TF.FilePolarity,Positive*
%FSLAX46Y46*%
G04 Gerber Fmt 4.6, Leading zero omitted, Abs format (unit mm)*
G04 Created by KiCad (PCBNEW 5.1.9) date 2021-01-05 21:26:03*
%MOMM*%
%LPD*%
G01*
G04 APERTURE LIST*
%ADD10C,0.100000*%
%ADD11C,0.150000*%
%ADD12C,0.120000*%
G04 APERTURE END LIST*
D10*
G36*
X36250000Y-90250000D02*
G01*
X20750000Y-90250000D01*
X20750000Y-85500000D01*
X36250000Y-85500000D01*
X36250000Y-90250000D01*
G37*
X36250000Y-90250000D02*
X20750000Y-90250000D01*
X20750000Y-85500000D01*
X36250000Y-85500000D01*
X36250000Y-90250000D01*
D11*
X36181070Y-79552380D02*
X36181070Y-78552380D01*
X35371546Y-79028571D02*
X35228689Y-79076190D01*
X35181070Y-79123809D01*
X35133451Y-79219047D01*
X35133451Y-79361904D01*
X35181070Y-79457142D01*
X35228689Y-79504761D01*
X35323927Y-79552380D01*
X35704880Y-79552380D01*
X35704880Y-78552380D01*
X35371546Y-78552380D01*
X35276308Y-78600000D01*
X35228689Y-78647619D01*
X35181070Y-78742857D01*
X35181070Y-78838095D01*
X35228689Y-78933333D01*
X35276308Y-78980952D01*
X35371546Y-79028571D01*
X35704880Y-79028571D01*
X34704880Y-79552380D02*
X34704880Y-78552380D01*
X34371546Y-79266666D01*
X34038213Y-78552380D01*
X34038213Y-79552380D01*
X32895356Y-78552380D02*
X32276308Y-78552380D01*
X32609642Y-78933333D01*
X32466785Y-78933333D01*
X32371546Y-78980952D01*
X32323927Y-79028571D01*
X32276308Y-79123809D01*
X32276308Y-79361904D01*
X32323927Y-79457142D01*
X32371546Y-79504761D01*
X32466785Y-79552380D01*
X32752499Y-79552380D01*
X32847737Y-79504761D01*
X32895356Y-79457142D01*
X31895356Y-78647619D02*
X31847737Y-78600000D01*
X31752499Y-78552380D01*
X31514404Y-78552380D01*
X31419166Y-78600000D01*
X31371546Y-78647619D01*
X31323927Y-78742857D01*
X31323927Y-78838095D01*
X31371546Y-78980952D01*
X31942975Y-79552380D01*
X31323927Y-79552380D01*
X30990594Y-78552380D02*
X30323927Y-78552380D01*
X30752499Y-79552380D01*
X29752499Y-78552380D02*
X29657261Y-78552380D01*
X29562023Y-78600000D01*
X29514404Y-78647619D01*
X29466785Y-78742857D01*
X29419166Y-78933333D01*
X29419166Y-79171428D01*
X29466785Y-79361904D01*
X29514404Y-79457142D01*
X29562023Y-79504761D01*
X29657261Y-79552380D01*
X29752499Y-79552380D01*
X29847737Y-79504761D01*
X29895356Y-79457142D01*
X29942975Y-79361904D01*
X29990594Y-79171428D01*
X29990594Y-78933333D01*
X29942975Y-78742857D01*
X29895356Y-78647619D01*
X29847737Y-78600000D01*
X29752499Y-78552380D01*
X28228689Y-79552380D02*
X28228689Y-78552380D01*
X27752499Y-78885714D02*
X27752499Y-79552380D01*
X27752499Y-78980952D02*
X27704880Y-78933333D01*
X27609642Y-78885714D01*
X27466785Y-78885714D01*
X27371546Y-78933333D01*
X27323927Y-79028571D01*
X27323927Y-79552380D01*
X26990594Y-78885714D02*
X26609642Y-78885714D01*
X26847737Y-78552380D02*
X26847737Y-79409523D01*
X26800118Y-79504761D01*
X26704880Y-79552380D01*
X26609642Y-79552380D01*
X25895356Y-79504761D02*
X25990594Y-79552380D01*
X26181070Y-79552380D01*
X26276308Y-79504761D01*
X26323927Y-79409523D01*
X26323927Y-79028571D01*
X26276308Y-78933333D01*
X26181070Y-78885714D01*
X25990594Y-78885714D01*
X25895356Y-78933333D01*
X25847737Y-79028571D01*
X25847737Y-79123809D01*
X26323927Y-79219047D01*
X25419166Y-79552380D02*
X25419166Y-78885714D01*
X25419166Y-79076190D02*
X25371546Y-78980952D01*
X25323927Y-78933333D01*
X25228689Y-78885714D01*
X25133451Y-78885714D01*
X24942975Y-78885714D02*
X24562023Y-78885714D01*
X24800118Y-79552380D02*
X24800118Y-78695238D01*
X24752499Y-78600000D01*
X24657261Y-78552380D01*
X24562023Y-78552380D01*
X23800118Y-79552380D02*
X23800118Y-79028571D01*
X23847737Y-78933333D01*
X23942975Y-78885714D01*
X24133451Y-78885714D01*
X24228689Y-78933333D01*
X23800118Y-79504761D02*
X23895356Y-79552380D01*
X24133451Y-79552380D01*
X24228689Y-79504761D01*
X24276308Y-79409523D01*
X24276308Y-79314285D01*
X24228689Y-79219047D01*
X24133451Y-79171428D01*
X23895356Y-79171428D01*
X23800118Y-79123809D01*
X22895356Y-79504761D02*
X22990594Y-79552380D01*
X23181070Y-79552380D01*
X23276308Y-79504761D01*
X23323927Y-79457142D01*
X23371546Y-79361904D01*
X23371546Y-79076190D01*
X23323927Y-78980952D01*
X23276308Y-78933333D01*
X23181070Y-78885714D01*
X22990594Y-78885714D01*
X22895356Y-78933333D01*
X22085832Y-79504761D02*
X22181070Y-79552380D01*
X22371546Y-79552380D01*
X22466785Y-79504761D01*
X22514404Y-79409523D01*
X22514404Y-79028571D01*
X22466785Y-78933333D01*
X22371546Y-78885714D01*
X22181070Y-78885714D01*
X22085832Y-78933333D01*
X22038213Y-79028571D01*
X22038213Y-79123809D01*
X22514404Y-79219047D01*
X36181070Y-81202380D02*
X36181070Y-80202380D01*
X35752499Y-81202380D02*
X35752499Y-80678571D01*
X35800118Y-80583333D01*
X35895356Y-80535714D01*
X36038213Y-80535714D01*
X36133451Y-80583333D01*
X36181070Y-80630952D01*
X35419166Y-80535714D02*
X35038213Y-80535714D01*
X35276308Y-80202380D02*
X35276308Y-81059523D01*
X35228689Y-81154761D01*
X35133451Y-81202380D01*
X35038213Y-81202380D01*
X34847737Y-80535714D02*
X34466785Y-80535714D01*
X34704880Y-80202380D02*
X34704880Y-81059523D01*
X34657261Y-81154761D01*
X34562023Y-81202380D01*
X34466785Y-81202380D01*
X34133451Y-80535714D02*
X34133451Y-81535714D01*
X34133451Y-80583333D02*
X34038213Y-80535714D01*
X33847737Y-80535714D01*
X33752499Y-80583333D01*
X33704880Y-80630952D01*
X33657261Y-80726190D01*
X33657261Y-81011904D01*
X33704880Y-81107142D01*
X33752499Y-81154761D01*
X33847737Y-81202380D01*
X34038213Y-81202380D01*
X34133451Y-81154761D01*
X33276308Y-81154761D02*
X33181070Y-81202380D01*
X32990594Y-81202380D01*
X32895356Y-81154761D01*
X32847737Y-81059523D01*
X32847737Y-81011904D01*
X32895356Y-80916666D01*
X32990594Y-80869047D01*
X33133451Y-80869047D01*
X33228689Y-80821428D01*
X33276308Y-80726190D01*
X33276308Y-80678571D01*
X33228689Y-80583333D01*
X33133451Y-80535714D01*
X32990594Y-80535714D01*
X32895356Y-80583333D01*
X32419166Y-81107142D02*
X32371546Y-81154761D01*
X32419166Y-81202380D01*
X32466785Y-81154761D01*
X32419166Y-81107142D01*
X32419166Y-81202380D01*
X32419166Y-80583333D02*
X32371546Y-80630952D01*
X32419166Y-80678571D01*
X32466785Y-80630952D01*
X32419166Y-80583333D01*
X32419166Y-80678571D01*
X31228689Y-80154761D02*
X32085832Y-81440476D01*
X30181070Y-80154761D02*
X31038213Y-81440476D01*
X29419166Y-81202380D02*
X29419166Y-80678571D01*
X29466785Y-80583333D01*
X29562023Y-80535714D01*
X29752499Y-80535714D01*
X29847737Y-80583333D01*
X29419166Y-81154761D02*
X29514404Y-81202380D01*
X29752499Y-81202380D01*
X29847737Y-81154761D01*
X29895356Y-81059523D01*
X29895356Y-80964285D01*
X29847737Y-80869047D01*
X29752499Y-80821428D01*
X29514404Y-80821428D01*
X29419166Y-80773809D01*
X28942975Y-80535714D02*
X28942975Y-81392857D01*
X28990594Y-81488095D01*
X29085832Y-81535714D01*
X29133451Y-81535714D01*
X28942975Y-80202380D02*
X28990594Y-80250000D01*
X28942975Y-80297619D01*
X28895356Y-80250000D01*
X28942975Y-80202380D01*
X28942975Y-80297619D01*
X28466785Y-81202380D02*
X28466785Y-80202380D01*
X28371546Y-80821428D02*
X28085832Y-81202380D01*
X28085832Y-80535714D02*
X28466785Y-80916666D01*
X27657261Y-81107142D02*
X27609642Y-81154761D01*
X27657261Y-81202380D01*
X27704880Y-81154761D01*
X27657261Y-81107142D01*
X27657261Y-81202380D01*
X27181070Y-81202380D02*
X27181070Y-80535714D01*
X27181070Y-80630952D02*
X27133451Y-80583333D01*
X27038213Y-80535714D01*
X26895356Y-80535714D01*
X26800118Y-80583333D01*
X26752499Y-80678571D01*
X26752499Y-81202380D01*
X26752499Y-80678571D02*
X26704880Y-80583333D01*
X26609642Y-80535714D01*
X26466785Y-80535714D01*
X26371546Y-80583333D01*
X26323927Y-80678571D01*
X26323927Y-81202380D01*
X25466785Y-81154761D02*
X25562023Y-81202380D01*
X25752499Y-81202380D01*
X25847737Y-81154761D01*
X25895356Y-81059523D01*
X25895356Y-80678571D01*
X25847737Y-80583333D01*
X25752499Y-80535714D01*
X25562023Y-80535714D01*
X25466785Y-80583333D01*
X25419166Y-80678571D01*
X25419166Y-80773809D01*
X25895356Y-80869047D01*
X24276308Y-80154761D02*
X25133451Y-81440476D01*
X24038213Y-80535714D02*
X23800118Y-81202380D01*
X23562023Y-80535714D01*
X23228689Y-80297619D02*
X23181070Y-80250000D01*
X23085832Y-80202380D01*
X22847737Y-80202380D01*
X22752499Y-80250000D01*
X22704880Y-80297619D01*
X22657261Y-80392857D01*
X22657261Y-80488095D01*
X22704880Y-80630952D01*
X23276308Y-81202380D01*
X22657261Y-81202380D01*
X22323927Y-81202380D02*
X21800118Y-80535714D01*
X22323927Y-80535714D02*
X21800118Y-81202380D01*
X21419166Y-80535714D02*
X21419166Y-81535714D01*
X21419166Y-80583333D02*
X21323927Y-80535714D01*
X21133451Y-80535714D01*
X21038213Y-80583333D01*
X20990594Y-80630952D01*
X20942975Y-80726190D01*
X20942975Y-81011904D01*
X20990594Y-81107142D01*
X21038213Y-81154761D01*
X21133451Y-81202380D01*
X21323927Y-81202380D01*
X21419166Y-81154761D01*
X36181070Y-82852380D02*
X36181070Y-82185714D01*
X36181070Y-81852380D02*
X36228689Y-81900000D01*
X36181070Y-81947619D01*
X36133451Y-81900000D01*
X36181070Y-81852380D01*
X36181070Y-81947619D01*
X35704880Y-82185714D02*
X35704880Y-82852380D01*
X35704880Y-82280952D02*
X35657261Y-82233333D01*
X35562023Y-82185714D01*
X35419166Y-82185714D01*
X35323927Y-82233333D01*
X35276308Y-82328571D01*
X35276308Y-82852380D01*
X34942975Y-82185714D02*
X34562023Y-82185714D01*
X34800118Y-81852380D02*
X34800118Y-82709523D01*
X34752499Y-82804761D01*
X34657261Y-82852380D01*
X34562023Y-82852380D01*
X33847737Y-82804761D02*
X33942975Y-82852380D01*
X34133451Y-82852380D01*
X34228689Y-82804761D01*
X34276308Y-82709523D01*
X34276308Y-82328571D01*
X34228689Y-82233333D01*
X34133451Y-82185714D01*
X33942975Y-82185714D01*
X33847737Y-82233333D01*
X33800118Y-82328571D01*
X33800118Y-82423809D01*
X34276308Y-82519047D01*
X33371546Y-82852380D02*
X33371546Y-82185714D01*
X33371546Y-82376190D02*
X33323927Y-82280952D01*
X33276308Y-82233333D01*
X33181070Y-82185714D01*
X33085832Y-82185714D01*
X32895356Y-82185714D02*
X32514404Y-82185714D01*
X32752499Y-82852380D02*
X32752499Y-81995238D01*
X32704880Y-81900000D01*
X32609642Y-81852380D01*
X32514404Y-81852380D01*
X31752499Y-82852380D02*
X31752499Y-82328571D01*
X31800118Y-82233333D01*
X31895356Y-82185714D01*
X32085832Y-82185714D01*
X32181070Y-82233333D01*
X31752499Y-82804761D02*
X31847737Y-82852380D01*
X32085832Y-82852380D01*
X32181070Y-82804761D01*
X32228689Y-82709523D01*
X32228689Y-82614285D01*
X32181070Y-82519047D01*
X32085832Y-82471428D01*
X31847737Y-82471428D01*
X31752499Y-82423809D01*
X30847737Y-82804761D02*
X30942975Y-82852380D01*
X31133451Y-82852380D01*
X31228689Y-82804761D01*
X31276308Y-82757142D01*
X31323927Y-82661904D01*
X31323927Y-82376190D01*
X31276308Y-82280952D01*
X31228689Y-82233333D01*
X31133451Y-82185714D01*
X30942975Y-82185714D01*
X30847737Y-82233333D01*
X30038213Y-82804761D02*
X30133451Y-82852380D01*
X30323927Y-82852380D01*
X30419166Y-82804761D01*
X30466785Y-82709523D01*
X30466785Y-82328571D01*
X30419166Y-82233333D01*
X30323927Y-82185714D01*
X30133451Y-82185714D01*
X30038213Y-82233333D01*
X29990594Y-82328571D01*
X29990594Y-82423809D01*
X30466785Y-82519047D01*
X29609642Y-81947619D02*
X29562023Y-81900000D01*
X29466785Y-81852380D01*
X29228689Y-81852380D01*
X29133451Y-81900000D01*
X29085832Y-81947619D01*
X29038213Y-82042857D01*
X29038213Y-82138095D01*
X29085832Y-82280952D01*
X29657261Y-82852380D01*
X29038213Y-82852380D01*
X27847737Y-82471428D02*
X27085832Y-82471428D01*
X25276308Y-82852380D02*
X25609642Y-82376190D01*
X25847737Y-82852380D02*
X25847737Y-81852380D01*
X25466785Y-81852380D01*
X25371546Y-81900000D01*
X25323927Y-81947619D01*
X25276308Y-82042857D01*
X25276308Y-82185714D01*
X25323927Y-82280952D01*
X25371546Y-82328571D01*
X25466785Y-82376190D01*
X25847737Y-82376190D01*
X24466785Y-82804761D02*
X24562023Y-82852380D01*
X24752499Y-82852380D01*
X24847737Y-82804761D01*
X24895356Y-82709523D01*
X24895356Y-82328571D01*
X24847737Y-82233333D01*
X24752499Y-82185714D01*
X24562023Y-82185714D01*
X24466785Y-82233333D01*
X24419166Y-82328571D01*
X24419166Y-82423809D01*
X24895356Y-82519047D01*
X24085832Y-82185714D02*
X23847737Y-82852380D01*
X23609642Y-82185714D01*
X21942975Y-82852380D02*
X22514404Y-82852380D01*
X22228689Y-82852380D02*
X22228689Y-81852380D01*
X22323927Y-81995238D01*
X22419166Y-82090476D01*
X22514404Y-82138095D01*
D10*
X47945237Y-106262904D02*
X47945237Y-106834333D01*
X47983332Y-106948619D01*
X48059522Y-107024809D01*
X48173808Y-107062904D01*
X48249999Y-107062904D01*
X47183332Y-107062904D02*
X47564284Y-107062904D01*
X47564284Y-106262904D01*
X46459522Y-106986714D02*
X46497618Y-107024809D01*
X46611903Y-107062904D01*
X46688094Y-107062904D01*
X46802379Y-107024809D01*
X46878570Y-106948619D01*
X46916665Y-106872428D01*
X46954760Y-106720047D01*
X46954760Y-106605761D01*
X46916665Y-106453380D01*
X46878570Y-106377190D01*
X46802379Y-106301000D01*
X46688094Y-106262904D01*
X46611903Y-106262904D01*
X46497618Y-106301000D01*
X46459522Y-106339095D01*
X45888094Y-106262904D02*
X45888094Y-106834333D01*
X45926189Y-106948619D01*
X46002379Y-107024809D01*
X46116665Y-107062904D01*
X46192856Y-107062904D01*
X45126189Y-107062904D02*
X45507141Y-107062904D01*
X45507141Y-106262904D01*
X44402379Y-106986714D02*
X44440475Y-107024809D01*
X44554760Y-107062904D01*
X44630951Y-107062904D01*
X44745237Y-107024809D01*
X44821427Y-106948619D01*
X44859522Y-106872428D01*
X44897618Y-106720047D01*
X44897618Y-106605761D01*
X44859522Y-106453380D01*
X44821427Y-106377190D01*
X44745237Y-106301000D01*
X44630951Y-106262904D01*
X44554760Y-106262904D01*
X44440475Y-106301000D01*
X44402379Y-106339095D01*
X43830951Y-106262904D02*
X43830951Y-106834333D01*
X43869046Y-106948619D01*
X43945237Y-107024809D01*
X44059522Y-107062904D01*
X44135713Y-107062904D01*
X43069046Y-107062904D02*
X43449999Y-107062904D01*
X43449999Y-106262904D01*
X42345237Y-106986714D02*
X42383332Y-107024809D01*
X42497618Y-107062904D01*
X42573808Y-107062904D01*
X42688094Y-107024809D01*
X42764284Y-106948619D01*
X42802379Y-106872428D01*
X42840475Y-106720047D01*
X42840475Y-106605761D01*
X42802379Y-106453380D01*
X42764284Y-106377190D01*
X42688094Y-106301000D01*
X42573808Y-106262904D01*
X42497618Y-106262904D01*
X42383332Y-106301000D01*
X42345237Y-106339095D01*
X41773808Y-106262904D02*
X41773808Y-106834333D01*
X41811903Y-106948619D01*
X41888094Y-107024809D01*
X42002379Y-107062904D01*
X42078570Y-107062904D01*
X41011903Y-107062904D02*
X41392856Y-107062904D01*
X41392856Y-106262904D01*
X40288094Y-106986714D02*
X40326189Y-107024809D01*
X40440475Y-107062904D01*
X40516665Y-107062904D01*
X40630951Y-107024809D01*
X40707141Y-106948619D01*
X40745237Y-106872428D01*
X40783332Y-106720047D01*
X40783332Y-106605761D01*
X40745237Y-106453380D01*
X40707141Y-106377190D01*
X40630951Y-106301000D01*
X40516665Y-106262904D01*
X40440475Y-106262904D01*
X40326189Y-106301000D01*
X40288094Y-106339095D01*
D12*
X70225000Y-71275000D02*
G75*
G03*
X70225000Y-71275000I-700000J0D01*
G01*
X42700000Y-73500000D02*
G75*
G03*
X42700000Y-73500000I-700000J0D01*
G01*
X46200000Y-71250000D02*
G75*
G03*
X46200000Y-71250000I-700000J0D01*
G01*
X65450000Y-67000000D02*
G75*
G03*
X65450000Y-67000000I-700000J0D01*
G01*
M02*
