G04 #@! TF.GenerationSoftware,KiCad,Pcbnew,5.1.9*
G04 #@! TF.CreationDate,2021-01-05T21:26:03-06:00*
G04 #@! TF.ProjectId,pcb,7063622e-6b69-4636-9164-5f7063625858,rev?*
G04 #@! TF.SameCoordinates,Original*
G04 #@! TF.FileFunction,Paste,Top*
G04 #@! TF.FilePolarity,Positive*
%FSLAX46Y46*%
G04 Gerber Fmt 4.6, Leading zero omitted, Abs format (unit mm)*
G04 Created by KiCad (PCBNEW 5.1.9) date 2021-01-05 21:26:03*
%MOMM*%
%LPD*%
G01*
G04 APERTURE LIST*
%ADD10R,0.650000X1.060000*%
%ADD11R,1.000000X0.900000*%
%ADD12R,1.430000X2.500000*%
%ADD13R,0.400000X1.650000*%
%ADD14R,2.000000X1.500000*%
%ADD15R,1.825000X0.700000*%
%ADD16R,1.350000X2.000000*%
%ADD17R,0.650000X0.400000*%
%ADD18R,1.060000X0.650000*%
%ADD19R,1.524000X1.016000*%
G04 APERTURE END LIST*
G36*
G01*
X33756250Y-105650000D02*
X33243750Y-105650000D01*
G75*
G02*
X33025000Y-105431250I0J218750D01*
G01*
X33025000Y-104993750D01*
G75*
G02*
X33243750Y-104775000I218750J0D01*
G01*
X33756250Y-104775000D01*
G75*
G02*
X33975000Y-104993750I0J-218750D01*
G01*
X33975000Y-105431250D01*
G75*
G02*
X33756250Y-105650000I-218750J0D01*
G01*
G37*
G36*
G01*
X33756250Y-107225000D02*
X33243750Y-107225000D01*
G75*
G02*
X33025000Y-107006250I0J218750D01*
G01*
X33025000Y-106568750D01*
G75*
G02*
X33243750Y-106350000I218750J0D01*
G01*
X33756250Y-106350000D01*
G75*
G02*
X33975000Y-106568750I0J-218750D01*
G01*
X33975000Y-107006250D01*
G75*
G02*
X33756250Y-107225000I-218750J0D01*
G01*
G37*
G36*
G01*
X31256250Y-105650000D02*
X30743750Y-105650000D01*
G75*
G02*
X30525000Y-105431250I0J218750D01*
G01*
X30525000Y-104993750D01*
G75*
G02*
X30743750Y-104775000I218750J0D01*
G01*
X31256250Y-104775000D01*
G75*
G02*
X31475000Y-104993750I0J-218750D01*
G01*
X31475000Y-105431250D01*
G75*
G02*
X31256250Y-105650000I-218750J0D01*
G01*
G37*
G36*
G01*
X31256250Y-107225000D02*
X30743750Y-107225000D01*
G75*
G02*
X30525000Y-107006250I0J218750D01*
G01*
X30525000Y-106568750D01*
G75*
G02*
X30743750Y-106350000I218750J0D01*
G01*
X31256250Y-106350000D01*
G75*
G02*
X31475000Y-106568750I0J-218750D01*
G01*
X31475000Y-107006250D01*
G75*
G02*
X31256250Y-107225000I-218750J0D01*
G01*
G37*
G36*
G01*
X28756250Y-105650000D02*
X28243750Y-105650000D01*
G75*
G02*
X28025000Y-105431250I0J218750D01*
G01*
X28025000Y-104993750D01*
G75*
G02*
X28243750Y-104775000I218750J0D01*
G01*
X28756250Y-104775000D01*
G75*
G02*
X28975000Y-104993750I0J-218750D01*
G01*
X28975000Y-105431250D01*
G75*
G02*
X28756250Y-105650000I-218750J0D01*
G01*
G37*
G36*
G01*
X28756250Y-107225000D02*
X28243750Y-107225000D01*
G75*
G02*
X28025000Y-107006250I0J218750D01*
G01*
X28025000Y-106568750D01*
G75*
G02*
X28243750Y-106350000I218750J0D01*
G01*
X28756250Y-106350000D01*
G75*
G02*
X28975000Y-106568750I0J-218750D01*
G01*
X28975000Y-107006250D01*
G75*
G02*
X28756250Y-107225000I-218750J0D01*
G01*
G37*
G36*
G01*
X26256250Y-105650000D02*
X25743750Y-105650000D01*
G75*
G02*
X25525000Y-105431250I0J218750D01*
G01*
X25525000Y-104993750D01*
G75*
G02*
X25743750Y-104775000I218750J0D01*
G01*
X26256250Y-104775000D01*
G75*
G02*
X26475000Y-104993750I0J-218750D01*
G01*
X26475000Y-105431250D01*
G75*
G02*
X26256250Y-105650000I-218750J0D01*
G01*
G37*
G36*
G01*
X26256250Y-107225000D02*
X25743750Y-107225000D01*
G75*
G02*
X25525000Y-107006250I0J218750D01*
G01*
X25525000Y-106568750D01*
G75*
G02*
X25743750Y-106350000I218750J0D01*
G01*
X26256250Y-106350000D01*
G75*
G02*
X26475000Y-106568750I0J-218750D01*
G01*
X26475000Y-107006250D01*
G75*
G02*
X26256250Y-107225000I-218750J0D01*
G01*
G37*
G36*
G01*
X39075000Y-107475000D02*
X39075000Y-108025000D01*
G75*
G02*
X38875000Y-108225000I-200000J0D01*
G01*
X38475000Y-108225000D01*
G75*
G02*
X38275000Y-108025000I0J200000D01*
G01*
X38275000Y-107475000D01*
G75*
G02*
X38475000Y-107275000I200000J0D01*
G01*
X38875000Y-107275000D01*
G75*
G02*
X39075000Y-107475000I0J-200000D01*
G01*
G37*
G36*
G01*
X40725000Y-107475000D02*
X40725000Y-108025000D01*
G75*
G02*
X40525000Y-108225000I-200000J0D01*
G01*
X40125000Y-108225000D01*
G75*
G02*
X39925000Y-108025000I0J200000D01*
G01*
X39925000Y-107475000D01*
G75*
G02*
X40125000Y-107275000I200000J0D01*
G01*
X40525000Y-107275000D01*
G75*
G02*
X40725000Y-107475000I0J-200000D01*
G01*
G37*
G36*
G01*
X39075000Y-105475000D02*
X39075000Y-106025000D01*
G75*
G02*
X38875000Y-106225000I-200000J0D01*
G01*
X38475000Y-106225000D01*
G75*
G02*
X38275000Y-106025000I0J200000D01*
G01*
X38275000Y-105475000D01*
G75*
G02*
X38475000Y-105275000I200000J0D01*
G01*
X38875000Y-105275000D01*
G75*
G02*
X39075000Y-105475000I0J-200000D01*
G01*
G37*
G36*
G01*
X40725000Y-105475000D02*
X40725000Y-106025000D01*
G75*
G02*
X40525000Y-106225000I-200000J0D01*
G01*
X40125000Y-106225000D01*
G75*
G02*
X39925000Y-106025000I0J200000D01*
G01*
X39925000Y-105475000D01*
G75*
G02*
X40125000Y-105275000I200000J0D01*
G01*
X40525000Y-105275000D01*
G75*
G02*
X40725000Y-105475000I0J-200000D01*
G01*
G37*
G36*
G01*
X39075000Y-103475000D02*
X39075000Y-104025000D01*
G75*
G02*
X38875000Y-104225000I-200000J0D01*
G01*
X38475000Y-104225000D01*
G75*
G02*
X38275000Y-104025000I0J200000D01*
G01*
X38275000Y-103475000D01*
G75*
G02*
X38475000Y-103275000I200000J0D01*
G01*
X38875000Y-103275000D01*
G75*
G02*
X39075000Y-103475000I0J-200000D01*
G01*
G37*
G36*
G01*
X40725000Y-103475000D02*
X40725000Y-104025000D01*
G75*
G02*
X40525000Y-104225000I-200000J0D01*
G01*
X40125000Y-104225000D01*
G75*
G02*
X39925000Y-104025000I0J200000D01*
G01*
X39925000Y-103475000D01*
G75*
G02*
X40125000Y-103275000I200000J0D01*
G01*
X40525000Y-103275000D01*
G75*
G02*
X40725000Y-103475000I0J-200000D01*
G01*
G37*
G36*
G01*
X39075000Y-101475000D02*
X39075000Y-102025000D01*
G75*
G02*
X38875000Y-102225000I-200000J0D01*
G01*
X38475000Y-102225000D01*
G75*
G02*
X38275000Y-102025000I0J200000D01*
G01*
X38275000Y-101475000D01*
G75*
G02*
X38475000Y-101275000I200000J0D01*
G01*
X38875000Y-101275000D01*
G75*
G02*
X39075000Y-101475000I0J-200000D01*
G01*
G37*
G36*
G01*
X40725000Y-101475000D02*
X40725000Y-102025000D01*
G75*
G02*
X40525000Y-102225000I-200000J0D01*
G01*
X40125000Y-102225000D01*
G75*
G02*
X39925000Y-102025000I0J200000D01*
G01*
X39925000Y-101475000D01*
G75*
G02*
X40125000Y-101275000I200000J0D01*
G01*
X40525000Y-101275000D01*
G75*
G02*
X40725000Y-101475000I0J-200000D01*
G01*
G37*
D10*
X60400000Y-68650000D03*
X59450000Y-68650000D03*
X61350000Y-68650000D03*
X61350000Y-70850000D03*
X60400000Y-70850000D03*
X59450000Y-70850000D03*
D11*
X55491754Y-102611386D03*
X53591754Y-102611386D03*
X53591754Y-104711386D03*
X55491754Y-104711386D03*
G36*
G01*
X54165000Y-95085000D02*
X54165000Y-95715000D01*
G75*
G02*
X53915000Y-95965000I-250000J0D01*
G01*
X53285000Y-95965000D01*
G75*
G02*
X53035000Y-95715000I0J250000D01*
G01*
X53035000Y-95085000D01*
G75*
G02*
X53285000Y-94835000I250000J0D01*
G01*
X53915000Y-94835000D01*
G75*
G02*
X54165000Y-95085000I0J-250000D01*
G01*
G37*
G36*
G01*
X54165000Y-96485000D02*
X54165000Y-97115000D01*
G75*
G02*
X53915000Y-97365000I-250000J0D01*
G01*
X53285000Y-97365000D01*
G75*
G02*
X53035000Y-97115000I0J250000D01*
G01*
X53035000Y-96485000D01*
G75*
G02*
X53285000Y-96235000I250000J0D01*
G01*
X53915000Y-96235000D01*
G75*
G02*
X54165000Y-96485000I0J-250000D01*
G01*
G37*
G36*
G01*
X54165000Y-97885000D02*
X54165000Y-98515000D01*
G75*
G02*
X53915000Y-98765000I-250000J0D01*
G01*
X53285000Y-98765000D01*
G75*
G02*
X53035000Y-98515000I0J250000D01*
G01*
X53035000Y-97885000D01*
G75*
G02*
X53285000Y-97635000I250000J0D01*
G01*
X53915000Y-97635000D01*
G75*
G02*
X54165000Y-97885000I0J-250000D01*
G01*
G37*
G36*
G01*
X54165000Y-99285000D02*
X54165000Y-99915000D01*
G75*
G02*
X53915000Y-100165000I-250000J0D01*
G01*
X53285000Y-100165000D01*
G75*
G02*
X53035000Y-99915000I0J250000D01*
G01*
X53035000Y-99285000D01*
G75*
G02*
X53285000Y-99035000I250000J0D01*
G01*
X53915000Y-99035000D01*
G75*
G02*
X54165000Y-99285000I0J-250000D01*
G01*
G37*
G36*
G01*
X55565000Y-95085000D02*
X55565000Y-95715000D01*
G75*
G02*
X55315000Y-95965000I-250000J0D01*
G01*
X54685000Y-95965000D01*
G75*
G02*
X54435000Y-95715000I0J250000D01*
G01*
X54435000Y-95085000D01*
G75*
G02*
X54685000Y-94835000I250000J0D01*
G01*
X55315000Y-94835000D01*
G75*
G02*
X55565000Y-95085000I0J-250000D01*
G01*
G37*
G36*
G01*
X55565000Y-96485000D02*
X55565000Y-97115000D01*
G75*
G02*
X55315000Y-97365000I-250000J0D01*
G01*
X54685000Y-97365000D01*
G75*
G02*
X54435000Y-97115000I0J250000D01*
G01*
X54435000Y-96485000D01*
G75*
G02*
X54685000Y-96235000I250000J0D01*
G01*
X55315000Y-96235000D01*
G75*
G02*
X55565000Y-96485000I0J-250000D01*
G01*
G37*
G36*
G01*
X55565000Y-97885000D02*
X55565000Y-98515000D01*
G75*
G02*
X55315000Y-98765000I-250000J0D01*
G01*
X54685000Y-98765000D01*
G75*
G02*
X54435000Y-98515000I0J250000D01*
G01*
X54435000Y-97885000D01*
G75*
G02*
X54685000Y-97635000I250000J0D01*
G01*
X55315000Y-97635000D01*
G75*
G02*
X55565000Y-97885000I0J-250000D01*
G01*
G37*
G36*
G01*
X55565000Y-99285000D02*
X55565000Y-99915000D01*
G75*
G02*
X55315000Y-100165000I-250000J0D01*
G01*
X54685000Y-100165000D01*
G75*
G02*
X54435000Y-99915000I0J250000D01*
G01*
X54435000Y-99285000D01*
G75*
G02*
X54685000Y-99035000I250000J0D01*
G01*
X55315000Y-99035000D01*
G75*
G02*
X55565000Y-99285000I0J-250000D01*
G01*
G37*
G36*
G01*
X56965000Y-95085000D02*
X56965000Y-95715000D01*
G75*
G02*
X56715000Y-95965000I-250000J0D01*
G01*
X56085000Y-95965000D01*
G75*
G02*
X55835000Y-95715000I0J250000D01*
G01*
X55835000Y-95085000D01*
G75*
G02*
X56085000Y-94835000I250000J0D01*
G01*
X56715000Y-94835000D01*
G75*
G02*
X56965000Y-95085000I0J-250000D01*
G01*
G37*
G36*
G01*
X56965000Y-96485000D02*
X56965000Y-97115000D01*
G75*
G02*
X56715000Y-97365000I-250000J0D01*
G01*
X56085000Y-97365000D01*
G75*
G02*
X55835000Y-97115000I0J250000D01*
G01*
X55835000Y-96485000D01*
G75*
G02*
X56085000Y-96235000I250000J0D01*
G01*
X56715000Y-96235000D01*
G75*
G02*
X56965000Y-96485000I0J-250000D01*
G01*
G37*
G36*
G01*
X56965000Y-97885000D02*
X56965000Y-98515000D01*
G75*
G02*
X56715000Y-98765000I-250000J0D01*
G01*
X56085000Y-98765000D01*
G75*
G02*
X55835000Y-98515000I0J250000D01*
G01*
X55835000Y-97885000D01*
G75*
G02*
X56085000Y-97635000I250000J0D01*
G01*
X56715000Y-97635000D01*
G75*
G02*
X56965000Y-97885000I0J-250000D01*
G01*
G37*
G36*
G01*
X56965000Y-99285000D02*
X56965000Y-99915000D01*
G75*
G02*
X56715000Y-100165000I-250000J0D01*
G01*
X56085000Y-100165000D01*
G75*
G02*
X55835000Y-99915000I0J250000D01*
G01*
X55835000Y-99285000D01*
G75*
G02*
X56085000Y-99035000I250000J0D01*
G01*
X56715000Y-99035000D01*
G75*
G02*
X56965000Y-99285000I0J-250000D01*
G01*
G37*
G36*
G01*
X58365000Y-95085000D02*
X58365000Y-95715000D01*
G75*
G02*
X58115000Y-95965000I-250000J0D01*
G01*
X57485000Y-95965000D01*
G75*
G02*
X57235000Y-95715000I0J250000D01*
G01*
X57235000Y-95085000D01*
G75*
G02*
X57485000Y-94835000I250000J0D01*
G01*
X58115000Y-94835000D01*
G75*
G02*
X58365000Y-95085000I0J-250000D01*
G01*
G37*
G36*
G01*
X58365000Y-96485000D02*
X58365000Y-97115000D01*
G75*
G02*
X58115000Y-97365000I-250000J0D01*
G01*
X57485000Y-97365000D01*
G75*
G02*
X57235000Y-97115000I0J250000D01*
G01*
X57235000Y-96485000D01*
G75*
G02*
X57485000Y-96235000I250000J0D01*
G01*
X58115000Y-96235000D01*
G75*
G02*
X58365000Y-96485000I0J-250000D01*
G01*
G37*
G36*
G01*
X58365000Y-97885000D02*
X58365000Y-98515000D01*
G75*
G02*
X58115000Y-98765000I-250000J0D01*
G01*
X57485000Y-98765000D01*
G75*
G02*
X57235000Y-98515000I0J250000D01*
G01*
X57235000Y-97885000D01*
G75*
G02*
X57485000Y-97635000I250000J0D01*
G01*
X58115000Y-97635000D01*
G75*
G02*
X58365000Y-97885000I0J-250000D01*
G01*
G37*
G36*
G01*
X58365000Y-99285000D02*
X58365000Y-99915000D01*
G75*
G02*
X58115000Y-100165000I-250000J0D01*
G01*
X57485000Y-100165000D01*
G75*
G02*
X57235000Y-99915000I0J250000D01*
G01*
X57235000Y-99285000D01*
G75*
G02*
X57485000Y-99035000I250000J0D01*
G01*
X58115000Y-99035000D01*
G75*
G02*
X58365000Y-99285000I0J-250000D01*
G01*
G37*
G36*
G01*
X58575000Y-100562500D02*
X58575000Y-101312500D01*
G75*
G02*
X58512500Y-101375000I-62500J0D01*
G01*
X58387500Y-101375000D01*
G75*
G02*
X58325000Y-101312500I0J62500D01*
G01*
X58325000Y-100562500D01*
G75*
G02*
X58387500Y-100500000I62500J0D01*
G01*
X58512500Y-100500000D01*
G75*
G02*
X58575000Y-100562500I0J-62500D01*
G01*
G37*
G36*
G01*
X58075000Y-100562500D02*
X58075000Y-101312500D01*
G75*
G02*
X58012500Y-101375000I-62500J0D01*
G01*
X57887500Y-101375000D01*
G75*
G02*
X57825000Y-101312500I0J62500D01*
G01*
X57825000Y-100562500D01*
G75*
G02*
X57887500Y-100500000I62500J0D01*
G01*
X58012500Y-100500000D01*
G75*
G02*
X58075000Y-100562500I0J-62500D01*
G01*
G37*
G36*
G01*
X57575000Y-100562500D02*
X57575000Y-101312500D01*
G75*
G02*
X57512500Y-101375000I-62500J0D01*
G01*
X57387500Y-101375000D01*
G75*
G02*
X57325000Y-101312500I0J62500D01*
G01*
X57325000Y-100562500D01*
G75*
G02*
X57387500Y-100500000I62500J0D01*
G01*
X57512500Y-100500000D01*
G75*
G02*
X57575000Y-100562500I0J-62500D01*
G01*
G37*
G36*
G01*
X57075000Y-100562500D02*
X57075000Y-101312500D01*
G75*
G02*
X57012500Y-101375000I-62500J0D01*
G01*
X56887500Y-101375000D01*
G75*
G02*
X56825000Y-101312500I0J62500D01*
G01*
X56825000Y-100562500D01*
G75*
G02*
X56887500Y-100500000I62500J0D01*
G01*
X57012500Y-100500000D01*
G75*
G02*
X57075000Y-100562500I0J-62500D01*
G01*
G37*
G36*
G01*
X56575000Y-100562500D02*
X56575000Y-101312500D01*
G75*
G02*
X56512500Y-101375000I-62500J0D01*
G01*
X56387500Y-101375000D01*
G75*
G02*
X56325000Y-101312500I0J62500D01*
G01*
X56325000Y-100562500D01*
G75*
G02*
X56387500Y-100500000I62500J0D01*
G01*
X56512500Y-100500000D01*
G75*
G02*
X56575000Y-100562500I0J-62500D01*
G01*
G37*
G36*
G01*
X56075000Y-100562500D02*
X56075000Y-101312500D01*
G75*
G02*
X56012500Y-101375000I-62500J0D01*
G01*
X55887500Y-101375000D01*
G75*
G02*
X55825000Y-101312500I0J62500D01*
G01*
X55825000Y-100562500D01*
G75*
G02*
X55887500Y-100500000I62500J0D01*
G01*
X56012500Y-100500000D01*
G75*
G02*
X56075000Y-100562500I0J-62500D01*
G01*
G37*
G36*
G01*
X55575000Y-100562500D02*
X55575000Y-101312500D01*
G75*
G02*
X55512500Y-101375000I-62500J0D01*
G01*
X55387500Y-101375000D01*
G75*
G02*
X55325000Y-101312500I0J62500D01*
G01*
X55325000Y-100562500D01*
G75*
G02*
X55387500Y-100500000I62500J0D01*
G01*
X55512500Y-100500000D01*
G75*
G02*
X55575000Y-100562500I0J-62500D01*
G01*
G37*
G36*
G01*
X55075000Y-100562500D02*
X55075000Y-101312500D01*
G75*
G02*
X55012500Y-101375000I-62500J0D01*
G01*
X54887500Y-101375000D01*
G75*
G02*
X54825000Y-101312500I0J62500D01*
G01*
X54825000Y-100562500D01*
G75*
G02*
X54887500Y-100500000I62500J0D01*
G01*
X55012500Y-100500000D01*
G75*
G02*
X55075000Y-100562500I0J-62500D01*
G01*
G37*
G36*
G01*
X54575000Y-100562500D02*
X54575000Y-101312500D01*
G75*
G02*
X54512500Y-101375000I-62500J0D01*
G01*
X54387500Y-101375000D01*
G75*
G02*
X54325000Y-101312500I0J62500D01*
G01*
X54325000Y-100562500D01*
G75*
G02*
X54387500Y-100500000I62500J0D01*
G01*
X54512500Y-100500000D01*
G75*
G02*
X54575000Y-100562500I0J-62500D01*
G01*
G37*
G36*
G01*
X54075000Y-100562500D02*
X54075000Y-101312500D01*
G75*
G02*
X54012500Y-101375000I-62500J0D01*
G01*
X53887500Y-101375000D01*
G75*
G02*
X53825000Y-101312500I0J62500D01*
G01*
X53825000Y-100562500D01*
G75*
G02*
X53887500Y-100500000I62500J0D01*
G01*
X54012500Y-100500000D01*
G75*
G02*
X54075000Y-100562500I0J-62500D01*
G01*
G37*
G36*
G01*
X53575000Y-100562500D02*
X53575000Y-101312500D01*
G75*
G02*
X53512500Y-101375000I-62500J0D01*
G01*
X53387500Y-101375000D01*
G75*
G02*
X53325000Y-101312500I0J62500D01*
G01*
X53325000Y-100562500D01*
G75*
G02*
X53387500Y-100500000I62500J0D01*
G01*
X53512500Y-100500000D01*
G75*
G02*
X53575000Y-100562500I0J-62500D01*
G01*
G37*
G36*
G01*
X53075000Y-100562500D02*
X53075000Y-101312500D01*
G75*
G02*
X53012500Y-101375000I-62500J0D01*
G01*
X52887500Y-101375000D01*
G75*
G02*
X52825000Y-101312500I0J62500D01*
G01*
X52825000Y-100562500D01*
G75*
G02*
X52887500Y-100500000I62500J0D01*
G01*
X53012500Y-100500000D01*
G75*
G02*
X53075000Y-100562500I0J-62500D01*
G01*
G37*
G36*
G01*
X52700000Y-100187500D02*
X52700000Y-100312500D01*
G75*
G02*
X52637500Y-100375000I-62500J0D01*
G01*
X51887500Y-100375000D01*
G75*
G02*
X51825000Y-100312500I0J62500D01*
G01*
X51825000Y-100187500D01*
G75*
G02*
X51887500Y-100125000I62500J0D01*
G01*
X52637500Y-100125000D01*
G75*
G02*
X52700000Y-100187500I0J-62500D01*
G01*
G37*
G36*
G01*
X52700000Y-99687500D02*
X52700000Y-99812500D01*
G75*
G02*
X52637500Y-99875000I-62500J0D01*
G01*
X51887500Y-99875000D01*
G75*
G02*
X51825000Y-99812500I0J62500D01*
G01*
X51825000Y-99687500D01*
G75*
G02*
X51887500Y-99625000I62500J0D01*
G01*
X52637500Y-99625000D01*
G75*
G02*
X52700000Y-99687500I0J-62500D01*
G01*
G37*
G36*
G01*
X52700000Y-99187500D02*
X52700000Y-99312500D01*
G75*
G02*
X52637500Y-99375000I-62500J0D01*
G01*
X51887500Y-99375000D01*
G75*
G02*
X51825000Y-99312500I0J62500D01*
G01*
X51825000Y-99187500D01*
G75*
G02*
X51887500Y-99125000I62500J0D01*
G01*
X52637500Y-99125000D01*
G75*
G02*
X52700000Y-99187500I0J-62500D01*
G01*
G37*
G36*
G01*
X52700000Y-98687500D02*
X52700000Y-98812500D01*
G75*
G02*
X52637500Y-98875000I-62500J0D01*
G01*
X51887500Y-98875000D01*
G75*
G02*
X51825000Y-98812500I0J62500D01*
G01*
X51825000Y-98687500D01*
G75*
G02*
X51887500Y-98625000I62500J0D01*
G01*
X52637500Y-98625000D01*
G75*
G02*
X52700000Y-98687500I0J-62500D01*
G01*
G37*
G36*
G01*
X52700000Y-98187500D02*
X52700000Y-98312500D01*
G75*
G02*
X52637500Y-98375000I-62500J0D01*
G01*
X51887500Y-98375000D01*
G75*
G02*
X51825000Y-98312500I0J62500D01*
G01*
X51825000Y-98187500D01*
G75*
G02*
X51887500Y-98125000I62500J0D01*
G01*
X52637500Y-98125000D01*
G75*
G02*
X52700000Y-98187500I0J-62500D01*
G01*
G37*
G36*
G01*
X52700000Y-97687500D02*
X52700000Y-97812500D01*
G75*
G02*
X52637500Y-97875000I-62500J0D01*
G01*
X51887500Y-97875000D01*
G75*
G02*
X51825000Y-97812500I0J62500D01*
G01*
X51825000Y-97687500D01*
G75*
G02*
X51887500Y-97625000I62500J0D01*
G01*
X52637500Y-97625000D01*
G75*
G02*
X52700000Y-97687500I0J-62500D01*
G01*
G37*
G36*
G01*
X52700000Y-97187500D02*
X52700000Y-97312500D01*
G75*
G02*
X52637500Y-97375000I-62500J0D01*
G01*
X51887500Y-97375000D01*
G75*
G02*
X51825000Y-97312500I0J62500D01*
G01*
X51825000Y-97187500D01*
G75*
G02*
X51887500Y-97125000I62500J0D01*
G01*
X52637500Y-97125000D01*
G75*
G02*
X52700000Y-97187500I0J-62500D01*
G01*
G37*
G36*
G01*
X52700000Y-96687500D02*
X52700000Y-96812500D01*
G75*
G02*
X52637500Y-96875000I-62500J0D01*
G01*
X51887500Y-96875000D01*
G75*
G02*
X51825000Y-96812500I0J62500D01*
G01*
X51825000Y-96687500D01*
G75*
G02*
X51887500Y-96625000I62500J0D01*
G01*
X52637500Y-96625000D01*
G75*
G02*
X52700000Y-96687500I0J-62500D01*
G01*
G37*
G36*
G01*
X52700000Y-96187500D02*
X52700000Y-96312500D01*
G75*
G02*
X52637500Y-96375000I-62500J0D01*
G01*
X51887500Y-96375000D01*
G75*
G02*
X51825000Y-96312500I0J62500D01*
G01*
X51825000Y-96187500D01*
G75*
G02*
X51887500Y-96125000I62500J0D01*
G01*
X52637500Y-96125000D01*
G75*
G02*
X52700000Y-96187500I0J-62500D01*
G01*
G37*
G36*
G01*
X52700000Y-95687500D02*
X52700000Y-95812500D01*
G75*
G02*
X52637500Y-95875000I-62500J0D01*
G01*
X51887500Y-95875000D01*
G75*
G02*
X51825000Y-95812500I0J62500D01*
G01*
X51825000Y-95687500D01*
G75*
G02*
X51887500Y-95625000I62500J0D01*
G01*
X52637500Y-95625000D01*
G75*
G02*
X52700000Y-95687500I0J-62500D01*
G01*
G37*
G36*
G01*
X52700000Y-95187500D02*
X52700000Y-95312500D01*
G75*
G02*
X52637500Y-95375000I-62500J0D01*
G01*
X51887500Y-95375000D01*
G75*
G02*
X51825000Y-95312500I0J62500D01*
G01*
X51825000Y-95187500D01*
G75*
G02*
X51887500Y-95125000I62500J0D01*
G01*
X52637500Y-95125000D01*
G75*
G02*
X52700000Y-95187500I0J-62500D01*
G01*
G37*
G36*
G01*
X52700000Y-94687500D02*
X52700000Y-94812500D01*
G75*
G02*
X52637500Y-94875000I-62500J0D01*
G01*
X51887500Y-94875000D01*
G75*
G02*
X51825000Y-94812500I0J62500D01*
G01*
X51825000Y-94687500D01*
G75*
G02*
X51887500Y-94625000I62500J0D01*
G01*
X52637500Y-94625000D01*
G75*
G02*
X52700000Y-94687500I0J-62500D01*
G01*
G37*
G36*
G01*
X53075000Y-93687500D02*
X53075000Y-94437500D01*
G75*
G02*
X53012500Y-94500000I-62500J0D01*
G01*
X52887500Y-94500000D01*
G75*
G02*
X52825000Y-94437500I0J62500D01*
G01*
X52825000Y-93687500D01*
G75*
G02*
X52887500Y-93625000I62500J0D01*
G01*
X53012500Y-93625000D01*
G75*
G02*
X53075000Y-93687500I0J-62500D01*
G01*
G37*
G36*
G01*
X53575000Y-93687500D02*
X53575000Y-94437500D01*
G75*
G02*
X53512500Y-94500000I-62500J0D01*
G01*
X53387500Y-94500000D01*
G75*
G02*
X53325000Y-94437500I0J62500D01*
G01*
X53325000Y-93687500D01*
G75*
G02*
X53387500Y-93625000I62500J0D01*
G01*
X53512500Y-93625000D01*
G75*
G02*
X53575000Y-93687500I0J-62500D01*
G01*
G37*
G36*
G01*
X54075000Y-93687500D02*
X54075000Y-94437500D01*
G75*
G02*
X54012500Y-94500000I-62500J0D01*
G01*
X53887500Y-94500000D01*
G75*
G02*
X53825000Y-94437500I0J62500D01*
G01*
X53825000Y-93687500D01*
G75*
G02*
X53887500Y-93625000I62500J0D01*
G01*
X54012500Y-93625000D01*
G75*
G02*
X54075000Y-93687500I0J-62500D01*
G01*
G37*
G36*
G01*
X54575000Y-93687500D02*
X54575000Y-94437500D01*
G75*
G02*
X54512500Y-94500000I-62500J0D01*
G01*
X54387500Y-94500000D01*
G75*
G02*
X54325000Y-94437500I0J62500D01*
G01*
X54325000Y-93687500D01*
G75*
G02*
X54387500Y-93625000I62500J0D01*
G01*
X54512500Y-93625000D01*
G75*
G02*
X54575000Y-93687500I0J-62500D01*
G01*
G37*
G36*
G01*
X55075000Y-93687500D02*
X55075000Y-94437500D01*
G75*
G02*
X55012500Y-94500000I-62500J0D01*
G01*
X54887500Y-94500000D01*
G75*
G02*
X54825000Y-94437500I0J62500D01*
G01*
X54825000Y-93687500D01*
G75*
G02*
X54887500Y-93625000I62500J0D01*
G01*
X55012500Y-93625000D01*
G75*
G02*
X55075000Y-93687500I0J-62500D01*
G01*
G37*
G36*
G01*
X55575000Y-93687500D02*
X55575000Y-94437500D01*
G75*
G02*
X55512500Y-94500000I-62500J0D01*
G01*
X55387500Y-94500000D01*
G75*
G02*
X55325000Y-94437500I0J62500D01*
G01*
X55325000Y-93687500D01*
G75*
G02*
X55387500Y-93625000I62500J0D01*
G01*
X55512500Y-93625000D01*
G75*
G02*
X55575000Y-93687500I0J-62500D01*
G01*
G37*
G36*
G01*
X56075000Y-93687500D02*
X56075000Y-94437500D01*
G75*
G02*
X56012500Y-94500000I-62500J0D01*
G01*
X55887500Y-94500000D01*
G75*
G02*
X55825000Y-94437500I0J62500D01*
G01*
X55825000Y-93687500D01*
G75*
G02*
X55887500Y-93625000I62500J0D01*
G01*
X56012500Y-93625000D01*
G75*
G02*
X56075000Y-93687500I0J-62500D01*
G01*
G37*
G36*
G01*
X56575000Y-93687500D02*
X56575000Y-94437500D01*
G75*
G02*
X56512500Y-94500000I-62500J0D01*
G01*
X56387500Y-94500000D01*
G75*
G02*
X56325000Y-94437500I0J62500D01*
G01*
X56325000Y-93687500D01*
G75*
G02*
X56387500Y-93625000I62500J0D01*
G01*
X56512500Y-93625000D01*
G75*
G02*
X56575000Y-93687500I0J-62500D01*
G01*
G37*
G36*
G01*
X57075000Y-93687500D02*
X57075000Y-94437500D01*
G75*
G02*
X57012500Y-94500000I-62500J0D01*
G01*
X56887500Y-94500000D01*
G75*
G02*
X56825000Y-94437500I0J62500D01*
G01*
X56825000Y-93687500D01*
G75*
G02*
X56887500Y-93625000I62500J0D01*
G01*
X57012500Y-93625000D01*
G75*
G02*
X57075000Y-93687500I0J-62500D01*
G01*
G37*
G36*
G01*
X57575000Y-93687500D02*
X57575000Y-94437500D01*
G75*
G02*
X57512500Y-94500000I-62500J0D01*
G01*
X57387500Y-94500000D01*
G75*
G02*
X57325000Y-94437500I0J62500D01*
G01*
X57325000Y-93687500D01*
G75*
G02*
X57387500Y-93625000I62500J0D01*
G01*
X57512500Y-93625000D01*
G75*
G02*
X57575000Y-93687500I0J-62500D01*
G01*
G37*
G36*
G01*
X58075000Y-93687500D02*
X58075000Y-94437500D01*
G75*
G02*
X58012500Y-94500000I-62500J0D01*
G01*
X57887500Y-94500000D01*
G75*
G02*
X57825000Y-94437500I0J62500D01*
G01*
X57825000Y-93687500D01*
G75*
G02*
X57887500Y-93625000I62500J0D01*
G01*
X58012500Y-93625000D01*
G75*
G02*
X58075000Y-93687500I0J-62500D01*
G01*
G37*
G36*
G01*
X58575000Y-93687500D02*
X58575000Y-94437500D01*
G75*
G02*
X58512500Y-94500000I-62500J0D01*
G01*
X58387500Y-94500000D01*
G75*
G02*
X58325000Y-94437500I0J62500D01*
G01*
X58325000Y-93687500D01*
G75*
G02*
X58387500Y-93625000I62500J0D01*
G01*
X58512500Y-93625000D01*
G75*
G02*
X58575000Y-93687500I0J-62500D01*
G01*
G37*
G36*
G01*
X59575000Y-94687500D02*
X59575000Y-94812500D01*
G75*
G02*
X59512500Y-94875000I-62500J0D01*
G01*
X58762500Y-94875000D01*
G75*
G02*
X58700000Y-94812500I0J62500D01*
G01*
X58700000Y-94687500D01*
G75*
G02*
X58762500Y-94625000I62500J0D01*
G01*
X59512500Y-94625000D01*
G75*
G02*
X59575000Y-94687500I0J-62500D01*
G01*
G37*
G36*
G01*
X59575000Y-95187500D02*
X59575000Y-95312500D01*
G75*
G02*
X59512500Y-95375000I-62500J0D01*
G01*
X58762500Y-95375000D01*
G75*
G02*
X58700000Y-95312500I0J62500D01*
G01*
X58700000Y-95187500D01*
G75*
G02*
X58762500Y-95125000I62500J0D01*
G01*
X59512500Y-95125000D01*
G75*
G02*
X59575000Y-95187500I0J-62500D01*
G01*
G37*
G36*
G01*
X59575000Y-95687500D02*
X59575000Y-95812500D01*
G75*
G02*
X59512500Y-95875000I-62500J0D01*
G01*
X58762500Y-95875000D01*
G75*
G02*
X58700000Y-95812500I0J62500D01*
G01*
X58700000Y-95687500D01*
G75*
G02*
X58762500Y-95625000I62500J0D01*
G01*
X59512500Y-95625000D01*
G75*
G02*
X59575000Y-95687500I0J-62500D01*
G01*
G37*
G36*
G01*
X59575000Y-96187500D02*
X59575000Y-96312500D01*
G75*
G02*
X59512500Y-96375000I-62500J0D01*
G01*
X58762500Y-96375000D01*
G75*
G02*
X58700000Y-96312500I0J62500D01*
G01*
X58700000Y-96187500D01*
G75*
G02*
X58762500Y-96125000I62500J0D01*
G01*
X59512500Y-96125000D01*
G75*
G02*
X59575000Y-96187500I0J-62500D01*
G01*
G37*
G36*
G01*
X59575000Y-96687500D02*
X59575000Y-96812500D01*
G75*
G02*
X59512500Y-96875000I-62500J0D01*
G01*
X58762500Y-96875000D01*
G75*
G02*
X58700000Y-96812500I0J62500D01*
G01*
X58700000Y-96687500D01*
G75*
G02*
X58762500Y-96625000I62500J0D01*
G01*
X59512500Y-96625000D01*
G75*
G02*
X59575000Y-96687500I0J-62500D01*
G01*
G37*
G36*
G01*
X59575000Y-97187500D02*
X59575000Y-97312500D01*
G75*
G02*
X59512500Y-97375000I-62500J0D01*
G01*
X58762500Y-97375000D01*
G75*
G02*
X58700000Y-97312500I0J62500D01*
G01*
X58700000Y-97187500D01*
G75*
G02*
X58762500Y-97125000I62500J0D01*
G01*
X59512500Y-97125000D01*
G75*
G02*
X59575000Y-97187500I0J-62500D01*
G01*
G37*
G36*
G01*
X59575000Y-97687500D02*
X59575000Y-97812500D01*
G75*
G02*
X59512500Y-97875000I-62500J0D01*
G01*
X58762500Y-97875000D01*
G75*
G02*
X58700000Y-97812500I0J62500D01*
G01*
X58700000Y-97687500D01*
G75*
G02*
X58762500Y-97625000I62500J0D01*
G01*
X59512500Y-97625000D01*
G75*
G02*
X59575000Y-97687500I0J-62500D01*
G01*
G37*
G36*
G01*
X59575000Y-98187500D02*
X59575000Y-98312500D01*
G75*
G02*
X59512500Y-98375000I-62500J0D01*
G01*
X58762500Y-98375000D01*
G75*
G02*
X58700000Y-98312500I0J62500D01*
G01*
X58700000Y-98187500D01*
G75*
G02*
X58762500Y-98125000I62500J0D01*
G01*
X59512500Y-98125000D01*
G75*
G02*
X59575000Y-98187500I0J-62500D01*
G01*
G37*
G36*
G01*
X59575000Y-98687500D02*
X59575000Y-98812500D01*
G75*
G02*
X59512500Y-98875000I-62500J0D01*
G01*
X58762500Y-98875000D01*
G75*
G02*
X58700000Y-98812500I0J62500D01*
G01*
X58700000Y-98687500D01*
G75*
G02*
X58762500Y-98625000I62500J0D01*
G01*
X59512500Y-98625000D01*
G75*
G02*
X59575000Y-98687500I0J-62500D01*
G01*
G37*
G36*
G01*
X59575000Y-99187500D02*
X59575000Y-99312500D01*
G75*
G02*
X59512500Y-99375000I-62500J0D01*
G01*
X58762500Y-99375000D01*
G75*
G02*
X58700000Y-99312500I0J62500D01*
G01*
X58700000Y-99187500D01*
G75*
G02*
X58762500Y-99125000I62500J0D01*
G01*
X59512500Y-99125000D01*
G75*
G02*
X59575000Y-99187500I0J-62500D01*
G01*
G37*
G36*
G01*
X59575000Y-99687500D02*
X59575000Y-99812500D01*
G75*
G02*
X59512500Y-99875000I-62500J0D01*
G01*
X58762500Y-99875000D01*
G75*
G02*
X58700000Y-99812500I0J62500D01*
G01*
X58700000Y-99687500D01*
G75*
G02*
X58762500Y-99625000I62500J0D01*
G01*
X59512500Y-99625000D01*
G75*
G02*
X59575000Y-99687500I0J-62500D01*
G01*
G37*
G36*
G01*
X59575000Y-100187500D02*
X59575000Y-100312500D01*
G75*
G02*
X59512500Y-100375000I-62500J0D01*
G01*
X58762500Y-100375000D01*
G75*
G02*
X58700000Y-100312500I0J62500D01*
G01*
X58700000Y-100187500D01*
G75*
G02*
X58762500Y-100125000I62500J0D01*
G01*
X59512500Y-100125000D01*
G75*
G02*
X59575000Y-100187500I0J-62500D01*
G01*
G37*
G36*
G01*
X55775000Y-72825000D02*
X55225000Y-72825000D01*
G75*
G02*
X55025000Y-72625000I0J200000D01*
G01*
X55025000Y-72225000D01*
G75*
G02*
X55225000Y-72025000I200000J0D01*
G01*
X55775000Y-72025000D01*
G75*
G02*
X55975000Y-72225000I0J-200000D01*
G01*
X55975000Y-72625000D01*
G75*
G02*
X55775000Y-72825000I-200000J0D01*
G01*
G37*
G36*
G01*
X55775000Y-74475000D02*
X55225000Y-74475000D01*
G75*
G02*
X55025000Y-74275000I0J200000D01*
G01*
X55025000Y-73875000D01*
G75*
G02*
X55225000Y-73675000I200000J0D01*
G01*
X55775000Y-73675000D01*
G75*
G02*
X55975000Y-73875000I0J-200000D01*
G01*
X55975000Y-74275000D01*
G75*
G02*
X55775000Y-74475000I-200000J0D01*
G01*
G37*
G36*
G01*
X47006250Y-88400000D02*
X46493750Y-88400000D01*
G75*
G02*
X46275000Y-88181250I0J218750D01*
G01*
X46275000Y-87743750D01*
G75*
G02*
X46493750Y-87525000I218750J0D01*
G01*
X47006250Y-87525000D01*
G75*
G02*
X47225000Y-87743750I0J-218750D01*
G01*
X47225000Y-88181250D01*
G75*
G02*
X47006250Y-88400000I-218750J0D01*
G01*
G37*
G36*
G01*
X47006250Y-89975000D02*
X46493750Y-89975000D01*
G75*
G02*
X46275000Y-89756250I0J218750D01*
G01*
X46275000Y-89318750D01*
G75*
G02*
X46493750Y-89100000I218750J0D01*
G01*
X47006250Y-89100000D01*
G75*
G02*
X47225000Y-89318750I0J-218750D01*
G01*
X47225000Y-89756250D01*
G75*
G02*
X47006250Y-89975000I-218750J0D01*
G01*
G37*
G36*
G01*
X48756250Y-88400000D02*
X48243750Y-88400000D01*
G75*
G02*
X48025000Y-88181250I0J218750D01*
G01*
X48025000Y-87743750D01*
G75*
G02*
X48243750Y-87525000I218750J0D01*
G01*
X48756250Y-87525000D01*
G75*
G02*
X48975000Y-87743750I0J-218750D01*
G01*
X48975000Y-88181250D01*
G75*
G02*
X48756250Y-88400000I-218750J0D01*
G01*
G37*
G36*
G01*
X48756250Y-89975000D02*
X48243750Y-89975000D01*
G75*
G02*
X48025000Y-89756250I0J218750D01*
G01*
X48025000Y-89318750D01*
G75*
G02*
X48243750Y-89100000I218750J0D01*
G01*
X48756250Y-89100000D01*
G75*
G02*
X48975000Y-89318750I0J-218750D01*
G01*
X48975000Y-89756250D01*
G75*
G02*
X48756250Y-89975000I-218750J0D01*
G01*
G37*
G36*
G01*
X49425000Y-85275000D02*
X49425000Y-84725000D01*
G75*
G02*
X49625000Y-84525000I200000J0D01*
G01*
X50025000Y-84525000D01*
G75*
G02*
X50225000Y-84725000I0J-200000D01*
G01*
X50225000Y-85275000D01*
G75*
G02*
X50025000Y-85475000I-200000J0D01*
G01*
X49625000Y-85475000D01*
G75*
G02*
X49425000Y-85275000I0J200000D01*
G01*
G37*
G36*
G01*
X47775000Y-85275000D02*
X47775000Y-84725000D01*
G75*
G02*
X47975000Y-84525000I200000J0D01*
G01*
X48375000Y-84525000D01*
G75*
G02*
X48575000Y-84725000I0J-200000D01*
G01*
X48575000Y-85275000D01*
G75*
G02*
X48375000Y-85475000I-200000J0D01*
G01*
X47975000Y-85475000D01*
G75*
G02*
X47775000Y-85275000I0J200000D01*
G01*
G37*
G36*
G01*
X52006250Y-103550000D02*
X51493750Y-103550000D01*
G75*
G02*
X51275000Y-103331250I0J218750D01*
G01*
X51275000Y-102893750D01*
G75*
G02*
X51493750Y-102675000I218750J0D01*
G01*
X52006250Y-102675000D01*
G75*
G02*
X52225000Y-102893750I0J-218750D01*
G01*
X52225000Y-103331250D01*
G75*
G02*
X52006250Y-103550000I-218750J0D01*
G01*
G37*
G36*
G01*
X52006250Y-105125000D02*
X51493750Y-105125000D01*
G75*
G02*
X51275000Y-104906250I0J218750D01*
G01*
X51275000Y-104468750D01*
G75*
G02*
X51493750Y-104250000I218750J0D01*
G01*
X52006250Y-104250000D01*
G75*
G02*
X52225000Y-104468750I0J-218750D01*
G01*
X52225000Y-104906250D01*
G75*
G02*
X52006250Y-105125000I-218750J0D01*
G01*
G37*
D12*
X59065000Y-61861000D03*
X60985000Y-61861000D03*
D13*
X58725000Y-65011000D03*
X59375000Y-65011000D03*
X60025000Y-65011000D03*
X60675000Y-65011000D03*
X61325000Y-65011000D03*
D14*
X57125000Y-65131000D03*
X62875000Y-65111000D03*
D15*
X57025000Y-63811000D03*
X62975000Y-63811000D03*
D16*
X62755000Y-63061000D03*
X57275000Y-63061000D03*
G36*
G01*
X46900000Y-101243750D02*
X46900000Y-101756250D01*
G75*
G02*
X46681250Y-101975000I-218750J0D01*
G01*
X46243750Y-101975000D01*
G75*
G02*
X46025000Y-101756250I0J218750D01*
G01*
X46025000Y-101243750D01*
G75*
G02*
X46243750Y-101025000I218750J0D01*
G01*
X46681250Y-101025000D01*
G75*
G02*
X46900000Y-101243750I0J-218750D01*
G01*
G37*
G36*
G01*
X48475000Y-101243750D02*
X48475000Y-101756250D01*
G75*
G02*
X48256250Y-101975000I-218750J0D01*
G01*
X47818750Y-101975000D01*
G75*
G02*
X47600000Y-101756250I0J218750D01*
G01*
X47600000Y-101243750D01*
G75*
G02*
X47818750Y-101025000I218750J0D01*
G01*
X48256250Y-101025000D01*
G75*
G02*
X48475000Y-101243750I0J-218750D01*
G01*
G37*
G36*
G01*
X49150000Y-96993750D02*
X49150000Y-97506250D01*
G75*
G02*
X48931250Y-97725000I-218750J0D01*
G01*
X48493750Y-97725000D01*
G75*
G02*
X48275000Y-97506250I0J218750D01*
G01*
X48275000Y-96993750D01*
G75*
G02*
X48493750Y-96775000I218750J0D01*
G01*
X48931250Y-96775000D01*
G75*
G02*
X49150000Y-96993750I0J-218750D01*
G01*
G37*
G36*
G01*
X50725000Y-96993750D02*
X50725000Y-97506250D01*
G75*
G02*
X50506250Y-97725000I-218750J0D01*
G01*
X50068750Y-97725000D01*
G75*
G02*
X49850000Y-97506250I0J218750D01*
G01*
X49850000Y-96993750D01*
G75*
G02*
X50068750Y-96775000I218750J0D01*
G01*
X50506250Y-96775000D01*
G75*
G02*
X50725000Y-96993750I0J-218750D01*
G01*
G37*
G36*
G01*
X49850000Y-95756250D02*
X49850000Y-95243750D01*
G75*
G02*
X50068750Y-95025000I218750J0D01*
G01*
X50506250Y-95025000D01*
G75*
G02*
X50725000Y-95243750I0J-218750D01*
G01*
X50725000Y-95756250D01*
G75*
G02*
X50506250Y-95975000I-218750J0D01*
G01*
X50068750Y-95975000D01*
G75*
G02*
X49850000Y-95756250I0J218750D01*
G01*
G37*
G36*
G01*
X48275000Y-95756250D02*
X48275000Y-95243750D01*
G75*
G02*
X48493750Y-95025000I218750J0D01*
G01*
X48931250Y-95025000D01*
G75*
G02*
X49150000Y-95243750I0J-218750D01*
G01*
X49150000Y-95756250D01*
G75*
G02*
X48931250Y-95975000I-218750J0D01*
G01*
X48493750Y-95975000D01*
G75*
G02*
X48275000Y-95756250I0J218750D01*
G01*
G37*
G36*
G01*
X63493750Y-95100000D02*
X64006250Y-95100000D01*
G75*
G02*
X64225000Y-95318750I0J-218750D01*
G01*
X64225000Y-95756250D01*
G75*
G02*
X64006250Y-95975000I-218750J0D01*
G01*
X63493750Y-95975000D01*
G75*
G02*
X63275000Y-95756250I0J218750D01*
G01*
X63275000Y-95318750D01*
G75*
G02*
X63493750Y-95100000I218750J0D01*
G01*
G37*
G36*
G01*
X63493750Y-93525000D02*
X64006250Y-93525000D01*
G75*
G02*
X64225000Y-93743750I0J-218750D01*
G01*
X64225000Y-94181250D01*
G75*
G02*
X64006250Y-94400000I-218750J0D01*
G01*
X63493750Y-94400000D01*
G75*
G02*
X63275000Y-94181250I0J218750D01*
G01*
X63275000Y-93743750D01*
G75*
G02*
X63493750Y-93525000I218750J0D01*
G01*
G37*
G36*
G01*
X51993750Y-86600000D02*
X52506250Y-86600000D01*
G75*
G02*
X52725000Y-86818750I0J-218750D01*
G01*
X52725000Y-87256250D01*
G75*
G02*
X52506250Y-87475000I-218750J0D01*
G01*
X51993750Y-87475000D01*
G75*
G02*
X51775000Y-87256250I0J218750D01*
G01*
X51775000Y-86818750D01*
G75*
G02*
X51993750Y-86600000I218750J0D01*
G01*
G37*
G36*
G01*
X51993750Y-85025000D02*
X52506250Y-85025000D01*
G75*
G02*
X52725000Y-85243750I0J-218750D01*
G01*
X52725000Y-85681250D01*
G75*
G02*
X52506250Y-85900000I-218750J0D01*
G01*
X51993750Y-85900000D01*
G75*
G02*
X51775000Y-85681250I0J218750D01*
G01*
X51775000Y-85243750D01*
G75*
G02*
X51993750Y-85025000I218750J0D01*
G01*
G37*
G36*
G01*
X60493750Y-95100000D02*
X61006250Y-95100000D01*
G75*
G02*
X61225000Y-95318750I0J-218750D01*
G01*
X61225000Y-95756250D01*
G75*
G02*
X61006250Y-95975000I-218750J0D01*
G01*
X60493750Y-95975000D01*
G75*
G02*
X60275000Y-95756250I0J218750D01*
G01*
X60275000Y-95318750D01*
G75*
G02*
X60493750Y-95100000I218750J0D01*
G01*
G37*
G36*
G01*
X60493750Y-93525000D02*
X61006250Y-93525000D01*
G75*
G02*
X61225000Y-93743750I0J-218750D01*
G01*
X61225000Y-94181250D01*
G75*
G02*
X61006250Y-94400000I-218750J0D01*
G01*
X60493750Y-94400000D01*
G75*
G02*
X60275000Y-94181250I0J218750D01*
G01*
X60275000Y-93743750D01*
G75*
G02*
X60493750Y-93525000I218750J0D01*
G01*
G37*
G36*
G01*
X30350000Y-78506250D02*
X30350000Y-77993750D01*
G75*
G02*
X30568750Y-77775000I218750J0D01*
G01*
X31006250Y-77775000D01*
G75*
G02*
X31225000Y-77993750I0J-218750D01*
G01*
X31225000Y-78506250D01*
G75*
G02*
X31006250Y-78725000I-218750J0D01*
G01*
X30568750Y-78725000D01*
G75*
G02*
X30350000Y-78506250I0J218750D01*
G01*
G37*
G36*
G01*
X28775000Y-78506250D02*
X28775000Y-77993750D01*
G75*
G02*
X28993750Y-77775000I218750J0D01*
G01*
X29431250Y-77775000D01*
G75*
G02*
X29650000Y-77993750I0J-218750D01*
G01*
X29650000Y-78506250D01*
G75*
G02*
X29431250Y-78725000I-218750J0D01*
G01*
X28993750Y-78725000D01*
G75*
G02*
X28775000Y-78506250I0J218750D01*
G01*
G37*
G36*
G01*
X29650000Y-89993750D02*
X29650000Y-90506250D01*
G75*
G02*
X29431250Y-90725000I-218750J0D01*
G01*
X28993750Y-90725000D01*
G75*
G02*
X28775000Y-90506250I0J218750D01*
G01*
X28775000Y-89993750D01*
G75*
G02*
X28993750Y-89775000I218750J0D01*
G01*
X29431250Y-89775000D01*
G75*
G02*
X29650000Y-89993750I0J-218750D01*
G01*
G37*
G36*
G01*
X31225000Y-89993750D02*
X31225000Y-90506250D01*
G75*
G02*
X31006250Y-90725000I-218750J0D01*
G01*
X30568750Y-90725000D01*
G75*
G02*
X30350000Y-90506250I0J218750D01*
G01*
X30350000Y-89993750D01*
G75*
G02*
X30568750Y-89775000I218750J0D01*
G01*
X31006250Y-89775000D01*
G75*
G02*
X31225000Y-89993750I0J-218750D01*
G01*
G37*
G36*
G01*
X34550000Y-96856250D02*
X34550000Y-96343750D01*
G75*
G02*
X34768750Y-96125000I218750J0D01*
G01*
X35206250Y-96125000D01*
G75*
G02*
X35425000Y-96343750I0J-218750D01*
G01*
X35425000Y-96856250D01*
G75*
G02*
X35206250Y-97075000I-218750J0D01*
G01*
X34768750Y-97075000D01*
G75*
G02*
X34550000Y-96856250I0J218750D01*
G01*
G37*
G36*
G01*
X32975000Y-96856250D02*
X32975000Y-96343750D01*
G75*
G02*
X33193750Y-96125000I218750J0D01*
G01*
X33631250Y-96125000D01*
G75*
G02*
X33850000Y-96343750I0J-218750D01*
G01*
X33850000Y-96856250D01*
G75*
G02*
X33631250Y-97075000I-218750J0D01*
G01*
X33193750Y-97075000D01*
G75*
G02*
X32975000Y-96856250I0J218750D01*
G01*
G37*
G36*
G01*
X34550000Y-94856250D02*
X34550000Y-94343750D01*
G75*
G02*
X34768750Y-94125000I218750J0D01*
G01*
X35206250Y-94125000D01*
G75*
G02*
X35425000Y-94343750I0J-218750D01*
G01*
X35425000Y-94856250D01*
G75*
G02*
X35206250Y-95075000I-218750J0D01*
G01*
X34768750Y-95075000D01*
G75*
G02*
X34550000Y-94856250I0J218750D01*
G01*
G37*
G36*
G01*
X32975000Y-94856250D02*
X32975000Y-94343750D01*
G75*
G02*
X33193750Y-94125000I218750J0D01*
G01*
X33631250Y-94125000D01*
G75*
G02*
X33850000Y-94343750I0J-218750D01*
G01*
X33850000Y-94856250D01*
G75*
G02*
X33631250Y-95075000I-218750J0D01*
G01*
X33193750Y-95075000D01*
G75*
G02*
X32975000Y-94856250I0J218750D01*
G01*
G37*
G36*
G01*
X33850000Y-90343750D02*
X33850000Y-90856250D01*
G75*
G02*
X33631250Y-91075000I-218750J0D01*
G01*
X33193750Y-91075000D01*
G75*
G02*
X32975000Y-90856250I0J218750D01*
G01*
X32975000Y-90343750D01*
G75*
G02*
X33193750Y-90125000I218750J0D01*
G01*
X33631250Y-90125000D01*
G75*
G02*
X33850000Y-90343750I0J-218750D01*
G01*
G37*
G36*
G01*
X35425000Y-90343750D02*
X35425000Y-90856250D01*
G75*
G02*
X35206250Y-91075000I-218750J0D01*
G01*
X34768750Y-91075000D01*
G75*
G02*
X34550000Y-90856250I0J218750D01*
G01*
X34550000Y-90343750D01*
G75*
G02*
X34768750Y-90125000I218750J0D01*
G01*
X35206250Y-90125000D01*
G75*
G02*
X35425000Y-90343750I0J-218750D01*
G01*
G37*
G36*
G01*
X34550000Y-92856250D02*
X34550000Y-92343750D01*
G75*
G02*
X34768750Y-92125000I218750J0D01*
G01*
X35206250Y-92125000D01*
G75*
G02*
X35425000Y-92343750I0J-218750D01*
G01*
X35425000Y-92856250D01*
G75*
G02*
X35206250Y-93075000I-218750J0D01*
G01*
X34768750Y-93075000D01*
G75*
G02*
X34550000Y-92856250I0J218750D01*
G01*
G37*
G36*
G01*
X32975000Y-92856250D02*
X32975000Y-92343750D01*
G75*
G02*
X33193750Y-92125000I218750J0D01*
G01*
X33631250Y-92125000D01*
G75*
G02*
X33850000Y-92343750I0J-218750D01*
G01*
X33850000Y-92856250D01*
G75*
G02*
X33631250Y-93075000I-218750J0D01*
G01*
X33193750Y-93075000D01*
G75*
G02*
X32975000Y-92856250I0J218750D01*
G01*
G37*
G36*
G01*
X53506250Y-91150000D02*
X52993750Y-91150000D01*
G75*
G02*
X52775000Y-90931250I0J218750D01*
G01*
X52775000Y-90493750D01*
G75*
G02*
X52993750Y-90275000I218750J0D01*
G01*
X53506250Y-90275000D01*
G75*
G02*
X53725000Y-90493750I0J-218750D01*
G01*
X53725000Y-90931250D01*
G75*
G02*
X53506250Y-91150000I-218750J0D01*
G01*
G37*
G36*
G01*
X53506250Y-92725000D02*
X52993750Y-92725000D01*
G75*
G02*
X52775000Y-92506250I0J218750D01*
G01*
X52775000Y-92068750D01*
G75*
G02*
X52993750Y-91850000I218750J0D01*
G01*
X53506250Y-91850000D01*
G75*
G02*
X53725000Y-92068750I0J-218750D01*
G01*
X53725000Y-92506250D01*
G75*
G02*
X53506250Y-92725000I-218750J0D01*
G01*
G37*
G36*
G01*
X47650000Y-99493750D02*
X47650000Y-100006250D01*
G75*
G02*
X47431250Y-100225000I-218750J0D01*
G01*
X46993750Y-100225000D01*
G75*
G02*
X46775000Y-100006250I0J218750D01*
G01*
X46775000Y-99493750D01*
G75*
G02*
X46993750Y-99275000I218750J0D01*
G01*
X47431250Y-99275000D01*
G75*
G02*
X47650000Y-99493750I0J-218750D01*
G01*
G37*
G36*
G01*
X49225000Y-99493750D02*
X49225000Y-100006250D01*
G75*
G02*
X49006250Y-100225000I-218750J0D01*
G01*
X48568750Y-100225000D01*
G75*
G02*
X48350000Y-100006250I0J218750D01*
G01*
X48350000Y-99493750D01*
G75*
G02*
X48568750Y-99275000I218750J0D01*
G01*
X49006250Y-99275000D01*
G75*
G02*
X49225000Y-99493750I0J-218750D01*
G01*
G37*
G36*
G01*
X51756250Y-91150000D02*
X51243750Y-91150000D01*
G75*
G02*
X51025000Y-90931250I0J218750D01*
G01*
X51025000Y-90493750D01*
G75*
G02*
X51243750Y-90275000I218750J0D01*
G01*
X51756250Y-90275000D01*
G75*
G02*
X51975000Y-90493750I0J-218750D01*
G01*
X51975000Y-90931250D01*
G75*
G02*
X51756250Y-91150000I-218750J0D01*
G01*
G37*
G36*
G01*
X51756250Y-92725000D02*
X51243750Y-92725000D01*
G75*
G02*
X51025000Y-92506250I0J218750D01*
G01*
X51025000Y-92068750D01*
G75*
G02*
X51243750Y-91850000I218750J0D01*
G01*
X51756250Y-91850000D01*
G75*
G02*
X51975000Y-92068750I0J-218750D01*
G01*
X51975000Y-92506250D01*
G75*
G02*
X51756250Y-92725000I-218750J0D01*
G01*
G37*
G36*
G01*
X61850000Y-102756250D02*
X61850000Y-102243750D01*
G75*
G02*
X62068750Y-102025000I218750J0D01*
G01*
X62506250Y-102025000D01*
G75*
G02*
X62725000Y-102243750I0J-218750D01*
G01*
X62725000Y-102756250D01*
G75*
G02*
X62506250Y-102975000I-218750J0D01*
G01*
X62068750Y-102975000D01*
G75*
G02*
X61850000Y-102756250I0J218750D01*
G01*
G37*
G36*
G01*
X60275000Y-102756250D02*
X60275000Y-102243750D01*
G75*
G02*
X60493750Y-102025000I218750J0D01*
G01*
X60931250Y-102025000D01*
G75*
G02*
X61150000Y-102243750I0J-218750D01*
G01*
X61150000Y-102756250D01*
G75*
G02*
X60931250Y-102975000I-218750J0D01*
G01*
X60493750Y-102975000D01*
G75*
G02*
X60275000Y-102756250I0J218750D01*
G01*
G37*
G36*
G01*
X62100000Y-99256250D02*
X62100000Y-98743750D01*
G75*
G02*
X62318750Y-98525000I218750J0D01*
G01*
X62756250Y-98525000D01*
G75*
G02*
X62975000Y-98743750I0J-218750D01*
G01*
X62975000Y-99256250D01*
G75*
G02*
X62756250Y-99475000I-218750J0D01*
G01*
X62318750Y-99475000D01*
G75*
G02*
X62100000Y-99256250I0J218750D01*
G01*
G37*
G36*
G01*
X60525000Y-99256250D02*
X60525000Y-98743750D01*
G75*
G02*
X60743750Y-98525000I218750J0D01*
G01*
X61181250Y-98525000D01*
G75*
G02*
X61400000Y-98743750I0J-218750D01*
G01*
X61400000Y-99256250D01*
G75*
G02*
X61181250Y-99475000I-218750J0D01*
G01*
X60743750Y-99475000D01*
G75*
G02*
X60525000Y-99256250I0J218750D01*
G01*
G37*
G36*
G01*
X63100000Y-101006250D02*
X63100000Y-100493750D01*
G75*
G02*
X63318750Y-100275000I218750J0D01*
G01*
X63756250Y-100275000D01*
G75*
G02*
X63975000Y-100493750I0J-218750D01*
G01*
X63975000Y-101006250D01*
G75*
G02*
X63756250Y-101225000I-218750J0D01*
G01*
X63318750Y-101225000D01*
G75*
G02*
X63100000Y-101006250I0J218750D01*
G01*
G37*
G36*
G01*
X61525000Y-101006250D02*
X61525000Y-100493750D01*
G75*
G02*
X61743750Y-100275000I218750J0D01*
G01*
X62181250Y-100275000D01*
G75*
G02*
X62400000Y-100493750I0J-218750D01*
G01*
X62400000Y-101006250D01*
G75*
G02*
X62181250Y-101225000I-218750J0D01*
G01*
X61743750Y-101225000D01*
G75*
G02*
X61525000Y-101006250I0J218750D01*
G01*
G37*
G36*
G01*
X49400000Y-78493750D02*
X49400000Y-79006250D01*
G75*
G02*
X49181250Y-79225000I-218750J0D01*
G01*
X48743750Y-79225000D01*
G75*
G02*
X48525000Y-79006250I0J218750D01*
G01*
X48525000Y-78493750D01*
G75*
G02*
X48743750Y-78275000I218750J0D01*
G01*
X49181250Y-78275000D01*
G75*
G02*
X49400000Y-78493750I0J-218750D01*
G01*
G37*
G36*
G01*
X50975000Y-78493750D02*
X50975000Y-79006250D01*
G75*
G02*
X50756250Y-79225000I-218750J0D01*
G01*
X50318750Y-79225000D01*
G75*
G02*
X50100000Y-79006250I0J218750D01*
G01*
X50100000Y-78493750D01*
G75*
G02*
X50318750Y-78275000I218750J0D01*
G01*
X50756250Y-78275000D01*
G75*
G02*
X50975000Y-78493750I0J-218750D01*
G01*
G37*
G36*
G01*
X47900000Y-91743750D02*
X47900000Y-92256250D01*
G75*
G02*
X47681250Y-92475000I-218750J0D01*
G01*
X47243750Y-92475000D01*
G75*
G02*
X47025000Y-92256250I0J218750D01*
G01*
X47025000Y-91743750D01*
G75*
G02*
X47243750Y-91525000I218750J0D01*
G01*
X47681250Y-91525000D01*
G75*
G02*
X47900000Y-91743750I0J-218750D01*
G01*
G37*
G36*
G01*
X49475000Y-91743750D02*
X49475000Y-92256250D01*
G75*
G02*
X49256250Y-92475000I-218750J0D01*
G01*
X48818750Y-92475000D01*
G75*
G02*
X48600000Y-92256250I0J218750D01*
G01*
X48600000Y-91743750D01*
G75*
G02*
X48818750Y-91525000I218750J0D01*
G01*
X49256250Y-91525000D01*
G75*
G02*
X49475000Y-91743750I0J-218750D01*
G01*
G37*
G36*
G01*
X47900000Y-93493750D02*
X47900000Y-94006250D01*
G75*
G02*
X47681250Y-94225000I-218750J0D01*
G01*
X47243750Y-94225000D01*
G75*
G02*
X47025000Y-94006250I0J218750D01*
G01*
X47025000Y-93493750D01*
G75*
G02*
X47243750Y-93275000I218750J0D01*
G01*
X47681250Y-93275000D01*
G75*
G02*
X47900000Y-93493750I0J-218750D01*
G01*
G37*
G36*
G01*
X49475000Y-93493750D02*
X49475000Y-94006250D01*
G75*
G02*
X49256250Y-94225000I-218750J0D01*
G01*
X48818750Y-94225000D01*
G75*
G02*
X48600000Y-94006250I0J218750D01*
G01*
X48600000Y-93493750D01*
G75*
G02*
X48818750Y-93275000I218750J0D01*
G01*
X49256250Y-93275000D01*
G75*
G02*
X49475000Y-93493750I0J-218750D01*
G01*
G37*
G36*
G01*
X51650000Y-73743750D02*
X51650000Y-74256250D01*
G75*
G02*
X51431250Y-74475000I-218750J0D01*
G01*
X50993750Y-74475000D01*
G75*
G02*
X50775000Y-74256250I0J218750D01*
G01*
X50775000Y-73743750D01*
G75*
G02*
X50993750Y-73525000I218750J0D01*
G01*
X51431250Y-73525000D01*
G75*
G02*
X51650000Y-73743750I0J-218750D01*
G01*
G37*
G36*
G01*
X53225000Y-73743750D02*
X53225000Y-74256250D01*
G75*
G02*
X53006250Y-74475000I-218750J0D01*
G01*
X52568750Y-74475000D01*
G75*
G02*
X52350000Y-74256250I0J218750D01*
G01*
X52350000Y-73743750D01*
G75*
G02*
X52568750Y-73525000I218750J0D01*
G01*
X53006250Y-73525000D01*
G75*
G02*
X53225000Y-73743750I0J-218750D01*
G01*
G37*
G36*
G01*
X61256250Y-74400000D02*
X60743750Y-74400000D01*
G75*
G02*
X60525000Y-74181250I0J218750D01*
G01*
X60525000Y-73743750D01*
G75*
G02*
X60743750Y-73525000I218750J0D01*
G01*
X61256250Y-73525000D01*
G75*
G02*
X61475000Y-73743750I0J-218750D01*
G01*
X61475000Y-74181250D01*
G75*
G02*
X61256250Y-74400000I-218750J0D01*
G01*
G37*
G36*
G01*
X61256250Y-75975000D02*
X60743750Y-75975000D01*
G75*
G02*
X60525000Y-75756250I0J218750D01*
G01*
X60525000Y-75318750D01*
G75*
G02*
X60743750Y-75100000I218750J0D01*
G01*
X61256250Y-75100000D01*
G75*
G02*
X61475000Y-75318750I0J-218750D01*
G01*
X61475000Y-75756250D01*
G75*
G02*
X61256250Y-75975000I-218750J0D01*
G01*
G37*
G36*
G01*
X60850000Y-84756250D02*
X60850000Y-84243750D01*
G75*
G02*
X61068750Y-84025000I218750J0D01*
G01*
X61506250Y-84025000D01*
G75*
G02*
X61725000Y-84243750I0J-218750D01*
G01*
X61725000Y-84756250D01*
G75*
G02*
X61506250Y-84975000I-218750J0D01*
G01*
X61068750Y-84975000D01*
G75*
G02*
X60850000Y-84756250I0J218750D01*
G01*
G37*
G36*
G01*
X59275000Y-84756250D02*
X59275000Y-84243750D01*
G75*
G02*
X59493750Y-84025000I218750J0D01*
G01*
X59931250Y-84025000D01*
G75*
G02*
X60150000Y-84243750I0J-218750D01*
G01*
X60150000Y-84756250D01*
G75*
G02*
X59931250Y-84975000I-218750J0D01*
G01*
X59493750Y-84975000D01*
G75*
G02*
X59275000Y-84756250I0J218750D01*
G01*
G37*
G36*
G01*
X50243750Y-82350000D02*
X50756250Y-82350000D01*
G75*
G02*
X50975000Y-82568750I0J-218750D01*
G01*
X50975000Y-83006250D01*
G75*
G02*
X50756250Y-83225000I-218750J0D01*
G01*
X50243750Y-83225000D01*
G75*
G02*
X50025000Y-83006250I0J218750D01*
G01*
X50025000Y-82568750D01*
G75*
G02*
X50243750Y-82350000I218750J0D01*
G01*
G37*
G36*
G01*
X50243750Y-80775000D02*
X50756250Y-80775000D01*
G75*
G02*
X50975000Y-80993750I0J-218750D01*
G01*
X50975000Y-81431250D01*
G75*
G02*
X50756250Y-81650000I-218750J0D01*
G01*
X50243750Y-81650000D01*
G75*
G02*
X50025000Y-81431250I0J218750D01*
G01*
X50025000Y-80993750D01*
G75*
G02*
X50243750Y-80775000I218750J0D01*
G01*
G37*
G36*
G01*
X51650000Y-71993750D02*
X51650000Y-72506250D01*
G75*
G02*
X51431250Y-72725000I-218750J0D01*
G01*
X50993750Y-72725000D01*
G75*
G02*
X50775000Y-72506250I0J218750D01*
G01*
X50775000Y-71993750D01*
G75*
G02*
X50993750Y-71775000I218750J0D01*
G01*
X51431250Y-71775000D01*
G75*
G02*
X51650000Y-71993750I0J-218750D01*
G01*
G37*
G36*
G01*
X53225000Y-71993750D02*
X53225000Y-72506250D01*
G75*
G02*
X53006250Y-72725000I-218750J0D01*
G01*
X52568750Y-72725000D01*
G75*
G02*
X52350000Y-72506250I0J218750D01*
G01*
X52350000Y-71993750D01*
G75*
G02*
X52568750Y-71775000I218750J0D01*
G01*
X53006250Y-71775000D01*
G75*
G02*
X53225000Y-71993750I0J-218750D01*
G01*
G37*
G36*
G01*
X43646400Y-69391050D02*
X43646400Y-68878550D01*
G75*
G02*
X43865150Y-68659800I218750J0D01*
G01*
X44302650Y-68659800D01*
G75*
G02*
X44521400Y-68878550I0J-218750D01*
G01*
X44521400Y-69391050D01*
G75*
G02*
X44302650Y-69609800I-218750J0D01*
G01*
X43865150Y-69609800D01*
G75*
G02*
X43646400Y-69391050I0J218750D01*
G01*
G37*
G36*
G01*
X42071400Y-69391050D02*
X42071400Y-68878550D01*
G75*
G02*
X42290150Y-68659800I218750J0D01*
G01*
X42727650Y-68659800D01*
G75*
G02*
X42946400Y-68878550I0J-218750D01*
G01*
X42946400Y-69391050D01*
G75*
G02*
X42727650Y-69609800I-218750J0D01*
G01*
X42290150Y-69609800D01*
G75*
G02*
X42071400Y-69391050I0J218750D01*
G01*
G37*
G36*
G01*
X42946400Y-63493750D02*
X42946400Y-64006250D01*
G75*
G02*
X42727650Y-64225000I-218750J0D01*
G01*
X42290150Y-64225000D01*
G75*
G02*
X42071400Y-64006250I0J218750D01*
G01*
X42071400Y-63493750D01*
G75*
G02*
X42290150Y-63275000I218750J0D01*
G01*
X42727650Y-63275000D01*
G75*
G02*
X42946400Y-63493750I0J-218750D01*
G01*
G37*
G36*
G01*
X44521400Y-63493750D02*
X44521400Y-64006250D01*
G75*
G02*
X44302650Y-64225000I-218750J0D01*
G01*
X43865150Y-64225000D01*
G75*
G02*
X43646400Y-64006250I0J218750D01*
G01*
X43646400Y-63493750D01*
G75*
G02*
X43865150Y-63275000I218750J0D01*
G01*
X44302650Y-63275000D01*
G75*
G02*
X44521400Y-63493750I0J-218750D01*
G01*
G37*
G36*
G01*
X48850000Y-69756250D02*
X48850000Y-69243750D01*
G75*
G02*
X49068750Y-69025000I218750J0D01*
G01*
X49506250Y-69025000D01*
G75*
G02*
X49725000Y-69243750I0J-218750D01*
G01*
X49725000Y-69756250D01*
G75*
G02*
X49506250Y-69975000I-218750J0D01*
G01*
X49068750Y-69975000D01*
G75*
G02*
X48850000Y-69756250I0J218750D01*
G01*
G37*
G36*
G01*
X47275000Y-69756250D02*
X47275000Y-69243750D01*
G75*
G02*
X47493750Y-69025000I218750J0D01*
G01*
X47931250Y-69025000D01*
G75*
G02*
X48150000Y-69243750I0J-218750D01*
G01*
X48150000Y-69756250D01*
G75*
G02*
X47931250Y-69975000I-218750J0D01*
G01*
X47493750Y-69975000D01*
G75*
G02*
X47275000Y-69756250I0J218750D01*
G01*
G37*
G36*
G01*
X48150000Y-63167550D02*
X48150000Y-63680050D01*
G75*
G02*
X47931250Y-63898800I-218750J0D01*
G01*
X47493750Y-63898800D01*
G75*
G02*
X47275000Y-63680050I0J218750D01*
G01*
X47275000Y-63167550D01*
G75*
G02*
X47493750Y-62948800I218750J0D01*
G01*
X47931250Y-62948800D01*
G75*
G02*
X48150000Y-63167550I0J-218750D01*
G01*
G37*
G36*
G01*
X49725000Y-63167550D02*
X49725000Y-63680050D01*
G75*
G02*
X49506250Y-63898800I-218750J0D01*
G01*
X49068750Y-63898800D01*
G75*
G02*
X48850000Y-63680050I0J218750D01*
G01*
X48850000Y-63167550D01*
G75*
G02*
X49068750Y-62948800I218750J0D01*
G01*
X49506250Y-62948800D01*
G75*
G02*
X49725000Y-63167550I0J-218750D01*
G01*
G37*
G36*
G01*
X48756250Y-75150000D02*
X48243750Y-75150000D01*
G75*
G02*
X48025000Y-74931250I0J218750D01*
G01*
X48025000Y-74493750D01*
G75*
G02*
X48243750Y-74275000I218750J0D01*
G01*
X48756250Y-74275000D01*
G75*
G02*
X48975000Y-74493750I0J-218750D01*
G01*
X48975000Y-74931250D01*
G75*
G02*
X48756250Y-75150000I-218750J0D01*
G01*
G37*
G36*
G01*
X48756250Y-76725000D02*
X48243750Y-76725000D01*
G75*
G02*
X48025000Y-76506250I0J218750D01*
G01*
X48025000Y-76068750D01*
G75*
G02*
X48243750Y-75850000I218750J0D01*
G01*
X48756250Y-75850000D01*
G75*
G02*
X48975000Y-76068750I0J-218750D01*
G01*
X48975000Y-76506250D01*
G75*
G02*
X48756250Y-76725000I-218750J0D01*
G01*
G37*
G36*
G01*
X47006250Y-75150000D02*
X46493750Y-75150000D01*
G75*
G02*
X46275000Y-74931250I0J218750D01*
G01*
X46275000Y-74493750D01*
G75*
G02*
X46493750Y-74275000I218750J0D01*
G01*
X47006250Y-74275000D01*
G75*
G02*
X47225000Y-74493750I0J-218750D01*
G01*
X47225000Y-74931250D01*
G75*
G02*
X47006250Y-75150000I-218750J0D01*
G01*
G37*
G36*
G01*
X47006250Y-76725000D02*
X46493750Y-76725000D01*
G75*
G02*
X46275000Y-76506250I0J218750D01*
G01*
X46275000Y-76068750D01*
G75*
G02*
X46493750Y-75850000I218750J0D01*
G01*
X47006250Y-75850000D01*
G75*
G02*
X47225000Y-76068750I0J-218750D01*
G01*
X47225000Y-76506250D01*
G75*
G02*
X47006250Y-76725000I-218750J0D01*
G01*
G37*
G36*
G01*
X57235000Y-81615000D02*
X57235000Y-80985000D01*
G75*
G02*
X57485000Y-80735000I250000J0D01*
G01*
X58115000Y-80735000D01*
G75*
G02*
X58365000Y-80985000I0J-250000D01*
G01*
X58365000Y-81615000D01*
G75*
G02*
X58115000Y-81865000I-250000J0D01*
G01*
X57485000Y-81865000D01*
G75*
G02*
X57235000Y-81615000I0J250000D01*
G01*
G37*
G36*
G01*
X57235000Y-80215000D02*
X57235000Y-79585000D01*
G75*
G02*
X57485000Y-79335000I250000J0D01*
G01*
X58115000Y-79335000D01*
G75*
G02*
X58365000Y-79585000I0J-250000D01*
G01*
X58365000Y-80215000D01*
G75*
G02*
X58115000Y-80465000I-250000J0D01*
G01*
X57485000Y-80465000D01*
G75*
G02*
X57235000Y-80215000I0J250000D01*
G01*
G37*
G36*
G01*
X57235000Y-78815000D02*
X57235000Y-78185000D01*
G75*
G02*
X57485000Y-77935000I250000J0D01*
G01*
X58115000Y-77935000D01*
G75*
G02*
X58365000Y-78185000I0J-250000D01*
G01*
X58365000Y-78815000D01*
G75*
G02*
X58115000Y-79065000I-250000J0D01*
G01*
X57485000Y-79065000D01*
G75*
G02*
X57235000Y-78815000I0J250000D01*
G01*
G37*
G36*
G01*
X57235000Y-77415000D02*
X57235000Y-76785000D01*
G75*
G02*
X57485000Y-76535000I250000J0D01*
G01*
X58115000Y-76535000D01*
G75*
G02*
X58365000Y-76785000I0J-250000D01*
G01*
X58365000Y-77415000D01*
G75*
G02*
X58115000Y-77665000I-250000J0D01*
G01*
X57485000Y-77665000D01*
G75*
G02*
X57235000Y-77415000I0J250000D01*
G01*
G37*
G36*
G01*
X55835000Y-81615000D02*
X55835000Y-80985000D01*
G75*
G02*
X56085000Y-80735000I250000J0D01*
G01*
X56715000Y-80735000D01*
G75*
G02*
X56965000Y-80985000I0J-250000D01*
G01*
X56965000Y-81615000D01*
G75*
G02*
X56715000Y-81865000I-250000J0D01*
G01*
X56085000Y-81865000D01*
G75*
G02*
X55835000Y-81615000I0J250000D01*
G01*
G37*
G36*
G01*
X55835000Y-80215000D02*
X55835000Y-79585000D01*
G75*
G02*
X56085000Y-79335000I250000J0D01*
G01*
X56715000Y-79335000D01*
G75*
G02*
X56965000Y-79585000I0J-250000D01*
G01*
X56965000Y-80215000D01*
G75*
G02*
X56715000Y-80465000I-250000J0D01*
G01*
X56085000Y-80465000D01*
G75*
G02*
X55835000Y-80215000I0J250000D01*
G01*
G37*
G36*
G01*
X55835000Y-78815000D02*
X55835000Y-78185000D01*
G75*
G02*
X56085000Y-77935000I250000J0D01*
G01*
X56715000Y-77935000D01*
G75*
G02*
X56965000Y-78185000I0J-250000D01*
G01*
X56965000Y-78815000D01*
G75*
G02*
X56715000Y-79065000I-250000J0D01*
G01*
X56085000Y-79065000D01*
G75*
G02*
X55835000Y-78815000I0J250000D01*
G01*
G37*
G36*
G01*
X55835000Y-77415000D02*
X55835000Y-76785000D01*
G75*
G02*
X56085000Y-76535000I250000J0D01*
G01*
X56715000Y-76535000D01*
G75*
G02*
X56965000Y-76785000I0J-250000D01*
G01*
X56965000Y-77415000D01*
G75*
G02*
X56715000Y-77665000I-250000J0D01*
G01*
X56085000Y-77665000D01*
G75*
G02*
X55835000Y-77415000I0J250000D01*
G01*
G37*
G36*
G01*
X54435000Y-81615000D02*
X54435000Y-80985000D01*
G75*
G02*
X54685000Y-80735000I250000J0D01*
G01*
X55315000Y-80735000D01*
G75*
G02*
X55565000Y-80985000I0J-250000D01*
G01*
X55565000Y-81615000D01*
G75*
G02*
X55315000Y-81865000I-250000J0D01*
G01*
X54685000Y-81865000D01*
G75*
G02*
X54435000Y-81615000I0J250000D01*
G01*
G37*
G36*
G01*
X54435000Y-80215000D02*
X54435000Y-79585000D01*
G75*
G02*
X54685000Y-79335000I250000J0D01*
G01*
X55315000Y-79335000D01*
G75*
G02*
X55565000Y-79585000I0J-250000D01*
G01*
X55565000Y-80215000D01*
G75*
G02*
X55315000Y-80465000I-250000J0D01*
G01*
X54685000Y-80465000D01*
G75*
G02*
X54435000Y-80215000I0J250000D01*
G01*
G37*
G36*
G01*
X54435000Y-78815000D02*
X54435000Y-78185000D01*
G75*
G02*
X54685000Y-77935000I250000J0D01*
G01*
X55315000Y-77935000D01*
G75*
G02*
X55565000Y-78185000I0J-250000D01*
G01*
X55565000Y-78815000D01*
G75*
G02*
X55315000Y-79065000I-250000J0D01*
G01*
X54685000Y-79065000D01*
G75*
G02*
X54435000Y-78815000I0J250000D01*
G01*
G37*
G36*
G01*
X54435000Y-77415000D02*
X54435000Y-76785000D01*
G75*
G02*
X54685000Y-76535000I250000J0D01*
G01*
X55315000Y-76535000D01*
G75*
G02*
X55565000Y-76785000I0J-250000D01*
G01*
X55565000Y-77415000D01*
G75*
G02*
X55315000Y-77665000I-250000J0D01*
G01*
X54685000Y-77665000D01*
G75*
G02*
X54435000Y-77415000I0J250000D01*
G01*
G37*
G36*
G01*
X53035000Y-81615000D02*
X53035000Y-80985000D01*
G75*
G02*
X53285000Y-80735000I250000J0D01*
G01*
X53915000Y-80735000D01*
G75*
G02*
X54165000Y-80985000I0J-250000D01*
G01*
X54165000Y-81615000D01*
G75*
G02*
X53915000Y-81865000I-250000J0D01*
G01*
X53285000Y-81865000D01*
G75*
G02*
X53035000Y-81615000I0J250000D01*
G01*
G37*
G36*
G01*
X53035000Y-80215000D02*
X53035000Y-79585000D01*
G75*
G02*
X53285000Y-79335000I250000J0D01*
G01*
X53915000Y-79335000D01*
G75*
G02*
X54165000Y-79585000I0J-250000D01*
G01*
X54165000Y-80215000D01*
G75*
G02*
X53915000Y-80465000I-250000J0D01*
G01*
X53285000Y-80465000D01*
G75*
G02*
X53035000Y-80215000I0J250000D01*
G01*
G37*
G36*
G01*
X53035000Y-78815000D02*
X53035000Y-78185000D01*
G75*
G02*
X53285000Y-77935000I250000J0D01*
G01*
X53915000Y-77935000D01*
G75*
G02*
X54165000Y-78185000I0J-250000D01*
G01*
X54165000Y-78815000D01*
G75*
G02*
X53915000Y-79065000I-250000J0D01*
G01*
X53285000Y-79065000D01*
G75*
G02*
X53035000Y-78815000I0J250000D01*
G01*
G37*
G36*
G01*
X53035000Y-77415000D02*
X53035000Y-76785000D01*
G75*
G02*
X53285000Y-76535000I250000J0D01*
G01*
X53915000Y-76535000D01*
G75*
G02*
X54165000Y-76785000I0J-250000D01*
G01*
X54165000Y-77415000D01*
G75*
G02*
X53915000Y-77665000I-250000J0D01*
G01*
X53285000Y-77665000D01*
G75*
G02*
X53035000Y-77415000I0J250000D01*
G01*
G37*
G36*
G01*
X52825000Y-76137500D02*
X52825000Y-75387500D01*
G75*
G02*
X52887500Y-75325000I62500J0D01*
G01*
X53012500Y-75325000D01*
G75*
G02*
X53075000Y-75387500I0J-62500D01*
G01*
X53075000Y-76137500D01*
G75*
G02*
X53012500Y-76200000I-62500J0D01*
G01*
X52887500Y-76200000D01*
G75*
G02*
X52825000Y-76137500I0J62500D01*
G01*
G37*
G36*
G01*
X53325000Y-76137500D02*
X53325000Y-75387500D01*
G75*
G02*
X53387500Y-75325000I62500J0D01*
G01*
X53512500Y-75325000D01*
G75*
G02*
X53575000Y-75387500I0J-62500D01*
G01*
X53575000Y-76137500D01*
G75*
G02*
X53512500Y-76200000I-62500J0D01*
G01*
X53387500Y-76200000D01*
G75*
G02*
X53325000Y-76137500I0J62500D01*
G01*
G37*
G36*
G01*
X53825000Y-76137500D02*
X53825000Y-75387500D01*
G75*
G02*
X53887500Y-75325000I62500J0D01*
G01*
X54012500Y-75325000D01*
G75*
G02*
X54075000Y-75387500I0J-62500D01*
G01*
X54075000Y-76137500D01*
G75*
G02*
X54012500Y-76200000I-62500J0D01*
G01*
X53887500Y-76200000D01*
G75*
G02*
X53825000Y-76137500I0J62500D01*
G01*
G37*
G36*
G01*
X54325000Y-76137500D02*
X54325000Y-75387500D01*
G75*
G02*
X54387500Y-75325000I62500J0D01*
G01*
X54512500Y-75325000D01*
G75*
G02*
X54575000Y-75387500I0J-62500D01*
G01*
X54575000Y-76137500D01*
G75*
G02*
X54512500Y-76200000I-62500J0D01*
G01*
X54387500Y-76200000D01*
G75*
G02*
X54325000Y-76137500I0J62500D01*
G01*
G37*
G36*
G01*
X54825000Y-76137500D02*
X54825000Y-75387500D01*
G75*
G02*
X54887500Y-75325000I62500J0D01*
G01*
X55012500Y-75325000D01*
G75*
G02*
X55075000Y-75387500I0J-62500D01*
G01*
X55075000Y-76137500D01*
G75*
G02*
X55012500Y-76200000I-62500J0D01*
G01*
X54887500Y-76200000D01*
G75*
G02*
X54825000Y-76137500I0J62500D01*
G01*
G37*
G36*
G01*
X55325000Y-76137500D02*
X55325000Y-75387500D01*
G75*
G02*
X55387500Y-75325000I62500J0D01*
G01*
X55512500Y-75325000D01*
G75*
G02*
X55575000Y-75387500I0J-62500D01*
G01*
X55575000Y-76137500D01*
G75*
G02*
X55512500Y-76200000I-62500J0D01*
G01*
X55387500Y-76200000D01*
G75*
G02*
X55325000Y-76137500I0J62500D01*
G01*
G37*
G36*
G01*
X55825000Y-76137500D02*
X55825000Y-75387500D01*
G75*
G02*
X55887500Y-75325000I62500J0D01*
G01*
X56012500Y-75325000D01*
G75*
G02*
X56075000Y-75387500I0J-62500D01*
G01*
X56075000Y-76137500D01*
G75*
G02*
X56012500Y-76200000I-62500J0D01*
G01*
X55887500Y-76200000D01*
G75*
G02*
X55825000Y-76137500I0J62500D01*
G01*
G37*
G36*
G01*
X56325000Y-76137500D02*
X56325000Y-75387500D01*
G75*
G02*
X56387500Y-75325000I62500J0D01*
G01*
X56512500Y-75325000D01*
G75*
G02*
X56575000Y-75387500I0J-62500D01*
G01*
X56575000Y-76137500D01*
G75*
G02*
X56512500Y-76200000I-62500J0D01*
G01*
X56387500Y-76200000D01*
G75*
G02*
X56325000Y-76137500I0J62500D01*
G01*
G37*
G36*
G01*
X56825000Y-76137500D02*
X56825000Y-75387500D01*
G75*
G02*
X56887500Y-75325000I62500J0D01*
G01*
X57012500Y-75325000D01*
G75*
G02*
X57075000Y-75387500I0J-62500D01*
G01*
X57075000Y-76137500D01*
G75*
G02*
X57012500Y-76200000I-62500J0D01*
G01*
X56887500Y-76200000D01*
G75*
G02*
X56825000Y-76137500I0J62500D01*
G01*
G37*
G36*
G01*
X57325000Y-76137500D02*
X57325000Y-75387500D01*
G75*
G02*
X57387500Y-75325000I62500J0D01*
G01*
X57512500Y-75325000D01*
G75*
G02*
X57575000Y-75387500I0J-62500D01*
G01*
X57575000Y-76137500D01*
G75*
G02*
X57512500Y-76200000I-62500J0D01*
G01*
X57387500Y-76200000D01*
G75*
G02*
X57325000Y-76137500I0J62500D01*
G01*
G37*
G36*
G01*
X57825000Y-76137500D02*
X57825000Y-75387500D01*
G75*
G02*
X57887500Y-75325000I62500J0D01*
G01*
X58012500Y-75325000D01*
G75*
G02*
X58075000Y-75387500I0J-62500D01*
G01*
X58075000Y-76137500D01*
G75*
G02*
X58012500Y-76200000I-62500J0D01*
G01*
X57887500Y-76200000D01*
G75*
G02*
X57825000Y-76137500I0J62500D01*
G01*
G37*
G36*
G01*
X58325000Y-76137500D02*
X58325000Y-75387500D01*
G75*
G02*
X58387500Y-75325000I62500J0D01*
G01*
X58512500Y-75325000D01*
G75*
G02*
X58575000Y-75387500I0J-62500D01*
G01*
X58575000Y-76137500D01*
G75*
G02*
X58512500Y-76200000I-62500J0D01*
G01*
X58387500Y-76200000D01*
G75*
G02*
X58325000Y-76137500I0J62500D01*
G01*
G37*
G36*
G01*
X58700000Y-76512500D02*
X58700000Y-76387500D01*
G75*
G02*
X58762500Y-76325000I62500J0D01*
G01*
X59512500Y-76325000D01*
G75*
G02*
X59575000Y-76387500I0J-62500D01*
G01*
X59575000Y-76512500D01*
G75*
G02*
X59512500Y-76575000I-62500J0D01*
G01*
X58762500Y-76575000D01*
G75*
G02*
X58700000Y-76512500I0J62500D01*
G01*
G37*
G36*
G01*
X58700000Y-77012500D02*
X58700000Y-76887500D01*
G75*
G02*
X58762500Y-76825000I62500J0D01*
G01*
X59512500Y-76825000D01*
G75*
G02*
X59575000Y-76887500I0J-62500D01*
G01*
X59575000Y-77012500D01*
G75*
G02*
X59512500Y-77075000I-62500J0D01*
G01*
X58762500Y-77075000D01*
G75*
G02*
X58700000Y-77012500I0J62500D01*
G01*
G37*
G36*
G01*
X58700000Y-77512500D02*
X58700000Y-77387500D01*
G75*
G02*
X58762500Y-77325000I62500J0D01*
G01*
X59512500Y-77325000D01*
G75*
G02*
X59575000Y-77387500I0J-62500D01*
G01*
X59575000Y-77512500D01*
G75*
G02*
X59512500Y-77575000I-62500J0D01*
G01*
X58762500Y-77575000D01*
G75*
G02*
X58700000Y-77512500I0J62500D01*
G01*
G37*
G36*
G01*
X58700000Y-78012500D02*
X58700000Y-77887500D01*
G75*
G02*
X58762500Y-77825000I62500J0D01*
G01*
X59512500Y-77825000D01*
G75*
G02*
X59575000Y-77887500I0J-62500D01*
G01*
X59575000Y-78012500D01*
G75*
G02*
X59512500Y-78075000I-62500J0D01*
G01*
X58762500Y-78075000D01*
G75*
G02*
X58700000Y-78012500I0J62500D01*
G01*
G37*
G36*
G01*
X58700000Y-78512500D02*
X58700000Y-78387500D01*
G75*
G02*
X58762500Y-78325000I62500J0D01*
G01*
X59512500Y-78325000D01*
G75*
G02*
X59575000Y-78387500I0J-62500D01*
G01*
X59575000Y-78512500D01*
G75*
G02*
X59512500Y-78575000I-62500J0D01*
G01*
X58762500Y-78575000D01*
G75*
G02*
X58700000Y-78512500I0J62500D01*
G01*
G37*
G36*
G01*
X58700000Y-79012500D02*
X58700000Y-78887500D01*
G75*
G02*
X58762500Y-78825000I62500J0D01*
G01*
X59512500Y-78825000D01*
G75*
G02*
X59575000Y-78887500I0J-62500D01*
G01*
X59575000Y-79012500D01*
G75*
G02*
X59512500Y-79075000I-62500J0D01*
G01*
X58762500Y-79075000D01*
G75*
G02*
X58700000Y-79012500I0J62500D01*
G01*
G37*
G36*
G01*
X58700000Y-79512500D02*
X58700000Y-79387500D01*
G75*
G02*
X58762500Y-79325000I62500J0D01*
G01*
X59512500Y-79325000D01*
G75*
G02*
X59575000Y-79387500I0J-62500D01*
G01*
X59575000Y-79512500D01*
G75*
G02*
X59512500Y-79575000I-62500J0D01*
G01*
X58762500Y-79575000D01*
G75*
G02*
X58700000Y-79512500I0J62500D01*
G01*
G37*
G36*
G01*
X58700000Y-80012500D02*
X58700000Y-79887500D01*
G75*
G02*
X58762500Y-79825000I62500J0D01*
G01*
X59512500Y-79825000D01*
G75*
G02*
X59575000Y-79887500I0J-62500D01*
G01*
X59575000Y-80012500D01*
G75*
G02*
X59512500Y-80075000I-62500J0D01*
G01*
X58762500Y-80075000D01*
G75*
G02*
X58700000Y-80012500I0J62500D01*
G01*
G37*
G36*
G01*
X58700000Y-80512500D02*
X58700000Y-80387500D01*
G75*
G02*
X58762500Y-80325000I62500J0D01*
G01*
X59512500Y-80325000D01*
G75*
G02*
X59575000Y-80387500I0J-62500D01*
G01*
X59575000Y-80512500D01*
G75*
G02*
X59512500Y-80575000I-62500J0D01*
G01*
X58762500Y-80575000D01*
G75*
G02*
X58700000Y-80512500I0J62500D01*
G01*
G37*
G36*
G01*
X58700000Y-81012500D02*
X58700000Y-80887500D01*
G75*
G02*
X58762500Y-80825000I62500J0D01*
G01*
X59512500Y-80825000D01*
G75*
G02*
X59575000Y-80887500I0J-62500D01*
G01*
X59575000Y-81012500D01*
G75*
G02*
X59512500Y-81075000I-62500J0D01*
G01*
X58762500Y-81075000D01*
G75*
G02*
X58700000Y-81012500I0J62500D01*
G01*
G37*
G36*
G01*
X58700000Y-81512500D02*
X58700000Y-81387500D01*
G75*
G02*
X58762500Y-81325000I62500J0D01*
G01*
X59512500Y-81325000D01*
G75*
G02*
X59575000Y-81387500I0J-62500D01*
G01*
X59575000Y-81512500D01*
G75*
G02*
X59512500Y-81575000I-62500J0D01*
G01*
X58762500Y-81575000D01*
G75*
G02*
X58700000Y-81512500I0J62500D01*
G01*
G37*
G36*
G01*
X58700000Y-82012500D02*
X58700000Y-81887500D01*
G75*
G02*
X58762500Y-81825000I62500J0D01*
G01*
X59512500Y-81825000D01*
G75*
G02*
X59575000Y-81887500I0J-62500D01*
G01*
X59575000Y-82012500D01*
G75*
G02*
X59512500Y-82075000I-62500J0D01*
G01*
X58762500Y-82075000D01*
G75*
G02*
X58700000Y-82012500I0J62500D01*
G01*
G37*
G36*
G01*
X58325000Y-83012500D02*
X58325000Y-82262500D01*
G75*
G02*
X58387500Y-82200000I62500J0D01*
G01*
X58512500Y-82200000D01*
G75*
G02*
X58575000Y-82262500I0J-62500D01*
G01*
X58575000Y-83012500D01*
G75*
G02*
X58512500Y-83075000I-62500J0D01*
G01*
X58387500Y-83075000D01*
G75*
G02*
X58325000Y-83012500I0J62500D01*
G01*
G37*
G36*
G01*
X57825000Y-83012500D02*
X57825000Y-82262500D01*
G75*
G02*
X57887500Y-82200000I62500J0D01*
G01*
X58012500Y-82200000D01*
G75*
G02*
X58075000Y-82262500I0J-62500D01*
G01*
X58075000Y-83012500D01*
G75*
G02*
X58012500Y-83075000I-62500J0D01*
G01*
X57887500Y-83075000D01*
G75*
G02*
X57825000Y-83012500I0J62500D01*
G01*
G37*
G36*
G01*
X57325000Y-83012500D02*
X57325000Y-82262500D01*
G75*
G02*
X57387500Y-82200000I62500J0D01*
G01*
X57512500Y-82200000D01*
G75*
G02*
X57575000Y-82262500I0J-62500D01*
G01*
X57575000Y-83012500D01*
G75*
G02*
X57512500Y-83075000I-62500J0D01*
G01*
X57387500Y-83075000D01*
G75*
G02*
X57325000Y-83012500I0J62500D01*
G01*
G37*
G36*
G01*
X56825000Y-83012500D02*
X56825000Y-82262500D01*
G75*
G02*
X56887500Y-82200000I62500J0D01*
G01*
X57012500Y-82200000D01*
G75*
G02*
X57075000Y-82262500I0J-62500D01*
G01*
X57075000Y-83012500D01*
G75*
G02*
X57012500Y-83075000I-62500J0D01*
G01*
X56887500Y-83075000D01*
G75*
G02*
X56825000Y-83012500I0J62500D01*
G01*
G37*
G36*
G01*
X56325000Y-83012500D02*
X56325000Y-82262500D01*
G75*
G02*
X56387500Y-82200000I62500J0D01*
G01*
X56512500Y-82200000D01*
G75*
G02*
X56575000Y-82262500I0J-62500D01*
G01*
X56575000Y-83012500D01*
G75*
G02*
X56512500Y-83075000I-62500J0D01*
G01*
X56387500Y-83075000D01*
G75*
G02*
X56325000Y-83012500I0J62500D01*
G01*
G37*
G36*
G01*
X55825000Y-83012500D02*
X55825000Y-82262500D01*
G75*
G02*
X55887500Y-82200000I62500J0D01*
G01*
X56012500Y-82200000D01*
G75*
G02*
X56075000Y-82262500I0J-62500D01*
G01*
X56075000Y-83012500D01*
G75*
G02*
X56012500Y-83075000I-62500J0D01*
G01*
X55887500Y-83075000D01*
G75*
G02*
X55825000Y-83012500I0J62500D01*
G01*
G37*
G36*
G01*
X55325000Y-83012500D02*
X55325000Y-82262500D01*
G75*
G02*
X55387500Y-82200000I62500J0D01*
G01*
X55512500Y-82200000D01*
G75*
G02*
X55575000Y-82262500I0J-62500D01*
G01*
X55575000Y-83012500D01*
G75*
G02*
X55512500Y-83075000I-62500J0D01*
G01*
X55387500Y-83075000D01*
G75*
G02*
X55325000Y-83012500I0J62500D01*
G01*
G37*
G36*
G01*
X54825000Y-83012500D02*
X54825000Y-82262500D01*
G75*
G02*
X54887500Y-82200000I62500J0D01*
G01*
X55012500Y-82200000D01*
G75*
G02*
X55075000Y-82262500I0J-62500D01*
G01*
X55075000Y-83012500D01*
G75*
G02*
X55012500Y-83075000I-62500J0D01*
G01*
X54887500Y-83075000D01*
G75*
G02*
X54825000Y-83012500I0J62500D01*
G01*
G37*
G36*
G01*
X54325000Y-83012500D02*
X54325000Y-82262500D01*
G75*
G02*
X54387500Y-82200000I62500J0D01*
G01*
X54512500Y-82200000D01*
G75*
G02*
X54575000Y-82262500I0J-62500D01*
G01*
X54575000Y-83012500D01*
G75*
G02*
X54512500Y-83075000I-62500J0D01*
G01*
X54387500Y-83075000D01*
G75*
G02*
X54325000Y-83012500I0J62500D01*
G01*
G37*
G36*
G01*
X53825000Y-83012500D02*
X53825000Y-82262500D01*
G75*
G02*
X53887500Y-82200000I62500J0D01*
G01*
X54012500Y-82200000D01*
G75*
G02*
X54075000Y-82262500I0J-62500D01*
G01*
X54075000Y-83012500D01*
G75*
G02*
X54012500Y-83075000I-62500J0D01*
G01*
X53887500Y-83075000D01*
G75*
G02*
X53825000Y-83012500I0J62500D01*
G01*
G37*
G36*
G01*
X53325000Y-83012500D02*
X53325000Y-82262500D01*
G75*
G02*
X53387500Y-82200000I62500J0D01*
G01*
X53512500Y-82200000D01*
G75*
G02*
X53575000Y-82262500I0J-62500D01*
G01*
X53575000Y-83012500D01*
G75*
G02*
X53512500Y-83075000I-62500J0D01*
G01*
X53387500Y-83075000D01*
G75*
G02*
X53325000Y-83012500I0J62500D01*
G01*
G37*
G36*
G01*
X52825000Y-83012500D02*
X52825000Y-82262500D01*
G75*
G02*
X52887500Y-82200000I62500J0D01*
G01*
X53012500Y-82200000D01*
G75*
G02*
X53075000Y-82262500I0J-62500D01*
G01*
X53075000Y-83012500D01*
G75*
G02*
X53012500Y-83075000I-62500J0D01*
G01*
X52887500Y-83075000D01*
G75*
G02*
X52825000Y-83012500I0J62500D01*
G01*
G37*
G36*
G01*
X51825000Y-82012500D02*
X51825000Y-81887500D01*
G75*
G02*
X51887500Y-81825000I62500J0D01*
G01*
X52637500Y-81825000D01*
G75*
G02*
X52700000Y-81887500I0J-62500D01*
G01*
X52700000Y-82012500D01*
G75*
G02*
X52637500Y-82075000I-62500J0D01*
G01*
X51887500Y-82075000D01*
G75*
G02*
X51825000Y-82012500I0J62500D01*
G01*
G37*
G36*
G01*
X51825000Y-81512500D02*
X51825000Y-81387500D01*
G75*
G02*
X51887500Y-81325000I62500J0D01*
G01*
X52637500Y-81325000D01*
G75*
G02*
X52700000Y-81387500I0J-62500D01*
G01*
X52700000Y-81512500D01*
G75*
G02*
X52637500Y-81575000I-62500J0D01*
G01*
X51887500Y-81575000D01*
G75*
G02*
X51825000Y-81512500I0J62500D01*
G01*
G37*
G36*
G01*
X51825000Y-81012500D02*
X51825000Y-80887500D01*
G75*
G02*
X51887500Y-80825000I62500J0D01*
G01*
X52637500Y-80825000D01*
G75*
G02*
X52700000Y-80887500I0J-62500D01*
G01*
X52700000Y-81012500D01*
G75*
G02*
X52637500Y-81075000I-62500J0D01*
G01*
X51887500Y-81075000D01*
G75*
G02*
X51825000Y-81012500I0J62500D01*
G01*
G37*
G36*
G01*
X51825000Y-80512500D02*
X51825000Y-80387500D01*
G75*
G02*
X51887500Y-80325000I62500J0D01*
G01*
X52637500Y-80325000D01*
G75*
G02*
X52700000Y-80387500I0J-62500D01*
G01*
X52700000Y-80512500D01*
G75*
G02*
X52637500Y-80575000I-62500J0D01*
G01*
X51887500Y-80575000D01*
G75*
G02*
X51825000Y-80512500I0J62500D01*
G01*
G37*
G36*
G01*
X51825000Y-80012500D02*
X51825000Y-79887500D01*
G75*
G02*
X51887500Y-79825000I62500J0D01*
G01*
X52637500Y-79825000D01*
G75*
G02*
X52700000Y-79887500I0J-62500D01*
G01*
X52700000Y-80012500D01*
G75*
G02*
X52637500Y-80075000I-62500J0D01*
G01*
X51887500Y-80075000D01*
G75*
G02*
X51825000Y-80012500I0J62500D01*
G01*
G37*
G36*
G01*
X51825000Y-79512500D02*
X51825000Y-79387500D01*
G75*
G02*
X51887500Y-79325000I62500J0D01*
G01*
X52637500Y-79325000D01*
G75*
G02*
X52700000Y-79387500I0J-62500D01*
G01*
X52700000Y-79512500D01*
G75*
G02*
X52637500Y-79575000I-62500J0D01*
G01*
X51887500Y-79575000D01*
G75*
G02*
X51825000Y-79512500I0J62500D01*
G01*
G37*
G36*
G01*
X51825000Y-79012500D02*
X51825000Y-78887500D01*
G75*
G02*
X51887500Y-78825000I62500J0D01*
G01*
X52637500Y-78825000D01*
G75*
G02*
X52700000Y-78887500I0J-62500D01*
G01*
X52700000Y-79012500D01*
G75*
G02*
X52637500Y-79075000I-62500J0D01*
G01*
X51887500Y-79075000D01*
G75*
G02*
X51825000Y-79012500I0J62500D01*
G01*
G37*
G36*
G01*
X51825000Y-78512500D02*
X51825000Y-78387500D01*
G75*
G02*
X51887500Y-78325000I62500J0D01*
G01*
X52637500Y-78325000D01*
G75*
G02*
X52700000Y-78387500I0J-62500D01*
G01*
X52700000Y-78512500D01*
G75*
G02*
X52637500Y-78575000I-62500J0D01*
G01*
X51887500Y-78575000D01*
G75*
G02*
X51825000Y-78512500I0J62500D01*
G01*
G37*
G36*
G01*
X51825000Y-78012500D02*
X51825000Y-77887500D01*
G75*
G02*
X51887500Y-77825000I62500J0D01*
G01*
X52637500Y-77825000D01*
G75*
G02*
X52700000Y-77887500I0J-62500D01*
G01*
X52700000Y-78012500D01*
G75*
G02*
X52637500Y-78075000I-62500J0D01*
G01*
X51887500Y-78075000D01*
G75*
G02*
X51825000Y-78012500I0J62500D01*
G01*
G37*
G36*
G01*
X51825000Y-77512500D02*
X51825000Y-77387500D01*
G75*
G02*
X51887500Y-77325000I62500J0D01*
G01*
X52637500Y-77325000D01*
G75*
G02*
X52700000Y-77387500I0J-62500D01*
G01*
X52700000Y-77512500D01*
G75*
G02*
X52637500Y-77575000I-62500J0D01*
G01*
X51887500Y-77575000D01*
G75*
G02*
X51825000Y-77512500I0J62500D01*
G01*
G37*
G36*
G01*
X51825000Y-77012500D02*
X51825000Y-76887500D01*
G75*
G02*
X51887500Y-76825000I62500J0D01*
G01*
X52637500Y-76825000D01*
G75*
G02*
X52700000Y-76887500I0J-62500D01*
G01*
X52700000Y-77012500D01*
G75*
G02*
X52637500Y-77075000I-62500J0D01*
G01*
X51887500Y-77075000D01*
G75*
G02*
X51825000Y-77012500I0J62500D01*
G01*
G37*
G36*
G01*
X51825000Y-76512500D02*
X51825000Y-76387500D01*
G75*
G02*
X51887500Y-76325000I62500J0D01*
G01*
X52637500Y-76325000D01*
G75*
G02*
X52700000Y-76387500I0J-62500D01*
G01*
X52700000Y-76512500D01*
G75*
G02*
X52637500Y-76575000I-62500J0D01*
G01*
X51887500Y-76575000D01*
G75*
G02*
X51825000Y-76512500I0J62500D01*
G01*
G37*
D17*
X42226400Y-67092400D03*
X42226400Y-65792400D03*
X44126400Y-66442400D03*
X44126400Y-65792400D03*
X44126400Y-67092400D03*
D18*
X46980000Y-67411900D03*
X46980000Y-65511900D03*
X49180000Y-65511900D03*
X49180000Y-66461900D03*
X49180000Y-67411900D03*
G36*
G01*
X51875000Y-65775000D02*
X53125000Y-65775000D01*
G75*
G02*
X53375000Y-66025000I0J-250000D01*
G01*
X53375000Y-66775000D01*
G75*
G02*
X53125000Y-67025000I-250000J0D01*
G01*
X51875000Y-67025000D01*
G75*
G02*
X51625000Y-66775000I0J250000D01*
G01*
X51625000Y-66025000D01*
G75*
G02*
X51875000Y-65775000I250000J0D01*
G01*
G37*
G36*
G01*
X51875000Y-62975000D02*
X53125000Y-62975000D01*
G75*
G02*
X53375000Y-63225000I0J-250000D01*
G01*
X53375000Y-63975000D01*
G75*
G02*
X53125000Y-64225000I-250000J0D01*
G01*
X51875000Y-64225000D01*
G75*
G02*
X51625000Y-63975000I0J250000D01*
G01*
X51625000Y-63225000D01*
G75*
G02*
X51875000Y-62975000I250000J0D01*
G01*
G37*
G36*
G01*
X56025000Y-70375000D02*
X56025000Y-69125000D01*
G75*
G02*
X56275000Y-68875000I250000J0D01*
G01*
X57025000Y-68875000D01*
G75*
G02*
X57275000Y-69125000I0J-250000D01*
G01*
X57275000Y-70375000D01*
G75*
G02*
X57025000Y-70625000I-250000J0D01*
G01*
X56275000Y-70625000D01*
G75*
G02*
X56025000Y-70375000I0J250000D01*
G01*
G37*
G36*
G01*
X53225000Y-70375000D02*
X53225000Y-69125000D01*
G75*
G02*
X53475000Y-68875000I250000J0D01*
G01*
X54225000Y-68875000D01*
G75*
G02*
X54475000Y-69125000I0J-250000D01*
G01*
X54475000Y-70375000D01*
G75*
G02*
X54225000Y-70625000I-250000J0D01*
G01*
X53475000Y-70625000D01*
G75*
G02*
X53225000Y-70375000I0J250000D01*
G01*
G37*
G36*
G01*
X43500000Y-89955000D02*
X43500000Y-89655000D01*
G75*
G02*
X43650000Y-89505000I150000J0D01*
G01*
X45300000Y-89505000D01*
G75*
G02*
X45450000Y-89655000I0J-150000D01*
G01*
X45450000Y-89955000D01*
G75*
G02*
X45300000Y-90105000I-150000J0D01*
G01*
X43650000Y-90105000D01*
G75*
G02*
X43500000Y-89955000I0J150000D01*
G01*
G37*
G36*
G01*
X43500000Y-91225000D02*
X43500000Y-90925000D01*
G75*
G02*
X43650000Y-90775000I150000J0D01*
G01*
X45300000Y-90775000D01*
G75*
G02*
X45450000Y-90925000I0J-150000D01*
G01*
X45450000Y-91225000D01*
G75*
G02*
X45300000Y-91375000I-150000J0D01*
G01*
X43650000Y-91375000D01*
G75*
G02*
X43500000Y-91225000I0J150000D01*
G01*
G37*
G36*
G01*
X43500000Y-92495000D02*
X43500000Y-92195000D01*
G75*
G02*
X43650000Y-92045000I150000J0D01*
G01*
X45300000Y-92045000D01*
G75*
G02*
X45450000Y-92195000I0J-150000D01*
G01*
X45450000Y-92495000D01*
G75*
G02*
X45300000Y-92645000I-150000J0D01*
G01*
X43650000Y-92645000D01*
G75*
G02*
X43500000Y-92495000I0J150000D01*
G01*
G37*
G36*
G01*
X43500000Y-93765000D02*
X43500000Y-93465000D01*
G75*
G02*
X43650000Y-93315000I150000J0D01*
G01*
X45300000Y-93315000D01*
G75*
G02*
X45450000Y-93465000I0J-150000D01*
G01*
X45450000Y-93765000D01*
G75*
G02*
X45300000Y-93915000I-150000J0D01*
G01*
X43650000Y-93915000D01*
G75*
G02*
X43500000Y-93765000I0J150000D01*
G01*
G37*
G36*
G01*
X43500000Y-95035000D02*
X43500000Y-94735000D01*
G75*
G02*
X43650000Y-94585000I150000J0D01*
G01*
X45300000Y-94585000D01*
G75*
G02*
X45450000Y-94735000I0J-150000D01*
G01*
X45450000Y-95035000D01*
G75*
G02*
X45300000Y-95185000I-150000J0D01*
G01*
X43650000Y-95185000D01*
G75*
G02*
X43500000Y-95035000I0J150000D01*
G01*
G37*
G36*
G01*
X43500000Y-96305000D02*
X43500000Y-96005000D01*
G75*
G02*
X43650000Y-95855000I150000J0D01*
G01*
X45300000Y-95855000D01*
G75*
G02*
X45450000Y-96005000I0J-150000D01*
G01*
X45450000Y-96305000D01*
G75*
G02*
X45300000Y-96455000I-150000J0D01*
G01*
X43650000Y-96455000D01*
G75*
G02*
X43500000Y-96305000I0J150000D01*
G01*
G37*
G36*
G01*
X43500000Y-97575000D02*
X43500000Y-97275000D01*
G75*
G02*
X43650000Y-97125000I150000J0D01*
G01*
X45300000Y-97125000D01*
G75*
G02*
X45450000Y-97275000I0J-150000D01*
G01*
X45450000Y-97575000D01*
G75*
G02*
X45300000Y-97725000I-150000J0D01*
G01*
X43650000Y-97725000D01*
G75*
G02*
X43500000Y-97575000I0J150000D01*
G01*
G37*
G36*
G01*
X43500000Y-98845000D02*
X43500000Y-98545000D01*
G75*
G02*
X43650000Y-98395000I150000J0D01*
G01*
X45300000Y-98395000D01*
G75*
G02*
X45450000Y-98545000I0J-150000D01*
G01*
X45450000Y-98845000D01*
G75*
G02*
X45300000Y-98995000I-150000J0D01*
G01*
X43650000Y-98995000D01*
G75*
G02*
X43500000Y-98845000I0J150000D01*
G01*
G37*
G36*
G01*
X38550000Y-98845000D02*
X38550000Y-98545000D01*
G75*
G02*
X38700000Y-98395000I150000J0D01*
G01*
X40350000Y-98395000D01*
G75*
G02*
X40500000Y-98545000I0J-150000D01*
G01*
X40500000Y-98845000D01*
G75*
G02*
X40350000Y-98995000I-150000J0D01*
G01*
X38700000Y-98995000D01*
G75*
G02*
X38550000Y-98845000I0J150000D01*
G01*
G37*
G36*
G01*
X38550000Y-97575000D02*
X38550000Y-97275000D01*
G75*
G02*
X38700000Y-97125000I150000J0D01*
G01*
X40350000Y-97125000D01*
G75*
G02*
X40500000Y-97275000I0J-150000D01*
G01*
X40500000Y-97575000D01*
G75*
G02*
X40350000Y-97725000I-150000J0D01*
G01*
X38700000Y-97725000D01*
G75*
G02*
X38550000Y-97575000I0J150000D01*
G01*
G37*
G36*
G01*
X38550000Y-96305000D02*
X38550000Y-96005000D01*
G75*
G02*
X38700000Y-95855000I150000J0D01*
G01*
X40350000Y-95855000D01*
G75*
G02*
X40500000Y-96005000I0J-150000D01*
G01*
X40500000Y-96305000D01*
G75*
G02*
X40350000Y-96455000I-150000J0D01*
G01*
X38700000Y-96455000D01*
G75*
G02*
X38550000Y-96305000I0J150000D01*
G01*
G37*
G36*
G01*
X38550000Y-95035000D02*
X38550000Y-94735000D01*
G75*
G02*
X38700000Y-94585000I150000J0D01*
G01*
X40350000Y-94585000D01*
G75*
G02*
X40500000Y-94735000I0J-150000D01*
G01*
X40500000Y-95035000D01*
G75*
G02*
X40350000Y-95185000I-150000J0D01*
G01*
X38700000Y-95185000D01*
G75*
G02*
X38550000Y-95035000I0J150000D01*
G01*
G37*
G36*
G01*
X38550000Y-93765000D02*
X38550000Y-93465000D01*
G75*
G02*
X38700000Y-93315000I150000J0D01*
G01*
X40350000Y-93315000D01*
G75*
G02*
X40500000Y-93465000I0J-150000D01*
G01*
X40500000Y-93765000D01*
G75*
G02*
X40350000Y-93915000I-150000J0D01*
G01*
X38700000Y-93915000D01*
G75*
G02*
X38550000Y-93765000I0J150000D01*
G01*
G37*
G36*
G01*
X38550000Y-92495000D02*
X38550000Y-92195000D01*
G75*
G02*
X38700000Y-92045000I150000J0D01*
G01*
X40350000Y-92045000D01*
G75*
G02*
X40500000Y-92195000I0J-150000D01*
G01*
X40500000Y-92495000D01*
G75*
G02*
X40350000Y-92645000I-150000J0D01*
G01*
X38700000Y-92645000D01*
G75*
G02*
X38550000Y-92495000I0J150000D01*
G01*
G37*
G36*
G01*
X38550000Y-91225000D02*
X38550000Y-90925000D01*
G75*
G02*
X38700000Y-90775000I150000J0D01*
G01*
X40350000Y-90775000D01*
G75*
G02*
X40500000Y-90925000I0J-150000D01*
G01*
X40500000Y-91225000D01*
G75*
G02*
X40350000Y-91375000I-150000J0D01*
G01*
X38700000Y-91375000D01*
G75*
G02*
X38550000Y-91225000I0J150000D01*
G01*
G37*
G36*
G01*
X38550000Y-89955000D02*
X38550000Y-89655000D01*
G75*
G02*
X38700000Y-89505000I150000J0D01*
G01*
X40350000Y-89505000D01*
G75*
G02*
X40500000Y-89655000I0J-150000D01*
G01*
X40500000Y-89955000D01*
G75*
G02*
X40350000Y-90105000I-150000J0D01*
G01*
X38700000Y-90105000D01*
G75*
G02*
X38550000Y-89955000I0J150000D01*
G01*
G37*
G36*
G01*
X43500000Y-76705000D02*
X43500000Y-76405000D01*
G75*
G02*
X43650000Y-76255000I150000J0D01*
G01*
X45300000Y-76255000D01*
G75*
G02*
X45450000Y-76405000I0J-150000D01*
G01*
X45450000Y-76705000D01*
G75*
G02*
X45300000Y-76855000I-150000J0D01*
G01*
X43650000Y-76855000D01*
G75*
G02*
X43500000Y-76705000I0J150000D01*
G01*
G37*
G36*
G01*
X43500000Y-77975000D02*
X43500000Y-77675000D01*
G75*
G02*
X43650000Y-77525000I150000J0D01*
G01*
X45300000Y-77525000D01*
G75*
G02*
X45450000Y-77675000I0J-150000D01*
G01*
X45450000Y-77975000D01*
G75*
G02*
X45300000Y-78125000I-150000J0D01*
G01*
X43650000Y-78125000D01*
G75*
G02*
X43500000Y-77975000I0J150000D01*
G01*
G37*
G36*
G01*
X43500000Y-79245000D02*
X43500000Y-78945000D01*
G75*
G02*
X43650000Y-78795000I150000J0D01*
G01*
X45300000Y-78795000D01*
G75*
G02*
X45450000Y-78945000I0J-150000D01*
G01*
X45450000Y-79245000D01*
G75*
G02*
X45300000Y-79395000I-150000J0D01*
G01*
X43650000Y-79395000D01*
G75*
G02*
X43500000Y-79245000I0J150000D01*
G01*
G37*
G36*
G01*
X43500000Y-80515000D02*
X43500000Y-80215000D01*
G75*
G02*
X43650000Y-80065000I150000J0D01*
G01*
X45300000Y-80065000D01*
G75*
G02*
X45450000Y-80215000I0J-150000D01*
G01*
X45450000Y-80515000D01*
G75*
G02*
X45300000Y-80665000I-150000J0D01*
G01*
X43650000Y-80665000D01*
G75*
G02*
X43500000Y-80515000I0J150000D01*
G01*
G37*
G36*
G01*
X43500000Y-81785000D02*
X43500000Y-81485000D01*
G75*
G02*
X43650000Y-81335000I150000J0D01*
G01*
X45300000Y-81335000D01*
G75*
G02*
X45450000Y-81485000I0J-150000D01*
G01*
X45450000Y-81785000D01*
G75*
G02*
X45300000Y-81935000I-150000J0D01*
G01*
X43650000Y-81935000D01*
G75*
G02*
X43500000Y-81785000I0J150000D01*
G01*
G37*
G36*
G01*
X43500000Y-83055000D02*
X43500000Y-82755000D01*
G75*
G02*
X43650000Y-82605000I150000J0D01*
G01*
X45300000Y-82605000D01*
G75*
G02*
X45450000Y-82755000I0J-150000D01*
G01*
X45450000Y-83055000D01*
G75*
G02*
X45300000Y-83205000I-150000J0D01*
G01*
X43650000Y-83205000D01*
G75*
G02*
X43500000Y-83055000I0J150000D01*
G01*
G37*
G36*
G01*
X43500000Y-84325000D02*
X43500000Y-84025000D01*
G75*
G02*
X43650000Y-83875000I150000J0D01*
G01*
X45300000Y-83875000D01*
G75*
G02*
X45450000Y-84025000I0J-150000D01*
G01*
X45450000Y-84325000D01*
G75*
G02*
X45300000Y-84475000I-150000J0D01*
G01*
X43650000Y-84475000D01*
G75*
G02*
X43500000Y-84325000I0J150000D01*
G01*
G37*
G36*
G01*
X43500000Y-85595000D02*
X43500000Y-85295000D01*
G75*
G02*
X43650000Y-85145000I150000J0D01*
G01*
X45300000Y-85145000D01*
G75*
G02*
X45450000Y-85295000I0J-150000D01*
G01*
X45450000Y-85595000D01*
G75*
G02*
X45300000Y-85745000I-150000J0D01*
G01*
X43650000Y-85745000D01*
G75*
G02*
X43500000Y-85595000I0J150000D01*
G01*
G37*
G36*
G01*
X38550000Y-85595000D02*
X38550000Y-85295000D01*
G75*
G02*
X38700000Y-85145000I150000J0D01*
G01*
X40350000Y-85145000D01*
G75*
G02*
X40500000Y-85295000I0J-150000D01*
G01*
X40500000Y-85595000D01*
G75*
G02*
X40350000Y-85745000I-150000J0D01*
G01*
X38700000Y-85745000D01*
G75*
G02*
X38550000Y-85595000I0J150000D01*
G01*
G37*
G36*
G01*
X38550000Y-84325000D02*
X38550000Y-84025000D01*
G75*
G02*
X38700000Y-83875000I150000J0D01*
G01*
X40350000Y-83875000D01*
G75*
G02*
X40500000Y-84025000I0J-150000D01*
G01*
X40500000Y-84325000D01*
G75*
G02*
X40350000Y-84475000I-150000J0D01*
G01*
X38700000Y-84475000D01*
G75*
G02*
X38550000Y-84325000I0J150000D01*
G01*
G37*
G36*
G01*
X38550000Y-83055000D02*
X38550000Y-82755000D01*
G75*
G02*
X38700000Y-82605000I150000J0D01*
G01*
X40350000Y-82605000D01*
G75*
G02*
X40500000Y-82755000I0J-150000D01*
G01*
X40500000Y-83055000D01*
G75*
G02*
X40350000Y-83205000I-150000J0D01*
G01*
X38700000Y-83205000D01*
G75*
G02*
X38550000Y-83055000I0J150000D01*
G01*
G37*
G36*
G01*
X38550000Y-81785000D02*
X38550000Y-81485000D01*
G75*
G02*
X38700000Y-81335000I150000J0D01*
G01*
X40350000Y-81335000D01*
G75*
G02*
X40500000Y-81485000I0J-150000D01*
G01*
X40500000Y-81785000D01*
G75*
G02*
X40350000Y-81935000I-150000J0D01*
G01*
X38700000Y-81935000D01*
G75*
G02*
X38550000Y-81785000I0J150000D01*
G01*
G37*
G36*
G01*
X38550000Y-80515000D02*
X38550000Y-80215000D01*
G75*
G02*
X38700000Y-80065000I150000J0D01*
G01*
X40350000Y-80065000D01*
G75*
G02*
X40500000Y-80215000I0J-150000D01*
G01*
X40500000Y-80515000D01*
G75*
G02*
X40350000Y-80665000I-150000J0D01*
G01*
X38700000Y-80665000D01*
G75*
G02*
X38550000Y-80515000I0J150000D01*
G01*
G37*
G36*
G01*
X38550000Y-79245000D02*
X38550000Y-78945000D01*
G75*
G02*
X38700000Y-78795000I150000J0D01*
G01*
X40350000Y-78795000D01*
G75*
G02*
X40500000Y-78945000I0J-150000D01*
G01*
X40500000Y-79245000D01*
G75*
G02*
X40350000Y-79395000I-150000J0D01*
G01*
X38700000Y-79395000D01*
G75*
G02*
X38550000Y-79245000I0J150000D01*
G01*
G37*
G36*
G01*
X38550000Y-77975000D02*
X38550000Y-77675000D01*
G75*
G02*
X38700000Y-77525000I150000J0D01*
G01*
X40350000Y-77525000D01*
G75*
G02*
X40500000Y-77675000I0J-150000D01*
G01*
X40500000Y-77975000D01*
G75*
G02*
X40350000Y-78125000I-150000J0D01*
G01*
X38700000Y-78125000D01*
G75*
G02*
X38550000Y-77975000I0J150000D01*
G01*
G37*
G36*
G01*
X38550000Y-76705000D02*
X38550000Y-76405000D01*
G75*
G02*
X38700000Y-76255000I150000J0D01*
G01*
X40350000Y-76255000D01*
G75*
G02*
X40500000Y-76405000I0J-150000D01*
G01*
X40500000Y-76705000D01*
G75*
G02*
X40350000Y-76855000I-150000J0D01*
G01*
X38700000Y-76855000D01*
G75*
G02*
X38550000Y-76705000I0J150000D01*
G01*
G37*
D19*
X24285000Y-81710000D03*
X24285000Y-84250000D03*
X35715000Y-84250000D03*
X35715000Y-81710000D03*
X24285000Y-86790000D03*
X35715000Y-86790000D03*
M02*
