G04 #@! TF.GenerationSoftware,KiCad,Pcbnew,5.1.6*
G04 #@! TF.CreationDate,2020-08-01T17:21:50-05:00*
G04 #@! TF.ProjectId,pcb,7063622e-6b69-4636-9164-5f7063625858,rev?*
G04 #@! TF.SameCoordinates,Original*
G04 #@! TF.FileFunction,Paste,Top*
G04 #@! TF.FilePolarity,Positive*
%FSLAX46Y46*%
G04 Gerber Fmt 4.6, Leading zero omitted, Abs format (unit mm)*
G04 Created by KiCad (PCBNEW 5.1.6) date 2020-08-01 17:21:50*
%MOMM*%
%LPD*%
G01*
G04 APERTURE LIST*
%ADD10R,1.524000X1.016000*%
G04 APERTURE END LIST*
G36*
G01*
X37060000Y-96035000D02*
X37060000Y-95735000D01*
G75*
G02*
X37210000Y-95585000I150000J0D01*
G01*
X38860000Y-95585000D01*
G75*
G02*
X39010000Y-95735000I0J-150000D01*
G01*
X39010000Y-96035000D01*
G75*
G02*
X38860000Y-96185000I-150000J0D01*
G01*
X37210000Y-96185000D01*
G75*
G02*
X37060000Y-96035000I0J150000D01*
G01*
G37*
G36*
G01*
X37060000Y-97305000D02*
X37060000Y-97005000D01*
G75*
G02*
X37210000Y-96855000I150000J0D01*
G01*
X38860000Y-96855000D01*
G75*
G02*
X39010000Y-97005000I0J-150000D01*
G01*
X39010000Y-97305000D01*
G75*
G02*
X38860000Y-97455000I-150000J0D01*
G01*
X37210000Y-97455000D01*
G75*
G02*
X37060000Y-97305000I0J150000D01*
G01*
G37*
G36*
G01*
X37060000Y-98575000D02*
X37060000Y-98275000D01*
G75*
G02*
X37210000Y-98125000I150000J0D01*
G01*
X38860000Y-98125000D01*
G75*
G02*
X39010000Y-98275000I0J-150000D01*
G01*
X39010000Y-98575000D01*
G75*
G02*
X38860000Y-98725000I-150000J0D01*
G01*
X37210000Y-98725000D01*
G75*
G02*
X37060000Y-98575000I0J150000D01*
G01*
G37*
G36*
G01*
X37060000Y-99845000D02*
X37060000Y-99545000D01*
G75*
G02*
X37210000Y-99395000I150000J0D01*
G01*
X38860000Y-99395000D01*
G75*
G02*
X39010000Y-99545000I0J-150000D01*
G01*
X39010000Y-99845000D01*
G75*
G02*
X38860000Y-99995000I-150000J0D01*
G01*
X37210000Y-99995000D01*
G75*
G02*
X37060000Y-99845000I0J150000D01*
G01*
G37*
G36*
G01*
X37060000Y-101115000D02*
X37060000Y-100815000D01*
G75*
G02*
X37210000Y-100665000I150000J0D01*
G01*
X38860000Y-100665000D01*
G75*
G02*
X39010000Y-100815000I0J-150000D01*
G01*
X39010000Y-101115000D01*
G75*
G02*
X38860000Y-101265000I-150000J0D01*
G01*
X37210000Y-101265000D01*
G75*
G02*
X37060000Y-101115000I0J150000D01*
G01*
G37*
G36*
G01*
X37060000Y-102385000D02*
X37060000Y-102085000D01*
G75*
G02*
X37210000Y-101935000I150000J0D01*
G01*
X38860000Y-101935000D01*
G75*
G02*
X39010000Y-102085000I0J-150000D01*
G01*
X39010000Y-102385000D01*
G75*
G02*
X38860000Y-102535000I-150000J0D01*
G01*
X37210000Y-102535000D01*
G75*
G02*
X37060000Y-102385000I0J150000D01*
G01*
G37*
G36*
G01*
X37060000Y-103655000D02*
X37060000Y-103355000D01*
G75*
G02*
X37210000Y-103205000I150000J0D01*
G01*
X38860000Y-103205000D01*
G75*
G02*
X39010000Y-103355000I0J-150000D01*
G01*
X39010000Y-103655000D01*
G75*
G02*
X38860000Y-103805000I-150000J0D01*
G01*
X37210000Y-103805000D01*
G75*
G02*
X37060000Y-103655000I0J150000D01*
G01*
G37*
G36*
G01*
X37060000Y-104925000D02*
X37060000Y-104625000D01*
G75*
G02*
X37210000Y-104475000I150000J0D01*
G01*
X38860000Y-104475000D01*
G75*
G02*
X39010000Y-104625000I0J-150000D01*
G01*
X39010000Y-104925000D01*
G75*
G02*
X38860000Y-105075000I-150000J0D01*
G01*
X37210000Y-105075000D01*
G75*
G02*
X37060000Y-104925000I0J150000D01*
G01*
G37*
G36*
G01*
X32110000Y-104925000D02*
X32110000Y-104625000D01*
G75*
G02*
X32260000Y-104475000I150000J0D01*
G01*
X33910000Y-104475000D01*
G75*
G02*
X34060000Y-104625000I0J-150000D01*
G01*
X34060000Y-104925000D01*
G75*
G02*
X33910000Y-105075000I-150000J0D01*
G01*
X32260000Y-105075000D01*
G75*
G02*
X32110000Y-104925000I0J150000D01*
G01*
G37*
G36*
G01*
X32110000Y-103655000D02*
X32110000Y-103355000D01*
G75*
G02*
X32260000Y-103205000I150000J0D01*
G01*
X33910000Y-103205000D01*
G75*
G02*
X34060000Y-103355000I0J-150000D01*
G01*
X34060000Y-103655000D01*
G75*
G02*
X33910000Y-103805000I-150000J0D01*
G01*
X32260000Y-103805000D01*
G75*
G02*
X32110000Y-103655000I0J150000D01*
G01*
G37*
G36*
G01*
X32110000Y-102385000D02*
X32110000Y-102085000D01*
G75*
G02*
X32260000Y-101935000I150000J0D01*
G01*
X33910000Y-101935000D01*
G75*
G02*
X34060000Y-102085000I0J-150000D01*
G01*
X34060000Y-102385000D01*
G75*
G02*
X33910000Y-102535000I-150000J0D01*
G01*
X32260000Y-102535000D01*
G75*
G02*
X32110000Y-102385000I0J150000D01*
G01*
G37*
G36*
G01*
X32110000Y-101115000D02*
X32110000Y-100815000D01*
G75*
G02*
X32260000Y-100665000I150000J0D01*
G01*
X33910000Y-100665000D01*
G75*
G02*
X34060000Y-100815000I0J-150000D01*
G01*
X34060000Y-101115000D01*
G75*
G02*
X33910000Y-101265000I-150000J0D01*
G01*
X32260000Y-101265000D01*
G75*
G02*
X32110000Y-101115000I0J150000D01*
G01*
G37*
G36*
G01*
X32110000Y-99845000D02*
X32110000Y-99545000D01*
G75*
G02*
X32260000Y-99395000I150000J0D01*
G01*
X33910000Y-99395000D01*
G75*
G02*
X34060000Y-99545000I0J-150000D01*
G01*
X34060000Y-99845000D01*
G75*
G02*
X33910000Y-99995000I-150000J0D01*
G01*
X32260000Y-99995000D01*
G75*
G02*
X32110000Y-99845000I0J150000D01*
G01*
G37*
G36*
G01*
X32110000Y-98575000D02*
X32110000Y-98275000D01*
G75*
G02*
X32260000Y-98125000I150000J0D01*
G01*
X33910000Y-98125000D01*
G75*
G02*
X34060000Y-98275000I0J-150000D01*
G01*
X34060000Y-98575000D01*
G75*
G02*
X33910000Y-98725000I-150000J0D01*
G01*
X32260000Y-98725000D01*
G75*
G02*
X32110000Y-98575000I0J150000D01*
G01*
G37*
G36*
G01*
X32110000Y-97305000D02*
X32110000Y-97005000D01*
G75*
G02*
X32260000Y-96855000I150000J0D01*
G01*
X33910000Y-96855000D01*
G75*
G02*
X34060000Y-97005000I0J-150000D01*
G01*
X34060000Y-97305000D01*
G75*
G02*
X33910000Y-97455000I-150000J0D01*
G01*
X32260000Y-97455000D01*
G75*
G02*
X32110000Y-97305000I0J150000D01*
G01*
G37*
G36*
G01*
X32110000Y-96035000D02*
X32110000Y-95735000D01*
G75*
G02*
X32260000Y-95585000I150000J0D01*
G01*
X33910000Y-95585000D01*
G75*
G02*
X34060000Y-95735000I0J-150000D01*
G01*
X34060000Y-96035000D01*
G75*
G02*
X33910000Y-96185000I-150000J0D01*
G01*
X32260000Y-96185000D01*
G75*
G02*
X32110000Y-96035000I0J150000D01*
G01*
G37*
G36*
G01*
X40870000Y-77620000D02*
X40870000Y-77320000D01*
G75*
G02*
X41020000Y-77170000I150000J0D01*
G01*
X42670000Y-77170000D01*
G75*
G02*
X42820000Y-77320000I0J-150000D01*
G01*
X42820000Y-77620000D01*
G75*
G02*
X42670000Y-77770000I-150000J0D01*
G01*
X41020000Y-77770000D01*
G75*
G02*
X40870000Y-77620000I0J150000D01*
G01*
G37*
G36*
G01*
X40870000Y-78890000D02*
X40870000Y-78590000D01*
G75*
G02*
X41020000Y-78440000I150000J0D01*
G01*
X42670000Y-78440000D01*
G75*
G02*
X42820000Y-78590000I0J-150000D01*
G01*
X42820000Y-78890000D01*
G75*
G02*
X42670000Y-79040000I-150000J0D01*
G01*
X41020000Y-79040000D01*
G75*
G02*
X40870000Y-78890000I0J150000D01*
G01*
G37*
G36*
G01*
X40870000Y-80160000D02*
X40870000Y-79860000D01*
G75*
G02*
X41020000Y-79710000I150000J0D01*
G01*
X42670000Y-79710000D01*
G75*
G02*
X42820000Y-79860000I0J-150000D01*
G01*
X42820000Y-80160000D01*
G75*
G02*
X42670000Y-80310000I-150000J0D01*
G01*
X41020000Y-80310000D01*
G75*
G02*
X40870000Y-80160000I0J150000D01*
G01*
G37*
G36*
G01*
X40870000Y-81430000D02*
X40870000Y-81130000D01*
G75*
G02*
X41020000Y-80980000I150000J0D01*
G01*
X42670000Y-80980000D01*
G75*
G02*
X42820000Y-81130000I0J-150000D01*
G01*
X42820000Y-81430000D01*
G75*
G02*
X42670000Y-81580000I-150000J0D01*
G01*
X41020000Y-81580000D01*
G75*
G02*
X40870000Y-81430000I0J150000D01*
G01*
G37*
G36*
G01*
X40870000Y-82700000D02*
X40870000Y-82400000D01*
G75*
G02*
X41020000Y-82250000I150000J0D01*
G01*
X42670000Y-82250000D01*
G75*
G02*
X42820000Y-82400000I0J-150000D01*
G01*
X42820000Y-82700000D01*
G75*
G02*
X42670000Y-82850000I-150000J0D01*
G01*
X41020000Y-82850000D01*
G75*
G02*
X40870000Y-82700000I0J150000D01*
G01*
G37*
G36*
G01*
X40870000Y-83970000D02*
X40870000Y-83670000D01*
G75*
G02*
X41020000Y-83520000I150000J0D01*
G01*
X42670000Y-83520000D01*
G75*
G02*
X42820000Y-83670000I0J-150000D01*
G01*
X42820000Y-83970000D01*
G75*
G02*
X42670000Y-84120000I-150000J0D01*
G01*
X41020000Y-84120000D01*
G75*
G02*
X40870000Y-83970000I0J150000D01*
G01*
G37*
G36*
G01*
X40870000Y-85240000D02*
X40870000Y-84940000D01*
G75*
G02*
X41020000Y-84790000I150000J0D01*
G01*
X42670000Y-84790000D01*
G75*
G02*
X42820000Y-84940000I0J-150000D01*
G01*
X42820000Y-85240000D01*
G75*
G02*
X42670000Y-85390000I-150000J0D01*
G01*
X41020000Y-85390000D01*
G75*
G02*
X40870000Y-85240000I0J150000D01*
G01*
G37*
G36*
G01*
X40870000Y-86510000D02*
X40870000Y-86210000D01*
G75*
G02*
X41020000Y-86060000I150000J0D01*
G01*
X42670000Y-86060000D01*
G75*
G02*
X42820000Y-86210000I0J-150000D01*
G01*
X42820000Y-86510000D01*
G75*
G02*
X42670000Y-86660000I-150000J0D01*
G01*
X41020000Y-86660000D01*
G75*
G02*
X40870000Y-86510000I0J150000D01*
G01*
G37*
G36*
G01*
X35920000Y-86510000D02*
X35920000Y-86210000D01*
G75*
G02*
X36070000Y-86060000I150000J0D01*
G01*
X37720000Y-86060000D01*
G75*
G02*
X37870000Y-86210000I0J-150000D01*
G01*
X37870000Y-86510000D01*
G75*
G02*
X37720000Y-86660000I-150000J0D01*
G01*
X36070000Y-86660000D01*
G75*
G02*
X35920000Y-86510000I0J150000D01*
G01*
G37*
G36*
G01*
X35920000Y-85240000D02*
X35920000Y-84940000D01*
G75*
G02*
X36070000Y-84790000I150000J0D01*
G01*
X37720000Y-84790000D01*
G75*
G02*
X37870000Y-84940000I0J-150000D01*
G01*
X37870000Y-85240000D01*
G75*
G02*
X37720000Y-85390000I-150000J0D01*
G01*
X36070000Y-85390000D01*
G75*
G02*
X35920000Y-85240000I0J150000D01*
G01*
G37*
G36*
G01*
X35920000Y-83970000D02*
X35920000Y-83670000D01*
G75*
G02*
X36070000Y-83520000I150000J0D01*
G01*
X37720000Y-83520000D01*
G75*
G02*
X37870000Y-83670000I0J-150000D01*
G01*
X37870000Y-83970000D01*
G75*
G02*
X37720000Y-84120000I-150000J0D01*
G01*
X36070000Y-84120000D01*
G75*
G02*
X35920000Y-83970000I0J150000D01*
G01*
G37*
G36*
G01*
X35920000Y-82700000D02*
X35920000Y-82400000D01*
G75*
G02*
X36070000Y-82250000I150000J0D01*
G01*
X37720000Y-82250000D01*
G75*
G02*
X37870000Y-82400000I0J-150000D01*
G01*
X37870000Y-82700000D01*
G75*
G02*
X37720000Y-82850000I-150000J0D01*
G01*
X36070000Y-82850000D01*
G75*
G02*
X35920000Y-82700000I0J150000D01*
G01*
G37*
G36*
G01*
X35920000Y-81430000D02*
X35920000Y-81130000D01*
G75*
G02*
X36070000Y-80980000I150000J0D01*
G01*
X37720000Y-80980000D01*
G75*
G02*
X37870000Y-81130000I0J-150000D01*
G01*
X37870000Y-81430000D01*
G75*
G02*
X37720000Y-81580000I-150000J0D01*
G01*
X36070000Y-81580000D01*
G75*
G02*
X35920000Y-81430000I0J150000D01*
G01*
G37*
G36*
G01*
X35920000Y-80160000D02*
X35920000Y-79860000D01*
G75*
G02*
X36070000Y-79710000I150000J0D01*
G01*
X37720000Y-79710000D01*
G75*
G02*
X37870000Y-79860000I0J-150000D01*
G01*
X37870000Y-80160000D01*
G75*
G02*
X37720000Y-80310000I-150000J0D01*
G01*
X36070000Y-80310000D01*
G75*
G02*
X35920000Y-80160000I0J150000D01*
G01*
G37*
G36*
G01*
X35920000Y-78890000D02*
X35920000Y-78590000D01*
G75*
G02*
X36070000Y-78440000I150000J0D01*
G01*
X37720000Y-78440000D01*
G75*
G02*
X37870000Y-78590000I0J-150000D01*
G01*
X37870000Y-78890000D01*
G75*
G02*
X37720000Y-79040000I-150000J0D01*
G01*
X36070000Y-79040000D01*
G75*
G02*
X35920000Y-78890000I0J150000D01*
G01*
G37*
G36*
G01*
X35920000Y-77620000D02*
X35920000Y-77320000D01*
G75*
G02*
X36070000Y-77170000I150000J0D01*
G01*
X37720000Y-77170000D01*
G75*
G02*
X37870000Y-77320000I0J-150000D01*
G01*
X37870000Y-77620000D01*
G75*
G02*
X37720000Y-77770000I-150000J0D01*
G01*
X36070000Y-77770000D01*
G75*
G02*
X35920000Y-77620000I0J150000D01*
G01*
G37*
G36*
G01*
X26175000Y-79365000D02*
X26175000Y-78115000D01*
G75*
G02*
X26425000Y-77865000I250000J0D01*
G01*
X27175000Y-77865000D01*
G75*
G02*
X27425000Y-78115000I0J-250000D01*
G01*
X27425000Y-79365000D01*
G75*
G02*
X27175000Y-79615000I-250000J0D01*
G01*
X26425000Y-79615000D01*
G75*
G02*
X26175000Y-79365000I0J250000D01*
G01*
G37*
G36*
G01*
X23375000Y-79365000D02*
X23375000Y-78115000D01*
G75*
G02*
X23625000Y-77865000I250000J0D01*
G01*
X24375000Y-77865000D01*
G75*
G02*
X24625000Y-78115000I0J-250000D01*
G01*
X24625000Y-79365000D01*
G75*
G02*
X24375000Y-79615000I-250000J0D01*
G01*
X23625000Y-79615000D01*
G75*
G02*
X23375000Y-79365000I0J250000D01*
G01*
G37*
G36*
G01*
X24625000Y-90815000D02*
X24625000Y-92065000D01*
G75*
G02*
X24375000Y-92315000I-250000J0D01*
G01*
X23625000Y-92315000D01*
G75*
G02*
X23375000Y-92065000I0J250000D01*
G01*
X23375000Y-90815000D01*
G75*
G02*
X23625000Y-90565000I250000J0D01*
G01*
X24375000Y-90565000D01*
G75*
G02*
X24625000Y-90815000I0J-250000D01*
G01*
G37*
G36*
G01*
X27425000Y-90815000D02*
X27425000Y-92065000D01*
G75*
G02*
X27175000Y-92315000I-250000J0D01*
G01*
X26425000Y-92315000D01*
G75*
G02*
X26175000Y-92065000I0J250000D01*
G01*
X26175000Y-90815000D01*
G75*
G02*
X26425000Y-90565000I250000J0D01*
G01*
X27175000Y-90565000D01*
G75*
G02*
X27425000Y-90815000I0J-250000D01*
G01*
G37*
G36*
G01*
X26175000Y-104130000D02*
X26175000Y-102880000D01*
G75*
G02*
X26425000Y-102630000I250000J0D01*
G01*
X27175000Y-102630000D01*
G75*
G02*
X27425000Y-102880000I0J-250000D01*
G01*
X27425000Y-104130000D01*
G75*
G02*
X27175000Y-104380000I-250000J0D01*
G01*
X26425000Y-104380000D01*
G75*
G02*
X26175000Y-104130000I0J250000D01*
G01*
G37*
G36*
G01*
X23375000Y-104130000D02*
X23375000Y-102880000D01*
G75*
G02*
X23625000Y-102630000I250000J0D01*
G01*
X24375000Y-102630000D01*
G75*
G02*
X24625000Y-102880000I0J-250000D01*
G01*
X24625000Y-104130000D01*
G75*
G02*
X24375000Y-104380000I-250000J0D01*
G01*
X23625000Y-104380000D01*
G75*
G02*
X23375000Y-104130000I0J250000D01*
G01*
G37*
G36*
G01*
X26175000Y-101590000D02*
X26175000Y-100340000D01*
G75*
G02*
X26425000Y-100090000I250000J0D01*
G01*
X27175000Y-100090000D01*
G75*
G02*
X27425000Y-100340000I0J-250000D01*
G01*
X27425000Y-101590000D01*
G75*
G02*
X27175000Y-101840000I-250000J0D01*
G01*
X26425000Y-101840000D01*
G75*
G02*
X26175000Y-101590000I0J250000D01*
G01*
G37*
G36*
G01*
X23375000Y-101590000D02*
X23375000Y-100340000D01*
G75*
G02*
X23625000Y-100090000I250000J0D01*
G01*
X24375000Y-100090000D01*
G75*
G02*
X24625000Y-100340000I0J-250000D01*
G01*
X24625000Y-101590000D01*
G75*
G02*
X24375000Y-101840000I-250000J0D01*
G01*
X23625000Y-101840000D01*
G75*
G02*
X23375000Y-101590000I0J250000D01*
G01*
G37*
G36*
G01*
X24625000Y-95260000D02*
X24625000Y-96510000D01*
G75*
G02*
X24375000Y-96760000I-250000J0D01*
G01*
X23625000Y-96760000D01*
G75*
G02*
X23375000Y-96510000I0J250000D01*
G01*
X23375000Y-95260000D01*
G75*
G02*
X23625000Y-95010000I250000J0D01*
G01*
X24375000Y-95010000D01*
G75*
G02*
X24625000Y-95260000I0J-250000D01*
G01*
G37*
G36*
G01*
X27425000Y-95260000D02*
X27425000Y-96510000D01*
G75*
G02*
X27175000Y-96760000I-250000J0D01*
G01*
X26425000Y-96760000D01*
G75*
G02*
X26175000Y-96510000I0J250000D01*
G01*
X26175000Y-95260000D01*
G75*
G02*
X26425000Y-95010000I250000J0D01*
G01*
X27175000Y-95010000D01*
G75*
G02*
X27425000Y-95260000I0J-250000D01*
G01*
G37*
G36*
G01*
X26175000Y-99050000D02*
X26175000Y-97800000D01*
G75*
G02*
X26425000Y-97550000I250000J0D01*
G01*
X27175000Y-97550000D01*
G75*
G02*
X27425000Y-97800000I0J-250000D01*
G01*
X27425000Y-99050000D01*
G75*
G02*
X27175000Y-99300000I-250000J0D01*
G01*
X26425000Y-99300000D01*
G75*
G02*
X26175000Y-99050000I0J250000D01*
G01*
G37*
G36*
G01*
X23375000Y-99050000D02*
X23375000Y-97800000D01*
G75*
G02*
X23625000Y-97550000I250000J0D01*
G01*
X24375000Y-97550000D01*
G75*
G02*
X24625000Y-97800000I0J-250000D01*
G01*
X24625000Y-99050000D01*
G75*
G02*
X24375000Y-99300000I-250000J0D01*
G01*
X23625000Y-99300000D01*
G75*
G02*
X23375000Y-99050000I0J250000D01*
G01*
G37*
G36*
G01*
X39865000Y-72400000D02*
X39865000Y-73650000D01*
G75*
G02*
X39615000Y-73900000I-250000J0D01*
G01*
X38865000Y-73900000D01*
G75*
G02*
X38615000Y-73650000I0J250000D01*
G01*
X38615000Y-72400000D01*
G75*
G02*
X38865000Y-72150000I250000J0D01*
G01*
X39615000Y-72150000D01*
G75*
G02*
X39865000Y-72400000I0J-250000D01*
G01*
G37*
G36*
G01*
X42665000Y-72400000D02*
X42665000Y-73650000D01*
G75*
G02*
X42415000Y-73900000I-250000J0D01*
G01*
X41665000Y-73900000D01*
G75*
G02*
X41415000Y-73650000I0J250000D01*
G01*
X41415000Y-72400000D01*
G75*
G02*
X41665000Y-72150000I250000J0D01*
G01*
X42415000Y-72150000D01*
G75*
G02*
X42665000Y-72400000I0J-250000D01*
G01*
G37*
G36*
G01*
X39865000Y-74940000D02*
X39865000Y-76190000D01*
G75*
G02*
X39615000Y-76440000I-250000J0D01*
G01*
X38865000Y-76440000D01*
G75*
G02*
X38615000Y-76190000I0J250000D01*
G01*
X38615000Y-74940000D01*
G75*
G02*
X38865000Y-74690000I250000J0D01*
G01*
X39615000Y-74690000D01*
G75*
G02*
X39865000Y-74940000I0J-250000D01*
G01*
G37*
G36*
G01*
X42665000Y-74940000D02*
X42665000Y-76190000D01*
G75*
G02*
X42415000Y-76440000I-250000J0D01*
G01*
X41665000Y-76440000D01*
G75*
G02*
X41415000Y-76190000I0J250000D01*
G01*
X41415000Y-74940000D01*
G75*
G02*
X41665000Y-74690000I250000J0D01*
G01*
X42415000Y-74690000D01*
G75*
G02*
X42665000Y-74940000I0J-250000D01*
G01*
G37*
G36*
G01*
X36055000Y-90815000D02*
X36055000Y-92065000D01*
G75*
G02*
X35805000Y-92315000I-250000J0D01*
G01*
X35055000Y-92315000D01*
G75*
G02*
X34805000Y-92065000I0J250000D01*
G01*
X34805000Y-90815000D01*
G75*
G02*
X35055000Y-90565000I250000J0D01*
G01*
X35805000Y-90565000D01*
G75*
G02*
X36055000Y-90815000I0J-250000D01*
G01*
G37*
G36*
G01*
X38855000Y-90815000D02*
X38855000Y-92065000D01*
G75*
G02*
X38605000Y-92315000I-250000J0D01*
G01*
X37855000Y-92315000D01*
G75*
G02*
X37605000Y-92065000I0J250000D01*
G01*
X37605000Y-90815000D01*
G75*
G02*
X37855000Y-90565000I250000J0D01*
G01*
X38605000Y-90565000D01*
G75*
G02*
X38855000Y-90815000I0J-250000D01*
G01*
G37*
G36*
G01*
X36055000Y-93355000D02*
X36055000Y-94605000D01*
G75*
G02*
X35805000Y-94855000I-250000J0D01*
G01*
X35055000Y-94855000D01*
G75*
G02*
X34805000Y-94605000I0J250000D01*
G01*
X34805000Y-93355000D01*
G75*
G02*
X35055000Y-93105000I250000J0D01*
G01*
X35805000Y-93105000D01*
G75*
G02*
X36055000Y-93355000I0J-250000D01*
G01*
G37*
G36*
G01*
X38855000Y-93355000D02*
X38855000Y-94605000D01*
G75*
G02*
X38605000Y-94855000I-250000J0D01*
G01*
X37855000Y-94855000D01*
G75*
G02*
X37605000Y-94605000I0J250000D01*
G01*
X37605000Y-93355000D01*
G75*
G02*
X37855000Y-93105000I250000J0D01*
G01*
X38605000Y-93105000D01*
G75*
G02*
X38855000Y-93355000I0J-250000D01*
G01*
G37*
D10*
X19765000Y-82550000D03*
X19765000Y-85090000D03*
X31195000Y-85090000D03*
X31195000Y-82550000D03*
X19765000Y-87630000D03*
X31195000Y-87630000D03*
M02*
