G04 #@! TF.GenerationSoftware,KiCad,Pcbnew,5.1.5*
G04 #@! TF.CreationDate,2020-02-28T10:53:43-06:00*
G04 #@! TF.ProjectId,pcb,7063622e-6b69-4636-9164-5f7063625858,rev?*
G04 #@! TF.SameCoordinates,Original*
G04 #@! TF.FileFunction,Paste,Top*
G04 #@! TF.FilePolarity,Positive*
%FSLAX46Y46*%
G04 Gerber Fmt 4.6, Leading zero omitted, Abs format (unit mm)*
G04 Created by KiCad (PCBNEW 5.1.5) date 2020-02-28 10:53:43*
%MOMM*%
%LPD*%
G04 APERTURE LIST*
%ADD10C,0.100000*%
%ADD11R,1.524000X1.016000*%
G04 APERTURE END LIST*
D10*
G36*
X41664703Y-100665722D02*
G01*
X41679264Y-100667882D01*
X41693543Y-100671459D01*
X41707403Y-100676418D01*
X41720710Y-100682712D01*
X41733336Y-100690280D01*
X41745159Y-100699048D01*
X41756066Y-100708934D01*
X41765952Y-100719841D01*
X41774720Y-100731664D01*
X41782288Y-100744290D01*
X41788582Y-100757597D01*
X41793541Y-100771457D01*
X41797118Y-100785736D01*
X41799278Y-100800297D01*
X41800000Y-100815000D01*
X41800000Y-101115000D01*
X41799278Y-101129703D01*
X41797118Y-101144264D01*
X41793541Y-101158543D01*
X41788582Y-101172403D01*
X41782288Y-101185710D01*
X41774720Y-101198336D01*
X41765952Y-101210159D01*
X41756066Y-101221066D01*
X41745159Y-101230952D01*
X41733336Y-101239720D01*
X41720710Y-101247288D01*
X41707403Y-101253582D01*
X41693543Y-101258541D01*
X41679264Y-101262118D01*
X41664703Y-101264278D01*
X41650000Y-101265000D01*
X40000000Y-101265000D01*
X39985297Y-101264278D01*
X39970736Y-101262118D01*
X39956457Y-101258541D01*
X39942597Y-101253582D01*
X39929290Y-101247288D01*
X39916664Y-101239720D01*
X39904841Y-101230952D01*
X39893934Y-101221066D01*
X39884048Y-101210159D01*
X39875280Y-101198336D01*
X39867712Y-101185710D01*
X39861418Y-101172403D01*
X39856459Y-101158543D01*
X39852882Y-101144264D01*
X39850722Y-101129703D01*
X39850000Y-101115000D01*
X39850000Y-100815000D01*
X39850722Y-100800297D01*
X39852882Y-100785736D01*
X39856459Y-100771457D01*
X39861418Y-100757597D01*
X39867712Y-100744290D01*
X39875280Y-100731664D01*
X39884048Y-100719841D01*
X39893934Y-100708934D01*
X39904841Y-100699048D01*
X39916664Y-100690280D01*
X39929290Y-100682712D01*
X39942597Y-100676418D01*
X39956457Y-100671459D01*
X39970736Y-100667882D01*
X39985297Y-100665722D01*
X40000000Y-100665000D01*
X41650000Y-100665000D01*
X41664703Y-100665722D01*
G37*
G36*
X41664703Y-99395722D02*
G01*
X41679264Y-99397882D01*
X41693543Y-99401459D01*
X41707403Y-99406418D01*
X41720710Y-99412712D01*
X41733336Y-99420280D01*
X41745159Y-99429048D01*
X41756066Y-99438934D01*
X41765952Y-99449841D01*
X41774720Y-99461664D01*
X41782288Y-99474290D01*
X41788582Y-99487597D01*
X41793541Y-99501457D01*
X41797118Y-99515736D01*
X41799278Y-99530297D01*
X41800000Y-99545000D01*
X41800000Y-99845000D01*
X41799278Y-99859703D01*
X41797118Y-99874264D01*
X41793541Y-99888543D01*
X41788582Y-99902403D01*
X41782288Y-99915710D01*
X41774720Y-99928336D01*
X41765952Y-99940159D01*
X41756066Y-99951066D01*
X41745159Y-99960952D01*
X41733336Y-99969720D01*
X41720710Y-99977288D01*
X41707403Y-99983582D01*
X41693543Y-99988541D01*
X41679264Y-99992118D01*
X41664703Y-99994278D01*
X41650000Y-99995000D01*
X40000000Y-99995000D01*
X39985297Y-99994278D01*
X39970736Y-99992118D01*
X39956457Y-99988541D01*
X39942597Y-99983582D01*
X39929290Y-99977288D01*
X39916664Y-99969720D01*
X39904841Y-99960952D01*
X39893934Y-99951066D01*
X39884048Y-99940159D01*
X39875280Y-99928336D01*
X39867712Y-99915710D01*
X39861418Y-99902403D01*
X39856459Y-99888543D01*
X39852882Y-99874264D01*
X39850722Y-99859703D01*
X39850000Y-99845000D01*
X39850000Y-99545000D01*
X39850722Y-99530297D01*
X39852882Y-99515736D01*
X39856459Y-99501457D01*
X39861418Y-99487597D01*
X39867712Y-99474290D01*
X39875280Y-99461664D01*
X39884048Y-99449841D01*
X39893934Y-99438934D01*
X39904841Y-99429048D01*
X39916664Y-99420280D01*
X39929290Y-99412712D01*
X39942597Y-99406418D01*
X39956457Y-99401459D01*
X39970736Y-99397882D01*
X39985297Y-99395722D01*
X40000000Y-99395000D01*
X41650000Y-99395000D01*
X41664703Y-99395722D01*
G37*
G36*
X41664703Y-98125722D02*
G01*
X41679264Y-98127882D01*
X41693543Y-98131459D01*
X41707403Y-98136418D01*
X41720710Y-98142712D01*
X41733336Y-98150280D01*
X41745159Y-98159048D01*
X41756066Y-98168934D01*
X41765952Y-98179841D01*
X41774720Y-98191664D01*
X41782288Y-98204290D01*
X41788582Y-98217597D01*
X41793541Y-98231457D01*
X41797118Y-98245736D01*
X41799278Y-98260297D01*
X41800000Y-98275000D01*
X41800000Y-98575000D01*
X41799278Y-98589703D01*
X41797118Y-98604264D01*
X41793541Y-98618543D01*
X41788582Y-98632403D01*
X41782288Y-98645710D01*
X41774720Y-98658336D01*
X41765952Y-98670159D01*
X41756066Y-98681066D01*
X41745159Y-98690952D01*
X41733336Y-98699720D01*
X41720710Y-98707288D01*
X41707403Y-98713582D01*
X41693543Y-98718541D01*
X41679264Y-98722118D01*
X41664703Y-98724278D01*
X41650000Y-98725000D01*
X40000000Y-98725000D01*
X39985297Y-98724278D01*
X39970736Y-98722118D01*
X39956457Y-98718541D01*
X39942597Y-98713582D01*
X39929290Y-98707288D01*
X39916664Y-98699720D01*
X39904841Y-98690952D01*
X39893934Y-98681066D01*
X39884048Y-98670159D01*
X39875280Y-98658336D01*
X39867712Y-98645710D01*
X39861418Y-98632403D01*
X39856459Y-98618543D01*
X39852882Y-98604264D01*
X39850722Y-98589703D01*
X39850000Y-98575000D01*
X39850000Y-98275000D01*
X39850722Y-98260297D01*
X39852882Y-98245736D01*
X39856459Y-98231457D01*
X39861418Y-98217597D01*
X39867712Y-98204290D01*
X39875280Y-98191664D01*
X39884048Y-98179841D01*
X39893934Y-98168934D01*
X39904841Y-98159048D01*
X39916664Y-98150280D01*
X39929290Y-98142712D01*
X39942597Y-98136418D01*
X39956457Y-98131459D01*
X39970736Y-98127882D01*
X39985297Y-98125722D01*
X40000000Y-98125000D01*
X41650000Y-98125000D01*
X41664703Y-98125722D01*
G37*
G36*
X41664703Y-96855722D02*
G01*
X41679264Y-96857882D01*
X41693543Y-96861459D01*
X41707403Y-96866418D01*
X41720710Y-96872712D01*
X41733336Y-96880280D01*
X41745159Y-96889048D01*
X41756066Y-96898934D01*
X41765952Y-96909841D01*
X41774720Y-96921664D01*
X41782288Y-96934290D01*
X41788582Y-96947597D01*
X41793541Y-96961457D01*
X41797118Y-96975736D01*
X41799278Y-96990297D01*
X41800000Y-97005000D01*
X41800000Y-97305000D01*
X41799278Y-97319703D01*
X41797118Y-97334264D01*
X41793541Y-97348543D01*
X41788582Y-97362403D01*
X41782288Y-97375710D01*
X41774720Y-97388336D01*
X41765952Y-97400159D01*
X41756066Y-97411066D01*
X41745159Y-97420952D01*
X41733336Y-97429720D01*
X41720710Y-97437288D01*
X41707403Y-97443582D01*
X41693543Y-97448541D01*
X41679264Y-97452118D01*
X41664703Y-97454278D01*
X41650000Y-97455000D01*
X40000000Y-97455000D01*
X39985297Y-97454278D01*
X39970736Y-97452118D01*
X39956457Y-97448541D01*
X39942597Y-97443582D01*
X39929290Y-97437288D01*
X39916664Y-97429720D01*
X39904841Y-97420952D01*
X39893934Y-97411066D01*
X39884048Y-97400159D01*
X39875280Y-97388336D01*
X39867712Y-97375710D01*
X39861418Y-97362403D01*
X39856459Y-97348543D01*
X39852882Y-97334264D01*
X39850722Y-97319703D01*
X39850000Y-97305000D01*
X39850000Y-97005000D01*
X39850722Y-96990297D01*
X39852882Y-96975736D01*
X39856459Y-96961457D01*
X39861418Y-96947597D01*
X39867712Y-96934290D01*
X39875280Y-96921664D01*
X39884048Y-96909841D01*
X39893934Y-96898934D01*
X39904841Y-96889048D01*
X39916664Y-96880280D01*
X39929290Y-96872712D01*
X39942597Y-96866418D01*
X39956457Y-96861459D01*
X39970736Y-96857882D01*
X39985297Y-96855722D01*
X40000000Y-96855000D01*
X41650000Y-96855000D01*
X41664703Y-96855722D01*
G37*
G36*
X41664703Y-95585722D02*
G01*
X41679264Y-95587882D01*
X41693543Y-95591459D01*
X41707403Y-95596418D01*
X41720710Y-95602712D01*
X41733336Y-95610280D01*
X41745159Y-95619048D01*
X41756066Y-95628934D01*
X41765952Y-95639841D01*
X41774720Y-95651664D01*
X41782288Y-95664290D01*
X41788582Y-95677597D01*
X41793541Y-95691457D01*
X41797118Y-95705736D01*
X41799278Y-95720297D01*
X41800000Y-95735000D01*
X41800000Y-96035000D01*
X41799278Y-96049703D01*
X41797118Y-96064264D01*
X41793541Y-96078543D01*
X41788582Y-96092403D01*
X41782288Y-96105710D01*
X41774720Y-96118336D01*
X41765952Y-96130159D01*
X41756066Y-96141066D01*
X41745159Y-96150952D01*
X41733336Y-96159720D01*
X41720710Y-96167288D01*
X41707403Y-96173582D01*
X41693543Y-96178541D01*
X41679264Y-96182118D01*
X41664703Y-96184278D01*
X41650000Y-96185000D01*
X40000000Y-96185000D01*
X39985297Y-96184278D01*
X39970736Y-96182118D01*
X39956457Y-96178541D01*
X39942597Y-96173582D01*
X39929290Y-96167288D01*
X39916664Y-96159720D01*
X39904841Y-96150952D01*
X39893934Y-96141066D01*
X39884048Y-96130159D01*
X39875280Y-96118336D01*
X39867712Y-96105710D01*
X39861418Y-96092403D01*
X39856459Y-96078543D01*
X39852882Y-96064264D01*
X39850722Y-96049703D01*
X39850000Y-96035000D01*
X39850000Y-95735000D01*
X39850722Y-95720297D01*
X39852882Y-95705736D01*
X39856459Y-95691457D01*
X39861418Y-95677597D01*
X39867712Y-95664290D01*
X39875280Y-95651664D01*
X39884048Y-95639841D01*
X39893934Y-95628934D01*
X39904841Y-95619048D01*
X39916664Y-95610280D01*
X39929290Y-95602712D01*
X39942597Y-95596418D01*
X39956457Y-95591459D01*
X39970736Y-95587882D01*
X39985297Y-95585722D01*
X40000000Y-95585000D01*
X41650000Y-95585000D01*
X41664703Y-95585722D01*
G37*
G36*
X41664703Y-94315722D02*
G01*
X41679264Y-94317882D01*
X41693543Y-94321459D01*
X41707403Y-94326418D01*
X41720710Y-94332712D01*
X41733336Y-94340280D01*
X41745159Y-94349048D01*
X41756066Y-94358934D01*
X41765952Y-94369841D01*
X41774720Y-94381664D01*
X41782288Y-94394290D01*
X41788582Y-94407597D01*
X41793541Y-94421457D01*
X41797118Y-94435736D01*
X41799278Y-94450297D01*
X41800000Y-94465000D01*
X41800000Y-94765000D01*
X41799278Y-94779703D01*
X41797118Y-94794264D01*
X41793541Y-94808543D01*
X41788582Y-94822403D01*
X41782288Y-94835710D01*
X41774720Y-94848336D01*
X41765952Y-94860159D01*
X41756066Y-94871066D01*
X41745159Y-94880952D01*
X41733336Y-94889720D01*
X41720710Y-94897288D01*
X41707403Y-94903582D01*
X41693543Y-94908541D01*
X41679264Y-94912118D01*
X41664703Y-94914278D01*
X41650000Y-94915000D01*
X40000000Y-94915000D01*
X39985297Y-94914278D01*
X39970736Y-94912118D01*
X39956457Y-94908541D01*
X39942597Y-94903582D01*
X39929290Y-94897288D01*
X39916664Y-94889720D01*
X39904841Y-94880952D01*
X39893934Y-94871066D01*
X39884048Y-94860159D01*
X39875280Y-94848336D01*
X39867712Y-94835710D01*
X39861418Y-94822403D01*
X39856459Y-94808543D01*
X39852882Y-94794264D01*
X39850722Y-94779703D01*
X39850000Y-94765000D01*
X39850000Y-94465000D01*
X39850722Y-94450297D01*
X39852882Y-94435736D01*
X39856459Y-94421457D01*
X39861418Y-94407597D01*
X39867712Y-94394290D01*
X39875280Y-94381664D01*
X39884048Y-94369841D01*
X39893934Y-94358934D01*
X39904841Y-94349048D01*
X39916664Y-94340280D01*
X39929290Y-94332712D01*
X39942597Y-94326418D01*
X39956457Y-94321459D01*
X39970736Y-94317882D01*
X39985297Y-94315722D01*
X40000000Y-94315000D01*
X41650000Y-94315000D01*
X41664703Y-94315722D01*
G37*
G36*
X41664703Y-93045722D02*
G01*
X41679264Y-93047882D01*
X41693543Y-93051459D01*
X41707403Y-93056418D01*
X41720710Y-93062712D01*
X41733336Y-93070280D01*
X41745159Y-93079048D01*
X41756066Y-93088934D01*
X41765952Y-93099841D01*
X41774720Y-93111664D01*
X41782288Y-93124290D01*
X41788582Y-93137597D01*
X41793541Y-93151457D01*
X41797118Y-93165736D01*
X41799278Y-93180297D01*
X41800000Y-93195000D01*
X41800000Y-93495000D01*
X41799278Y-93509703D01*
X41797118Y-93524264D01*
X41793541Y-93538543D01*
X41788582Y-93552403D01*
X41782288Y-93565710D01*
X41774720Y-93578336D01*
X41765952Y-93590159D01*
X41756066Y-93601066D01*
X41745159Y-93610952D01*
X41733336Y-93619720D01*
X41720710Y-93627288D01*
X41707403Y-93633582D01*
X41693543Y-93638541D01*
X41679264Y-93642118D01*
X41664703Y-93644278D01*
X41650000Y-93645000D01*
X40000000Y-93645000D01*
X39985297Y-93644278D01*
X39970736Y-93642118D01*
X39956457Y-93638541D01*
X39942597Y-93633582D01*
X39929290Y-93627288D01*
X39916664Y-93619720D01*
X39904841Y-93610952D01*
X39893934Y-93601066D01*
X39884048Y-93590159D01*
X39875280Y-93578336D01*
X39867712Y-93565710D01*
X39861418Y-93552403D01*
X39856459Y-93538543D01*
X39852882Y-93524264D01*
X39850722Y-93509703D01*
X39850000Y-93495000D01*
X39850000Y-93195000D01*
X39850722Y-93180297D01*
X39852882Y-93165736D01*
X39856459Y-93151457D01*
X39861418Y-93137597D01*
X39867712Y-93124290D01*
X39875280Y-93111664D01*
X39884048Y-93099841D01*
X39893934Y-93088934D01*
X39904841Y-93079048D01*
X39916664Y-93070280D01*
X39929290Y-93062712D01*
X39942597Y-93056418D01*
X39956457Y-93051459D01*
X39970736Y-93047882D01*
X39985297Y-93045722D01*
X40000000Y-93045000D01*
X41650000Y-93045000D01*
X41664703Y-93045722D01*
G37*
G36*
X41664703Y-91775722D02*
G01*
X41679264Y-91777882D01*
X41693543Y-91781459D01*
X41707403Y-91786418D01*
X41720710Y-91792712D01*
X41733336Y-91800280D01*
X41745159Y-91809048D01*
X41756066Y-91818934D01*
X41765952Y-91829841D01*
X41774720Y-91841664D01*
X41782288Y-91854290D01*
X41788582Y-91867597D01*
X41793541Y-91881457D01*
X41797118Y-91895736D01*
X41799278Y-91910297D01*
X41800000Y-91925000D01*
X41800000Y-92225000D01*
X41799278Y-92239703D01*
X41797118Y-92254264D01*
X41793541Y-92268543D01*
X41788582Y-92282403D01*
X41782288Y-92295710D01*
X41774720Y-92308336D01*
X41765952Y-92320159D01*
X41756066Y-92331066D01*
X41745159Y-92340952D01*
X41733336Y-92349720D01*
X41720710Y-92357288D01*
X41707403Y-92363582D01*
X41693543Y-92368541D01*
X41679264Y-92372118D01*
X41664703Y-92374278D01*
X41650000Y-92375000D01*
X40000000Y-92375000D01*
X39985297Y-92374278D01*
X39970736Y-92372118D01*
X39956457Y-92368541D01*
X39942597Y-92363582D01*
X39929290Y-92357288D01*
X39916664Y-92349720D01*
X39904841Y-92340952D01*
X39893934Y-92331066D01*
X39884048Y-92320159D01*
X39875280Y-92308336D01*
X39867712Y-92295710D01*
X39861418Y-92282403D01*
X39856459Y-92268543D01*
X39852882Y-92254264D01*
X39850722Y-92239703D01*
X39850000Y-92225000D01*
X39850000Y-91925000D01*
X39850722Y-91910297D01*
X39852882Y-91895736D01*
X39856459Y-91881457D01*
X39861418Y-91867597D01*
X39867712Y-91854290D01*
X39875280Y-91841664D01*
X39884048Y-91829841D01*
X39893934Y-91818934D01*
X39904841Y-91809048D01*
X39916664Y-91800280D01*
X39929290Y-91792712D01*
X39942597Y-91786418D01*
X39956457Y-91781459D01*
X39970736Y-91777882D01*
X39985297Y-91775722D01*
X40000000Y-91775000D01*
X41650000Y-91775000D01*
X41664703Y-91775722D01*
G37*
G36*
X46614703Y-91775722D02*
G01*
X46629264Y-91777882D01*
X46643543Y-91781459D01*
X46657403Y-91786418D01*
X46670710Y-91792712D01*
X46683336Y-91800280D01*
X46695159Y-91809048D01*
X46706066Y-91818934D01*
X46715952Y-91829841D01*
X46724720Y-91841664D01*
X46732288Y-91854290D01*
X46738582Y-91867597D01*
X46743541Y-91881457D01*
X46747118Y-91895736D01*
X46749278Y-91910297D01*
X46750000Y-91925000D01*
X46750000Y-92225000D01*
X46749278Y-92239703D01*
X46747118Y-92254264D01*
X46743541Y-92268543D01*
X46738582Y-92282403D01*
X46732288Y-92295710D01*
X46724720Y-92308336D01*
X46715952Y-92320159D01*
X46706066Y-92331066D01*
X46695159Y-92340952D01*
X46683336Y-92349720D01*
X46670710Y-92357288D01*
X46657403Y-92363582D01*
X46643543Y-92368541D01*
X46629264Y-92372118D01*
X46614703Y-92374278D01*
X46600000Y-92375000D01*
X44950000Y-92375000D01*
X44935297Y-92374278D01*
X44920736Y-92372118D01*
X44906457Y-92368541D01*
X44892597Y-92363582D01*
X44879290Y-92357288D01*
X44866664Y-92349720D01*
X44854841Y-92340952D01*
X44843934Y-92331066D01*
X44834048Y-92320159D01*
X44825280Y-92308336D01*
X44817712Y-92295710D01*
X44811418Y-92282403D01*
X44806459Y-92268543D01*
X44802882Y-92254264D01*
X44800722Y-92239703D01*
X44800000Y-92225000D01*
X44800000Y-91925000D01*
X44800722Y-91910297D01*
X44802882Y-91895736D01*
X44806459Y-91881457D01*
X44811418Y-91867597D01*
X44817712Y-91854290D01*
X44825280Y-91841664D01*
X44834048Y-91829841D01*
X44843934Y-91818934D01*
X44854841Y-91809048D01*
X44866664Y-91800280D01*
X44879290Y-91792712D01*
X44892597Y-91786418D01*
X44906457Y-91781459D01*
X44920736Y-91777882D01*
X44935297Y-91775722D01*
X44950000Y-91775000D01*
X46600000Y-91775000D01*
X46614703Y-91775722D01*
G37*
G36*
X46614703Y-93045722D02*
G01*
X46629264Y-93047882D01*
X46643543Y-93051459D01*
X46657403Y-93056418D01*
X46670710Y-93062712D01*
X46683336Y-93070280D01*
X46695159Y-93079048D01*
X46706066Y-93088934D01*
X46715952Y-93099841D01*
X46724720Y-93111664D01*
X46732288Y-93124290D01*
X46738582Y-93137597D01*
X46743541Y-93151457D01*
X46747118Y-93165736D01*
X46749278Y-93180297D01*
X46750000Y-93195000D01*
X46750000Y-93495000D01*
X46749278Y-93509703D01*
X46747118Y-93524264D01*
X46743541Y-93538543D01*
X46738582Y-93552403D01*
X46732288Y-93565710D01*
X46724720Y-93578336D01*
X46715952Y-93590159D01*
X46706066Y-93601066D01*
X46695159Y-93610952D01*
X46683336Y-93619720D01*
X46670710Y-93627288D01*
X46657403Y-93633582D01*
X46643543Y-93638541D01*
X46629264Y-93642118D01*
X46614703Y-93644278D01*
X46600000Y-93645000D01*
X44950000Y-93645000D01*
X44935297Y-93644278D01*
X44920736Y-93642118D01*
X44906457Y-93638541D01*
X44892597Y-93633582D01*
X44879290Y-93627288D01*
X44866664Y-93619720D01*
X44854841Y-93610952D01*
X44843934Y-93601066D01*
X44834048Y-93590159D01*
X44825280Y-93578336D01*
X44817712Y-93565710D01*
X44811418Y-93552403D01*
X44806459Y-93538543D01*
X44802882Y-93524264D01*
X44800722Y-93509703D01*
X44800000Y-93495000D01*
X44800000Y-93195000D01*
X44800722Y-93180297D01*
X44802882Y-93165736D01*
X44806459Y-93151457D01*
X44811418Y-93137597D01*
X44817712Y-93124290D01*
X44825280Y-93111664D01*
X44834048Y-93099841D01*
X44843934Y-93088934D01*
X44854841Y-93079048D01*
X44866664Y-93070280D01*
X44879290Y-93062712D01*
X44892597Y-93056418D01*
X44906457Y-93051459D01*
X44920736Y-93047882D01*
X44935297Y-93045722D01*
X44950000Y-93045000D01*
X46600000Y-93045000D01*
X46614703Y-93045722D01*
G37*
G36*
X46614703Y-94315722D02*
G01*
X46629264Y-94317882D01*
X46643543Y-94321459D01*
X46657403Y-94326418D01*
X46670710Y-94332712D01*
X46683336Y-94340280D01*
X46695159Y-94349048D01*
X46706066Y-94358934D01*
X46715952Y-94369841D01*
X46724720Y-94381664D01*
X46732288Y-94394290D01*
X46738582Y-94407597D01*
X46743541Y-94421457D01*
X46747118Y-94435736D01*
X46749278Y-94450297D01*
X46750000Y-94465000D01*
X46750000Y-94765000D01*
X46749278Y-94779703D01*
X46747118Y-94794264D01*
X46743541Y-94808543D01*
X46738582Y-94822403D01*
X46732288Y-94835710D01*
X46724720Y-94848336D01*
X46715952Y-94860159D01*
X46706066Y-94871066D01*
X46695159Y-94880952D01*
X46683336Y-94889720D01*
X46670710Y-94897288D01*
X46657403Y-94903582D01*
X46643543Y-94908541D01*
X46629264Y-94912118D01*
X46614703Y-94914278D01*
X46600000Y-94915000D01*
X44950000Y-94915000D01*
X44935297Y-94914278D01*
X44920736Y-94912118D01*
X44906457Y-94908541D01*
X44892597Y-94903582D01*
X44879290Y-94897288D01*
X44866664Y-94889720D01*
X44854841Y-94880952D01*
X44843934Y-94871066D01*
X44834048Y-94860159D01*
X44825280Y-94848336D01*
X44817712Y-94835710D01*
X44811418Y-94822403D01*
X44806459Y-94808543D01*
X44802882Y-94794264D01*
X44800722Y-94779703D01*
X44800000Y-94765000D01*
X44800000Y-94465000D01*
X44800722Y-94450297D01*
X44802882Y-94435736D01*
X44806459Y-94421457D01*
X44811418Y-94407597D01*
X44817712Y-94394290D01*
X44825280Y-94381664D01*
X44834048Y-94369841D01*
X44843934Y-94358934D01*
X44854841Y-94349048D01*
X44866664Y-94340280D01*
X44879290Y-94332712D01*
X44892597Y-94326418D01*
X44906457Y-94321459D01*
X44920736Y-94317882D01*
X44935297Y-94315722D01*
X44950000Y-94315000D01*
X46600000Y-94315000D01*
X46614703Y-94315722D01*
G37*
G36*
X46614703Y-95585722D02*
G01*
X46629264Y-95587882D01*
X46643543Y-95591459D01*
X46657403Y-95596418D01*
X46670710Y-95602712D01*
X46683336Y-95610280D01*
X46695159Y-95619048D01*
X46706066Y-95628934D01*
X46715952Y-95639841D01*
X46724720Y-95651664D01*
X46732288Y-95664290D01*
X46738582Y-95677597D01*
X46743541Y-95691457D01*
X46747118Y-95705736D01*
X46749278Y-95720297D01*
X46750000Y-95735000D01*
X46750000Y-96035000D01*
X46749278Y-96049703D01*
X46747118Y-96064264D01*
X46743541Y-96078543D01*
X46738582Y-96092403D01*
X46732288Y-96105710D01*
X46724720Y-96118336D01*
X46715952Y-96130159D01*
X46706066Y-96141066D01*
X46695159Y-96150952D01*
X46683336Y-96159720D01*
X46670710Y-96167288D01*
X46657403Y-96173582D01*
X46643543Y-96178541D01*
X46629264Y-96182118D01*
X46614703Y-96184278D01*
X46600000Y-96185000D01*
X44950000Y-96185000D01*
X44935297Y-96184278D01*
X44920736Y-96182118D01*
X44906457Y-96178541D01*
X44892597Y-96173582D01*
X44879290Y-96167288D01*
X44866664Y-96159720D01*
X44854841Y-96150952D01*
X44843934Y-96141066D01*
X44834048Y-96130159D01*
X44825280Y-96118336D01*
X44817712Y-96105710D01*
X44811418Y-96092403D01*
X44806459Y-96078543D01*
X44802882Y-96064264D01*
X44800722Y-96049703D01*
X44800000Y-96035000D01*
X44800000Y-95735000D01*
X44800722Y-95720297D01*
X44802882Y-95705736D01*
X44806459Y-95691457D01*
X44811418Y-95677597D01*
X44817712Y-95664290D01*
X44825280Y-95651664D01*
X44834048Y-95639841D01*
X44843934Y-95628934D01*
X44854841Y-95619048D01*
X44866664Y-95610280D01*
X44879290Y-95602712D01*
X44892597Y-95596418D01*
X44906457Y-95591459D01*
X44920736Y-95587882D01*
X44935297Y-95585722D01*
X44950000Y-95585000D01*
X46600000Y-95585000D01*
X46614703Y-95585722D01*
G37*
G36*
X46614703Y-96855722D02*
G01*
X46629264Y-96857882D01*
X46643543Y-96861459D01*
X46657403Y-96866418D01*
X46670710Y-96872712D01*
X46683336Y-96880280D01*
X46695159Y-96889048D01*
X46706066Y-96898934D01*
X46715952Y-96909841D01*
X46724720Y-96921664D01*
X46732288Y-96934290D01*
X46738582Y-96947597D01*
X46743541Y-96961457D01*
X46747118Y-96975736D01*
X46749278Y-96990297D01*
X46750000Y-97005000D01*
X46750000Y-97305000D01*
X46749278Y-97319703D01*
X46747118Y-97334264D01*
X46743541Y-97348543D01*
X46738582Y-97362403D01*
X46732288Y-97375710D01*
X46724720Y-97388336D01*
X46715952Y-97400159D01*
X46706066Y-97411066D01*
X46695159Y-97420952D01*
X46683336Y-97429720D01*
X46670710Y-97437288D01*
X46657403Y-97443582D01*
X46643543Y-97448541D01*
X46629264Y-97452118D01*
X46614703Y-97454278D01*
X46600000Y-97455000D01*
X44950000Y-97455000D01*
X44935297Y-97454278D01*
X44920736Y-97452118D01*
X44906457Y-97448541D01*
X44892597Y-97443582D01*
X44879290Y-97437288D01*
X44866664Y-97429720D01*
X44854841Y-97420952D01*
X44843934Y-97411066D01*
X44834048Y-97400159D01*
X44825280Y-97388336D01*
X44817712Y-97375710D01*
X44811418Y-97362403D01*
X44806459Y-97348543D01*
X44802882Y-97334264D01*
X44800722Y-97319703D01*
X44800000Y-97305000D01*
X44800000Y-97005000D01*
X44800722Y-96990297D01*
X44802882Y-96975736D01*
X44806459Y-96961457D01*
X44811418Y-96947597D01*
X44817712Y-96934290D01*
X44825280Y-96921664D01*
X44834048Y-96909841D01*
X44843934Y-96898934D01*
X44854841Y-96889048D01*
X44866664Y-96880280D01*
X44879290Y-96872712D01*
X44892597Y-96866418D01*
X44906457Y-96861459D01*
X44920736Y-96857882D01*
X44935297Y-96855722D01*
X44950000Y-96855000D01*
X46600000Y-96855000D01*
X46614703Y-96855722D01*
G37*
G36*
X46614703Y-98125722D02*
G01*
X46629264Y-98127882D01*
X46643543Y-98131459D01*
X46657403Y-98136418D01*
X46670710Y-98142712D01*
X46683336Y-98150280D01*
X46695159Y-98159048D01*
X46706066Y-98168934D01*
X46715952Y-98179841D01*
X46724720Y-98191664D01*
X46732288Y-98204290D01*
X46738582Y-98217597D01*
X46743541Y-98231457D01*
X46747118Y-98245736D01*
X46749278Y-98260297D01*
X46750000Y-98275000D01*
X46750000Y-98575000D01*
X46749278Y-98589703D01*
X46747118Y-98604264D01*
X46743541Y-98618543D01*
X46738582Y-98632403D01*
X46732288Y-98645710D01*
X46724720Y-98658336D01*
X46715952Y-98670159D01*
X46706066Y-98681066D01*
X46695159Y-98690952D01*
X46683336Y-98699720D01*
X46670710Y-98707288D01*
X46657403Y-98713582D01*
X46643543Y-98718541D01*
X46629264Y-98722118D01*
X46614703Y-98724278D01*
X46600000Y-98725000D01*
X44950000Y-98725000D01*
X44935297Y-98724278D01*
X44920736Y-98722118D01*
X44906457Y-98718541D01*
X44892597Y-98713582D01*
X44879290Y-98707288D01*
X44866664Y-98699720D01*
X44854841Y-98690952D01*
X44843934Y-98681066D01*
X44834048Y-98670159D01*
X44825280Y-98658336D01*
X44817712Y-98645710D01*
X44811418Y-98632403D01*
X44806459Y-98618543D01*
X44802882Y-98604264D01*
X44800722Y-98589703D01*
X44800000Y-98575000D01*
X44800000Y-98275000D01*
X44800722Y-98260297D01*
X44802882Y-98245736D01*
X44806459Y-98231457D01*
X44811418Y-98217597D01*
X44817712Y-98204290D01*
X44825280Y-98191664D01*
X44834048Y-98179841D01*
X44843934Y-98168934D01*
X44854841Y-98159048D01*
X44866664Y-98150280D01*
X44879290Y-98142712D01*
X44892597Y-98136418D01*
X44906457Y-98131459D01*
X44920736Y-98127882D01*
X44935297Y-98125722D01*
X44950000Y-98125000D01*
X46600000Y-98125000D01*
X46614703Y-98125722D01*
G37*
G36*
X46614703Y-99395722D02*
G01*
X46629264Y-99397882D01*
X46643543Y-99401459D01*
X46657403Y-99406418D01*
X46670710Y-99412712D01*
X46683336Y-99420280D01*
X46695159Y-99429048D01*
X46706066Y-99438934D01*
X46715952Y-99449841D01*
X46724720Y-99461664D01*
X46732288Y-99474290D01*
X46738582Y-99487597D01*
X46743541Y-99501457D01*
X46747118Y-99515736D01*
X46749278Y-99530297D01*
X46750000Y-99545000D01*
X46750000Y-99845000D01*
X46749278Y-99859703D01*
X46747118Y-99874264D01*
X46743541Y-99888543D01*
X46738582Y-99902403D01*
X46732288Y-99915710D01*
X46724720Y-99928336D01*
X46715952Y-99940159D01*
X46706066Y-99951066D01*
X46695159Y-99960952D01*
X46683336Y-99969720D01*
X46670710Y-99977288D01*
X46657403Y-99983582D01*
X46643543Y-99988541D01*
X46629264Y-99992118D01*
X46614703Y-99994278D01*
X46600000Y-99995000D01*
X44950000Y-99995000D01*
X44935297Y-99994278D01*
X44920736Y-99992118D01*
X44906457Y-99988541D01*
X44892597Y-99983582D01*
X44879290Y-99977288D01*
X44866664Y-99969720D01*
X44854841Y-99960952D01*
X44843934Y-99951066D01*
X44834048Y-99940159D01*
X44825280Y-99928336D01*
X44817712Y-99915710D01*
X44811418Y-99902403D01*
X44806459Y-99888543D01*
X44802882Y-99874264D01*
X44800722Y-99859703D01*
X44800000Y-99845000D01*
X44800000Y-99545000D01*
X44800722Y-99530297D01*
X44802882Y-99515736D01*
X44806459Y-99501457D01*
X44811418Y-99487597D01*
X44817712Y-99474290D01*
X44825280Y-99461664D01*
X44834048Y-99449841D01*
X44843934Y-99438934D01*
X44854841Y-99429048D01*
X44866664Y-99420280D01*
X44879290Y-99412712D01*
X44892597Y-99406418D01*
X44906457Y-99401459D01*
X44920736Y-99397882D01*
X44935297Y-99395722D01*
X44950000Y-99395000D01*
X46600000Y-99395000D01*
X46614703Y-99395722D01*
G37*
G36*
X46614703Y-100665722D02*
G01*
X46629264Y-100667882D01*
X46643543Y-100671459D01*
X46657403Y-100676418D01*
X46670710Y-100682712D01*
X46683336Y-100690280D01*
X46695159Y-100699048D01*
X46706066Y-100708934D01*
X46715952Y-100719841D01*
X46724720Y-100731664D01*
X46732288Y-100744290D01*
X46738582Y-100757597D01*
X46743541Y-100771457D01*
X46747118Y-100785736D01*
X46749278Y-100800297D01*
X46750000Y-100815000D01*
X46750000Y-101115000D01*
X46749278Y-101129703D01*
X46747118Y-101144264D01*
X46743541Y-101158543D01*
X46738582Y-101172403D01*
X46732288Y-101185710D01*
X46724720Y-101198336D01*
X46715952Y-101210159D01*
X46706066Y-101221066D01*
X46695159Y-101230952D01*
X46683336Y-101239720D01*
X46670710Y-101247288D01*
X46657403Y-101253582D01*
X46643543Y-101258541D01*
X46629264Y-101262118D01*
X46614703Y-101264278D01*
X46600000Y-101265000D01*
X44950000Y-101265000D01*
X44935297Y-101264278D01*
X44920736Y-101262118D01*
X44906457Y-101258541D01*
X44892597Y-101253582D01*
X44879290Y-101247288D01*
X44866664Y-101239720D01*
X44854841Y-101230952D01*
X44843934Y-101221066D01*
X44834048Y-101210159D01*
X44825280Y-101198336D01*
X44817712Y-101185710D01*
X44811418Y-101172403D01*
X44806459Y-101158543D01*
X44802882Y-101144264D01*
X44800722Y-101129703D01*
X44800000Y-101115000D01*
X44800000Y-100815000D01*
X44800722Y-100800297D01*
X44802882Y-100785736D01*
X44806459Y-100771457D01*
X44811418Y-100757597D01*
X44817712Y-100744290D01*
X44825280Y-100731664D01*
X44834048Y-100719841D01*
X44843934Y-100708934D01*
X44854841Y-100699048D01*
X44866664Y-100690280D01*
X44879290Y-100682712D01*
X44892597Y-100676418D01*
X44906457Y-100671459D01*
X44920736Y-100667882D01*
X44935297Y-100665722D01*
X44950000Y-100665000D01*
X46600000Y-100665000D01*
X46614703Y-100665722D01*
G37*
G36*
X37734703Y-81615722D02*
G01*
X37749264Y-81617882D01*
X37763543Y-81621459D01*
X37777403Y-81626418D01*
X37790710Y-81632712D01*
X37803336Y-81640280D01*
X37815159Y-81649048D01*
X37826066Y-81658934D01*
X37835952Y-81669841D01*
X37844720Y-81681664D01*
X37852288Y-81694290D01*
X37858582Y-81707597D01*
X37863541Y-81721457D01*
X37867118Y-81735736D01*
X37869278Y-81750297D01*
X37870000Y-81765000D01*
X37870000Y-82065000D01*
X37869278Y-82079703D01*
X37867118Y-82094264D01*
X37863541Y-82108543D01*
X37858582Y-82122403D01*
X37852288Y-82135710D01*
X37844720Y-82148336D01*
X37835952Y-82160159D01*
X37826066Y-82171066D01*
X37815159Y-82180952D01*
X37803336Y-82189720D01*
X37790710Y-82197288D01*
X37777403Y-82203582D01*
X37763543Y-82208541D01*
X37749264Y-82212118D01*
X37734703Y-82214278D01*
X37720000Y-82215000D01*
X36070000Y-82215000D01*
X36055297Y-82214278D01*
X36040736Y-82212118D01*
X36026457Y-82208541D01*
X36012597Y-82203582D01*
X35999290Y-82197288D01*
X35986664Y-82189720D01*
X35974841Y-82180952D01*
X35963934Y-82171066D01*
X35954048Y-82160159D01*
X35945280Y-82148336D01*
X35937712Y-82135710D01*
X35931418Y-82122403D01*
X35926459Y-82108543D01*
X35922882Y-82094264D01*
X35920722Y-82079703D01*
X35920000Y-82065000D01*
X35920000Y-81765000D01*
X35920722Y-81750297D01*
X35922882Y-81735736D01*
X35926459Y-81721457D01*
X35931418Y-81707597D01*
X35937712Y-81694290D01*
X35945280Y-81681664D01*
X35954048Y-81669841D01*
X35963934Y-81658934D01*
X35974841Y-81649048D01*
X35986664Y-81640280D01*
X35999290Y-81632712D01*
X36012597Y-81626418D01*
X36026457Y-81621459D01*
X36040736Y-81617882D01*
X36055297Y-81615722D01*
X36070000Y-81615000D01*
X37720000Y-81615000D01*
X37734703Y-81615722D01*
G37*
G36*
X37734703Y-80345722D02*
G01*
X37749264Y-80347882D01*
X37763543Y-80351459D01*
X37777403Y-80356418D01*
X37790710Y-80362712D01*
X37803336Y-80370280D01*
X37815159Y-80379048D01*
X37826066Y-80388934D01*
X37835952Y-80399841D01*
X37844720Y-80411664D01*
X37852288Y-80424290D01*
X37858582Y-80437597D01*
X37863541Y-80451457D01*
X37867118Y-80465736D01*
X37869278Y-80480297D01*
X37870000Y-80495000D01*
X37870000Y-80795000D01*
X37869278Y-80809703D01*
X37867118Y-80824264D01*
X37863541Y-80838543D01*
X37858582Y-80852403D01*
X37852288Y-80865710D01*
X37844720Y-80878336D01*
X37835952Y-80890159D01*
X37826066Y-80901066D01*
X37815159Y-80910952D01*
X37803336Y-80919720D01*
X37790710Y-80927288D01*
X37777403Y-80933582D01*
X37763543Y-80938541D01*
X37749264Y-80942118D01*
X37734703Y-80944278D01*
X37720000Y-80945000D01*
X36070000Y-80945000D01*
X36055297Y-80944278D01*
X36040736Y-80942118D01*
X36026457Y-80938541D01*
X36012597Y-80933582D01*
X35999290Y-80927288D01*
X35986664Y-80919720D01*
X35974841Y-80910952D01*
X35963934Y-80901066D01*
X35954048Y-80890159D01*
X35945280Y-80878336D01*
X35937712Y-80865710D01*
X35931418Y-80852403D01*
X35926459Y-80838543D01*
X35922882Y-80824264D01*
X35920722Y-80809703D01*
X35920000Y-80795000D01*
X35920000Y-80495000D01*
X35920722Y-80480297D01*
X35922882Y-80465736D01*
X35926459Y-80451457D01*
X35931418Y-80437597D01*
X35937712Y-80424290D01*
X35945280Y-80411664D01*
X35954048Y-80399841D01*
X35963934Y-80388934D01*
X35974841Y-80379048D01*
X35986664Y-80370280D01*
X35999290Y-80362712D01*
X36012597Y-80356418D01*
X36026457Y-80351459D01*
X36040736Y-80347882D01*
X36055297Y-80345722D01*
X36070000Y-80345000D01*
X37720000Y-80345000D01*
X37734703Y-80345722D01*
G37*
G36*
X37734703Y-79075722D02*
G01*
X37749264Y-79077882D01*
X37763543Y-79081459D01*
X37777403Y-79086418D01*
X37790710Y-79092712D01*
X37803336Y-79100280D01*
X37815159Y-79109048D01*
X37826066Y-79118934D01*
X37835952Y-79129841D01*
X37844720Y-79141664D01*
X37852288Y-79154290D01*
X37858582Y-79167597D01*
X37863541Y-79181457D01*
X37867118Y-79195736D01*
X37869278Y-79210297D01*
X37870000Y-79225000D01*
X37870000Y-79525000D01*
X37869278Y-79539703D01*
X37867118Y-79554264D01*
X37863541Y-79568543D01*
X37858582Y-79582403D01*
X37852288Y-79595710D01*
X37844720Y-79608336D01*
X37835952Y-79620159D01*
X37826066Y-79631066D01*
X37815159Y-79640952D01*
X37803336Y-79649720D01*
X37790710Y-79657288D01*
X37777403Y-79663582D01*
X37763543Y-79668541D01*
X37749264Y-79672118D01*
X37734703Y-79674278D01*
X37720000Y-79675000D01*
X36070000Y-79675000D01*
X36055297Y-79674278D01*
X36040736Y-79672118D01*
X36026457Y-79668541D01*
X36012597Y-79663582D01*
X35999290Y-79657288D01*
X35986664Y-79649720D01*
X35974841Y-79640952D01*
X35963934Y-79631066D01*
X35954048Y-79620159D01*
X35945280Y-79608336D01*
X35937712Y-79595710D01*
X35931418Y-79582403D01*
X35926459Y-79568543D01*
X35922882Y-79554264D01*
X35920722Y-79539703D01*
X35920000Y-79525000D01*
X35920000Y-79225000D01*
X35920722Y-79210297D01*
X35922882Y-79195736D01*
X35926459Y-79181457D01*
X35931418Y-79167597D01*
X35937712Y-79154290D01*
X35945280Y-79141664D01*
X35954048Y-79129841D01*
X35963934Y-79118934D01*
X35974841Y-79109048D01*
X35986664Y-79100280D01*
X35999290Y-79092712D01*
X36012597Y-79086418D01*
X36026457Y-79081459D01*
X36040736Y-79077882D01*
X36055297Y-79075722D01*
X36070000Y-79075000D01*
X37720000Y-79075000D01*
X37734703Y-79075722D01*
G37*
G36*
X37734703Y-77805722D02*
G01*
X37749264Y-77807882D01*
X37763543Y-77811459D01*
X37777403Y-77816418D01*
X37790710Y-77822712D01*
X37803336Y-77830280D01*
X37815159Y-77839048D01*
X37826066Y-77848934D01*
X37835952Y-77859841D01*
X37844720Y-77871664D01*
X37852288Y-77884290D01*
X37858582Y-77897597D01*
X37863541Y-77911457D01*
X37867118Y-77925736D01*
X37869278Y-77940297D01*
X37870000Y-77955000D01*
X37870000Y-78255000D01*
X37869278Y-78269703D01*
X37867118Y-78284264D01*
X37863541Y-78298543D01*
X37858582Y-78312403D01*
X37852288Y-78325710D01*
X37844720Y-78338336D01*
X37835952Y-78350159D01*
X37826066Y-78361066D01*
X37815159Y-78370952D01*
X37803336Y-78379720D01*
X37790710Y-78387288D01*
X37777403Y-78393582D01*
X37763543Y-78398541D01*
X37749264Y-78402118D01*
X37734703Y-78404278D01*
X37720000Y-78405000D01*
X36070000Y-78405000D01*
X36055297Y-78404278D01*
X36040736Y-78402118D01*
X36026457Y-78398541D01*
X36012597Y-78393582D01*
X35999290Y-78387288D01*
X35986664Y-78379720D01*
X35974841Y-78370952D01*
X35963934Y-78361066D01*
X35954048Y-78350159D01*
X35945280Y-78338336D01*
X35937712Y-78325710D01*
X35931418Y-78312403D01*
X35926459Y-78298543D01*
X35922882Y-78284264D01*
X35920722Y-78269703D01*
X35920000Y-78255000D01*
X35920000Y-77955000D01*
X35920722Y-77940297D01*
X35922882Y-77925736D01*
X35926459Y-77911457D01*
X35931418Y-77897597D01*
X35937712Y-77884290D01*
X35945280Y-77871664D01*
X35954048Y-77859841D01*
X35963934Y-77848934D01*
X35974841Y-77839048D01*
X35986664Y-77830280D01*
X35999290Y-77822712D01*
X36012597Y-77816418D01*
X36026457Y-77811459D01*
X36040736Y-77807882D01*
X36055297Y-77805722D01*
X36070000Y-77805000D01*
X37720000Y-77805000D01*
X37734703Y-77805722D01*
G37*
G36*
X37734703Y-76535722D02*
G01*
X37749264Y-76537882D01*
X37763543Y-76541459D01*
X37777403Y-76546418D01*
X37790710Y-76552712D01*
X37803336Y-76560280D01*
X37815159Y-76569048D01*
X37826066Y-76578934D01*
X37835952Y-76589841D01*
X37844720Y-76601664D01*
X37852288Y-76614290D01*
X37858582Y-76627597D01*
X37863541Y-76641457D01*
X37867118Y-76655736D01*
X37869278Y-76670297D01*
X37870000Y-76685000D01*
X37870000Y-76985000D01*
X37869278Y-76999703D01*
X37867118Y-77014264D01*
X37863541Y-77028543D01*
X37858582Y-77042403D01*
X37852288Y-77055710D01*
X37844720Y-77068336D01*
X37835952Y-77080159D01*
X37826066Y-77091066D01*
X37815159Y-77100952D01*
X37803336Y-77109720D01*
X37790710Y-77117288D01*
X37777403Y-77123582D01*
X37763543Y-77128541D01*
X37749264Y-77132118D01*
X37734703Y-77134278D01*
X37720000Y-77135000D01*
X36070000Y-77135000D01*
X36055297Y-77134278D01*
X36040736Y-77132118D01*
X36026457Y-77128541D01*
X36012597Y-77123582D01*
X35999290Y-77117288D01*
X35986664Y-77109720D01*
X35974841Y-77100952D01*
X35963934Y-77091066D01*
X35954048Y-77080159D01*
X35945280Y-77068336D01*
X35937712Y-77055710D01*
X35931418Y-77042403D01*
X35926459Y-77028543D01*
X35922882Y-77014264D01*
X35920722Y-76999703D01*
X35920000Y-76985000D01*
X35920000Y-76685000D01*
X35920722Y-76670297D01*
X35922882Y-76655736D01*
X35926459Y-76641457D01*
X35931418Y-76627597D01*
X35937712Y-76614290D01*
X35945280Y-76601664D01*
X35954048Y-76589841D01*
X35963934Y-76578934D01*
X35974841Y-76569048D01*
X35986664Y-76560280D01*
X35999290Y-76552712D01*
X36012597Y-76546418D01*
X36026457Y-76541459D01*
X36040736Y-76537882D01*
X36055297Y-76535722D01*
X36070000Y-76535000D01*
X37720000Y-76535000D01*
X37734703Y-76535722D01*
G37*
G36*
X37734703Y-75265722D02*
G01*
X37749264Y-75267882D01*
X37763543Y-75271459D01*
X37777403Y-75276418D01*
X37790710Y-75282712D01*
X37803336Y-75290280D01*
X37815159Y-75299048D01*
X37826066Y-75308934D01*
X37835952Y-75319841D01*
X37844720Y-75331664D01*
X37852288Y-75344290D01*
X37858582Y-75357597D01*
X37863541Y-75371457D01*
X37867118Y-75385736D01*
X37869278Y-75400297D01*
X37870000Y-75415000D01*
X37870000Y-75715000D01*
X37869278Y-75729703D01*
X37867118Y-75744264D01*
X37863541Y-75758543D01*
X37858582Y-75772403D01*
X37852288Y-75785710D01*
X37844720Y-75798336D01*
X37835952Y-75810159D01*
X37826066Y-75821066D01*
X37815159Y-75830952D01*
X37803336Y-75839720D01*
X37790710Y-75847288D01*
X37777403Y-75853582D01*
X37763543Y-75858541D01*
X37749264Y-75862118D01*
X37734703Y-75864278D01*
X37720000Y-75865000D01*
X36070000Y-75865000D01*
X36055297Y-75864278D01*
X36040736Y-75862118D01*
X36026457Y-75858541D01*
X36012597Y-75853582D01*
X35999290Y-75847288D01*
X35986664Y-75839720D01*
X35974841Y-75830952D01*
X35963934Y-75821066D01*
X35954048Y-75810159D01*
X35945280Y-75798336D01*
X35937712Y-75785710D01*
X35931418Y-75772403D01*
X35926459Y-75758543D01*
X35922882Y-75744264D01*
X35920722Y-75729703D01*
X35920000Y-75715000D01*
X35920000Y-75415000D01*
X35920722Y-75400297D01*
X35922882Y-75385736D01*
X35926459Y-75371457D01*
X35931418Y-75357597D01*
X35937712Y-75344290D01*
X35945280Y-75331664D01*
X35954048Y-75319841D01*
X35963934Y-75308934D01*
X35974841Y-75299048D01*
X35986664Y-75290280D01*
X35999290Y-75282712D01*
X36012597Y-75276418D01*
X36026457Y-75271459D01*
X36040736Y-75267882D01*
X36055297Y-75265722D01*
X36070000Y-75265000D01*
X37720000Y-75265000D01*
X37734703Y-75265722D01*
G37*
G36*
X37734703Y-73995722D02*
G01*
X37749264Y-73997882D01*
X37763543Y-74001459D01*
X37777403Y-74006418D01*
X37790710Y-74012712D01*
X37803336Y-74020280D01*
X37815159Y-74029048D01*
X37826066Y-74038934D01*
X37835952Y-74049841D01*
X37844720Y-74061664D01*
X37852288Y-74074290D01*
X37858582Y-74087597D01*
X37863541Y-74101457D01*
X37867118Y-74115736D01*
X37869278Y-74130297D01*
X37870000Y-74145000D01*
X37870000Y-74445000D01*
X37869278Y-74459703D01*
X37867118Y-74474264D01*
X37863541Y-74488543D01*
X37858582Y-74502403D01*
X37852288Y-74515710D01*
X37844720Y-74528336D01*
X37835952Y-74540159D01*
X37826066Y-74551066D01*
X37815159Y-74560952D01*
X37803336Y-74569720D01*
X37790710Y-74577288D01*
X37777403Y-74583582D01*
X37763543Y-74588541D01*
X37749264Y-74592118D01*
X37734703Y-74594278D01*
X37720000Y-74595000D01*
X36070000Y-74595000D01*
X36055297Y-74594278D01*
X36040736Y-74592118D01*
X36026457Y-74588541D01*
X36012597Y-74583582D01*
X35999290Y-74577288D01*
X35986664Y-74569720D01*
X35974841Y-74560952D01*
X35963934Y-74551066D01*
X35954048Y-74540159D01*
X35945280Y-74528336D01*
X35937712Y-74515710D01*
X35931418Y-74502403D01*
X35926459Y-74488543D01*
X35922882Y-74474264D01*
X35920722Y-74459703D01*
X35920000Y-74445000D01*
X35920000Y-74145000D01*
X35920722Y-74130297D01*
X35922882Y-74115736D01*
X35926459Y-74101457D01*
X35931418Y-74087597D01*
X35937712Y-74074290D01*
X35945280Y-74061664D01*
X35954048Y-74049841D01*
X35963934Y-74038934D01*
X35974841Y-74029048D01*
X35986664Y-74020280D01*
X35999290Y-74012712D01*
X36012597Y-74006418D01*
X36026457Y-74001459D01*
X36040736Y-73997882D01*
X36055297Y-73995722D01*
X36070000Y-73995000D01*
X37720000Y-73995000D01*
X37734703Y-73995722D01*
G37*
G36*
X37734703Y-72725722D02*
G01*
X37749264Y-72727882D01*
X37763543Y-72731459D01*
X37777403Y-72736418D01*
X37790710Y-72742712D01*
X37803336Y-72750280D01*
X37815159Y-72759048D01*
X37826066Y-72768934D01*
X37835952Y-72779841D01*
X37844720Y-72791664D01*
X37852288Y-72804290D01*
X37858582Y-72817597D01*
X37863541Y-72831457D01*
X37867118Y-72845736D01*
X37869278Y-72860297D01*
X37870000Y-72875000D01*
X37870000Y-73175000D01*
X37869278Y-73189703D01*
X37867118Y-73204264D01*
X37863541Y-73218543D01*
X37858582Y-73232403D01*
X37852288Y-73245710D01*
X37844720Y-73258336D01*
X37835952Y-73270159D01*
X37826066Y-73281066D01*
X37815159Y-73290952D01*
X37803336Y-73299720D01*
X37790710Y-73307288D01*
X37777403Y-73313582D01*
X37763543Y-73318541D01*
X37749264Y-73322118D01*
X37734703Y-73324278D01*
X37720000Y-73325000D01*
X36070000Y-73325000D01*
X36055297Y-73324278D01*
X36040736Y-73322118D01*
X36026457Y-73318541D01*
X36012597Y-73313582D01*
X35999290Y-73307288D01*
X35986664Y-73299720D01*
X35974841Y-73290952D01*
X35963934Y-73281066D01*
X35954048Y-73270159D01*
X35945280Y-73258336D01*
X35937712Y-73245710D01*
X35931418Y-73232403D01*
X35926459Y-73218543D01*
X35922882Y-73204264D01*
X35920722Y-73189703D01*
X35920000Y-73175000D01*
X35920000Y-72875000D01*
X35920722Y-72860297D01*
X35922882Y-72845736D01*
X35926459Y-72831457D01*
X35931418Y-72817597D01*
X35937712Y-72804290D01*
X35945280Y-72791664D01*
X35954048Y-72779841D01*
X35963934Y-72768934D01*
X35974841Y-72759048D01*
X35986664Y-72750280D01*
X35999290Y-72742712D01*
X36012597Y-72736418D01*
X36026457Y-72731459D01*
X36040736Y-72727882D01*
X36055297Y-72725722D01*
X36070000Y-72725000D01*
X37720000Y-72725000D01*
X37734703Y-72725722D01*
G37*
G36*
X42684703Y-72725722D02*
G01*
X42699264Y-72727882D01*
X42713543Y-72731459D01*
X42727403Y-72736418D01*
X42740710Y-72742712D01*
X42753336Y-72750280D01*
X42765159Y-72759048D01*
X42776066Y-72768934D01*
X42785952Y-72779841D01*
X42794720Y-72791664D01*
X42802288Y-72804290D01*
X42808582Y-72817597D01*
X42813541Y-72831457D01*
X42817118Y-72845736D01*
X42819278Y-72860297D01*
X42820000Y-72875000D01*
X42820000Y-73175000D01*
X42819278Y-73189703D01*
X42817118Y-73204264D01*
X42813541Y-73218543D01*
X42808582Y-73232403D01*
X42802288Y-73245710D01*
X42794720Y-73258336D01*
X42785952Y-73270159D01*
X42776066Y-73281066D01*
X42765159Y-73290952D01*
X42753336Y-73299720D01*
X42740710Y-73307288D01*
X42727403Y-73313582D01*
X42713543Y-73318541D01*
X42699264Y-73322118D01*
X42684703Y-73324278D01*
X42670000Y-73325000D01*
X41020000Y-73325000D01*
X41005297Y-73324278D01*
X40990736Y-73322118D01*
X40976457Y-73318541D01*
X40962597Y-73313582D01*
X40949290Y-73307288D01*
X40936664Y-73299720D01*
X40924841Y-73290952D01*
X40913934Y-73281066D01*
X40904048Y-73270159D01*
X40895280Y-73258336D01*
X40887712Y-73245710D01*
X40881418Y-73232403D01*
X40876459Y-73218543D01*
X40872882Y-73204264D01*
X40870722Y-73189703D01*
X40870000Y-73175000D01*
X40870000Y-72875000D01*
X40870722Y-72860297D01*
X40872882Y-72845736D01*
X40876459Y-72831457D01*
X40881418Y-72817597D01*
X40887712Y-72804290D01*
X40895280Y-72791664D01*
X40904048Y-72779841D01*
X40913934Y-72768934D01*
X40924841Y-72759048D01*
X40936664Y-72750280D01*
X40949290Y-72742712D01*
X40962597Y-72736418D01*
X40976457Y-72731459D01*
X40990736Y-72727882D01*
X41005297Y-72725722D01*
X41020000Y-72725000D01*
X42670000Y-72725000D01*
X42684703Y-72725722D01*
G37*
G36*
X42684703Y-73995722D02*
G01*
X42699264Y-73997882D01*
X42713543Y-74001459D01*
X42727403Y-74006418D01*
X42740710Y-74012712D01*
X42753336Y-74020280D01*
X42765159Y-74029048D01*
X42776066Y-74038934D01*
X42785952Y-74049841D01*
X42794720Y-74061664D01*
X42802288Y-74074290D01*
X42808582Y-74087597D01*
X42813541Y-74101457D01*
X42817118Y-74115736D01*
X42819278Y-74130297D01*
X42820000Y-74145000D01*
X42820000Y-74445000D01*
X42819278Y-74459703D01*
X42817118Y-74474264D01*
X42813541Y-74488543D01*
X42808582Y-74502403D01*
X42802288Y-74515710D01*
X42794720Y-74528336D01*
X42785952Y-74540159D01*
X42776066Y-74551066D01*
X42765159Y-74560952D01*
X42753336Y-74569720D01*
X42740710Y-74577288D01*
X42727403Y-74583582D01*
X42713543Y-74588541D01*
X42699264Y-74592118D01*
X42684703Y-74594278D01*
X42670000Y-74595000D01*
X41020000Y-74595000D01*
X41005297Y-74594278D01*
X40990736Y-74592118D01*
X40976457Y-74588541D01*
X40962597Y-74583582D01*
X40949290Y-74577288D01*
X40936664Y-74569720D01*
X40924841Y-74560952D01*
X40913934Y-74551066D01*
X40904048Y-74540159D01*
X40895280Y-74528336D01*
X40887712Y-74515710D01*
X40881418Y-74502403D01*
X40876459Y-74488543D01*
X40872882Y-74474264D01*
X40870722Y-74459703D01*
X40870000Y-74445000D01*
X40870000Y-74145000D01*
X40870722Y-74130297D01*
X40872882Y-74115736D01*
X40876459Y-74101457D01*
X40881418Y-74087597D01*
X40887712Y-74074290D01*
X40895280Y-74061664D01*
X40904048Y-74049841D01*
X40913934Y-74038934D01*
X40924841Y-74029048D01*
X40936664Y-74020280D01*
X40949290Y-74012712D01*
X40962597Y-74006418D01*
X40976457Y-74001459D01*
X40990736Y-73997882D01*
X41005297Y-73995722D01*
X41020000Y-73995000D01*
X42670000Y-73995000D01*
X42684703Y-73995722D01*
G37*
G36*
X42684703Y-75265722D02*
G01*
X42699264Y-75267882D01*
X42713543Y-75271459D01*
X42727403Y-75276418D01*
X42740710Y-75282712D01*
X42753336Y-75290280D01*
X42765159Y-75299048D01*
X42776066Y-75308934D01*
X42785952Y-75319841D01*
X42794720Y-75331664D01*
X42802288Y-75344290D01*
X42808582Y-75357597D01*
X42813541Y-75371457D01*
X42817118Y-75385736D01*
X42819278Y-75400297D01*
X42820000Y-75415000D01*
X42820000Y-75715000D01*
X42819278Y-75729703D01*
X42817118Y-75744264D01*
X42813541Y-75758543D01*
X42808582Y-75772403D01*
X42802288Y-75785710D01*
X42794720Y-75798336D01*
X42785952Y-75810159D01*
X42776066Y-75821066D01*
X42765159Y-75830952D01*
X42753336Y-75839720D01*
X42740710Y-75847288D01*
X42727403Y-75853582D01*
X42713543Y-75858541D01*
X42699264Y-75862118D01*
X42684703Y-75864278D01*
X42670000Y-75865000D01*
X41020000Y-75865000D01*
X41005297Y-75864278D01*
X40990736Y-75862118D01*
X40976457Y-75858541D01*
X40962597Y-75853582D01*
X40949290Y-75847288D01*
X40936664Y-75839720D01*
X40924841Y-75830952D01*
X40913934Y-75821066D01*
X40904048Y-75810159D01*
X40895280Y-75798336D01*
X40887712Y-75785710D01*
X40881418Y-75772403D01*
X40876459Y-75758543D01*
X40872882Y-75744264D01*
X40870722Y-75729703D01*
X40870000Y-75715000D01*
X40870000Y-75415000D01*
X40870722Y-75400297D01*
X40872882Y-75385736D01*
X40876459Y-75371457D01*
X40881418Y-75357597D01*
X40887712Y-75344290D01*
X40895280Y-75331664D01*
X40904048Y-75319841D01*
X40913934Y-75308934D01*
X40924841Y-75299048D01*
X40936664Y-75290280D01*
X40949290Y-75282712D01*
X40962597Y-75276418D01*
X40976457Y-75271459D01*
X40990736Y-75267882D01*
X41005297Y-75265722D01*
X41020000Y-75265000D01*
X42670000Y-75265000D01*
X42684703Y-75265722D01*
G37*
G36*
X42684703Y-76535722D02*
G01*
X42699264Y-76537882D01*
X42713543Y-76541459D01*
X42727403Y-76546418D01*
X42740710Y-76552712D01*
X42753336Y-76560280D01*
X42765159Y-76569048D01*
X42776066Y-76578934D01*
X42785952Y-76589841D01*
X42794720Y-76601664D01*
X42802288Y-76614290D01*
X42808582Y-76627597D01*
X42813541Y-76641457D01*
X42817118Y-76655736D01*
X42819278Y-76670297D01*
X42820000Y-76685000D01*
X42820000Y-76985000D01*
X42819278Y-76999703D01*
X42817118Y-77014264D01*
X42813541Y-77028543D01*
X42808582Y-77042403D01*
X42802288Y-77055710D01*
X42794720Y-77068336D01*
X42785952Y-77080159D01*
X42776066Y-77091066D01*
X42765159Y-77100952D01*
X42753336Y-77109720D01*
X42740710Y-77117288D01*
X42727403Y-77123582D01*
X42713543Y-77128541D01*
X42699264Y-77132118D01*
X42684703Y-77134278D01*
X42670000Y-77135000D01*
X41020000Y-77135000D01*
X41005297Y-77134278D01*
X40990736Y-77132118D01*
X40976457Y-77128541D01*
X40962597Y-77123582D01*
X40949290Y-77117288D01*
X40936664Y-77109720D01*
X40924841Y-77100952D01*
X40913934Y-77091066D01*
X40904048Y-77080159D01*
X40895280Y-77068336D01*
X40887712Y-77055710D01*
X40881418Y-77042403D01*
X40876459Y-77028543D01*
X40872882Y-77014264D01*
X40870722Y-76999703D01*
X40870000Y-76985000D01*
X40870000Y-76685000D01*
X40870722Y-76670297D01*
X40872882Y-76655736D01*
X40876459Y-76641457D01*
X40881418Y-76627597D01*
X40887712Y-76614290D01*
X40895280Y-76601664D01*
X40904048Y-76589841D01*
X40913934Y-76578934D01*
X40924841Y-76569048D01*
X40936664Y-76560280D01*
X40949290Y-76552712D01*
X40962597Y-76546418D01*
X40976457Y-76541459D01*
X40990736Y-76537882D01*
X41005297Y-76535722D01*
X41020000Y-76535000D01*
X42670000Y-76535000D01*
X42684703Y-76535722D01*
G37*
G36*
X42684703Y-77805722D02*
G01*
X42699264Y-77807882D01*
X42713543Y-77811459D01*
X42727403Y-77816418D01*
X42740710Y-77822712D01*
X42753336Y-77830280D01*
X42765159Y-77839048D01*
X42776066Y-77848934D01*
X42785952Y-77859841D01*
X42794720Y-77871664D01*
X42802288Y-77884290D01*
X42808582Y-77897597D01*
X42813541Y-77911457D01*
X42817118Y-77925736D01*
X42819278Y-77940297D01*
X42820000Y-77955000D01*
X42820000Y-78255000D01*
X42819278Y-78269703D01*
X42817118Y-78284264D01*
X42813541Y-78298543D01*
X42808582Y-78312403D01*
X42802288Y-78325710D01*
X42794720Y-78338336D01*
X42785952Y-78350159D01*
X42776066Y-78361066D01*
X42765159Y-78370952D01*
X42753336Y-78379720D01*
X42740710Y-78387288D01*
X42727403Y-78393582D01*
X42713543Y-78398541D01*
X42699264Y-78402118D01*
X42684703Y-78404278D01*
X42670000Y-78405000D01*
X41020000Y-78405000D01*
X41005297Y-78404278D01*
X40990736Y-78402118D01*
X40976457Y-78398541D01*
X40962597Y-78393582D01*
X40949290Y-78387288D01*
X40936664Y-78379720D01*
X40924841Y-78370952D01*
X40913934Y-78361066D01*
X40904048Y-78350159D01*
X40895280Y-78338336D01*
X40887712Y-78325710D01*
X40881418Y-78312403D01*
X40876459Y-78298543D01*
X40872882Y-78284264D01*
X40870722Y-78269703D01*
X40870000Y-78255000D01*
X40870000Y-77955000D01*
X40870722Y-77940297D01*
X40872882Y-77925736D01*
X40876459Y-77911457D01*
X40881418Y-77897597D01*
X40887712Y-77884290D01*
X40895280Y-77871664D01*
X40904048Y-77859841D01*
X40913934Y-77848934D01*
X40924841Y-77839048D01*
X40936664Y-77830280D01*
X40949290Y-77822712D01*
X40962597Y-77816418D01*
X40976457Y-77811459D01*
X40990736Y-77807882D01*
X41005297Y-77805722D01*
X41020000Y-77805000D01*
X42670000Y-77805000D01*
X42684703Y-77805722D01*
G37*
G36*
X42684703Y-79075722D02*
G01*
X42699264Y-79077882D01*
X42713543Y-79081459D01*
X42727403Y-79086418D01*
X42740710Y-79092712D01*
X42753336Y-79100280D01*
X42765159Y-79109048D01*
X42776066Y-79118934D01*
X42785952Y-79129841D01*
X42794720Y-79141664D01*
X42802288Y-79154290D01*
X42808582Y-79167597D01*
X42813541Y-79181457D01*
X42817118Y-79195736D01*
X42819278Y-79210297D01*
X42820000Y-79225000D01*
X42820000Y-79525000D01*
X42819278Y-79539703D01*
X42817118Y-79554264D01*
X42813541Y-79568543D01*
X42808582Y-79582403D01*
X42802288Y-79595710D01*
X42794720Y-79608336D01*
X42785952Y-79620159D01*
X42776066Y-79631066D01*
X42765159Y-79640952D01*
X42753336Y-79649720D01*
X42740710Y-79657288D01*
X42727403Y-79663582D01*
X42713543Y-79668541D01*
X42699264Y-79672118D01*
X42684703Y-79674278D01*
X42670000Y-79675000D01*
X41020000Y-79675000D01*
X41005297Y-79674278D01*
X40990736Y-79672118D01*
X40976457Y-79668541D01*
X40962597Y-79663582D01*
X40949290Y-79657288D01*
X40936664Y-79649720D01*
X40924841Y-79640952D01*
X40913934Y-79631066D01*
X40904048Y-79620159D01*
X40895280Y-79608336D01*
X40887712Y-79595710D01*
X40881418Y-79582403D01*
X40876459Y-79568543D01*
X40872882Y-79554264D01*
X40870722Y-79539703D01*
X40870000Y-79525000D01*
X40870000Y-79225000D01*
X40870722Y-79210297D01*
X40872882Y-79195736D01*
X40876459Y-79181457D01*
X40881418Y-79167597D01*
X40887712Y-79154290D01*
X40895280Y-79141664D01*
X40904048Y-79129841D01*
X40913934Y-79118934D01*
X40924841Y-79109048D01*
X40936664Y-79100280D01*
X40949290Y-79092712D01*
X40962597Y-79086418D01*
X40976457Y-79081459D01*
X40990736Y-79077882D01*
X41005297Y-79075722D01*
X41020000Y-79075000D01*
X42670000Y-79075000D01*
X42684703Y-79075722D01*
G37*
G36*
X42684703Y-80345722D02*
G01*
X42699264Y-80347882D01*
X42713543Y-80351459D01*
X42727403Y-80356418D01*
X42740710Y-80362712D01*
X42753336Y-80370280D01*
X42765159Y-80379048D01*
X42776066Y-80388934D01*
X42785952Y-80399841D01*
X42794720Y-80411664D01*
X42802288Y-80424290D01*
X42808582Y-80437597D01*
X42813541Y-80451457D01*
X42817118Y-80465736D01*
X42819278Y-80480297D01*
X42820000Y-80495000D01*
X42820000Y-80795000D01*
X42819278Y-80809703D01*
X42817118Y-80824264D01*
X42813541Y-80838543D01*
X42808582Y-80852403D01*
X42802288Y-80865710D01*
X42794720Y-80878336D01*
X42785952Y-80890159D01*
X42776066Y-80901066D01*
X42765159Y-80910952D01*
X42753336Y-80919720D01*
X42740710Y-80927288D01*
X42727403Y-80933582D01*
X42713543Y-80938541D01*
X42699264Y-80942118D01*
X42684703Y-80944278D01*
X42670000Y-80945000D01*
X41020000Y-80945000D01*
X41005297Y-80944278D01*
X40990736Y-80942118D01*
X40976457Y-80938541D01*
X40962597Y-80933582D01*
X40949290Y-80927288D01*
X40936664Y-80919720D01*
X40924841Y-80910952D01*
X40913934Y-80901066D01*
X40904048Y-80890159D01*
X40895280Y-80878336D01*
X40887712Y-80865710D01*
X40881418Y-80852403D01*
X40876459Y-80838543D01*
X40872882Y-80824264D01*
X40870722Y-80809703D01*
X40870000Y-80795000D01*
X40870000Y-80495000D01*
X40870722Y-80480297D01*
X40872882Y-80465736D01*
X40876459Y-80451457D01*
X40881418Y-80437597D01*
X40887712Y-80424290D01*
X40895280Y-80411664D01*
X40904048Y-80399841D01*
X40913934Y-80388934D01*
X40924841Y-80379048D01*
X40936664Y-80370280D01*
X40949290Y-80362712D01*
X40962597Y-80356418D01*
X40976457Y-80351459D01*
X40990736Y-80347882D01*
X41005297Y-80345722D01*
X41020000Y-80345000D01*
X42670000Y-80345000D01*
X42684703Y-80345722D01*
G37*
G36*
X42684703Y-81615722D02*
G01*
X42699264Y-81617882D01*
X42713543Y-81621459D01*
X42727403Y-81626418D01*
X42740710Y-81632712D01*
X42753336Y-81640280D01*
X42765159Y-81649048D01*
X42776066Y-81658934D01*
X42785952Y-81669841D01*
X42794720Y-81681664D01*
X42802288Y-81694290D01*
X42808582Y-81707597D01*
X42813541Y-81721457D01*
X42817118Y-81735736D01*
X42819278Y-81750297D01*
X42820000Y-81765000D01*
X42820000Y-82065000D01*
X42819278Y-82079703D01*
X42817118Y-82094264D01*
X42813541Y-82108543D01*
X42808582Y-82122403D01*
X42802288Y-82135710D01*
X42794720Y-82148336D01*
X42785952Y-82160159D01*
X42776066Y-82171066D01*
X42765159Y-82180952D01*
X42753336Y-82189720D01*
X42740710Y-82197288D01*
X42727403Y-82203582D01*
X42713543Y-82208541D01*
X42699264Y-82212118D01*
X42684703Y-82214278D01*
X42670000Y-82215000D01*
X41020000Y-82215000D01*
X41005297Y-82214278D01*
X40990736Y-82212118D01*
X40976457Y-82208541D01*
X40962597Y-82203582D01*
X40949290Y-82197288D01*
X40936664Y-82189720D01*
X40924841Y-82180952D01*
X40913934Y-82171066D01*
X40904048Y-82160159D01*
X40895280Y-82148336D01*
X40887712Y-82135710D01*
X40881418Y-82122403D01*
X40876459Y-82108543D01*
X40872882Y-82094264D01*
X40870722Y-82079703D01*
X40870000Y-82065000D01*
X40870000Y-81765000D01*
X40870722Y-81750297D01*
X40872882Y-81735736D01*
X40876459Y-81721457D01*
X40881418Y-81707597D01*
X40887712Y-81694290D01*
X40895280Y-81681664D01*
X40904048Y-81669841D01*
X40913934Y-81658934D01*
X40924841Y-81649048D01*
X40936664Y-81640280D01*
X40949290Y-81632712D01*
X40962597Y-81626418D01*
X40976457Y-81621459D01*
X40990736Y-81617882D01*
X41005297Y-81615722D01*
X41020000Y-81615000D01*
X42670000Y-81615000D01*
X42684703Y-81615722D01*
G37*
G36*
X32279504Y-77866204D02*
G01*
X32303773Y-77869804D01*
X32327571Y-77875765D01*
X32350671Y-77884030D01*
X32372849Y-77894520D01*
X32393893Y-77907133D01*
X32413598Y-77921747D01*
X32431777Y-77938223D01*
X32448253Y-77956402D01*
X32462867Y-77976107D01*
X32475480Y-77997151D01*
X32485970Y-78019329D01*
X32494235Y-78042429D01*
X32500196Y-78066227D01*
X32503796Y-78090496D01*
X32505000Y-78115000D01*
X32505000Y-79365000D01*
X32503796Y-79389504D01*
X32500196Y-79413773D01*
X32494235Y-79437571D01*
X32485970Y-79460671D01*
X32475480Y-79482849D01*
X32462867Y-79503893D01*
X32448253Y-79523598D01*
X32431777Y-79541777D01*
X32413598Y-79558253D01*
X32393893Y-79572867D01*
X32372849Y-79585480D01*
X32350671Y-79595970D01*
X32327571Y-79604235D01*
X32303773Y-79610196D01*
X32279504Y-79613796D01*
X32255000Y-79615000D01*
X31505000Y-79615000D01*
X31480496Y-79613796D01*
X31456227Y-79610196D01*
X31432429Y-79604235D01*
X31409329Y-79595970D01*
X31387151Y-79585480D01*
X31366107Y-79572867D01*
X31346402Y-79558253D01*
X31328223Y-79541777D01*
X31311747Y-79523598D01*
X31297133Y-79503893D01*
X31284520Y-79482849D01*
X31274030Y-79460671D01*
X31265765Y-79437571D01*
X31259804Y-79413773D01*
X31256204Y-79389504D01*
X31255000Y-79365000D01*
X31255000Y-78115000D01*
X31256204Y-78090496D01*
X31259804Y-78066227D01*
X31265765Y-78042429D01*
X31274030Y-78019329D01*
X31284520Y-77997151D01*
X31297133Y-77976107D01*
X31311747Y-77956402D01*
X31328223Y-77938223D01*
X31346402Y-77921747D01*
X31366107Y-77907133D01*
X31387151Y-77894520D01*
X31409329Y-77884030D01*
X31432429Y-77875765D01*
X31456227Y-77869804D01*
X31480496Y-77866204D01*
X31505000Y-77865000D01*
X32255000Y-77865000D01*
X32279504Y-77866204D01*
G37*
G36*
X29479504Y-77866204D02*
G01*
X29503773Y-77869804D01*
X29527571Y-77875765D01*
X29550671Y-77884030D01*
X29572849Y-77894520D01*
X29593893Y-77907133D01*
X29613598Y-77921747D01*
X29631777Y-77938223D01*
X29648253Y-77956402D01*
X29662867Y-77976107D01*
X29675480Y-77997151D01*
X29685970Y-78019329D01*
X29694235Y-78042429D01*
X29700196Y-78066227D01*
X29703796Y-78090496D01*
X29705000Y-78115000D01*
X29705000Y-79365000D01*
X29703796Y-79389504D01*
X29700196Y-79413773D01*
X29694235Y-79437571D01*
X29685970Y-79460671D01*
X29675480Y-79482849D01*
X29662867Y-79503893D01*
X29648253Y-79523598D01*
X29631777Y-79541777D01*
X29613598Y-79558253D01*
X29593893Y-79572867D01*
X29572849Y-79585480D01*
X29550671Y-79595970D01*
X29527571Y-79604235D01*
X29503773Y-79610196D01*
X29479504Y-79613796D01*
X29455000Y-79615000D01*
X28705000Y-79615000D01*
X28680496Y-79613796D01*
X28656227Y-79610196D01*
X28632429Y-79604235D01*
X28609329Y-79595970D01*
X28587151Y-79585480D01*
X28566107Y-79572867D01*
X28546402Y-79558253D01*
X28528223Y-79541777D01*
X28511747Y-79523598D01*
X28497133Y-79503893D01*
X28484520Y-79482849D01*
X28474030Y-79460671D01*
X28465765Y-79437571D01*
X28459804Y-79413773D01*
X28456204Y-79389504D01*
X28455000Y-79365000D01*
X28455000Y-78115000D01*
X28456204Y-78090496D01*
X28459804Y-78066227D01*
X28465765Y-78042429D01*
X28474030Y-78019329D01*
X28484520Y-77997151D01*
X28497133Y-77976107D01*
X28511747Y-77956402D01*
X28528223Y-77938223D01*
X28546402Y-77921747D01*
X28566107Y-77907133D01*
X28587151Y-77894520D01*
X28609329Y-77884030D01*
X28632429Y-77875765D01*
X28656227Y-77869804D01*
X28680496Y-77866204D01*
X28705000Y-77865000D01*
X29455000Y-77865000D01*
X29479504Y-77866204D01*
G37*
G36*
X29859504Y-98306204D02*
G01*
X29883773Y-98309804D01*
X29907571Y-98315765D01*
X29930671Y-98324030D01*
X29952849Y-98334520D01*
X29973893Y-98347133D01*
X29993598Y-98361747D01*
X30011777Y-98378223D01*
X30028253Y-98396402D01*
X30042867Y-98416107D01*
X30055480Y-98437151D01*
X30065970Y-98459329D01*
X30074235Y-98482429D01*
X30080196Y-98506227D01*
X30083796Y-98530496D01*
X30085000Y-98555000D01*
X30085000Y-99305000D01*
X30083796Y-99329504D01*
X30080196Y-99353773D01*
X30074235Y-99377571D01*
X30065970Y-99400671D01*
X30055480Y-99422849D01*
X30042867Y-99443893D01*
X30028253Y-99463598D01*
X30011777Y-99481777D01*
X29993598Y-99498253D01*
X29973893Y-99512867D01*
X29952849Y-99525480D01*
X29930671Y-99535970D01*
X29907571Y-99544235D01*
X29883773Y-99550196D01*
X29859504Y-99553796D01*
X29835000Y-99555000D01*
X28585000Y-99555000D01*
X28560496Y-99553796D01*
X28536227Y-99550196D01*
X28512429Y-99544235D01*
X28489329Y-99535970D01*
X28467151Y-99525480D01*
X28446107Y-99512867D01*
X28426402Y-99498253D01*
X28408223Y-99481777D01*
X28391747Y-99463598D01*
X28377133Y-99443893D01*
X28364520Y-99422849D01*
X28354030Y-99400671D01*
X28345765Y-99377571D01*
X28339804Y-99353773D01*
X28336204Y-99329504D01*
X28335000Y-99305000D01*
X28335000Y-98555000D01*
X28336204Y-98530496D01*
X28339804Y-98506227D01*
X28345765Y-98482429D01*
X28354030Y-98459329D01*
X28364520Y-98437151D01*
X28377133Y-98416107D01*
X28391747Y-98396402D01*
X28408223Y-98378223D01*
X28426402Y-98361747D01*
X28446107Y-98347133D01*
X28467151Y-98334520D01*
X28489329Y-98324030D01*
X28512429Y-98315765D01*
X28536227Y-98309804D01*
X28560496Y-98306204D01*
X28585000Y-98305000D01*
X29835000Y-98305000D01*
X29859504Y-98306204D01*
G37*
G36*
X29859504Y-101106204D02*
G01*
X29883773Y-101109804D01*
X29907571Y-101115765D01*
X29930671Y-101124030D01*
X29952849Y-101134520D01*
X29973893Y-101147133D01*
X29993598Y-101161747D01*
X30011777Y-101178223D01*
X30028253Y-101196402D01*
X30042867Y-101216107D01*
X30055480Y-101237151D01*
X30065970Y-101259329D01*
X30074235Y-101282429D01*
X30080196Y-101306227D01*
X30083796Y-101330496D01*
X30085000Y-101355000D01*
X30085000Y-102105000D01*
X30083796Y-102129504D01*
X30080196Y-102153773D01*
X30074235Y-102177571D01*
X30065970Y-102200671D01*
X30055480Y-102222849D01*
X30042867Y-102243893D01*
X30028253Y-102263598D01*
X30011777Y-102281777D01*
X29993598Y-102298253D01*
X29973893Y-102312867D01*
X29952849Y-102325480D01*
X29930671Y-102335970D01*
X29907571Y-102344235D01*
X29883773Y-102350196D01*
X29859504Y-102353796D01*
X29835000Y-102355000D01*
X28585000Y-102355000D01*
X28560496Y-102353796D01*
X28536227Y-102350196D01*
X28512429Y-102344235D01*
X28489329Y-102335970D01*
X28467151Y-102325480D01*
X28446107Y-102312867D01*
X28426402Y-102298253D01*
X28408223Y-102281777D01*
X28391747Y-102263598D01*
X28377133Y-102243893D01*
X28364520Y-102222849D01*
X28354030Y-102200671D01*
X28345765Y-102177571D01*
X28339804Y-102153773D01*
X28336204Y-102129504D01*
X28335000Y-102105000D01*
X28335000Y-101355000D01*
X28336204Y-101330496D01*
X28339804Y-101306227D01*
X28345765Y-101282429D01*
X28354030Y-101259329D01*
X28364520Y-101237151D01*
X28377133Y-101216107D01*
X28391747Y-101196402D01*
X28408223Y-101178223D01*
X28426402Y-101161747D01*
X28446107Y-101147133D01*
X28467151Y-101134520D01*
X28489329Y-101124030D01*
X28512429Y-101115765D01*
X28536227Y-101109804D01*
X28560496Y-101106204D01*
X28585000Y-101105000D01*
X29835000Y-101105000D01*
X29859504Y-101106204D01*
G37*
G36*
X36089504Y-93106204D02*
G01*
X36113773Y-93109804D01*
X36137571Y-93115765D01*
X36160671Y-93124030D01*
X36182849Y-93134520D01*
X36203893Y-93147133D01*
X36223598Y-93161747D01*
X36241777Y-93178223D01*
X36258253Y-93196402D01*
X36272867Y-93216107D01*
X36285480Y-93237151D01*
X36295970Y-93259329D01*
X36304235Y-93282429D01*
X36310196Y-93306227D01*
X36313796Y-93330496D01*
X36315000Y-93355000D01*
X36315000Y-94605000D01*
X36313796Y-94629504D01*
X36310196Y-94653773D01*
X36304235Y-94677571D01*
X36295970Y-94700671D01*
X36285480Y-94722849D01*
X36272867Y-94743893D01*
X36258253Y-94763598D01*
X36241777Y-94781777D01*
X36223598Y-94798253D01*
X36203893Y-94812867D01*
X36182849Y-94825480D01*
X36160671Y-94835970D01*
X36137571Y-94844235D01*
X36113773Y-94850196D01*
X36089504Y-94853796D01*
X36065000Y-94855000D01*
X35315000Y-94855000D01*
X35290496Y-94853796D01*
X35266227Y-94850196D01*
X35242429Y-94844235D01*
X35219329Y-94835970D01*
X35197151Y-94825480D01*
X35176107Y-94812867D01*
X35156402Y-94798253D01*
X35138223Y-94781777D01*
X35121747Y-94763598D01*
X35107133Y-94743893D01*
X35094520Y-94722849D01*
X35084030Y-94700671D01*
X35075765Y-94677571D01*
X35069804Y-94653773D01*
X35066204Y-94629504D01*
X35065000Y-94605000D01*
X35065000Y-93355000D01*
X35066204Y-93330496D01*
X35069804Y-93306227D01*
X35075765Y-93282429D01*
X35084030Y-93259329D01*
X35094520Y-93237151D01*
X35107133Y-93216107D01*
X35121747Y-93196402D01*
X35138223Y-93178223D01*
X35156402Y-93161747D01*
X35176107Y-93147133D01*
X35197151Y-93134520D01*
X35219329Y-93124030D01*
X35242429Y-93115765D01*
X35266227Y-93109804D01*
X35290496Y-93106204D01*
X35315000Y-93105000D01*
X36065000Y-93105000D01*
X36089504Y-93106204D01*
G37*
G36*
X33289504Y-93106204D02*
G01*
X33313773Y-93109804D01*
X33337571Y-93115765D01*
X33360671Y-93124030D01*
X33382849Y-93134520D01*
X33403893Y-93147133D01*
X33423598Y-93161747D01*
X33441777Y-93178223D01*
X33458253Y-93196402D01*
X33472867Y-93216107D01*
X33485480Y-93237151D01*
X33495970Y-93259329D01*
X33504235Y-93282429D01*
X33510196Y-93306227D01*
X33513796Y-93330496D01*
X33515000Y-93355000D01*
X33515000Y-94605000D01*
X33513796Y-94629504D01*
X33510196Y-94653773D01*
X33504235Y-94677571D01*
X33495970Y-94700671D01*
X33485480Y-94722849D01*
X33472867Y-94743893D01*
X33458253Y-94763598D01*
X33441777Y-94781777D01*
X33423598Y-94798253D01*
X33403893Y-94812867D01*
X33382849Y-94825480D01*
X33360671Y-94835970D01*
X33337571Y-94844235D01*
X33313773Y-94850196D01*
X33289504Y-94853796D01*
X33265000Y-94855000D01*
X32515000Y-94855000D01*
X32490496Y-94853796D01*
X32466227Y-94850196D01*
X32442429Y-94844235D01*
X32419329Y-94835970D01*
X32397151Y-94825480D01*
X32376107Y-94812867D01*
X32356402Y-94798253D01*
X32338223Y-94781777D01*
X32321747Y-94763598D01*
X32307133Y-94743893D01*
X32294520Y-94722849D01*
X32284030Y-94700671D01*
X32275765Y-94677571D01*
X32269804Y-94653773D01*
X32266204Y-94629504D01*
X32265000Y-94605000D01*
X32265000Y-93355000D01*
X32266204Y-93330496D01*
X32269804Y-93306227D01*
X32275765Y-93282429D01*
X32284030Y-93259329D01*
X32294520Y-93237151D01*
X32307133Y-93216107D01*
X32321747Y-93196402D01*
X32338223Y-93178223D01*
X32356402Y-93161747D01*
X32376107Y-93147133D01*
X32397151Y-93134520D01*
X32419329Y-93124030D01*
X32442429Y-93115765D01*
X32466227Y-93109804D01*
X32490496Y-93106204D01*
X32515000Y-93105000D01*
X33265000Y-93105000D01*
X33289504Y-93106204D01*
G37*
G36*
X36089504Y-95646204D02*
G01*
X36113773Y-95649804D01*
X36137571Y-95655765D01*
X36160671Y-95664030D01*
X36182849Y-95674520D01*
X36203893Y-95687133D01*
X36223598Y-95701747D01*
X36241777Y-95718223D01*
X36258253Y-95736402D01*
X36272867Y-95756107D01*
X36285480Y-95777151D01*
X36295970Y-95799329D01*
X36304235Y-95822429D01*
X36310196Y-95846227D01*
X36313796Y-95870496D01*
X36315000Y-95895000D01*
X36315000Y-97145000D01*
X36313796Y-97169504D01*
X36310196Y-97193773D01*
X36304235Y-97217571D01*
X36295970Y-97240671D01*
X36285480Y-97262849D01*
X36272867Y-97283893D01*
X36258253Y-97303598D01*
X36241777Y-97321777D01*
X36223598Y-97338253D01*
X36203893Y-97352867D01*
X36182849Y-97365480D01*
X36160671Y-97375970D01*
X36137571Y-97384235D01*
X36113773Y-97390196D01*
X36089504Y-97393796D01*
X36065000Y-97395000D01*
X35315000Y-97395000D01*
X35290496Y-97393796D01*
X35266227Y-97390196D01*
X35242429Y-97384235D01*
X35219329Y-97375970D01*
X35197151Y-97365480D01*
X35176107Y-97352867D01*
X35156402Y-97338253D01*
X35138223Y-97321777D01*
X35121747Y-97303598D01*
X35107133Y-97283893D01*
X35094520Y-97262849D01*
X35084030Y-97240671D01*
X35075765Y-97217571D01*
X35069804Y-97193773D01*
X35066204Y-97169504D01*
X35065000Y-97145000D01*
X35065000Y-95895000D01*
X35066204Y-95870496D01*
X35069804Y-95846227D01*
X35075765Y-95822429D01*
X35084030Y-95799329D01*
X35094520Y-95777151D01*
X35107133Y-95756107D01*
X35121747Y-95736402D01*
X35138223Y-95718223D01*
X35156402Y-95701747D01*
X35176107Y-95687133D01*
X35197151Y-95674520D01*
X35219329Y-95664030D01*
X35242429Y-95655765D01*
X35266227Y-95649804D01*
X35290496Y-95646204D01*
X35315000Y-95645000D01*
X36065000Y-95645000D01*
X36089504Y-95646204D01*
G37*
G36*
X33289504Y-95646204D02*
G01*
X33313773Y-95649804D01*
X33337571Y-95655765D01*
X33360671Y-95664030D01*
X33382849Y-95674520D01*
X33403893Y-95687133D01*
X33423598Y-95701747D01*
X33441777Y-95718223D01*
X33458253Y-95736402D01*
X33472867Y-95756107D01*
X33485480Y-95777151D01*
X33495970Y-95799329D01*
X33504235Y-95822429D01*
X33510196Y-95846227D01*
X33513796Y-95870496D01*
X33515000Y-95895000D01*
X33515000Y-97145000D01*
X33513796Y-97169504D01*
X33510196Y-97193773D01*
X33504235Y-97217571D01*
X33495970Y-97240671D01*
X33485480Y-97262849D01*
X33472867Y-97283893D01*
X33458253Y-97303598D01*
X33441777Y-97321777D01*
X33423598Y-97338253D01*
X33403893Y-97352867D01*
X33382849Y-97365480D01*
X33360671Y-97375970D01*
X33337571Y-97384235D01*
X33313773Y-97390196D01*
X33289504Y-97393796D01*
X33265000Y-97395000D01*
X32515000Y-97395000D01*
X32490496Y-97393796D01*
X32466227Y-97390196D01*
X32442429Y-97384235D01*
X32419329Y-97375970D01*
X32397151Y-97365480D01*
X32376107Y-97352867D01*
X32356402Y-97338253D01*
X32338223Y-97321777D01*
X32321747Y-97303598D01*
X32307133Y-97283893D01*
X32294520Y-97262849D01*
X32284030Y-97240671D01*
X32275765Y-97217571D01*
X32269804Y-97193773D01*
X32266204Y-97169504D01*
X32265000Y-97145000D01*
X32265000Y-95895000D01*
X32266204Y-95870496D01*
X32269804Y-95846227D01*
X32275765Y-95822429D01*
X32284030Y-95799329D01*
X32294520Y-95777151D01*
X32307133Y-95756107D01*
X32321747Y-95736402D01*
X32338223Y-95718223D01*
X32356402Y-95701747D01*
X32376107Y-95687133D01*
X32397151Y-95674520D01*
X32419329Y-95664030D01*
X32442429Y-95655765D01*
X32466227Y-95649804D01*
X32490496Y-95646204D01*
X32515000Y-95645000D01*
X33265000Y-95645000D01*
X33289504Y-95646204D01*
G37*
G36*
X33289504Y-100726204D02*
G01*
X33313773Y-100729804D01*
X33337571Y-100735765D01*
X33360671Y-100744030D01*
X33382849Y-100754520D01*
X33403893Y-100767133D01*
X33423598Y-100781747D01*
X33441777Y-100798223D01*
X33458253Y-100816402D01*
X33472867Y-100836107D01*
X33485480Y-100857151D01*
X33495970Y-100879329D01*
X33504235Y-100902429D01*
X33510196Y-100926227D01*
X33513796Y-100950496D01*
X33515000Y-100975000D01*
X33515000Y-102225000D01*
X33513796Y-102249504D01*
X33510196Y-102273773D01*
X33504235Y-102297571D01*
X33495970Y-102320671D01*
X33485480Y-102342849D01*
X33472867Y-102363893D01*
X33458253Y-102383598D01*
X33441777Y-102401777D01*
X33423598Y-102418253D01*
X33403893Y-102432867D01*
X33382849Y-102445480D01*
X33360671Y-102455970D01*
X33337571Y-102464235D01*
X33313773Y-102470196D01*
X33289504Y-102473796D01*
X33265000Y-102475000D01*
X32515000Y-102475000D01*
X32490496Y-102473796D01*
X32466227Y-102470196D01*
X32442429Y-102464235D01*
X32419329Y-102455970D01*
X32397151Y-102445480D01*
X32376107Y-102432867D01*
X32356402Y-102418253D01*
X32338223Y-102401777D01*
X32321747Y-102383598D01*
X32307133Y-102363893D01*
X32294520Y-102342849D01*
X32284030Y-102320671D01*
X32275765Y-102297571D01*
X32269804Y-102273773D01*
X32266204Y-102249504D01*
X32265000Y-102225000D01*
X32265000Y-100975000D01*
X32266204Y-100950496D01*
X32269804Y-100926227D01*
X32275765Y-100902429D01*
X32284030Y-100879329D01*
X32294520Y-100857151D01*
X32307133Y-100836107D01*
X32321747Y-100816402D01*
X32338223Y-100798223D01*
X32356402Y-100781747D01*
X32376107Y-100767133D01*
X32397151Y-100754520D01*
X32419329Y-100744030D01*
X32442429Y-100735765D01*
X32466227Y-100729804D01*
X32490496Y-100726204D01*
X32515000Y-100725000D01*
X33265000Y-100725000D01*
X33289504Y-100726204D01*
G37*
G36*
X36089504Y-100726204D02*
G01*
X36113773Y-100729804D01*
X36137571Y-100735765D01*
X36160671Y-100744030D01*
X36182849Y-100754520D01*
X36203893Y-100767133D01*
X36223598Y-100781747D01*
X36241777Y-100798223D01*
X36258253Y-100816402D01*
X36272867Y-100836107D01*
X36285480Y-100857151D01*
X36295970Y-100879329D01*
X36304235Y-100902429D01*
X36310196Y-100926227D01*
X36313796Y-100950496D01*
X36315000Y-100975000D01*
X36315000Y-102225000D01*
X36313796Y-102249504D01*
X36310196Y-102273773D01*
X36304235Y-102297571D01*
X36295970Y-102320671D01*
X36285480Y-102342849D01*
X36272867Y-102363893D01*
X36258253Y-102383598D01*
X36241777Y-102401777D01*
X36223598Y-102418253D01*
X36203893Y-102432867D01*
X36182849Y-102445480D01*
X36160671Y-102455970D01*
X36137571Y-102464235D01*
X36113773Y-102470196D01*
X36089504Y-102473796D01*
X36065000Y-102475000D01*
X35315000Y-102475000D01*
X35290496Y-102473796D01*
X35266227Y-102470196D01*
X35242429Y-102464235D01*
X35219329Y-102455970D01*
X35197151Y-102445480D01*
X35176107Y-102432867D01*
X35156402Y-102418253D01*
X35138223Y-102401777D01*
X35121747Y-102383598D01*
X35107133Y-102363893D01*
X35094520Y-102342849D01*
X35084030Y-102320671D01*
X35075765Y-102297571D01*
X35069804Y-102273773D01*
X35066204Y-102249504D01*
X35065000Y-102225000D01*
X35065000Y-100975000D01*
X35066204Y-100950496D01*
X35069804Y-100926227D01*
X35075765Y-100902429D01*
X35084030Y-100879329D01*
X35094520Y-100857151D01*
X35107133Y-100836107D01*
X35121747Y-100816402D01*
X35138223Y-100798223D01*
X35156402Y-100781747D01*
X35176107Y-100767133D01*
X35197151Y-100754520D01*
X35219329Y-100744030D01*
X35242429Y-100735765D01*
X35266227Y-100729804D01*
X35290496Y-100726204D01*
X35315000Y-100725000D01*
X36065000Y-100725000D01*
X36089504Y-100726204D01*
G37*
G36*
X36089504Y-98186204D02*
G01*
X36113773Y-98189804D01*
X36137571Y-98195765D01*
X36160671Y-98204030D01*
X36182849Y-98214520D01*
X36203893Y-98227133D01*
X36223598Y-98241747D01*
X36241777Y-98258223D01*
X36258253Y-98276402D01*
X36272867Y-98296107D01*
X36285480Y-98317151D01*
X36295970Y-98339329D01*
X36304235Y-98362429D01*
X36310196Y-98386227D01*
X36313796Y-98410496D01*
X36315000Y-98435000D01*
X36315000Y-99685000D01*
X36313796Y-99709504D01*
X36310196Y-99733773D01*
X36304235Y-99757571D01*
X36295970Y-99780671D01*
X36285480Y-99802849D01*
X36272867Y-99823893D01*
X36258253Y-99843598D01*
X36241777Y-99861777D01*
X36223598Y-99878253D01*
X36203893Y-99892867D01*
X36182849Y-99905480D01*
X36160671Y-99915970D01*
X36137571Y-99924235D01*
X36113773Y-99930196D01*
X36089504Y-99933796D01*
X36065000Y-99935000D01*
X35315000Y-99935000D01*
X35290496Y-99933796D01*
X35266227Y-99930196D01*
X35242429Y-99924235D01*
X35219329Y-99915970D01*
X35197151Y-99905480D01*
X35176107Y-99892867D01*
X35156402Y-99878253D01*
X35138223Y-99861777D01*
X35121747Y-99843598D01*
X35107133Y-99823893D01*
X35094520Y-99802849D01*
X35084030Y-99780671D01*
X35075765Y-99757571D01*
X35069804Y-99733773D01*
X35066204Y-99709504D01*
X35065000Y-99685000D01*
X35065000Y-98435000D01*
X35066204Y-98410496D01*
X35069804Y-98386227D01*
X35075765Y-98362429D01*
X35084030Y-98339329D01*
X35094520Y-98317151D01*
X35107133Y-98296107D01*
X35121747Y-98276402D01*
X35138223Y-98258223D01*
X35156402Y-98241747D01*
X35176107Y-98227133D01*
X35197151Y-98214520D01*
X35219329Y-98204030D01*
X35242429Y-98195765D01*
X35266227Y-98189804D01*
X35290496Y-98186204D01*
X35315000Y-98185000D01*
X36065000Y-98185000D01*
X36089504Y-98186204D01*
G37*
G36*
X33289504Y-98186204D02*
G01*
X33313773Y-98189804D01*
X33337571Y-98195765D01*
X33360671Y-98204030D01*
X33382849Y-98214520D01*
X33403893Y-98227133D01*
X33423598Y-98241747D01*
X33441777Y-98258223D01*
X33458253Y-98276402D01*
X33472867Y-98296107D01*
X33485480Y-98317151D01*
X33495970Y-98339329D01*
X33504235Y-98362429D01*
X33510196Y-98386227D01*
X33513796Y-98410496D01*
X33515000Y-98435000D01*
X33515000Y-99685000D01*
X33513796Y-99709504D01*
X33510196Y-99733773D01*
X33504235Y-99757571D01*
X33495970Y-99780671D01*
X33485480Y-99802849D01*
X33472867Y-99823893D01*
X33458253Y-99843598D01*
X33441777Y-99861777D01*
X33423598Y-99878253D01*
X33403893Y-99892867D01*
X33382849Y-99905480D01*
X33360671Y-99915970D01*
X33337571Y-99924235D01*
X33313773Y-99930196D01*
X33289504Y-99933796D01*
X33265000Y-99935000D01*
X32515000Y-99935000D01*
X32490496Y-99933796D01*
X32466227Y-99930196D01*
X32442429Y-99924235D01*
X32419329Y-99915970D01*
X32397151Y-99905480D01*
X32376107Y-99892867D01*
X32356402Y-99878253D01*
X32338223Y-99861777D01*
X32321747Y-99843598D01*
X32307133Y-99823893D01*
X32294520Y-99802849D01*
X32284030Y-99780671D01*
X32275765Y-99757571D01*
X32269804Y-99733773D01*
X32266204Y-99709504D01*
X32265000Y-99685000D01*
X32265000Y-98435000D01*
X32266204Y-98410496D01*
X32269804Y-98386227D01*
X32275765Y-98362429D01*
X32284030Y-98339329D01*
X32294520Y-98317151D01*
X32307133Y-98296107D01*
X32321747Y-98276402D01*
X32338223Y-98258223D01*
X32356402Y-98241747D01*
X32376107Y-98227133D01*
X32397151Y-98214520D01*
X32419329Y-98204030D01*
X32442429Y-98195765D01*
X32466227Y-98189804D01*
X32490496Y-98186204D01*
X32515000Y-98185000D01*
X33265000Y-98185000D01*
X33289504Y-98186204D01*
G37*
G36*
X39899504Y-85486204D02*
G01*
X39923773Y-85489804D01*
X39947571Y-85495765D01*
X39970671Y-85504030D01*
X39992849Y-85514520D01*
X40013893Y-85527133D01*
X40033598Y-85541747D01*
X40051777Y-85558223D01*
X40068253Y-85576402D01*
X40082867Y-85596107D01*
X40095480Y-85617151D01*
X40105970Y-85639329D01*
X40114235Y-85662429D01*
X40120196Y-85686227D01*
X40123796Y-85710496D01*
X40125000Y-85735000D01*
X40125000Y-86985000D01*
X40123796Y-87009504D01*
X40120196Y-87033773D01*
X40114235Y-87057571D01*
X40105970Y-87080671D01*
X40095480Y-87102849D01*
X40082867Y-87123893D01*
X40068253Y-87143598D01*
X40051777Y-87161777D01*
X40033598Y-87178253D01*
X40013893Y-87192867D01*
X39992849Y-87205480D01*
X39970671Y-87215970D01*
X39947571Y-87224235D01*
X39923773Y-87230196D01*
X39899504Y-87233796D01*
X39875000Y-87235000D01*
X39125000Y-87235000D01*
X39100496Y-87233796D01*
X39076227Y-87230196D01*
X39052429Y-87224235D01*
X39029329Y-87215970D01*
X39007151Y-87205480D01*
X38986107Y-87192867D01*
X38966402Y-87178253D01*
X38948223Y-87161777D01*
X38931747Y-87143598D01*
X38917133Y-87123893D01*
X38904520Y-87102849D01*
X38894030Y-87080671D01*
X38885765Y-87057571D01*
X38879804Y-87033773D01*
X38876204Y-87009504D01*
X38875000Y-86985000D01*
X38875000Y-85735000D01*
X38876204Y-85710496D01*
X38879804Y-85686227D01*
X38885765Y-85662429D01*
X38894030Y-85639329D01*
X38904520Y-85617151D01*
X38917133Y-85596107D01*
X38931747Y-85576402D01*
X38948223Y-85558223D01*
X38966402Y-85541747D01*
X38986107Y-85527133D01*
X39007151Y-85514520D01*
X39029329Y-85504030D01*
X39052429Y-85495765D01*
X39076227Y-85489804D01*
X39100496Y-85486204D01*
X39125000Y-85485000D01*
X39875000Y-85485000D01*
X39899504Y-85486204D01*
G37*
G36*
X37099504Y-85486204D02*
G01*
X37123773Y-85489804D01*
X37147571Y-85495765D01*
X37170671Y-85504030D01*
X37192849Y-85514520D01*
X37213893Y-85527133D01*
X37233598Y-85541747D01*
X37251777Y-85558223D01*
X37268253Y-85576402D01*
X37282867Y-85596107D01*
X37295480Y-85617151D01*
X37305970Y-85639329D01*
X37314235Y-85662429D01*
X37320196Y-85686227D01*
X37323796Y-85710496D01*
X37325000Y-85735000D01*
X37325000Y-86985000D01*
X37323796Y-87009504D01*
X37320196Y-87033773D01*
X37314235Y-87057571D01*
X37305970Y-87080671D01*
X37295480Y-87102849D01*
X37282867Y-87123893D01*
X37268253Y-87143598D01*
X37251777Y-87161777D01*
X37233598Y-87178253D01*
X37213893Y-87192867D01*
X37192849Y-87205480D01*
X37170671Y-87215970D01*
X37147571Y-87224235D01*
X37123773Y-87230196D01*
X37099504Y-87233796D01*
X37075000Y-87235000D01*
X36325000Y-87235000D01*
X36300496Y-87233796D01*
X36276227Y-87230196D01*
X36252429Y-87224235D01*
X36229329Y-87215970D01*
X36207151Y-87205480D01*
X36186107Y-87192867D01*
X36166402Y-87178253D01*
X36148223Y-87161777D01*
X36131747Y-87143598D01*
X36117133Y-87123893D01*
X36104520Y-87102849D01*
X36094030Y-87080671D01*
X36085765Y-87057571D01*
X36079804Y-87033773D01*
X36076204Y-87009504D01*
X36075000Y-86985000D01*
X36075000Y-85735000D01*
X36076204Y-85710496D01*
X36079804Y-85686227D01*
X36085765Y-85662429D01*
X36094030Y-85639329D01*
X36104520Y-85617151D01*
X36117133Y-85596107D01*
X36131747Y-85576402D01*
X36148223Y-85558223D01*
X36166402Y-85541747D01*
X36186107Y-85527133D01*
X36207151Y-85514520D01*
X36229329Y-85504030D01*
X36252429Y-85495765D01*
X36276227Y-85489804D01*
X36300496Y-85486204D01*
X36325000Y-85485000D01*
X37075000Y-85485000D01*
X37099504Y-85486204D01*
G37*
G36*
X39899504Y-82946204D02*
G01*
X39923773Y-82949804D01*
X39947571Y-82955765D01*
X39970671Y-82964030D01*
X39992849Y-82974520D01*
X40013893Y-82987133D01*
X40033598Y-83001747D01*
X40051777Y-83018223D01*
X40068253Y-83036402D01*
X40082867Y-83056107D01*
X40095480Y-83077151D01*
X40105970Y-83099329D01*
X40114235Y-83122429D01*
X40120196Y-83146227D01*
X40123796Y-83170496D01*
X40125000Y-83195000D01*
X40125000Y-84445000D01*
X40123796Y-84469504D01*
X40120196Y-84493773D01*
X40114235Y-84517571D01*
X40105970Y-84540671D01*
X40095480Y-84562849D01*
X40082867Y-84583893D01*
X40068253Y-84603598D01*
X40051777Y-84621777D01*
X40033598Y-84638253D01*
X40013893Y-84652867D01*
X39992849Y-84665480D01*
X39970671Y-84675970D01*
X39947571Y-84684235D01*
X39923773Y-84690196D01*
X39899504Y-84693796D01*
X39875000Y-84695000D01*
X39125000Y-84695000D01*
X39100496Y-84693796D01*
X39076227Y-84690196D01*
X39052429Y-84684235D01*
X39029329Y-84675970D01*
X39007151Y-84665480D01*
X38986107Y-84652867D01*
X38966402Y-84638253D01*
X38948223Y-84621777D01*
X38931747Y-84603598D01*
X38917133Y-84583893D01*
X38904520Y-84562849D01*
X38894030Y-84540671D01*
X38885765Y-84517571D01*
X38879804Y-84493773D01*
X38876204Y-84469504D01*
X38875000Y-84445000D01*
X38875000Y-83195000D01*
X38876204Y-83170496D01*
X38879804Y-83146227D01*
X38885765Y-83122429D01*
X38894030Y-83099329D01*
X38904520Y-83077151D01*
X38917133Y-83056107D01*
X38931747Y-83036402D01*
X38948223Y-83018223D01*
X38966402Y-83001747D01*
X38986107Y-82987133D01*
X39007151Y-82974520D01*
X39029329Y-82964030D01*
X39052429Y-82955765D01*
X39076227Y-82949804D01*
X39100496Y-82946204D01*
X39125000Y-82945000D01*
X39875000Y-82945000D01*
X39899504Y-82946204D01*
G37*
G36*
X37099504Y-82946204D02*
G01*
X37123773Y-82949804D01*
X37147571Y-82955765D01*
X37170671Y-82964030D01*
X37192849Y-82974520D01*
X37213893Y-82987133D01*
X37233598Y-83001747D01*
X37251777Y-83018223D01*
X37268253Y-83036402D01*
X37282867Y-83056107D01*
X37295480Y-83077151D01*
X37305970Y-83099329D01*
X37314235Y-83122429D01*
X37320196Y-83146227D01*
X37323796Y-83170496D01*
X37325000Y-83195000D01*
X37325000Y-84445000D01*
X37323796Y-84469504D01*
X37320196Y-84493773D01*
X37314235Y-84517571D01*
X37305970Y-84540671D01*
X37295480Y-84562849D01*
X37282867Y-84583893D01*
X37268253Y-84603598D01*
X37251777Y-84621777D01*
X37233598Y-84638253D01*
X37213893Y-84652867D01*
X37192849Y-84665480D01*
X37170671Y-84675970D01*
X37147571Y-84684235D01*
X37123773Y-84690196D01*
X37099504Y-84693796D01*
X37075000Y-84695000D01*
X36325000Y-84695000D01*
X36300496Y-84693796D01*
X36276227Y-84690196D01*
X36252429Y-84684235D01*
X36229329Y-84675970D01*
X36207151Y-84665480D01*
X36186107Y-84652867D01*
X36166402Y-84638253D01*
X36148223Y-84621777D01*
X36131747Y-84603598D01*
X36117133Y-84583893D01*
X36104520Y-84562849D01*
X36094030Y-84540671D01*
X36085765Y-84517571D01*
X36079804Y-84493773D01*
X36076204Y-84469504D01*
X36075000Y-84445000D01*
X36075000Y-83195000D01*
X36076204Y-83170496D01*
X36079804Y-83146227D01*
X36085765Y-83122429D01*
X36094030Y-83099329D01*
X36104520Y-83077151D01*
X36117133Y-83056107D01*
X36131747Y-83036402D01*
X36148223Y-83018223D01*
X36166402Y-83001747D01*
X36186107Y-82987133D01*
X36207151Y-82974520D01*
X36229329Y-82964030D01*
X36252429Y-82955765D01*
X36276227Y-82949804D01*
X36300496Y-82946204D01*
X36325000Y-82945000D01*
X37075000Y-82945000D01*
X37099504Y-82946204D01*
G37*
G36*
X43709504Y-104536204D02*
G01*
X43733773Y-104539804D01*
X43757571Y-104545765D01*
X43780671Y-104554030D01*
X43802849Y-104564520D01*
X43823893Y-104577133D01*
X43843598Y-104591747D01*
X43861777Y-104608223D01*
X43878253Y-104626402D01*
X43892867Y-104646107D01*
X43905480Y-104667151D01*
X43915970Y-104689329D01*
X43924235Y-104712429D01*
X43930196Y-104736227D01*
X43933796Y-104760496D01*
X43935000Y-104785000D01*
X43935000Y-106035000D01*
X43933796Y-106059504D01*
X43930196Y-106083773D01*
X43924235Y-106107571D01*
X43915970Y-106130671D01*
X43905480Y-106152849D01*
X43892867Y-106173893D01*
X43878253Y-106193598D01*
X43861777Y-106211777D01*
X43843598Y-106228253D01*
X43823893Y-106242867D01*
X43802849Y-106255480D01*
X43780671Y-106265970D01*
X43757571Y-106274235D01*
X43733773Y-106280196D01*
X43709504Y-106283796D01*
X43685000Y-106285000D01*
X42935000Y-106285000D01*
X42910496Y-106283796D01*
X42886227Y-106280196D01*
X42862429Y-106274235D01*
X42839329Y-106265970D01*
X42817151Y-106255480D01*
X42796107Y-106242867D01*
X42776402Y-106228253D01*
X42758223Y-106211777D01*
X42741747Y-106193598D01*
X42727133Y-106173893D01*
X42714520Y-106152849D01*
X42704030Y-106130671D01*
X42695765Y-106107571D01*
X42689804Y-106083773D01*
X42686204Y-106059504D01*
X42685000Y-106035000D01*
X42685000Y-104785000D01*
X42686204Y-104760496D01*
X42689804Y-104736227D01*
X42695765Y-104712429D01*
X42704030Y-104689329D01*
X42714520Y-104667151D01*
X42727133Y-104646107D01*
X42741747Y-104626402D01*
X42758223Y-104608223D01*
X42776402Y-104591747D01*
X42796107Y-104577133D01*
X42817151Y-104564520D01*
X42839329Y-104554030D01*
X42862429Y-104545765D01*
X42886227Y-104539804D01*
X42910496Y-104536204D01*
X42935000Y-104535000D01*
X43685000Y-104535000D01*
X43709504Y-104536204D01*
G37*
G36*
X40909504Y-104536204D02*
G01*
X40933773Y-104539804D01*
X40957571Y-104545765D01*
X40980671Y-104554030D01*
X41002849Y-104564520D01*
X41023893Y-104577133D01*
X41043598Y-104591747D01*
X41061777Y-104608223D01*
X41078253Y-104626402D01*
X41092867Y-104646107D01*
X41105480Y-104667151D01*
X41115970Y-104689329D01*
X41124235Y-104712429D01*
X41130196Y-104736227D01*
X41133796Y-104760496D01*
X41135000Y-104785000D01*
X41135000Y-106035000D01*
X41133796Y-106059504D01*
X41130196Y-106083773D01*
X41124235Y-106107571D01*
X41115970Y-106130671D01*
X41105480Y-106152849D01*
X41092867Y-106173893D01*
X41078253Y-106193598D01*
X41061777Y-106211777D01*
X41043598Y-106228253D01*
X41023893Y-106242867D01*
X41002849Y-106255480D01*
X40980671Y-106265970D01*
X40957571Y-106274235D01*
X40933773Y-106280196D01*
X40909504Y-106283796D01*
X40885000Y-106285000D01*
X40135000Y-106285000D01*
X40110496Y-106283796D01*
X40086227Y-106280196D01*
X40062429Y-106274235D01*
X40039329Y-106265970D01*
X40017151Y-106255480D01*
X39996107Y-106242867D01*
X39976402Y-106228253D01*
X39958223Y-106211777D01*
X39941747Y-106193598D01*
X39927133Y-106173893D01*
X39914520Y-106152849D01*
X39904030Y-106130671D01*
X39895765Y-106107571D01*
X39889804Y-106083773D01*
X39886204Y-106059504D01*
X39885000Y-106035000D01*
X39885000Y-104785000D01*
X39886204Y-104760496D01*
X39889804Y-104736227D01*
X39895765Y-104712429D01*
X39904030Y-104689329D01*
X39914520Y-104667151D01*
X39927133Y-104646107D01*
X39941747Y-104626402D01*
X39958223Y-104608223D01*
X39976402Y-104591747D01*
X39996107Y-104577133D01*
X40017151Y-104564520D01*
X40039329Y-104554030D01*
X40062429Y-104545765D01*
X40086227Y-104539804D01*
X40110496Y-104536204D01*
X40135000Y-104535000D01*
X40885000Y-104535000D01*
X40909504Y-104536204D01*
G37*
G36*
X43709504Y-101996204D02*
G01*
X43733773Y-101999804D01*
X43757571Y-102005765D01*
X43780671Y-102014030D01*
X43802849Y-102024520D01*
X43823893Y-102037133D01*
X43843598Y-102051747D01*
X43861777Y-102068223D01*
X43878253Y-102086402D01*
X43892867Y-102106107D01*
X43905480Y-102127151D01*
X43915970Y-102149329D01*
X43924235Y-102172429D01*
X43930196Y-102196227D01*
X43933796Y-102220496D01*
X43935000Y-102245000D01*
X43935000Y-103495000D01*
X43933796Y-103519504D01*
X43930196Y-103543773D01*
X43924235Y-103567571D01*
X43915970Y-103590671D01*
X43905480Y-103612849D01*
X43892867Y-103633893D01*
X43878253Y-103653598D01*
X43861777Y-103671777D01*
X43843598Y-103688253D01*
X43823893Y-103702867D01*
X43802849Y-103715480D01*
X43780671Y-103725970D01*
X43757571Y-103734235D01*
X43733773Y-103740196D01*
X43709504Y-103743796D01*
X43685000Y-103745000D01*
X42935000Y-103745000D01*
X42910496Y-103743796D01*
X42886227Y-103740196D01*
X42862429Y-103734235D01*
X42839329Y-103725970D01*
X42817151Y-103715480D01*
X42796107Y-103702867D01*
X42776402Y-103688253D01*
X42758223Y-103671777D01*
X42741747Y-103653598D01*
X42727133Y-103633893D01*
X42714520Y-103612849D01*
X42704030Y-103590671D01*
X42695765Y-103567571D01*
X42689804Y-103543773D01*
X42686204Y-103519504D01*
X42685000Y-103495000D01*
X42685000Y-102245000D01*
X42686204Y-102220496D01*
X42689804Y-102196227D01*
X42695765Y-102172429D01*
X42704030Y-102149329D01*
X42714520Y-102127151D01*
X42727133Y-102106107D01*
X42741747Y-102086402D01*
X42758223Y-102068223D01*
X42776402Y-102051747D01*
X42796107Y-102037133D01*
X42817151Y-102024520D01*
X42839329Y-102014030D01*
X42862429Y-102005765D01*
X42886227Y-101999804D01*
X42910496Y-101996204D01*
X42935000Y-101995000D01*
X43685000Y-101995000D01*
X43709504Y-101996204D01*
G37*
G36*
X40909504Y-101996204D02*
G01*
X40933773Y-101999804D01*
X40957571Y-102005765D01*
X40980671Y-102014030D01*
X41002849Y-102024520D01*
X41023893Y-102037133D01*
X41043598Y-102051747D01*
X41061777Y-102068223D01*
X41078253Y-102086402D01*
X41092867Y-102106107D01*
X41105480Y-102127151D01*
X41115970Y-102149329D01*
X41124235Y-102172429D01*
X41130196Y-102196227D01*
X41133796Y-102220496D01*
X41135000Y-102245000D01*
X41135000Y-103495000D01*
X41133796Y-103519504D01*
X41130196Y-103543773D01*
X41124235Y-103567571D01*
X41115970Y-103590671D01*
X41105480Y-103612849D01*
X41092867Y-103633893D01*
X41078253Y-103653598D01*
X41061777Y-103671777D01*
X41043598Y-103688253D01*
X41023893Y-103702867D01*
X41002849Y-103715480D01*
X40980671Y-103725970D01*
X40957571Y-103734235D01*
X40933773Y-103740196D01*
X40909504Y-103743796D01*
X40885000Y-103745000D01*
X40135000Y-103745000D01*
X40110496Y-103743796D01*
X40086227Y-103740196D01*
X40062429Y-103734235D01*
X40039329Y-103725970D01*
X40017151Y-103715480D01*
X39996107Y-103702867D01*
X39976402Y-103688253D01*
X39958223Y-103671777D01*
X39941747Y-103653598D01*
X39927133Y-103633893D01*
X39914520Y-103612849D01*
X39904030Y-103590671D01*
X39895765Y-103567571D01*
X39889804Y-103543773D01*
X39886204Y-103519504D01*
X39885000Y-103495000D01*
X39885000Y-102245000D01*
X39886204Y-102220496D01*
X39889804Y-102196227D01*
X39895765Y-102172429D01*
X39904030Y-102149329D01*
X39914520Y-102127151D01*
X39927133Y-102106107D01*
X39941747Y-102086402D01*
X39958223Y-102068223D01*
X39976402Y-102051747D01*
X39996107Y-102037133D01*
X40017151Y-102024520D01*
X40039329Y-102014030D01*
X40062429Y-102005765D01*
X40086227Y-101999804D01*
X40110496Y-101996204D01*
X40135000Y-101995000D01*
X40885000Y-101995000D01*
X40909504Y-101996204D01*
G37*
G36*
X49544504Y-84596204D02*
G01*
X49568773Y-84599804D01*
X49592571Y-84605765D01*
X49615671Y-84614030D01*
X49637849Y-84624520D01*
X49658893Y-84637133D01*
X49678598Y-84651747D01*
X49696777Y-84668223D01*
X49713253Y-84686402D01*
X49727867Y-84706107D01*
X49740480Y-84727151D01*
X49750970Y-84749329D01*
X49759235Y-84772429D01*
X49765196Y-84796227D01*
X49768796Y-84820496D01*
X49770000Y-84845000D01*
X49770000Y-85595000D01*
X49768796Y-85619504D01*
X49765196Y-85643773D01*
X49759235Y-85667571D01*
X49750970Y-85690671D01*
X49740480Y-85712849D01*
X49727867Y-85733893D01*
X49713253Y-85753598D01*
X49696777Y-85771777D01*
X49678598Y-85788253D01*
X49658893Y-85802867D01*
X49637849Y-85815480D01*
X49615671Y-85825970D01*
X49592571Y-85834235D01*
X49568773Y-85840196D01*
X49544504Y-85843796D01*
X49520000Y-85845000D01*
X48270000Y-85845000D01*
X48245496Y-85843796D01*
X48221227Y-85840196D01*
X48197429Y-85834235D01*
X48174329Y-85825970D01*
X48152151Y-85815480D01*
X48131107Y-85802867D01*
X48111402Y-85788253D01*
X48093223Y-85771777D01*
X48076747Y-85753598D01*
X48062133Y-85733893D01*
X48049520Y-85712849D01*
X48039030Y-85690671D01*
X48030765Y-85667571D01*
X48024804Y-85643773D01*
X48021204Y-85619504D01*
X48020000Y-85595000D01*
X48020000Y-84845000D01*
X48021204Y-84820496D01*
X48024804Y-84796227D01*
X48030765Y-84772429D01*
X48039030Y-84749329D01*
X48049520Y-84727151D01*
X48062133Y-84706107D01*
X48076747Y-84686402D01*
X48093223Y-84668223D01*
X48111402Y-84651747D01*
X48131107Y-84637133D01*
X48152151Y-84624520D01*
X48174329Y-84614030D01*
X48197429Y-84605765D01*
X48221227Y-84599804D01*
X48245496Y-84596204D01*
X48270000Y-84595000D01*
X49520000Y-84595000D01*
X49544504Y-84596204D01*
G37*
G36*
X49544504Y-81796204D02*
G01*
X49568773Y-81799804D01*
X49592571Y-81805765D01*
X49615671Y-81814030D01*
X49637849Y-81824520D01*
X49658893Y-81837133D01*
X49678598Y-81851747D01*
X49696777Y-81868223D01*
X49713253Y-81886402D01*
X49727867Y-81906107D01*
X49740480Y-81927151D01*
X49750970Y-81949329D01*
X49759235Y-81972429D01*
X49765196Y-81996227D01*
X49768796Y-82020496D01*
X49770000Y-82045000D01*
X49770000Y-82795000D01*
X49768796Y-82819504D01*
X49765196Y-82843773D01*
X49759235Y-82867571D01*
X49750970Y-82890671D01*
X49740480Y-82912849D01*
X49727867Y-82933893D01*
X49713253Y-82953598D01*
X49696777Y-82971777D01*
X49678598Y-82988253D01*
X49658893Y-83002867D01*
X49637849Y-83015480D01*
X49615671Y-83025970D01*
X49592571Y-83034235D01*
X49568773Y-83040196D01*
X49544504Y-83043796D01*
X49520000Y-83045000D01*
X48270000Y-83045000D01*
X48245496Y-83043796D01*
X48221227Y-83040196D01*
X48197429Y-83034235D01*
X48174329Y-83025970D01*
X48152151Y-83015480D01*
X48131107Y-83002867D01*
X48111402Y-82988253D01*
X48093223Y-82971777D01*
X48076747Y-82953598D01*
X48062133Y-82933893D01*
X48049520Y-82912849D01*
X48039030Y-82890671D01*
X48030765Y-82867571D01*
X48024804Y-82843773D01*
X48021204Y-82819504D01*
X48020000Y-82795000D01*
X48020000Y-82045000D01*
X48021204Y-82020496D01*
X48024804Y-81996227D01*
X48030765Y-81972429D01*
X48039030Y-81949329D01*
X48049520Y-81927151D01*
X48062133Y-81906107D01*
X48076747Y-81886402D01*
X48093223Y-81868223D01*
X48111402Y-81851747D01*
X48131107Y-81837133D01*
X48152151Y-81824520D01*
X48174329Y-81814030D01*
X48197429Y-81805765D01*
X48221227Y-81799804D01*
X48245496Y-81796204D01*
X48270000Y-81795000D01*
X49520000Y-81795000D01*
X49544504Y-81796204D01*
G37*
G36*
X54624504Y-84596204D02*
G01*
X54648773Y-84599804D01*
X54672571Y-84605765D01*
X54695671Y-84614030D01*
X54717849Y-84624520D01*
X54738893Y-84637133D01*
X54758598Y-84651747D01*
X54776777Y-84668223D01*
X54793253Y-84686402D01*
X54807867Y-84706107D01*
X54820480Y-84727151D01*
X54830970Y-84749329D01*
X54839235Y-84772429D01*
X54845196Y-84796227D01*
X54848796Y-84820496D01*
X54850000Y-84845000D01*
X54850000Y-85595000D01*
X54848796Y-85619504D01*
X54845196Y-85643773D01*
X54839235Y-85667571D01*
X54830970Y-85690671D01*
X54820480Y-85712849D01*
X54807867Y-85733893D01*
X54793253Y-85753598D01*
X54776777Y-85771777D01*
X54758598Y-85788253D01*
X54738893Y-85802867D01*
X54717849Y-85815480D01*
X54695671Y-85825970D01*
X54672571Y-85834235D01*
X54648773Y-85840196D01*
X54624504Y-85843796D01*
X54600000Y-85845000D01*
X53350000Y-85845000D01*
X53325496Y-85843796D01*
X53301227Y-85840196D01*
X53277429Y-85834235D01*
X53254329Y-85825970D01*
X53232151Y-85815480D01*
X53211107Y-85802867D01*
X53191402Y-85788253D01*
X53173223Y-85771777D01*
X53156747Y-85753598D01*
X53142133Y-85733893D01*
X53129520Y-85712849D01*
X53119030Y-85690671D01*
X53110765Y-85667571D01*
X53104804Y-85643773D01*
X53101204Y-85619504D01*
X53100000Y-85595000D01*
X53100000Y-84845000D01*
X53101204Y-84820496D01*
X53104804Y-84796227D01*
X53110765Y-84772429D01*
X53119030Y-84749329D01*
X53129520Y-84727151D01*
X53142133Y-84706107D01*
X53156747Y-84686402D01*
X53173223Y-84668223D01*
X53191402Y-84651747D01*
X53211107Y-84637133D01*
X53232151Y-84624520D01*
X53254329Y-84614030D01*
X53277429Y-84605765D01*
X53301227Y-84599804D01*
X53325496Y-84596204D01*
X53350000Y-84595000D01*
X54600000Y-84595000D01*
X54624504Y-84596204D01*
G37*
G36*
X54624504Y-81796204D02*
G01*
X54648773Y-81799804D01*
X54672571Y-81805765D01*
X54695671Y-81814030D01*
X54717849Y-81824520D01*
X54738893Y-81837133D01*
X54758598Y-81851747D01*
X54776777Y-81868223D01*
X54793253Y-81886402D01*
X54807867Y-81906107D01*
X54820480Y-81927151D01*
X54830970Y-81949329D01*
X54839235Y-81972429D01*
X54845196Y-81996227D01*
X54848796Y-82020496D01*
X54850000Y-82045000D01*
X54850000Y-82795000D01*
X54848796Y-82819504D01*
X54845196Y-82843773D01*
X54839235Y-82867571D01*
X54830970Y-82890671D01*
X54820480Y-82912849D01*
X54807867Y-82933893D01*
X54793253Y-82953598D01*
X54776777Y-82971777D01*
X54758598Y-82988253D01*
X54738893Y-83002867D01*
X54717849Y-83015480D01*
X54695671Y-83025970D01*
X54672571Y-83034235D01*
X54648773Y-83040196D01*
X54624504Y-83043796D01*
X54600000Y-83045000D01*
X53350000Y-83045000D01*
X53325496Y-83043796D01*
X53301227Y-83040196D01*
X53277429Y-83034235D01*
X53254329Y-83025970D01*
X53232151Y-83015480D01*
X53211107Y-83002867D01*
X53191402Y-82988253D01*
X53173223Y-82971777D01*
X53156747Y-82953598D01*
X53142133Y-82933893D01*
X53129520Y-82912849D01*
X53119030Y-82890671D01*
X53110765Y-82867571D01*
X53104804Y-82843773D01*
X53101204Y-82819504D01*
X53100000Y-82795000D01*
X53100000Y-82045000D01*
X53101204Y-82020496D01*
X53104804Y-81996227D01*
X53110765Y-81972429D01*
X53119030Y-81949329D01*
X53129520Y-81927151D01*
X53142133Y-81906107D01*
X53156747Y-81886402D01*
X53173223Y-81868223D01*
X53191402Y-81851747D01*
X53211107Y-81837133D01*
X53232151Y-81824520D01*
X53254329Y-81814030D01*
X53277429Y-81805765D01*
X53301227Y-81799804D01*
X53325496Y-81796204D01*
X53350000Y-81795000D01*
X54600000Y-81795000D01*
X54624504Y-81796204D01*
G37*
D11*
X19765000Y-82550000D03*
X19765000Y-85090000D03*
X31195000Y-85090000D03*
X31195000Y-82550000D03*
X19765000Y-87630000D03*
X31195000Y-87630000D03*
D10*
G36*
X54749703Y-79710722D02*
G01*
X54764264Y-79712882D01*
X54778543Y-79716459D01*
X54792403Y-79721418D01*
X54805710Y-79727712D01*
X54818336Y-79735280D01*
X54830159Y-79744048D01*
X54841066Y-79753934D01*
X54850952Y-79764841D01*
X54859720Y-79776664D01*
X54867288Y-79789290D01*
X54873582Y-79802597D01*
X54878541Y-79816457D01*
X54882118Y-79830736D01*
X54884278Y-79845297D01*
X54885000Y-79860000D01*
X54885000Y-80160000D01*
X54884278Y-80174703D01*
X54882118Y-80189264D01*
X54878541Y-80203543D01*
X54873582Y-80217403D01*
X54867288Y-80230710D01*
X54859720Y-80243336D01*
X54850952Y-80255159D01*
X54841066Y-80266066D01*
X54830159Y-80275952D01*
X54818336Y-80284720D01*
X54805710Y-80292288D01*
X54792403Y-80298582D01*
X54778543Y-80303541D01*
X54764264Y-80307118D01*
X54749703Y-80309278D01*
X54735000Y-80310000D01*
X53085000Y-80310000D01*
X53070297Y-80309278D01*
X53055736Y-80307118D01*
X53041457Y-80303541D01*
X53027597Y-80298582D01*
X53014290Y-80292288D01*
X53001664Y-80284720D01*
X52989841Y-80275952D01*
X52978934Y-80266066D01*
X52969048Y-80255159D01*
X52960280Y-80243336D01*
X52952712Y-80230710D01*
X52946418Y-80217403D01*
X52941459Y-80203543D01*
X52937882Y-80189264D01*
X52935722Y-80174703D01*
X52935000Y-80160000D01*
X52935000Y-79860000D01*
X52935722Y-79845297D01*
X52937882Y-79830736D01*
X52941459Y-79816457D01*
X52946418Y-79802597D01*
X52952712Y-79789290D01*
X52960280Y-79776664D01*
X52969048Y-79764841D01*
X52978934Y-79753934D01*
X52989841Y-79744048D01*
X53001664Y-79735280D01*
X53014290Y-79727712D01*
X53027597Y-79721418D01*
X53041457Y-79716459D01*
X53055736Y-79712882D01*
X53070297Y-79710722D01*
X53085000Y-79710000D01*
X54735000Y-79710000D01*
X54749703Y-79710722D01*
G37*
G36*
X54749703Y-78440722D02*
G01*
X54764264Y-78442882D01*
X54778543Y-78446459D01*
X54792403Y-78451418D01*
X54805710Y-78457712D01*
X54818336Y-78465280D01*
X54830159Y-78474048D01*
X54841066Y-78483934D01*
X54850952Y-78494841D01*
X54859720Y-78506664D01*
X54867288Y-78519290D01*
X54873582Y-78532597D01*
X54878541Y-78546457D01*
X54882118Y-78560736D01*
X54884278Y-78575297D01*
X54885000Y-78590000D01*
X54885000Y-78890000D01*
X54884278Y-78904703D01*
X54882118Y-78919264D01*
X54878541Y-78933543D01*
X54873582Y-78947403D01*
X54867288Y-78960710D01*
X54859720Y-78973336D01*
X54850952Y-78985159D01*
X54841066Y-78996066D01*
X54830159Y-79005952D01*
X54818336Y-79014720D01*
X54805710Y-79022288D01*
X54792403Y-79028582D01*
X54778543Y-79033541D01*
X54764264Y-79037118D01*
X54749703Y-79039278D01*
X54735000Y-79040000D01*
X53085000Y-79040000D01*
X53070297Y-79039278D01*
X53055736Y-79037118D01*
X53041457Y-79033541D01*
X53027597Y-79028582D01*
X53014290Y-79022288D01*
X53001664Y-79014720D01*
X52989841Y-79005952D01*
X52978934Y-78996066D01*
X52969048Y-78985159D01*
X52960280Y-78973336D01*
X52952712Y-78960710D01*
X52946418Y-78947403D01*
X52941459Y-78933543D01*
X52937882Y-78919264D01*
X52935722Y-78904703D01*
X52935000Y-78890000D01*
X52935000Y-78590000D01*
X52935722Y-78575297D01*
X52937882Y-78560736D01*
X52941459Y-78546457D01*
X52946418Y-78532597D01*
X52952712Y-78519290D01*
X52960280Y-78506664D01*
X52969048Y-78494841D01*
X52978934Y-78483934D01*
X52989841Y-78474048D01*
X53001664Y-78465280D01*
X53014290Y-78457712D01*
X53027597Y-78451418D01*
X53041457Y-78446459D01*
X53055736Y-78442882D01*
X53070297Y-78440722D01*
X53085000Y-78440000D01*
X54735000Y-78440000D01*
X54749703Y-78440722D01*
G37*
G36*
X54749703Y-77170722D02*
G01*
X54764264Y-77172882D01*
X54778543Y-77176459D01*
X54792403Y-77181418D01*
X54805710Y-77187712D01*
X54818336Y-77195280D01*
X54830159Y-77204048D01*
X54841066Y-77213934D01*
X54850952Y-77224841D01*
X54859720Y-77236664D01*
X54867288Y-77249290D01*
X54873582Y-77262597D01*
X54878541Y-77276457D01*
X54882118Y-77290736D01*
X54884278Y-77305297D01*
X54885000Y-77320000D01*
X54885000Y-77620000D01*
X54884278Y-77634703D01*
X54882118Y-77649264D01*
X54878541Y-77663543D01*
X54873582Y-77677403D01*
X54867288Y-77690710D01*
X54859720Y-77703336D01*
X54850952Y-77715159D01*
X54841066Y-77726066D01*
X54830159Y-77735952D01*
X54818336Y-77744720D01*
X54805710Y-77752288D01*
X54792403Y-77758582D01*
X54778543Y-77763541D01*
X54764264Y-77767118D01*
X54749703Y-77769278D01*
X54735000Y-77770000D01*
X53085000Y-77770000D01*
X53070297Y-77769278D01*
X53055736Y-77767118D01*
X53041457Y-77763541D01*
X53027597Y-77758582D01*
X53014290Y-77752288D01*
X53001664Y-77744720D01*
X52989841Y-77735952D01*
X52978934Y-77726066D01*
X52969048Y-77715159D01*
X52960280Y-77703336D01*
X52952712Y-77690710D01*
X52946418Y-77677403D01*
X52941459Y-77663543D01*
X52937882Y-77649264D01*
X52935722Y-77634703D01*
X52935000Y-77620000D01*
X52935000Y-77320000D01*
X52935722Y-77305297D01*
X52937882Y-77290736D01*
X52941459Y-77276457D01*
X52946418Y-77262597D01*
X52952712Y-77249290D01*
X52960280Y-77236664D01*
X52969048Y-77224841D01*
X52978934Y-77213934D01*
X52989841Y-77204048D01*
X53001664Y-77195280D01*
X53014290Y-77187712D01*
X53027597Y-77181418D01*
X53041457Y-77176459D01*
X53055736Y-77172882D01*
X53070297Y-77170722D01*
X53085000Y-77170000D01*
X54735000Y-77170000D01*
X54749703Y-77170722D01*
G37*
G36*
X54749703Y-75900722D02*
G01*
X54764264Y-75902882D01*
X54778543Y-75906459D01*
X54792403Y-75911418D01*
X54805710Y-75917712D01*
X54818336Y-75925280D01*
X54830159Y-75934048D01*
X54841066Y-75943934D01*
X54850952Y-75954841D01*
X54859720Y-75966664D01*
X54867288Y-75979290D01*
X54873582Y-75992597D01*
X54878541Y-76006457D01*
X54882118Y-76020736D01*
X54884278Y-76035297D01*
X54885000Y-76050000D01*
X54885000Y-76350000D01*
X54884278Y-76364703D01*
X54882118Y-76379264D01*
X54878541Y-76393543D01*
X54873582Y-76407403D01*
X54867288Y-76420710D01*
X54859720Y-76433336D01*
X54850952Y-76445159D01*
X54841066Y-76456066D01*
X54830159Y-76465952D01*
X54818336Y-76474720D01*
X54805710Y-76482288D01*
X54792403Y-76488582D01*
X54778543Y-76493541D01*
X54764264Y-76497118D01*
X54749703Y-76499278D01*
X54735000Y-76500000D01*
X53085000Y-76500000D01*
X53070297Y-76499278D01*
X53055736Y-76497118D01*
X53041457Y-76493541D01*
X53027597Y-76488582D01*
X53014290Y-76482288D01*
X53001664Y-76474720D01*
X52989841Y-76465952D01*
X52978934Y-76456066D01*
X52969048Y-76445159D01*
X52960280Y-76433336D01*
X52952712Y-76420710D01*
X52946418Y-76407403D01*
X52941459Y-76393543D01*
X52937882Y-76379264D01*
X52935722Y-76364703D01*
X52935000Y-76350000D01*
X52935000Y-76050000D01*
X52935722Y-76035297D01*
X52937882Y-76020736D01*
X52941459Y-76006457D01*
X52946418Y-75992597D01*
X52952712Y-75979290D01*
X52960280Y-75966664D01*
X52969048Y-75954841D01*
X52978934Y-75943934D01*
X52989841Y-75934048D01*
X53001664Y-75925280D01*
X53014290Y-75917712D01*
X53027597Y-75911418D01*
X53041457Y-75906459D01*
X53055736Y-75902882D01*
X53070297Y-75900722D01*
X53085000Y-75900000D01*
X54735000Y-75900000D01*
X54749703Y-75900722D01*
G37*
G36*
X54749703Y-74630722D02*
G01*
X54764264Y-74632882D01*
X54778543Y-74636459D01*
X54792403Y-74641418D01*
X54805710Y-74647712D01*
X54818336Y-74655280D01*
X54830159Y-74664048D01*
X54841066Y-74673934D01*
X54850952Y-74684841D01*
X54859720Y-74696664D01*
X54867288Y-74709290D01*
X54873582Y-74722597D01*
X54878541Y-74736457D01*
X54882118Y-74750736D01*
X54884278Y-74765297D01*
X54885000Y-74780000D01*
X54885000Y-75080000D01*
X54884278Y-75094703D01*
X54882118Y-75109264D01*
X54878541Y-75123543D01*
X54873582Y-75137403D01*
X54867288Y-75150710D01*
X54859720Y-75163336D01*
X54850952Y-75175159D01*
X54841066Y-75186066D01*
X54830159Y-75195952D01*
X54818336Y-75204720D01*
X54805710Y-75212288D01*
X54792403Y-75218582D01*
X54778543Y-75223541D01*
X54764264Y-75227118D01*
X54749703Y-75229278D01*
X54735000Y-75230000D01*
X53085000Y-75230000D01*
X53070297Y-75229278D01*
X53055736Y-75227118D01*
X53041457Y-75223541D01*
X53027597Y-75218582D01*
X53014290Y-75212288D01*
X53001664Y-75204720D01*
X52989841Y-75195952D01*
X52978934Y-75186066D01*
X52969048Y-75175159D01*
X52960280Y-75163336D01*
X52952712Y-75150710D01*
X52946418Y-75137403D01*
X52941459Y-75123543D01*
X52937882Y-75109264D01*
X52935722Y-75094703D01*
X52935000Y-75080000D01*
X52935000Y-74780000D01*
X52935722Y-74765297D01*
X52937882Y-74750736D01*
X52941459Y-74736457D01*
X52946418Y-74722597D01*
X52952712Y-74709290D01*
X52960280Y-74696664D01*
X52969048Y-74684841D01*
X52978934Y-74673934D01*
X52989841Y-74664048D01*
X53001664Y-74655280D01*
X53014290Y-74647712D01*
X53027597Y-74641418D01*
X53041457Y-74636459D01*
X53055736Y-74632882D01*
X53070297Y-74630722D01*
X53085000Y-74630000D01*
X54735000Y-74630000D01*
X54749703Y-74630722D01*
G37*
G36*
X54749703Y-73360722D02*
G01*
X54764264Y-73362882D01*
X54778543Y-73366459D01*
X54792403Y-73371418D01*
X54805710Y-73377712D01*
X54818336Y-73385280D01*
X54830159Y-73394048D01*
X54841066Y-73403934D01*
X54850952Y-73414841D01*
X54859720Y-73426664D01*
X54867288Y-73439290D01*
X54873582Y-73452597D01*
X54878541Y-73466457D01*
X54882118Y-73480736D01*
X54884278Y-73495297D01*
X54885000Y-73510000D01*
X54885000Y-73810000D01*
X54884278Y-73824703D01*
X54882118Y-73839264D01*
X54878541Y-73853543D01*
X54873582Y-73867403D01*
X54867288Y-73880710D01*
X54859720Y-73893336D01*
X54850952Y-73905159D01*
X54841066Y-73916066D01*
X54830159Y-73925952D01*
X54818336Y-73934720D01*
X54805710Y-73942288D01*
X54792403Y-73948582D01*
X54778543Y-73953541D01*
X54764264Y-73957118D01*
X54749703Y-73959278D01*
X54735000Y-73960000D01*
X53085000Y-73960000D01*
X53070297Y-73959278D01*
X53055736Y-73957118D01*
X53041457Y-73953541D01*
X53027597Y-73948582D01*
X53014290Y-73942288D01*
X53001664Y-73934720D01*
X52989841Y-73925952D01*
X52978934Y-73916066D01*
X52969048Y-73905159D01*
X52960280Y-73893336D01*
X52952712Y-73880710D01*
X52946418Y-73867403D01*
X52941459Y-73853543D01*
X52937882Y-73839264D01*
X52935722Y-73824703D01*
X52935000Y-73810000D01*
X52935000Y-73510000D01*
X52935722Y-73495297D01*
X52937882Y-73480736D01*
X52941459Y-73466457D01*
X52946418Y-73452597D01*
X52952712Y-73439290D01*
X52960280Y-73426664D01*
X52969048Y-73414841D01*
X52978934Y-73403934D01*
X52989841Y-73394048D01*
X53001664Y-73385280D01*
X53014290Y-73377712D01*
X53027597Y-73371418D01*
X53041457Y-73366459D01*
X53055736Y-73362882D01*
X53070297Y-73360722D01*
X53085000Y-73360000D01*
X54735000Y-73360000D01*
X54749703Y-73360722D01*
G37*
G36*
X54749703Y-72090722D02*
G01*
X54764264Y-72092882D01*
X54778543Y-72096459D01*
X54792403Y-72101418D01*
X54805710Y-72107712D01*
X54818336Y-72115280D01*
X54830159Y-72124048D01*
X54841066Y-72133934D01*
X54850952Y-72144841D01*
X54859720Y-72156664D01*
X54867288Y-72169290D01*
X54873582Y-72182597D01*
X54878541Y-72196457D01*
X54882118Y-72210736D01*
X54884278Y-72225297D01*
X54885000Y-72240000D01*
X54885000Y-72540000D01*
X54884278Y-72554703D01*
X54882118Y-72569264D01*
X54878541Y-72583543D01*
X54873582Y-72597403D01*
X54867288Y-72610710D01*
X54859720Y-72623336D01*
X54850952Y-72635159D01*
X54841066Y-72646066D01*
X54830159Y-72655952D01*
X54818336Y-72664720D01*
X54805710Y-72672288D01*
X54792403Y-72678582D01*
X54778543Y-72683541D01*
X54764264Y-72687118D01*
X54749703Y-72689278D01*
X54735000Y-72690000D01*
X53085000Y-72690000D01*
X53070297Y-72689278D01*
X53055736Y-72687118D01*
X53041457Y-72683541D01*
X53027597Y-72678582D01*
X53014290Y-72672288D01*
X53001664Y-72664720D01*
X52989841Y-72655952D01*
X52978934Y-72646066D01*
X52969048Y-72635159D01*
X52960280Y-72623336D01*
X52952712Y-72610710D01*
X52946418Y-72597403D01*
X52941459Y-72583543D01*
X52937882Y-72569264D01*
X52935722Y-72554703D01*
X52935000Y-72540000D01*
X52935000Y-72240000D01*
X52935722Y-72225297D01*
X52937882Y-72210736D01*
X52941459Y-72196457D01*
X52946418Y-72182597D01*
X52952712Y-72169290D01*
X52960280Y-72156664D01*
X52969048Y-72144841D01*
X52978934Y-72133934D01*
X52989841Y-72124048D01*
X53001664Y-72115280D01*
X53014290Y-72107712D01*
X53027597Y-72101418D01*
X53041457Y-72096459D01*
X53055736Y-72092882D01*
X53070297Y-72090722D01*
X53085000Y-72090000D01*
X54735000Y-72090000D01*
X54749703Y-72090722D01*
G37*
G36*
X49799703Y-72090722D02*
G01*
X49814264Y-72092882D01*
X49828543Y-72096459D01*
X49842403Y-72101418D01*
X49855710Y-72107712D01*
X49868336Y-72115280D01*
X49880159Y-72124048D01*
X49891066Y-72133934D01*
X49900952Y-72144841D01*
X49909720Y-72156664D01*
X49917288Y-72169290D01*
X49923582Y-72182597D01*
X49928541Y-72196457D01*
X49932118Y-72210736D01*
X49934278Y-72225297D01*
X49935000Y-72240000D01*
X49935000Y-72540000D01*
X49934278Y-72554703D01*
X49932118Y-72569264D01*
X49928541Y-72583543D01*
X49923582Y-72597403D01*
X49917288Y-72610710D01*
X49909720Y-72623336D01*
X49900952Y-72635159D01*
X49891066Y-72646066D01*
X49880159Y-72655952D01*
X49868336Y-72664720D01*
X49855710Y-72672288D01*
X49842403Y-72678582D01*
X49828543Y-72683541D01*
X49814264Y-72687118D01*
X49799703Y-72689278D01*
X49785000Y-72690000D01*
X48135000Y-72690000D01*
X48120297Y-72689278D01*
X48105736Y-72687118D01*
X48091457Y-72683541D01*
X48077597Y-72678582D01*
X48064290Y-72672288D01*
X48051664Y-72664720D01*
X48039841Y-72655952D01*
X48028934Y-72646066D01*
X48019048Y-72635159D01*
X48010280Y-72623336D01*
X48002712Y-72610710D01*
X47996418Y-72597403D01*
X47991459Y-72583543D01*
X47987882Y-72569264D01*
X47985722Y-72554703D01*
X47985000Y-72540000D01*
X47985000Y-72240000D01*
X47985722Y-72225297D01*
X47987882Y-72210736D01*
X47991459Y-72196457D01*
X47996418Y-72182597D01*
X48002712Y-72169290D01*
X48010280Y-72156664D01*
X48019048Y-72144841D01*
X48028934Y-72133934D01*
X48039841Y-72124048D01*
X48051664Y-72115280D01*
X48064290Y-72107712D01*
X48077597Y-72101418D01*
X48091457Y-72096459D01*
X48105736Y-72092882D01*
X48120297Y-72090722D01*
X48135000Y-72090000D01*
X49785000Y-72090000D01*
X49799703Y-72090722D01*
G37*
G36*
X49799703Y-73360722D02*
G01*
X49814264Y-73362882D01*
X49828543Y-73366459D01*
X49842403Y-73371418D01*
X49855710Y-73377712D01*
X49868336Y-73385280D01*
X49880159Y-73394048D01*
X49891066Y-73403934D01*
X49900952Y-73414841D01*
X49909720Y-73426664D01*
X49917288Y-73439290D01*
X49923582Y-73452597D01*
X49928541Y-73466457D01*
X49932118Y-73480736D01*
X49934278Y-73495297D01*
X49935000Y-73510000D01*
X49935000Y-73810000D01*
X49934278Y-73824703D01*
X49932118Y-73839264D01*
X49928541Y-73853543D01*
X49923582Y-73867403D01*
X49917288Y-73880710D01*
X49909720Y-73893336D01*
X49900952Y-73905159D01*
X49891066Y-73916066D01*
X49880159Y-73925952D01*
X49868336Y-73934720D01*
X49855710Y-73942288D01*
X49842403Y-73948582D01*
X49828543Y-73953541D01*
X49814264Y-73957118D01*
X49799703Y-73959278D01*
X49785000Y-73960000D01*
X48135000Y-73960000D01*
X48120297Y-73959278D01*
X48105736Y-73957118D01*
X48091457Y-73953541D01*
X48077597Y-73948582D01*
X48064290Y-73942288D01*
X48051664Y-73934720D01*
X48039841Y-73925952D01*
X48028934Y-73916066D01*
X48019048Y-73905159D01*
X48010280Y-73893336D01*
X48002712Y-73880710D01*
X47996418Y-73867403D01*
X47991459Y-73853543D01*
X47987882Y-73839264D01*
X47985722Y-73824703D01*
X47985000Y-73810000D01*
X47985000Y-73510000D01*
X47985722Y-73495297D01*
X47987882Y-73480736D01*
X47991459Y-73466457D01*
X47996418Y-73452597D01*
X48002712Y-73439290D01*
X48010280Y-73426664D01*
X48019048Y-73414841D01*
X48028934Y-73403934D01*
X48039841Y-73394048D01*
X48051664Y-73385280D01*
X48064290Y-73377712D01*
X48077597Y-73371418D01*
X48091457Y-73366459D01*
X48105736Y-73362882D01*
X48120297Y-73360722D01*
X48135000Y-73360000D01*
X49785000Y-73360000D01*
X49799703Y-73360722D01*
G37*
G36*
X49799703Y-74630722D02*
G01*
X49814264Y-74632882D01*
X49828543Y-74636459D01*
X49842403Y-74641418D01*
X49855710Y-74647712D01*
X49868336Y-74655280D01*
X49880159Y-74664048D01*
X49891066Y-74673934D01*
X49900952Y-74684841D01*
X49909720Y-74696664D01*
X49917288Y-74709290D01*
X49923582Y-74722597D01*
X49928541Y-74736457D01*
X49932118Y-74750736D01*
X49934278Y-74765297D01*
X49935000Y-74780000D01*
X49935000Y-75080000D01*
X49934278Y-75094703D01*
X49932118Y-75109264D01*
X49928541Y-75123543D01*
X49923582Y-75137403D01*
X49917288Y-75150710D01*
X49909720Y-75163336D01*
X49900952Y-75175159D01*
X49891066Y-75186066D01*
X49880159Y-75195952D01*
X49868336Y-75204720D01*
X49855710Y-75212288D01*
X49842403Y-75218582D01*
X49828543Y-75223541D01*
X49814264Y-75227118D01*
X49799703Y-75229278D01*
X49785000Y-75230000D01*
X48135000Y-75230000D01*
X48120297Y-75229278D01*
X48105736Y-75227118D01*
X48091457Y-75223541D01*
X48077597Y-75218582D01*
X48064290Y-75212288D01*
X48051664Y-75204720D01*
X48039841Y-75195952D01*
X48028934Y-75186066D01*
X48019048Y-75175159D01*
X48010280Y-75163336D01*
X48002712Y-75150710D01*
X47996418Y-75137403D01*
X47991459Y-75123543D01*
X47987882Y-75109264D01*
X47985722Y-75094703D01*
X47985000Y-75080000D01*
X47985000Y-74780000D01*
X47985722Y-74765297D01*
X47987882Y-74750736D01*
X47991459Y-74736457D01*
X47996418Y-74722597D01*
X48002712Y-74709290D01*
X48010280Y-74696664D01*
X48019048Y-74684841D01*
X48028934Y-74673934D01*
X48039841Y-74664048D01*
X48051664Y-74655280D01*
X48064290Y-74647712D01*
X48077597Y-74641418D01*
X48091457Y-74636459D01*
X48105736Y-74632882D01*
X48120297Y-74630722D01*
X48135000Y-74630000D01*
X49785000Y-74630000D01*
X49799703Y-74630722D01*
G37*
G36*
X49799703Y-75900722D02*
G01*
X49814264Y-75902882D01*
X49828543Y-75906459D01*
X49842403Y-75911418D01*
X49855710Y-75917712D01*
X49868336Y-75925280D01*
X49880159Y-75934048D01*
X49891066Y-75943934D01*
X49900952Y-75954841D01*
X49909720Y-75966664D01*
X49917288Y-75979290D01*
X49923582Y-75992597D01*
X49928541Y-76006457D01*
X49932118Y-76020736D01*
X49934278Y-76035297D01*
X49935000Y-76050000D01*
X49935000Y-76350000D01*
X49934278Y-76364703D01*
X49932118Y-76379264D01*
X49928541Y-76393543D01*
X49923582Y-76407403D01*
X49917288Y-76420710D01*
X49909720Y-76433336D01*
X49900952Y-76445159D01*
X49891066Y-76456066D01*
X49880159Y-76465952D01*
X49868336Y-76474720D01*
X49855710Y-76482288D01*
X49842403Y-76488582D01*
X49828543Y-76493541D01*
X49814264Y-76497118D01*
X49799703Y-76499278D01*
X49785000Y-76500000D01*
X48135000Y-76500000D01*
X48120297Y-76499278D01*
X48105736Y-76497118D01*
X48091457Y-76493541D01*
X48077597Y-76488582D01*
X48064290Y-76482288D01*
X48051664Y-76474720D01*
X48039841Y-76465952D01*
X48028934Y-76456066D01*
X48019048Y-76445159D01*
X48010280Y-76433336D01*
X48002712Y-76420710D01*
X47996418Y-76407403D01*
X47991459Y-76393543D01*
X47987882Y-76379264D01*
X47985722Y-76364703D01*
X47985000Y-76350000D01*
X47985000Y-76050000D01*
X47985722Y-76035297D01*
X47987882Y-76020736D01*
X47991459Y-76006457D01*
X47996418Y-75992597D01*
X48002712Y-75979290D01*
X48010280Y-75966664D01*
X48019048Y-75954841D01*
X48028934Y-75943934D01*
X48039841Y-75934048D01*
X48051664Y-75925280D01*
X48064290Y-75917712D01*
X48077597Y-75911418D01*
X48091457Y-75906459D01*
X48105736Y-75902882D01*
X48120297Y-75900722D01*
X48135000Y-75900000D01*
X49785000Y-75900000D01*
X49799703Y-75900722D01*
G37*
G36*
X49799703Y-77170722D02*
G01*
X49814264Y-77172882D01*
X49828543Y-77176459D01*
X49842403Y-77181418D01*
X49855710Y-77187712D01*
X49868336Y-77195280D01*
X49880159Y-77204048D01*
X49891066Y-77213934D01*
X49900952Y-77224841D01*
X49909720Y-77236664D01*
X49917288Y-77249290D01*
X49923582Y-77262597D01*
X49928541Y-77276457D01*
X49932118Y-77290736D01*
X49934278Y-77305297D01*
X49935000Y-77320000D01*
X49935000Y-77620000D01*
X49934278Y-77634703D01*
X49932118Y-77649264D01*
X49928541Y-77663543D01*
X49923582Y-77677403D01*
X49917288Y-77690710D01*
X49909720Y-77703336D01*
X49900952Y-77715159D01*
X49891066Y-77726066D01*
X49880159Y-77735952D01*
X49868336Y-77744720D01*
X49855710Y-77752288D01*
X49842403Y-77758582D01*
X49828543Y-77763541D01*
X49814264Y-77767118D01*
X49799703Y-77769278D01*
X49785000Y-77770000D01*
X48135000Y-77770000D01*
X48120297Y-77769278D01*
X48105736Y-77767118D01*
X48091457Y-77763541D01*
X48077597Y-77758582D01*
X48064290Y-77752288D01*
X48051664Y-77744720D01*
X48039841Y-77735952D01*
X48028934Y-77726066D01*
X48019048Y-77715159D01*
X48010280Y-77703336D01*
X48002712Y-77690710D01*
X47996418Y-77677403D01*
X47991459Y-77663543D01*
X47987882Y-77649264D01*
X47985722Y-77634703D01*
X47985000Y-77620000D01*
X47985000Y-77320000D01*
X47985722Y-77305297D01*
X47987882Y-77290736D01*
X47991459Y-77276457D01*
X47996418Y-77262597D01*
X48002712Y-77249290D01*
X48010280Y-77236664D01*
X48019048Y-77224841D01*
X48028934Y-77213934D01*
X48039841Y-77204048D01*
X48051664Y-77195280D01*
X48064290Y-77187712D01*
X48077597Y-77181418D01*
X48091457Y-77176459D01*
X48105736Y-77172882D01*
X48120297Y-77170722D01*
X48135000Y-77170000D01*
X49785000Y-77170000D01*
X49799703Y-77170722D01*
G37*
G36*
X49799703Y-78440722D02*
G01*
X49814264Y-78442882D01*
X49828543Y-78446459D01*
X49842403Y-78451418D01*
X49855710Y-78457712D01*
X49868336Y-78465280D01*
X49880159Y-78474048D01*
X49891066Y-78483934D01*
X49900952Y-78494841D01*
X49909720Y-78506664D01*
X49917288Y-78519290D01*
X49923582Y-78532597D01*
X49928541Y-78546457D01*
X49932118Y-78560736D01*
X49934278Y-78575297D01*
X49935000Y-78590000D01*
X49935000Y-78890000D01*
X49934278Y-78904703D01*
X49932118Y-78919264D01*
X49928541Y-78933543D01*
X49923582Y-78947403D01*
X49917288Y-78960710D01*
X49909720Y-78973336D01*
X49900952Y-78985159D01*
X49891066Y-78996066D01*
X49880159Y-79005952D01*
X49868336Y-79014720D01*
X49855710Y-79022288D01*
X49842403Y-79028582D01*
X49828543Y-79033541D01*
X49814264Y-79037118D01*
X49799703Y-79039278D01*
X49785000Y-79040000D01*
X48135000Y-79040000D01*
X48120297Y-79039278D01*
X48105736Y-79037118D01*
X48091457Y-79033541D01*
X48077597Y-79028582D01*
X48064290Y-79022288D01*
X48051664Y-79014720D01*
X48039841Y-79005952D01*
X48028934Y-78996066D01*
X48019048Y-78985159D01*
X48010280Y-78973336D01*
X48002712Y-78960710D01*
X47996418Y-78947403D01*
X47991459Y-78933543D01*
X47987882Y-78919264D01*
X47985722Y-78904703D01*
X47985000Y-78890000D01*
X47985000Y-78590000D01*
X47985722Y-78575297D01*
X47987882Y-78560736D01*
X47991459Y-78546457D01*
X47996418Y-78532597D01*
X48002712Y-78519290D01*
X48010280Y-78506664D01*
X48019048Y-78494841D01*
X48028934Y-78483934D01*
X48039841Y-78474048D01*
X48051664Y-78465280D01*
X48064290Y-78457712D01*
X48077597Y-78451418D01*
X48091457Y-78446459D01*
X48105736Y-78442882D01*
X48120297Y-78440722D01*
X48135000Y-78440000D01*
X49785000Y-78440000D01*
X49799703Y-78440722D01*
G37*
G36*
X49799703Y-79710722D02*
G01*
X49814264Y-79712882D01*
X49828543Y-79716459D01*
X49842403Y-79721418D01*
X49855710Y-79727712D01*
X49868336Y-79735280D01*
X49880159Y-79744048D01*
X49891066Y-79753934D01*
X49900952Y-79764841D01*
X49909720Y-79776664D01*
X49917288Y-79789290D01*
X49923582Y-79802597D01*
X49928541Y-79816457D01*
X49932118Y-79830736D01*
X49934278Y-79845297D01*
X49935000Y-79860000D01*
X49935000Y-80160000D01*
X49934278Y-80174703D01*
X49932118Y-80189264D01*
X49928541Y-80203543D01*
X49923582Y-80217403D01*
X49917288Y-80230710D01*
X49909720Y-80243336D01*
X49900952Y-80255159D01*
X49891066Y-80266066D01*
X49880159Y-80275952D01*
X49868336Y-80284720D01*
X49855710Y-80292288D01*
X49842403Y-80298582D01*
X49828543Y-80303541D01*
X49814264Y-80307118D01*
X49799703Y-80309278D01*
X49785000Y-80310000D01*
X48135000Y-80310000D01*
X48120297Y-80309278D01*
X48105736Y-80307118D01*
X48091457Y-80303541D01*
X48077597Y-80298582D01*
X48064290Y-80292288D01*
X48051664Y-80284720D01*
X48039841Y-80275952D01*
X48028934Y-80266066D01*
X48019048Y-80255159D01*
X48010280Y-80243336D01*
X48002712Y-80230710D01*
X47996418Y-80217403D01*
X47991459Y-80203543D01*
X47987882Y-80189264D01*
X47985722Y-80174703D01*
X47985000Y-80160000D01*
X47985000Y-79860000D01*
X47985722Y-79845297D01*
X47987882Y-79830736D01*
X47991459Y-79816457D01*
X47996418Y-79802597D01*
X48002712Y-79789290D01*
X48010280Y-79776664D01*
X48019048Y-79764841D01*
X48028934Y-79753934D01*
X48039841Y-79744048D01*
X48051664Y-79735280D01*
X48064290Y-79727712D01*
X48077597Y-79721418D01*
X48091457Y-79716459D01*
X48105736Y-79712882D01*
X48120297Y-79710722D01*
X48135000Y-79710000D01*
X49785000Y-79710000D01*
X49799703Y-79710722D01*
G37*
M02*
