M48
INCH
T1C0.0130
T2C0.0276
T3C0.0350
T4C0.0394
T5C0.0791
%
G90
G05
T1
X0.825Y-3.575
X0.975Y-3.575
X1.225Y-3.7
X1.225Y-4.0
X1.5Y-3.65
X1.5Y-4.025
X1.525Y-3.125
X1.525Y-3.175
X1.55Y-3.075
X1.55Y-3.225
X1.625Y-3.3
X1.625Y-3.4
X1.675Y-3.925
X1.7Y-3.75
X1.725Y-2.875
X1.725Y-3.075
X1.75Y-3.55
X1.775Y-4.05
X1.775Y-4.15
X1.85Y-3.2
X1.85Y-4.025
X1.925Y-3.425
X2.025Y-2.85
X2.1224Y-3.2026
X2.125Y-3.425
X2.2Y-2.85
T2
X0.8Y-3.1
X0.925Y-3.1
T3
X0.9031Y-2.8866
X1.0031Y-2.8866
T4
X2.025Y-3.7
X2.025Y-3.8
X2.025Y-3.9
X2.025Y-4.0
X2.125Y-3.7
X2.125Y-3.8
X2.125Y-3.9
X2.125Y-4.0
X2.375Y-3.425
X2.375Y-3.525
X2.375Y-3.625
X2.375Y-3.725
X0.9Y-3.7
X0.9Y-3.8
X0.9Y-3.9
X0.9Y-4.0
X1.0Y-3.7
X1.0Y-3.8
X1.0Y-3.9
X1.0Y-4.0
X2.375Y-2.875
X2.375Y-2.975
X2.375Y-3.075
X2.375Y-3.175
T5
X0.8031Y-2.6866
X1.2031Y-2.6866
T0
M30
