<svg xmlns="http://www.w3.org/2000/svg" width="800" height="152" viewBox="0 0 211.667 40.217"><defs><marker overflow="visible" id="g" refX="0" refY="0" orient="auto"><path stroke-width=".4pt" stroke="#999" fill-rule="evenodd" fill="#999" d="M2.308 0l-3.46 2v-4z"/></marker><marker overflow="visible" id="f" refX="0" refY="0" orient="auto"><path stroke-width=".4pt" stroke="#999" fill-rule="evenodd" fill="#999" d="M-2.308 0l3.46-2v4z"/></marker><marker overflow="visible" id="e" refX="0" refY="0" orient="auto"><path stroke-width=".4pt" stroke="#999" fill-rule="evenodd" fill="#999" d="M2.308 0l-3.46 2v-4z"/></marker><marker overflow="visible" id="d" refX="0" refY="0" orient="auto"><path stroke-width=".4pt" stroke="#999" fill-rule="evenodd" fill="#999" d="M-2.308 0l3.46-2v4z"/></marker><filter color-interpolation-filters="sRGB" height="1.001" y="-.001" width="1" x="0" id="b"><feGaussianBlur stdDeviation=".018"/></filter><filter color-interpolation-filters="sRGB" id="c" x="0" width="1" y="-.001" height="1.001"><feGaussianBlur stdDeviation=".018"/></filter><filter color-interpolation-filters="sRGB" height="1" y="0" width="1" x="0" id="a"><feGaussianBlur/></filter></defs><path d="M4.233 14.817H12.7v12.7H4.233z" fill="#aef"/><path d="M12.7 14.817h8.467v12.7H12.7z" fill="#d5f6ff"/><path d="M21.167 14.817h8.467v12.7h-8.467z" fill="#aef"/><path d="M29.633 14.817H38.1v12.7h-8.467z" fill="#d5f6ff"/><path d="M38.1 14.817h8.467v12.7H38.1z" fill="#aef"/><path d="M46.567 14.817h8.467v12.7h-8.467z" fill="#d5f6ff"/><path d="M55.033 14.817H63.5v12.7h-8.467z" fill="#aef"/><path d="M63.5 14.817h8.467v12.7H63.5z" fill="#d5f6ff"/><path d="M71.967 14.817h8.467v12.7h-8.467z" fill="#aef"/><path d="M80.433 14.817H88.9v12.7h-8.467z" fill="#d5f6ff"/><path d="M88.9 14.817h8.467v12.7H88.9z" fill="#aef"/><path d="M114.3 14.817h8.467v12.7H114.3z" fill="#d5f6ff"/><path d="M122.767 14.817h8.467v12.7h-8.467z" fill="#aef"/><path d="M131.233 14.817h8.467v12.7h-8.467z" fill="#d5f6ff"/><path d="M139.7 14.817h8.467v12.7H139.7z" fill="#aef"/><path d="M148.167 14.817h8.467v12.7h-8.467z" fill="#d5f6ff"/><path d="M156.633 14.817h8.467v12.7h-8.467z" fill="#aef"/><path d="M165.1 14.817h8.467v12.7H165.1z" fill="#d5f6ff"/><path d="M173.567 14.817h8.467v12.7h-8.467z" fill="#aef"/><path d="M182.033 14.817h8.467v12.7h-8.467z" fill="#d5f6ff"/><path d="M190.5 14.817h8.467v12.7H190.5z" fill="#aef"/><path d="M97.367 14.817h8.467v12.7h-8.467zm101.6 0h8.467v12.7h-8.467z" fill="#d5f6ff"/><path d="M2.117 14.817h2.117v12.7H2.117z" fill="#ffd5e5"/><path d="M207.433 14.817h2.117v12.7h-2.117z" fill="#fac"/><path d="M105.833 14.817h8.467v12.7h-8.467z" fill="#aef"/><g filter="url(#a)"><path stroke-width=".265" stroke="#999" fill="none" d="M4.233 10.583V2.117m8.467 8.466V2.117m84.667 8.466V2.117"/><text filter="url(#b)" text-anchor="middle" font-family="sans-serif" font-size="10.667" font-weight="400" style="line-height:1.25;-inkscape-font-specification:'sans-serif, Normal';font-variant-ligatures:normal;font-variant-caps:normal;font-variant-numeric:normal;font-variant-east-asian:normal;text-align:center" x="11.469" y="7.917" transform="rotate(-90 7.523 1.868) scale(.26458)"><tspan x="11.469" y="7.917" style="-inkscape-font-specification:'sans-serif, Normal';font-variant-ligatures:normal;font-variant-caps:normal;font-variant-numeric:normal;font-variant-east-asian:normal;text-align:center">Sync</tspan><tspan x="11.469" y="21.25" style="-inkscape-font-specification:'sans-serif, Normal';font-variant-ligatures:normal;font-variant-caps:normal;font-variant-numeric:normal;font-variant-east-asian:normal;text-align:center">Bit</tspan></text><text filter="url(#c)" text-anchor="middle" font-family="sans-serif" font-size="10.667" font-weight="400" transform="rotate(-90 54.453 -44.36) scale(.26458)" y="7.917" x="13.781" style="line-height:1.25;-inkscape-font-specification:'sans-serif, Normal';font-variant-ligatures:normal;font-variant-caps:normal;font-variant-numeric:normal;font-variant-east-asian:normal;text-align:center"><tspan style="-inkscape-font-specification:'sans-serif, Normal';font-variant-ligatures:normal;font-variant-caps:normal;font-variant-numeric:normal;font-variant-east-asian:normal;text-align:center" y="7.917" x="13.781">Parity</tspan><tspan style="-inkscape-font-specification:'sans-serif, Normal';font-variant-ligatures:normal;font-variant-caps:normal;font-variant-numeric:normal;font-variant-east-asian:normal;text-align:center" y="21.25" x="13.781">Bit</tspan></text><text filter="url(#b)" font-family="sans-serif" font-size="10.667" font-weight="400" style="line-height:1.25;-inkscape-font-specification:'sans-serif, Normal';font-variant-ligatures:normal;font-variant-caps:normal;font-variant-numeric:normal;font-variant-east-asian:normal" x="-.703" y="7.917" transform="translate(45.402 5.141) scale(.26458)"><tspan x="-.703" y="7.917" style="-inkscape-font-specification:'sans-serif, Normal';font-variant-ligatures:normal;font-variant-caps:normal;font-variant-numeric:normal;font-variant-east-asian:normal">Data (10-bits)</tspan></text><path marker-start="url(#d)" stroke-width=".265" stroke="#999" fill="none" d="M13.758 6.35h29.634"/><path marker-end="url(#e)" stroke-width=".265" stroke="#999" fill="none" d="M66.675 6.35h29.633"/><path stroke-width=".265" stroke="#999" fill="none" d="M105.833 10.583V2.117m8.467 8.466V2.117m84.667 8.466V2.117m8.466 8.466V2.117"/><text filter="url(#b)" text-anchor="middle" font-family="sans-serif" font-size="10.667" font-weight="400" style="line-height:1.25;-inkscape-font-specification:'sans-serif, Normal';font-variant-ligatures:normal;font-variant-caps:normal;font-variant-numeric:normal;font-variant-east-asian:normal;text-align:center" x="11.469" y="7.917" transform="matrix(0 -.26458 .26458 0 107.255 9.39)"><tspan x="11.469" y="7.917" style="-inkscape-font-specification:'sans-serif, Normal';font-variant-ligatures:normal;font-variant-caps:normal;font-variant-numeric:normal;font-variant-east-asian:normal;text-align:center">Sync</tspan><tspan x="11.469" y="21.25" style="-inkscape-font-specification:'sans-serif, Normal';font-variant-ligatures:normal;font-variant-caps:normal;font-variant-numeric:normal;font-variant-east-asian:normal;text-align:center">Bit</tspan></text><text filter="url(#c)" text-anchor="middle" font-family="sans-serif" font-size="10.667" font-weight="400" transform="rotate(-90 105.253 -95.16) scale(.26458)" y="7.917" x="13.781" style="line-height:1.25;-inkscape-font-specification:'sans-serif, Normal';font-variant-ligatures:normal;font-variant-caps:normal;font-variant-numeric:normal;font-variant-east-asian:normal;text-align:center"><tspan style="-inkscape-font-specification:'sans-serif, Normal';font-variant-ligatures:normal;font-variant-caps:normal;font-variant-numeric:normal;font-variant-east-asian:normal;text-align:center" y="7.917" x="13.781">Parity</tspan><tspan style="-inkscape-font-specification:'sans-serif, Normal';font-variant-ligatures:normal;font-variant-caps:normal;font-variant-numeric:normal;font-variant-east-asian:normal;text-align:center" y="21.25" x="13.781">Bit</tspan></text><text filter="url(#b)" font-family="sans-serif" font-size="10.667" font-weight="400" style="line-height:1.25;-inkscape-font-specification:'sans-serif, Normal';font-variant-ligatures:normal;font-variant-caps:normal;font-variant-numeric:normal;font-variant-east-asian:normal" x="-.703" y="7.917" transform="translate(147.002 5.141) scale(.26458)"><tspan x="-.703" y="7.917" style="-inkscape-font-specification:'sans-serif, Normal';font-variant-ligatures:normal;font-variant-caps:normal;font-variant-numeric:normal;font-variant-east-asian:normal">Data (10-bits)</tspan></text><path marker-start="url(#f)" stroke-width=".265" stroke="#999" fill="none" d="M115.358 6.35h29.634"/><path marker-end="url(#g)" stroke-width=".265" stroke="#999" fill="none" d="M168.275 6.35h29.633"/><path stroke-width=".265" stroke="#000" fill="none" d="M21.167 34.925l2.116-3.175h4.234l2.116 3.175-2.116 3.175h-4.234z"/><text transform="translate(0 -1.058)" stroke-width=".265" font-family="monospace" font-size="4.233" font-weight="400" style="line-height:1.25;-inkscape-font-specification:'monospace, Normal';font-variant-ligatures:normal;font-variant-caps:normal;font-variant-numeric:normal;font-variant-east-asian:normal" x="24.131" y="37.497"><tspan x="24.131" y="37.497" style="-inkscape-font-specification:'monospace, Normal';font-variant-ligatures:normal;font-variant-caps:normal;font-variant-numeric:normal;font-variant-east-asian:normal">0</tspan></text><path stroke-width=".265" stroke="#000" fill="none" d="M29.633 34.925l2.117-3.175h4.233l2.117 3.175-2.117 3.175H31.75z"/><text transform="translate(8.467 -1.058)" stroke-width=".265" font-family="monospace" font-size="4.233" font-weight="400" style="line-height:1.25;-inkscape-font-specification:'monospace, Normal';font-variant-ligatures:normal;font-variant-caps:normal;font-variant-numeric:normal;font-variant-east-asian:normal" x="24.131" y="37.497"><tspan x="24.131" y="37.497" style="-inkscape-font-specification:'monospace, Normal';font-variant-ligatures:normal;font-variant-caps:normal;font-variant-numeric:normal;font-variant-east-asian:normal">0</tspan></text><path stroke-width=".265" stroke="#000" fill="none" d="M38.1 34.925l2.117-3.175h4.233l2.117 3.175L44.45 38.1h-4.233z"/><text transform="translate(16.933 -1.058)" stroke-width=".265" font-family="monospace" font-size="4.233" font-weight="400" style="line-height:1.25;-inkscape-font-specification:'monospace, Normal';font-variant-ligatures:normal;font-variant-caps:normal;font-variant-numeric:normal;font-variant-east-asian:normal" x="24.131" y="37.497"><tspan x="24.131" y="37.497" style="-inkscape-font-specification:'monospace, Normal';font-variant-ligatures:normal;font-variant-caps:normal;font-variant-numeric:normal;font-variant-east-asian:normal">0</tspan></text><path stroke-width=".265" stroke="#000" fill="none" d="M63.5 34.925l2.117-3.175h4.233l2.117 3.175L69.85 38.1h-4.233z"/><text transform="translate(42.333 -1.058)" stroke-width=".265" font-family="monospace" font-size="4.233" font-weight="400" style="line-height:1.25;-inkscape-font-specification:'monospace, Normal';font-variant-ligatures:normal;font-variant-caps:normal;font-variant-numeric:normal;font-variant-east-asian:normal" x="24.131" y="37.497"><tspan x="24.131" y="37.497" style="-inkscape-font-specification:'monospace, Normal';font-variant-ligatures:normal;font-variant-caps:normal;font-variant-numeric:normal;font-variant-east-asian:normal">0</tspan></text><path stroke-width=".265" stroke="#000" fill="none" d="M80.433 34.925l2.117-3.175h4.233l2.117 3.175-2.117 3.175H82.55z"/><text transform="translate(59.267 -1.058)" stroke-width=".265" font-family="monospace" font-size="4.233" font-weight="400" style="line-height:1.25;-inkscape-font-specification:'monospace, Normal';font-variant-ligatures:normal;font-variant-caps:normal;font-variant-numeric:normal;font-variant-east-asian:normal" x="24.131" y="37.497"><tspan x="24.131" y="37.497" style="-inkscape-font-specification:'monospace, Normal';font-variant-ligatures:normal;font-variant-caps:normal;font-variant-numeric:normal;font-variant-east-asian:normal">0</tspan></text><path stroke-width=".265" stroke="#000" fill="none" d="M46.567 34.925l2.116-3.175h4.234l2.116 3.175-2.116 3.175h-4.234z"/><text transform="translate(25.4 -1.058)" stroke-width=".265" font-family="monospace" font-size="4.233" font-weight="400" y="37.497" x="24.131" style="line-height:1.25;-inkscape-font-specification:'monospace, Normal';font-variant-ligatures:normal;font-variant-caps:normal;font-variant-numeric:normal;font-variant-east-asian:normal"><tspan style="-inkscape-font-specification:'monospace, Normal';font-variant-ligatures:normal;font-variant-caps:normal;font-variant-numeric:normal;font-variant-east-asian:normal" y="37.497" x="24.131">1</tspan></text><path stroke-width=".265" stroke="#000" fill="none" d="M55.033 34.925l2.117-3.175h4.233l2.117 3.175-2.117 3.175H57.15z"/><text transform="translate(33.867 -1.058)" stroke-width=".265" font-family="monospace" font-size="4.233" font-weight="400" style="line-height:1.25;-inkscape-font-specification:'monospace, Normal';font-variant-ligatures:normal;font-variant-caps:normal;font-variant-numeric:normal;font-variant-east-asian:normal" x="24.131" y="37.497"><tspan x="24.131" y="37.497" style="-inkscape-font-specification:'monospace, Normal';font-variant-ligatures:normal;font-variant-caps:normal;font-variant-numeric:normal;font-variant-east-asian:normal">1</tspan></text><path stroke-width=".265" stroke="#000" fill="none" d="M71.967 34.925l2.116-3.175h4.234l2.116 3.175-2.116 3.175h-4.234z"/><text transform="translate(50.8 -1.058)" stroke-width=".265" font-family="monospace" font-size="4.233" font-weight="400" y="37.497" x="24.131" style="line-height:1.25;-inkscape-font-specification:'monospace, Normal';font-variant-ligatures:normal;font-variant-caps:normal;font-variant-numeric:normal;font-variant-east-asian:normal"><tspan style="-inkscape-font-specification:'monospace, Normal';font-variant-ligatures:normal;font-variant-caps:normal;font-variant-numeric:normal;font-variant-east-asian:normal" y="37.497" x="24.131">0</tspan></text><path stroke-width=".265" stroke="#000" fill="none" d="M122.767 34.925l2.116-3.175h4.234l2.116 3.175-2.116 3.175h-4.234z"/><text transform="translate(101.6 -1.058)" stroke-width=".265" font-family="monospace" font-size="4.233" font-weight="400" y="37.497" x="24.131" style="line-height:1.25;-inkscape-font-specification:'monospace, Normal';font-variant-ligatures:normal;font-variant-caps:normal;font-variant-numeric:normal;font-variant-east-asian:normal"><tspan style="-inkscape-font-specification:'monospace, Normal';font-variant-ligatures:normal;font-variant-caps:normal;font-variant-numeric:normal;font-variant-east-asian:normal" y="37.497" x="24.131">0</tspan></text><path stroke-width=".265" stroke="#000" fill="none" d="M139.7 34.925l2.117-3.175h4.233l2.117 3.175-2.117 3.175h-4.233z"/><text transform="translate(118.533 -1.058)" stroke-width=".265" font-family="monospace" font-size="4.233" font-weight="400" y="37.497" x="24.131" style="line-height:1.25;-inkscape-font-specification:'monospace, Normal';font-variant-ligatures:normal;font-variant-caps:normal;font-variant-numeric:normal;font-variant-east-asian:normal"><tspan style="-inkscape-font-specification:'monospace, Normal';font-variant-ligatures:normal;font-variant-caps:normal;font-variant-numeric:normal;font-variant-east-asian:normal" y="37.497" x="24.131">0</tspan></text><path stroke-width=".265" stroke="#000" fill="none" d="M165.1 34.925l2.117-3.175h4.233l2.117 3.175-2.117 3.175h-4.233z"/><text transform="translate(143.933 -1.058)" stroke-width=".265" font-family="monospace" font-size="4.233" font-weight="400" y="37.497" x="24.131" style="line-height:1.25;-inkscape-font-specification:'monospace, Normal';font-variant-ligatures:normal;font-variant-caps:normal;font-variant-numeric:normal;font-variant-east-asian:normal"><tspan style="-inkscape-font-specification:'monospace, Normal';font-variant-ligatures:normal;font-variant-caps:normal;font-variant-numeric:normal;font-variant-east-asian:normal" y="37.497" x="24.131">0</tspan></text><path stroke-width=".265" stroke="#000" fill="none" d="M131.233 34.925l2.117-3.175h4.233l2.117 3.175-2.117 3.175h-4.233z"/><text transform="translate(110.067 -1.058)" stroke-width=".265" font-family="monospace" font-size="4.233" font-weight="400" y="37.497" x="24.131" style="line-height:1.25;-inkscape-font-specification:'monospace, Normal';font-variant-ligatures:normal;font-variant-caps:normal;font-variant-numeric:normal;font-variant-east-asian:normal"><tspan style="-inkscape-font-specification:'monospace, Normal';font-variant-ligatures:normal;font-variant-caps:normal;font-variant-numeric:normal;font-variant-east-asian:normal" y="37.497" x="24.131">1</tspan></text><path stroke-width=".265" stroke="#000" fill="none" d="M182.033 34.925l2.117-3.175h4.233l2.117 3.175-2.117 3.175h-4.233z"/><text transform="translate(160.867 -1.058)" stroke-width=".265" font-family="monospace" font-size="4.233" font-weight="400" y="37.497" x="24.131" style="line-height:1.25;-inkscape-font-specification:'monospace, Normal';font-variant-ligatures:normal;font-variant-caps:normal;font-variant-numeric:normal;font-variant-east-asian:normal"><tspan style="-inkscape-font-specification:'monospace, Normal';font-variant-ligatures:normal;font-variant-caps:normal;font-variant-numeric:normal;font-variant-east-asian:normal" y="37.497" x="24.131">1</tspan></text><path stroke-width=".265" stroke="#000" fill="none" d="M173.567 34.925l2.116-3.175h4.234l2.116 3.175-2.116 3.175h-4.234z"/><text transform="translate(152.4 -1.058)" stroke-width=".265" font-family="monospace" font-size="4.233" font-weight="400" style="line-height:1.25;-inkscape-font-specification:'monospace, Normal';font-variant-ligatures:normal;font-variant-caps:normal;font-variant-numeric:normal;font-variant-east-asian:normal" x="24.131" y="37.497"><tspan x="24.131" y="37.497" style="-inkscape-font-specification:'monospace, Normal';font-variant-ligatures:normal;font-variant-caps:normal;font-variant-numeric:normal;font-variant-east-asian:normal">0</tspan></text><g filter="url(#a)" transform="translate(127 -1.058)" stroke-width=".265"><path stroke="#000" fill="none" d="M21.167 35.983l2.116-3.175h4.234l2.116 3.175-2.116 3.175h-4.234z"/><text font-family="monospace" font-size="4.233" font-weight="400" style="line-height:1.25;-inkscape-font-specification:'monospace, Normal';font-variant-ligatures:normal;font-variant-caps:normal;font-variant-numeric:normal;font-variant-east-asian:normal" x="24.131" y="37.497"><tspan x="24.131" y="37.497" style="-inkscape-font-specification:'monospace, Normal';font-variant-ligatures:normal;font-variant-caps:normal;font-variant-numeric:normal;font-variant-east-asian:normal">0</tspan></text></g><path stroke-width=".265" stroke="#000" fill="none" d="M156.633 34.925l2.117-3.175h4.233l2.117 3.175-2.117 3.175h-4.233z"/><text transform="translate(135.467 -1.058)" stroke-width=".265" font-family="monospace" font-size="4.233" font-weight="400" style="line-height:1.25;-inkscape-font-specification:'monospace, Normal';font-variant-ligatures:normal;font-variant-caps:normal;font-variant-numeric:normal;font-variant-east-asian:normal" x="24.131" y="37.497"><tspan x="24.131" y="37.497" style="-inkscape-font-specification:'monospace, Normal';font-variant-ligatures:normal;font-variant-caps:normal;font-variant-numeric:normal;font-variant-east-asian:normal">0</tspan></text><path stroke-width=".265" stroke="#999" fill="none" d="M4.233 34.925L6.35 31.75h4.233l2.117 3.175-2.117 3.175H6.35z"/><text fill="#999" transform="translate(-16.933 -1.058)" stroke-width=".265" font-family="monospace" font-size="4.233" font-weight="400" y="37.497" x="24.131" style="line-height:1.25;-inkscape-font-specification:'monospace, Normal';font-variant-ligatures:normal;font-variant-caps:normal;font-variant-numeric:normal;font-variant-east-asian:normal"><tspan style="-inkscape-font-specification:'monospace, Normal';font-variant-ligatures:normal;font-variant-caps:normal;font-variant-numeric:normal;font-variant-east-asian:normal" y="37.497" x="24.131">1</tspan></text><path stroke-width=".265" stroke="#999" fill="none" d="M105.833 34.925l2.117-3.175h4.233l2.117 3.175-2.117 3.175h-4.233z"/><text fill="#999" transform="translate(84.667 -1.058)" stroke-width=".265" font-family="monospace" font-size="4.233" font-weight="400" style="line-height:1.25;-inkscape-font-specification:'monospace, Normal';font-variant-ligatures:normal;font-variant-caps:normal;font-variant-numeric:normal;font-variant-east-asian:normal" x="24.131" y="37.497"><tspan x="24.131" y="37.497" style="-inkscape-font-specification:'monospace, Normal';font-variant-ligatures:normal;font-variant-caps:normal;font-variant-numeric:normal;font-variant-east-asian:normal">1</tspan></text><path stroke-width=".265" stroke="#999" fill="none" d="M97.367 34.925l2.116-3.175h4.234l2.116 3.175-2.116 3.175h-4.234z"/><text fill="#999" transform="translate(76.2 -1.058)" stroke-width=".265" font-family="monospace" font-size="4.233" font-weight="400" style="line-height:1.25;-inkscape-font-specification:'monospace, Normal';font-variant-ligatures:normal;font-variant-caps:normal;font-variant-numeric:normal;font-variant-east-asian:normal" x="24.131" y="37.497"><tspan x="24.131" y="37.497" style="-inkscape-font-specification:'monospace, Normal';font-variant-ligatures:normal;font-variant-caps:normal;font-variant-numeric:normal;font-variant-east-asian:normal">0</tspan></text><path stroke-width=".265" stroke="#999" fill="none" d="M198.967 34.925l2.116-3.175h4.234l2.116 3.175-2.116 3.175h-4.234z"/><text fill="#999" transform="translate(177.8 -1.058)" stroke-width=".265" font-family="monospace" font-size="4.233" font-weight="400" y="37.497" x="24.131" style="line-height:1.25;-inkscape-font-specification:'monospace, Normal';font-variant-ligatures:normal;font-variant-caps:normal;font-variant-numeric:normal;font-variant-east-asian:normal"><tspan style="-inkscape-font-specification:'monospace, Normal';font-variant-ligatures:normal;font-variant-caps:normal;font-variant-numeric:normal;font-variant-east-asian:normal" y="37.497" x="24.131">0</tspan></text><path stroke-width=".265" stroke="#000" fill="none" d="M12.7 34.925l2.117-3.175h4.233l2.117 3.175L19.05 38.1h-4.233z"/><text transform="translate(-8.467 -1.058)" stroke-width=".265" font-family="monospace" font-size="4.233" font-weight="400" y="37.497" x="24.131" style="line-height:1.25;-inkscape-font-specification:'monospace, Normal';font-variant-ligatures:normal;font-variant-caps:normal;font-variant-numeric:normal;font-variant-east-asian:normal"><tspan style="-inkscape-font-specification:'monospace, Normal';font-variant-ligatures:normal;font-variant-caps:normal;font-variant-numeric:normal;font-variant-east-asian:normal" y="37.497" x="24.131">0</tspan></text><path stroke-width=".265" stroke="#000" fill="none" d="M88.9 34.925l2.117-3.175h4.233l2.117 3.175L95.25 38.1h-4.233z"/><text transform="translate(67.733 -1.058)" stroke-width=".265" font-family="monospace" font-size="4.233" font-weight="400" style="line-height:1.25;-inkscape-font-specification:'monospace, Normal';font-variant-ligatures:normal;font-variant-caps:normal;font-variant-numeric:normal;font-variant-east-asian:normal" x="24.131" y="37.497"><tspan x="24.131" y="37.497" style="-inkscape-font-specification:'monospace, Normal';font-variant-ligatures:normal;font-variant-caps:normal;font-variant-numeric:normal;font-variant-east-asian:normal">1</tspan></text><path stroke-width=".265" stroke="#000" fill="none" d="M114.3 34.925l2.117-3.175h4.233l2.117 3.175-2.117 3.175h-4.233z"/><text transform="translate(93.133 -1.058)" stroke-width=".265" font-family="monospace" font-size="4.233" font-weight="400" style="line-height:1.25;-inkscape-font-specification:'monospace, Normal';font-variant-ligatures:normal;font-variant-caps:normal;font-variant-numeric:normal;font-variant-east-asian:normal" x="24.131" y="37.497"><tspan x="24.131" y="37.497" style="-inkscape-font-specification:'monospace, Normal';font-variant-ligatures:normal;font-variant-caps:normal;font-variant-numeric:normal;font-variant-east-asian:normal">1</tspan></text><path stroke-width=".265" stroke="#000" fill="none" d="M190.5 34.925l2.117-3.175h4.233l2.117 3.175-2.117 3.175h-4.233z"/><text transform="translate(169.333 -1.058)" stroke-width=".265" font-family="monospace" font-size="4.233" font-weight="400" style="line-height:1.25;-inkscape-font-specification:'monospace, Normal';font-variant-ligatures:normal;font-variant-caps:normal;font-variant-numeric:normal;font-variant-east-asian:normal" x="24.131" y="37.497"><tspan x="24.131" y="37.497" style="-inkscape-font-specification:'monospace, Normal';font-variant-ligatures:normal;font-variant-caps:normal;font-variant-numeric:normal;font-variant-east-asian:normal">0</tspan></text><path stroke-width=".216" stroke="#b3b3b3" fill="none" d="M12.7 11.642v2.116m8.467-2.116v2.116m8.466-2.116v2.116m8.467-2.116v2.116m8.467-2.116v2.116m8.466-2.116v2.116m8.467-2.116v2.116m8.467-2.116v2.116m8.466-2.116v2.116m8.467-2.116v2.116m8.467-2.116v2.116m8.466-2.116v2.116m8.467-2.116v2.116m8.467-2.116v2.116m8.466-2.116v2.116m8.467-2.116v2.116m8.467-2.116v2.116m8.466-2.116v2.116m8.467-2.116v2.116m8.467-2.116v2.116m8.466-2.116v2.116m8.467-2.116v2.116m8.467-2.116v2.116m8.466-2.116v2.116m-203.2-2.116v2.116M12.7 28.575v2.117m8.467-2.117v2.117m8.466-2.117v2.117m8.467-2.117v2.117m8.467-2.117v2.117m8.466-2.117v2.117m8.467-2.117v2.117m8.467-2.117v2.117m8.466-2.117v2.117m8.467-2.117v2.117m8.467-2.117v2.117m8.466-2.117v2.117m8.467-2.117v2.117m8.467-2.117v2.117m8.466-2.117v2.117m8.467-2.117v2.117m8.467-2.117v2.117m8.466-2.117v2.117m8.467-2.117v2.117m8.467-2.117v2.117m8.466-2.117v2.117m8.467-2.117v2.117m8.467-2.117v2.117m8.466-2.117v2.117m-203.2-2.117v2.117"/><path stroke-width=".397" stroke="#000" fill="none" d="M4.233 25.4h4.234v-8.467h8.466V25.4h4.234v-8.467H25.4V25.4h4.233v-8.467h4.234V25.4H38.1v-8.467h4.233V25.4h4.234v0H50.8v-8.467h4.233V25.4h4.234v-8.467h8.466V25.4h4.234v-8.467H76.2V25.4h4.233v-8.467h4.234V25.4h8.466v-8.467h8.467V25.4h8.467v-8.467h4.233V25.4h4.233v-8.467H127V25.4h8.467v-8.467h8.466V25.4h4.234v-8.467h4.233V25.4h4.233v-8.467h4.234V25.4h4.233v-8.467h4.233V25.4h4.234v-8.467h4.233V25.4h8.467v-8.467h4.233v0h4.233V25.4h4.234v-8.467h4.233V25.4h4.233"/></g></svg>