<svg xmlns="http://www.w3.org/2000/svg" viewBox="0 0 211.667 52.917" height="200" width="800"><defs><marker id="o" refX="0" refY="0" orient="auto" overflow="visible"><path d="M-2.308 0l3.46-2v4z" fill="#999" fill-rule="evenodd" stroke="#999" stroke-width=".4pt"/></marker><marker id="n" refX="0" refY="0" orient="auto" overflow="visible"><path d="M2.308 0l-3.46 2v-4z" fill="#999" fill-rule="evenodd" stroke="#999" stroke-width=".4pt"/></marker><marker orient="auto" refY="0" refX="0" id="m" overflow="visible"><path d="M-2.308 0l3.46-2v4z" fill="#999" fill-rule="evenodd" stroke="#999" stroke-width=".4pt"/></marker><marker orient="auto" refY="0" refX="0" id="l" overflow="visible"><path d="M2.308 0l-3.46 2v-4z" fill="#999" fill-rule="evenodd" stroke="#999" stroke-width=".4pt"/></marker><marker id="k" refX="0" refY="0" orient="auto" overflow="visible"><path d="M2.308 0l-3.46 2v-4z" fill="#999" fill-rule="evenodd" stroke="#999" stroke-width=".4pt"/></marker><marker id="j" refX="0" refY="0" orient="auto" overflow="visible"><path d="M-2.308 0l3.46-2v4z" fill="#999" fill-rule="evenodd" stroke="#999" stroke-width=".4pt"/></marker><marker orient="auto" refY="0" refX="0" id="i" overflow="visible"><path d="M2.308 0l-3.46 2v-4z" fill="#999" fill-rule="evenodd" stroke="#999" stroke-width=".4pt"/></marker><marker orient="auto" refY="0" refX="0" id="h" overflow="visible"><path d="M-2.308 0l3.46-2v4z" fill="#999" fill-rule="evenodd" stroke="#999" stroke-width=".4pt"/></marker><marker id="g" refX="0" refY="0" orient="auto" overflow="visible"><path d="M2.308 0l-3.46 2v-4z" fill="#999" fill-rule="evenodd" stroke="#999" stroke-width=".4pt"/></marker><marker id="f" refX="0" refY="0" orient="auto" overflow="visible"><path d="M-2.308 0l3.46-2v4z" fill="#999" fill-rule="evenodd" stroke="#999" stroke-width=".4pt"/></marker><marker orient="auto" refY="0" refX="0" id="d" overflow="visible"><path d="M-2.308 0l3.46-2v4z" fill="#999" fill-rule="evenodd" stroke="#999" stroke-width=".4pt"/></marker><marker orient="auto" refY="0" refX="0" id="e" overflow="visible"><path d="M2.308 0l-3.46 2v-4z" fill="#999" fill-rule="evenodd" stroke="#999" stroke-width=".4pt"/></marker><filter id="b" x="0" width="1" y="-.001" height="1.001" color-interpolation-filters="sRGB"><feGaussianBlur stdDeviation=".018"/></filter><filter height="1.001" y="-.001" width="1" x="0" id="c" color-interpolation-filters="sRGB"><feGaussianBlur stdDeviation=".018"/></filter><filter id="a" x="0" width="1" y="0" height="1" color-interpolation-filters="sRGB"><feGaussianBlur/></filter></defs><path fill="#fac" d="M8.467 14.817h8.467v12.7H8.467z"/><path fill="#ffd5e5" d="M16.933 14.817H25.4v12.7h-8.467z"/><path fill="#fac" d="M25.4 14.817h8.467v12.7H25.4z"/><path fill="#ffd5e5" d="M33.867 14.817h8.467v12.7h-8.467z"/><path fill="#fac" d="M42.333 14.817H50.8v12.7h-8.467z"/><path fill="#ffd5e5" d="M50.8 14.817h8.467v12.7H50.8z"/><path fill="#fac" d="M59.267 14.817h8.467v12.7h-8.467z"/><path fill="#ffd5e5" d="M67.733 14.817H76.2v12.7h-8.467z"/><path fill="#aef" d="M76.2 14.817h8.467v12.7H76.2z"/><path fill="#d5f6ff" d="M84.667 14.817h8.467v12.7h-8.467z"/><path fill="#aef" d="M93.133 14.817h8.467v12.7h-8.467z"/><path fill="#d5f6ff" d="M101.6 14.817h8.467v12.7H101.6z"/><path fill="#aef" d="M110.067 14.817h8.467v12.7h-8.467z"/><path fill="#d5f6ff" d="M118.533 14.817H127v12.7h-8.467z"/><path fill="#aef" d="M127 14.817h8.467v12.7H127z"/><path fill="#d5f6ff" d="M135.467 14.817h8.467v12.7h-8.467z"/><path fill="#aef" d="M143.933 14.817h8.467v12.7h-8.467z"/><path fill="#d5f6ff" d="M152.4 14.817h8.467v12.7H152.4z"/><path fill="#aef" d="M160.867 14.817h8.467v12.7h-8.467z"/><path fill="#fac" d="M177.8 14.817h8.467v12.7H177.8z"/><path fill="#ffd5e5" d="M186.267 14.817h8.467v12.7h-8.467z"/><path fill="#fac" d="M194.733 14.817h8.467v12.7h-8.467z"/><path fill="#d5f6ff" d="M169.333 14.817h8.467v12.7h-8.467z"/><path fill="#ececec" d="M2.117 14.817h6.35v12.7h-6.35z"/><circle cx="17.093" cy="25.41" r=".009" fill="#999" stroke="#999" stroke-width=".265"/><circle cx="20.174" cy="25.41" r=".009" fill="#999" stroke="#999" stroke-width=".265"/><path fill="#ececec" d="M203.2 14.817h6.35v12.7h-6.35z"/><g filter="url(#a)"><text style="line-height:1.25;-inkscape-font-specification:'sans-serif, Normal';font-variant-ligatures:normal;font-variant-caps:normal;font-variant-numeric:normal;font-variant-east-asian:normal" x="2.891" y="-12.028" font-weight="400" font-size="4.233" font-family="sans-serif" stroke-width=".265"><tspan x="2.891" y="-12.028" style="-inkscape-font-specification:'sans-serif, Normal';font-variant-ligatures:normal;font-variant-caps:normal;font-variant-numeric:normal;font-variant-east-asian:normal">A frame containing a single 10-bit word, in this case a read status command sent from a</tspan><tspan x="2.891" y="-6.736" style="-inkscape-font-specification:'sans-serif, Normal';font-variant-ligatures:normal;font-variant-caps:normal;font-variant-numeric:normal;font-variant-east-asian:normal">controller to a terminal:</tspan></text><path d="M93.133 34.925l2.117-3.175h4.233l2.117 3.175-2.117 3.175H95.25z" fill="none" stroke="#000" stroke-width=".265"/><text style="line-height:1.25;-inkscape-font-specification:'monospace, Normal';font-variant-ligatures:normal;font-variant-caps:normal;font-variant-numeric:normal;font-variant-east-asian:normal" x="24.131" y="37.497" font-weight="400" font-size="4.233" font-family="monospace" stroke-width=".265" transform="translate(71.967 -1.058)"><tspan x="24.131" y="37.497" style="-inkscape-font-specification:'monospace, Normal';font-variant-ligatures:normal;font-variant-caps:normal;font-variant-numeric:normal;font-variant-east-asian:normal">0</tspan></text><path d="M101.6 34.925l2.117-3.175h4.233l2.117 3.175-2.117 3.175h-4.233z" fill="none" stroke="#000" stroke-width=".265"/><text style="line-height:1.25;-inkscape-font-specification:'monospace, Normal';font-variant-ligatures:normal;font-variant-caps:normal;font-variant-numeric:normal;font-variant-east-asian:normal" x="24.131" y="37.497" font-weight="400" font-size="4.233" font-family="monospace" stroke-width=".265" transform="translate(80.433 -1.058)"><tspan x="24.131" y="37.497" style="-inkscape-font-specification:'monospace, Normal';font-variant-ligatures:normal;font-variant-caps:normal;font-variant-numeric:normal;font-variant-east-asian:normal">0</tspan></text><path d="M110.067 34.925l2.116-3.175h4.234l2.116 3.175-2.116 3.175h-4.234z" fill="none" stroke="#000" stroke-width=".265"/><text style="line-height:1.25;-inkscape-font-specification:'monospace, Normal';font-variant-ligatures:normal;font-variant-caps:normal;font-variant-numeric:normal;font-variant-east-asian:normal" x="24.131" y="37.497" font-weight="400" font-size="4.233" font-family="monospace" stroke-width=".265" transform="translate(88.9 -1.058)"><tspan x="24.131" y="37.497" style="-inkscape-font-specification:'monospace, Normal';font-variant-ligatures:normal;font-variant-caps:normal;font-variant-numeric:normal;font-variant-east-asian:normal">0</tspan></text><path d="M135.467 34.925l2.116-3.175h4.234l2.116 3.175-2.116 3.175h-4.234z" fill="none" stroke="#000" stroke-width=".265"/><text style="line-height:1.25;-inkscape-font-specification:'monospace, Normal';font-variant-ligatures:normal;font-variant-caps:normal;font-variant-numeric:normal;font-variant-east-asian:normal" x="24.131" y="37.497" font-weight="400" font-size="4.233" font-family="monospace" stroke-width=".265" transform="translate(114.3 -1.058)"><tspan x="24.131" y="37.497" style="-inkscape-font-specification:'monospace, Normal';font-variant-ligatures:normal;font-variant-caps:normal;font-variant-numeric:normal;font-variant-east-asian:normal">0</tspan></text><path d="M152.4 34.925l2.117-3.175h4.233l2.117 3.175-2.117 3.175h-4.233z" fill="none" stroke="#000" stroke-width=".265"/><text style="line-height:1.25;-inkscape-font-specification:'monospace, Normal';font-variant-ligatures:normal;font-variant-caps:normal;font-variant-numeric:normal;font-variant-east-asian:normal" x="24.131" y="37.497" font-weight="400" font-size="4.233" font-family="monospace" stroke-width=".265" transform="translate(131.233 -1.058)"><tspan x="24.131" y="37.497" style="-inkscape-font-specification:'monospace, Normal';font-variant-ligatures:normal;font-variant-caps:normal;font-variant-numeric:normal;font-variant-east-asian:normal">0</tspan></text><path d="M118.533 34.925l2.117-3.175h4.233L127 34.925l-2.117 3.175h-4.233z" fill="none" stroke="#000" stroke-width=".265"/><text y="37.497" x="24.131" style="line-height:1.25;-inkscape-font-specification:'monospace, Normal';font-variant-ligatures:normal;font-variant-caps:normal;font-variant-numeric:normal;font-variant-east-asian:normal" font-weight="400" font-size="4.233" font-family="monospace" stroke-width=".265" transform="translate(97.367 -1.058)"><tspan style="-inkscape-font-specification:'monospace, Normal';font-variant-ligatures:normal;font-variant-caps:normal;font-variant-numeric:normal;font-variant-east-asian:normal" y="37.497" x="24.131">1</tspan></text><path d="M127 34.925l2.117-3.175h4.233l2.117 3.175-2.117 3.175h-4.233z" fill="none" stroke="#000" stroke-width=".265"/><text style="line-height:1.25;-inkscape-font-specification:'monospace, Normal';font-variant-ligatures:normal;font-variant-caps:normal;font-variant-numeric:normal;font-variant-east-asian:normal" x="24.131" y="37.497" font-weight="400" font-size="4.233" font-family="monospace" stroke-width=".265" transform="translate(105.833 -1.058)"><tspan x="24.131" y="37.497" style="-inkscape-font-specification:'monospace, Normal';font-variant-ligatures:normal;font-variant-caps:normal;font-variant-numeric:normal;font-variant-east-asian:normal">1</tspan></text><path d="M143.933 34.925l2.117-3.175h4.233l2.117 3.175-2.117 3.175h-4.233z" fill="none" stroke="#000" stroke-width=".265"/><text style="line-height:1.25;-inkscape-font-specification:'monospace, Normal';font-variant-ligatures:normal;font-variant-caps:normal;font-variant-numeric:normal;font-variant-east-asian:normal" x="24.131" y="37.497" font-weight="400" font-size="4.233" font-family="monospace" stroke-width=".265" transform="translate(122.767 -1.058)"><tspan x="24.131" y="37.497" style="-inkscape-font-specification:'monospace, Normal';font-variant-ligatures:normal;font-variant-caps:normal;font-variant-numeric:normal;font-variant-east-asian:normal">1</tspan></text><text y="7.104" x="31.459" style="line-height:1.25;-inkscape-font-specification:'sans-serif, Normal';font-variant-ligatures:normal;font-variant-caps:normal;font-variant-numeric:normal;font-variant-east-asian:normal" font-weight="400" font-size="2.822" font-family="sans-serif" stroke-width=".265"><tspan style="-inkscape-font-specification:'sans-serif, Normal';font-variant-ligatures:normal;font-variant-caps:normal;font-variant-numeric:normal;font-variant-east-asian:normal" y="7.104" x="31.459">Start Sequence</tspan></text><path d="M8.467 34.925l2.116-3.175h4.234l2.116 3.175-2.116 3.175h-4.234z" fill="none" stroke="#999" stroke-width=".265"/><text style="line-height:1.25;-inkscape-font-specification:'monospace, Normal';font-variant-ligatures:normal;font-variant-caps:normal;font-variant-numeric:normal;font-variant-east-asian:normal" x="24.131" y="37.497" font-weight="400" font-size="4.233" font-family="monospace" stroke-width=".265" transform="translate(-12.7 -1.058)" fill="#999"><tspan x="24.131" y="37.497" style="-inkscape-font-specification:'monospace, Normal';font-variant-ligatures:normal;font-variant-caps:normal;font-variant-numeric:normal;font-variant-east-asian:normal">1</tspan></text><path d="M76.2 34.925l2.117-3.175h4.233l2.117 3.175L82.55 38.1h-4.233z" fill="none" stroke="#999" stroke-width=".265"/><text y="37.497" x="24.131" style="line-height:1.25;-inkscape-font-specification:'monospace, Normal';font-variant-ligatures:normal;font-variant-caps:normal;font-variant-numeric:normal;font-variant-east-asian:normal" font-weight="400" font-size="4.233" font-family="monospace" stroke-width=".265" transform="translate(55.033 -1.058)" fill="#999"><tspan style="-inkscape-font-specification:'monospace, Normal';font-variant-ligatures:normal;font-variant-caps:normal;font-variant-numeric:normal;font-variant-east-asian:normal" y="37.497" x="24.131">1</tspan></text><path d="M169.333 34.925l2.117-3.175h4.233l2.117 3.175-2.117 3.175h-4.233z" fill="none" stroke="#999" stroke-width=".265"/><text y="37.497" x="24.131" style="line-height:1.25;-inkscape-font-specification:'monospace, Normal';font-variant-ligatures:normal;font-variant-caps:normal;font-variant-numeric:normal;font-variant-east-asian:normal" font-weight="400" font-size="4.233" font-family="monospace" stroke-width=".265" transform="translate(148.167 -1.058)" fill="#999"><tspan style="-inkscape-font-specification:'monospace, Normal';font-variant-ligatures:normal;font-variant-caps:normal;font-variant-numeric:normal;font-variant-east-asian:normal" y="37.497" x="24.131">1</tspan></text><path d="M16.933 34.925l2.117-3.175h4.233l2.117 3.175-2.117 3.175H19.05z" fill="none" stroke="#999" stroke-width=".265"/><text y="37.497" x="24.131" style="line-height:1.25;-inkscape-font-specification:'monospace, Normal';font-variant-ligatures:normal;font-variant-caps:normal;font-variant-numeric:normal;font-variant-east-asian:normal" font-weight="400" font-size="4.233" font-family="monospace" stroke-width=".265" transform="translate(-4.233 -1.058)" fill="#999"><tspan style="-inkscape-font-specification:'monospace, Normal';font-variant-ligatures:normal;font-variant-caps:normal;font-variant-numeric:normal;font-variant-east-asian:normal" y="37.497" x="24.131">1</tspan></text><path d="M25.4 34.925l2.117-3.175h4.233l2.117 3.175L31.75 38.1h-4.233z" fill="none" stroke="#999" stroke-width=".265"/><text y="37.497" x="24.131" style="line-height:1.25;-inkscape-font-specification:'monospace, Normal';font-variant-ligatures:normal;font-variant-caps:normal;font-variant-numeric:normal;font-variant-east-asian:normal" font-weight="400" font-size="4.233" font-family="monospace" stroke-width=".265" transform="translate(4.233 -1.058)" fill="#999"><tspan style="-inkscape-font-specification:'monospace, Normal';font-variant-ligatures:normal;font-variant-caps:normal;font-variant-numeric:normal;font-variant-east-asian:normal" y="37.497" x="24.131">1</tspan></text><path d="M33.867 34.925l2.116-3.175h4.234l2.116 3.175-2.116 3.175h-4.234z" fill="none" stroke="#999" stroke-width=".265"/><text y="37.497" x="24.131" style="line-height:1.25;-inkscape-font-specification:'monospace, Normal';font-variant-ligatures:normal;font-variant-caps:normal;font-variant-numeric:normal;font-variant-east-asian:normal" font-weight="400" font-size="4.233" font-family="monospace" stroke-width=".265" transform="translate(12.7 -1.058)" fill="#999"><tspan style="-inkscape-font-specification:'monospace, Normal';font-variant-ligatures:normal;font-variant-caps:normal;font-variant-numeric:normal;font-variant-east-asian:normal" y="37.497" x="24.131">1</tspan></text><path d="M42.333 34.925l2.117-3.175h4.233l2.117 3.175-2.117 3.175H44.45z" fill="none" stroke="#999" stroke-width=".265"/><text y="37.497" x="24.131" style="line-height:1.25;-inkscape-font-specification:'monospace, Normal';font-variant-ligatures:normal;font-variant-caps:normal;font-variant-numeric:normal;font-variant-east-asian:normal" font-weight="400" font-size="4.233" font-family="monospace" stroke-width=".265" transform="translate(21.167 -1.058)" fill="#999"><tspan style="-inkscape-font-specification:'monospace, Normal';font-variant-ligatures:normal;font-variant-caps:normal;font-variant-numeric:normal;font-variant-east-asian:normal" y="37.497" x="24.131">1</tspan></text><path d="M50.8 34.925l2.117-3.175h21.166l2.117 3.175-2.117 3.175H52.917z" fill="none" stroke="#999" stroke-width=".265" stroke-dasharray=".793749,.264583"/><path d="M177.8 34.925l2.117-3.175h4.233l2.117 3.175-2.117 3.175h-4.233z" fill="none" stroke="#999" stroke-width=".265"/><text style="line-height:1.25;-inkscape-font-specification:'monospace, Normal';font-variant-ligatures:normal;font-variant-caps:normal;font-variant-numeric:normal;font-variant-east-asian:normal" x="24.131" y="37.497" font-weight="400" font-size="4.233" font-family="monospace" stroke-width=".265" transform="translate(156.633 -1.058)" fill="#999"><tspan x="24.131" y="37.497" style="-inkscape-font-specification:'monospace, Normal';font-variant-ligatures:normal;font-variant-caps:normal;font-variant-numeric:normal;font-variant-east-asian:normal">0</tspan></text><path d="M186.267 34.925l2.116-3.175h12.7l2.117 3.175-2.117 3.175h-12.7zM203.2 34.925h6.35" fill="none" stroke="#999" stroke-width=".265" stroke-dasharray=".793749,.264583"/><path d="M2.117 34.925h6.35" fill="none" stroke="#999" stroke-width=".265" stroke-dasharray=".79375,.264583"/><path d="M8.467 10.583V2.117M76.2 10.583V2.117M84.667 10.583V2.117M169.333 10.583V2.117M177.8 10.583V2.117M203.2 10.583V2.117" fill="none" stroke="#999" stroke-width=".265"/><text style="line-height:1.25;-inkscape-font-specification:'sans-serif, Normal';font-variant-ligatures:normal;font-variant-caps:normal;font-variant-numeric:normal;font-variant-east-asian:normal" x="190.482" y="5.365" font-weight="400" font-size="2.822" font-family="sans-serif" stroke-width=".265"><tspan x="190.482" y="5.365" style="-inkscape-font-specification:'sans-serif, Normal';font-variant-ligatures:normal;font-variant-caps:normal;font-variant-numeric:normal;font-variant-east-asian:normal;text-align:center" text-anchor="middle">End</tspan><tspan x="190.482" y="8.892" style="-inkscape-font-specification:'sans-serif, Normal';font-variant-ligatures:normal;font-variant-caps:normal;font-variant-numeric:normal;font-variant-east-asian:normal;text-align:center" text-anchor="middle">Sequence</tspan></text><text style="line-height:1.25;-inkscape-font-specification:'sans-serif, Normal';font-variant-ligatures:normal;font-variant-caps:normal;font-variant-numeric:normal;font-variant-east-asian:normal;text-align:center" x="11.469" y="7.917" transform="matrix(0 -.26458 .26458 0 77.622 9.39)" font-weight="400" font-size="10.667" font-family="sans-serif" text-anchor="middle" filter="url(#b)"><tspan x="11.469" y="7.917" style="-inkscape-font-specification:'sans-serif, Normal';font-variant-ligatures:normal;font-variant-caps:normal;font-variant-numeric:normal;font-variant-east-asian:normal;text-align:center">Sync</tspan><tspan x="11.469" y="21.25" style="-inkscape-font-specification:'sans-serif, Normal';font-variant-ligatures:normal;font-variant-caps:normal;font-variant-numeric:normal;font-variant-east-asian:normal;text-align:center">Bit</tspan></text><text transform="matrix(0 -.26458 .26458 0 170.78 10.093)" y="7.917" x="13.781" style="line-height:1.25;-inkscape-font-specification:'sans-serif, Normal';font-variant-ligatures:normal;font-variant-caps:normal;font-variant-numeric:normal;font-variant-east-asian:normal;text-align:center" font-weight="400" font-size="10.667" font-family="sans-serif" text-anchor="middle" filter="url(#c)"><tspan style="-inkscape-font-specification:'sans-serif, Normal';font-variant-ligatures:normal;font-variant-caps:normal;font-variant-numeric:normal;font-variant-east-asian:normal;text-align:center" y="7.917" x="13.781">Parity</tspan><tspan style="-inkscape-font-specification:'sans-serif, Normal';font-variant-ligatures:normal;font-variant-caps:normal;font-variant-numeric:normal;font-variant-east-asian:normal;text-align:center" y="21.25" x="13.781">Bit</tspan></text><text style="line-height:1.25;-inkscape-font-specification:'sans-serif, Normal';font-variant-ligatures:normal;font-variant-caps:normal;font-variant-numeric:normal;font-variant-east-asian:normal" x="-.703" y="7.917" transform="matrix(.26458 0 0 .26458 117.369 5.141)" font-weight="400" font-size="10.667" font-family="sans-serif" filter="url(#b)"><tspan x="-.703" y="7.917" style="-inkscape-font-specification:'sans-serif, Normal';font-variant-ligatures:normal;font-variant-caps:normal;font-variant-numeric:normal;font-variant-east-asian:normal">Data (10-bits)</tspan></text><path d="M9.525 6.35h20.108" fill="none" stroke="#999" stroke-width=".265" marker-start="url(#d)"/><path d="M55.033 6.35h20.109" fill="none" stroke="#999" stroke-width=".265" marker-end="url(#e)"/><path d="M85.725 6.35h29.633" fill="none" stroke="#999" stroke-width=".265" marker-start="url(#f)"/><path d="M138.642 6.35h29.633" fill="none" stroke="#999" stroke-width=".265" marker-end="url(#g)"/><path d="M178.858 6.35h3.175" fill="none" stroke="#999" stroke-width=".265" marker-start="url(#h)"/><path d="M198.967 6.35h3.175" fill="none" stroke="#999" stroke-width=".265" marker-end="url(#i)"/><path d="M50.8 48.683v-8.466M76.2 48.683v-8.466" fill="none" stroke="#999" stroke-width=".265"/><text y="43.465" x="63.482" style="line-height:1.25;-inkscape-font-specification:'sans-serif, Normal';font-variant-ligatures:normal;font-variant-caps:normal;font-variant-numeric:normal;font-variant-east-asian:normal" font-weight="400" font-size="2.822" font-family="sans-serif" stroke-width=".265"><tspan style="-inkscape-font-specification:'sans-serif, Normal';font-variant-ligatures:normal;font-variant-caps:normal;font-variant-numeric:normal;font-variant-east-asian:normal;text-align:center" y="43.465" x="63.482" text-anchor="middle">Code</tspan><tspan style="-inkscape-font-specification:'sans-serif, Normal';font-variant-ligatures:normal;font-variant-caps:normal;font-variant-numeric:normal;font-variant-east-asian:normal;text-align:center" y="46.992" x="63.482" text-anchor="middle">Violation</tspan></text><path d="M51.858 44.45h3.175" fill="none" stroke="#999" stroke-width=".265" marker-start="url(#j)"/><path d="M71.967 44.45h3.175" fill="none" stroke="#999" stroke-width=".265" marker-end="url(#k)"/><path d="M186.267 48.683v-8.466M203.2 48.683v-8.466" fill="none" stroke="#999" stroke-width=".265"/><text style="line-height:1.25;-inkscape-font-specification:'sans-serif, Normal';font-variant-ligatures:normal;font-variant-caps:normal;font-variant-numeric:normal;font-variant-east-asian:normal" x="194.842" y="43.465" font-weight="400" font-size="2.822" font-family="sans-serif" stroke-width=".265"><tspan x="194.842" y="43.465" style="-inkscape-font-specification:'sans-serif, Normal';font-variant-ligatures:normal;font-variant-caps:normal;font-variant-numeric:normal;font-variant-east-asian:normal;text-align:center" text-anchor="middle">Code</tspan><tspan x="194.842" y="46.992" style="-inkscape-font-specification:'sans-serif, Normal';font-variant-ligatures:normal;font-variant-caps:normal;font-variant-numeric:normal;font-variant-east-asian:normal;text-align:center" text-anchor="middle">Violation</tspan></text><circle cx="2.144" cy="25.416" r=".009" fill="#999" stroke="#999" stroke-width=".265"/><path d="M2.117 25.4h6.35M203.2 16.933V25.4h6.35" fill="none" stroke="#999" stroke-width=".397" stroke-dasharray="1.19063,1.19063"/><path d="M8.467 48.683v-8.466" fill="none" stroke="#999" stroke-width=".265"/><path d="M4.233 44.45h3.175" fill="none" stroke="#999" stroke-width=".265" marker-end="url(#l)"/><path d="M16.933 48.683v-8.466" fill="none" stroke="#999" stroke-width=".265"/><path d="M17.992 44.45h3.175" fill="none" stroke="#999" stroke-width=".265" marker-start="url(#m)"/><text style="line-height:1.25;-inkscape-font-specification:'sans-serif, Normal';font-variant-ligatures:normal;font-variant-caps:normal;font-variant-numeric:normal;font-variant-east-asian:normal" x="23.159" y="8.104" transform="matrix(0 -.26458 .26458 0 11.276 51.43)" font-weight="400" font-size="10.667" font-family="sans-serif" filter="url(#a)"><tspan x="23.159" y="8.104" style="-inkscape-font-specification:'sans-serif, Normal';font-variant-ligatures:normal;font-variant-caps:normal;font-variant-numeric:normal;font-variant-east-asian:normal;text-align:center" text-anchor="middle">0.42 µs</tspan></text><path d="M182.033 44.45h3.175" fill="none" stroke="#999" stroke-width=".265" marker-end="url(#n)"/><path d="M204.258 44.45h3.175" fill="none" stroke="#999" stroke-width=".265" marker-start="url(#o)"/><path d="M8.467 11.642v2.116M16.933 11.642v2.116M25.4 11.642v2.116M33.867 11.642v2.116M42.333 11.642v2.116M50.8 11.642v2.116M59.267 11.642v2.116M67.733 11.642v2.116M76.2 11.642v2.116M84.667 11.642v2.116M93.133 11.642v2.116M101.6 11.642v2.116M110.067 11.642v2.116M118.533 11.642v2.116M127 11.642v2.116M135.467 11.642v2.116M143.933 11.642v2.116M152.4 11.642v2.116M160.867 11.642v2.116M169.333 11.642v2.116M177.8 11.642v2.116M186.267 11.642v2.116M194.733 11.642v2.116M203.2 11.642v2.116M8.467 28.575v2.117M16.933 28.575v2.117M25.4 28.575v2.117M33.867 28.575v2.117M42.333 28.575v2.117M50.8 28.575v2.117M59.267 28.575v2.117M67.733 28.575v2.117M76.2 28.575v2.117M84.667 28.575v2.117M93.133 28.575v2.117M101.6 28.575v2.117M110.067 28.575v2.117M118.533 28.575v2.117M127 28.575v2.117M135.467 28.575v2.117M143.933 28.575v2.117M152.4 28.575v2.117M160.867 28.575v2.117M169.333 28.575v2.117M177.8 28.575v2.117M186.267 28.575v2.117M194.733 28.575v2.117M203.2 28.575v2.117" fill="none" stroke="#b3b3b3" stroke-width=".216"/><path d="M8.467 25.4H12.7v-8.467h4.233V25.4h4.234v-8.467H25.4V25.4h4.233v-8.467h4.234V25.4H38.1v-8.467h4.233V25.4h4.234v-8.467H50.8V25.4h12.7v-8.467h12.7V25.4h4.233v-8.467H88.9V25.4h4.233v-8.467h4.234V25.4h4.233v-8.467h4.233V25.4h4.234v-8.467h4.233V25.4h8.467v-8.467H127V25.4h4.233v-8.467h8.467V25.4h8.467v-8.467h8.466V25.4h8.467v-8.467h4.233V25.4h4.234v-8.467h8.466V25.4h4.234v-8.467H203.2" fill="none" stroke="#000" stroke-width=".397"/><g><path d="M84.667 34.925l2.116-3.175h4.234l2.116 3.175-2.116 3.175h-4.234z" fill="none" stroke="#000" stroke-width=".265"/><text y="37.497" x="24.131" style="line-height:1.25;-inkscape-font-specification:'monospace, Normal';font-variant-ligatures:normal;font-variant-caps:normal;font-variant-numeric:normal;font-variant-east-asian:normal" font-weight="400" font-size="4.233" font-family="monospace" stroke-width=".265" transform="translate(63.5 -1.058)"><tspan style="-inkscape-font-specification:'monospace, Normal';font-variant-ligatures:normal;font-variant-caps:normal;font-variant-numeric:normal;font-variant-east-asian:normal" y="37.497" x="24.131">0</tspan></text></g><g><path d="M160.867 34.925l2.116-3.175h4.234l2.116 3.175-2.116 3.175h-4.234z" fill="none" stroke="#000" stroke-width=".265"/><text style="line-height:1.25;-inkscape-font-specification:'monospace, Normal';font-variant-ligatures:normal;font-variant-caps:normal;font-variant-numeric:normal;font-variant-east-asian:normal" x="24.131" y="37.497" font-weight="400" font-size="4.233" font-family="monospace" stroke-width=".265" transform="translate(139.7 -1.058)"><tspan x="24.131" y="37.497" style="-inkscape-font-specification:'monospace, Normal';font-variant-ligatures:normal;font-variant-caps:normal;font-variant-numeric:normal;font-variant-east-asian:normal">1</tspan></text></g></g></svg>