G04 #@! TF.GenerationSoftware,KiCad,Pcbnew,5.1.4*
G04 #@! TF.CreationDate,2019-10-06T12:07:38-05:00*
G04 #@! TF.ProjectId,hardware,68617264-7761-4726-952e-6b696361645f,rev?*
G04 #@! TF.SameCoordinates,Original*
G04 #@! TF.FileFunction,Legend,Top*
G04 #@! TF.FilePolarity,Positive*
%FSLAX46Y46*%
G04 Gerber Fmt 4.6, Leading zero omitted, Abs format (unit mm)*
G04 Created by KiCad (PCBNEW 5.1.4) date 2019-10-06 12:07:38*
%MOMM*%
%LPD*%
G04 APERTURE LIST*
%ADD10C,0.150000*%
%ADD11C,0.120000*%
G04 APERTURE END LIST*
D10*
X229942380Y-63164404D02*
X228942380Y-63164404D01*
X229418571Y-62354880D02*
X229466190Y-62212023D01*
X229513809Y-62164404D01*
X229609047Y-62116785D01*
X229751904Y-62116785D01*
X229847142Y-62164404D01*
X229894761Y-62212023D01*
X229942380Y-62307261D01*
X229942380Y-62688214D01*
X228942380Y-62688214D01*
X228942380Y-62354880D01*
X228990000Y-62259642D01*
X229037619Y-62212023D01*
X229132857Y-62164404D01*
X229228095Y-62164404D01*
X229323333Y-62212023D01*
X229370952Y-62259642D01*
X229418571Y-62354880D01*
X229418571Y-62688214D01*
X229942380Y-61688214D02*
X228942380Y-61688214D01*
X229656666Y-61354880D01*
X228942380Y-61021547D01*
X229942380Y-61021547D01*
X228942380Y-59878690D02*
X228942380Y-59259642D01*
X229323333Y-59592976D01*
X229323333Y-59450119D01*
X229370952Y-59354880D01*
X229418571Y-59307261D01*
X229513809Y-59259642D01*
X229751904Y-59259642D01*
X229847142Y-59307261D01*
X229894761Y-59354880D01*
X229942380Y-59450119D01*
X229942380Y-59735833D01*
X229894761Y-59831071D01*
X229847142Y-59878690D01*
X229037619Y-58878690D02*
X228990000Y-58831071D01*
X228942380Y-58735833D01*
X228942380Y-58497738D01*
X228990000Y-58402500D01*
X229037619Y-58354880D01*
X229132857Y-58307261D01*
X229228095Y-58307261D01*
X229370952Y-58354880D01*
X229942380Y-58926309D01*
X229942380Y-58307261D01*
X228942380Y-57973928D02*
X228942380Y-57307261D01*
X229942380Y-57735833D01*
X228942380Y-56735833D02*
X228942380Y-56640595D01*
X228990000Y-56545357D01*
X229037619Y-56497738D01*
X229132857Y-56450119D01*
X229323333Y-56402500D01*
X229561428Y-56402500D01*
X229751904Y-56450119D01*
X229847142Y-56497738D01*
X229894761Y-56545357D01*
X229942380Y-56640595D01*
X229942380Y-56735833D01*
X229894761Y-56831071D01*
X229847142Y-56878690D01*
X229751904Y-56926309D01*
X229561428Y-56973928D01*
X229323333Y-56973928D01*
X229132857Y-56926309D01*
X229037619Y-56878690D01*
X228990000Y-56831071D01*
X228942380Y-56735833D01*
X229942380Y-55212023D02*
X228942380Y-55212023D01*
X229275714Y-54735833D02*
X229942380Y-54735833D01*
X229370952Y-54735833D02*
X229323333Y-54688214D01*
X229275714Y-54592976D01*
X229275714Y-54450119D01*
X229323333Y-54354880D01*
X229418571Y-54307261D01*
X229942380Y-54307261D01*
X229275714Y-53973928D02*
X229275714Y-53592976D01*
X228942380Y-53831071D02*
X229799523Y-53831071D01*
X229894761Y-53783452D01*
X229942380Y-53688214D01*
X229942380Y-53592976D01*
X229894761Y-52878690D02*
X229942380Y-52973928D01*
X229942380Y-53164404D01*
X229894761Y-53259642D01*
X229799523Y-53307261D01*
X229418571Y-53307261D01*
X229323333Y-53259642D01*
X229275714Y-53164404D01*
X229275714Y-52973928D01*
X229323333Y-52878690D01*
X229418571Y-52831071D01*
X229513809Y-52831071D01*
X229609047Y-53307261D01*
X229942380Y-52402500D02*
X229275714Y-52402500D01*
X229466190Y-52402500D02*
X229370952Y-52354880D01*
X229323333Y-52307261D01*
X229275714Y-52212023D01*
X229275714Y-52116785D01*
X229275714Y-51926309D02*
X229275714Y-51545357D01*
X229942380Y-51783452D02*
X229085238Y-51783452D01*
X228990000Y-51735833D01*
X228942380Y-51640595D01*
X228942380Y-51545357D01*
X229942380Y-50783452D02*
X229418571Y-50783452D01*
X229323333Y-50831071D01*
X229275714Y-50926309D01*
X229275714Y-51116785D01*
X229323333Y-51212023D01*
X229894761Y-50783452D02*
X229942380Y-50878690D01*
X229942380Y-51116785D01*
X229894761Y-51212023D01*
X229799523Y-51259642D01*
X229704285Y-51259642D01*
X229609047Y-51212023D01*
X229561428Y-51116785D01*
X229561428Y-50878690D01*
X229513809Y-50783452D01*
X229894761Y-49878690D02*
X229942380Y-49973928D01*
X229942380Y-50164404D01*
X229894761Y-50259642D01*
X229847142Y-50307261D01*
X229751904Y-50354880D01*
X229466190Y-50354880D01*
X229370952Y-50307261D01*
X229323333Y-50259642D01*
X229275714Y-50164404D01*
X229275714Y-49973928D01*
X229323333Y-49878690D01*
X229894761Y-49069166D02*
X229942380Y-49164404D01*
X229942380Y-49354880D01*
X229894761Y-49450119D01*
X229799523Y-49497738D01*
X229418571Y-49497738D01*
X229323333Y-49450119D01*
X229275714Y-49354880D01*
X229275714Y-49164404D01*
X229323333Y-49069166D01*
X229418571Y-49021547D01*
X229513809Y-49021547D01*
X229609047Y-49497738D01*
X230925714Y-62735833D02*
X231735238Y-62735833D01*
X231830476Y-62783452D01*
X231878095Y-62831071D01*
X231925714Y-62926309D01*
X231925714Y-63069166D01*
X231878095Y-63164404D01*
X231544761Y-62735833D02*
X231592380Y-62831071D01*
X231592380Y-63021547D01*
X231544761Y-63116785D01*
X231497142Y-63164404D01*
X231401904Y-63212023D01*
X231116190Y-63212023D01*
X231020952Y-63164404D01*
X230973333Y-63116785D01*
X230925714Y-63021547D01*
X230925714Y-62831071D01*
X230973333Y-62735833D01*
X231592380Y-62259642D02*
X230925714Y-62259642D01*
X230592380Y-62259642D02*
X230640000Y-62307261D01*
X230687619Y-62259642D01*
X230640000Y-62212023D01*
X230592380Y-62259642D01*
X230687619Y-62259642D01*
X230925714Y-61926309D02*
X230925714Y-61545357D01*
X230592380Y-61783452D02*
X231449523Y-61783452D01*
X231544761Y-61735833D01*
X231592380Y-61640595D01*
X231592380Y-61545357D01*
X231592380Y-61212023D02*
X230592380Y-61212023D01*
X231592380Y-60783452D02*
X231068571Y-60783452D01*
X230973333Y-60831071D01*
X230925714Y-60926309D01*
X230925714Y-61069166D01*
X230973333Y-61164404D01*
X231020952Y-61212023D01*
X230925714Y-59878690D02*
X231592380Y-59878690D01*
X230925714Y-60307261D02*
X231449523Y-60307261D01*
X231544761Y-60259642D01*
X231592380Y-60164404D01*
X231592380Y-60021547D01*
X231544761Y-59926309D01*
X231497142Y-59878690D01*
X231592380Y-59402500D02*
X230592380Y-59402500D01*
X230973333Y-59402500D02*
X230925714Y-59307261D01*
X230925714Y-59116785D01*
X230973333Y-59021547D01*
X231020952Y-58973928D01*
X231116190Y-58926309D01*
X231401904Y-58926309D01*
X231497142Y-58973928D01*
X231544761Y-59021547D01*
X231592380Y-59116785D01*
X231592380Y-59307261D01*
X231544761Y-59402500D01*
X231497142Y-58497738D02*
X231544761Y-58450119D01*
X231592380Y-58497738D01*
X231544761Y-58545357D01*
X231497142Y-58497738D01*
X231592380Y-58497738D01*
X231544761Y-57592976D02*
X231592380Y-57688214D01*
X231592380Y-57878690D01*
X231544761Y-57973928D01*
X231497142Y-58021547D01*
X231401904Y-58069166D01*
X231116190Y-58069166D01*
X231020952Y-58021547D01*
X230973333Y-57973928D01*
X230925714Y-57878690D01*
X230925714Y-57688214D01*
X230973333Y-57592976D01*
X231592380Y-57021547D02*
X231544761Y-57116785D01*
X231497142Y-57164404D01*
X231401904Y-57212023D01*
X231116190Y-57212023D01*
X231020952Y-57164404D01*
X230973333Y-57116785D01*
X230925714Y-57021547D01*
X230925714Y-56878690D01*
X230973333Y-56783452D01*
X231020952Y-56735833D01*
X231116190Y-56688214D01*
X231401904Y-56688214D01*
X231497142Y-56735833D01*
X231544761Y-56783452D01*
X231592380Y-56878690D01*
X231592380Y-57021547D01*
X231592380Y-56259642D02*
X230925714Y-56259642D01*
X231020952Y-56259642D02*
X230973333Y-56212023D01*
X230925714Y-56116785D01*
X230925714Y-55973928D01*
X230973333Y-55878690D01*
X231068571Y-55831071D01*
X231592380Y-55831071D01*
X231068571Y-55831071D02*
X230973333Y-55783452D01*
X230925714Y-55688214D01*
X230925714Y-55545357D01*
X230973333Y-55450119D01*
X231068571Y-55402500D01*
X231592380Y-55402500D01*
X230544761Y-54212023D02*
X231830476Y-55069166D01*
X231592380Y-53735833D02*
X231544761Y-53831071D01*
X231449523Y-53878690D01*
X230592380Y-53878690D01*
X231592380Y-53212023D02*
X231544761Y-53307261D01*
X231497142Y-53354880D01*
X231401904Y-53402500D01*
X231116190Y-53402500D01*
X231020952Y-53354880D01*
X230973333Y-53307261D01*
X230925714Y-53212023D01*
X230925714Y-53069166D01*
X230973333Y-52973928D01*
X231020952Y-52926309D01*
X231116190Y-52878690D01*
X231401904Y-52878690D01*
X231497142Y-52926309D01*
X231544761Y-52973928D01*
X231592380Y-53069166D01*
X231592380Y-53212023D01*
X230925714Y-52545357D02*
X231592380Y-52354880D01*
X231116190Y-52164404D01*
X231592380Y-51973928D01*
X230925714Y-51783452D01*
X231592380Y-51259642D02*
X231544761Y-51354880D01*
X231497142Y-51402500D01*
X231401904Y-51450119D01*
X231116190Y-51450119D01*
X231020952Y-51402500D01*
X230973333Y-51354880D01*
X230925714Y-51259642D01*
X230925714Y-51116785D01*
X230973333Y-51021547D01*
X231020952Y-50973928D01*
X231116190Y-50926309D01*
X231401904Y-50926309D01*
X231497142Y-50973928D01*
X231544761Y-51021547D01*
X231592380Y-51116785D01*
X231592380Y-51259642D01*
X231592380Y-50497738D02*
X230592380Y-50497738D01*
X230973333Y-50497738D02*
X230925714Y-50402500D01*
X230925714Y-50212023D01*
X230973333Y-50116785D01*
X231020952Y-50069166D01*
X231116190Y-50021547D01*
X231401904Y-50021547D01*
X231497142Y-50069166D01*
X231544761Y-50116785D01*
X231592380Y-50212023D01*
X231592380Y-50402500D01*
X231544761Y-50497738D01*
X231544761Y-49640595D02*
X231592380Y-49545357D01*
X231592380Y-49354880D01*
X231544761Y-49259642D01*
X231449523Y-49212023D01*
X231401904Y-49212023D01*
X231306666Y-49259642D01*
X231259047Y-49354880D01*
X231259047Y-49497738D01*
X231211428Y-49592976D01*
X231116190Y-49640595D01*
X231068571Y-49640595D01*
X230973333Y-49592976D01*
X230925714Y-49497738D01*
X230925714Y-49354880D01*
X230973333Y-49259642D01*
X231544761Y-48402500D02*
X231592380Y-48497738D01*
X231592380Y-48688214D01*
X231544761Y-48783452D01*
X231449523Y-48831071D01*
X231068571Y-48831071D01*
X230973333Y-48783452D01*
X230925714Y-48688214D01*
X230925714Y-48497738D01*
X230973333Y-48402500D01*
X231068571Y-48354880D01*
X231163809Y-48354880D01*
X231259047Y-48831071D01*
X231592380Y-47926309D02*
X230925714Y-47926309D01*
X231116190Y-47926309D02*
X231020952Y-47878690D01*
X230973333Y-47831071D01*
X230925714Y-47735833D01*
X230925714Y-47640595D01*
X230925714Y-47402500D02*
X231592380Y-47164404D01*
X230925714Y-46926309D01*
X231592380Y-46116785D02*
X231068571Y-46116785D01*
X230973333Y-46164404D01*
X230925714Y-46259642D01*
X230925714Y-46450119D01*
X230973333Y-46545357D01*
X231544761Y-46116785D02*
X231592380Y-46212023D01*
X231592380Y-46450119D01*
X231544761Y-46545357D01*
X231449523Y-46592976D01*
X231354285Y-46592976D01*
X231259047Y-46545357D01*
X231211428Y-46450119D01*
X231211428Y-46212023D01*
X231163809Y-46116785D01*
X231592380Y-45640595D02*
X230592380Y-45640595D01*
X230973333Y-45640595D02*
X230925714Y-45545357D01*
X230925714Y-45354880D01*
X230973333Y-45259642D01*
X231020952Y-45212023D01*
X231116190Y-45164404D01*
X231401904Y-45164404D01*
X231497142Y-45212023D01*
X231544761Y-45259642D01*
X231592380Y-45354880D01*
X231592380Y-45545357D01*
X231544761Y-45640595D01*
X231592380Y-44592976D02*
X231544761Y-44688214D01*
X231449523Y-44735833D01*
X230592380Y-44735833D01*
X231544761Y-43831071D02*
X231592380Y-43926309D01*
X231592380Y-44116785D01*
X231544761Y-44212023D01*
X231449523Y-44259642D01*
X231068571Y-44259642D01*
X230973333Y-44212023D01*
X230925714Y-44116785D01*
X230925714Y-43926309D01*
X230973333Y-43831071D01*
X231068571Y-43783452D01*
X231163809Y-43783452D01*
X231259047Y-44259642D01*
X230544761Y-42640595D02*
X231830476Y-43497738D01*
X231544761Y-41878690D02*
X231592380Y-41973928D01*
X231592380Y-42164404D01*
X231544761Y-42259642D01*
X231497142Y-42307261D01*
X231401904Y-42354880D01*
X231116190Y-42354880D01*
X231020952Y-42307261D01*
X230973333Y-42259642D01*
X230925714Y-42164404D01*
X230925714Y-41973928D01*
X230973333Y-41878690D01*
X231592380Y-41307261D02*
X231544761Y-41402500D01*
X231497142Y-41450119D01*
X231401904Y-41497738D01*
X231116190Y-41497738D01*
X231020952Y-41450119D01*
X230973333Y-41402500D01*
X230925714Y-41307261D01*
X230925714Y-41164404D01*
X230973333Y-41069166D01*
X231020952Y-41021547D01*
X231116190Y-40973928D01*
X231401904Y-40973928D01*
X231497142Y-41021547D01*
X231544761Y-41069166D01*
X231592380Y-41164404D01*
X231592380Y-41307261D01*
X231592380Y-40116785D02*
X231068571Y-40116785D01*
X230973333Y-40164404D01*
X230925714Y-40259642D01*
X230925714Y-40450119D01*
X230973333Y-40545357D01*
X231544761Y-40116785D02*
X231592380Y-40212023D01*
X231592380Y-40450119D01*
X231544761Y-40545357D01*
X231449523Y-40592976D01*
X231354285Y-40592976D01*
X231259047Y-40545357D01*
X231211428Y-40450119D01*
X231211428Y-40212023D01*
X231163809Y-40116785D01*
X231592380Y-39735833D02*
X230925714Y-39212023D01*
X230925714Y-39735833D02*
X231592380Y-39212023D01*
X231211428Y-38831071D02*
X231211428Y-38069166D01*
X231592380Y-37592976D02*
X230925714Y-37592976D01*
X230592380Y-37592976D02*
X230640000Y-37640595D01*
X230687619Y-37592976D01*
X230640000Y-37545357D01*
X230592380Y-37592976D01*
X230687619Y-37592976D01*
X230925714Y-37116785D02*
X231592380Y-37116785D01*
X231020952Y-37116785D02*
X230973333Y-37069166D01*
X230925714Y-36973928D01*
X230925714Y-36831071D01*
X230973333Y-36735833D01*
X231068571Y-36688214D01*
X231592380Y-36688214D01*
X230925714Y-36354880D02*
X230925714Y-35973928D01*
X230592380Y-36212023D02*
X231449523Y-36212023D01*
X231544761Y-36164404D01*
X231592380Y-36069166D01*
X231592380Y-35973928D01*
X231544761Y-35259642D02*
X231592380Y-35354880D01*
X231592380Y-35545357D01*
X231544761Y-35640595D01*
X231449523Y-35688214D01*
X231068571Y-35688214D01*
X230973333Y-35640595D01*
X230925714Y-35545357D01*
X230925714Y-35354880D01*
X230973333Y-35259642D01*
X231068571Y-35212023D01*
X231163809Y-35212023D01*
X231259047Y-35688214D01*
X231592380Y-34783452D02*
X230925714Y-34783452D01*
X231116190Y-34783452D02*
X231020952Y-34735833D01*
X230973333Y-34688214D01*
X230925714Y-34592976D01*
X230925714Y-34497738D01*
X230925714Y-34307261D02*
X230925714Y-33926309D01*
X231592380Y-34164404D02*
X230735238Y-34164404D01*
X230640000Y-34116785D01*
X230592380Y-34021547D01*
X230592380Y-33926309D01*
X231592380Y-33164404D02*
X231068571Y-33164404D01*
X230973333Y-33212023D01*
X230925714Y-33307261D01*
X230925714Y-33497738D01*
X230973333Y-33592976D01*
X231544761Y-33164404D02*
X231592380Y-33259642D01*
X231592380Y-33497738D01*
X231544761Y-33592976D01*
X231449523Y-33640595D01*
X231354285Y-33640595D01*
X231259047Y-33592976D01*
X231211428Y-33497738D01*
X231211428Y-33259642D01*
X231163809Y-33164404D01*
X231544761Y-32259642D02*
X231592380Y-32354880D01*
X231592380Y-32545357D01*
X231544761Y-32640595D01*
X231497142Y-32688214D01*
X231401904Y-32735833D01*
X231116190Y-32735833D01*
X231020952Y-32688214D01*
X230973333Y-32640595D01*
X230925714Y-32545357D01*
X230925714Y-32354880D01*
X230973333Y-32259642D01*
X231544761Y-31450119D02*
X231592380Y-31545357D01*
X231592380Y-31735833D01*
X231544761Y-31831071D01*
X231449523Y-31878690D01*
X231068571Y-31878690D01*
X230973333Y-31831071D01*
X230925714Y-31735833D01*
X230925714Y-31545357D01*
X230973333Y-31450119D01*
X231068571Y-31402500D01*
X231163809Y-31402500D01*
X231259047Y-31878690D01*
X233242380Y-63164404D02*
X232575714Y-63164404D01*
X232242380Y-63164404D02*
X232290000Y-63212023D01*
X232337619Y-63164404D01*
X232290000Y-63116785D01*
X232242380Y-63164404D01*
X232337619Y-63164404D01*
X232575714Y-62688214D02*
X233242380Y-62688214D01*
X232670952Y-62688214D02*
X232623333Y-62640595D01*
X232575714Y-62545357D01*
X232575714Y-62402500D01*
X232623333Y-62307261D01*
X232718571Y-62259642D01*
X233242380Y-62259642D01*
X232575714Y-61926309D02*
X232575714Y-61545357D01*
X232242380Y-61783452D02*
X233099523Y-61783452D01*
X233194761Y-61735833D01*
X233242380Y-61640595D01*
X233242380Y-61545357D01*
X233194761Y-60831071D02*
X233242380Y-60926309D01*
X233242380Y-61116785D01*
X233194761Y-61212023D01*
X233099523Y-61259642D01*
X232718571Y-61259642D01*
X232623333Y-61212023D01*
X232575714Y-61116785D01*
X232575714Y-60926309D01*
X232623333Y-60831071D01*
X232718571Y-60783452D01*
X232813809Y-60783452D01*
X232909047Y-61259642D01*
X233242380Y-60354880D02*
X232575714Y-60354880D01*
X232766190Y-60354880D02*
X232670952Y-60307261D01*
X232623333Y-60259642D01*
X232575714Y-60164404D01*
X232575714Y-60069166D01*
X232575714Y-59878690D02*
X232575714Y-59497738D01*
X233242380Y-59735833D02*
X232385238Y-59735833D01*
X232290000Y-59688214D01*
X232242380Y-59592976D01*
X232242380Y-59497738D01*
X233242380Y-58735833D02*
X232718571Y-58735833D01*
X232623333Y-58783452D01*
X232575714Y-58878690D01*
X232575714Y-59069166D01*
X232623333Y-59164404D01*
X233194761Y-58735833D02*
X233242380Y-58831071D01*
X233242380Y-59069166D01*
X233194761Y-59164404D01*
X233099523Y-59212023D01*
X233004285Y-59212023D01*
X232909047Y-59164404D01*
X232861428Y-59069166D01*
X232861428Y-58831071D01*
X232813809Y-58735833D01*
X233194761Y-57831071D02*
X233242380Y-57926309D01*
X233242380Y-58116785D01*
X233194761Y-58212023D01*
X233147142Y-58259642D01*
X233051904Y-58307261D01*
X232766190Y-58307261D01*
X232670952Y-58259642D01*
X232623333Y-58212023D01*
X232575714Y-58116785D01*
X232575714Y-57926309D01*
X232623333Y-57831071D01*
X233194761Y-57021547D02*
X233242380Y-57116785D01*
X233242380Y-57307261D01*
X233194761Y-57402500D01*
X233099523Y-57450119D01*
X232718571Y-57450119D01*
X232623333Y-57402500D01*
X232575714Y-57307261D01*
X232575714Y-57116785D01*
X232623333Y-57021547D01*
X232718571Y-56973928D01*
X232813809Y-56973928D01*
X232909047Y-57450119D01*
X233242380Y-56021547D02*
X233242380Y-56592976D01*
X233242380Y-56307261D02*
X232242380Y-56307261D01*
X232385238Y-56402500D01*
X232480476Y-56497738D01*
X232528095Y-56592976D01*
X232861428Y-54831071D02*
X232861428Y-54069166D01*
X233242380Y-52259642D02*
X232766190Y-52592976D01*
X233242380Y-52831071D02*
X232242380Y-52831071D01*
X232242380Y-52450119D01*
X232290000Y-52354880D01*
X232337619Y-52307261D01*
X232432857Y-52259642D01*
X232575714Y-52259642D01*
X232670952Y-52307261D01*
X232718571Y-52354880D01*
X232766190Y-52450119D01*
X232766190Y-52831071D01*
X233194761Y-51450119D02*
X233242380Y-51545357D01*
X233242380Y-51735833D01*
X233194761Y-51831071D01*
X233099523Y-51878690D01*
X232718571Y-51878690D01*
X232623333Y-51831071D01*
X232575714Y-51735833D01*
X232575714Y-51545357D01*
X232623333Y-51450119D01*
X232718571Y-51402500D01*
X232813809Y-51402500D01*
X232909047Y-51878690D01*
X232575714Y-51069166D02*
X233242380Y-50831071D01*
X232575714Y-50592976D01*
X233242380Y-48926309D02*
X233242380Y-49497738D01*
X233242380Y-49212023D02*
X232242380Y-49212023D01*
X232385238Y-49307261D01*
X232480476Y-49402500D01*
X232528095Y-49497738D01*
X232718571Y-48164404D02*
X232766190Y-48021547D01*
X232813809Y-47973928D01*
X232909047Y-47926309D01*
X233051904Y-47926309D01*
X233147142Y-47973928D01*
X233194761Y-48021547D01*
X233242380Y-48116785D01*
X233242380Y-48497738D01*
X232242380Y-48497738D01*
X232242380Y-48164404D01*
X232290000Y-48069166D01*
X232337619Y-48021547D01*
X232432857Y-47973928D01*
X232528095Y-47973928D01*
X232623333Y-48021547D01*
X232670952Y-48069166D01*
X232718571Y-48164404D01*
X232718571Y-48497738D01*
X143510000Y-17780000D02*
X241046000Y-17780000D01*
X143510000Y-71120000D02*
X242570000Y-71120000D01*
X241046000Y-17780000D02*
X242570000Y-19304000D01*
X242570000Y-71120000D02*
X242570000Y-69850000D01*
X242570000Y-69850000D02*
X245110000Y-67310000D01*
X245110000Y-67310000D02*
X245110000Y-33020000D01*
X245110000Y-33020000D02*
X242570000Y-30480000D01*
X242570000Y-30480000D02*
X242570000Y-19304000D01*
X143510000Y-17780000D02*
X143510000Y-71120000D01*
D11*
X181670000Y-60690000D02*
G75*
G02X181670000Y-58690000I0J1000000D01*
G01*
X181670000Y-58690000D02*
X181670000Y-57040000D01*
X181670000Y-57040000D02*
X161230000Y-57040000D01*
X161230000Y-57040000D02*
X161230000Y-62340000D01*
X161230000Y-62340000D02*
X181670000Y-62340000D01*
X181670000Y-62340000D02*
X181670000Y-60690000D01*
X168180000Y-38000000D02*
X168180000Y-38330000D01*
X174720000Y-38000000D02*
X168180000Y-38000000D01*
X174720000Y-38330000D02*
X174720000Y-38000000D01*
X168180000Y-40740000D02*
X168180000Y-40410000D01*
X174720000Y-40740000D02*
X168180000Y-40740000D01*
X174720000Y-40410000D02*
X174720000Y-40740000D01*
X172950000Y-50260000D02*
X172620000Y-50260000D01*
X172620000Y-50260000D02*
X172620000Y-43720000D01*
X172620000Y-43720000D02*
X172950000Y-43720000D01*
X175030000Y-50260000D02*
X175360000Y-50260000D01*
X175360000Y-50260000D02*
X175360000Y-43720000D01*
X175360000Y-43720000D02*
X175030000Y-43720000D01*
X180440000Y-43720000D02*
X180110000Y-43720000D01*
X180440000Y-50260000D02*
X180440000Y-43720000D01*
X180110000Y-50260000D02*
X180440000Y-50260000D01*
X177700000Y-43720000D02*
X178030000Y-43720000D01*
X177700000Y-50260000D02*
X177700000Y-43720000D01*
X178030000Y-50260000D02*
X177700000Y-50260000D01*
X167870000Y-50260000D02*
X167540000Y-50260000D01*
X167540000Y-50260000D02*
X167540000Y-43720000D01*
X167540000Y-43720000D02*
X167870000Y-43720000D01*
X169950000Y-50260000D02*
X170280000Y-50260000D01*
X170280000Y-50260000D02*
X170280000Y-43720000D01*
X170280000Y-43720000D02*
X169950000Y-43720000D01*
X165200000Y-43720000D02*
X164870000Y-43720000D01*
X165200000Y-50260000D02*
X165200000Y-43720000D01*
X164870000Y-50260000D02*
X165200000Y-50260000D01*
X162460000Y-43720000D02*
X162790000Y-43720000D01*
X162460000Y-50260000D02*
X162460000Y-43720000D01*
X162790000Y-50260000D02*
X162460000Y-50260000D01*
X169545000Y-27940000D02*
G75*
G03X169545000Y-27940000I-635000J0D01*
G01*
X175320000Y-29480000D02*
X175320000Y-31480000D01*
X175320000Y-33715000D02*
X175320000Y-31480000D01*
X167580000Y-33715000D02*
X175320000Y-33715000D01*
X167580000Y-27245000D02*
X167580000Y-33715000D01*
X175320000Y-27245000D02*
X167580000Y-27245000D01*
X175320000Y-29480000D02*
X175320000Y-27245000D01*
X210470000Y-66050000D02*
X223070000Y-66050000D01*
X210470000Y-60950000D02*
X210470000Y-66050000D01*
X223070000Y-60950000D02*
X210470000Y-60950000D01*
X185520000Y-66100000D02*
X182780000Y-66100000D01*
X185520000Y-60860000D02*
X182780000Y-60860000D01*
X182780000Y-60860000D02*
X182780000Y-66100000D01*
X185520000Y-60860000D02*
X185520000Y-66100000D01*
X228660000Y-24030000D02*
X228660000Y-26770000D01*
X223420000Y-24030000D02*
X223420000Y-26770000D01*
X223420000Y-26770000D02*
X228660000Y-26770000D01*
X223420000Y-24030000D02*
X228660000Y-24030000D01*
X208340000Y-22760000D02*
X208340000Y-25500000D01*
X203100000Y-22760000D02*
X203100000Y-25500000D01*
X203100000Y-25500000D02*
X208340000Y-25500000D01*
X203100000Y-22760000D02*
X208340000Y-22760000D01*
X187210000Y-62554000D02*
X187210000Y-60880000D01*
X187210000Y-66120000D02*
X187210000Y-64446000D01*
X196450000Y-62554000D02*
X196450000Y-60880000D01*
X196450000Y-66120000D02*
X196450000Y-64446000D01*
X196450000Y-60880000D02*
X187210000Y-60880000D01*
X196450000Y-66120000D02*
X187210000Y-66120000D01*
X196580000Y-29150000D02*
G75*
G02X194580000Y-29150000I-1000000J0D01*
G01*
X194580000Y-29150000D02*
X189120000Y-29150000D01*
X189120000Y-29150000D02*
X189120000Y-59750000D01*
X189120000Y-59750000D02*
X202040000Y-59750000D01*
X202040000Y-59750000D02*
X202040000Y-29150000D01*
X202040000Y-29150000D02*
X196580000Y-29150000D01*
X186630000Y-29090000D02*
X186630000Y-59810000D01*
X186630000Y-59810000D02*
X204530000Y-59810000D01*
X204530000Y-59810000D02*
X204530000Y-29090000D01*
X204530000Y-29090000D02*
X186630000Y-29090000D01*
X226120000Y-29090000D02*
X208220000Y-29090000D01*
X226120000Y-59810000D02*
X226120000Y-29090000D01*
X208220000Y-59810000D02*
X226120000Y-59810000D01*
X208220000Y-29090000D02*
X208220000Y-59810000D01*
X223630000Y-29150000D02*
X218170000Y-29150000D01*
X223630000Y-59750000D02*
X223630000Y-29150000D01*
X210710000Y-59750000D02*
X223630000Y-59750000D01*
X210710000Y-29150000D02*
X210710000Y-59750000D01*
X216170000Y-29150000D02*
X210710000Y-29150000D01*
X218170000Y-29150000D02*
G75*
G02X216170000Y-29150000I-1000000J0D01*
G01*
X143510000Y-55760000D02*
X143510000Y-40760000D01*
X143510000Y-40760000D02*
X158510000Y-40760000D01*
X158510000Y-40760000D02*
X158510000Y-55760000D01*
X158510000Y-55760000D02*
X143510000Y-55760000D01*
X143710000Y-48260000D02*
X144710000Y-49260000D01*
X143710000Y-48260000D02*
X144710000Y-47260000D01*
X163600000Y-27210000D02*
X163930000Y-27210000D01*
X163930000Y-27210000D02*
X163930000Y-33750000D01*
X163930000Y-33750000D02*
X163600000Y-33750000D01*
X161520000Y-27210000D02*
X161190000Y-27210000D01*
X161190000Y-27210000D02*
X161190000Y-33750000D01*
X161190000Y-33750000D02*
X161520000Y-33750000D01*
X199930000Y-62460000D02*
X199930000Y-62130000D01*
X199930000Y-62130000D02*
X206470000Y-62130000D01*
X206470000Y-62130000D02*
X206470000Y-62460000D01*
X199930000Y-64540000D02*
X199930000Y-64870000D01*
X199930000Y-64870000D02*
X206470000Y-64870000D01*
X206470000Y-64870000D02*
X206470000Y-64540000D01*
D10*
X144811904Y-16216380D02*
X145478571Y-17216380D01*
X145478571Y-16216380D02*
X144811904Y-17216380D01*
X145811904Y-16930666D02*
X146288095Y-16930666D01*
X145716666Y-17216380D02*
X146050000Y-16216380D01*
X146383333Y-17216380D01*
X147240476Y-17216380D02*
X146669047Y-17216380D01*
X146954761Y-17216380D02*
X146954761Y-16216380D01*
X146859523Y-16359238D01*
X146764285Y-16454476D01*
X146669047Y-16502095D01*
X182122380Y-60451904D02*
X182931904Y-60451904D01*
X183027142Y-60404285D01*
X183074761Y-60356666D01*
X183122380Y-60261428D01*
X183122380Y-60070952D01*
X183074761Y-59975714D01*
X183027142Y-59928095D01*
X182931904Y-59880476D01*
X182122380Y-59880476D01*
X182122380Y-59499523D02*
X182122380Y-58880476D01*
X182503333Y-59213809D01*
X182503333Y-59070952D01*
X182550952Y-58975714D01*
X182598571Y-58928095D01*
X182693809Y-58880476D01*
X182931904Y-58880476D01*
X183027142Y-58928095D01*
X183074761Y-58975714D01*
X183122380Y-59070952D01*
X183122380Y-59356666D01*
X183074761Y-59451904D01*
X183027142Y-59499523D01*
X177633333Y-39822380D02*
X177300000Y-39346190D01*
X177061904Y-39822380D02*
X177061904Y-38822380D01*
X177442857Y-38822380D01*
X177538095Y-38870000D01*
X177585714Y-38917619D01*
X177633333Y-39012857D01*
X177633333Y-39155714D01*
X177585714Y-39250952D01*
X177538095Y-39298571D01*
X177442857Y-39346190D01*
X177061904Y-39346190D01*
X177966666Y-38822380D02*
X178585714Y-38822380D01*
X178252380Y-39203333D01*
X178395238Y-39203333D01*
X178490476Y-39250952D01*
X178538095Y-39298571D01*
X178585714Y-39393809D01*
X178585714Y-39631904D01*
X178538095Y-39727142D01*
X178490476Y-39774761D01*
X178395238Y-39822380D01*
X178109523Y-39822380D01*
X178014285Y-39774761D01*
X177966666Y-39727142D01*
X172072380Y-47156666D02*
X171596190Y-47490000D01*
X172072380Y-47728095D02*
X171072380Y-47728095D01*
X171072380Y-47347142D01*
X171120000Y-47251904D01*
X171167619Y-47204285D01*
X171262857Y-47156666D01*
X171405714Y-47156666D01*
X171500952Y-47204285D01*
X171548571Y-47251904D01*
X171596190Y-47347142D01*
X171596190Y-47728095D01*
X171167619Y-46775714D02*
X171120000Y-46728095D01*
X171072380Y-46632857D01*
X171072380Y-46394761D01*
X171120000Y-46299523D01*
X171167619Y-46251904D01*
X171262857Y-46204285D01*
X171358095Y-46204285D01*
X171500952Y-46251904D01*
X172072380Y-46823333D01*
X172072380Y-46204285D01*
X177152380Y-47156666D02*
X176676190Y-47490000D01*
X177152380Y-47728095D02*
X176152380Y-47728095D01*
X176152380Y-47347142D01*
X176200000Y-47251904D01*
X176247619Y-47204285D01*
X176342857Y-47156666D01*
X176485714Y-47156666D01*
X176580952Y-47204285D01*
X176628571Y-47251904D01*
X176676190Y-47347142D01*
X176676190Y-47728095D01*
X177152380Y-46204285D02*
X177152380Y-46775714D01*
X177152380Y-46490000D02*
X176152380Y-46490000D01*
X176295238Y-46585238D01*
X176390476Y-46680476D01*
X176438095Y-46775714D01*
X166992380Y-47156666D02*
X166516190Y-47490000D01*
X166992380Y-47728095D02*
X165992380Y-47728095D01*
X165992380Y-47347142D01*
X166040000Y-47251904D01*
X166087619Y-47204285D01*
X166182857Y-47156666D01*
X166325714Y-47156666D01*
X166420952Y-47204285D01*
X166468571Y-47251904D01*
X166516190Y-47347142D01*
X166516190Y-47728095D01*
X165992380Y-46251904D02*
X165992380Y-46728095D01*
X166468571Y-46775714D01*
X166420952Y-46728095D01*
X166373333Y-46632857D01*
X166373333Y-46394761D01*
X166420952Y-46299523D01*
X166468571Y-46251904D01*
X166563809Y-46204285D01*
X166801904Y-46204285D01*
X166897142Y-46251904D01*
X166944761Y-46299523D01*
X166992380Y-46394761D01*
X166992380Y-46632857D01*
X166944761Y-46728095D01*
X166897142Y-46775714D01*
X161912380Y-47156666D02*
X161436190Y-47490000D01*
X161912380Y-47728095D02*
X160912380Y-47728095D01*
X160912380Y-47347142D01*
X160960000Y-47251904D01*
X161007619Y-47204285D01*
X161102857Y-47156666D01*
X161245714Y-47156666D01*
X161340952Y-47204285D01*
X161388571Y-47251904D01*
X161436190Y-47347142D01*
X161436190Y-47728095D01*
X161245714Y-46299523D02*
X161912380Y-46299523D01*
X160864761Y-46537619D02*
X161579047Y-46775714D01*
X161579047Y-46156666D01*
X175772380Y-31241904D02*
X175772380Y-30670476D01*
X176772380Y-30956190D02*
X175772380Y-30956190D01*
X176772380Y-29813333D02*
X176772380Y-30384761D01*
X176772380Y-30099047D02*
X175772380Y-30099047D01*
X175915238Y-30194285D01*
X176010476Y-30289523D01*
X176058095Y-30384761D01*
X225583809Y-63476190D02*
X225583809Y-63952380D01*
X225250476Y-62952380D02*
X225583809Y-63476190D01*
X225917142Y-62952380D01*
X226774285Y-63952380D02*
X226202857Y-63952380D01*
X226488571Y-63952380D02*
X226488571Y-62952380D01*
X226393333Y-63095238D01*
X226298095Y-63190476D01*
X226202857Y-63238095D01*
X184507142Y-59856666D02*
X184554761Y-59904285D01*
X184602380Y-60047142D01*
X184602380Y-60142380D01*
X184554761Y-60285238D01*
X184459523Y-60380476D01*
X184364285Y-60428095D01*
X184173809Y-60475714D01*
X184030952Y-60475714D01*
X183840476Y-60428095D01*
X183745238Y-60380476D01*
X183650000Y-60285238D01*
X183602380Y-60142380D01*
X183602380Y-60047142D01*
X183650000Y-59904285D01*
X183697619Y-59856666D01*
X183935714Y-58999523D02*
X184602380Y-58999523D01*
X183554761Y-59237619D02*
X184269047Y-59475714D01*
X184269047Y-58856666D01*
X225873333Y-23257142D02*
X225825714Y-23304761D01*
X225682857Y-23352380D01*
X225587619Y-23352380D01*
X225444761Y-23304761D01*
X225349523Y-23209523D01*
X225301904Y-23114285D01*
X225254285Y-22923809D01*
X225254285Y-22780952D01*
X225301904Y-22590476D01*
X225349523Y-22495238D01*
X225444761Y-22400000D01*
X225587619Y-22352380D01*
X225682857Y-22352380D01*
X225825714Y-22400000D01*
X225873333Y-22447619D01*
X226206666Y-22352380D02*
X226825714Y-22352380D01*
X226492380Y-22733333D01*
X226635238Y-22733333D01*
X226730476Y-22780952D01*
X226778095Y-22828571D01*
X226825714Y-22923809D01*
X226825714Y-23161904D01*
X226778095Y-23257142D01*
X226730476Y-23304761D01*
X226635238Y-23352380D01*
X226349523Y-23352380D01*
X226254285Y-23304761D01*
X226206666Y-23257142D01*
X205573333Y-27027142D02*
X205525714Y-27074761D01*
X205382857Y-27122380D01*
X205287619Y-27122380D01*
X205144761Y-27074761D01*
X205049523Y-26979523D01*
X205001904Y-26884285D01*
X204954285Y-26693809D01*
X204954285Y-26550952D01*
X205001904Y-26360476D01*
X205049523Y-26265238D01*
X205144761Y-26170000D01*
X205287619Y-26122380D01*
X205382857Y-26122380D01*
X205525714Y-26170000D01*
X205573333Y-26217619D01*
X205954285Y-26217619D02*
X206001904Y-26170000D01*
X206097142Y-26122380D01*
X206335238Y-26122380D01*
X206430476Y-26170000D01*
X206478095Y-26217619D01*
X206525714Y-26312857D01*
X206525714Y-26408095D01*
X206478095Y-26550952D01*
X205906666Y-27122380D01*
X206525714Y-27122380D01*
X191603333Y-67667142D02*
X191555714Y-67714761D01*
X191412857Y-67762380D01*
X191317619Y-67762380D01*
X191174761Y-67714761D01*
X191079523Y-67619523D01*
X191031904Y-67524285D01*
X190984285Y-67333809D01*
X190984285Y-67190952D01*
X191031904Y-67000476D01*
X191079523Y-66905238D01*
X191174761Y-66810000D01*
X191317619Y-66762380D01*
X191412857Y-66762380D01*
X191555714Y-66810000D01*
X191603333Y-66857619D01*
X192555714Y-67762380D02*
X191984285Y-67762380D01*
X192270000Y-67762380D02*
X192270000Y-66762380D01*
X192174761Y-66905238D01*
X192079523Y-67000476D01*
X191984285Y-67048095D01*
X194818095Y-26122380D02*
X194818095Y-26931904D01*
X194865714Y-27027142D01*
X194913333Y-27074761D01*
X195008571Y-27122380D01*
X195199047Y-27122380D01*
X195294285Y-27074761D01*
X195341904Y-27027142D01*
X195389523Y-26931904D01*
X195389523Y-26122380D01*
X196389523Y-27122380D02*
X195818095Y-27122380D01*
X196103809Y-27122380D02*
X196103809Y-26122380D01*
X196008571Y-26265238D01*
X195913333Y-26360476D01*
X195818095Y-26408095D01*
X216408095Y-26122380D02*
X216408095Y-26931904D01*
X216455714Y-27027142D01*
X216503333Y-27074761D01*
X216598571Y-27122380D01*
X216789047Y-27122380D01*
X216884285Y-27074761D01*
X216931904Y-27027142D01*
X216979523Y-26931904D01*
X216979523Y-26122380D01*
X217408095Y-26217619D02*
X217455714Y-26170000D01*
X217550952Y-26122380D01*
X217789047Y-26122380D01*
X217884285Y-26170000D01*
X217931904Y-26217619D01*
X217979523Y-26312857D01*
X217979523Y-26408095D01*
X217931904Y-26550952D01*
X217360476Y-27122380D01*
X217979523Y-27122380D01*
X150582380Y-39703333D02*
X151296666Y-39703333D01*
X151439523Y-39750952D01*
X151534761Y-39846190D01*
X151582380Y-39989047D01*
X151582380Y-40084285D01*
X151582380Y-38703333D02*
X151582380Y-39274761D01*
X151582380Y-38989047D02*
X150582380Y-38989047D01*
X150725238Y-39084285D01*
X150820476Y-39179523D01*
X150868095Y-39274761D01*
X165382380Y-30646666D02*
X164906190Y-30980000D01*
X165382380Y-31218095D02*
X164382380Y-31218095D01*
X164382380Y-30837142D01*
X164430000Y-30741904D01*
X164477619Y-30694285D01*
X164572857Y-30646666D01*
X164715714Y-30646666D01*
X164810952Y-30694285D01*
X164858571Y-30741904D01*
X164906190Y-30837142D01*
X164906190Y-31218095D01*
X164382380Y-29789523D02*
X164382380Y-29980000D01*
X164430000Y-30075238D01*
X164477619Y-30122857D01*
X164620476Y-30218095D01*
X164810952Y-30265714D01*
X165191904Y-30265714D01*
X165287142Y-30218095D01*
X165334761Y-30170476D01*
X165382380Y-30075238D01*
X165382380Y-29884761D01*
X165334761Y-29789523D01*
X165287142Y-29741904D01*
X165191904Y-29694285D01*
X164953809Y-29694285D01*
X164858571Y-29741904D01*
X164810952Y-29789523D01*
X164763333Y-29884761D01*
X164763333Y-30075238D01*
X164810952Y-30170476D01*
X164858571Y-30218095D01*
X164953809Y-30265714D01*
X203033333Y-61582380D02*
X202700000Y-61106190D01*
X202461904Y-61582380D02*
X202461904Y-60582380D01*
X202842857Y-60582380D01*
X202938095Y-60630000D01*
X202985714Y-60677619D01*
X203033333Y-60772857D01*
X203033333Y-60915714D01*
X202985714Y-61010952D01*
X202938095Y-61058571D01*
X202842857Y-61106190D01*
X202461904Y-61106190D01*
X203366666Y-60582380D02*
X204033333Y-60582380D01*
X203604761Y-61582380D01*
M02*
