M48
INCH
T1C0.0130
T2C0.0315
T3C0.0350
T4C0.0394
T5C0.0400
T6C0.0791
%
G90
G05
T1
X6.75Y-1.25
X7.75Y-1.8
X7.9Y-1.05
X7.9Y-1.1
X8.75Y-1.0
T2
X6.65Y-1.0
X6.65Y-1.4
X6.75Y-1.0
X6.75Y-1.4
X6.85Y-1.0
X6.85Y-1.4
X6.45Y-1.7
X6.45Y-2.0
X7.25Y-2.45
X7.25Y-2.5484
X8.05Y-0.95
X8.1484Y-0.95
X7.4Y-1.2
X7.4Y-1.3
X7.4Y-1.4
X7.4Y-1.5
X7.4Y-1.6
X7.4Y-1.7
X7.4Y-1.8
X7.4Y-1.9
X7.4Y-2.0
X7.4Y-2.1
X7.4Y-2.2
X7.4Y-2.3
X8.0Y-1.2
X8.0Y-1.3
X8.0Y-1.4
X8.0Y-1.5
X8.0Y-1.6
X8.0Y-1.7
X8.0Y-1.8
X8.0Y-1.9
X8.0Y-2.0
X8.0Y-2.1
X8.0Y-2.2
X8.0Y-2.3
X8.25Y-1.2
X8.25Y-1.3
X8.25Y-1.4
X8.25Y-1.5
X8.25Y-1.6
X8.25Y-1.7
X8.25Y-1.8
X8.25Y-1.9
X8.25Y-2.0
X8.25Y-2.1
X8.25Y-2.2
X8.25Y-2.3
X8.85Y-1.2
X8.85Y-1.3
X8.85Y-1.4
X8.85Y-1.5
X8.85Y-1.6
X8.85Y-1.7
X8.85Y-1.8
X8.85Y-1.9
X8.85Y-2.0
X8.85Y-2.1
X8.85Y-2.2
X8.85Y-2.3
X8.85Y-1.0
X8.9484Y-1.0
X6.4Y-2.2
X6.4Y-2.5
X6.5Y-2.2
X6.5Y-2.5
X6.6Y-2.2
X6.6Y-2.5
X6.7Y-2.2
X6.7Y-2.5
X6.8Y-2.2
X6.8Y-2.5
X6.9Y-2.2
X6.9Y-2.5
X7.0Y-2.2
X7.0Y-2.5
X7.1Y-2.2
X7.1Y-2.5
X6.4Y-1.05
X6.4Y-1.35
X6.6Y-1.55
X6.9Y-1.55
X6.65Y-1.7
X6.65Y-2.0
X6.85Y-1.7
X6.85Y-2.0
X7.85Y-2.5
X8.15Y-2.5
X7.05Y-1.7
X7.05Y-2.0
T3
X6.15Y-1.9
X6.15Y-2.0
T4
X7.4047Y-2.5
X7.7Y-2.5
T5
X6.39Y-0.8
X6.49Y-0.8
X6.59Y-0.8
X6.69Y-0.8
X6.75Y-2.7
X6.79Y-0.8
X6.85Y-2.7
X6.89Y-0.8
X6.95Y-2.7
X6.99Y-0.8
X7.05Y-2.7
X7.09Y-0.8
X7.15Y-2.7
X7.19Y-0.8
X7.25Y-2.7
X7.29Y-0.8
X7.35Y-2.7
X7.45Y-0.8
X7.45Y-2.7
X7.55Y-0.8
X7.65Y-0.8
X7.65Y-2.7
X7.75Y-0.8
X7.75Y-2.7
X7.85Y-0.8
X7.85Y-2.7
X7.95Y-0.8
X7.95Y-2.7
X8.05Y-0.8
X8.05Y-2.7
X8.15Y-0.8
X8.15Y-2.7
X8.25Y-2.7
X8.35Y-0.8
X8.35Y-2.7
X8.45Y-0.8
X8.55Y-0.8
X8.55Y-2.7
X8.65Y-0.8
X8.65Y-2.7
X8.75Y-0.8
X8.75Y-2.7
X8.85Y-0.8
X8.85Y-2.7
X8.95Y-0.8
X8.95Y-2.7
X9.05Y-0.8
X9.05Y-2.7
X9.15Y-2.7
X9.25Y-2.7
X9.35Y-0.8
X9.35Y-0.9
X9.35Y-1.0
X9.35Y-1.1
X9.35Y-1.2
X9.35Y-1.3
X9.35Y-1.4
X9.35Y-1.5
X9.35Y-1.6
X9.35Y-1.7
X9.35Y-1.8
X9.35Y-1.9
X9.35Y-2.0
X9.35Y-2.1
X9.35Y-2.2
X9.35Y-2.3
X9.35Y-2.4
X9.35Y-2.5
X9.45Y-0.8
X9.45Y-0.9
X9.45Y-1.0
X9.45Y-1.1
X9.45Y-1.2
X9.45Y-1.3
X9.45Y-1.4
X9.45Y-1.5
X9.45Y-1.6
X9.45Y-1.7
X9.45Y-1.8
X9.45Y-1.9
X9.45Y-2.0
X9.45Y-2.1
X9.45Y-2.2
X9.45Y-2.3
X9.45Y-2.4
X9.45Y-2.5
T6
X5.95Y-1.7
X5.95Y-2.1
T0
M30
